/* XPM */
static char *result[] = {
/* columns rows colors chars-per-pixel */
"60 61 203 2 ",
"   c #AC3F06",
".  c #AE4306",
"X  c #B04607",
"o  c #B44C07",
"O  c #B04D09",
"+  c #B55507",
"@  c #B85607",
"#  c #BA5D0A",
"$  c #B85C09",
"%  c #BD6307",
"&  c #BD6907",
"*  c #C36509",
"=  c #C66D07",
"-  c #C47207",
";  c #CC7307",
":  c #CA7A07",
">  c #C6700B",
",  c #CF7E08",
"<  c #C8710E",
"1  c #D37C08",
"2  c #CC7B14",
"3  c #C37625",
"4  c #CE8307",
"5  c #D58608",
"6  c #DA8308",
"7  c #D58808",
"8  c #DA8B08",
"9  c #DE9308",
"0  c #D79D09",
"q  c #DD9C09",
"w  c #E38D09",
"e  c #E49409",
"r  c #EA9409",
"t  c #E39B09",
"y  c #EC9C09",
"u  c #F09F09",
"i  c #E4A50A",
"p  c #ECA309",
"a  c #E7AD0A",
"s  c #EBAC09",
"d  c #F1A308",
"f  c #F2AC08",
"g  c #EBB209",
"h  c #EFBB09",
"j  c #E3BA09",
"k  c #F2B408",
"l  c #F3BB09",
"z  c #C98A27",
"x  c #D2952C",
"c  c #CE8F39",
"v  c #D29437",
"b  c #DBB231",
"n  c #D8AA35",
"m  c #E9CB0A",
"M  c #F4C209",
"N  c #F9C409",
"B  c #F5CB09",
"V  c #FACA09",
"C  c #EED909",
"Z  c #F7D309",
"A  c #FAD309",
"S  c #FBDC09",
"D  c #FACC11",
"F  c #FACD19",
"G  c #FBDA11",
"H  c #FBD21B",
"J  c #FDE508",
"K  c #F7EE09",
"L  c #FDEB08",
"P  c #F4E60A",
"I  c #FDF209",
"U  c #FDF90A",
"Y  c #FCE41C",
"T  c #FCEA18",
"R  c #FDFA15",
"E  c #FCF21B",
"W  c #FDFA19",
"Q  c #FACD24",
"!  c #F9CE2A",
"~  c #FAD22F",
"^  c #FAD625",
"/  c #E7CE3C",
"(  c #FCD838",
")  c #F9D537",
"_  c #FBE52B",
"`  c #FBF126",
"'  c #FBF42A",
"]  c #FCFA2B",
"[  c #FCE331",
"{  c #FAE43A",
"}  c #FAF133",
"|  c #FBF33A",
" . c #FCFB3B",
".. c #FCF833",
"X. c #DFB94B",
"o. c #DCB658",
"O. c #E0BE41",
"+. c #F7CF45",
"@. c #EDD949",
"#. c #F9D748",
"$. c #E2C353",
"%. c #FAD756",
"&. c #F7DD51",
"*. c #F9DF56",
"=. c #F7DA58",
"-. c #F5D45D",
";. c #F5EB4A",
":. c #FBEE4A",
">. c #FAE548",
",. c #FCF84F",
"<. c #F9F44A",
"1. c #F1E252",
"2. c #FBE454",
"3. c #FCEE50",
"4. c #F7EF59",
"5. c #FBEE5B",
"6. c #F9F251",
"7. c #FBF851",
"8. c #FAF55D",
"9. c #F7F35A",
"0. c #EDDB62",
"q. c #F6D66E",
"w. c #F9DB69",
"e. c #F4D464",
"r. c #FADD7D",
"t. c #FBDC72",
"y. c #F5E668",
"u. c #F3E86A",
"i. c #FBF664",
"p. c #F7F16E",
"a. c #FCF669",
"s. c #F5E17C",
"d. c #F9E877",
"f. c #FAF477",
"g. c #F3DB8C",
"h. c #EEDC9F",
"j. c #EFDB95",
"k. c #F0DB94",
"l. c #FCE486",
"z. c #F7EF82",
"x. c #F8E38D",
"c. c #F4EE8F",
"v. c #FCEB8D",
"b. c #F8F080",
"n. c #F6F389",
"m. c #EFE198",
"M. c #F1EE93",
"N. c #F3E39C",
"B. c #F0EE99",
"V. c #FCE89B",
"C. c #F6F49D",
"Z. c #EEDFA3",
"A. c #EDDFB0",
"S. c #EFE1A5",
"D. c #EFEAA3",
"F. c #EDEAAE",
"G. c #F2E2AC",
"H. c #F9E6A8",
"J. c #F1EFAE",
"K. c #F6E6A9",
"L. c #F7F0A5",
"P. c #EBE2BF",
"I. c #EDEABC",
"U. c #EDE1B4",
"Y. c #F1EAB7",
"T. c #FAECB6",
"R. c #F3E6BE",
"E. c #F7F2BE",
"W. c #FDF9BF",
"Q. c #EEEAC4",
"!. c #EBE4CD",
"~. c #F3EBC4",
"^. c #FCEEC2",
"/. c #FBF3CB",
"(. c #F8F5C8",
"). c #E9E5D5",
"_. c #EEECD7",
"`. c #E7E7DF",
"'. c #E8E6DB",
"]. c #EDEBDB",
"[. c #F3EBD1",
"{. c #F4EFDE",
"}. c #FDF6D0",
"|. c #F6F2DC",
" X c #F9F3DB",
".X c #FAF7D7",
"XX c None",
"oX c None",
"OX c None",
"+X c None",
"@X c None",
"#X c None",
"$X c None",
"%X c None",
"&X c None",
"*X c None",
"=X c None",
"-X c None",
";X c None",
":X c None",
">X c None",
",X c None",
"<X c None",
/* pixels */
"@X<X,X:X@X@X<X,X:X@X@X,X,X:X@X@X:X<X:X@X&X:X<X<X@X@X:X,X,X;X@X:X<X,X:X@X:X:X<X:X@X@X,X,X:X@X;X:X,X,X@X@X:X,X,X@X@X:X<X<X",
"@X<X<X:X+X+X<X<X:X+X+X<X<X<X+X+X<X<X<X+X+X:X<X<X+X+X:X<X<X@X+X@X<X<X@X+X@X<X<X:X+X+X<X<X:X+X+X<X<X,X+X+X<X<X<X+X+X:X<X<X",
"@X<X<X:X+X@X<X<X:X@X+X<X<X,X@X@X:X<X<X@XOX:X>X}.m.s.2.{ Y L T _ :.f.M.D._.<X<X@X@X@X<X<X:X@X+X<X<X,X@X@X:X<X<X@X@X:X<X<X",
"<X+X+X:X<X<X@X+X:X<X<X@X+X@X<X<X@X+X@X>XT.d.( G S S J J J J J L L L L K ` 3.M..X<X<X@X+X:X<X<X@X@X@X<X<X@X+X@X<X<X&X+X@X",
"<X@X+X:X<X<X@X+X:X<X<X@X@X@X<X<X@X].g.( A S S A Z Z B B B B B Z A S J L L I I E i.}.+X+X;X<X<X@X+X@X<X<X;X+X@X<X<X:X+X+X",
":X:X:X:X:X&X:X:X:X&X:X:X:X:X:X$Xg.Q V A V V M k k f k f f k k k k l h M Z S L I I U 6.(.:X:X:X:X:X:X:X;X:X:X:X:X:X:X:X:X",
"@X<X<X:X+X@X<X<X:X+X+X<X<X<XU.) V V V l k f f f f d f f f k k k k l k l l l M Z L I U U f.'.XX<X<X<X+X+X:X<X<X+X@X:X<X<X",
"@X<X<X@X+X@X<X<X:X+X+X<X>Xl.A B B l f d d d d d f f f f k f f k k k k k l l l l M A K I U ' I.,X<X,X+X+X<X<X<X@X@X:X<X<X",
"<X+X@X:X<X<X@X@X&X<X<X_.*.A A B k d u d d d d d d f f f f f f k k k k k k l l l h M N P I U R B.@X;X<X<X;X@X@X<X<X:X@X+X",
"<X+X+X:X<X<X+X+X;X<X-X{ S S N k d d d d d d d d d d f d f f f f k f k k l k l l l l l M A I U U c.@X<X<X@X+X@X<X<X:X+X+X",
":X:X:X:X:X:X:X:X:X X[ S S M f f f d d d d u d d d d d f f f f f k k f k k k l l l l l l M B J U U n.:X,X:X&X:X:X,X:X;X&X",
"@X<X<X@X+X@X<X<X%X{ J J N f f f f f d d d d u d d f d f f 9 L k f f k k k k k k l l l h M l B L U U B.+X,X<X<X+X+X:X<X<X",
"@X<X<X:X+X@X<X>X5.J J V k f f f f f d d d d d d d d d d 9 P U J k f f k k k k k g l l l l l M M L U U F.,X<X<X+X+X:X<X<X",
"<X@X@X:X:X<X@Xz.L L B l k k k f f d f f f d d d d d d e m U U U S f k f f k k k k l l k l l h M B I U .._.@X@X<X<X:X@X@X",
"<X@X+X:X<X<XI.I L J l k l k k f k f f d f d d d d d y j U U U U U Z f f f k k k k l k l l l l l l B U U 8.+X@X<X<X:X+X+X",
":X@X@X:X<X*X<.I L N l l l f k k k f f f f d d d d u 0 I U U U U U I M f k f k k k k k k k l l l M M S I U J.;X,X,X:X@X@X",
"@X<X<X:X+XM.U I S h l l l k k k k k f f f f d d f 8 L U U U U U U U U l f f f k k k k k k l l l h M M L U  .*XXX+X<X<X<X",
"@X<X<X:X`.' U K M M l l l l h k k f f k f f f d 8 C U U U U U U U U U I k f k f f k k k k l l l l l l Z I U C.XX+X:X<X<X",
":X:X@X:XL.I I S M M l l l l l k k k k k f f f t j U U U U U U U U U U U L f f f f k k k k k k l l l l M J U | *X:X:X:X@X",
"<X+X+X&X:.L J M M M M l l l l l k k k k k f p 0 U U U U U U U U I U U I I J k f f f k k k k l k l l l l A L U W.<X:XXXXX",
"<X@X@XR.J J Z l M M M h M h l h l k k k k l B L I I I I I I I I I I I I I I J A l k k k f k k k g l l l l L U a.<X:X@X+X",
"+X<X<Xv.J J M l h M M M M l l l l l l B S L L L L L L L L L L L L L L L L L L L L S V l f k k k k l l l l S L ' ).:X<X<X",
"@X<X<X2.S A k l l h M M M M M l N A J J J J J J J J J J J J J J J J J J J J J J J J J J S V l k k l k l l N L I D.:X<X<X",
":X:X|.^ S N k k l h M l M M Z S S J S S J S S J J S S J S S S J J S S S S J S S S J S S S J J S V l f s s s L I b.:X:X:X",
"<X+XU.A S k k k k k s q Z S S S S S S S S S S S S S S S S S S S S S S S S S S A S S A S S S S S A 7 d p i d Z I 8.&XXXXX",
"<X+Xk.V A f f f k k 4 . h A A A V A A A A A V A A V A A A V A A A V V A A V A A V A A A A Z V Z q w p p d i M K } $XXXXX",
"@X<Xl.V V f f f f k k % + N V V V V V V V V V V V V V V V V V V V V V V V V V V V V V V V V V l 1 p p i d i l L E  X<X<X",
"@X<Xw.V N d d f f k k f + - V V V V V V V V V V V V V V V V N V V V V V V V V V V V V V V N V 4 y p y p i d g J T /.<X<X",
":X,X#.V l d d d f f f k t . q V V V V V V V V V V N V V V V V V V V V V V V V V V V V V V V 9 w y p p y d p d P J E.:X,X",
"<X+X+.V l d d d d f f f k 7 . s V V V V V V V V V V V V V V V V V V V V V V V V V V V V N l 6 u y y y p p p s J J Y.+X+X",
"<XXX+.V l d d d d d f f f k = $ l V V V V V V V V V V V V V V V V V V V V V V N V V V V N 5 y y y y p y p y s S J Y.+X+X",
"@X<X%.V l d d u d p d f f f f @ : V V V V V V V V V V V V V V V V V V V V V V V V V V V q w y y y y y y y p s S J (.<X<X",
"@X<Xr.V N d d d u d d d f f f e X i N V V V V V V V V V V V V V V V V V V V V V V V V g 6 r y r u r y y y y g S Y  X<X<X",
"$X,Xg.V V d u d u u u d d f f f 1 o l V V V V V V V V V V V V V V V V V V V V V V V V 8 r r r y y y y y y p g S ^ *X,X<X",
"<XXXZ.V V d d u u u d u d d d d y o 4 A Z A A A A A A A A A A A A A A A A A A A A A A y r r r r y r y y y y l S >.:X+X+X",
"<XXXQ.V V f u u d d u u r r y y y ; - S S S S S S S S S S S S S S S S J S J S S S S S y r r r r r r r y u y M S d.@X+X+X",
"$X,X*X~ V k u u r r r r r r r y y 1 & L J J J J J J L J J J J J J J J J J L J J J J J y y r r r y r y y y p B S N.:X<X:X",
"@X<X<Xt.V l r r r r r r r r r r u 1 % L I L I I I L L I I I I L I I I L L I I I I L L y r y r r r r r r r s A S P.,X<X<X",
"@X<X<XH.V V u r r r r r r r r r r 6 $ U U U U U U U U U U U U U U U U U U U U U U U I p y r r r r r r r y k A #.OX:X<X<X",
"<XXXXX#X! V k r r r r r r r r r r w + R R R R R R R W R R W W W W R W W W W W W W W T d y y y u r r r r y V A V.<X:X+X+X",
"<X+X+X:Xr.V N y r r r r r r r r r w O ' ] ] ] ] ] ] ] ] ] ] ] ] ] ] ] ] ] ] ] ] ] ..' y y y y y y r r r f V H =X<X:X+X@X",
":X:X:X:X[.D V d r r r r r r r r r w O }  . . . . . . . . . . . . . . . . . .<. . . .| p y y y y r y y y l V w.$X:X:X:X:X",
"+X<X<X:XXXe.V N y r r r r r r r r w O :.,.,.,.,.,.7.7.7.7.;./ b @.<.,.,.7.7.7.7.7.7.<.p p y y y y r r f V D .XXX+X:X<X<X",
"@X<X<X&X+X!.F V k r r r r w r r r e . 1.8.8.8.8.8.4.@.n 2 > , ; $ % z O.1.8.8.i.i.i.5.p y p y y y y p B V l.<X+X@X:X<X<X",
"<X+X+X:X<X<Xk.V V d r r r r r r r r   e.p.p.y.$.x < 6 e p p s s a a q : # # z X.0.u.u.p p y p y y y M A ^ ).@X<X<X:X+X+X",
"<X+X+X:X<X<X'.+.V l y r r r r r r r X o.o.v ; 1 e y y p p p p s s g g g g i 8 < * 3 c p p p y p p h A S Z.+X@X<X<X:X+X+X",
":X:X:X:X:X,X:X[.! V l u r r r r r r * ; 6 r r r r y y y y p p p s s g g g a s s s p e p p p p p g S S r.:X:X;X:X:X:X&X:X",
"@X<X<X:X+X+X<X<XT.V V k r r r r r r r r r r r r r r y y y p p p p s s a g g g a a s s p s p p g S S &.'.,X<X<X+X@X:X<X<X",
"@X<X<X:X+X+X<X<X:Xk.N V l y r r r r r r r r r r r r r y y y y p p s s s a s g a g s s s i i h S J [ '.+X,X<X<X+X+X:X<X<X",
"<X@X@X,X<X<X@X@X:X<XV.V V l u r r r r r r r r r r r r r r y p y y p p s s s g g g a s s k N J L { ].<X<X;X@X@X<X<X;X@X@X",
"<X+X+X:X<X<X+X+X:X<X<XN.V V V d r r r r r r r r r r r r r y y y y p p s s s a g g s s l Z K L >.'.@X<X<X@X+X@X<X<X:X+X+X",
":X@X@X:X<X<X@X@X:X,X<X@XR.~ V V k y r r r r r r r r r r r r y y y p p p p s s s g h B L I I d.@X@X:X<X,X:X@X&X,X<X:X@X;X",
"@X<X<X:XXX+X<X<X:X+X+X<X<X X-.B V N k u r r r r r r r r r r r r y p y p p s p g B P U I } D.oX<X<X<X+X+X<X<X<X@X+X:X<X<X",
"@X<X<X:XXX+X<X<X:X+X+X<X<X,X`.h.! V V N k d y r r r r r r r r r y y y p s g B S L U R f._.+X+X<X<X:X+X+X:X<X<X+X+X:X<X<X",
",X@X@X:X<X,X$X;X:X,X,X:X;X:X,X<X#Xk.! V V V V l f d y y y y y y p p g M Z J J L L a.Q.@X:X,X<X@X@X:X<X,X;X@X@X<X<X:X@X@X",
"<X+X+X:X<X<X+X+X:X<X<X+X+X@X<X<X;XXX'.T.%.F V V V V V N N N N N V B A A S S [ d..X<X@X+X:X<X<X@X@X@X<X<X@X+X@X<X<X:X+X+X",
"<X@X+X:X<X<X@X@X@X<X<X@X@X:X<X<X;X+X$X<X<X#XG.q.+.Q V V V V V V V F ! =.x.~.+X:X<X<X@X+X:X<X<X@X@X@X<X<X@X@X@X<X<X:X@X+X",
"@X<X<X:X+X+X<X<X:X@X+X<X<X:X+X+X,X<X<XXX+X:X<X<X@X).~.^.T.S.Z.G./.-XOX+X@X<X<X:X+X+X<X<X:X+X+X<X<X,X+X+X<X<X<X+X+X:X<X<X",
"@X<X<X:X@X@X<X<X:X@X+X<X<X<X+X@X,X<X<XXX+X:X<X<XXXXX:X<X<X@X+X@X<X<X$X+X@X<X<X:X+X@X<X<X:X+X+X<X<X<X+X+X:X<X<X+X+X:X<X<X",
":X:X:X:X:X:X:X@X:X:X:X@X:X:X:X:X:X:X:X:X:X:X:X:X:X:X:X:X:X:X:X:X:X:X:X:X:X:X:X:X:X:X:X:X:X:X:X:X:X:X:X:X:X:X:X:X:X:X:X:X",
"<X+X+X:X<X<X@X+X:X<X<X@X+X@X<X<X@X+X@X<X<X:XXXXX<X<X,X+X+X<X<X<X+X+X,X<X<X+X+X:X<X<X@X+X&X<X<X@X+X@X<X<X@X@X@X<X<X:X+X+X"
};
