/* XPM */
static char *result[] = {
/* columns rows colors chars-per-pixel */
"60 61 192 2 ",
"   c #AF4406",
".  c #B54E07",
"X  c #B75307",
"o  c #BC5605",
"O  c #BC5B07",
"+  c #B75509",
"@  c #B75809",
"#  c #C35F07",
"$  c #C66307",
"%  c #C36908",
"&  c #C76A07",
"*  c #D06F07",
"=  c #CE7B07",
"-  c #CD710A",
";  c #C67207",
":  c #D77F0B",
">  c #D77F07",
",  c #C36D11",
"<  c #C37E31",
"1  c #D68308",
"2  c #DC8408",
"3  c #DB8B08",
"4  c #D48908",
"5  c #DE9608",
"6  c #DD9F09",
"7  c #E18808",
"8  c #E09508",
"9  c #ED9608",
"0  c #E19B09",
"q  c #ED9B09",
"w  c #F09F09",
"e  c #D6AB09",
"r  c #DBAE09",
"t  c #DFB109",
"y  c #D8AF11",
"u  c #DAB11A",
"i  c #E5A409",
"p  c #EDA309",
"a  c #EEAC09",
"s  c #F3A508",
"d  c #F5AB08",
"f  c #E3B309",
"g  c #EDB309",
"h  c #E5B808",
"j  c #EDBB09",
"k  c #F4B408",
"l  c #F4BC09",
"z  c #F8BC09",
"x  c #EFAF13",
"c  c #F0AF13",
"v  c #E9B710",
"b  c #EEBC15",
"n  c #F2BF10",
"m  c #CF8F22",
"M  c #C88525",
"N  c #D38B23",
"B  c #CD9029",
"V  c #D49E2E",
"C  c #DDB427",
"Z  c #DCB732",
"A  c #DBB33A",
"S  c #DFB93B",
"D  c #E8BE37",
"F  c #EBCA0A",
"G  c #F5C309",
"H  c #F9C509",
"J  c #F6CB09",
"K  c #FDCC08",
"L  c #EAD00A",
"P  c #F7D409",
"I  c #FCD409",
"U  c #FCDD09",
"Y  c #F0DA0A",
"T  c #FCCE14",
"R  c #FCCE1C",
"E  c #EDD91B",
"W  c #FCD317",
"Q  c #FCDE10",
"!  c #F4E30A",
"~  c #FCE408",
"^  c #F6EB09",
"/  c #FDEA08",
"(  c #FDF309",
")  c #FDFB0A",
"_  c #FDFB11",
"`  c #FCF91C",
"'  c #F5C928",
"]  c #EAD128",
"[  c #FCD729",
"{  c #E7CC37",
"}  c #E6C93B",
"|  c #EAD23B",
" . c #FDD43B",
".. c #F8DA39",
"X. c #FCF422",
"o. c #FCFB27",
"O. c #FBF929",
"+. c #F9EB36",
"@. c #FAF731",
"#. c #FCFB36",
"$. c #FCF63A",
"%. c #CA8C40",
"&. c #D7AB4C",
"*. c #DEBB4B",
"=. c #DEBF57",
"-. c #E3C342",
";. c #FAD445",
":. c #FADA4A",
">. c #F4CE58",
",. c #E9D254",
"<. c #F7D454",
"1. c #FDD751",
"2. c #F7EE4E",
"3. c #F9E849",
"4. c #F9F44B",
"5. c #FCF94C",
"6. c #F8F243",
"7. c #F7EF59",
"8. c #FAF65D",
"9. c #E8C965",
"0. c #F6D565",
"q. c #FCDE79",
"w. c #F3E863",
"e. c #F9F368",
"r. c #F7F26C",
"t. c #F9E278",
"y. c #FDFA72",
"u. c #FAF57B",
"i. c #E2CC87",
"p. c #EDD48D",
"a. c #F5DC85",
"s. c #F6DB87",
"d. c #E9D596",
"f. c #F7DE94",
"g. c #FBE78F",
"h. c #F8EA86",
"j. c #EEE19F",
"k. c #F1EE90",
"l. c #FAE498",
"z. c #F6F29E",
"x. c #F9F59E",
"c. c #EDDDAC",
"v. c #EEDFB4",
"b. c #E7DDBB",
"n. c #EFE5A6",
"m. c #EDE4AD",
"M. c #EEEAAB",
"N. c #FBECA4",
"B. c #F3E2AC",
"V. c #F5EBAB",
"C. c #F7EAA5",
"Z. c #FCF2A3",
"A. c #FEF6AC",
"S. c #ECEABD",
"D. c #EDE5B6",
"F. c #F0E1B0",
"G. c #F0EDB7",
"H. c #FBEBB6",
"J. c #F3E5BE",
"K. c #FCEDB9",
"L. c #E9E2CC",
"P. c #EBE9CC",
"I. c #EBE5C4",
"U. c #F0E6C0",
"Y. c #F9ECC3",
"T. c #F2EBCB",
"R. c #F6EDC3",
"E. c #FCF2CA",
"W. c #E6E2D5",
"Q. c #EBE5D1",
"!. c #EBEBD5",
"~. c #E7E6DF",
"^. c #EAE7D9",
"/. c #ECE9DD",
"(. c #F4EEDD",
"). c #FCF3D5",
"_. c #F6F4DC",
"`. c #FBF4DC",
"'. c #F1F0D4",
"]. c None",
"[. c None",
"{. c None",
"}. c None",
"|. c None",
" X c None",
".X c None",
"XX c None",
"oX c None",
"OX c None",
"+X c None",
"@X c None",
"#X c None",
/* pixels */
"#X#X#X#XOXOXOXOXOXOXOXOXOXOXOXOXOXOXOXOXOXOXOXOXOXOXOXOXOXOXOXOXOXOXOXOXOXOXOXOXOXOXOXOXOXOXOXOXOXOXOXOXOXOXOXOX#X#X#X#X",
"#X#X#X#X].OX@X@X].].OX@X@X].].OX@X@X].].oX@X@X}.].}.@X@XOX].].@X@XOX].].@X@XOX].].@X@X+X].].@X@X@X].].OX@X@X].].#X#X#X#X",
"#X#X#X#X].OX@X@X].].OX@X@X].].}.@X@X}.].}.@X@X}.L.v.K.H.B.j.C.A.A.C.M.U.+X@XOX].].@X@X@X].].@X@XOX].].@X@X@X].].#X#X#X#X",
"#X#X#X#X@XOX].].@X@XOX].].@X@X@X].].@X@X+XF.0.T K K K I ~ ~ ~ ~ / / / / ( 2.Z..X@X].].}.@X@X}.].}.@X@XoX].].@X@X#X#X#X#X",
"#X#X#X#X@XOX].].@X@XOX].].@X@XOX].].+XN.[ H K K K I U U U U U U U ~ ~ / / ( ( ) u.!.].}.@X@X}.].oX@X@X}.].].@X@X#X#X#X#X",
"#X#X#X#XOXOXOXOXOXOXOXOXoX+XOXOXOXU.1.K K K K I I I I K H z l l l G l G P P ~ / ) X.h. X@XOXOXoXOXOXOXOXOXOX@XOX#X#X#X#X",
"#X#X#X#X].+X@X@X].].OX@X@X}.].|.N.R K K K K K K K G k k d d d k k k k l z l G P / ( ( 5.I.].@X@X@X].].@X@X@X].].#X#X#X#X",
"#X#X#X#X].OX@X@X].].OX@X@X].].a.K K K K K I K H k d d d d d d k k k k k l l l l G U ( ) O.D.OX@XOX].].OX@X@X].].#X#X#X#X",
"#X#X#X#X@XoX].}.@X@XOX}.}.+Xs.K K K K I I K z d s s d d d d d d d k k l l z l l l G P / ) ` G.].}.@X@X}.}.}.@X@X#X#X#X#X",
"#X#X#X#X@XOX].].@X@XOX].].l.K K K K U U I z d s s s s d d d d d k k k k k k l l l j l G / ) ` S.oX@X@XoX].].@X@X#X#X#X#X",
"#X#X#X#X@XoX}.oX+X+XOXoXF.T K K K I ~ U z d d d s s s s d d d d k d k k k l l l l l l G G / ) O.!.@X@XOX}.oXOX@X#X#X#X#X",
"#X#X#X#X].OX@X@X].].OX.X .K K K I ~ ~ H k d d d s s s s d d d d p G d k k k k l l l l j G G / ) 8.~.].OX@X@X].].#X#X#X#X",
"#X#X#X#X].+X@X@X].].OXq.K K K I / ~ I k k d d d d s s s s d d w F ) l k k k k k l l l l j G J ( ) k.].+X@X@X].].#X#X#X#X",
"#X#X#X#X@XoX}.oX@XOXY.T K K K ~ ( ~ z k k d d d d d d s s s s p ( ) Q d k k k l l l l l l G G P ( o._.OX}.}.OX@X#X#X#X#X",
"#X#X#X#X@XoX].].@X@X1.K K K I ( / J z k k k k d d d s s s s q Y ) ) ) P d k k k k k l l l l j G ~ ) y.|.].}.@X@X#X#X#X#X",
"#X#X#X#X+XoXoXoXOXR.K K K K / ( U l z l z k k d d d d s s s f ) ) ) ) ( l d k d l k l l l l l G J ( ) T.oXoX@XOX#X#X#X#X",
"#X#X#X#X].@X@X@X].<.K K K I ) ( J G l z k k k k d d d d d 8 / ) ) ) ) ) / k k k k k z k G k G j G U ( y.@X@X].].#X#X#X#X",
"#X#X#X#X].OX@X@XL.K K K K / ) ~ G l l l l z l k k k d d 9 L ) ) ) ) ) ) ) I d k k k k l k k k G l J ( ` .X@X].].#X#X#X#X",
"#X#X#X#XOXOX}.}.g.K K K I ( ( K G G G l l l k k k d d d e ) ) ) ) ) ) ) ) ) l d g k k k l l l k j G ~ ) z.oX@XOX#X#X#X#X",
"#X#X#X#X@XOX].]. .K K K I ( ( H G G G G l l l k k k k 8 ^ ) ) ) ) ) ) ) ) ) ~ k d k k k k l j G l l P ( 6.{.@X@X#X#X#X#X",
"#X#X#X#X@XoX}./.K K K K U ( I G G G G G l l z l k k k F ( ( ) ) ( ) ) ) ) ( ( / H k d k k k j k l l G / ( '.@X@X#X#X#X#X",
"#X#X#X#X].+X@XK.K K K K ~ / G l G H H G l G l z l I ( ( ( ( ( ( ( ( / ( ( ( ( ( ( ~ K k k l k k k j j ~ ( x.].].#X#X#X#X",
"#X#X#X#X].OX@Xq.K K K K ~ U l l G G G G G G G I / / / / / / ~ / ~ / / / / ~ / ~ / ~ / ~ K l k k k l l P ( r.].].#X#X#X#X",
"#X#X#X#XOXOXOX;.K K K I U I k z z G G G K P ~ ~ ~ ~ ~ ~ ~ ~ ~ ~ ~ ~ ~ ~ ~ ~ ~ ~ ~ ~ ~ ~ ~ ~ U H l k a g / $.OXOX#X#X#X#X",
"#X#X#X#X@XOX].T K K K K I H k k k l j I U ~ U U U U U ~ U U U U U U U U U U U U U U U U U U U U i p p a ^ X.+X@X#X#X#X#X",
"#X#X#X#X@XOX~.K K K K K I l d k l 3 ; I I I I I I I I I I I I I I I I I I U I I I I U I I I P f 3 p p a U / XX@X#X#X#X#X",
"#X#X#X#X].OX`.K K K K K I k d k k g X 6 I K I K I K I K K I I K K I K I K K K I K K K K K K K 4 p p p i P ( S.].#X#X#X#X",
"#X#X#X#X].OX).K K K H K K d d d k k 3 O H K K K K K K K K K K K K K K K K K K K K K K K K K i q p p p p J / n.].#X#X#X#X",
"#X#X#X#X+XOXJ.K K K H K K d s d d k k % 4 K K K K K K K K K K K K K K K K K K K K K K K K H 1 q q p i p G / C.OX#X#X#X#X",
"#X#X#X#X@XOXv.K K H G K K d s d d k k i . g K K K K K K K K K K K K K K K K K K K K K K K i q p p q p p G / Z.@X#X#X#X#X",
"#X#X#X#X@XOXv.K K H H K H s s s d d d k 1 % K K K K K K K K K K K K K K K K K K K K K K G 1 q q q q p q j ~ Z.@X#X#X#X#X",
"#X#X#X#X].OXE.H H H z K K d s s s d d k a o i K K K K K K K K K K K K K K K K K K K K K 5 q q p q q p q G ~ n.].#X#X#X#X",
"#X#X#X#X].OX`.K H G G H K d s s s d d d d 9 o K K K K K K K K K K K K K K K K K K K K H 7 9 9 q q q q i G ~ m.].#X#X#X#X",
"#X#X#X#XOXOX(.H G G G K K d s s s s s d d k O 6 K K K K K K K K K K K K K K K K I K K 0 9 9 w 9 q q q q G U '.OX#X#X#X#X",
"#X#X#X#X@XoX].H G G G H K k s s s s d d s s 3 o I I I I I I I I I I I I I I I I I I I p 9 9 9 9 q q q q J Q .X@X#X#X#X#X",
"#X#X#X#X@X|.}.' G G l H K k s s s w w 9 q w p   U U U U U U U U ~ U U ~ U U ~ ~ U U ~ s 9 9 9 9 0 q q q P [ +X@X#X#X#X#X",
"#X#X#X#X}.OX@X<.G G G G K H s w w 9 9 9 9 9 q . ~ ~ ~ ~ / / ~ / ~ / / / / ~ / / / / / p 9 9 9 9 9 9 9 i I 3.].].#X#X#X#X",
"#X#X#X#X].OX@Xf.G l j l K H 9 9 9 9 9 9 q 9 w . ~ ( ( ( ( ( ( ( ( ( ( ( ( ( ( ( ( ( ( d w 9 9 9 9 9 9 a I t.].].#X#X#X#X",
"#X#X#X#XOXOXOXI.G j l j K K w 9 9 9 9 9 9 9 9 o ! ) ) ) ) ) ) ) ) ) ) ) ) ) ) ) ) ) ) d q q 9 9 9 9 9 l I V.OXOX#X#X#X#X",
"#X#X#X#X@XOX}.[.G l l j H K d 9 9 9 q 9 9 9 9 o ! ) ) _ ) _ _ _ ) _ _ _ _ _ _ _ _ _ ) a q q 9 9 9 9 q H W ^.@X@X#X#X#X#X",
"#X#X#X#X@XOX].].>.j j j l K z w 9 q 9 9 9 9 9 # E o.o.o.o.o.o.o.o.o.o.o.o.o.o.o.o.o.O.a p q q q 9 9 q K <.].@X@X#X#X#X#X",
"#X#X#X#X].OX@X@Xv.j j l h H K w 9 9 9 9 9 9 9 # ] #.#.O.#.#.#.#.#.#.#.#.#.#.#.#.#.#.#.a q q q q q 9 l J H.@X].].#X#X#X#X",
"#X#X#X#X].+X@X@X[.b j h h l K d 9 9 9 9 9 9 9 $ { 5.5.5.5.5.5.5.4.{ | 5.5.5.5.5.5.5.5.x p i q q q q H R +X@X].].#X#X#X#X",
"#X#X#X#XoXOX@XOX}.p.h h h h K K 9 9 9 9 9 9 9 $ } 8.8.8.8.7.-.m % = % @ B -.7.e.e.8.e.l p q q q q k I s.+X+XoX}.#X#X#X#X",
"#X#X#X#X@XOX].].@XXXv f v f G K z 9 9 9 9 9 9 * A r.r.,.V & 3 s a a g k 0 ; @ M *.t.r.c q p q q p J W Q.].].@X@X#X#X#X#X",
"#X#X#X#X@XOX].].@X@Xs.f f a f J H s 9 9 9 9 9 * %.&.N : 9 w q p p a d g g g a 5 = , M p p p q p G I h.}.].}.@X@X#X#X#X#X",
"#X#X#X#XOXOXOXOXoX}.(.D f f f j K H 9 9 9 9 9 > * 7 9 9 9 w q p p p a a g g g g a a 0 p p q p j U ../.OX@XOX}.oX#X#X#X#X",
"#X#X#X#X].OX@X@X].}.OXF.f f r t G K k 9 9 9 9 9 9 9 9 9 9 q q p p p a a a g g g g a a p a i j U U m.].@X@X@X].].#X#X#X#X",
"#X#X#X#X}.OX@X@X}.].OX+X9.f r r f K K d 9 9 9 9 9 9 9 9 9 9 9 w q p p a a a g k g a a a p a P U t.].}.+X@X@X].].#X#X#X#X",
"#X#X#X#X@XOX].].@X@XOX].W.S r r e h K K d 9 9 9 9 9 9 9 9 9 9 9 w p p s s a g g g g f a g U ~ 3.{.@X@XoX].].@X@X#X#X#X#X",
"#X#X#X#X@XoX].].@X@XOX].].(.C e e e j K K d q 9 9 9 9 9 9 9 9 9 9 q p p p a a g h a f j ! ( +./.oX@X@X}.].].@X@X#X#X#X#X",
"#X#X#X#XoXOX+XOXoXOXOXOX+XoXb.u e e e j K K k q 9 9 9 9 9 9 9 9 9 w q p p a s a a j G ^ / +.XXOXOX XOXOX@XOXoXOX#X#X#X#X",
"#X#X#X#X].OX@X@X].].OX@X@X].].I.Z e e e j K K H a 9 9 9 9 9 9 9 9 9 q p p p p a g U ) ( 4.!.@X@X@X].].+X@X@X].].#X#X#X#X",
"#X#X#X#X}.OX@X@X].}.OX@X@XoX].}. X=.e e e t H K K z s q 9 9 9 9 9 9 q q p p g J / ( ( u.].].OX@XOX}.].+X@X+X}.].#X#X#X#X",
"#X#X#X#X@XoX].].@X@XOX].].@X@X@X].~.d.Z e e t G K K K H k d s p w w s d l J P / / 6.V.}.@X@X}.].oX@X@XoX].].@X@X#X#X#X#X",
"#X#X#X#X@XOX].].@X@XOX].].@X@XOX].].@X Xd.A e e f l H K K K K H H H H K I I U 3.Z.{.].oX@X@X}.].oX@X@XoX].}.@X@X#X#X#X#X",
"#X#X#X#XOXOXOXOXOXOXOXOXOXOXOXOXOXOXOXOXOX XU.i.*.y t h G H K K K K K K ;.g.R. XOXOXOXOXOXOXOXOXoXoXoXOXOXOXOXOX#X#X#X#X",
"#X#X#X#X].OX@X@X].].OX@X@X}.].oX@X@X].].}.@X@XoX].}.@X@X XW.Q.`.).T.L.[.@X@XOX].].@X@X@X].].@X@X+X].].@X@X@X].].#X#X#X#X",
"#X#X#X#X].OX@X@X].].OX@X@X].].oX@X@X].].}.@X@X}.].].@X@XOX].}.@X@XoX].}.@X@XOX].].@X@X+X].].@X@X@X].].OX@X@X].].#X#X#X#X",
"#X#X#X#X@XOX].].@X@XOX].].@X@XOX].].@X@X@X].].@X@X@X].].OX@X@X].].OX@X@X}.].OX@X@X].].oX@X@X}.].}.@X@XoX].}.@X@X#X#X#X#X",
"#X#X#X#X@XOX].].@X@XOX].].@X@X@X].].@X@X@X].].OX@X@X].].OX@X@X].].OX@X@X].}.OX@X@X}.].}.@X@X}.].}.@X@XoX].].@X@X#X#X#X#X"
};
