/* XPM */
static char *result[] = {
/* columns rows colors chars-per-pixel */
"60 61 174 2 ",
"   c #BE6409",
".  c #CE7C07",
"X  c #CD7C0C",
"o  c #D17F07",
"O  c #C3701A",
"+  c #D5840B",
"@  c #DB8C08",
"#  c #DA850C",
"$  c #DD9A08",
"%  c #DA8D12",
"&  c #E38908",
"*  c #ED9608",
"=  c #E49B09",
"-  c #EC9B09",
";  c #F09D08",
":  c #D6AB09",
">  c #DBAE09",
",  c #DFB109",
"<  c #DAA61F",
"1  c #D7AF19",
"2  c #DEB117",
"3  c #E4A309",
"4  c #EDA309",
"5  c #E2AD09",
"6  c #EDAC09",
"7  c #F3A508",
"8  c #F4AB08",
"9  c #E3B309",
"0  c #ECB409",
"q  c #E4B909",
"w  c #ECBA09",
"e  c #F4B408",
"r  c #F3BC09",
"t  c #F8BE09",
"y  c #D29A28",
"u  c #CD9537",
"i  c #D49B35",
"p  c #DBA52D",
"a  c #DAB327",
"s  c #DCB83C",
"d  c #E3B624",
"f  c #EFC009",
"g  c #EEC80A",
"h  c #F4C309",
"j  c #F9C409",
"k  c #F5CA09",
"l  c #FDCC08",
"z  c #EFD70A",
"x  c #F6D20A",
"c  c #FBD309",
"v  c #F1D90A",
"b  c #FBDA09",
"n  c #EFC01F",
"m  c #F5CB12",
"M  c #FDCE15",
"N  c #F5CC1B",
"B  c #F6DA12",
"V  c #FADB1B",
"C  c #FDE308",
"Z  c #FCEC08",
"A  c #FDF509",
"S  c #FDFB0A",
"D  c #FAE21E",
"F  c #FDF618",
"G  c #FDFB1B",
"H  c #FCF813",
"J  c #FACD26",
"K  c #F4CA2F",
"L  c #F7CC29",
"P  c #F7D028",
"I  c #FADC29",
"U  c #ECC037",
"Y  c #F0C735",
"T  c #FACF33",
"R  c #F3C935",
"E  c #FBD434",
"W  c #FAEA29",
"Q  c #FBF424",
"!  c #FCFB2D",
"~  c #FDF32D",
"^  c #FBED34",
"/  c #FBF438",
"(  c #FCFA3E",
")  c #DEBD4B",
"_  c #DCBD59",
"`  c #E0BE48",
"'  c #DFC15C",
"]  c #EDC041",
"[  c #E3C345",
"{  c #EBD44F",
"}  c #FAD345",
"|  c #FCD843",
" . c #F7D14A",
".. c #F9D44D",
"X. c #FDD849",
"o. c #E4C554",
"O. c #FADB52",
"+. c #F7D259",
"@. c #FAD559",
"#. c #F2E44B",
"$. c #F8ED4D",
"%. c #FCEB45",
"&. c #FCFA40",
"*. c #FAF548",
"=. c #F6E258",
"-. c #FBF854",
";. c #FAF65F",
":. c #DDC168",
">. c #DFC77A",
",. c #E9CB6C",
"<. c #E3C461",
"1. c #FBD965",
"2. c #FCDD6D",
"3. c #E1C774",
"4. c #F7D973",
"5. c #F0D27A",
"6. c #F3DA7F",
"7. c #FBDF7A",
"8. c #F9F564",
"9. c #F4F077",
"0. c #FCDF81",
"q. c #ECD795",
"w. c #EFDC99",
"e. c #F3DD93",
"r. c #F4E28F",
"t. c #FDF58F",
"y. c #FDF98B",
"u. c #FBE496",
"i. c #FDF892",
"p. c #E6D6A5",
"a. c #EEDDA5",
"s. c #EFDBA9",
"d. c #E3D9BD",
"f. c #EDE5A9",
"g. c #F2E2AD",
"h. c #F8F6A6",
"j. c #EBE5BD",
"k. c #F7E7B4",
"l. c #F4E6BB",
"z. c #FAEAB5",
"x. c #F6F5BD",
"c. c #FBF8B2",
"v. c #EBE2C4",
"b. c #E9E5CB",
"n. c #EDECCA",
"m. c #F4EBC3",
"M. c #F6F0C9",
"N. c #FAF6CE",
"B. c #ECE9D2",
"V. c #E7E6DF",
"C. c #E8E6DB",
"Z. c #ECEBDA",
"A. c #F2ECD5",
"S. c #F3EFDD",
"D. c #F1F1DE",
"F. c #F9F4DC",
"G. c None",
"H. c None",
"J. c None",
"K. c None",
"L. c None",
"P. c None",
"I. c None",
"U. c None",
"Y. c None",
"T. c None",
"R. c None",
"E. c None",
"W. c None",
"Q. c None",
"!. c None",
"~. c None",
"^. c None",
"/. c None",
/* pixels */
"/././././././././././.K.K.Q.^.^.K.J.W.^.^.K.K.L.^.^.L.K.L.^.^.W.K.K.^.^.Q.K.J.~.^.~.J.J.~.^.^.K.K./././././././././././.",
"/././././././././././.Q.Q.Q.~.~.W.Q.Q.~.~.Q.Q.Q.~.~.Q.L.S.U.U.S.A.A.U.Q.Q.W.Q.~.~.~.Q.L.Q.Q.~.L.Q./././././././././././.",
"/././././././././././.^.^.Q.J.K.^.^.~.J.K.^.^.~.J.b.2.l l l k l b C Z $.F.^.^.L.J.W.^.^.W.K.L.^.^./././././././././././.",
"/././././././././././.^.^.Q.J.K.^.^.Q.J.K.^.^.~.a.J l l l l l b C C C Z ~ H.^.K.J.Q.^.^.W.K.L.^.^./././././././././././.",
"/././././././././././.K.K.Q.^.~.L.L.L.^.~.T.K.g.l l l l l l c c l h h b Z / Z.~.^.~.K.L.~.^.~.K.L./././././././././././.",
"/././././././././././.K.K.~.^.^.K.K.Q.^.^.L.b.M l l l l l l c t e 8 e r x A 9.!.^.~.J.J.~.^.^.K.K./././././././././././.",
"/././././././././././.Q.W.Q.~.~.W.W.Q.~.~.W...l l l l l l l t 8 8 e e e r b H N.~.Q.T.Q.~.~.Q.W.W./././././././././././.",
"/././././././././././.^.^.W.K.K.^.^.~.J.K.z.l l l l l l c l 7 8 8 e e e r h Z 9.J.L.^.^.L.K.L.^.^./././././././././././.",
"/././././././././././.^.^.Q.J.K.^.^.~.K.C.| l l l l l l b t 7 8 8 8 e e t e x Q B.L.^.^.L.K.L.^.^./././././././././././.",
"/././././././././././.L.W.Q.~.~.W.L.Q.~.k.l l l c l l c b 8 7 7 8 8 e e e r h Z h.~.W.L.~.~.~.L.W./././././././././././.",
"/././././././././././.K.K.Q.^.^.K.J.W.^.2.l l l l l l b l 8 7 7 8 8 e e e r h v -.~.J.J.~.^.^.J.K./././././././././././.",
"/././././././././././.L.L.Q.^.~.L.L.Q.F.M l l l l l l C t 8 8 7 7 4 k e e r r k F U.L.L.~.^.~.L.L./././././././././././.",
"/././././././././././.^.^.Q.K.L.^.^.~.w.l l l l l l c C e 8 8 7 7 6 Z 8 e e r r Z x.^.^.W.K.L.^.^./././././././././././.",
"/././././././././././.^.^.Q.K.K.^.^.~. .l l l l l k C c e e 8 7 7 g S e e e w h v y.^.^.L.K.L.^.^./././././././././././.",
"/././././././././././.W.L.Q.~.~.W.L.S.M l l l l l l Z l t e 8 8 4 v S k e e r r k *.L.Q.~.~.~.L.W./././././././././././.",
"/././././././././././.K.K.~.^.^.K.K.v.l l l l l l l A j e e 8 8 4 A S C e e e e h Q C.J.~.^.~.K.K./././././././././././.",
"/././././././././././.L.L.Q.^.^.L.K.e.l l l l l l c Z h r e e 8 0 S S A e e e r r Z n.K.~.^.~.L.L./././././././././././.",
"/././././././././././.^.^.W.K.L.^.^.1.l l l l l l c Z h r e e 8 g S S S t e e e r C c.^.L.K.L.^.^./././././././././././.",
"/././././././././././.^.^.W.K.K.^.^.E l l l l l l b b h r t e 6 v S S S x e e t r v y.^.L.J.L.^.^./././././././././././.",
"/././././././././././.W.Q.Q.Q.Q.T.P.M l l l l l j b b h r r e 6 A S S S Z 8 e e e k 8.W.Q.~.~.Q.Q./././././././././././.",
"/././././././././././.K.K.~.^.^.K.v.l l l l l l k b k h j r t b A A A A Z b e e r j $.J.~.^.^.K.J./././././././././././.",
"/././././././././././.K.K.Q.^.^.L.a.l l l l l j h b t h j r x Z Z Z Z Z Z Z x t r r ^ J.~.^.~.K.K./././././././././././.",
"/././././././././././.^.^.Q.K.L.^.u.l l l l l j h b t h h c C Z C C C C Z C C c e r W !.W.K.L.^.^./././././././././././.",
"/././././././././././.^.^.W.K.K.^.0.l l l l l j h c e t x b C C C C C C C C C b h 6 D E.L.J.L.^.^./././././././././././.",
"/././././././././././.~.Q.Q.Q.Q.Q.1.l l l l j h h x e 3 x b b b b b b b b b b c 5 4 B D.Q.Q.Q.Q.~./././././././././././.",
"/././././././././././.K.K.Q.^.^.K...l l l l h h r l e @ 0 c c c c c c c l c c c = 4 b B.~.^.~.K.J./././././././././././.",
"/././././././././././.K.K.Q.^.^.K...l l l h h h r j 8 4 $ l l l l l c l l l l k = 4 k b.~.^.^.K.J./././././././././././.",
"/././././././././././.^.^.W.L.L.^...l l l j h r r j 8 e . l l l l l l l l l l e * 4 k F.Q.K.L.^.^./././././././././././.",
"/././././././././././.^.^.Q.K.K.^.X.l k j h h r r j 8 8 o h l l l l l l l l l 5 - 4 h N.L.K.L.^.^./././././././././././.",
"/././././././././././.~.~.Q.L.Q.~.| l l j h r w w t 8 8 = 6 l l l l l l l l l 4 - 4 f M.Q.W.W.~.~./././././././././././.",
"/././././././././././.J.K.~.^.^.K.} j j h h r w w t 7 8 6 = l l l l l l l l c = - 4 h j.~.^.~.K.K./././././././././././.",
"/././././././././././.K.K.Q.^.^.K...l j h r w w w t 7 8 e + l l l l l l l l w * - - h b.~.^.^.K.K./././././././././././.",
"/././././././././././.~.~.Q.L.Q.~.@.k j h w w w 9 j 7 7 8 . k l l l l l l l e * - - h F.W.L.W.~.~./././././././././././.",
"/././././././././././.^.^.Q.K.K.^.1.j h r r w 9 9 j 7 7 8 @ e c l c l l c l e * * - j U.W.J.L.^.^./././././././././././.",
"/././././././././././.^.^.Q.K.L.~.4.h r r w w 9 5 j 7 7 7 * 5 b b b b b b b e * - - N R.W.L.W.^.^./././././././././././.",
"/././././././././././.K.J.~.^.^.J.5.h h w q 0 9 5 j 7 ; * - 9 C C C C C C C h * * - N C.~.^.~.K.J./././././././././././.",
"/././././././././././.J.J.Q.^.~.K.q.h r w q 9 9 5 k - * * * 9 Z Z Z Z Z Z A k * * - P K.~.^.~.K.J./././././././././././.",
"/././././././././././.~.~.Q.Q.Q.Q.l.r r w 0 9 > > h * * * * q A A A A A A A k * * - E ~.Q.Q.Q.~.~./././././././././././.",
"/././././././././././.^.^.Q.J.K.^.U.h q 0 9 9 > > f ; * * * q S S S S S S S x - * - O.^.W.K.L.^.^./././././././././././.",
"/././././././././././.^.^.Q.K.K.^.!.n w 0 9 9 > : w 8 * * * 9 G G G G G G G k * * 4 2.^.L.K.L.^.^./././././././././././.",
"/././././././././././.J.J.~.^.~.K.J.U 9 9 9 5 > : w e * * * 2 ! ! ! ! ! ! ! N * * 6 6.J.~.^.^.J.K./././././././././././.",
"/././././././././././.J.J.~.^.^.K.J.,.0 9 9 > : : 9 e * * * < ( ( ( ( ( ( ( L - * e a.J.~.^.~.J.K./././././././././././.",
"/././././././././././.Q.T.Q.~.~.Q.Q.s.9 9 , > : : > j * * * p -.-.#.y #.-.-.K 4 - r A.Q.Q.~.~.Q.Q./././././././././././.",
"/././././././././././.^.^.Q.J.K.^.^.A.9 > > : : : : j 7 * * p ;.{ X 3   [ 8.R - - L !.^.L.J.L.^.^./././././././././././.",
"/././././././././././.^.^.W.J.K.^.^.T.d , > : : : : h 7 * * i o.% 4 6 0 X u ` - 4 O.^.^.L.J.L.^.^./././././././././././.",
"/././././././././././.K.L.~.^.~.L.L.Q.,.> : : : : : q e * * O # * 4 6 e 0 @ # 7 r r.L.K.~.^.~.K.K./././././././././././.",
"/././././././././././.J.J.~.^.^.K.K.T.l.: : : : : : , t * * & * * 4 4 6 0 6 6 4 k m.K.K.~.^.^.K.K./././././././././././.",
"/././././././././././.L.L.~.~.~.L.L.Q.F.a : : : : : : h 7 * * * * - 7 6 e 5 6 6 V I.W.L.~.~.~.L.L./././././././././././.",
"/././././././././././.^.^.Q.K.L.^.^.Q.K.>.: : : : : : w e * * * ; * 4 6 0 6 6 h =.L.^.^.W.K.L.^.^./././././././././././.",
"/././././././././././.^.^.Q.K.K.^.^.~.K.d.: : : : : : 9 j - * * * - 4 4 6 0 5 b f.W.^.^.L.K.L.^.^./././././././././././.",
"/././././././././././.L.L.Q.~.~.W.W.Q.~.~._ : : : : : > l 8 * * * * ; 7 6 0 j ^ R.~.L.W.~.~.~.W.W./././././././././././.",
"/././././././././././.K.K.~.^.^.K.K.W.^.^.b.: : : : : : q j * * ; * * 4 4 0 Z t.^.~.K.K.~.^.~.K.K./././././././././././.",
"/././././././././././.L.L.Q.^.~.L.K.Q.~.~.L.3.: : : : : > k e - * * - - 4 x G F.^.Q.L.L.~.^.~.L.L./././././././././././.",
"/././././././././././.^.^.W.J.L.^.^.~.J.K.^.^.s : : : : > q l 8 - * * - w A i.K.K.W.^.^.L.K.L.^.^./././././././././././.",
"/././././././././././.^.^.Q.K.K.^.^.Q.J.K.^.^.U.1 : : : : : j l e 8 8 h C %.^.K.J.L.^.^.L.K.L.^.^./././././././././././.",
"/././././././././././.Q.Q.Q.~.Q.Q.Q.Q.~.~.L.Q.Q.S.) : : : : > j l l l l I B.W.~.~.Q.Q.Q.Q.~.Q.Q.Q./././././././././././.",
"/././././././././././.K.K.Q.^.^.K.K.Q.^.^.L.K.W.^.^.p.:._ :._ ` Y L E 7.L.J.J.^.^.~.J.J.~.^.^.K.K./././././././././././.",
"/././././././././././.L.L.Q.^.~.L.K.Q.^.~.W.K.W.^.^.W.K.W.^.^.T.L.L.^.^.Q.L.K.!.^.~.K.K.~.^.~.K.K./././././././././././.",
"/././././././././././.^.^.Q.K.L.^.^.Q.K.L.~.^.~.K.K.~.^.~.K.K.~.^.^.K.K.Q.^.^.W.J.Q.^.^.L.K.L.^.^./././././././././././.",
"/././././././././././.^.^.W.K.K.^.^.Q.K.K.^.^.~.K.K.^.^.^.J.K.~.^.^.J.K.Q.^.^.J.J.Q.^.^.W.K.L.^.^./././././././././././.",
"/././././././././././.~.Q.Q.Q.Q.Q.Q.Q.Q.Q.Q.Q.W.Q.W.Q.Q.Q.Q.W.Q.Q.Q.Q.W.Q.Q.Q.Q.Q.Q.Q.Q.W.Q.Q.Q.~./././././././././././."
};
