/* XPM */
static char *result[] = {
/* columns rows colors chars-per-pixel */
"60 61 188 2 ",
"   c #D6AB09",
".  c #D7AB09",
"X  c #D7AC09",
"o  c #D9AD09",
"O  c #DAAD09",
"+  c #DCAF09",
"@  c #DDAF09",
"#  c #D8AF16",
"$  c #DEB31E",
"%  c #E0B009",
"&  c #E0B109",
"*  c #E2B209",
"=  c #E3B209",
"-  c #E3B309",
";  c #E4B209",
":  c #E5B509",
">  c #E6B609",
",  c #E8B709",
"<  c #E9B709",
"1  c #E6B80F",
"2  c #E8B809",
"3  c #EBB909",
"4  c #ECB909",
"5  c #EDB909",
"6  c #EEBB09",
"7  c #EEBC09",
"8  c #EFBC09",
"9  c #F1BD09",
"0  c #F1BE09",
"q  c #F2BE09",
"w  c #E4B614",
"e  c #E0B41F",
"r  c #DBB324",
"t  c #DAB52D",
"y  c #DBB737",
"u  c #DBB83F",
"i  c #F3C009",
"p  c #F4C009",
"a  c #F4C109",
"s  c #F5C209",
"d  c #F5C309",
"f  c #F6C409",
"g  c #F7C409",
"h  c #F8C509",
"j  c #F8C609",
"k  c #FAC809",
"l  c #FBC909",
"z  c #FCCA08",
"x  c #FDCA08",
"c  c #FDCB08",
"v  c #FDCC08",
"b  c #FDCD09",
"n  c #FDCE0D",
"m  c #FCCE0F",
"M  c #FDCE13",
"N  c #FCCE19",
"B  c #FCCE1E",
"V  c #FBCE20",
"C  c #FBCF2C",
"Z  c #FDD238",
"A  c #FAD23C",
"S  c #FDD63F",
"D  c #DEBB42",
"F  c #DBBC52",
"G  c #F8D34F",
"H  c #F7D458",
"J  c #F7D45A",
"K  c #F7D55F",
"L  c #F9D55B",
"P  c #DEC163",
"I  c #F6D560",
"U  c #F7D661",
"Y  c #F6D763",
"T  c #F7D964",
"R  c #FCD962",
"E  c #FDD962",
"W  c #F8DA66",
"Q  c #F2D46D",
"!  c #F4D66E",
"~  c #F7D86D",
"^  c #FDDE6B",
"/  c #FBDD6D",
"(  c #EED17E",
")  c #F0D171",
"_  c #F2D47B",
"`  c #F4D67D",
"'  c #F7D97A",
"]  c #F7DA7F",
"[  c #F7DC7F",
"{  c #FBDE7D",
"}  c #E3CC86",
"|  c #EDD484",
" . c #ECD68B",
".. c #F2D582",
"X. c #F6DC83",
"o. c #FADD82",
"O. c #F6DF8A",
"+. c #ECD696",
"@. c #EFD997",
"#. c #E9D69E",
"$. c #EBD69E",
"%. c #F0DA97",
"&. c #F1DB97",
"*. c #F1DB99",
"=. c #F2DC98",
"-. c #F3DC98",
";. c #F3DD9B",
":. c #F5DF9D",
">. c #F7E094",
",. c #F6E09C",
"<. c #F7E19D",
"1. c #F7E19E",
"2. c #ECDCA7",
"3. c #EEDDA7",
"4. c #EBDFA8",
"5. c #E8DAB3",
"6. c #EADDB2",
"7. c #EBDCB6",
"8. c #EDDFB4",
"9. c #E9DDBA",
"0. c #F6E5A5",
"q. c #FDE8A6",
"w. c #FEE9A6",
"e. c #F0E0A9",
"r. c #F3E2AB",
"t. c #F3E2AC",
"y. c #F2E1AF",
"u. c #FDEBAB",
"i. c #FDEDAD",
"p. c #EBE2BB",
"a. c #F5E5B0",
"s. c #FDEEB1",
"d. c #F2E3B8",
"f. c #F3E5BA",
"g. c #F3E8BF",
"h. c #FBECBE",
"j. c #E5DFCE",
"k. c #EBE1C2",
"l. c #EFE6C6",
"z. c #E5E0CF",
"x. c #E9E3C9",
"c. c #F0E7C0",
"v. c #F1E7C1",
"b. c #F9E9C1",
"n. c #FAECC5",
"m. c #FDEFC4",
"M. c #FDF4CD",
"N. c #E7E2D4",
"B. c #E6E2D6",
"V. c #E9E4D0",
"C. c #EEE6D2",
"Z. c #EBE6D5",
"A. c #ECE6D5",
"S. c #EFEBDD",
"D. c #F1EAD7",
"F. c #F6EED5",
"G. c #F8F0D5",
"H. c None",
"J. c None",
"K. c None",
"L. c None",
"P. c None",
"I. c None",
"U. c None",
"Y. c None",
"T. c None",
"R. c None",
"E. c None",
"W. c None",
"Q. c None",
"!. c None",
"~. c None",
"^. c None",
"/. c None",
"(. c None",
"). c None",
"_. c None",
"`. c None",
"'. c None",
"]. c None",
"[. c None",
"{. c None",
"}. c None",
"|. c None",
" X c None",
".X c None",
"XX c None",
"oX c None",
/* pixels */
"oXoXoXoXoXoXoXoXoXoXoXoXoX{.L.L.|.XX{.L.L.|.XX{.L.L.{.XX{.L.L.{.XX{.L.L.{.XX{.L.L.{.XX XL.L.{.oXoXoXoXoXoXoXoXoXoXoXoXoX",
"oXoXoXoXoXoXoXoXoXoXoXoXoX].Y.Y.{. X].Y.Y.{. X].Y.Y.]. X].Y.Y.]. X].Y.Y.]. X].Y.Y.]. X}.Y.Y.].oXoXoXoXoXoXoXoXoXoXoXoXoX",
"oXoXoXoXoXoXoXoXoXoXoXoXoXR.XXXXT.L.R.XXXXT.L.R.XXXXR.L.R.XXXXR.L.R.XXXXR.L.R.XXXXR.L.U.XXXXR.oXoXoXoXoXoXoXoXoXoXoXoXoX",
"oXoXoXoXoXoXoXoXoXoXoXoXoXR.XXXXT.L.R.XXXXT.L.R.XXXXS.p.c.M.M.c.x.R.XXXXR.L.R.XXXXR.L.U.XXXXR.oXoXoXoXoXoXoXoXoXoXoXoXoX",
"oXoXoXoXoXoXoXoXoXoXoXoXoX`.R.R.'.{.`.R.R.'.{.`.R.R.[ c c v v v A ^.R.R.`.{.`.R.R.`.{.].R.R.`.oXoXoXoXoXoXoXoXoXoXoXoXoX",
"oXoXoXoXoXoXoXoXoXoXoXoXoX{.L.L.|.XX{.L.L.|.XX{.L.L.I c c c c c m J.L.L.{.XX{.L.L.{.XX XL.L.{.oXoXoXoXoXoXoXoXoXoXoXoXoX",
"oXoXoXoXoXoXoXoXoXoXoXoXoX'.T.T.[.|.'.T.T.[.|.'.T.T.G v c c c c c F.T.T.'.|.'.T.T.'.|.{.T.T.'.oXoXoXoXoXoXoXoXoXoXoXoXoX",
"oXoXoXoXoXoXoXoXoXoXoXoXoXR.XXXXT.L.R.XXXXT.L.R.XXXXS c c c c c x g.XXXXR.L.R.XXXXR.L.U.XXXXR.oXoXoXoXoXoXoXoXoXoXoXoXoX",
"oXoXoXoXoXoXoXoXoXoXoXoXoXR.XXXXT.L.R.XXXXT.L.R.XX.XZ c c c c c c f.XXXXR.L.R.XXXXR.L.U.XXXXR.oXoXoXoXoXoXoXoXoXoXoXoXoX",
"oXoXoXoXoXoXoXoXoXoXoXoXoX`.R.R.'.{.`.R.R.'.{.`.R.P.C c c c c c v a.R.R.`.{.`.R.R.`.{.].R.R.`.oXoXoXoXoXoXoXoXoXoXoXoXoX",
"oXoXoXoXoXoXoXoXoXoXoXoXoX{.L.L.|.XX{.L.L.|.XX{.L.V.V c c c c c c 0.L.L.{.XX{.L.L.{.XX XL.L.{.oXoXoXoXoXoXoXoXoXoXoXoXoX",
"oXoXoXoXoXoXoXoXoXoXoXoXoX'.T.T.[.|.'.T.T.[.|.'.T.C.B c c c c c c 1.T.T.'.|.'.T.T.'.|.{.T.T.'.oXoXoXoXoXoXoXoXoXoXoXoXoX",
"oXoXoXoXoXoXoXoXoXoXoXoXoXR.XXXXT.L.R.XXXXT.L.R.XXK.N c c c v c c <.XXXXR.L.R.XXXXR.L.U.XXXXR.oXoXoXoXoXoXoXoXoXoXoXoXoX",
"oXoXoXoXoXoXoXoXoXoXoXoXoXR.XXXXT.L.R.XXXXT.L.R.XXH.M c c c c c v >.XXXXR.L.R.XXXXR.L.U.XXXXR.oXoXoXoXoXoXoXoXoXoXoXoXoX",
"oXoXoXoXoXoXoXoXoXoXoXoXoX`.R.R.'.{.`.R.R.'.{.`.R.v.n c c c c c c O.R.R.`.{.`.R.R.`.{.].R.R.`.oXoXoXoXoXoXoXoXoXoXoXoXoX",
"oXoXoXoXoXoXoXoXoXoXoXoXoX{.L.L.|.XX{.L.L.|.XX{.L.8.b c c c c c c X.L.L.{.XX{.L.L.{.XX XL.L.{.oXoXoXoXoXoXoXoXoXoXoXoXoX",
"oXoXoXoXoXoXoXoXoXoXoXoXoX`.R.R.'.{.`.R.R.'.{.`.R.d.v c c c c c c ] R.R.`.{.`.R.R.`.{.].R.R.`.oXoXoXoXoXoXoXoXoXoXoXoXoX",
"oXoXoXoXoXoXoXoXoXoXoXoXoXR.XXXXT.L.R.XXXXT.L.R.XXm.v c c c c c c o.XXXXR.L.R.XXXXR.L.U.XXXXR.oXoXoXoXoXoXoXoXoXoXoXoXoX",
"oXoXoXoXoXoXoXoXoXoXoXoXoXR.XXXXT.L.R.XXXXT.L.R.XXh.v c c c c c c { XXXXR.L.R.XXXXR.L.U.XXXXR.oXoXoXoXoXoXoXoXoXoXoXoXoX",
"oXoXoXoXoXoXoXoXoXoXoXoXoX`.R.R.'.{.`.R.R.'.{.`.R.t.v c c c c c c ' R.R.`.{.`.R.R.`.{.].R.R.`.oXoXoXoXoXoXoXoXoXoXoXoXoX",
"oXoXoXoXoXoXoXoXoXoXoXoXoX{.L.L.|.XX{.L.L.|.XX{.L.3.v c c c c c c ! L.L.{.XX{.L.L.{.XX XL.L.{.oXoXoXoXoXoXoXoXoXoXoXoXoX",
"oXoXoXoXoXoXoXoXoXoXoXoXoX`.R.R.'.{.`.R.R.'.{.`.R.r.v c c c c c c ~ R.R.`.{.`.R.R.`.{.].R.R.`.oXoXoXoXoXoXoXoXoXoXoXoXoX",
"oXoXoXoXoXoXoXoXoXoXoXoXoXR.XXXXT.L.R.XXXXT.L.R.XXs.v c c c c c c ^ XXXXR.L.R.XXXXR.L.U.XXXXR.oXoXoXoXoXoXoXoXoXoXoXoXoX",
"oXoXoXoXoXoXoXoXoXoXoXoXoXR.XXXXT.L.R.XXXXT.L.R.XXu.v c c c c c c ^ XXXXR.L.R.XXXXR.L.U.XXXXR.oXoXoXoXoXoXoXoXoXoXoXoXoX",
"oXoXoXoXoXoXoXoXoXoXoXoXoX].U.U.{. X].U.U.{. X].U.=.v c c c c c c T U.U.]. X].U.U.]. X}.U.U.].oXoXoXoXoXoXoXoXoXoXoXoXoX",
"oXoXoXoXoXoXoXoXoXoXoXoXoX{.L.L.|.XX{.L.L.|.XX{.L.@.v c c c c c c Y L.L.{.XX{.L.L.{.XX XL.L.{.oXoXoXoXoXoXoXoXoXoXoXoXoX",
"oXoXoXoXoXoXoXoXoXoXoXoXoX`.R.R.'.{.`.R.R.'.{.`.R.;.v c c c c c c K R.R.`.{.`.R.R.`.{.].R.R.`.oXoXoXoXoXoXoXoXoXoXoXoXoX",
"oXoXoXoXoXoXoXoXoXoXoXoXoXR.XXXXT.L.R.XXXXT.L.R.XXq.v c c c c c c E XXXXR.L.R.XXXXR.L.U.XXXXR.oXoXoXoXoXoXoXoXoXoXoXoXoX",
"oXoXoXoXoXoXoXoXoXoXoXoXoXR.XXXXT.L.R.XXXXT.L.R.XXw.v v c c c c c E XXXXR.L.R.XXXXR.L.U.XXXXR.oXoXoXoXoXoXoXoXoXoXoXoXoX",
"oXoXoXoXoXoXoXoXoXoXoXoXoX].U.U.{. X].U.U.{. X].U.-.v c c c c c c J U.U.]. X].U.U.]. X}.U.U.].oXoXoXoXoXoXoXoXoXoXoXoXoX",
"oXoXoXoXoXoXoXoXoXoXoXoXoX{.L.L.|.XX{.L.L.|.XX{.L.&.v c c c c c c H L.L.{.XX{.L.L.{.XX XL.L.{.oXoXoXoXoXoXoXoXoXoXoXoXoX",
"oXoXoXoXoXoXoXoXoXoXoXoXoX`././.`.'.`././.`.'.`./.,.v c c c c c c L /./.`.'.`././.`.'.`././.`.oXoXoXoXoXoXoXoXoXoXoXoXoX",
"oXoXoXoXoXoXoXoXoXoXoXoXoXR.XXXXT.L.R.XXXXT.L.R.XXw.v c c c c c c E XXXXR.L.R.XXXXR.L.U.XXXXR.oXoXoXoXoXoXoXoXoXoXoXoXoX",
"oXoXoXoXoXoXoXoXoXoXoXoXoXR.XXXXT.L.R.XXXXT.L.R.XXq.v v c c c c c R XXXXR.L.R.XXXXR.L.U.XXXXR.oXoXoXoXoXoXoXoXoXoXoXoXoX",
"oXoXoXoXoXoXoXoXoXoXoXoXoX].U.U.{. X].U.U.{. X].U.*.v c c c c c c U U.U.]. X].U.U.]. X}.U.U.].oXoXoXoXoXoXoXoXoXoXoXoXoX",
"oXoXoXoXoXoXoXoXoXoXoXoXoX{.L.L.|.XX{.L.L.|.XX{.L.%.v c c c c c c Y L.L.{.XX{.L.L.{.XX XL.L.{.oXoXoXoXoXoXoXoXoXoXoXoXoX",
"oXoXoXoXoXoXoXoXoXoXoXoXoX`././.`.'.`././.`.'.`./.:.v c c c c c c W /./.`.'.`././.`.'.`././.`.oXoXoXoXoXoXoXoXoXoXoXoXoX",
"oXoXoXoXoXoXoXoXoXoXoXoXoXR.XXXXT.L.R.XXXXT.L.R.XXi.c z z z z z z ^ XXXXR.L.R.XXXXR.L.U.XXXXR.oXoXoXoXoXoXoXoXoXoXoXoXoX",
"oXoXoXoXoXoXoXoXoXoXoXoXoXR.XXXXT.L.R.XXXXT.L.R.XXs.l k k k k k l / XXXXR.L.R.XXXXR.L.U.XXXXR.oXoXoXoXoXoXoXoXoXoXoXoXoX",
"oXoXoXoXoXoXoXoXoXoXoXoXoX].U.U.{. X].U.U.{. X].U.e.j g g g g h g Q U.U.]. X].U.U.]. X}.U.U.].oXoXoXoXoXoXoXoXoXoXoXoXoX",
"oXoXoXoXoXoXoXoXoXoXoXoXoX{.L.L.|.XX{.L.L.|.XX{.L.2.f d d s s d d ) L.L.{.XX{.L.L.{.XX XL.L.{.oXoXoXoXoXoXoXoXoXoXoXoXoX",
"oXoXoXoXoXoXoXoXoXoXoXoXoX).(.(.).`.).(.(.).`.).(.y.a i i p a p i _ (.(.).`.).(.(.).`._.(.(.).oXoXoXoXoXoXoXoXoXoXoXoXoX",
"oXoXoXoXoXoXoXoXoXoXoXoXoXR.XXXXT.L.R.XXXXT.L.R.XXb.q 0 q q 9 q 0 ` XXXXR.L.R.XXXXR.L.U.XXXXR.oXoXoXoXoXoXoXoXoXoXoXoXoX",
"oXoXoXoXoXoXoXoXoXoXoXoXoXR.XXXXT.L.R.XXXXT.L.R.XXn.8 6 6 7 7 7 7 ..XXXXR.L.R.XXXXR.L.U.XXXXR.oXoXoXoXoXoXoXoXoXoXoXoXoX",
"oXoXoXoXoXoXoXoXoXoXoXoXoX].U.U.{. X].U.U.{. X].U.7.5 3 3 4 3 3 4 ( U.U.]. X].U.U.]. X}.U.U.].oXoXoXoXoXoXoXoXoXoXoXoXoX",
"oXoXoXoXoXoXoXoXoXoXoXoXoX{.L.L.|.XX{.L.L.|.XX{.L.5.< , , 2 < < , | L.L.{.XX{.L.L.{.XX XL.L.{.oXoXoXoXoXoXoXoXoXoXoXoXoX",
"oXoXoXoXoXoXoXoXoXoXoXoXoX).(.(.).`.).(.(.).`.).(.l.1 : : : : > :  .(.(.).`.).(.(.).`._.(.(.).oXoXoXoXoXoXoXoXoXoXoXoXoX",
"oXoXoXoXoXoXoXoXoXoXoXoXoXR.XXXXT.L.R.XXXXT.L.R.XXG.w = - = * = ; +.XXXXR.L.R.XXXXR.L.U.XXXXR.oXoXoXoXoXoXoXoXoXoXoXoXoX",
"oXoXoXoXoXoXoXoXoXoXoXoXoXR.XXXXT.L.R.XXXXT.L.R.XXQ.e & % % % & % $.XXXXR.L.R.XXXXR.L.U.XXXXR.oXoXoXoXoXoXoXoXoXoXoXoXoX",
"oXoXoXoXoXoXoXoXoXoXoXoXoX{.L.L.|.XX{.L.L.|.XX{.L.j.$ + @ @ + @ @ #.L.L.{.XX{.L.L.{.XX XL.L.{.oXoXoXoXoXoXoXoXoXoXoXoXoX",
"oXoXoXoXoXoXoXoXoXoXoXoXoX{.L.L.|.XX{.L.L.|.XX{.L.N.r o O O O O o 4.L.L.{.XX{.L.L.{.XX XL.L.{.oXoXoXoXoXoXoXoXoXoXoXoXoX",
"oXoXoXoXoXoXoXoXoXoXoXoXoX).(.(.).`.).(.(.).`.).(.W.t X . .       6.(.(.).`.).(.(.).`._.(.(.).oXoXoXoXoXoXoXoXoXoXoXoXoX",
"oXoXoXoXoXoXoXoXoXoXoXoXoXR.XXXXT.L.R.XXXXT.L.R.XX.Xy             9.XXXXR.L.R.XXXXR.L.U.XXXXR.oXoXoXoXoXoXoXoXoXoXoXoXoX",
"oXoXoXoXoXoXoXoXoXoXoXoXoXR.XXXXT.L.R.XXXXT.L.R.XXXXD             k.XXXXR.L.R.XXXXR.L.U.XXXXR.oXoXoXoXoXoXoXoXoXoXoXoXoX",
"oXoXoXoXoXoXoXoXoXoXoXoXoX{.L.L.|.XX{.L.L.|.XX{.L.L.F             D.L.L.{.XX{.L.L.{.XX XL.L.{.oXoXoXoXoXoXoXoXoXoXoXoXoX",
"oXoXoXoXoXoXoXoXoXoXoXoXoX{.L.L.|.XX{.L.L.|.XX{.L.L.P           # E.L.L.{.XX{.L.L.{.XX XL.L.{.oXoXoXoXoXoXoXoXoXoXoXoXoX",
"oXoXoXoXoXoXoXoXoXoXoXoXoX).(.(.).`.).(.(.).`.).(.(.}           u ~.(.(.).`.).(.(.).`._.(.(.).oXoXoXoXoXoXoXoXoXoXoXoXoX",
"oXoXoXoXoXoXoXoXoXoXoXoXoXR.XXXXT.L.R.XXXXT.L.R.XXXXI.z.Z.!.!.A.B.R.XXXXR.L.R.XXXXR.L.U.XXXXR.oXoXoXoXoXoXoXoXoXoXoXoXoX",
"oXoXoXoXoXoXoXoXoXoXoXoXoXR.XXXXT.L.R.XXXXT.L.R.XXXXR.L.R.XXXXR.L.R.XXXXR.L.R.XXXXR.L.U.XXXXR.oXoXoXoXoXoXoXoXoXoXoXoXoX",
"oXoXoXoXoXoXoXoXoXoXoXoXoX{.L.L.|.XX{.L.L.|.XX{.L.L.{.XX{.L.L.{.XX{.L.L.{.XX{.L.L.{.XX XL.L.{.oXoXoXoXoXoXoXoXoXoXoXoXoX",
"oXoXoXoXoXoXoXoXoXoXoXoXoX{.L.L.|.XX{.L.L.|.XX{.L.L.{.XX{.L.L.{.XX{.L.L.{.XX{.L.L.{.XX XL.L.{.oXoXoXoXoXoXoXoXoXoXoXoXoX"
};
