/* XPM */
static char *result[] = {
/* columns rows colors chars-per-pixel */
"60 61 199 2 ",
"   c #B24B07",
".  c #B75407",
"X  c #B85607",
"o  c #B7540C",
"O  c #BA5D0E",
"+  c #B95B0A",
"@  c #BB630C",
"#  c #BD6D09",
"$  c #BB6816",
"%  c #C16508",
"&  c #C16307",
"*  c #C67107",
"=  c #CB7407",
"-  c #C87F07",
";  c #C17608",
":  c #CD7A09",
">  c #C47A07",
",  c #D57807",
"<  c #DA7F08",
"1  c #D17E0D",
"2  c #C87A1F",
"3  c #CF8607",
"4  c #D28208",
"5  c #D98708",
"6  c #D58C08",
"7  c #DB8C08",
"8  c #DC9108",
"9  c #DB9E09",
"0  c #E38E08",
"q  c #E19409",
"w  c #ED9608",
"e  c #E39C09",
"r  c #ED9B09",
"t  c #F19D08",
"y  c #D6AB0A",
"u  c #DBAE09",
"i  c #DBB009",
"p  c #DEB212",
"a  c #E5A209",
"s  c #EDA309",
"d  c #EDAB09",
"f  c #F3A508",
"g  c #F5AB08",
"h  c #E3B309",
"j  c #EDB309",
"k  c #E4BA09",
"l  c #EDBB09",
"z  c #F4B408",
"x  c #F8B709",
"c  c #F4BB09",
"v  c #F8BC09",
"b  c #E0B51D",
"n  c #F0BF16",
"m  c #CD8A20",
"M  c #CD912D",
"N  c #D19825",
"B  c #CE9436",
"V  c #D29E32",
"C  c #D8AD2F",
"Z  c #DAB222",
"A  c #DFB834",
"S  c #DAB638",
"D  c #DCB838",
"F  c #EABD29",
"G  c #EFC009",
"H  c #EAC90A",
"J  c #F5C309",
"K  c #F9C409",
"L  c #F6CB09",
"P  c #FDCC08",
"I  c #F7D509",
"U  c #FCD409",
"Y  c #FBDA09",
"T  c #F0DC09",
"R  c #FDCD12",
"E  c #FDCF1C",
"W  c #FCDE12",
"Q  c #FDE308",
"!  c #F5EA09",
"~  c #FDEC08",
"^  c #FDF409",
"/  c #FDFB0A",
"(  c #FDEA15",
")  c #FBE61D",
"_  c #FDFB17",
"`  c #FDFB19",
"'  c #FDF617",
"]  c #F7CD2F",
"[  c #F9CE2C",
"{  c #FBCF23",
"}  c #FCD221",
"|  c #FADD21",
" . c #FADE2A",
".. c #F9D42B",
"X. c #F9CE34",
"o. c #F8CD38",
"O. c #FCD43A",
"+. c #FCD130",
"@. c #FBEF29",
"#. c #FCF423",
"$. c #FDF72D",
"%. c #FCFB2C",
"&. c #F9EA36",
"*. c #FCFB3C",
"=. c #FCF43C",
"-. c #CF9846",
";. c #DCBE59",
":. c #E0BE40",
">. c #EEC74E",
",. c #F4CE4A",
"<. c #ECD843",
"1. c #F9D244",
"2. c #F7D04A",
"3. c #FAD449",
"4. c #E8C75C",
"5. c #E7C95C",
"6. c #EDD85D",
"7. c #F6D252",
"8. c #F7DC50",
"9. c #FCDA5E",
"0. c #F2E447",
"q. c #FBF74F",
"w. c #F1E150",
"e. c #F6EB52",
"r. c #FAE159",
"t. c #FAF351",
"y. c #FBF852",
"u. c #FAF55D",
"i. c #F6F35F",
"p. c #DEC470",
"a. c #EFDF63",
"s. c #F4D56B",
"d. c #F8D766",
"f. c #F5D874",
"g. c #F5E768",
"h. c #F7EC6B",
"j. c #F6F26B",
"k. c #F5EA72",
"l. c #FCE67D",
"z. c #F3F07B",
"x. c #F7F270",
"c. c #E7D189",
"v. c #E8D28B",
"b. c #F4DA84",
"n. c #F8DE80",
"m. c #F1DA8C",
"M. c #E4CF90",
"N. c #EBD392",
"B. c #EED99B",
"V. c #E4D093",
"C. c #F2DC96",
"Z. c #F5E584",
"A. c #FDF683",
"S. c #EFE796",
"D. c #FBED9D",
"F. c #F4E697",
"G. c #FDF798",
"H. c #FDF294",
"J. c #E5D7AE",
"K. c #EAD9A2",
"L. c #EADFBD",
"P. c #EEE5A8",
"I. c #EFE9A9",
"U. c #F3EBAB",
"Y. c #FDEBAD",
"T. c #F6E3A8",
"R. c #F5F2A6",
"E. c #EDEABE",
"W. c #F1F0B0",
"Q. c #FAF5B1",
"!. c #EAE1CA",
"~. c #F0E5C4",
"^. c #F4EBCC",
"/. c #F8ECC3",
"(. c #FDFBC5",
"). c #FBF4CD",
"_. c #FDF0C6",
"`. c #E9E5D5",
"'. c #EBE8D4",
"]. c #E8E6DA",
"[. c #ECE9DC",
"{. c None",
"}. c None",
"|. c None",
" X c None",
".X c None",
"XX c None",
"oX c None",
"OX c None",
"+X c None",
"@X c None",
"#X c None",
"$X c None",
"%X c None",
"&X c None",
"*X c None",
"=X c None",
"-X c None",
";X c None",
/* pixels */
";X;X;X;X;X;X;X;X;X;X;X;X;X;X;X;X;X;X;X;X;X;X;X;X;X;X;X;X;X;X;X;X;X;X;X;X;X;X;X;X;X;X;X;X;X;X;X;X;X;X;X;X;X;X;X;X;X;X;X;X",
";X;X;X*X&X*X*X*X*XOX&X*X*X*X*XOX*X*X*X*X&X*X*X*X&X*X*X*X-X*XOX*X*X*X*X&X*X*X*X*X*XOX*X=X*X*X&X*X*X*X&XOX*X*X*X*X&X;X;X;X",
";X;X;XOX.XOX-X-X*X.X.X-X-X-X.X.X-X-X-X.X.X=X-X-X.X].%X@X+X`.`.}.$X$XXXXXOX-X-XOX.X.X-X-X*X.X.X-X-X-X.X.X-X-X-X.X.X;X;X;X",
";X;X;XOX.XOX-X-X*X.X.X-X-X*X.X.X-X-X*X.X.X*X(.A.e.&.) ~ ( @.| | ..X.X.2.s.Y.=X*X.XOX-X-X*X.X.X-X-X-X.X.X*X-X-X.XOX;X;X;X",
";X;X;X-X-X-X.X.X*X-X-X.X.X*X-X-XOX.XOX@XA.#.^ ~ ~ ~ ~ ~ Q Q Q Q Q Y U P P P P d.).-X.X.X*X-X-XOX.X&X-X-XOX.XOX-X-X;X;X;X",
";X;X;X-X-X-X.X.X*X-X-XOX.X*X-X-XOX`.x.' ^ ^ ~ Y I P K J K K P U U Y U U U P P P P 9.{..X*X-X-X.X.XOX-X-X&X.XOX-X-X;X;X;X",
";X;X;X*X*X*X*X*X*X*X*X*X*X*X*X*XU.#.^ ^ Q I J J c c z z z z g z z v L U U P P P P P R T.*X*X*X*X*X*X*X*X*X*X*X*X*X;X;X;X",
";X;X;XOX.XOX-X-X*X.X.X-X-X*XXXz./ / ~ I c c c c z z z z z z g g g g g x P P P P P P P P f..X.X-X-X-X.X.X-X-X-X.X.X;X;X;X",
";X;X;XOX.XOX-X-X*XOX.X-X-X#Xj./ ^ Q L c c c c c z z z z g z g g g g f f g K P Y U P P P P s.].-X-X-X.X.X*X-X-X.X.X;X;X;X",
";X;X;X-X-X-X.X.X*X-X-X.X].j./ ^ Y J c c c c v z z z z z g g g g g f f f f f v Y Y Y P P P P Z.oX.XOX-X-X&X.XOX-X-X;X;X;X",
";X;X;X-X-X-X.X.X*X-X-XOXz./ ^ I G c c c c c c z z z z g g g g g g f f f f f g v Y Y Y P P P P m..XOX-X-XOX.XOX-X-X;X;X;X",
";X;X;X*X*X*X&X*X*X*X*XI./ ^ Y J G c c c c z z c z z z z g g g g f f f f g g g g K Y Q Y P P P P ~.*X*X-X*X&X&X*X-X;X;X;X",
";X;X;XOX.XOX-X-X*X.X'._ ^ Y J c c c c c c c z z z z I H g g g f f f f g g g g g x P Q ~ U P P P O.#X.X.X-X-X-X.X.X;X;X;X",
";X;X;X.X.X.X-X-X*XoXt./ ~ G c l c c c c z z z z g v / ^ e g f f f f g g g g x z z z Y ~ ~ P P P P b..X.X=X-X-X.X.X;X;X;X",
";X;X;X-X-X-X.XOX*XQ./ ^ L c J c c c c z z z z x x ~ / / T r f f f f f g g g z z z z J Q ~ Q P P P E +X-X&X.X&X-X-X;X;X;X",
";X;X;X-X-X-X.X.X*X*.^ Y J l l c c c c z z g z g I / / / / h f f f g g g g z z z c c z I ^ ~ U P P P l.-X&X.XOX-X-X;X;X;X",
";X;X;X*X-X*X#XOXR./ ~ K c l c c c c z z z z g K / / / / / ! e f f g g g z z z c z c c K ~ ^ Q P P P } |.*XOX*X*X-X;X;X;X",
";X;X;XOX.XOX-X-Xq.^ Y G c c z c z z z z z g z ~ / / / / / / H r g g g g z x z z v c c J Y / ^ U P P P m.*X-X-X.X.X;X;X;X",
";X;X;XOX.X.X-X(./ ~ G c c l z c z z z z g z Y / / / / / / / / 9 g g z z z z c x v c J J L ~ / Y P P P 1.-X-X-X.X.X;X;X;X",
";X;X;X*X-X*XOXj.^ Y c z c c c c c z z z z c / / / / / / / / / ! 8 g z z z z c v J c J J K Y ^ ~ P P P P ~.OXOX-X-X;X;X;X",
";X;X;X-X-X-X].#.^ L l z l z c z z z z g c ~ / / / / / / / / / / k d z z z v v c c J J K J L ~ ~ U P P P m..XoX-X-X;X;X;X",
";X;X;X-X-X-XE.^ ~ l c c z c z z z z c Y ^ ^ ^ ^ ^ ^ ^ ^ ^ ^ ^ ^ ^ Y J z c z c J J J J K K G Q ~ U P P P O.OXOX-X-X;X;X;X",
";X;X;XOX.X.XG.~ Y c l z z z z v K Q ~ ~ ~ ~ ~ ~ ~ ~ ~ ~ ~ ~ ~ ~ ~ ~ ~ Y P c J l J K K J G c U Q Y P P P P $X-X.X.X;X;X;X",
";X;X;XOXoX.Xt.^ J c c z z J U Q Q Q Q ~ Q ~ Q ~ Q ~ ~ Q ~ Q ~ ~ Q ~ ~ Q ~ Y P K K J K c J c J Q Y P P P P _.-X.X.X;X;X;X",
";X;X;X*X*X#X$.Q d d d d I Y Q Y Q Q Y Q Q Q Y Q Q Q Y Q Q Q Q Y Q Q Y Q Q Q Y Y L J J c x x x Y Y P P P P m.&X*X*X;X;X;X",
";X;X;X-X-X@X( Q d d s 5 L Y Y U Y Y Y U Y Y Y Y Y Y Y Y Y Y Y Y Y Y Y Y Y Y Y Y Y I 4 c z z z P U P P P P d.OX-X-X;X;X;X",
";X;X;X-X-X).~ I d s a r 6 U U U U P U U U U U U U U U U U U U U U U U U U Y U Y U 6 % x z z g P P P P P P 1.OX-X-X;X;X;X",
";X;X;XOXoXI.~ L s s a s 7 G P P P P P P P P P P P P P P P P P P P P P P P P P P j   a z z g g K P P P P P O.-X.XOX;X;X;X",
";X;X;XOX.XS.^ J s s s s r 7 P P P P P P P P U P P P P P P P P P P P P P P P P L * : z z g g g x P P K P P { -X.X.X;X;X;X",
";X;X;X*X&XS.~ G a r r r s 0 j P P P P P P P P P P P P P P P P P P P P P P P P a X d z z g g f x P P L P P P *X&X*X;X;X;X",
";X;X;X-X-XH.Q l s s r s r r 8 P P P P P P P P P P P P P P P P P P P P P P P K . 8 z z g g f f z P P K K L P OX-X-X;X;X;X",
";X;X;X-X-XD.Q l s r s r r r 0 d P P P P P P P P P P P P P P P P P P P P P P 6 % z z g g f f f z P P K K P R OX-X-X;X;X;X",
";X;X;XOX.XF.Q l s r r r r w w 5 L P P P P P P P P P P P P P P P P P P P P c   s z g g f f f f x P L K K K [ -X.XOX;X;X;X",
";X;X;XOX.XP.Q J r r r e r r w w d P P P P P P P P P P P P P P P P P P P P = = z z g f f f f f v P K J J K o.-X.X.X;X;X;X",
";X;X;X*X&X^.Y J s r r r r r w w q P U P P P P P P P P P P P P P P P P P c   g g g g f f f f f v P K J K K 7.*X&XOX;X;X;X",
";X;X;X-X-X@XY L a r r r w w w w r U Y Y Y Y Y Y Y Y Y Y U Y Y Y Y U Y U 3 = s s s f f f f f f K L J J c K s.OX-X-X;X;X;X",
";X;X;X-X-X=X .I a r r w w w w w r Q Q Q Q Q Q Q Q Q Q Q Q Q Q Q Q Q Q Q - 0 r t w w w f f f f K P c J J K B.OX-X-X;X;X;X",
";X;X;X*X&XOXr.U s r w w w w w w s Q ~ ~ ~ ~ ~ ~ ~ ~ ~ ~ ~ ~ ~ ~ ~ ~ ~ ~ > 0 t w t t w w t t g P L J J J J ^.*XOX&X;X;X;X",
";X;X;XOX.XOXD.U n w q w w w r t f ^ / ^ / / / ^ ^ ^ ^ ^ ^ ^ ^ ^ ~ / ^ ^ ; 0 w w w w t w w w g P K l c J J =X-X.X.X;X;X;X",
";X;X;XOXOXOX).U c w w w w w r r s ^ / / / / / / / / / / / / / / / / / / ; 0 w w w w w w w w v P K l l c ,.-X-XOXOX;X;X;X",
";X;X;X-X-X-X].E L r w w w w r r f ` ` #.` ` _ ` _ _ _ _ _ _ _ _ _ _ _ _ % 0 w w w w w w w t K P l l l n N..XOX-X-X;X;X;X",
";X;X;X-X-X-X.Xs.P f w q q r r r s $.%.%.%.%.%.%.%.%.%.%.%.%.%.%.%.%.%.%.@ w w w w w w w w f P K j l l G !..XOX-X-X;X;X;X",
";X;X;X*X&X&X-X/.P x w r r r r s d =.*.q.q.*.*.*.*.*.*.*.*.*.*.*.*.*.*.*.@ w w w w w w w w c P c l l c >.*X*X*X&X*X;X;X;X",
";X;X;XOX.XOX-X=X8.L s r r r r s f q.q.y.q.q.y.y.<.C N A 0.q.q.q.q.q.y.q.O 0 w w w w w t f P K l h l l N.-X-X-X.X.X;X;X;X",
";X;X;XOX.XOX-X-XT.U J r r r r s d i.u.u.u.w.V $ + 4 e 7 : m D j.u.u.u.e.X w w w w w w w c P c h k l F {.*X-X-XOX.X;X;X;X",
";X;X;X-X-X-X.X.X*XO.I d r s s s f k.5.B $ % 6 d c j d d s s 7 4 M 6.h.g.X w w w w w w s P P l h h j C.-XOX.XOX-X-X;X;X;X",
";X;X;X-X-X-X.X.X*XY.Y L a r s s s + & 0 j j j j j d d f s s t t w , 2 -.. w w w w w w K P c h h h F =X-X&X.XOX-X-X;X;X;X",
";X;X;X*X*X*X*X*X*X*X8.W J s s a d d d j d j z j d d s s s r t w w w w 0 5 w w w w w z P K u u h h B.*X*X*X*X*X*X*X;X;X;X",
";X;X;XOX.X.X-X-X&X.X`.W Y l s a d d j d j z j j d f s s s w w w w w w w w w w w w f P P h i h i 4.=X.X.X*X-X-X.X.X;X;X;X",
";X;X;XOX.XOX-X-X*XOX.XQ.Q Y l d a d d j j j d d d f s t t w w w w w w w w w w w f L P l u i i b +X*X.XOX-X-X-X.XOX;X;X;X",
";X;X;X-X-X-XOX.X*X-X-X.XZ.Q Q G d d h j j d g d s s s s t w w w w w w w w w w f K P G y u u p J..X&X-X-XOX.XOX-X-X;X;X;X",
";X;X;X-X-X-X.X.X*X-X-X.XXXg.~ ~ L j d j j g d d s s t w r w w w w w w w w w g P P J u y y u K.OX.XOX-X-X&X.XOX-X-X;X;X;X",
";X;X;X*X*X*X&X&X*X*X*X*X&X#Xh.^ ^ I l h d d s s s t r w w w w w w w w w w z P P J y y y y M.*X&XOX&X*X*X*X*X*X*X*X;X;X;X",
";X;X;XOXOXOX-X-X*X.X.X-X-X*XXXZ.^ / ~ J d d f s s t r w w w w w w w w f v P P l u y y y K..X.X-X-X-X.X.X*X-X-X.X.X;X;X;X",
";X;X;XOX.X.X-X-X&X.X.X-X-X*X.X.XQ.$.^ ~ I l d s t w w w w w w w r g v P P P l y y y D ^.*X.X.X-X-X-X.X.X*X-X-X.X.X;X;X;X",
";X;X;X-X-X-XOXOX*X-X-XOX.X*X-X-X&X].k.( Q Q U J z d f f f g z z P P P P G i y y Z v.oX.X&X-X-XOXOXOX-X-X*XOXOX-X-X;X;X;X",
";X;X;X-X-X-X.X.X*X-X-X.X.X*X-X-XOX.XOX Xl. .Y U P L P P P P P P P K G i y y S c.|.-X.X.X*X-X-XOX.XOX-X-XOX.XOX-X-X;X;X;X",
";X;X;X*X-X*XOX&X*X-X-XOX&X*X-X*X&XOX*X=X-X%XU.n.7.X.[ [ +.X.X.,.>.4.;.p.M.E.OX*X=X*X&X&X&X=X-XOXOX*X*X-X*XOX&X-X-X;X;X;X",
";X;X;XOX.XOX-X-X*X.X.X-X-X*X.X.X-X-X*X.X.X*X-X-X.X.X#X$X=X.X.X*X-X-XOX.XOX-X-X&X.X.X-X-X*XOX.X-X-X*X.X.X-X-X-X.X.X;X;X;X",
";X;X;XOX.XOX-X-X*X.X.X-X-X*X.X.X-X-X-X.X.X-X-X-X.X.X*X-X-XOX.X*X-X-XOX.XOX-X-X*X.X.X-X-X*X.X.X-X-X-X.X.X*X-X-XOX.X;X;X;X",
";X;X;X;X;X;X;X;X;X;X;X;X;X;X;X;X;X;X;X;X;X;X;X;X;X;X;X;X;X;X;X;X;X;X;X;X;X;X;X;X;X;X;X;X;X;X;X;X;X;X;X;X;X;X;X;X;X;X;X;X"
};
