/* XPM */
static char *result[] = {
/* columns rows colors chars-per-pixel */
"60 60 182 2 ",
"   c #39322C",
".  c #383735",
"X  c #363B39",
"o  c #393E3C",
"O  c #363533",
"+  c #4C2A15",
"@  c #522C17",
"#  c #572F1A",
"$  c #5C321B",
"%  c #5E381A",
"&  c #62341E",
"*  c #663A1D",
"=  c #6A3C1E",
"-  c #462F23",
";  c #4D3526",
":  c #4F3A29",
">  c #553A29",
",  c #5D3E2C",
"<  c #573825",
"1  c #663520",
"2  c #693622",
"3  c #643A22",
"4  c #6C3A22",
"5  c #743C25",
"6  c #793F26",
"7  c #743E28",
"8  c #7B3E29",
"9  c #3C413F",
"0  c #52453B",
"q  c #5B4534",
"w  c #6E4021",
"e  c #744323",
"r  c #7A4326",
"t  c #7B4A25",
"y  c #7D422A",
"u  c #7D4B2A",
"i  c #6A4E3D",
"p  c #614633",
"a  c #6B513E",
"s  c #3F4441",
"d  c #414643",
"f  c #454A46",
"g  c #464B48",
"h  c #4A4E4A",
"j  c #554E47",
"k  c #4D524D",
"l  c #52544E",
"z  c #5A554B",
"x  c #5D544A",
"c  c #4F5450",
"v  c #525551",
"b  c #555A55",
"n  c #5A5D57",
"m  c #575C58",
"M  c #595E5A",
"N  c #585756",
"B  c #64574B",
"V  c #6C5C4F",
"C  c #69574B",
"Z  c #705641",
"A  c #605C52",
"S  c #745F51",
"D  c #5D615B",
"F  c #61645D",
"G  c #64645B",
"H  c #756151",
"J  c #5F6560",
"K  c #636760",
"L  c #656A63",
"P  c #696D65",
"I  c #6A6D69",
"U  c #686766",
"Y  c #706F6F",
"T  c #6C7167",
"R  c #6E726A",
"E  c #72766C",
"W  c #75796E",
"Q  c #797B6F",
"!  c #727770",
"~  c #767A71",
"^  c #7A7D73",
"/  c #7C7B7B",
"(  c #83432C",
")  c #89472D",
"_  c #834C2C",
"`  c #8C4A2E",
"'  c #804D26",
"]  c #914C2F",
"[  c #845229",
"{  c #8B532C",
"}  c #885528",
"|  c #965C2D",
" . c #985D2D",
".. c #94562E",
"X. c #8A4631",
"o. c #8D4831",
"O. c #874330",
"+. c #944D32",
"@. c #925432",
"#. c #9B5334",
"$. c #955B31",
"%. c #9B5D32",
"&. c #9D5939",
"*. c #A15636",
"=. c #A25A35",
"-. c #A6573B",
";. c #A55D3A",
":. c #AA5D39",
">. c #B05E3E",
",. c #98602F",
"<. c #8E6038",
"1. c #9E6232",
"2. c #9F6933",
"3. c #A46334",
"4. c #AB6437",
"5. c #A66935",
"6. c #A96A36",
"7. c #A6623A",
"8. c #AC643B",
"9. c #AA6838",
"0. c #B2653D",
"q. c #B36B3D",
"w. c #BA6C3E",
"e. c #AE7137",
"r. c #AF7039",
"t. c #B4723B",
"y. c #BB723E",
"u. c #AE5B41",
"i. c #8E6A51",
"p. c #B86442",
"a. c #B56C40",
"s. c #BC6D42",
"d. c #BD7242",
"f. c #8A7D73",
"g. c #C36F46",
"h. c #C27444",
"j. c #C87747",
"k. c #C57A45",
"l. c #CA7D46",
"z. c #CD7E49",
"x. c #C97649",
"c. c #D17F4B",
"v. c #7D8176",
"b. c #7D8279",
"n. c #818377",
"m. c #82857B",
"M. c #85897E",
"N. c #CC8047",
"B. c #CE8149",
"V. c #D2844B",
"C. c #D8874F",
"Z. c #D6894C",
"A. c #D98C4E",
"S. c #DC934E",
"D. c #D6914A",
"F. c #DB8B51",
"G. c #DB8750",
"H. c #DE9251",
"J. c #E0984F",
"K. c #E18E54",
"L. c #E19552",
"P. c #E49B52",
"I. c #EA9E59",
"U. c #E5A053",
"Y. c #E9A157",
"T. c #EBA15A",
"R. c #858A81",
"E. c #898D84",
"W. c gray51",
"Q. c #8B9086",
"!. c #8E9389",
"~. c #91958D",
"^. c #93988F",
"/. c #959B91",
"(. c #9E9E9D",
"). c #9A9E95",
"_. c #A6968A",
"`. c #B29B8B",
"'. c #A7A7A6",
"]. c #AEAEAE",
"[. c #C3C3C3",
"{. c None",
/* pixels */
"{.{.{.{.{.{.{.{.{.{.{.{.{.{.{.{.{.{.{.{.{.{.{.{.{.{.{.{.{.{.{.{.{.{.{.{.{.{.{.{.{.{.{.{.{.{.{.{.{.{.{.{.{.{.{.{.{.{.{.{.",
"{.{.{.{.{.{.{.{.{.{.{.{.{.{.{.{.{.{.{.{.{.{.{.{.{.{.M M M M M M D D {.{.{.{.{.{.{.{.{.{.{.{.{.{.{.{.{.{.{.{.{.{.{.{.{.{.",
"{.{.{.{.{.{.{.{.{.{.{.{.{.{.{.{.{.{.{.{.{.{.{.{.{.D /.!.~.!.!.!.!.!.v.v {.{.{.{.{.{.{.{.{.{.{.{.{.{.{.{.{.{.{.{.{.{.{.{.",
"{.{.{.{.{.{.{.{.{.{.{.{.{.{.{.{.{.{.{.{.{.{.{.{.{.~ b.v.m.b.b.b.! R T b {.{.{.{.{.{.{.{.{.{.{.{.{.{.{.{.{.{.{.{.{.{.{.{.",
"{.{.{.{.{.{.{.{.{.{.{.{.{.{.{.{.{.{.{.{.{.{.{.{.{.T ~ v.v.^ n.^ K P I g {.{.{.{.{.{.{.{.{.{.{.{.{.{.{.{.{.{.{.{.{.{.{.{.",
"{.{.{.{.{.{.{.{.{.{.{.{.{.{.{.{.{.{.{.{.{.{.{.{.{.m ^ ^ ^ ^ ^ ^ L P K {.{.{.{.{.{.{.{.{.{.{.{.{.{.{.{.{.{.{.{.{.{.{.{.{.",
"{.{.{.{.{.{.{.{.{.{.{.{.{.{.{.{.{.{.{.{.{.{.{.{.{.k ~ ~ ^ W n.~ R I D s {.{.{.{.{.{.{.{.{.{.{.{.{.{.{.{.{.{.{.{.{.{.{.{.",
"{.{.{.{.{.{.{.{.{.{.{.{.{.{.{.{.{.{.{.{.{.{.{.9 k d E ~ f.~ ^ W ~ R D k b {.{.{.{.{.{.{.{.{.{.{.{.{.{.{.{.{.{.{.{.{.{.{.",
"{.{.{.{.{.{.{.{.{.{.{.{.{.{.{.b n {.{.{.{.{.I R.v.k D W ! L v.~ ^ ^ b v.!.R.J g {.{.{.W v {.{.{.{.{.{.{.{.{.{.{.{.{.{.{.",
"{.{.{.{.{.{.{.{.{.{.{.{.{.{.m v.~ v {.{.! ^ v.R R k v W W E ~ W ~ ~ b m.R T b.b.m {.E M.R.D {.{.{.{.{.{.{.{.{.{.{.{.{.{.",
"{.{.{.{.{.{.{.{.{.{.{.{.{.T m.~ v.T J ! R.~ ~ ~ ! J v b.b.b.b.b.~ ^ M b.~ R T ~ R F Q.M.m.M.v {.{.{.{.{.{.{.{.{.{.{.{.{.",
"{.{.{.{.{.{.{.{.{.{.{.{.m v.W ~ ~ R I D b.b.^ ^ ! T v ! ^ v.v.v.E R J b.~ ! R ~ k ~ M.M.m.v.E k {.{.{.{.{.{.{.{.{.{.{.{.",
"{.{.{.{.{.{.{.{.{.{.{.{.P ~ R ^ ^ ^ v.P M ~ E E z j 0 B S B H S H z j n ~ W Q D R M.M.M.m.M.m.L {.{.{.{.{.{.{.{.{.{.{.{.",
"{.{.{.{.{.{.{.{.{.{.{.{.h P W ~ W W ! b.m L G i 3 _ @.&.;.t 8.u.&.&.@.w i z L k Q.m.n.n.v.M.L k {.{.{.{.{.{.{.{.{.{.{.{.",
"{.{.{.{.{.{.{.{.{.{.{.{.{.f K ~ ~ ! v.! n - r &.$.&.7.&.u._ k.a.p.u.9.u.7.u ; G M.v.v.m.v.L k {.{.{.{.{.{.{.{.{.{.{.{.{.",
"{.{.{.{.{.{.{.{.{.{.{.{.{.T M P ! T v.D ; 3 a.8.&.8.a.a.a.@.B.x.d.d.a.a.a._ &.p F R ^ M.D L L {.{.{.{.{.{.{.{.{.{.{.{.{.",
"{.{.{.{.{.{.{.{.{.{.{.{.P R.~ b T T l : { u a.a.8.d.d.d.B.&.H.Z.V.x.N.d.d.<.d.u.: h K v P b.v.D {.{.{.{.{.{.{.{.{.{.{.{.",
"{.{.{.{.{.{.{.{.{.{.{.h m.^ ~ K f k > _ 1._ d.h.d.k.N.N.V.<.P.F.V.B.B.B.c.<.x.a.<., s U M.b.M.v.h {.{.{.{.{.{.{.{.{.{.{.",
"{.{.{.{.{.{.{.{.{.{.{.E Q Q v.m.n ; @.7.9.{ B.B.N.B.V.B.V.9.T.H.Z.Z.Z.V.C.1.C.d.a.&., K v.v.b.v.L {.{.{.{.{.{.{.{.{.{.{.",
"{.{.{.{.{.{.{.{.{.{.s F W ~ ^ Q ; _ 9.8.q.<.Z.B.B.V.Z.Z.C.9.T.H.Z.Z.Z.V.F.1.F.z.d.d.@.> v.v.v.v.F d {.{.{.{.{.{.{.{.{.{.",
"{.{.{.{.{.{.{.{.{.{.W D D R ~ D w 7.a.d.d.1.A.Z.B.Z.Z.A.A.5.T.H.Z.Z.Z.V.D.6.H.V.k.k.a.<.n W P D n D {.{.{.{.{.{.{.{.{.{.",
"{.{.{.{.{.{.{.{.{.g v.W ^ P T q @.7.d.k.N.,.H.Z.Z.H.Z.F.A.9.T.F.Z.V.V.V.Z.6.H.Z.B.k.a.a.p b L W Q P X {.{.{.{.{.{.{.{.{.",
"{.{.{.{.{.{.{.{.{.~ E Q R ^ z t 1.a.z.B.N.5.H.Z.Z.H.Z.C.Z.5.T.A.Z.N.Z.Z.Z.r.D.Z.N.N.d.a.u z W R Q E D {.{.{.{.{.{.{.{.{.",
"{.{.{.{.{.{.{.{.{.D Q R Q R B { r.d.z.B.B.5.U.A.F.H.V.Z.V.9.Y.A.V.N.V.B.Z.9.D.Z.N.l.d.a.7.V E W R Q G {.{.{.{.{.{.{.{.{.",
"{.{.{.{.{.{.{.{.{.G ~ E E T a 7.d.k.B.B.V.5.P.Z.D.F.V.V.V.5.Y.Z.B.B.Z.V.Z.5.D.Z.N.N.N.d.8.Z R R E Q D {.{.{.{.{.{.{.{.{.",
"{.{.{.{.{.{.{.{.{.h l k l k t q.d.N.V.Z.Z.6.U.Z.Z.A.V.B.V.5.I.F.Z.B.Z.C.D.r.S.Z.B.B.N.d.d.u k c k k k {.{.{.{.{.{.{.{.{.",
"{.{.{.{.{.{.k L R.^./././.M [ z.Z.B.A.F.S.6.T.F.S.Z.Z.B.Z.9.P.F.A.A.A.F.H.5.P.F.D.V.V.B.k.[ b Q.Q.M.^.!.v.R 9 {.{.{.{.{.",
"{.{.{.{.{.{.v W ~ E P R ~ k | z.B.B.Z.A.F.6.T.C.Z.V.Z.B.Z.t.P.F.H.D.A.A.H.r.I.F.V.V.Z.V.k.1.c ~ v.v.m.Q W L 9 {.{.{.{.{.",
"{.{.{.{.{.{.D b.^ ^ ~ E E k  .B.V.B.F.Z.C.6.Y.F.V.V.Z.B.B.r.H.D.H.H.Z.C.Z.a.T.F.V.V.D.B.Z.5.M ^ ^ v.m./ Q L 0 {.{.{.{.{.",
"{.{.{.{.{.{.D b.~ m.R.^ E k  .N.B.V.S.Z.Z.6.Y.F.V.V.V.V.Z.9.P.A.F.H.Z.Z.Z.2.Y.Z.V.N.Z.V.Z.6.M ~ Q ^ v.^ ^ L s {.{.{.{.{.",
"{.{.{.{.{.{.b ~ ^ ^ ^ v.E k  .N.B.B.Z.Z.Z.5.Y.Z.V.V.B.V.V.5.P.Z.F.H.Z.Z.Z.2.U.Z.Z.B.B.B.F.e.D m.^ ^ ^ ^ ~ L 9 {.{.{.{.{.",
"{.{.{.{.{.{.c R R R R E Q k  .l.z.z.F.V.Z.5.Y.Z.B.V.B.B.V.5.U.Z.Z.F.Z.V.Z.9.U.Z.V.N.V.V.H.e.M b.W R ^ E P M s {.{.{.{.{.",
"{.{.{.{.{.{.k L D K K L P h  .l.z.z.Z.V.Z.4.I.C.z.V.z.B.V.3.P.C.C.Z.A.V.C.4.I.Z.z.z.V.B.J.6.v W I L L D n b 9 {.{.{.{.{.",
"{.{.{.{.{.{.s g g g g g g d | z.V.B.Z.c.V.4.P.V.z.B.B.V.c. .U.C.V.V.Z.c.V.6.P.V.B.B.B.N.A.2.0 f g g g f d d s {.{.{.{.{.",
"{.{.{.{.{.{.{.{.{.L ~./.m.l | l.V.B.V.V.B. .P.Z.l.l.z.B.c. .P.c.z.V.Z.V.V. .P.N.z.l.B.z.D.2.k b.^.E.D {.{.{.{.{.{.{.{.{.",
"{.{.{.{.{.{.{.{.{.I E.E.^ l | N.B.B.V.B.B. .P.Z.z.B.B.B.V. .P.C.z.z.V.z.B. .P.l.l.l.z.l.A.2.D E.E R n {.{.{.{.{.{.{.{.{.",
"{.{.{.{.{.{.{.{.{.D n.n.Q l ,.N.V.B.V.V.V.6.J.V.B.B.B.B.B.3.L.c.z.z.B.c.N.6.J.l.j.j.z.N.Z.2.D v.^ ~ D {.{.{.{.{.{.{.{.{.",
"{.{.{.{.{.{.{.{.{.D Q n.f.k ,.N.B.V.B.B.z.4.P.V.B.B.B.B.B.6.H.c.l.z.B.l.l.6.J.l.y.7.9.8.N.e.m b.E R F {.{.{.{.{.{.{.{.{.",
"{.{.{.{.{.{.{.{.{.n E n.W k | N.z.B.B.V.V.6.J.c.l.B.B.B.B.6.J.l.B.B.l.l.V.3.J.l.i.].[.[.a.e.b ! K K n {.{.{.{.{.{.{.{.{.",
"{.{.{.{.{.{.{.{.{.F E E P k | k.z.z.B.z.z. .J.V.l.B.B.V.c.1.J.c.z.B.N.N.V. .J.k.: v (.I e.e.c ! L D m {.{.{.{.{.{.{.{.{.",
"{.{.{.{.{.{.{.{.{.n K F n f  .N.N.N.B.N.c.| P.V.V.N.N.V.c.| L.V.N.V.B.V.B.| U.d.0 l ~./ <...h P L D m {.{.{.{.{.{.{.{.{.",
"{.{.{.{.{.{.9 s 9 9 f f o 9 | B.N.l.N.N.B.| P.V.V.c.N.Z.V.4.P.G.B.V.B.V.Z. .U.1.'.U / (._.y s f f g f 9 g g {.{.{.{.{.{.",
"{.{.{.{.{.{.v R.~./.).^.!.m | N.l.l.l.l.c.3.P.C.V.N.N.V.V.1.I.V.N.B.V.B.Z.@.U.w / O O O _.4 M !.!.Q.E.b.m.R 9 {.{.{.{.{.",
"{.{.{.{.{.{.v v.W ^ v.v.Q k  .N.l.l.j.l.z. .J.V.c.V.c.V.c.} L.Z.N.B.B.N.V.1.P.e ! M A . n.* M ! L T Q f.v.L 9 {.{.{.{.{.",
"{.{.{.{.{.{.m ~ ^ v.v.Q E h | j.l.N.j.h.l.] L.c.N.N.N.c.N.} K.c.k.N.N.B.N...S.u Y / P W.j % M ~ F R M.E.^ L s {.{.{.{.{.",
"{.{.{.{.{.{.D v.v.n.v.E T k | j.N.j.j.h.l.' J.c.N.c.N.c.V.} G.N.k.k.z.l.l.[ S.1.- N U l * = D m.R Q n.n.^ P s {.{.{.{.{.",
"{.{.{.{.{.{.D m.^ n.v.E R k  .j.j.y.y.w.w.6 S.c.j.l.l.j.l.] L.N.d.j.j.k.j.t A.%.t w w t 6.[ M R.m.v.v.Q E L g {.{.{.{.{.",
"{.{.{.{.{.{.v v.Q v.^ E P h ..h.h.g.w.0.w.e A.j.g.j.j.j.j.' K.j.w.y.k.d.h.t Z.9.h.h.d.d.B.[ M b.n.Q n.m.E F s {.{.{.{.{.",
"{.{.{.{.{.{.k E E E L K D g ..g.s.0.0.0.0.= Z.h.s.h.h.s.h.' G.y.6.q.w.w.w.t l.4.w.q.4.=.q.' h T W R R E K k 9 {.{.{.{.{.",
"{.{.{.{.{.{.d c v f h k k d ` g.0.:.0.:.>.e V.g.0.w.y.w.w.r V.w.4.4.0.0.0.= l.#.%.=...+.r.t 9 f g h k k o o 9 {.{.{.{.{.",
"{.{.{.{.{.{.{.{.{.D R.R.b.l y *.-.*.*.*.*.= z.0.:.0.0.:.w.e c.0.*.=.:.:.:.= y.] ..#._ ` 3.t l m.!.E.D {.{.{.{.{.{.{.{.{.",
"{.{.{.{.{.{.{.{.{.D R ~ ^ v y #.#.*.#.*.#.= z.>.-.0.:.:.0.e l.:.*.*.=.*.:.= h.] ) ) r _ #.t D n.R R D {.{.{.{.{.{.{.{.{.",
"{.{.{.{.{.{.{.{.{.F ~ ~ Q v 5 +.+.+.+.+.] & w.-.#.*.#.-.:.5 g.&.#.+.#.+.#.* 4.) y r r ( ..} D b.~ ~ D {.{.{.{.{.{.{.{.{.",
"{.{.{.{.{.{.{.{.{.F ^ E W v 4 ` ) ) o.( ( $ >.+.+.+.+.#.#.5 p.+.] ` ` ] ] $ *.r 5 6 y 6 ) 4 M ~ W ~ F {.{.{.{.{.{.{.{.{.",
"{.{.{.{.{.{.{.{.{.L ~ E E l 2 ( ( y ( ( 8 @ :.o.( o.+.o.o.4 u.X.( 6 ( ( ( # +.6 5 e 5 5 y & b Q ~ ~ P {.{.{.{.{.{.{.{.{.",
"{.{.{.{.{.{.{.{.{.K E P K h 1 8 6 6 ( 5 5 @ #.) ( ( o.) ( = u.O.6 5 6 ( 6 # ) 6 5 5 5 5 r = k R ~ b.P {.{.{.{.{.{.{.{.{.",
"{.{.{.{.{.{.{.{.{.m F F D h 1 8 5 5 5 5 4 + +.O.8 8 ( ( ( * -.( 6 5 5 8 5 @ 8 5 2 2 5 1 5 * h T R ~ D {.{.{.{.{.{.{.{.{.",
"{.{.{.{.{.{.{.{.{.s d d 9 o $ 1 & & & & $ + 7 4 1 1 2 1 1 $ 8 4 & & & & & @ 1 & $ $ & $ $ $ X 9 f f g {.{.{.{.{.{.{.{.{.",
"{.{.{.{.{.{.{.{.{.{.{.{.{.{.{.{.{.{.{.{.{.{.{.{.{.{.{.{.{.{.{.{.{.{.{.{.{.{.{.{.{.{.{.{.{.{.{.{.{.{.{.{.{.{.{.{.{.{.{.{.",
"{.{.{.{.{.{.{.{.{.{.{.{.{.{.{.{.{.{.{.{.{.{.{.{.{.{.{.{.{.{.{.{.{.{.{.{.{.{.{.{.{.{.{.{.{.{.{.{.{.{.{.{.{.{.{.{.{.{.{.{."
};
