/* XPM */
static char *result[] = {
/* columns rows colors chars-per-pixel */
"60 60 191 2 ",
"   c #1C121C",
".  c #21141D",
"X  c #2B181F",
"o  c #03193F",
"O  c #0B1A3A",
"+  c #281C29",
"@  c #321C20",
"#  c #3A1F21",
"$  c #3F2122",
"%  c #3F2629",
"&  c #3F343B",
"*  c #442424",
"=  c #4C2625",
"-  c #562927",
";  c #5C2D28",
":  c #572C28",
">  c #593C36",
",  c #5A3D3D",
"<  c #563432",
"1  c #612F2A",
"2  c #65312B",
"3  c #6E392F",
"4  c #64392F",
"5  c #733A2F",
"6  c #763D31",
"7  c #793E31",
"8  c #7A4438",
"9  c #664038",
"0  c #122F51",
"q  c #343B5B",
"w  c #3D3850",
"e  c #4A344B",
"r  c #552979",
"t  c #1F4463",
"y  c #01467B",
"u  c #1F5474",
"i  c #3B4464",
"p  c #584956",
"a  c #4E4150",
"s  c #744B47",
"d  c #6C575B",
"f  c #7E5D5D",
"g  c #755A5F",
"h  c #644E5A",
"j  c #424C6E",
"k  c #4C4B66",
"l  c #4E516C",
"z  c #54536B",
"x  c #465172",
"c  c #4A5576",
"v  c #4A5976",
"b  c #545C7B",
"n  c #454F71",
"m  c #69576E",
"M  c #776A73",
"N  c #814233",
"B  c #8A4836",
"V  c #8B4A38",
"C  c #924F3A",
"Z  c #96523C",
"A  c #9A553D",
"S  c #A35A3F",
"D  c #845347",
"F  c #9D5B43",
"G  c #9A5C49",
"H  c #8A5B50",
"J  c #A95F42",
"K  c #A25C42",
"L  c #9E614A",
"P  c #856256",
"I  c #986858",
"U  c #95725E",
"Y  c #AC6344",
"T  c #AD684A",
"R  c #A5644A",
"E  c #B56E4D",
"W  c #BE6F4A",
"Q  c #B46746",
"!  c #B9714F",
"~  c #AA725A",
"^  c #BC7552",
"/  c #B8795A",
"(  c #AB6D53",
")  c #8B716C",
"_  c #A77565",
"`  c #B07F67",
"'  c #C47752",
"]  c #C57A54",
"[  c #C87D57",
"{  c #AA876F",
"}  c #BC8567",
"|  c #B88569",
" . c #B48A7A",
".. c #BB937C",
"X. c #CC825A",
"o. c #C98057",
"O. c #D2875C",
"+. c #C88966",
"@. c #D48D63",
"#. c #D4936B",
"$. c #DB976A",
"%. c #C79676",
"&. c #D99B74",
"*. c #C08E71",
"=. c #E69C6A",
"-. c #E29765",
";. c #DDA179",
":. c #D1A07D",
">. c #E7A06D",
",. c #E9A472",
"<. c #EBAC7B",
"1. c #E6A779",
"2. c #4219A7",
"3. c #5230B5",
"4. c #01558B",
"5. c #0074B6",
"6. c #2274A5",
"7. c #596585",
"8. c #5D6B8A",
"9. c #566283",
"0. c #606D8C",
"q. c #67718B",
"w. c #657392",
"e. c #7A798A",
"r. c #3F12D5",
"t. c #5029DF",
"y. c #8B7E81",
"u. c #8D6B85",
"i. c #8C5FBE",
"p. c #8D63A4",
"a. c #7E8296",
"s. c #008BCE",
"d. c #008ED1",
"f. c #0095D9",
"g. c #0098DC",
"h. c #73AED1",
"j. c #7EC9EB",
"k. c #888796",
"l. c #9D959E",
"z. c #A58785",
"x. c #B99287",
"c. c #B79187",
"v. c #8A90A5",
"b. c #888DA2",
"n. c #B98DB1",
"m. c #AF93A3",
"M. c #B2AAAE",
"N. c #CC9A8A",
"B. c #CCA382",
"V. c #DEAA84",
"C. c #D7A785",
"Z. c #D4B295",
"A. c #E5AD84",
"S. c #EEB284",
"D. c #EAB68C",
"F. c #E7B48A",
"G. c #F1BA8C",
"H. c #F0B789",
"J. c #E8BB93",
"K. c #F2BE92",
"L. c #D2B9B3",
"P. c #C8B4AF",
"I. c #E5BCA0",
"U. c #ECC29C",
"Y. c #F3C59A",
"T. c #F6CA9F",
"R. c #F3C296",
"E. c #DDC6BD",
"W. c #EBC5A7",
"Q. c #F6CDA5",
"!. c #F7CFA8",
"~. c #F7D1AB",
"^. c #F7D4B2",
"/. c #F8DABA",
"(. c #F3D6BA",
"). c #E7CEB8",
"_. c #A08ED7",
"`. c #9F8BED",
"'. c #A5CAE1",
"]. c #D0CDD4",
"[. c #F8DEC2",
"{. c #E1DDDD",
"}. c #F8E1C6",
"|. c #F9E6CE",
" X c #EAE1DF",
".X c #F6E4D5",
"XX c #CFC4F6",
"oX c #D0C6EB",
"OX c #FEFEFE",
"+X c #EDEAE9",
"@X c None",
/* pixels */
"@X@X@X@X@X@X@X@X@X@X@X@X@X@X@X@X@X@X@X@X@X@X@X@X@X@X@X@X@X@X@X@X@X@X@X@X@X@X@X@X@X@X@X@X@X@X@X@X@X@X@X@X@X@X@X@X@X@X@X@X",
"@X@X@X@X@X@X@X@X@X@X@X@X@X@X@X@X@X@X@X@X@X@X@X@X@X@X@X@X@X@X@X@X@X@X@X@X@X@X@X@X@X@X@X@X@X@X@X@X@X@X@X@X@X@X@X@X@X@X@X@X",
"@X@X@X@X@X@X@X@X@X@X@X@X@X@X@X@X@X@X@X@X@X@X@X@X@X@X@X@X@X@X@X@X@X@X@X@X@X@X@X@X@X@X@X@X@X@X@X@X@X@X@X@X@X@X@X@X@X@X@X@X",
"@X@X@X@X@X@X@X@X@X@X@X@X@X@X@X@X@X@X@X@X@X@X@X@X@X@X@X@X@X@X@X@X@X@X@X@X@X@X@X@X@X@X@X@X@X@X@X@X@X@X@X@X@X@X@X@X@X@X@X@X",
"@X@X@X@X@X@X@X@X@X@X@X@X@X@X@X@X@X@X@X@X@X@X@X@X@X@X@X@X@X@X@X@X@X@X@X@X@X@X@X@X@X@X@X@X@X@X@X@X@X@X@X@X@X@X@X@X@X@X@X@X",
"@X@X@X@X@X@X@X@X@X@X@X@X@X@X@X@X@X@X@X@X@X@X@X@X@X@X@X@X@X@X@X@X@X@X@X@X@X@X@X@X@X@X@X@X@X@X@X@X@X@X@X@X@X@X@X@X@X@X@X@X",
"@X@X@X@X@X@X@X@X@X@X@X@X@X@X@X@X@X@X@X@X@X@X@X@X@XZ Q W W ' W W K V @X@X@X@X@X@X@X@X@X@X@X@X@X@X@X@X@X@X@X@X@X@X@X@X@X@X",
"@X@X@X@X@X@X@X@X@X@X@X@X@X@X@X@X@X@X@X@X@X@X@X@X~ / +.@.@.+.@.@.[ ~ @X@X@X@X@X@X@X@X@X@X@X@X@X@X@X@X@X@X@X@X@X@X@X@X@X@X",
"@X@X@X@X@X@X@X@X@X@X@X@X@X@X@X@X@X@X@X@X@XB A W ;.Y.Y.Y.Y.Y.Y.Y.Y.D.X.Y V @X@X@X@X@X@X@X@X@X@X@X@X@X@X@X@X@X@X@X@X@X@X@X",
"@X@X@X@X@X@X@X@X@X@X@X@X@X@X@X@X@X@X@X@XZ ! +.;.W././././././.^./.^.F.+.^ R @X@X@X@X@X@X@X@X@X@X@X@X@X@X@X@X@X@X@X@X@X@X",
"@X@X@X@X@X@X@X@X@X@X@X@X@X@X@X@X@X@X@XC K @.S.~./.|.|.|.|.|.|.|.|.}.^.R.,.E C @X@X@X@X@X@X@X@X@X@X@X@X@X@X@X@X@X@X@X@X@X",
"@X@X@X@X@X@X@X@X@X@X@X@X@X@X@X@X@X@X@XT ^ <.Q.}.|.|.|.|.|.|.|.|.|.}.}.^.K.+.Q @X@X@X@X@X@X@X@X@X@X@X@X@X@X@X@X@X@X@X@X@X",
"@X@X@X@X@X@X@X@X@X@X@X@X@X@X@X@X@X@X@X! O.G.^.|.|.|.|.|.|.|..X|.|.|.|.[.T.&.] @X@X@X@X@X@X@X@X@X@X@X@X@X@X@X@X@X@X@X@X@X",
"@X@X@X@X@X@X@X@X@X@X@X@X@X@X@X@X@X@XB ^ >.R.^.|.|.|.|.|.|.|.|.|.|.|.|./.T.<.O.A B @X@X@X@X@X@X@X@X@X@X@X@X@X@X@X@X@X@X@X",
"@X@X@X@X@X@X@X@X@X@X@X@X@X@X@X@X@X@XJ @.G.T.!.^.}.|..X|.|.|.|.|.|.|./.~.Q.G.;.E J @X@X@X@X@X@X@X@X@X@X@X@X@X@X@X@X@X@X@X",
"@X@X@X@X@X@X@X@X@X@X@X@X@X@X@X@X@X@X! ;.T.T.T.Q./.}.}.}.}.}.}.}.}./.~.T.T.T.D.[ W @X@X@X@X@X@X@X@X@X@X@X@X@X@X@X@X@X@X@X",
"@X@X@X@X@X@X@X@X@X@X@X@X@X@X@X@X@X@X' &.T.T.T.T.Q.~.~.~.~.Q.Q.~.!.!.T.T.T.T.D.[ W @X@X@X@X@X@X@X@X@X@X@X@X@X@X@X@X@X@X@X",
"@X@X@X@X@X@X@X@X@X@X@X@X@X@X@X@X@X@X' ;.T.T.T.T.T.T.T.T.T.T.T.T.T.T.T.T.T.T.D.o.W @X@X@X@X@X@X@X@X@X@X@X@X@X@X@X@X@X@X@X",
"@X@X@X@X@X@X@X@X@X@X@X@X@X@X@X@X@X@X' $.T.T.T.T.T.T.T.T.T.T.T.T.T.T.T.T.T.T.D.o.W @X@X@X@X@X@X@X@X@X@X@X@X@X@X@X@X@X@X@X",
"@X@X@X@X@X@X@X@X@X@X@X@X@X@X@X@X@X@X' &.T.T.T.T.T.T.T.T.T.T.T.T.T.T.T.T.T.T.D.o.W @X@X@X@X@X@X@X@X@X@X@X@X@X@X@X@X@X@X@X",
"@X@X@X@X@X@X@X@X@X@X@X@X@X@X@X@X@X@XW &.T.T.J.:.B.B.B.J.T.T.U.C.C.B.B.Z.Q.Q.F.[ ' @X@X@X@X@X@X@X@X@X@X@X@X@X@X@X@X@X@X@X",
"@X@X@X@X@X@X@X@X@X@X@X@X@X@X@X@X@X@X' &.T.T...> > , 8 | T.T.:.s 9 e > U Y.Q.F.[ W @X@X@X@X@X@X@X@X@X@X@X@X@X@X@X@X@X@X@X",
"@X@X@X@X@X@X@X@X@X@X@X@X@X@X@X@X@X@XJ &.T.T.{ # d e.r u.T.T.N.r m ) < P Q.T.A.! J @X@X@X@X@X@X@X@X@X@X@X@X@X@X@X@X@X@X@X",
"@X@X@X@X@X@X@X@X@X@X@X@X@X@X@X@X@X@XB *.T.T.{ $ M.XXt.i.T.Q.n.r.`.{.h H T.Y.C.G B @X@X@X@X@X@X@X@X@X@X@X@X@X@X@X@X@X@X@X",
"@X@X@X@X@X@X@X@X@X@X@X@X@X@X@X@X@XB B / S.R...3 P.XXt.i.Y.T.n.r.`..XU ~ Q.S.#.F B @X@X@X@X@X@X@X@X@X@X@X@X@X@X@X@X@X@X@X",
"@X@X@X@X@X@X@X@X@X@X@X@X@X@X@X@XR ( ~ +.$.G.C.( E.oX3.p.T.T.m.2._.+X .*.Q.1.] F B @X@X@X@X@X@X@X@X@X@X@X@X@X@X@X@X@X@X@X",
"@X@X@X@X@X@X@X@X@X@X@X@X@X@X@XZ %.W.).C.X.G.Y.J.|.].e ) Q.T.%.e m.+XW.K.T.$.Q C B @X@X@X@X@X@X@X@X@X@X@X@X@X@X@X@X@X@X@X",
"@X@X@X@X@X@X@X@X@X@X@X@X@X@X@XY V.^.|.W.C.;.1.S.^.).{ N.Y.Q.V.U P.[.K.A.;.C.C.+.~ @X@X@X@X@X@X@X@X@X@X@X@X@X@X@X@X@X@X@X",
"@X@X@X@X@X@X@X@X@X@X@X@X@X@XW [ A.~.}.|.).#.X.-.S.Y.Q.Y.T.T.Q.T.T.K.>.@.] I.[.Q.%.V @X@X@X@X@X@X@X@X@X@X@X@X@X@X@X@X@X@X",
"@X@X@X@X@X@X@X@X@X@X@X@X@XB E -.G.Q.~.~.!.F.&.[ =.S.K.Q.T.T.T.T.H.>.O.&.W.(.}.Q.&.Y A @X@X@X@X@X@X@X@X@X@X@X@X@X@X@X@X@X",
"@X@X@X@X@X@X@X@X@X@X@X@X@XA ! =.S.R.Q.T.U.Z. .I _ *.A.A.A.A.A.A.%.` I ..[.[./.Q.1.' Y A @X@X@X@X@X@X@X@X@X@X@X@X@X@X@X@X",
"@X@X@X@X@X@X@X@X@X@X@X@X@XW O.=.=.<.Y.T.I.M l l l m ! ' ' ' ' ' ) l l y.Q.Q.Q.T.S.-.' W @X@X@X@X@X@X@X@X@X@X@X@X@X@X@X@X",
"@X@X@X@X@X@X@X@X@X@X@X@X@XK +.S.<.S.<.<.:.m i i x l g f f f f f z j j ) Q.T.R.S.1.=.O.[ Z @X@X@X@X@X@X@X@X@X@X@X@X@X@X@X",
"@X@X@X@X@X@X@X@X@X@X@X@X@XV } T.T.R.<.>.+.p q j v x x x x x x x x x i k.K.Y.G.,.=.=.=.X.Z @X@X@X@X@X@X@X@X@X@X@X@X@X@X@X",
"@X@X@X@X@X@X@X@X@X@X@X@X@XB } T.T.T.R.<.+.p q x b 7.8.8.8.8.8.8.8.9.v M @.$.,.=.=.=.=.X.Z @X@X@X@X@X@X@X@X@X@X@X@X@X@X@X",
"@X@X@X@X@X@X@X@X@X@X@X@X@XB } T.T.T.T.;.| & q i 7.w.w.w.w.w.w.w.q.0.x d Y O.>.<.<.<.<.@.K Z @X@X@X@X@X@X@X@X@X@X@X@X@X@X",
"@X@X@X@X@X@X@X@X@X@X@X@X@XB } T.Q.T.T.+.8 e q j 7.w.w.w.w.w.w.w.w.0.c p V ] ,.R.Y.T.T.A.! S B @X@X@X@X@X@X@X@X@X@X@X@X@X",
"@X@X@X@X@X@X@X@X@X@X@X@X@XB / S.<.<.<.I a k.e.q v b q.w.w.w.w.w.7.b h H ^ &.G.Y.T.T.T.D.@.Q B @X@X@X@X@X@X@X@X@X@X@X@X@X",
"@X@X@X@X@X@X@X@X@X@X@X@X@XB E O.@.@.#.8 < M.M.x i x 7.0.8.8.0.8.v k s T =.G.T.T.T.T.T.G.>.E B @X@X@X@X@X@X@X@X@X@X@X@X@X",
"@X@X@X@X@X@X@X@X@X@X@X@X@X@XA F K A L > % s z.].q.i x v v v v c i e 8 T =.G.T.T.T.T.T.K.>.E B @X@X@X@X@X@X@X@X@X@X@X@X@X",
"@X@X@X@X@X@X@X@X@X@X@X@X@X@X@XB B B B : * - P L.l.e.b.v.v.b.v.v.k.e.D T =.H.T.T.T.T.T.G.>.! V @X@X@X@X@X@X@X@X@X@X@X@X@X",
"@X@X@X@X@X@X@X@X@X@X@X@X@X@X@X@X@X@X@X# $ - 5 B L.OXOXOXOXOXOXOXOX X_ T =.G.T.T.T.T.T.G.>.E B @X@X@X@X@X@X@X@X@X@X@X@X@X",
"@X@X@X@X@X@X@X@X@X@X@X@X@X@X@X@X@X@X  $ - 3 8 B _ x.c.c.x.z.z.x.c. .G Z T #.H.Y.T.Q.H.&.E R @X@X@X@X@X@X@X@X@X@X@X@X@X@X",
"@X@X@X@X@X@X@X@X@X@X@X@X@X@X@X@X@X@X  $ 1 N B B V V B B 7 1 1 7 N 8 N N N E #.V.A.V.#.] Z @X@X@X@X@X@X@X@X@X@X@X@X@X@X@X",
"@X@X@X@X@X@X@X@X@X@X@X@X@X@X@X@X@X@X  $ 1 N B B B B B 7 ; # # ; 2 1 2 2 2 V F L L L F A @X@X@X@X@X@X@X@X@X@X@X@X@X@X@X@X",
"@X@X@X@X@X@X@X@X@X@X@X@X@X@X@X@X@X@XX * 1 N B B B B B 6 - @ @ * - ; 1 1 ; 2 2 1 3 B B @X@X@X@X@X@X@X@X@X@X@X@X@X@X@X@X@X",
"@X@X@X@X@X@X@X@X@X@X@X@X@X@X@X@X@X@X# = 1 N B B V V B 5 - @ . # = ; ; ; ; * @ .   @X@X@X@X@X@X@X@X@X@X@X@X@X@X@X@X@X@X@X",
"@X@X@X@X@X@X@X@X@X@X@X@X@X@X@X@X@X@X# = 2 N B B V N 3 ; * @ . # $ * * * * $ @ .   @X@X@X@X@X@X@X@X@X@X@X@X@X@X@X@X@X@X@X",
"@X@X@X@X@X@X@X@X@X@X@X@X@X@X@X@X@X@X+ * 1 3 6 8 6 3 ; * + + . @ @ @ @ @ @ @ X . @X@X@X@X@X@X@X@X@X@X@X@X@X@X@X@X@X@X@X@X",
"@X@X@X@X@X@X@X@X@X@X@X@X@X@X@X@X@X@XO + % * * * * * # + O @X@X. . . . . . . . @X@X@X@X@X@X@X@X@X@X@X@X@X@X@X@X@X@X@X@X@X",
"@X@X@X@X@X@X@X@X@X@X@X@X@X@X@X@X@X@Xo 0 t u u u u u t 0 o @X@X              @X@X@X@X@X@X@X@X@X@X@X@X@X@X@X@X@X@X@X@X@X@X",
"@X@X@X@X@X@X@X@X@X@X@X@X@X@X@X@X@X@Xo y 5.d.g.g.f.d.5.y o @X@X@X@X@X@X@X@X@X@X@X@X@X@X@X@X@X@X@X@X@X@X@X@X@X@X@X@X@X@X@X",
"@X@X@X@X@X@X@X@X@X@X@X@X@X@X@X@X@X@Xo 4.s.f.g.g.g.f.d.4.o @X@X@X@X@X@X@X@X@X@X@X@X@X@X@X@X@X@X@X@X@X@X@X@X@X@X@X@X@X@X@X",
"@X@X@X@X@X@X@X@X@X@X@X@X@X@X@X@X@X@Xv 6.s.f.g.g.g.g.d.6.v @X@X@X@X@X@X@X@X@X@X@X@X@X@X@X@X@X@X@X@X@X@X@X@X@X@X@X@X@X@X@X",
"@X@X@X@X@X@X@X@X@X@X@X@X@X@X@X@X@X@X+Xh.5.d.g.g.g.d.5.h.+X@X@X@X@X@X@X@X@X@X@X@X@X@X@X@X@X@X@X@X@X@X@X@X@X@X@X@X@X@X@X@X",
"@X@X@X@X@X@X@X@X@X@X@X@X@X@X@X@X@X@X@X'.h.j.j.j.j.'.h.'.@X@X@X@X@X@X@X@X@X@X@X@X@X@X@X@X@X@X@X@X@X@X@X@X@X@X@X@X@X@X@X@X",
"@X@X@X@X@X@X@X@X@X@X@X@X@X@X@X@X@X@X@X@XOXOXOXOXOXOXOX@X@X@X@X@X@X@X@X@X@X@X@X@X@X@X@X@X@X@X@X@X@X@X@X@X@X@X@X@X@X@X@X@X",
"@X@X@X@X@X@X@X@X@X@X@X@X@X@X@X@X@X@X@X@X@X@X@X@X@X@X@X@X@X@X@X@X@X@X@X@X@X@X@X@X@X@X@X@X@X@X@X@X@X@X@X@X@X@X@X@X@X@X@X@X",
"@X@X@X@X@X@X@X@X@X@X@X@X@X@X@X@X@X@X@X@X@X@X@X@X@X@X@X@X@X@X@X@X@X@X@X@X@X@X@X@X@X@X@X@X@X@X@X@X@X@X@X@X@X@X@X@X@X@X@X@X",
"@X@X@X@X@X@X@X@X@X@X@X@X@X@X@X@X@X@X@X@X@X@X@X@X@X@X@X@X@X@X@X@X@X@X@X@X@X@X@X@X@X@X@X@X@X@X@X@X@X@X@X@X@X@X@X@X@X@X@X@X"
};
