/* XPM */
static char *result[] = {
/* columns rows colors chars-per-pixel */
"60 60 191 2 ",
"   c #1C121C",
".  c #29181E",
"X  c #03193F",
"o  c #161C37",
"O  c #2D1F2B",
"+  c #351C21",
"@  c #391F21",
"#  c #3D2122",
"$  c #26283B",
"%  c #2D2937",
"&  c #2D313F",
"*  c #432323",
"=  c #4A2524",
"-  c #522A27",
";  c #5A2B27",
":  c #5D2D28",
">  c #542D29",
",  c #5B302A",
"<  c #553933",
"1  c #612E29",
"2  c #68352D",
"3  c #733A2F",
"4  c #753C30",
"5  c #7A3E31",
"6  c #65473E",
"7  c #0C1F41",
"8  c #0D294F",
"9  c #2D3746",
"0  c #303655",
"q  c #323959",
"w  c #3A3746",
"e  c #02386A",
"r  c #063662",
"t  c #5E3870",
"y  c #623F71",
"u  c #0F4777",
"i  c #3E4869",
"p  c #5A4446",
"a  c #784E44",
"s  c #77574E",
"d  c #62545E",
"f  c #735959",
"g  c #725157",
"h  c #66484E",
"j  c #434C6D",
"k  c #494A66",
"l  c #4B5678",
"z  c #4A5577",
"x  c #575D7A",
"c  c #775E63",
"v  c #734479",
"b  c #77666B",
"n  c #796B77",
"m  c #6C6470",
"M  c #844434",
"N  c #8A4836",
"B  c #894C39",
"V  c #914E3A",
"C  c #95523D",
"Z  c #9A553D",
"A  c #A0583E",
"S  c #9A5B44",
"D  c #86574B",
"F  c #A25D42",
"G  c #9C6A59",
"H  c #8B6456",
"J  c #AB6649",
"K  c #AB6649",
"L  c #B26B4B",
"P  c #BF6F4A",
"I  c #B46746",
"U  c #BA7452",
"Y  c #B8795A",
"T  c #B17052",
"R  c #80527C",
"E  c #877277",
"W  c #877478",
"Q  c #927371",
"!  c #A77967",
"~  c #B57B60",
"^  c #C3744E",
"/  c #C37B55",
"(  c #C77B54",
")  c #9A827B",
"_  c #AE856E",
"`  c #B18772",
"'  c #C6815D",
"]  c #D18459",
"[  c #CB8B66",
"{  c #D18C63",
"}  c #D88E61",
"|  c #DB9262",
" . c #D4936B",
".. c #DB9568",
"X. c #D59C77",
"o. c #CE9A78",
"O. c #E69C6A",
"+. c #E19766",
"@. c #E39F71",
"#. c #DEA37B",
"$. c #D9A07A",
"%. c #E8A16F",
"&. c #EAA674",
"*. c #E2A87E",
"=. c #EBAC7C",
"-. c #E5A577",
";. c #6037A7",
":. c #085A8E",
">. c #3B648B",
",. c #0567A0",
"<. c #0077B9",
"1. c #0774AE",
"2. c #0A6599",
"3. c #586383",
"4. c #616F8E",
"5. c #6C6B81",
"6. c #657392",
"7. c #777B8F",
"8. c #6F45A6",
"9. c #5E31CC",
"0. c #6D40C7",
"q. c #7156C4",
"w. c #7051E5",
"e. c #7F63E8",
"r. c #847383",
"t. c #8168CA",
"y. c #0A83BC",
"u. c #378CBD",
"i. c #7D8094",
"p. c #0085C7",
"a. c #0094D8",
"s. c #0098DC",
"d. c #5299C5",
"f. c #74A9CA",
"g. c #888694",
"h. c #B89186",
"j. c #B3968A",
"k. c #B09894",
"l. c #BEA08B",
"z. c #858CA2",
"x. c #A99EA4",
"c. c #BDB8BF",
"v. c #CAA282",
"b. c #DEAB84",
"n. c #DBAE8C",
"m. c #DAA783",
"M. c #DCB28D",
"N. c #DCAF95",
"B. c #DDB592",
"V. c #C8A394",
"C. c #E3AB82",
"Z. c #EAAF81",
"A. c #EDB283",
"S. c #E9B58B",
"D. c #F0BA8C",
"F. c #E6BA94",
"G. c #EBBC94",
"H. c #E5B994",
"J. c #F2BE91",
"K. c #C9ABA2",
"L. c #D8ACA6",
"P. c #D0B7B0",
"I. c #E7BBA2",
"U. c #EEC19A",
"Y. c #EEC097",
"T. c #F3C396",
"R. c #F3C49A",
"E. c #F6CA9F",
"W. c #F5CDA5",
"Q. c #F4CBA7",
"!. c #F7D2AC",
"~. c #F7D5B1",
"^. c #F5D7BA",
"/. c #E7C6AF",
"(. c #95ADC3",
"). c #99B0C4",
"_. c #A6B7C8",
"`. c #B3BAC5",
"'. c #ACCEE3",
"]. c #C7CBD4",
"[. c #F6DDC4",
"{. c #F8E0C5",
"}. c #F9E5CE",
"|. c #D2DAE1",
" X c #DFE6ED",
".X c #EFECFB",
"XX c #F1F7FA",
"oX c #FEFEFE",
"OX c #F8F7F7",
"+X c #EEF1F4",
"@X c None",
/* pixels */
"@X@X@X@X@X@X@X@X@X@X@X@X@X@X@X@X@X@X@X@X@X@X@X@X@X@X@X@X@X@X@X@X@X@X@X@X@X@X@X@X@X@X@X@X@X@X@X@X@X@X@X@X@X@X@X@X@X@X@X@X",
"@X@X@X@X@X@X@X@X@X@X@X@X@X@X@X@X@X@X@X@X@X@X@X@X@X@X@X@X@X@X@X@X@X@X@X@X@X@X@X@X@X@X@X@X@X@X@X@X@X@X@X@X@X@X@X@X@X@X@X@X",
"@X@X@X@X@X@X@X@X@X@X@X@X@X@X@X@X@X@X@X@X@X@X@X@X@X@X@X@X@X@X@X@X@X@X@X@X@X@X@X@X@X@X@X@X@X@X@X@X@X@X@X@X@X@X@X@X@X@X@X@X",
"@X@X@X@X@X@X@X@X@X@X@X@X@X@X@X@X@X@X@X@X@X@X@X@X@X@X@X@X@X@X@X@X@X@X@X@X@X@X@X@X@X@X@X@X@X@X@X@X@X@X@X@X@X@X@X@X@X@X@X@X",
"@X@X@X@X@X@X@X@X@X@X@X@X@X@X@X@X@X@X@X@X@X@X@X@X@X@X@X@X@X@X@X@X@X@X@X@X@X@X@X@X@X@X@X@X@X@X@X@X@X@X@X@X@X@X@X@X@X@X@X@X",
"@X@X@X@X@X@X@X@X@X@X@X@X@X@X@X@X@X@X@X@X@X@X@X@X@X@X@X@X@X@X@X@X@X@X@X@X@X@X@X@X@X@X@X@X@X@X@X@X@X@X@X@X@X@X@X@X@X@X@X@X",
"@X@X@X@X@X@X@X@X@X@X@X@X@X@X@X@X@X@X@X@X@X@X@X@X@X@X@X@X@X@X@X@X@X@X@X@X@X@X@X@X@X@X@X@X@X@X@X@X@X@X@X@X@X@X@X@X@X@X@X@X",
"@X@X@X@X@X@X@X@X@X@X@X@X@X@X@X@X@X@X@X@X@X@X@X@X@X@X@X@X@X@X@X@X@X@X@X@X@X@X@X@X@X@X@X@X@X@X@X@X@X@X@X@X@X@X@X@X@X@X@X@X",
"@X@X@X@X@X@X@X@X@X@X@X@X@X@X@X@X@X@X@X@X@X@X@XV K ^ ^ ^ ^ ^ L C @X@X@X@X@X@X@X@X@X@X@X@X@X@X@X@X@X@X@X@X@X@X@X@X@X@X@X@X",
"@X@X@X@X@X@X@X@X@X@X@X@X@X@X@X@X@X@X@X@XV I [ $.#.C.C.C.C.C.b.X.[ I C @X@X@X@X@X@X@X@X@X@X@X@X@X@X@X@X@X@X@X@X@X@X@X@X@X",
"@X@X@X@X@X@X@X@X@X@X@X@X@X@X@X@X@X@X@XS J ' m.!.~.!.!.!.!.!.!.!.b.' L F @X@X@X@X@X@X@X@X@X@X@X@X@X@X@X@X@X@X@X@X@X@X@X@X",
"@X@X@X@X@X@X@X@X@X@X@X@X@X@X@X@X@X@XN U O.S.!.}.}.}.}.{.}.}.}.}.~.D.@./ N @X@X@X@X@X@X@X@X@X@X@X@X@X@X@X@X@X@X@X@X@X@X@X",
"@X@X@X@X@X@X@X@X@X@X@X@X@X@X@X@X@X@XF { D.!.{.}.}.}.}.}.}.}.}.}.{.~.J. .F @X@X@X@X@X@X@X@X@X@X@X@X@X@X@X@X@X@X@X@X@X@X@X",
"@X@X@X@X@X@X@X@X@X@X@X@X@X@X@X@X@X@X^ *.W.{.}.}.}.}.}.}.}.}.}.}.}.}.!.*.^ @X@X@X@X@X@X@X@X@X@X@X@X@X@X@X@X@X@X@X@X@X@X@X",
"@X@X@X@X@X@X@X@X@X@X@X@X@X@X@X@XN K ] A.W.{.}.}.}.}.}.}.}.}.}.}.}.{.W.D.+.L N @X@X@X@X@X@X@X@X@X@X@X@X@X@X@X@X@X@X@X@X@X",
"@X@X@X@X@X@X@X@X@X@X@X@X@X@X@X@XA U =.T.!.^.}.}.}.}.}.}.}.}.}.}.{.^.W.T.=.U A @X@X@X@X@X@X@X@X@X@X@X@X@X@X@X@X@X@X@X@X@X",
"@X@X@X@X@X@X@X@X@X@X@X@X@X@X@X@X^ { R.Q.E.E.~.}.}.}.}.}.}.}.}.}.~.W.E.E.E. .P @X@X@X@X@X@X@X@X@X@X@X@X@X@X@X@X@X@X@X@X@X",
"@X@X@X@X@X@X@X@X@X@X@X@X@X@X@X@XP ] T.E.E.E.W.~.~.!.~.~.!.~.~.!.W.E.E.E.E. .P @X@X@X@X@X@X@X@X@X@X@X@X@X@X@X@X@X@X@X@X@X",
"@X@X@X@X@X@X@X@X@X@X@X@X@X@X@X@XP { T.E.E.E.E.E.E.E.E.E.E.E.E.E.E.E.E.E.E. .^ @X@X@X@X@X@X@X@X@X@X@X@X@X@X@X@X@X@X@X@X@X",
"@X@X@X@X@X@X@X@X@X@X@X@X@X@X@X@XP { R.E.E.E.E.E.E.E.E.E.E.E.E.E.E.E.E.E.E. .P @X@X@X@X@X@X@X@X@X@X@X@X@X@X@X@X@X@X@X@X@X",
"@X@X@X@X@X@X@X@X@X@X@X@X@X@X@X@XP { T.Q.E.E.E.E.E.E.E.E.E.E.E.E.E.E.E.E.E. .^ @X@X@X@X@X@X@X@X@X@X@X@X@X@X@X@X@X@X@X@X@X",
"@X@X@X@X@X@X@X@X@X@X@X@X@X@X@X@XP { T.E.R.H.M.n.M.H.E.E.E.F.M.M.M.S.U.W.E. .P @X@X@X@X@X@X@X@X@X@X@X@X@X@X@X@X@X@X@X@X@X",
"@X@X@X@X@X@X@X@X@X@X@X@X@X@X@X@XP [ J.E.M.H 6 6 6 G B.E.T.! a 6 p s m.E.E. .^ @X@X@X@X@X@X@X@X@X@X@X@X@X@X@X@X@X@X@X@X@X",
"@X@X@X@X@X@X@X@X@X@X@X@X@X@X@X@XF [ G.W.n.6 p W v v B.E.U.v t W p < v.E.E.[ F @X@X@X@X@X@X@X@X@X@X@X@X@X@X@X@X@X@X@X@X@X",
"@X@X@X@X@X@X@X@X@X@X@X@X@X@X@X@XN T T.E.m.6 W oXe.9.L.Q.I.0.w..Xr.< m.Q.E.Y N N N @X@X@X@X@X@X@X@X@X@X@X@X@X@X@X@X@X@X@X",
"@X@X@X@X@X@X@X@X@X@X@X@X@X@X@X@XN J -.T.M.D h.oXe.9.L.E.I.0.w..Xj.D m.J.=.T Z U L N @X@X@X@X@X@X@X@X@X@X@X@X@X@X@X@X@X@X",
"@X@X@X@X@X@X@X@X@X@X@X@X@X@X@X@XG U ] A.F._ V.oXq.;.N.E.I.8.q..XK.~ H.A.| Y ~ ../ C @X@X@X@X@X@X@X@X@X@X@X@X@X@X@X@X@X@X",
"@X@X@X@X@X@X@X@X@X@X@X@X@X@X@XS o.#.( #.R.J.^.oXg.h n.E.F.g b +X[.G.R.C.^ N./.&.] I @X@X@X@X@X@X@X@X@X@X@X@X@X@X@X@X@X@X",
"@X@X@X@X@X@X@X@X@X@X@X@X@X@X@XJ m.U.M.m.$.=.Q.}.l.` F.E.R.` h.[.Q.Z.X.X.X.U.Q.&.+.] K @X@X@X@X@X@X@X@X@X@X@X@X@X@X@X@X@X",
"@X@X@X@X@X@X@X@X@X@X@X@X@X@XP ( Z.!.[.b.' | &.T.E.E.E.E.Q.E.E.R.Z.| / [ W.R.D.%.O.+.K V @X@X@X@X@X@X@X@X@X@X@X@X@X@X@X@X",
"@X@X@X@X@X@X@X@X@X@X@X@X@XN L +.D.W.!.R.b.] ] -.Y.E.E.E.E.E.T.&.| U f ) E.A.&.O.O.+.^ I @X@X@X@X@X@X@X@X@X@X@X@X@X@X@X@X",
"@X@X@X@X@X@X@X@X@X@X@X@X@XZ / O.=.J.R.Q.Y.! G _ o.-.C.*.#.*.X._ G H k E D.&.%.=.=.-.] P @X@X@X@X@X@X@X@X@X@X@X@X@X@X@X@X",
"@X@X@X@X@X@X@X@X@X@X@X@X@XP ] O.O.=.R.E.B.m i j H P P P ^ ^ S k j t 0 d O.O.&.T.E.T.{ P @X@X@X@X@X@X@X@X@X@X@X@X@X@X@X@X",
"@X@X@X@X@X@X@X@X@X@X@X@X@XP ] O.%.%.=.=.$.m z 3.n W W W E E 5.4.z j 9 f O.=.D.E.E.T.{ P @X@X@X@X@X@X@X@X@X@X@X@X@X@X@X@X",
"@X@X@X@X@X@X@X@X@X@X@X@X@X^ ] O.%.&.&.%. .b x 6.6.6.6.6.6.6.6.6.l i 0 f O.D.E.E.R.D.' I @X@X@X@X@X@X@X@X@X@X@X@X@X@X@X@X",
"@X@X@X@X@X@X@X@X@X@X@XN Z I ] O.D.R.R.=.{ S f 6.6.6.6.6.6.6.6.4.3.i 0 f O.D.E.E.D.O.J V @X@X@X@X@X@X@X@X@X@X@X@X@X@X@X@X",
"@X@X@X@X@X@X@X@X@X@X@XN Z ' O.A.T.E.E.T.-.' G c 5.6.6.6.6.6.4.3.i j i.k.O.=.A.A. .U F @X@X@X@X@X@X@X@X@X@X@X@X@X@X@X@X@X",
"@X@X@X@X@X@X@X@X@X@X@XN F ] A.E.E.E.E.E.T.&.( N m 4.4.4.4.4.3.j j x c./.{ | ..| U N @X@X@X@X@X@X@X@X@X@X@X@X@X@X@X@X@X@X",
"@X@X@X@X@X@X@X@X@X@X@XN F } A.E.E.E.E.E.T.&./ N d l l l l l j 0 g.`.g.a < B F S Z @X@X@X@X@X@X@X@X@X@X@X@X@X@X@X@X@X@X@X",
"@X@X@X@X@X@X@X@X@X@X@XN F } A.E.E.E.E.E.T.&.( N E z.z.z.z.z.z.7.x.l.D =   - B N @X@X@X@X@X@X@X@X@X@X@X@X@X@X@X@X@X@X@X@X",
"@X@X@X@X@X@X@X@X@X@X@XN F | A.E.E.E.E.E.T.&.( N P.oXOXoXOXoXoXoXl.N 2 *   @X@X@X@X@X@X@X@X@X@X@X@X@X@X@X@X@X@X@X@X@X@X@X",
"@X@X@X@X@X@X@X@X@X@X@X@XZ J [ A.T.E.E.D.&.U A N ! h.h.h.h.h.h.` G N 6 ; + @X@X@X@X@X@X@X@X@X@X@X@X@X@X@X@X@X@X@X@X@X@X@X",
"@X@X@X@X@X@X@X@X@X@X@X@X@XB L ] #.M.b.X.' C 6 N N M M M N N N N N N N 3 # + @X@X@X@X@X@X@X@X@X@X@X@X@X@X@X@X@X@X@X@X@X@X",
"@X@X@X@X@X@X@X@X@X@X@X@X@X@XC Z S S S S V 3 5 N N M 2 4 N N N N N N N 4 ; +   @X@X@X@X@X@X@X@X@X@X@X@X@X@X@X@X@X@X@X@X@X",
"@X@X@X@X@X@X@X@X@X@X@X@X@X@X@XM 2 , , 2 3 1 2 3 3 2 ; 1 5 M N N N N N 5 : +   @X@X@X@X@X@X@X@X@X@X@X@X@X@X@X@X@X@X@X@X@X",
"@X@X@X@X@X@X@X@X@X@X@X@X@X@X@X@X  . # = ; ; ; ; ; - # = 1 M N N N N N 5 : +   @X@X@X@X@X@X@X@X@X@X@X@X@X@X@X@X@X@X@X@X@X",
"@X@X@X@X@X@X@X@X@X@X@X@X@X@X@X@X# . @ # * * * * * * @ = 1 6 N N N N N 5 : +   @X@X@X@X@X@X@X@X@X@X@X@X@X@X@X@X@X@X@X@X@X",
"@X@X@X@X@X@X@X@X@X@X@X@X@X@X@X@Xb d % $ $ $ $ $ $ w c h ; 3 N N N N N 5 ; # . @X@X@X@X@X@X@X@X@X@X@X@X@X@X@X@X@X@X@X@X@X",
"@X@X@X@X@X@X@X@X@X@X@X@X@X@X@X@XOX_.u e e e e e e >.|.k.# 2 N N N N N 5 : * + @X@X@X@X@X@X@X@X@X@X@X@X@X@X@X@X@X@X@X@X@X",
"@X@X@X@X@X@X@X@X@X@X@X@X@X@X@X@X@X|.).(.).(.(.(.(._. Xb # > , , : 1 , - = O o @X@X@X@X@X@X@X@X@X@X@X@X@X@X@X@X@X@X@X@X@X",
"@X@X@X@X@X@X@X@X@X@X@X@X@X@X@X@X@X@XoXoXoXoXoXoXoXoX@X@XO $ 9 9 9 w w 9 % o X @X@X@X@X@X@X@X@X@X@X@X@X@X@X@X@X@X@X@X@X@X",
"@X@X@X@X@X@X@X@X@X@X@X@X@X@X@X@X@X@X@X@X@X@X@X@X@X@X@X@X7 u ,.y.<.p.y.2.r 8 X @X@X@X@X@X@X@X@X@X@X@X@X@X@X@X@X@X@X@X@X@X",
"@X@X@X@X@X@X@X@X@X@X@X@X@X@X@X@X@X@X@X@X@X@X@X@X@X@X@X@X7 ,.p.a.s.a.a.p.,.e X @X@X@X@X@X@X@X@X@X@X@X@X@X@X@X@X@X@X@X@X@X",
"@X@X@X@X@X@X@X@X@X@X@X@X@X@X@X@X@X@X@X@X@X@X@X@X@X@X@X@Xr 1.a.a.a.a.a.a.a.u 8 @X@X@X@X@X@X@X@X@X@X@X@X@X@X@X@X@X@X@X@X@X",
"@X@X@X@X@X@X@X@X@X@X@X@X@X@X@X@X@X@X@X@X@X@X@X@X@X@X@X@X_.u.<.<.<.<.<.<.<.f.`.@X@X@X@X@X@X@X@X@X@X@X@X@X@X@X@X@X@X@X@X@X",
"@X@X@X@X@X@X@X@X@X@X@X@X@X@X@X@X@X@X@X@X@X@X@X@X@X@X@X@XXXf.d.d.d.d.d.d.d.'.oX@X@X@X@X@X@X@X@X@X@X@X@X@X@X@X@X@X@X@X@X@X",
"@X@X@X@X@X@X@X@X@X@X@X@X@X@X@X@X@X@X@X@X@X@X@X@X@X@X@X@X@XXXXXXXXXXXXXXXXX@X@X@X@X@X@X@X@X@X@X@X@X@X@X@X@X@X@X@X@X@X@X@X",
"@X@X@X@X@X@X@X@X@X@X@X@X@X@X@X@X@X@X@X@X@X@X@X@X@X@X@X@X@X@X@X@X@X@X@X@X@X@X@X@X@X@X@X@X@X@X@X@X@X@X@X@X@X@X@X@X@X@X@X@X",
"@X@X@X@X@X@X@X@X@X@X@X@X@X@X@X@X@X@X@X@X@X@X@X@X@X@X@X@X@X@X@X@X@X@X@X@X@X@X@X@X@X@X@X@X@X@X@X@X@X@X@X@X@X@X@X@X@X@X@X@X",
"@X@X@X@X@X@X@X@X@X@X@X@X@X@X@X@X@X@X@X@X@X@X@X@X@X@X@X@X@X@X@X@X@X@X@X@X@X@X@X@X@X@X@X@X@X@X@X@X@X@X@X@X@X@X@X@X@X@X@X@X"
};
