/* XPM */
static char *result[] = {
/* columns rows colors chars-per-pixel */
"60 60 173 2 ",
"   c #1C121C",
".  c #25151E",
"X  c #2B191F",
"o  c #301B1F",
"O  c #171628",
"+  c #03193E",
"@  c #0F1C36",
"#  c #0F162E",
"$  c #251C27",
"%  c #321C20",
"&  c #3A1F21",
"*  c #3E2122",
"=  c #2F2B38",
"-  c #2C2734",
";  c #452323",
":  c #4B2524",
">  c #552926",
",  c #5A2B27",
"<  c #5F302A",
"1  c #612E29",
"2  c #64322A",
"3  c #6C362D",
"4  c #6F3A2F",
"5  c #73392F",
"6  c #773D31",
"7  c #7E4132",
"8  c #7C4439",
"9  c #04234C",
"0  c #172D4D",
"q  c #08345D",
"w  c #0A2B53",
"e  c #2D3352",
"r  c #2B3E5E",
"t  c #3C3B53",
"y  c #353D5D",
"u  c #363A56",
"i  c #34334E",
"p  c #033969",
"a  c #173A62",
"s  c #263D60",
"d  c #5E3D41",
"f  c #1C4466",
"g  c #154164",
"h  c #004177",
"j  c #01487F",
"k  c #174D7C",
"l  c #3B4465",
"z  c #3E4769",
"x  c #3F486A",
"c  c #4C495C",
"v  c #494459",
"b  c #564955",
"n  c #784F4A",
"m  c #795855",
"M  c #4A4D65",
"N  c #424C6E",
"B  c #4E526C",
"V  c #5A5567",
"C  c #454F71",
"Z  c #495375",
"A  c #475173",
"S  c #515D7C",
"D  c #665E69",
"F  c #5F637A",
"G  c #7F7070",
"H  c #834434",
"J  c #8A4836",
"K  c #894A3A",
"L  c #934E39",
"P  c #95523C",
"I  c #9A563E",
"U  c #9D5A42",
"Y  c #945845",
"T  c #8A5A50",
"R  c #A25C42",
"E  c #81615E",
"W  c #9A6152",
"Q  c #A26149",
"!  c #A96548",
"~  c #B06444",
"^  c #B66947",
"/  c #B36D4D",
"(  c #BF6F4A",
")  c #B9724F",
"_  c #B16E51",
"`  c #B87250",
"'  c #BE7956",
"]  c #BE7E5E",
"[  c #907C76",
"{  c #8F766E",
"}  c #A77668",
"|  c #A9786A",
" . c #C47B54",
".. c #C87E58",
"X. c #C07754",
"o. c #A3887C",
"O. c #BB8366",
"+. c #CC835B",
"@. c #CC8056",
"#. c #D6895C",
"$. c #C58A69",
"%. c #D68E61",
"&. c #D99062",
"*. c #D4956E",
"=. c #DB966A",
"-. c #CF9F7E",
";. c #D69973",
":. c #E59C6A",
">. c #E29866",
",. c #E7A06D",
"<. c #E9A372",
"1. c #E4A87C",
"2. c #ECAC7C",
"3. c #E5A375",
"4. c #095D93",
"5. c #005996",
"6. c #054E84",
"7. c #0062A1",
"8. c #0069AA",
"9. c #2471A4",
"0. c #546080",
"q. c #5F6C8C",
"w. c #5A6787",
"e. c #67758F",
"r. c #657392",
"t. c #6C7D96",
"y. c #656A82",
"u. c #857D84",
"i. c #2B82B8",
"p. c #818C9F",
"a. c #AA9697",
"s. c #BCA19C",
"d. c #8895A9",
"f. c #9D99A5",
"g. c #9997A3",
"h. c #809BB5",
"j. c #818FA3",
"k. c #ABB2BF",
"l. c #C79F83",
"z. c #C4A39A",
"x. c #D4B091",
"c. c #DAB494",
"v. c #DCAB8C",
"b. c #EDAF80",
"n. c #EEB384",
"m. c #E6B68E",
"M. c #EDB689",
"N. c #E8B88F",
"B. c #F1BC8F",
"V. c #EDBB92",
"C. c #E5BD98",
"Z. c #D5BCA5",
"A. c #F3C296",
"S. c #F4C69B",
"D. c #F6CA9F",
"F. c #D6C7B9",
"G. c #F6CEA5",
"H. c #F7D1AB",
"J. c #F7D8B7",
"K. c #F8D8B7",
"L. c #F8DBBC",
"P. c #B8BDC8",
"I. c #B2C4D3",
"U. c #D8C5C1",
"Y. c #D5D9DF",
"T. c #CBC3C6",
"R. c #F8DDC0",
"E. c #F9E6CF",
"W. c #F9E1C7",
"Q. c #DCDDE3",
"!. c #D5E6F1",
"~. c #FFFFFF",
"^. c None",
/* pixels */
"^.^.^.^.^.^.^.^.^.^.^.^.^.^.^.^.^.^.^.^.^.^.^.^.^.^.^.^.^.^.^.^.^.^.^.^.^.^.^.^.^.^.^.^.^.^.^.^.^.^.^.^.^.^.^.^.^.^.^.^.",
"^.^.^.^.^.^.^.^.^.^.^.^.^.^.^.^.^.^.^.^.^.^.^.^.^.^.^.^.^.^.^.^.^.^.^.^.^.^.^.^.^.^.^.^.^.^.^.^.^.^.^.^.^.^.^.^.^.^.^.^.",
"^.^.^.^.^.^.^.^.^.^.^.^.^.^.^.^.^.^.^.^.^.^.^.^.^.^.^.^.^.^.^.^.^.^.^.^.^.^.^.^.^.^.^.^.^.^.^.^.^.^.^.^.^.^.^.^.^.^.^.^.",
"^.^.^.^.^.^.^.^.^.^.^.^.^.^.^.^.^.^.^.^.^.^.^.^.^.^.^.^.^.^.^.^.^.^.^.^.^.^.^.^.^.^.^.^.^.^.^.^.^.^.^.^.^.^.^.^.^.^.^.^.",
"^.^.^.^.^.^.^.^.^.^.^.^.^.^.^.^.^.^.^.^.^.^.^.^.^.^.^.^.^.^.^.^.^.^.^.^.^.^.^.^.^.^.^.^.^.^.^.^.^.^.^.^.^.^.^.^.^.^.^.^.",
"^.^.^.^.^.^.^.^.^.^.^.^.^.^.^.^.^.^.^.^.^.^.^.^.^.^.^.^.^.^.^.^.^.^.^.^.^.^.^.^.^.^.^.^.^.^.^.^.^.^.^.^.^.^.^.^.^.^.^.^.",
"^.^.^.^.^.^.^.^.^.^.^.^.^.^.^.^.^.^.^.^.^.^.^.^.^.^.^.^.^.^.^.^.^.^.^.^.^.^.^.^.^.^.^.^.^.^.^.^.^.^.^.^.^.^.^.^.^.^.^.^.",
"^.^.^.^.^.^.^.^.^.^.^.^.^.^.^.^.^.^.^.^.^.^.^.^.^.^.L ^ ( ( ( ( ^ L ^.^.^.^.^.^.^.^.^.^.^.^.^.^.^.^.^.^.^.^.^.^.^.^.^.^.",
"^.^.^.^.^.^.^.^.^.^.^.^.^.^.^.^.^.^.^.^.^.^.^.^.^.Q Q  .........X.! Q ^.^.^.^.^.^.^.^.^.^.^.^.^.^.^.^.^.^.^.^.^.^.^.^.^.",
"^.^.^.^.^.^.^.^.^.^.^.^.^.^.^.^.^.^.^.^.^.^.^.L ^ *.m.N.V.V.N.V.M.m.*.^ L ^.^.^.^.^.^.^.^.^.^.^.^.^.^.^.^.^.^.^.^.^.^.^.",
"^.^.^.^.^.^.^.^.^.^.^.^.^.^.^.^.^.^.^.^.^.^.! ' *.C.K.K.K.K.K.K.K.K.C.*.' ! ^.^.^.^.^.^.^.^.^.^.^.^.^.^.^.^.^.^.^.^.^.^.",
"^.^.^.^.^.^.^.^.^.^.^.^.^.^.^.^.^.^.^.^.^.L X.2.D.L.E.E.E.E.E.E.E.E.L.D.2.' L ^.^.^.^.^.^.^.^.^.^.^.^.^.^.^.^.^.^.^.^.^.",
"^.^.^.^.^.^.^.^.^.^.^.^.^.^.^.^.^.^.^.^.^.^ *.D.R.E.E.E.E.E.E.E.E.E.E.L.D.*.^ ^.^.^.^.^.^.^.^.^.^.^.^.^.^.^.^.^.^.^.^.^.",
"^.^.^.^.^.^.^.^.^.^.^.^.^.^.^.^.^.^.^.^.R ..1.G.W.E.E.E.E.E.E.E.E.E.E.W.G.1.@.U ^.^.^.^.^.^.^.^.^.^.^.^.^.^.^.^.^.^.^.^.",
"^.^.^.^.^.^.^.^.^.^.^.^.^.^.^.^.^.^.^.L R =.n.G.R.E.E.E.E.E.E.E.E.E.E.L.G.M.=.U ^.^.^.^.^.^.^.^.^.^.^.^.^.^.^.^.^.^.^.^.",
"^.^.^.^.^.^.^.^.^.^.^.^.^.^.^.^.^.^.^.^ X.M.D.G.G.L.E.E.E.E.E.E.E.E.L.G.G.S.M.X.^.^.^.^.^.^.^.^.^.^.^.^.^.^.^.^.^.^.^.^.",
"^.^.^.^.^.^.^.^.^.^.^.^.^.^.^.^.^.^.^.X...V.G.D.D.H.K.J.J.J.J.J.K.K.H.D.D.D.V...^.^.^.^.^.^.^.^.^.^.^.^.^.^.^.^.^.^.^.^.",
"^.^.^.^.^.^.^.^.^.^.^.^.^.^.^.^.^.^.^.X.+.B.D.D.D.D.D.D.D.D.D.D.D.D.D.D.D.D.V...^.^.^.^.^.^.^.^.^.^.^.^.^.^.^.^.^.^.^.^.",
"^.^.^.^.^.^.^.^.^.^.^.^.^.^.^.^.^.^.^.( ..M.D.D.D.D.D.D.D.D.D.D.D.D.D.D.D.D.V...^.^.^.^.^.^.^.^.^.^.^.^.^.^.^.^.^.^.^.^.",
"^.^.^.^.^.^.^.^.^.^.^.^.^.^.^.^.^.^.^.( ..N.D.D.D.D.D.D.D.D.D.D.D.D.D.D.D.D.V.@.^.^.^.^.^.^.^.^.^.^.^.^.^.^.^.^.^.^.^.^.",
"^.^.^.^.^.^.^.^.^.^.^.^.^.^.^.^.^.^.^.X. .M.D.D.D.D.D.D.D.D.D.D.D.D.D.D.D.D.V...^.^.^.^.^.^.^.^.^.^.^.^.^.^.^.^.^.^.^.^.",
"^.^.^.^.^.^.^.^.^.^.^.^.^.^.^.^.^.^.^.X...B.D.D.D.D.D.D.D.D.D.D.D.D.D.D.D.D.V...^.^.^.^.^.^.^.^.^.^.^.^.^.^.^.^.^.^.^.^.",
"^.^.^.^.^.^.^.^.^.^.^.^.^.^.^.^.^.^.^.R _ m.D.D.D.D.D.D.D.D.D.D.D.D.D.D.D.D.N./ ^.^.^.^.^.^.^.^.^.^.^.^.^.^.^.^.^.^.^.^.",
"^.^.^.^.^.^.^.^.^.^.^.^.^.^.^.^.^.^.^.8 T l.x.c.S.D.D.D.D.D.D.D.D.D.C.x.x.x.l.Y ^.^.^.^.^.^.^.^.^.^.^.^.^.^.^.^.^.^.^.^.",
"^.^.^.^.^.^.^.^.^.^.^.^.^.^.^.^.^.^.J d i v c D c.G.D.D.D.D.D.D.D.D.o.c c c b K ^.^.^.^.^.^.^.^.^.^.^.^.^.^.^.^.^.^.^.^.",
"^.^.^.^.^.^.^.^.^.^.^.^.^.^.^.^.^.I O.o.p.t e t G [ [ [ [ [ [ [ [ [ V t { [ { Q I ^.^.^.^.^.^.^.^.^.^.^.^.^.^.^.^.^.^.^.",
"^.^.^.^.^.^.^.^.^.^.^.^.^.^.^.^.I _ M.J.F.v e e e e e e e e e e e e e c x.G.V.$.~ L ^.^.^.^.^.^.^.^.^.^.^.^.^.^.^.^.^.^.",
"^.^.^.^.^.^.^.^.^.^.^.^.^.^.^.J / =.A.K.F.c y z z z z z N z z z l N y c x.S.S.V.*.~ L ^.^.^.^.^.^.^.^.^.^.^.^.^.^.^.^.^.",
"^.^.^.^.^.^.^.^.^.^.^.^.^.^.^.J ` <.A.H.c.M y C N Z 0.0.S 0.0.0.S C y c x.D.D.D.1. .P ^.^.^.^.^.^.^.^.^.^.^.^.^.^.^.^.^.",
"^.^.^.^.^.^.^.^.^.^.^.^.^.^.^.J ` <.A.S.x.c y C N 0.r.r.r.r.r.r.q.Z y c x.D.D.A.b.&.Q I ^.^.^.^.^.^.^.^.^.^.^.^.^.^.^.^.",
"^.^.^.^.^.^.^.^.^.^.^.^.^.^.^.J ) :.,.M.x.v y N N 0.r.r.r.r.r.r.q.Z y c x.D.S.2.,.:.&./ J ^.^.^.^.^.^.^.^.^.^.^.^.^.^.^.",
"^.^.^.^.^.^.^.^.^.^.^.^.^.^.^.J ) :.,.<.v.o.D l N Z 0.r.r.r.r.w.S N l V -.n.2.,.:.,.2.] J ^.^.^.^.^.^.^.^.^.^.^.^.^.^.^.",
"^.^.^.^.^.^.^.^.^.^.^.^.^.^.^.J / &.:.:.,.M.{ e z C A w.q.q.q.0.x C x V ] :.,.<.<.b.B.$.Y ^.^.^.^.^.^.^.^.^.^.^.^.^.^.^.",
"^.^.^.^.^.^.^.^.^.^.^.^.^.^.^.^.P Q &.:.:.+.n e z x C A Z Z Z C C x C V _ %.<.B.B.V.G.;.~ L ^.^.^.^.^.^.^.^.^.^.^.^.^.^.",
"^.^.^.^.^.^.^.^.^.^.^.^.^.^.^.^.^.I / ) ) X.n e y l x C C x C x N N z d Y ..<.G.G.G.S.<. .P ^.^.^.^.^.^.^.^.^.^.^.^.^.^.",
"^.^.^.^.^.^.^.^.^.^.^.^.^.^.^.^.^.^.J J L I m M e y C x x C x C N N r s T ] :.B.G.G.G.b.%.R ^.^.^.^.^.^.^.^.^.^.^.^.^.^.",
"^.^.^.^.^.^.^.^.^.^.^.^.^.^.^.^.^.^.^.^.^.; p.P.M l C C x C C x z y e M T.v...V.D.D.G.n.%.I ^.^.^.^.^.^.^.^.^.^.^.^.^.^.",
"^.^.^.^.^.^.^.^.^.^.^.^.^.^.^.^.^.^.^.^.X o T s.f.w.y y y y y y y e F g.a.} / 3.n.n.b.:. .P ^.^.^.^.^.^.^.^.^.^.^.^.^.^.",
"^.^.^.^.^.^.^.^.^.^.^.^.^.^.^.^.^.^.^.  X > 6 W F.f.B B B B B B N B f.U.n 5 Y ..&.%.%. .~ L ^.^.^.^.^.^.^.^.^.^.^.^.^.^.",
"^.^.^.^.^.^.^.^.^.^.^.^.^.^.^.^.^.^.^.  . > 5 K W z.Q.Q.Q.Q.Q.Q.Q.Q.s.W K 5 2 L I I I I L ^.^.^.^.^.^.^.^.^.^.^.^.^.^.^.",
"^.^.^.^.^.^.^.^.^.^.^.^.^.^.^.^.^.^.^.X % > 5 J J } z.z.z.z.z.z.z.z.} J J 7 5 2 5 ^.^.^.^.^.^.^.^.^.^.^.^.^.^.^.^.^.^.^.",
"^.^.^.^.^.^.^.^.^.^.^.^.^.^.^.^.^.^.^.* * > 3 H J J J J H H H J J J J J J J 7 ; ^.^.^.^.^.^.^.^.^.^.^.^.^.^.^.^.^.^.^.^.",
"^.^.^.^.^.^.^.^.^.^.^.^.^.^.^.^.^.^.^.* * , 2 3 H J J J 5 2 2 5 J J J J J J 6 % ^.^.^.^.^.^.^.^.^.^.^.^.^.^.^.^.^.^.^.^.",
"^.^.^.^.^.^.^.^.^.^.^.^.^.^.^.^.^.^.^.X o ; > < 4 5 5 5 < > , 5 J J J J J 7 2 X ^.^.^.^.^.^.^.^.^.^.^.^.^.^.^.^.^.^.^.^.",
"^.^.^.^.^.^.^.^.^.^.^.^.^.^.^.^.^.^.^.  . X ; , , , , , ; & > 3 H 7 H H H 5 > . ^.^.^.^.^.^.^.^.^.^.^.^.^.^.^.^.^.^.^.^.",
"^.^.^.^.^.^.^.^.^.^.^.^.^.^.^.^.^.^.^.    . o * & * & & X . & > 2 2 2 2 2 1 > . ^.^.^.^.^.^.^.^.^.^.^.^.^.^.^.^.^.^.^.^.",
"^.^.^.^.^.^.^.^.^.^.^.^.^.^.^.^.^.^.^.O @ q g f f f f f 0 O X & : : : : : : ; . ^.^.^.^.^.^.^.^.^.^.^.^.^.^.^.^.^.^.^.^.",
"^.^.^.^.^.^.^.^.^.^.^.^.^.^.^.^.^.^.^.+ w 9.i.i.i.i.i.i.k + O $ = = = = = = - O ^.^.^.^.^.^.^.^.^.^.^.^.^.^.^.^.^.^.^.^.",
"^.^.^.^.^.^.^.^.^.^.^.^.^.^.^.^.^.^.^.+ r I.!.!.!.!.!.!.t.+ + p 4.4.4.4.4.4.6.w ^.^.^.^.^.^.^.^.^.^.^.^.^.^.^.^.^.^.^.^.",
"^.^.^.^.^.^.^.^.^.^.^.^.^.^.^.^.^.^.^.p.p.p.p.p.p.j.p.p.p.t.0 p 5.7.8.8.8.5.6.9 ^.^.^.^.^.^.^.^.^.^.^.^.^.^.^.^.^.^.^.^.",
"^.^.^.^.^.^.^.^.^.^.^.^.^.^.^.^.^.^.^.~.Y.l + + + + + + p.Q.S a p 5.7.8.5.6.p r ^.^.^.^.^.^.^.^.^.^.^.^.^.^.^.^.^.^.^.^.",
"^.^.^.^.^.^.^.^.^.^.^.^.^.^.^.^.^.^.^.~.Y.s + + + + + + p.~.Q.e.9 p j p p q r P.^.^.^.^.^.^.^.^.^.^.^.^.^.^.^.^.^.^.^.^.",
"^.^.^.^.^.^.^.^.^.^.^.^.^.^.^.^.^.^.^.^.Q.d.p.p.p.p.p.p.k.^.^.k.j.h.h.h.h.j.d.Q.^.^.^.^.^.^.^.^.^.^.^.^.^.^.^.^.^.^.^.^.",
"^.^.^.^.^.^.^.^.^.^.^.^.^.^.^.^.^.^.^.^.^.~.~.~.~.~.~.~.^.^.^.^.~.~.~.~.~.~.~.^.^.^.^.^.^.^.^.^.^.^.^.^.^.^.^.^.^.^.^.^.",
"^.^.^.^.^.^.^.^.^.^.^.^.^.^.^.^.^.^.^.^.^.^.^.^.^.^.^.^.^.^.^.^.^.^.^.^.^.^.^.^.^.^.^.^.^.^.^.^.^.^.^.^.^.^.^.^.^.^.^.^.",
"^.^.^.^.^.^.^.^.^.^.^.^.^.^.^.^.^.^.^.^.^.^.^.^.^.^.^.^.^.^.^.^.^.^.^.^.^.^.^.^.^.^.^.^.^.^.^.^.^.^.^.^.^.^.^.^.^.^.^.^.",
"^.^.^.^.^.^.^.^.^.^.^.^.^.^.^.^.^.^.^.^.^.^.^.^.^.^.^.^.^.^.^.^.^.^.^.^.^.^.^.^.^.^.^.^.^.^.^.^.^.^.^.^.^.^.^.^.^.^.^.^.",
"^.^.^.^.^.^.^.^.^.^.^.^.^.^.^.^.^.^.^.^.^.^.^.^.^.^.^.^.^.^.^.^.^.^.^.^.^.^.^.^.^.^.^.^.^.^.^.^.^.^.^.^.^.^.^.^.^.^.^.^.",
"^.^.^.^.^.^.^.^.^.^.^.^.^.^.^.^.^.^.^.^.^.^.^.^.^.^.^.^.^.^.^.^.^.^.^.^.^.^.^.^.^.^.^.^.^.^.^.^.^.^.^.^.^.^.^.^.^.^.^.^.",
"^.^.^.^.^.^.^.^.^.^.^.^.^.^.^.^.^.^.^.^.^.^.^.^.^.^.^.^.^.^.^.^.^.^.^.^.^.^.^.^.^.^.^.^.^.^.^.^.^.^.^.^.^.^.^.^.^.^.^.^."
};
