/* XPM */
static char *result[] = {
/* columns rows colors chars-per-pixel */
"60 60 176 2 ",
"   c #1C121C",
".  c #26161E",
"X  c #2A191F",
"o  c #28171E",
"O  c #0F162E",
"+  c #1C1522",
"@  c #19192C",
"#  c #03193E",
"$  c #0B1836",
"%  c #121C3B",
"&  c #2E1B20",
"*  c #231824",
"=  c #331D22",
"-  c #3A1F21",
";  c #3F2122",
":  c #2C2537",
">  c #452323",
",  c #4D2625",
"<  c #4E292C",
"1  c #46282B",
"2  c #532926",
"3  c #5C2C28",
"4  c #572B27",
"5  c #612E29",
"6  c #64322B",
"7  c #6B362C",
"8  c #71392E",
"9  c #753C30",
"0  c #793F32",
"q  c #7E4132",
"w  c #7C4439",
"e  c #69423C",
"r  c #021D46",
"t  c #0A1F44",
"y  c #022956",
"u  c #022E5D",
"i  c #192F52",
"p  c #0E264C",
"a  c #2A2F4E",
"s  c #2B304F",
"d  c #2E3353",
"f  c #283958",
"g  c #343C5C",
"h  c #343856",
"j  c #3D354B",
"k  c #003465",
"l  c #023A6C",
"z  c #193C65",
"x  c #583A41",
"c  c #483E51",
"v  c #493D4B",
"b  c #3C405D",
"n  c #004176",
"m  c #3A4263",
"M  c #3E4769",
"N  c #3F486A",
"B  c #2D4A6E",
"V  c #4C495C",
"C  c #47445B",
"Z  c #73514F",
"A  c #7B5D5B",
"S  c #7E5A54",
"D  c #694E52",
"F  c #424C6E",
"G  c #4A4C63",
"H  c #585262",
"J  c #454F71",
"K  c #475173",
"L  c #485374",
"P  c #515C7D",
"I  c #685E67",
"U  c #746A74",
"Y  c #844434",
"T  c #8A4836",
"R  c #87493A",
"E  c #934E39",
"W  c #97543D",
"Q  c #9A563E",
"!  c #A25A3F",
"~  c #8E5B45",
"^  c #945747",
"/  c #84564F",
"(  c #A35C41",
")  c #88655B",
"_  c #9C6557",
"`  c #AE6748",
"'  c #A8664A",
"]  c #B66947",
"[  c #B26C4C",
"{  c #BF6F4A",
"}  c #BA714E",
"|  c #B87250",
" . c #BA7E5D",
".. c #847678",
"X. c #907C76",
"o. c #9B796B",
"O. c #A87A6E",
"+. c #C4754E",
"@. c #C07754",
"#. c #C87E58",
"$. c #C57B55",
"%. c #D58A5D",
"&. c #D98D5F",
"*. c #CC845A",
"=. c #C58765",
"-. c #D78E60",
";. c #D88F61",
":. c #DA9669",
">. c #D99367",
",. c #CD9D7B",
"<. c #DB9D75",
"1. c #D49872",
"2. c #E49B69",
"3. c #E39F70",
"4. c #DEA077",
"5. c #E7A06E",
"6. c #E9A472",
"7. c #E2A479",
"8. c #E9AB7C",
"9. c #2C618D",
"0. c #0061A0",
"q. c #2B79AD",
"w. c #556181",
"e. c #5F6C8C",
"r. c #5A6787",
"t. c #56708E",
"y. c #67758F",
"u. c #657392",
"i. c #2B82B8",
"p. c #6B86A2",
"a. c #7FA0BB",
"s. c #7FB4D4",
"d. c #7FB0CF",
"f. c #82889B",
"g. c #BB948A",
"h. c #9597A7",
"j. c #809CB5",
"k. c #8191A6",
"l. c #AD9DA1",
"z. c #80A0BA",
"x. c #BAAFA8",
"c. c #DCA884",
"v. c #D4B091",
"b. c #D9B495",
"n. c #ECAF81",
"m. c #EEB384",
"M. c #ECB589",
"N. c #EEBA8E",
"B. c #F1BB8E",
"V. c #EDBB91",
"C. c #F2BF92",
"Z. c #F3C296",
"A. c #F3C69C",
"S. c #F6CA9F",
"D. c #D7C6B7",
"F. c #F6CEA6",
"G. c #F3CEAC",
"H. c #F6D2AF",
"J. c #F7D6B3",
"K. c #F7D8B7",
"L. c #E5C5A8",
"P. c #80ADCC",
"I. c #B4BAC5",
"U. c #AABDCE",
"Y. c #B7C2CF",
"T. c #D1C9CA",
"R. c #CEC4C5",
"E. c #F8DFC3",
"W. c #F9E1C7",
"Q. c #F9E6CF",
"!. c #EBE0DD",
"~. c #D5DEE6",
"^. c #D5E5EF",
"/. c #D5E6F1",
"(. c white",
"). c None",
/* pixels */
").).).).).).).).).).).).).).).).).).).).).).).).).).).).).).).).).).).).).).).).).).).).).).).).).).).).).).).).).).).).",
").).).).).).).).).).).).).).).).).).).).).).).).).).).).).).).).).).).).).).).).).).).).).).).).).).).).).).).).).).).).",
").).).).).).).).).).).).).).).).).).).).).).).).).).).).).).).).).).).).).).).).).).).).).).).).).).).).).).).).).).).).",
").).).).).).).).).).).).).).).).).).).).).).).).).).E ] { { { +.] E ).).).).).).).).).).).).).).).).).).).).).).).).).).",
").).).).).).).).).).).).).).).).).).).).).).).E ]  .=.<.<.<.<.<.<.=. .[ E ).).).).).).).).).).).).).).).).).).).).).).).",
").).).).).).).).).).).).).).).).).).).).).).W ( | n.H.F.F.F.F.F.F.F.n.| ( W ).).).).).).).).).).).).).).).).).).).).).).",
").).).).).).).).).).).).).).).).).).).).).T [ :.M.G.W.W.W.W.W.W.W.W.G.M.:.[ T ).).).).).).).).).).).).).).).).).).).).).",
").).).).).).).).).).).).).).).).).).).).).( =.B.J.E.Q.Q.Q.Q.Q.Q.Q.Q.E.H.B.=.( ).).).).).).).).).).).).).).).).).).).).).",
").).).).).).).).).).).).).).).).).).).).).+.<.F.E.Q.Q.Q.Q.Q.Q.Q.Q.Q.Q.W.F.4.+.).).).).).).).).).).).).).).).).).).).).).",
").).).).).).).).).).).).).).).).).).).).Q %.n.F.E.Q.Q.Q.Q.Q.Q.Q.Q.Q.Q.W.F.n.%.Q ).).).).).).).).).).).).).).).).).).).).",
").).).).).).).).).).).).).).).).).).).( [ 7.B.F.K.E.Q.Q.Q.Q.Q.Q.Q.Q.E.J.F.C.7.` ).).).).).).).).).).).).).).).).).).).).",
").).).).).).).).).).).).).).).).).).).+.#.V.S.S.F.J.E.E.E.Q.E.E.W.W.J.S.S.S.V.#.).).).).).).).).).).).).).).).).).).).).",
").).).).).).).).).).).).).).).).).).).+.#.V.F.S.S.F.F.F.G.F.F.F.F.F.F.S.S.S.V.#.).).).).).).).).).).).).).).).).).).).).",
").).).).).).).).).).).).).).).).).).).{ #.V.S.S.S.S.S.S.F.S.S.F.S.S.S.S.S.S.V.#.).).).).).).).).).).).).).).).).).).).).",
").).).).).).).).).).).).).).).).).).).{ #.V.S.S.S.S.S.S.S.S.S.S.S.S.S.S.S.S.V.#.).).).).).).).).).).).).).).).).).).).).",
").).).).).).).).).).).).).).).).).).).{ #.M.S.S.S.S.S.S.S.S.S.S.S.S.S.S.S.S.V.#.).).).).).).).).).).).).).).).).).).).).",
").).).).).).).).).).).).).).).).).).).{ $.V.S.S.S.S.S.S.S.S.S.S.S.S.S.S.S.S.V.#.).).).).).).).).).).).).).).).).).).).).",
").).).).).).).).).).).).).).).).).).).{ *.N.S.S.S.S.S.S.S.S.S.S.S.S.S.S.S.S.V.#.).).).).).).).).).).).).).).).).).).).).",
").).).).).).).).).).).).).).).).).).).{ *.N.S.S.S.S.S.S.S.S.S.S.S.S.S.S.S.S.N.#.).).).).).).).).).).).).).).).).).).).).",
").).).).).).).).).).).).).).).).).).).( ` 7.Z.A.S.S.S.S.S.S.S.S.S.S.S.S.S.C.7.[ ).).).).).).).).).).).).).).).).).).).).",
").).).).).).).).).).).).).).).).).).).q R  .,.v.v.v.b.A.S.S.S.S.S.S.S.S.v.,. .~ w ).).).).).).).).).).).).).).).).).).).",
").).).).).).).).).).).).).).).).).).).> , C V V V V I b.S.S.S.S.S.S.S.b.I C c j x T ).).).).).).).).).).).).).).).).).).",
").).).).).).).).).).).).).).).).).).).~ ~ ) ) A C d h ..X.X.X.X.X.X.X.U G g g d Z | W ).).).).).).).).).).).).).).).).).",
").).).).).).).).).).).).).).).).).).W $.6.6.6.1.U C a d d d d d d d h h M N F G o.:.' W ).).).).).).).).).).).).).).).).",
").).).).).).).).).).).).).).).).).W *.8.Z.Z.Z.N.1.A d m M N N M F M M F F b G x.L.B.:.[ T ).).).).).).).).).).).).).).).",
").).).).).).).).).).).).).).).).T W -.m.S.S.S.Z.5.) d M N F F L P w.P P K g G D.K.Z.6.| T ).).).).).).).).).).).).).).).",
").).).).).).).).).).).).).).).).W ( %.8.Z.Z.Z.B.5.) d M F F L r.u.u.u.e.K g G D.J.Z.6.| T ).).).).).).).).).).).).).).).",
").).).).).).).).).).).).).).).T ( { 2.3.6.6.6.6.5.) d M F L r.e.u.u.u.e.K g V b.F.Z.6.} T ).).).).).).).).).).).).).).).",
").).).).).).).).).).).).).).).T ` %.2.6.m.m.6.2.&.S f N F L e.u.u.u.r.P J g V v.B.8.;.` T ).).).).).).).).).).).).).).).",
").).).).).).).).).).).).).).).T | 2.6.M.S.S.M.2.+.Z g N F L r.e.e.e.P F N G D v.8.;.} ! T ).).).).).).).).).).).).).).).",
").).).).).).).).).).).).).).).T } 6.C.A.S.S.S.M.*.S N N N K L L L L F N g A =.6.&.} Q E ).).).).).).).).).).).).).).).).",
").).).).).).).).).).).).).).).T | 6.Z.S.S.S.S.V.#.A N K N N K N F F M g d D } } ` ! E ).).).).).).).).).).).).).).).).).",
").).).).).).).).).).).).).).).T | 6.Z.S.S.S.A.m.@.A F F F F F F F F g s a x 9 Y T T ).).).).).).).).).).).).).).).).).).",
").).).).).).).).).).).).).).).T | 6.Z.S.S.S.m.>.( D F F F F F F F F g s s : & ).).).).).).).).).).).).).).).).).).).).).",
").).).).).).).).).).).).).).).T | 5.8.m.m.m.>.' D c m F F F F F N m h b f.H   ).).).).).).).).).).).).).).).).).).).).).",
").).).).).).).).).).).).).).).T | ;.;.;.&.-.[ Z H b d m b F F F m d c e.T.... ).).).).).).).).).).).).).).).).).).).).).",
").).).).).).).).).).).).).).).).W W Q Q Q W E _ R.f.a d d d d d d a f.T.O.9 = ).).).).).).).).).).).).).).).).).).).).).",
").).).).).).).).).).).).).).).).).).).).Y 6 8 ^ g.l.h.h.h.h.h.h.h.h.l.g.^ 7 > & ).).).).).).).).).).).).).).).).).).).).",
").).).).).).).).).).).).).).).).).).).).).; 6 T Y g.!.!.!.!.!.!.!.!.g.T R 9 4 * ).).).).).).).).).).).).).).).).).).).).",
").).).).).).).).).).).).).).).).).).).).o , 8 T T W _ _ _ _ _ _ _ _ ^ T R Y 9 & ).).).).).).).).).).).).).).).).).).).).",
").).).).).).).).).).).).).).).).).).).& = 2 8 T T T T T q 8 8 q T T T T T T 9 & ).).).).).).).).).).).).).).).).).).).).",
").).).).).).).).).).).).).).).).).).).- ; 4 8 Y T T T Y 8 3 4 8 T T T T T T 0 & ).).).).).).).).).).).).).).).).).).).).",
").).).).).).).).).).).).).).).).).).).- ; 4 5 7 Y T Y 7 6 4 ; 6 T T T T T T 0 & ).).).).).).).).).).).).).).).).).).).).",
").).).).).).).).).).).).).).).).).).).. X > 4 5 8 8 8 3 , ; ; 4 0 Y T T T q 6 & ).).).).).).).).).).).).).).).).).).).).",
").).).).).).).).).).).).).).).).).).).+ + X > 4 2 2 2 , = + = 1 6 0 Y Y Y 8 2 . ).).).).).).).).).).).).).).).).).).).).",
").).).).).).).).).).).).).).).).).).).$ $ + . * . . . . @ % ; > 3 5 5 6 6 5 , . ).).).).).).).).).).).).).).).).).).).).",
").).).).).).).).).).).).).).).).).).).# # O O O O O O O $ $ + ; 3 3 5 3 3 3 2 . ).).).).).).).).).).).).).).).).).).).).",
").).).).).).).).).).).).).).).).).).).# # r r r r r r r i f @ ; < < < < < < 1 * ).).).).).).).).).).).).).).).).).).).).",
").).).).).).).).).).).).).).).).).).).r r u k k k k k k p.I.d % % % % % % % % $ ).).).).).).).).).).).).).).).).).).).).",
").).).).).).).).).).).).).).).).).).).f.k.j.j.j.j.j.j.j.U.I.i # r l n n n u # r ).).).).).).).).).).).).).).).).).).).).",
").).).).).).).).).).).).).).).).).).).).(.(.(.(.(.(.(.(.).).r i B q.q.i.i.9.f t ).).).).).).).).).).).).).).).).).).).).",
").).).).).).).).).).).).).).).).).).).).).).).).).).).).).).# y.~.^./././.~.I.f ).).).).).).).).).).).).).).).).).).).).",
").).).).).).).).).).).).).).).).).).).).).).).).).).).).).).f.z.s.s.s.s.s.s.P.k.).).).).).).).).).).).).).).).).).).).).",
").).).).).).).).).).).).).).).).).).).).).).).).).).).).).).(.d.0.0.0.0.0.0.q./.).).).).).).).).).).).).).).).).).).).).",
").).).).).).).).).).).).).).).).).).).).).).).).).).).).).).(.a.n n n n n n 9.^.).).).).).).).).).).).).).).).).).).).).",
").).).).).).).).).).).).).).).).).).).).).).).).).).).).).).).t.y y y y y y z Y.).).).).).).).).).).).).).).).).).).).).",
").).).).).).).).).).).).).).).).).).).).).).).).).).).).).).).).r # # # r # # ).).).).).).).).).).).).).).).).).).).).).",
").).).).).).).).).).).).).).).).).).).).).).).).).).).).).).).).).).).).).).).).).).).).).).).).).).).).).).).).).).).).",
").).).).).).).).).).).).).).).).).).).).).).).).).).).).).).).).).).).).).).).).).).).).).).).).).).).).).).).).).).).).",
").).).).).).).).).).).).).).).).).).).).).).).).).).).).).).).).).).).).).).).).).).).).).).).).).).).).).).).).).).).)."
};
