/* XPM */
static char *result[] = {
/* columns rows colors chars-per-pixel */
"45 60 198 2 ",
"   c #1C121C",
".  c #24151E",
"X  c #2D191F",
"o  c #17192A",
"O  c #03193F",
"+  c #341C21",
"@  c #3A1F21",
"#  c #12213B",
"$  c #2C2331",
"%  c #432324",
"&  c #492826",
"*  c #4C2625",
"=  c #5C2D29",
"-  c #552B28",
";  c #442D34",
":  c #5D3A3A",
">  c #5D312A",
",  c #68342D",
"<  c #793E31",
"1  c #763D31",
"2  c #603635",
"3  c #7A4032",
"4  c #042D58",
"5  c #04315C",
"6  c #0B345E",
"7  c #11365F",
"8  c #2A2F4E",
"9  c #292F47",
"0  c #363246",
"q  c #343B5B",
"w  c #343A54",
"e  c #2D3251",
"r  c #02396B",
"t  c #043462",
"y  c #493D4D",
"u  c #643E40",
"i  c #3F475E",
"p  c #114677",
"a  c #164D78",
"s  c #17416B",
"d  c #3C4565",
"f  c #5B464B",
"g  c #4A4153",
"h  c #534B5A",
"j  c #674A4D",
"k  c #784A42",
"l  c #7A5E5A",
"z  c #74585A",
"x  c #684C50",
"c  c #424C6D",
"v  c #4D4E64",
"b  c #534C61",
"n  c #595365",
"m  c #485374",
"M  c #525E7E",
"N  c #4F5167",
"B  c #745A60",
"V  c #6D476D",
"C  c #71636A",
"Z  c #696675",
"A  c #884736",
"S  c #8A4836",
"D  c #844534",
"F  c #924E3A",
"G  c #96533C",
"H  c #9E583E",
"J  c #9A543C",
"K  c #9D5A42",
"L  c #975C4A",
"P  c #8A574C",
"I  c #A45C41",
"U  c #A95F42",
"Y  c #8B6556",
"T  c #986D5A",
"R  c #96654A",
"E  c #A96245",
"W  c #A3644C",
"Q  c #A96549",
"!  c #B36C4B",
"~  c #BF6F4A",
"^  c #B46746",
"/  c #BA714F",
"(  c #A26D5D",
")  c #AA6B54",
"_  c #B5785A",
"`  c #867573",
"'  c #917E79",
"]  c #B57C60",
"[  c #C2744D",
"{  c #C57B55",
"}  c #C97C53",
"|  c #C57B55",
" . c #AB876D",
".. c #B48A6F",
"X. c #BB8D71",
"o. c #BE9479",
"O. c #CE8157",
"+. c #CB825B",
"@. c #C4815E",
"#. c #D28559",
"$. c #C78864",
"%. c #D78E61",
"&. c #DC9465",
"*. c #D6946C",
"=. c #DC976B",
"-. c #C89777",
";. c #DA9C74",
":. c #D89F7A",
">. c #E69C6A",
",. c #E19766",
"<. c #E29E70",
"1. c #DCA179",
"2. c #D7A17C",
"3. c #E9A574",
"4. c #E0A67D",
"5. c #E5A97D",
"6. c #ECAE7F",
"7. c #E6A576",
"8. c #43148D",
"9. c #5A3E85",
"0. c #005691",
"q. c #005F99",
"w. c #19699D",
"e. c #37648D",
"r. c #016CA8",
"t. c #0078B7",
"y. c #5B6787",
"u. c #527B9B",
"i. c #7D7882",
"p. c #657392",
"a. c #66738B",
"s. c #5530E0",
"d. c #827D85",
"f. c #388ABD",
"g. c #5782A5",
"h. c #0286C8",
"j. c #0098DC",
"k. c #0296DA",
"l. c #0A90CF",
"z. c #3999CC",
"x. c #3FAADD",
"c. c #33ADE3",
"v. c #3FB1E5",
"b. c #41A0D2",
"n. c #7FB4D4",
"m. c #978889",
"M. c #AE8198",
"N. c #B68DB9",
"B. c #8AA4BC",
"V. c #A9ABB7",
"C. c #B0A9AF",
"Z. c #CDAB8E",
"A. c #D8AB87",
"S. c #D8AF92",
"D. c #D4B193",
"F. c #E4AE84",
"G. c #E7B187",
"H. c #EDB384",
"J. c #EAB48A",
"K. c #EBB88E",
"L. c #E1B38D",
"P. c #F0BA8C",
"I. c #F0B789",
"U. c #EFBE93",
"Y. c #F2BF92",
"T. c #CAB3A8",
"R. c #D6BDB5",
"E. c #F4C59A",
"W. c #F6CA9F",
"Q. c #F3C195",
"!. c #EDC39C",
"~. c #EFC7A5",
"^. c #F5CDA5",
"/. c #F7CFA8",
"(. c #F7D2AC",
"). c #F7D5B2",
"_. c #F8DBBD",
"`. c #F8D7B6",
"'. c #9CB2C6",
"]. c #ACBECF",
"[. c #B3B7C5",
"{. c #A6D2EA",
"}. c #D5CED5",
"|. c #C7D4DF",
" X c #E5CBC1",
".X c #F8DFC3",
"XX c #E8DAD7",
"oX c #F8E0C5",
"OX c #F9E6CF",
"+X c #FBEAD9",
"@X c #D2D2EE",
"#X c #CCEAF8",
"$X c #CCE6F4",
"%X c #DBECF5",
"&X c #DAF0FA",
"*X c #CCE1EE",
"=X c white",
"-X c None",
/* pixels */
"-X-X-X-X-X-X-X-X-X-X-X-X-X-X-X-X-X-X-X-X-X-X-X-X-X-X-X-X-X-X-X-X-X-X-X-X-X-X-X-X-X-X-X-X-X",
"-X-X-X-X-X-X-X-X-X-X-X-X-X-X-X-X-X-X-X-X-X-X-X-X-X-X-X-X-X-X-X-X-X-X-X-X-X-X-X-X-X-X-X-X-X",
"-X-X-X-X-X-X-X-X-X-X-X-X-X-X-X-X-X-X-X-X-X-X-X-X-X-X-X-X-X-X-X-X-X-X-X-X-X-X-X-X-X-X-X-X-X",
"-X-X-X-X-X-X-X-X-X-X-X-X-X-X-X-X-X-X-XF ^ ~ ~ ~ ~ ~ [ ~ H -X-X-X-X-X-X-X-X-X-X-X-X-X-X-X-X",
"-X-X-X-X-X-X-X-X-X-X-X-X-X-X-X-X-X-XI W / +.+.+.+.| +.+.) W -X-X-X-X-X-X-X-X-X-X-X-X-X-X-X",
"-X-X-X-X-X-X-X-X-X-X-X-X-X-X-X-X-X[ O.*.G.K.K.K.K.K.K.K.J.2.{ U S -X-X-X-X-X-X-X-X-X-X-X-X",
"-X-X-X-X-X-X-X-X-X-X-X-X-X-X-X-X} O.>.H.^.).).).).).).).).~.;.@.Q I -X-X-X-X-X-X-X-X-X-X-X",
"-X-X-X-X-X-X-X-X-X-X-X-X-X-X-X~ } >.H./.oXOXOXOXOXOXOXOXOXoX^.H.,.E S -X-X-X-X-X-X-X-X-X-X",
"-X-X-X-X-X-X-X-X-X-X-X-X-X-X[ #.>.H.^._.oXOXOXOXOXOXOXOXOXOX.X^.H._ U -X-X-X-X-X-X-X-X-X-X",
"-X-X-X-X-X-X-X-X-X-X-X-X-X~ { ,.H.W._.OXOXOXOXOXOXOXOXOXOXOXOX`.E.*.[ -X-X-X-X-X-X-X-X-X-X",
"-X-X-X-X-X-X-X-X-X-X-X-X-X~ { F.E.W._.OXOXOXOXOXOXOXOXOXOXOXOX_.E.7.+.G -X-X-X-X-X-X-X-X-X",
"-X-X-X-X-X-X-X-X-X-X-X-X-X[ { J.W.W.)..XOXOXOXOXOXOXOXOXOXoX.X(.W.I.*.U I -X-X-X-X-X-X-X-X",
"-X-X-X-X-X-X-X-X-X-X-X-X-X~ { J.W.W.W./..XOXOXOXOXOXOXOXOX.X^.^.W.W.G.{ ~ -X-X-X-X-X-X-X-X",
"-X-X-X-X-X-X-X-X-X-X-X-X-X~ { J.W.W.W.^.).).).).).).).).).).^.W.W.W.G.{ [ -X-X-X-X-X-X-X-X",
"-X-X-X-X-X-X-X-X-X-X-X-X-X[ { J.W.W.W.W.W.W.W.W.W.W.W.W.W.W.W.W.W.W.F.{ ~ -X-X-X-X-X-X-X-X",
"-X-X-X-X-X-X-X-X-X-X-X-X-X~ { J.W.W.W.W.W.W.W.W.W.W.W.W.W.W.W.W.W.W.G.{ ~ -X-X-X-X-X-X-X-X",
"-X-X-X-X-X-X-X-X-X-X-X-X-X~ | J.W.W.A... . . .A.E.E.W.W.H.4.4.K.^.W.G.{ [ -X-X-X-X-X-X-X-X",
"-X-X-X-X-X-X-X-X-X-X-X-X-X~ | J.W.W.T - % @ @  .W.W.W.E.*.~ ~ ;.W.^.G.{ ~ -X-X-X-X-X-X-X-X",
"-X-X-X-X-X-X-X-X-X-X-X-X-X~ | J.W.W.T : m.` @ ..W.W.Q.6.5.4.1.;.*.K.F.{ ~ -X-X-X-X-X-X-X-X",
"-X-X-X-X-X-X-X-X-X-X-X-X-X~ | J.W.W.Y f }.C.* $.W.W.P.3.Y.W.W.1.[ 5.4./ ^ -X-X-X-X-X-X-X-X",
"-X-X-X-X-X-X-X-X-X-X-X-X-X~ { J.W.W.P u }.R.< M.W.W.E.Q.E.W.W.1.[ &.%.K G -X-X-X-X-X-X-X-X",
"-X-X-X-X-X-X-X-X-X-X-X-X-X[ } J.L.X.` 9.@X X] F.W.W.W.W.W.W.W.1.[ O.{ G -X-X-X-X-X-X-X-X-X",
"-X-X-X-X-X-X-X-X-X-X-X-X-X[ | J.X., 8.s.@XXXW.W.W.W.W.W.W.W.W.1.~ ~ [ -X-X-X-X-X-X-X-X-X-X",
"-X-X-X-X-X-X-X-X-X-X-X-X-XH Q F.L.X.d.N. X`.W.W.W.W.W.W.P.5.=.+.~ ~ -X-X-X-X-X-X-X-X-X-X-X",
"-X-X-X-X-X-X-X-X-X-X-X-X-X-XR 2.Q.W.W.W.W.W.W.W.E.D.Z.Z.-._ Q W W -X-X-X-X-X-X-X-X-X-X-X-X",
"-X-X-X-X-X-X-X-X-X-X-X-X-X-X-X+.=.W.W.W.W.W.W.W.D.C b N h g y g y -X-X-X-X-X-X-X-X-X-X-X-X",
"-X-X-X-X-X-X-X-X-X-X-X-X-X-X-X-X@.-.2.5.6.7.1.M.` g v i.i.i.Z C j y -X-X-X-X-X-X-X-X-X-X-X",
"-X-X-X-X-X-X-X-X-X-X-X-X-X-X-X-X-XA U ~ ~ ~ ~ j 8 8 i.OXOXOX+XK.! f 8 -X-X-X-X-X-X-X-X-X-X",
"-X-X-X-X-X-X-X-X-X-X-X-X-X-X-X-XJ U P j B C z b c  .T.OXOXOXOX~.:.Y : -X-X-X-X-X-X-X-X-X-X",
"-X-X-X-X-X-X-X-X-X-X-X-X-X-X-XJ Q } x e d m m c Z D.(.oXoXoXoX`.!._ J -X-X-X-X-X-X-X-X-X-X",
"-X-X-X-X-X-X-X-X-X-X-X-X-X-XJ @.%.&.l w M y.a.c N D.^././.(.(.^.E.$.^ -X-X-X-X-X-X-X-X-X-X",
"-X-X-X-X-X-X-X-X-X-X-X-X-XS J #.>.&.z i y.p.p.d b -.Q.W.W.W.W.Q.H.&.O.-X-X-X-X-X-X-X-X-X-X",
"-X-X-X-X-X-X-X-X-X-X-X-X-XS K +.>.>.l q y.p.p.c g $.H.W.W.W.W.H.>.>.>.-X-X-X-X-X-X-X-X-X-X",
"-X-X-X-X-X-X-X-X-X-X-X-X-XS J +.>.>.l q y.y.m d g / &.6.6.6.6.H.I.P.5.} -X-X-X-X-X-X-X-X-X",
"-X-X-X-X-X-X-X-X-X-X-X-X-XS K @.,.>.z q M M c d g Q O.&.>.>.3.H.W.W.G.{ ~ -X-X-X-X-X-X-X-X",
"-X-X-X-X-X-X-X-X-X-X-X-X-XS G ^ #.>.l e c m c d n Q ~ } &.3.P.E.W.W.G.{ ~ -X-X-X-X-X-X-X-X",
"-X-X-X-X-X-X-X-X-X-X-X-X-X-XF I W R f 8 q d c c n L ~ O.7.J.E.W.W.W.J.{ ~ -X-X-X-X-X-X-X-X",
"-X-X-X-X-X-X-X-X-X-X-X-X-X-X-XS 2 . $ 8 8 q m c b k ! >.P.W.W.W.W.W.F.| ~ -X-X-X-X-X-X-X-X",
"-X-X-X-X-X-X-X-X-X-X-X-X-X-X-X-X&   Z V.V.[.[.[.C.P ! >.P.W.W.W.W.I.*.E H -X-X-X-X-X-X-X-X",
"-X-X-X-X-X-X-X-X-X-X-X-X-X-X-X-X-X  m.XXXXXXXXXXR.W ! ,.H.Y.Y.U.J.=.| G -X-X-X-X-X-X-X-X-X",
"-X-X-X-X-X-X-X-X-X-X-X-X-X-X-X-X-X+ k T ( ( ( ( ( ^ ~ } &.3.3.=.| Q H -X-X-X-X-X-X-X-X-X-X",
"-X-X-X-X-X-X-X-X-X-X-X-X-X-X-X-X% = 1 A S S S S F I U E / | | / E G -X-X-X-X-X-X-X-X-X-X-X",
"-X-X-X-X-X-X-X-X-X-X-X-X-X-X-X  * A S S S S S S A A S S A S S S S -X-X-X-X-X-X-X-X-X-X-X-X",
"-X-X-X-X-X-X-X-X-X-X-X-X-X-X. @ = S S S S S S < , > * & & ; w q g V.-X-X-X-X-X-X-X-X-X-X-X",
"-X-X-X-X-X-X-X-X-X-X-X-X-X  . * , S S S S A D 2 ; $ $ o o # t r p ].=X-X-X-X-X-X-X-X-X-X-X",
"-X-X-X-X-X-X-X-X-X-X-X-X-X  . * , A S S S 3 , w 7 7 6 5 6 t r r p ].=X-X-X-X-X-X-X-X-X-X-X",
"-X-X-X-X-X-X-X-X-X-X-X-X-X  . % = < < < < 2 $ a q.q.q.q.q.w.g.e.p ].=X-X-X-X-X-X-X-X-X-X-X",
"-X-X-X-X-X-X-X-X-X-X-X-X-X  . + % = = = = 0 r t.j.j.j.j.j.v.&XB.p ].=X-X-X-X-X-X-X-X-X-X-X",
"-X-X-X-X-X-X-X-X-X-X-X-X-X-X-X. X + @ + 9 s 0.t.j.j.j.j.j.v.&X|.'.|.-X-X-X-X-X-X-X-X-X-X-X",
"-X-X-X-X-X-X-X-X-X-X-X-X-X-X-X    . o # r 0.t.l.j.j.j.j.k.x.&X=X=X-X-X-X-X-X-X-X-X-X-X-X-X",
"-X-X-X-X-X-X-X-X-X-X-X-X-X-X-X-X-X-X4 r 0.t.l.k.j.j.j.k.h.z.$X=X-X-X-X-X-X-X-X-X-X-X-X-X-X",
"-X-X-X-X-X-X-X-X-X-X-X-X-X-X-X-X-X-X4 r r.h.j.j.j.j.j.k.z.'.%X-X-X-X-X-X-X-X-X-X-X-X-X-X-X",
"-X-X-X-X-X-X-X-X-X-X-X-X-X-X-X-X-X-XO 4 t.j.j.j.j.j.j.k.{.=X-X-X-X-X-X-X-X-X-X-X-X-X-X-X-X",
"-X-X-X-X-X-X-X-X-X-X-X-X-X-X-X-X-X-XO 5 t.j.j.j.j.j.l.h.{.=X-X-X-X-X-X-X-X-X-X-X-X-X-X-X-X",
"-X-X-X-X-X-X-X-X-X-X-X-X-X-X-X-X-X-X-X5 r.l.c.c.c.c.z.f.{.=X-X-X-X-X-X-X-X-X-X-X-X-X-X-X-X",
"-X-X-X-X-X-X-X-X-X-X-X-X-X-X-X-X-X-X-X-X5 u.#X#X#X#X#X*X-X-X-X-X-X-X-X-X-X-X-X-X-X-X-X-X-X",
"-X-X-X-X-X-X-X-X-X-X-X-X-X-X-X-X-X-X-X-X-Xa.=X=X=X=X=X=X-X-X-X-X-X-X-X-X-X-X-X-X-X-X-X-X-X",
"-X-X-X-X-X-X-X-X-X-X-X-X-X-X-X-X-X-X-X-X-X-X-X-X-X-X-X-X-X-X-X-X-X-X-X-X-X-X-X-X-X-X-X-X-X",
"-X-X-X-X-X-X-X-X-X-X-X-X-X-X-X-X-X-X-X-X-X-X-X-X-X-X-X-X-X-X-X-X-X-X-X-X-X-X-X-X-X-X-X-X-X",
"-X-X-X-X-X-X-X-X-X-X-X-X-X-X-X-X-X-X-X-X-X-X-X-X-X-X-X-X-X-X-X-X-X-X-X-X-X-X-X-X-X-X-X-X-X"
};
