/* XPM */
static char *result[] = {
/* columns rows colors chars-per-pixel */
"72 60 186 2 ",
"   c #040505",
".  c #03040A",
"X  c #06090B",
"o  c #0C0D0D",
"O  c #100F0E",
"+  c #12100E",
"@  c #050C12",
"#  c #0B0E12",
"$  c #110F10",
"%  c #0D1115",
"&  c #0C131B",
"*  c #131414",
"=  c #191715",
"-  c #1B1915",
";  c #131519",
":  c #16191D",
">  c #1B1C1D",
",  c #171817",
"<  c #221D16",
"1  c #211E1B",
"2  c #272116",
"3  c #2A2217",
"4  c #24221C",
"5  c #2C261C",
"6  c #2E291E",
"7  c #342B1D",
"8  c #382D1E",
"9  c #3C311F",
"0  c #171C21",
"q  c #1B1D21",
"w  c #201F24",
"e  c #1F2126",
"r  c #1F262C",
"t  c #192631",
"y  c #242424",
"u  c #292623",
"i  c #2C2A26",
"p  c #24252B",
"a  c #26282C",
"s  c #2B2C2B",
"d  c #262826",
"f  c #342D21",
"g  c #332F2A",
"h  c #3D3322",
"j  c #33322D",
"k  c #3B352D",
"l  c #373021",
"z  c #2B2C34",
"x  c #2E2E39",
"c  c #302F36",
"v  c #2E3034",
"b  c #22313A",
"n  c #2F3139",
"m  c #343433",
"M  c #3C3733",
"N  c #3B3B35",
"B  c #32323C",
"V  c #37393D",
"C  c #3E3D3A",
"Z  c #38373F",
"A  c #453925",
"S  c #483A24",
"D  c #4A3E2B",
"F  c #423624",
"G  c #423B34",
"H  c #493F38",
"J  c #453F38",
"K  c #3D403A",
"L  c #4F4129",
"P  c #52452E",
"I  c #434135",
"U  c #43423D",
"Y  c #4D443A",
"T  c #49483E",
"R  c #4B4032",
"E  c #544B3B",
"W  c #554835",
"Q  c #5C503C",
"!  c #62543E",
"~  c #363541",
"^  c #383742",
"/  c #3B3A44",
"(  c #3F3E4A",
")  c #403F4B",
"_  c #403F44",
"`  c #3E4044",
"'  c #374A56",
"]  c #2D4D61",
"[  c #434342",
"{  c #4C4B44",
"}  c #44424E",
"|  c #4A4A4E",
" . c #534F4A",
".. c #514B44",
"X. c #55544B",
"o. c #5B594F",
"O. c #5B5447",
"+. c #444250",
"@. c #484753",
"#. c #4C4B54",
"$. c #4E4D58",
"%. c #514F5A",
"&. c #5E5C53",
"*. c #54535B",
"=. c #59595D",
"-. c #565557",
";. c #645A48",
":. c #615F54",
">. c #625F59",
",. c #636255",
"<. c #65635A",
"1. c #6A665A",
"2. c #6C6A5D",
"3. c #706D5E",
"4. c #425C6D",
"5. c #595762",
"6. c #5D5D64",
"7. c #575560",
"8. c #605D69",
"9. c #616167",
"0. c #64646B",
"q. c #67686D",
"w. c #69696C",
"e. c #68636D",
"r. c #726E66",
"t. c #747164",
"y. c #77736B",
"u. c #7A766B",
"i. c #7D7A6C",
"p. c #7B7867",
"a. c #6C6C72",
"s. c #706D76",
"d. c #74737A",
"f. c #7A7877",
"g. c #817D6D",
"h. c #837E72",
"j. c #858272",
"k. c #898575",
"l. c #8A8778",
"z. c #8D8A79",
"x. c #8D8A77",
"c. c #928D7C",
"v. c #95917D",
"b. c #7B7B82",
"n. c #6088A2",
"m. c #838285",
"M. c #85848C",
"N. c #88888D",
"B. c #969282",
"V. c #9B9583",
"C. c #9F9B86",
"Z. c #8D8C93",
"A. c #898690",
"S. c #929095",
"D. c #9A999E",
"F. c #97969D",
"G. c #A09C87",
"H. c #A49F8A",
"J. c #A6A28C",
"K. c #AAA58E",
"L. c #ADA98F",
"P. c #ABA591",
"I. c #AEA992",
"U. c #B1AC95",
"Y. c #B6AF98",
"T. c #B6B29B",
"R. c #B9B49C",
"E. c #BEB99F",
"W. c #9F9EA3",
"Q. c #A6A5AA",
"!. c #A2A2A4",
"~. c #BEB9A0",
"^. c #ADADB1",
"/. c #B2AFB3",
"(. c #B7B5BA",
"). c #C2BDA2",
"_. c #C6C1A6",
"`. c #C9C2A7",
"'. c #CAC5AA",
"]. c #CFC9AC",
"[. c #D2CCAE",
"{. c #CDC7B1",
"}. c #D4CEB0",
"|. c #C2C0C6",
" X c #CECCD1",
".X c None",
/* pixels */
".X.X.X.X.X.X.X.X.X.X.X.X.X.X.X.X.X.X.X.X.X.X.X.X.X.X.X.X.X.X.X.X.X.X.X.X.X.X.X.X.X.X.X.X.X.X.X.X.X.X.X.X.X.X.X.X.X.X.X.X.X.X.X.X.X.X.X.X.X.X.X.X",
".X.X.X.X.X.X.X.X.X.X.X.X.X.X.X.X.X.X.X.X.X.X.X.X.X.X.X.X.X.X.X.X.X.X.X.X.X.X.X.X.X.X.X.X.X.X.X.X.X.X.X.X.X.X.X.X.X.X.X.X.X.X.X.X.X.X.X.X.X.X.X.X",
".X.X.X.X.X.X.X.X.X.X.X.X.X.X.X.X$ X .X.X.X.X.X.X.X.X.X.X.X.X@ % p n / } =.d.N.w.d @ .X.X.X.X.X.X.X.X.X.X.X.X.X.X.X.X.X.X.X.X.X.X.X.X.X.X.X.X.X.X",
".X.X.X.X.X.X.X.X.X.X.X.X.X.X.X# 6 X .X.X.X.X.X.X.X.X.X.X# q z ^ ) } +.+.) } @.0.Z.Z.6.0 .X.X.X.X.X.X.X.X.X# .X.X.X.X.X.X.X.X.X.X.X.X.X.X.X.X.X.X",
".X.X.X.X.X.X.X.X.X.X.X.X.X.X.X- f o .X.X.X.X.X.X.X.Xo y B B ^ +.} +.+.+.+.+.} +.} $.b.^.5..X.X.X.X.X.X.X.Xk ; .X.X.X.X.X.X.X.X.X.X.X.X.X.X.X.X.X",
".X.X.X.X.X.X.X.X.X.X.X.X.X.X.X< f f * .X.X.X.X.X.X* z B B ~ ( +.+.} } +.+.+.} } } +.) %.W.Z.q .X.X.X.X.X.XE f .X.X.X.X.X.X.X.X.X.X.X.X.X.X.X.X.X",
".X.X.X.X.X.X.X.X.X.X.X.X.X.X.X- f h P I i # .X.X% B B B B / +.+.} } +.) +.+.+.} +.} +.} +.Z.^.~ .X.X.X.Xi ! < .X.X.X.X.X.X.X.X.X.X.X.X.X.X.X.X.X",
".X.X.X.X.X.X.X.X.X.X.X.X.X.X.X* f h S P Q E M - ; B B B B ( +.+.} +.$.+.+.+.) +.} } } +.+.$.F.A.: .X, u E L - .X.X.X.X.X.X.X.X.X.X.X.X.X.X.X.X.X",
".X.X.X.X.X.X.X.X.X.X.X.X.X.X.X@ < f f h A P ! ;.Y q ~ x ~ +.} ) +.} @.5.) ) ) ) ) ) ~ ) +.) %.D.| - l A S A * .X.X.X.X.X.X.X.X.X.X.X.X.X.X.X.X.X",
".X.X.X.X.X.X.X.X.X.X.X.X.X.X.X.X# - f f f f F S D * x ~ / ) ~ B ) } +.5.$.) $.) $.) ^ ) @.) ) 8.S.4 f 7 7 * .X.X.X.X.X.X.Xp V .X.X.X.X.X.X.X.X.X",
".X.X.X.X.X.X.X.X.X.X.X.X.X.X.X.X.X.XO 1 7 f f f 6 : x B ) ) B ~ ) +.+.+.%.) ) @.) ) ) ) ) @.) ) N.U 3 1 o .X.X.X.X.X.X.X` N./ .X.X.X.X.X.X.X.X.X",
".X.X.X.X.X.X.X.X.X.X.X.X.X.X.X.X.X.X.X.Xo 3 f f O z ~ ~ ) ) ( ) ) } } +.$.$.) ) ^ ) $.) @.) @.$.6.0.X .X.X.X.X.X.X.X% a.(.a./ X .X.X.X.X.X.X.X.X",
".X.X.X.X.X.X.X.X.X.X.X.X.X.X.X.X.X.X.X.X.X. + o > B B B ) +.+.+.@.) ) @.) ) @.) ) ) @.) +.+.) ) @.d..X.X.X.X.X.X.Xq m.|.Z.*./ . .X.X.X.X.X.X.X.X",
".X.X.X.X.X.X.X.X.X.X.X.X.X.X.X.X.X.X.X.X.Xq c x B B B B ) +.) / ) @.@.) ) @.) @.) @.) ) @.) ) ) } 0.p .X.X.X.X.X.Xm. XA.s.| [ . .X.X.X.X.X.X.X.X",
".X.X.X.X.X.X.X.X.X.X.X.X.X.X.X.X.X.X.X.X.Xy B B B B B B / +.} / ) ) @.) @.) ) ) @.) @.) ) ) ) ^ B #.z .X.X.X.X.XB /.S.d.=.| } . .X.X.X.X.X.X.X.X",
".X.X.X.X.X.X.X.X.X.X.X.X.X.X.X.X.X.X.X.X.Xa B B B B B B ^ +.` B z p w w w w x ) ) @.+.~ z z ~ ~ } | p .X.X.X.X.Xw.D.s.8.| | [ . .X.X.X.X.X.X.X.X",
".X.X.X.X.X.X.X.X.X.X.X.X.X.X.X.X.X.X.X.X.Xz B B B B B B B p , 4 N { -.,.<.&.s a } ) B 4 { U s > : B : .X.X.X.X0 W.q.8.*.} / > .X.X.X.X.X.X.X.X.X",
".X.X.X.X.X.X.X.X.X.X.X.X.X.X.X.X.X.X.X.X.Xa B B B B B B z p <.y.h.j.x.z.z.k.y.M p a y t.j.j.i.r.C X .X.X.X.X.X| Q.$.@.B c z # .X.X.X.X.X.X.X.X.X",
".X.X.X.X.X.X.X.X.X.X.X.X.X.X.X.X.X.X.X.X.Xa B B B B B B :  .V.B.l.z.J.R.}.{.).k.[ N i._.'.).E.T.X..X.X.X.X.X0 Q.b.) ~ x x p .X.X.X.X.X.X.X.X.X.X",
".X.X.X.X.X.X.X.X.X.X.X.X.X.X.X.X.X.X.X.X.Xp B B B B B n * u.c.y > > q i o.T.[.`.B.V.`.J.:.C N x....X.X.X.X.X} /.*.) x x z # .X.X.X.X.X.X.X.X.X.X",
".X.X.X.X.X.X.X.X.X.X.X.X.X.X.X.X.X.X.X.X.Xe B B B B B a y c.1.d m m m s q j ).[.[.[.H.= d s d N N .X.X.X.X.X*.N.+.^ z z q .X.X.X.X.X.X.X.X.X.X.X",
".X.X.X.X.X.X.X.X.X.X.X.X.X.X.X.X.X.X.X.X.Xq B B B B B x , c.1.j [ U U U M = L.[.[.[.3.y V K m C C .X.X.X.Xe f.$.) x p a ; .X.X.X.X.X.X.X.X.X.X.X",
".X.X.X.X.X.X.X.X.X.X.X.X.X.X.X.X.X.X.X.X.X; B B n B B B * u.z.d [ K K m > t.[.}.[.[.).j s K m :.X..X.X.X.Xd.N.} / x z q @ .X.X.X.X.X.X.X.X.X.X.X",
".X.X.X.X.X.X.X.X.X.X.X.X.X.X.X.X.X.X.X.X.X# z B n n B B y U T.X.y 4 j r.).[.[.E.1.I.[.].2.1 - C.o..X.X.X0 (.%.} x z a % .X.X.X.X.X.X.X.X.X.X.X.X",
".X.X.X.X.X.X.X.X.X.X.X.X.X.X.X.X.X.X.X.X.X.Xp B z z B B B q s k.'.}.).V.~.}.R.g s 4 g.[._.).'.I.d .X.X.X*.W.+.^ z p q .X.X.X.X.X.X.X.X.X.X.X.X.X",
".X.X.X.X.X.X.X.X.X.X.X.X.X.X.X.X.X.X.X.X.X.X: B B B ~ B B B p y B.[.I.V.R.P.k.> - > N [.L.`.P.i .X.X.X# W.0.` x z z % .X.X.X.X.X.X.X.X.X.X.X.X.X",
".X.X.X.X.X.X.X.X.X.X.X.X.X.X.X.X.X.X.X.X.X.X# z B x z B B B a j u.I.].].E.U.R.3.v.i.C.[.[.E.d .X.X.X.XV ^.+.^ x x q .X.X.X.X.X.X.X.X.X.X.X.X.X.X",
".X.X.X.X.X.X.X.X.X.X.X.X.X.X.X.X.X.X.X.X.X.X.Xq B x a x B B q e <.B.}.P.}.`.).}.~.`.[.E._.j..X.X.X.Xp b.d.} x z p & .X.X.X.X.X.X.X.X.X.X.X.X.X.X",
".X.X.X.X.X.X.X.X.X.X.X.X.X.X.X.X.X.X.X.X.X.X.X@ a B x B B B r 4.U t.).,.[.I.x.}.v.K.].k.z.{ .X.X.X.X#.Q.) / x z ; .X.X.X.X.X.X.X.X.X.X.X.X.X.X.X",
".X.X.X.X.X.X.X.X.X.X.X.X.X.X.X.X.X.X.X.X.X.X.X.X% p B B B z b n.q y J > J m j T j j K 5 g , .X.X.X.Xa.9.) x z z % .X.X.X.X.X.X.X.X.X.X.X.X.X.X.X",
".X.X.X.X.X.X.X.X.X.X.X.X.X.X.X.X.X.X.X.X.X.X.X.X.X% z B B z 0 ' I 2.v.T i.X.T ,.T o.i.U K.K .X.X.XV m.} ( x x p # .X.X.X.X.X.X.X.X.X.X.X.X.X.X.X",
".X.X.X.X.X.X.X.X.X.X.X.X.X.X.X.X.X.X.X.X.X.X.X.X.X.X@ ; z a j X.r.h.T.K.}.v.K.}.V.K.`.C.}.d .X.X.Xa.m.+.~ z z # .X.X.X.X.X.X.X.X.X.X.X.X.X.X.X.X",
".X.X.X.X.X.X.X.X.X.X.X.X.X.X.X.X.X.X.X.X.X.X.X.X.X.X.X  $ X 1 >.y.u.`.}.}.[.}.).Y.H.U.}.v..X.X.Xa W.=.) z z q .X.X.X.X.X.X.X.X.X.X.X.X.X.X.X.X.X",
".X.X.X.X.X.X.X.X.X.X.X.X.X.X.X.X.X.X.X.X.X.X.X.X.X# 2.J   z q y d N X.i.G.Y.).R.K.C.g.{ % .X.X.X=.Z.+.^ x z # .X.X.X.X.X.X.X.X.X.X.X.X.X.X.X.X.X",
".X.X.X.X.X.X.X.X.X.X.X.X.X.X.X.X.X.X.X.X.X.X.X.X.Xm E.E.O w B | b.q./ ` e v j d X .X.X.X.X.X.Xe S.6./ x z q .X.X.X.X.X.X.X.X.X.X.X.X.X.X.X.X.X.X",
".X.X.X.X.X.X.X.X.X.X.X.X.X.X.X.X.X.X.X.X.X.X.X.Xi z.H.c.o w / m A.6.*.-.-.q.*.} 0 .X.X.X.X.X.X/ W.@.~ z z % .X.X.X.X.X.X.X.X.X.X.X.X.X.X.X.X.X.X",
".X.X.X.X.X.X.X.X.X.X.X.X.X.X.X.X.X.X.X.X.X.XC 1.J.&.* * * p ) s 9.6.A.b.| | 9.a.: .X.X.X.X.X.Xf.b./ z x q .X.X.X.X.X.X.X.X.X.X.X.X.X.X.X.X.X.X.X",
".X.X.X.X.X.X.X.X.X.X.X.X.X.X.X.X.X.X.X.X.X% U v.j.. # , X z } p 6.d.A.b.=.V 6.b.v .X.X.X.Xg - | +.~ z x ; .X.X.X.X.X.X.X.X.X.X.X.X.X.X.X.X.X.X.X",
".X.X.X.X.X.X.X.X.X.X.X.X.X.X.X.X.X.X.X.X.X{ c.,.= # s ; y / } p q.b.Z.b.A.| n.B./ .X.X.X% O.L 7 - : p y .X.X.X.X.X.X.X.X.X.X.X.X.X.X.X.X.X.X.X.X",
".X.X.X.X.X.X.X.X.X.X.X.X.X.X.X.X.X.X.X.X.Xo._.{.* ; B B B / } z @.A.Z.b.S.%.m.f.> .X.X.X.X- 7 S A 3 O X .X.X.X.X.X.X.X.X.X.X.X.X.X.X.X.X.X.X.X.X",
".X.X.X.X.X.X.X.X.X.X.X.X.X.X.X.X.X.X.X.X.X{ 2.i .X; B B B / +.( e : $.q.M.e.=.q * q # .X.X.X% o 3 h 7 3 X .X.X.X.X.X.X.X.X.X.X.X.X.X.X.X.X.X.X.X",
".X.X.X.X.X.X.X.X.X.X.X.X.X.X.X.X.X.X.X.X0 t.N > .X: B B B / } } ( / p , ; ; w ^ y d i ; % { o * o o - 1 @ .X.X.X.X.X.X.X.X.X.X.X.X.X.X.X.X.X.X.X",
".X.X.X.X.X.X.X.X.X.X.X.X.X.X.X.X.X.X.X.Xe p.N > .X- V B B ^ ) } } } } } ) ) @.) a ,.j.T.g P.u J.K .X.X.X.X.X.X.X.X.X.X.X.X.X.X.X.X.X.X.X.X.X.X.X",
".X.X.X.X.X.X.X.X.X.X.X.X.X.X.X.X.X.X.X.X> p.y & .XX > p z V } +.| } } } _ B z 1 w * m ~.o s 4 { C .X.X.X.X.X.X.X.X.X.X.X.X.X.X.X.X.X.X.X.X.X.X.X",
".X.X.X.X.X.X.X.X.X.X.X.X.X.X.X.X.X.X.X.Xm x.K t ] = - * * = 1 y y y d d d f k Y ;.> : { o j x.g.> .X.X.X.X.X.X.X.X.X.X.X.X.X.X.X.X.X.X.X.X.X.X.X",
".X.X.X.X.X.X.X.X.X.X.X.X.X.X.X.X.X.X.X.Xd { { y b < 6 3 f 7 F A D D R W W W P A F : .X.X> { C U .X.X.X.X.X.X.X.X.X.X.X.X.X.X.X.X.X.X.X.X.X.X.X.X",
".X.X.X.X.X.X.X.X.X.X.X.X.X.X.X.X.X.X.X.Xi I.].R.>.; + = < < 8 8 8 7 7 7 5 < < < s .X.X.X* g U ; .X.X.X.X.X.X.X.X.X.X.X.X.X.X.X.X.X.X.X.X.X.X.X.X",
".X.X.X.X.X.X.X.X.X.X.X.X.X.X.X.X.X.X.X.X1.'.}.[.<.r 1 i i i 5 u o .XX = 5 g G H O.z .X# 9 * .X.X.X.X.X.X.X.X.X.X.X.X.X.X.X.X.X.X.X.X.X.X.X.X.X.X",
".X.X.X.X.X.X.X.X.X.X.X.X.X.X.X.X.X.X.X& t.R.z.z.I.  i j H R Y  ..X.X.X- g G R Y ..d .X@ % .X.X.X.X.X.X.X.X.X.X.X.X.X.X.X.X.X.X.X.X.X.X.X.X.X.X.X",
".X.X.X.X.X.X.X.X.X.X.X.X.X.X.X.X.X.X.X.Xv i { - U X 1 j G G Y  ..X.X.X% g j Y u o .X.X.X.X.X.X.X.X.X.X.X.X.X.X.X.X.X.X.X.X.X.X.X.X.X.X.X.X.X.X.X",
".X.X.X.X.X.X.X.X.X.X.X.X.X.X.X.X.X.X.X.X.XX X .X.X.X# * 4 - 4 s .X.X.X# * , - ,.:.o .X.X.X.X.X.X.X.X.X.X.X.X.X.X.X.X.X.X.X.X.X.X.X.X.X.X.X.X.X.X",
".X.X.X.X.X.X.X.X.X.X.X.X.X.X.X.X.X.X.X.X.X.X.X.X.X.X.X:.K.i.% .X.X.X.X.X.X.XU _.T v.N .X.X.X.X.X.X.X.X.X.X.X.X.X.X.X.X.X.X.X.X.X.X.X.X.X.X.X.X.X",
".X.X.X.X.X.X.X.X.X.X.X.X.X.X.X.X.X.X.X.X.X.X.X.X.X.X.Xc.1.C m .X.X.X.X.X.X.Xy { i G y .X.X.X.X.X.X.X.X.X.X.X.X.X.X.X.X.X.X.X.X.X.X.X.X.X.X.X.X.X",
".X.X.X.X.X.X.X.X.X.X.X.X.X.X.X.X.X.X.X.X.X.X.X.X.X.X.Xg i ,.1..X.X.X.X.X.X.X.Xg H.p.d .X.X.X.X.X.X.X.X.X.X.X.X.X.X.X.X.X.X.X.X.X.X.X.X.X.X.X.X.X",
".X.X.X.X.X.X.X.X.X.X.X.X.X.X.X.X.X.X.X.X.X.X.X.X.X.X.Xt.U.T q .X.X.X.X.X.X.X.XN _.j.p .X.X.X.X.X.X.X.X.X.X.X.X.X.X.X.X.X.X.X.X.X.X.X.X.X.X.X.X.X",
".X.X.X.X.X.X.X.X.X.X.X.X.X.X.X.X.X.X.X.X.X.X.X.X.X.Xy R.R.3..X.X.X.X.X.X.X.X.XC I.s .X.X.X.X.X.X.X.X.X.X.X.X.X.X.X.X.X.X.X.X.X.X.X.X.X.X.X.X.X.X",
".X.X.X.X.X.X.X.X.X.X.X.X.X.X.X.X.X.X.X.X.X.X.X.X.X: j.c.d .X.X.X.X.X.X.X.X.X.XX.C.0 .X.X.X.X.X.X.X.X.X.X.X.X.X.X.X.X.X.X.X.X.X.X.X.X.X.X.X.X.X.X",
".X.X.X.X.X.X.X.X.X.X.X.X.X.X.X.X.X.X.X.X.X.X.X.Xy p.`.d .X.X.X.X.X.X.X.X.X.X; i.J.> .X.X.X.X.X.X.X.X.X.X.X.X.X.X.X.X.X.X.X.X.X.X.X.X.X.X.X.X.X.X",
".X.X.X.X.X.X.X.X.X.X.X.X.X.X.X.X.X.X.X.X.X.X.X.X{ '.L..X.X.X.X.X.X.X.X.X.X.Xm Y._.K .X.X.X.X.X.X.X.X.X.X.X.X.X.X.X.X.X.X.X.X.X.X.X.X.X.X.X.X.X.X",
".X.X.X.X.X.X.X.X.X.X.X.X.X.X.X.X.X.X.X.X.X.X.X@ U g ,.X .X.X.X.X.X.X.X.X.X.X; m j j ; .X.X.X.X.X.X.X.X.X.X.X.X.X.X.X.X.X.X.X.X.X.X.X.X.X.X.X.X.X"
};
