/* XPM */
static char *result[] = {
/* columns rows colors chars-per-pixel */
"60 60 150 2 ",
"   c #010101",
".  c #0A0502",
"X  c #0E0904",
"o  c #070808",
"O  c #090909",
"+  c #120904",
"@  c #1A0E06",
"#  c #110D0A",
"$  c #190D0B",
"%  c #1C1007",
"&  c #17110C",
"*  c #1C120C",
"=  c #151514",
"-  c #1D1611",
";  c #1D1916",
":  c #1B1B1B",
">  c #2B0A0A",
",  c #23140B",
"<  c #2A160B",
"1  c #2D190C",
"2  c #331C0E",
"3  c #211611",
"4  c #241A14",
"5  c #291E16",
"6  c #231E1B",
"7  c #321E11",
"8  c #391F10",
"9  c #1E201E",
"0  c #36200F",
"q  c #24221F",
"w  c #2D251D",
"e  c #352011",
"r  c #3C2312",
"t  c #38261A",
"y  c #252524",
"u  c #282726",
"i  c #272A27",
"p  c #292B2A",
"a  c #2E302F",
"s  c #2F3231",
"d  c #323533",
"f  c #343836",
"g  c #373C39",
"h  c #393E3C",
"j  c #432514",
"k  c #452914",
"l  c #4B2B16",
"z  c #4F2B18",
"x  c #512E17",
"c  c #522F19",
"v  c #5B2F1F",
"b  c #563416",
"n  c #593517",
"m  c #543119",
"M  c #5B351B",
"N  c #5E381A",
"B  c #613A1C",
"V  c #693B1F",
"C  c #443224",
"Z  c #40352C",
"A  c #503526",
"S  c #543926",
"D  c #563A28",
"F  c #5A3E2B",
"G  c #653421",
"H  c #6A3623",
"J  c #653A20",
"K  c #6C3A23",
"L  c #723B26",
"P  c #783F27",
"I  c #3D413F",
"U  c #6B4223",
"Y  c #60412B",
"T  c #724422",
"R  c #794227",
"E  c #764823",
"W  c #7C4B26",
"Q  c #7A4329",
"!  c #7D4C29",
"~  c #3E4340",
"^  c #414643",
"/  c #444945",
"(  c #464B48",
")  c #494D4A",
"_  c #4D524E",
"`  c #595143",
"'  c #51534E",
"]  c #5C564B",
"[  c #4F5450",
"{  c #515651",
"}  c #555A55",
"|  c #595D56",
" . c #5A5E59",
".. c #5D615B",
"X. c #626056",
"o. c #62665E",
"O. c #65685F",
"+. c #636760",
"@. c #666A63",
"#. c #6A6E65",
"$. c #6B6F68",
"%. c #6D7067",
"&. c #6E726A",
"*. c #72766C",
"=. c #75796E",
"-. c #787A6F",
";. c #767A71",
":. c #7A7D73",
">. c #83452A",
",. c #844D2B",
"<. c #8A4D2A",
"1. c #904D2F",
"2. c #895126",
"3. c #86512B",
"4. c #89542C",
"5. c #91542D",
"6. c #965E2F",
"7. c #955432",
"8. c #995732",
"9. c #955B32",
"0. c #9D5C33",
"q. c #A35E36",
"w. c #99622F",
"e. c #9B6531",
"r. c #A46535",
"t. c #A56B34",
"y. c #A96D35",
"u. c #A76439",
"i. c #AB653A",
"p. c #AE6A3B",
"a. c #B36B3C",
"s. c #BA6F3F",
"d. c #B3723C",
"f. c #B9733F",
"g. c #BC7440",
"h. c #BE7942",
"j. c #C07641",
"k. c #C37C43",
"l. c #7D8176",
"z. c #7E827A",
"x. c #808277",
"c. c #81857B",
"v. c #84897E",
"b. c #828780",
"n. c #858A81",
"m. c #898D84",
"M. c #8C8F88",
"N. c #8C9186",
"B. c #8D9389",
"V. c None",
/* pixels */
"V.V.V.V.V.V.V.V.V.V.V.V.V.V.V.V.V.V.V.V.V.V.V.V.V.V.V.V.V.V.V.V.V.V.V.V.V.V.V.V.V.V.V.V.V.V.V.V.V.V.V.V.V.V.V.V.V.V.V.V.",
"V.V.V.V.V.V.V.V.V.V.V.V.V.V.V.V.V.V.V.V.V.V.V.V.V.V.V.V.V.V.V.V.V.V.V.V.V.V.V.V.V.V.V.V.V.V.V.V.V.V.V.V.V.V.V.V.V.V.V.V.",
"V.V.V.V.V.V.V.V.V.V.V.V.V.V.V.V.V.V.V.V.V.V.V.V.V.} &.&.&.&.&.*.*.&.| V.V.V.V.V.V.V.V.V.V.V.V.V.V.V.V.V.V.V.V.V.V.V.V.V.",
"V.V.V.V.V.V.V.V.V.V.V.V.V.V.V.V.V.V.V.V.V.V.V.V.h b.N.m.m.m.m.b.b.z.;.( V.V.V.V.V.V.V.V.V.V.V.V.V.V.V.V.V.V.V.V.V.V.V.V.",
"V.V.V.V.V.V.V.V.V.V.V.V.V.V.V.V.V.V.V.V.V.V.V.V.~ n.:.c.z.:.z.;.#.#.#.^ V.V.V.V.V.V.V.V.V.V.V.V.V.V.V.V.V.V.V.V.V.V.V.V.",
"V.V.V.V.V.V.V.V.V.V.V.V.V.V.V.V.V.V.V.V.V.V.V.V.~ ;.:.:.:.:.z.&.@.&.@.V.V.V.V.V.V.V.V.V.V.V.V.V.V.V.V.V.V.V.V.V.V.V.V.V.",
"V.V.V.V.V.V.V.V.V.V.V.V.V.V.V.V.V.V.V.V.V.V.V.V.V.+.:.-.:.:.c.*.#.@.[ V.V.V.V.V.V.V.V.V.V.V.V.V.V.V.V.V.V.V.V.V.V.V.V.V.",
"V.V.V.V.V.V.V.V.V.V.V.V.V.V.V.V.V.V.V.V.V.V.V.V.V.| ;.;.:.*.z.*.&.&.[ V.V.V.V.V.V.V.V.V.V.V.V.V.V.V.V.V.V.V.V.V.V.V.V.V.",
"V.V.V.V.V.V.V.V.V.V.V.V.V.V.V.V.V.V.V.V.V.V.V.+.} _ %.l.=.;.l.;.;.&.[ &.@.V.V.V.V.V.V.V.V.V.V.V.V.V.V.V.V.V.V.V.V.V.V.V.",
"V.V.V.V.V.V.V.V.V.V.V.V.V.V.V.+.@.V.V.V.^ :.z.z.=.( %.=.#.%.;.;.:.%.[ N.z.z.;.( V.V.V.l.{ V.V.V.V.V.V.V.V.V.V.V.V.V.V.V.",
"V.V.V.V.V.V.V.V.V.V.V.V.V.V.@.v.=.' V.#.m.;.&.%.&./ ..z.;.l.;.:.:.@.#.z.*.#.;.b.| | c.v.N.{ V.V.V.V.V.V.V.V.V.V.V.V.V.V.",
"V.V.V.V.V.V.V.V.V.V.V.V.V.&.l.;.l.#.} b.l.;.z.;.;.{ @.z.l.z.z.:.;.@.*.;.;.&.&.;.} c.m.n.c.*.V.V.V.V.V.V.V.V.V.V.V.V.V.V.",
"V.V.V.V.V.V.V.V.V.V.V.V.+.l.=.;.;.;.&.{ :.z.;.*.&.| } @.*.*.*.&.%.} :.&.;.*.=.....n.v.v.c.l.#.V.V.V.V.V.V.V.V.V.V.V.V.V.",
"V.V.V.V.V.V.V.V.V.V.V.V...;.&.=.;.;.z...+.;.l...Z w w q q : 9 9 : : i / ;.*.-.} v.x.c.c.c.v.#.V.V.V.V.V.V.V.V.V.V.V.V.V.",
"V.V.V.V.V.V.V.V.V.V.V.V.V.| ;.;.=.=.l.;.{ ] C r 0 1 1 X .                 ~ ) =.v.c.x.x.:.#.V.V.V.V.V.V.V.V.V.V.V.V.V.V.",
"V.V.V.V.V.V.V.V.V.V.V.V.V...[ ;.;.=.;.} A N m k r 2 < X .                     ' =.=.c.l...#.( V.V.V.V.V.V.V.V.V.V.V.V.V.",
"V.V.V.V.V.V.V.V.V.V.V.V.{ z.&.@.=.%...S ! Q S l r 1 1 . .                     o g @.*. ...c...V.V.V.V.V.V.V.V.V.V.V.V.V.",
"V.V.V.V.V.V.V.V.V.V.V./ v.l.l.) .._ S 5.9.! N k r 2 1 . .                         f / $.v.c.l.} V.V.V.V.V.V.V.V.V.V.V.V.",
"V.V.V.V.V.V.V.V.V.V.V.%.l.=.l.%.( Y E u.u.3.N k k 2 1 . .                         o h c.l.v.l.&.~ V.V.V.V.V.V.V.V.V.V.V.",
"V.V.V.V.V.V.V.V.V.V.I %.=.=.l.#.F r.9.p.u.4.J z l 2 1 + .                             } l.l.l.=.) V.V.V.V.V.V.V.V.V.V.V.",
"V.V.V.V.V.V.V.V.V.V..._ @.*.l.] 3.h.e.g.u.4.J m l 2 < + .                             y *.-.%.} { V.V.V.V.V.V.V.V.V.V.V.",
"V.V.V.V.V.V.V.V.V.V.c.l.#.@.%.! u.h.y.g.i.3.J c k 2 1 + .                               I ..+.=.#.( V.V.V.V.V.V.V.V.V.V.",
"V.V.V.V.V.V.V.V.V.=.=.=.-.l.} d.p.h.y.g.u.3.B c j 2 < + .                               = @.l.=.*...V.V.V.V.V.V.V.V.V.V.",
"V.V.V.V.V.V.V.V.V.o.=.*.*.%.] h.g.k.d.g.p.! N l j < < X .                                 %.*.*.*.*.V.V.V.V.V.V.V.V.V.V.",
"V.V.V.V.V.V.V.V.V. .;.*.*.%.` h.g.k.t.g.a.! M k j 1 < + .                                 $.&.$.*.*.V.V.V.V.V.V.V.V.V.V.",
"V.V.V.V.V.V.V.V.V.| O.O.O.| k h.p.g.e.g.p.4.N l k 0 5 # +                                 g +.+.O.O.I V.V.V.V.V.V.V.V.V.",
"V.V.V.V.V.V.( #.n.n.n.n.c.} m h.u.g.e.g.a.4.J m k t p ; @                                 a ;.z.=.:.n.B.*._ V.V.V.V.V.V.",
"V.V.V.V.V.V.' &.;.&.#.*.;.[ N g.p.g.y.g.a.,.J m k 5 u q -                                 p ;.:.:.v.:.*.*.( V.V.V.V.V.V.",
"V.V.V.V.V.V. .z.:.=.#.#.=._ N g.g.h.y.g.p.,.V z j - y u 4                                 p z.;.:.b.:.*.*.( V.V.V.V.V.V.",
"V.V.V.V.V.V...z.:.c.n.:.*._ B h.p.j.i.g.u.,.B z r 6 9 = -                               o p b.;.:.c.:.:.*.( V.V.V.V.V.V.",
"V.V.V.V.V.V.| :.l.:.x.l.*._ B h.g.k.y.g.u.W M l r u = = &                               o p B.&.:.u.:.:.*.( V.V.V.V.V.V.",
"V.V.V.V.V.V.{ &.*.=.=.:.=._ B k.g.k.y.s.r.! m k 7 y : = @                               o p B.z.;.b.-.*.@.( V.V.V.V.V.V.",
"V.V.V.V.V.V.[ #.+.+.@.#.*._ N g.j.k.y.a.0.W x k < y q & @                                 p n.*.#.&.#.@. .( V.V.V.V.V.V.",
"V.V.V.V.V.V./ { { { { { { / B g.j.k.r.a.q.2.x j < : = , %                                 p { { { { [ ) ) ~ V.V.V.V.V.V.",
"V.V.V.V.V.V.V.V.~ { ;.z.#.) N g.j.j.6.a.a.2.l j < $ , < %                                 p @.:.c.+.~ V.V.V.V.V.V.V.V.V.",
"V.V.V.V.V.V.V.V.V.&.M.m.l.{ b g.j.k.6.a.i.R x r 7 1 7 3 @                                 p N.:.&.#.I V.V.V.V.V.V.V.V.V.",
"V.V.V.V.V.V.V.V.V.o.v.v.-.' n f.j.k.6.a.a.W z j e r 7 , @                                 p B.;.;.&.h V.V.V.V.V.V.V.V.V.",
"V.V.V.V.V.V.V.V.V...l.x.l.' N f.j.j.6.a.i.W x j r 7 < @ +                                 p m.;.*.*.~ V.V.V.V.V.V.V.V.V.",
"V.V.V.V.V.V.V.V.V...*.x.l.' n f.s.k.t.f.a.<.x k j 2 < + .                                 p c.#.@.#.I V.V.V.V.V.V.V.V.V.",
"V.V.V.V.V.V.V.V.V...*.-.%._ B f.j.k.t.f.a.,.M l j < < + .                                 p :.#...o.I V.V.V.V.V.V.V.V.V.",
"V.V.V.V.V.V.V.V.V...#.@.+.) N f.j.j.6.f.r.>.x k j 1 < + .                                 p &.&...@.I V.V.V.V.V.V.V.V.V.",
"V.V.V.V.V.V.V.V.h ( [ { ^ I n f.f.k.w.s.0.E x j j 2 < . .                                 p [ { { { I V.V.V.V.V.V.V.V.V.",
"V.V.V.V.V.V._ &.z.n.b.z.l.{ n f.s.k.r.i.8.W b j j 1 < X .                                 p ;.z.z.z.*.*.@.) V.V.V.V.V.V.",
"V.V.V.V.V.V.[ z.;.=.l.l.*._ B f.j.f.r.q.5.R x j j 8 < X                                   p n.@.%.%.;.x.*.( V.V.V.V.V.V.",
"V.V.V.V.V.V.} :.-.l.l.-.=._ n g.j.f.6.q.<.V z j j 2 < .                                   p z.+.#.-.m.x.*.( V.V.V.V.V.V.",
"V.V.V.V.V.V...l.l.c.l.%.%._ b f.a.f.w.5.>.L l r 8 1 , .                                   p B.*.*.:.x.:.*.) V.V.V.V.V.V.",
"V.V.V.V.V.V...c.l.l.l.*.&._ n f.0.f.2.1.R T j 8 2 < .                                     p B.x.x.x.:.*.*._ V.V.V.V.V.V.",
"V.V.V.V.V.V.} l.-.l.l.*.%.) N d.5.i.E >.K V j 8 2 .                                       p n.z.-.:.c.*.#.( V.V.V.V.V.V.",
"V.V.V.V.V.V._ *.*.%.#.+...( n i.2.u.T P G B j 2 X                                         p @.*.*.%.*.@.| ~ V.V.V.V.V.V.",
"V.V.V.V.V.V.^ [ { ( ) _ [ ^ n t.<.7.K L G M j .           o X o o O o o o o o o   o o o O p ^ ( ) [ _ ^ g h V.V.V.V.V.V.",
"V.V.V.V.V.V.V.V.V...n.n.z.' n u.>.>.V L G v +   o o o O O O O O O O O o o o o o o o o X O a :.M.M.:.~ V.V.V.V.V.V.V.V.V.",
"V.V.V.V.V.V.V.V.V...&.;.:.' b i.>.R N K G $ o O O O O o O O O O o o O X o o   . o o   o O d N.*.&.%.~ V.V.V.V.V.V.V.V.V.",
"V.V.V.V.V.V.V.V.V...;.;.;.[ b w.P R v v $ O O O O o o o o o o o o   . o   o   o o   o O o d N.=.:.&.~ V.V.V.V.V.V.V.V.V.",
"V.V.V.V.V.V.V.V.V.O.:.*.*.} b 9.L P H - O O O O X o o o   o o o V.V.V.V.V.V.V.V.V.V.V.V.V.f b.*.*.*.~ V.V.V.V.V.V.V.V.V.",
"V.V.V.V.V.V.V.V.V.@.;.*.=._ b 9.L R - O O O O O o o o V.V.V.V.V.V.V.V.V.V.V.V.V.V.V.V.V.V.f :.;.;.z.~ V.V.V.V.V.V.V.V.V.",
"V.V.V.V.V.V.V.V.V.+.*.#.+.) b 9.H 4 O O O O # O O V.V.V.V.V.V.V.V.V.V.V.V.V.V.V.V.V.V.V.V.g &.=.l.z.~ V.V.V.V.V.V.V.V.V.",
"V.V.V.V.V.V.V.V.V.} +.o...) k U 3 O O O # O = V.V.V.V.V.V.V.V.V.V.V.V.V.V.V.V.V.V.V.V.V.V.h #.&.*.*.~ V.V.V.V.V.V.V.V.V.",
"V.V.V.V.V.V.V.V.V.~ ^ ^ I h & & = > $ # # V.V.V.V.V.V.V.V.V.V.V.V.V.V.V.V.V.V.V.V.V.V.V.V.f ~ ^ ( ) ~ V.V.V.V.V.V.V.V.V.",
"V.V.V.V.V.V.V.V.V.V.V.V.V.V.V.V.V.V.V.V.V.V.V.V.V.V.V.V.V.V.V.V.V.V.V.V.V.V.V.V.V.V.V.V.V.V.V.V.V.V.V.V.V.V.V.V.V.V.V.V.",
"V.V.V.V.V.V.V.V.V.V.V.V.V.V.V.V.V.V.V.V.V.V.V.V.V.V.V.V.V.V.V.V.V.V.V.V.V.V.V.V.V.V.V.V.V.V.V.V.V.V.V.V.V.V.V.V.V.V.V.V."
};
