/* XPM */
static char *result[] = {
/* columns rows colors chars-per-pixel */
"46 60 211 2 ",
"   c #2C191F",
".  c #1A1727",
"X  c #081C3E",
"o  c #161F38",
"O  c #371E21",
"+  c #2A1A22",
"@  c #3F2326",
"#  c #27283C",
"$  c #4B2827",
"%  c #552D29",
"&  c #482F38",
"*  c #523431",
"=  c #5D3939",
"-  c #513133",
";  c #65322B",
":  c #6C382E",
">  c #693C35",
",  c #763D31",
"<  c #65453D",
"1  c #7E4133",
"2  c #7B483D",
"3  c #09254B",
"4  c #052A54",
"5  c #1A3457",
"6  c #112D50",
"7  c #2A2F4E",
"8  c #2B304F",
"9  c #3A3142",
"0  c #3C364C",
"q  c #2A3251",
"w  c #323959",
"e  c #023464",
"r  c #00396D",
"t  c #013769",
"y  c #173961",
"u  c #433748",
"i  c #3E415A",
"p  c #014479",
"a  c #18436D",
"s  c #3B4364",
"d  c #27486D",
"f  c #4B414F",
"g  c #494152",
"h  c #47475D",
"j  c #534049",
"k  c #6B4A4A",
"l  c #754B44",
"z  c #634956",
"x  c #795956",
"c  c #72504F",
"v  c #444D6E",
"b  c #53536C",
"n  c #4D5C77",
"m  c #6C5C68",
"M  c #77646A",
"N  c #834434",
"B  c #8A4836",
"V  c #8E4C39",
"C  c #874938",
"Z  c #924E39",
"A  c #96533D",
"S  c #8E513F",
"D  c #A0593F",
"F  c #8F5B4B",
"G  c #975843",
"H  c #9E5A41",
"J  c #955846",
"K  c #A55D42",
"L  c #AA5F42",
"P  c #8C6155",
"I  c #AB6345",
"U  c #AC6748",
"Y  c #B26C4C",
"T  c #BF6F4A",
"R  c #B26545",
"E  c #B7714F",
"W  c #BF724C",
"Q  c #A76B54",
"!  c #BA7553",
"~  c #B3785B",
"^  c #AA715A",
"/  c #977169",
"(  c #806F71",
")  c #847676",
"_  c #8B6B64",
"`  c #B47C65",
"'  c #AC7D71",
"]  c #A87563",
"[  c #C0714C",
"{  c #C37650",
"}  c #C57C55",
"|  c #C87C56",
" . c #958078",
".. c #B78162",
"X. c #A4887A",
"o. c #BF987A",
"O. c #CA8159",
"+. c #D5895D",
"@. c #D18459",
"#. c #CF8A63",
"$. c #C68664",
"%. c #D58D62",
"&. c #DB9264",
"*. c #D3936B",
"=. c #D9986E",
"-. c #C49C7D",
";. c #CB9778",
":. c #DA9B73",
">. c #DB9F79",
",. c #E69D6A",
"<. c #E39967",
"1. c #DDA17A",
"2. c #DEA076",
"3. c #E3A173",
"4. c #E0A57D",
"5. c #ECAD7C",
"6. c #E7A778",
"7. c #E7A06E",
"8. c #5F35AE",
"9. c #004C84",
"0. c #015A94",
"q. c #00538E",
"w. c #2F5C85",
"e. c #04639D",
"r. c #326A94",
"t. c #0069A7",
"y. c #007CBD",
"u. c #0071B3",
"i. c #006FB0",
"p. c #567C9E",
"a. c #466E93",
"s. c #7F6C89",
"d. c #7B61CE",
"f. c #966ABB",
"g. c #2484BC",
"h. c #7A96B0",
"j. c #0086C9",
"k. c #008ED1",
"l. c #0092D6",
"z. c #0096DA",
"x. c #0098DC",
"c. c #0B91D1",
"v. c #1BA1DD",
"b. c #38ABE0",
"n. c #4A97C5",
"m. c #4AABDA",
"M. c #74B0D3",
"N. c #75C7EC",
"B. c #7ECBED",
"V. c #948585",
"C. c #9B9395",
"Z. c #A28D85",
"A. c #AD9390",
"S. c #9DA0AE",
"D. c #8AA4BC",
"F. c #86A1BA",
"G. c #94A0B1",
"H. c #BDB1A9",
"J. c #A5ABBA",
"K. c #BDB3B7",
"L. c #C29F8F",
"P. c #D6A481",
"I. c #D4AA8A",
"U. c #DDAC87",
"Y. c #D0AC93",
"T. c #E3AC83",
"R. c #E9AE80",
"E. c #EEB385",
"W. c #EDB98E",
"Q. c #EAB489",
"!. c #F0BA8C",
"~. c #F0B789",
"^. c #EEBE93",
"/. c #E9BD97",
"(. c #F2BF92",
"). c #DEBAA8",
"_. c #D2B2AB",
"`. c #E2BFA0",
"'. c #EFC299",
"]. c #F3C195",
"[. c #F4C59A",
"{. c #F6CA9F",
"}. c #D7C7B7",
"|. c #F5CBA2",
" X c #F1C5A1",
".X c #F7D2AC",
"XX c #F7D6B4",
"oX c #F8DBBC",
"OX c #F7DABA",
"+X c #82BBDB",
"@X c #94ACC2",
"#X c #A986CC",
"$X c #97C2DC",
"%X c #B7C7D6",
"&X c #82CCED",
"*X c #9ECCE4",
"=X c #A7D1E8",
"-X c #DECDC9",
";X c #F6DDC2",
":X c #EED4C0",
">X c #F9E6CF",
",X c #F8E1C7",
"<X c #F5E3DA",
"1X c #CED9E3",
"2X c #D5E8F3",
"3X c #F0E8E6",
"4X c #ECF0F4",
"5X c white",
"6X c #F4F4F6",
"7X c #E2E8EF",
"8X c None",
/* pixels */
"8X8X8X8X8X8X8X8X8X8X8X8X8X8X8X8X8X8X8X8X8X8X8X8X8X8X8X8X8X8X8X8X8X8X8X8X8X8X8X8X8X8X8X8X8X8X",
"8X8X8X8X8X8X8X8X8X8X8X8X8X8X8X8X8X8X8X8X8X8X8X8X8X8X8X8X8X8X8X8X8X8X8X8X8X8X8X8X8X8X8X8X8X8X",
"8X8X8X8X8X8X8X8X8X8X8X8X8X8X8X8X8X8X8X8X8X8X8X8X8X8X8X8X8X8X8X8X8X8X8X8X8X8X8X8X8X8X8X8X8X8X",
"8X8X8X8X8X8X8X8X8X8X8X8X8X8X8X8X8X8X8X8X8X8X8X8X8X8X8X8X8X8X8X8X8X8X8X8X8X8X8X8X8X8X8X8X8X8X",
"8X8X8X8X8X8X8X8X8X8X8X8X8X8X8X8X8X8X8X8X8X8X8X8X8X8X8X8X8X8X8X8X8X8X8X8X8X8X8X8X8X8X8X8X8X8X",
"8X8X8X8X8X8X8X8X8X8X8X8X8X8X8XB A R T T T T T T T L B 8X8X8X8X8X8X8X8X8X8X8X8X8X8X8X8X8X8X8X",
"8X8X8X8X8X8X8X8X8X8X8X8X8X8X8XQ ~ O.#.#.#.#.#.#.#.! K I 8X8X8X8X8X8X8X8X8X8X8X8X8X8X8X8X8X8X",
"8X8X8X8X8X8X8X8X8X8X8X8XB D [ >.W.^.^.^.].^.^.'.^.5.&.| [ 8X8X8X8X8X8X8X8X8X8X8X8X8X8X8X8X8X",
"8X8X8X8X8X8X8X8X8X8X8XH Y } :./.XXOXXXOXoXXXXXoXXX[.5.&.O.{ 8X8X8X8X8X8X8X8X8X8X8X8X8X8X8X8X",
"8X8X8X8X8X8X8X8X8X8XB K &.E.|.oX>X>X>X>X>X>X>X>X>XoX X5.&.| [ 8X8X8X8X8X8X8X8X8X8X8X8X8X8X8X",
"8X8X8X8X8X8X8X8X8X8XI ! T. XoX,X>X>X>X>X>X>X>X>X>X,XoX[.5.&.@.[ 8X8X8X8X8X8X8X8X8X8X8X8X8X8X",
"8X8X8X8X8X8X8X8X8X8X{ %.^.XX>X>X>X>X>X>X>X>X>X>X>X>X>XXX].5.&.[ 8X8X8X8X8X8X8X8X8X8X8X8X8X8X",
"8X8X8X8X8X8X8X8X8XZ } 3.(.XX>X>X>X>X>X>X>X>X>X>X>X>X>X.X{.].2.[ 8X8X8X8X8X8X8X8X8X8X8X8X8X8X",
"8X8X8X8X8X8X8X8X8XK *.E.[..XoX,X>X>X>X>X>X>X>X>X>X,XoX.X{.{.4.[ 8X8X8X8X8X8X8X8X8X8X8X8X8X8X",
"8X8X8X8X8X8X8X8X8X{ T.{.{.{.|.oX>X>X>X>X>X>X>X>X>XoX|.{.|.{.4.[ 8X8X8X8X8X8X8X8X8X8X8X8X8X8X",
"8X8X8X8X8X8X8X8X8X{ T.{.{.{.{..XXXXXOXOXXXXXXXXXXX.X{.{.{.{.1.[ 8X8X8X8X8X8X8X8X8X8X8X8X8X8X",
"8X8X8X8X8X8X8X8X8X} T.{.{.|.{.{.{.{.{.{.{.{.{.{.{.{.{.{.{.{.1.[ 8X8X8X8X8X8X8X8X8X8X8X8X8X8X",
"8X8X8X8X8X8X8X8X8X[ T.{.{.{.{.{.{.{.{.{.{.{.{.{.{.{.{.{.{.{.1.[ 8X8X8X8X8X8X8X8X8X8X8X8X8X8X",
"8X8X8X8X8X8X8X8X8X{ T.{.{.{.{.W.Q.T.W.{.{.{.[./.-.-.o.-.I.'.T.W 8X8X8X8X8X8X8X8X8X8X8X8X8X8X",
"8X8X8X8X8X8X8X8X8X{ T.{.{.{.[.:.} } =.[.{.{.{.-.< * * > F U.4.[ 8X8X8X8X8X8X8X8X8X8X8X8X8X8X",
"8X8X8X8X8X8X8X8X8X{ T.{.{.W.>.:.=.=.4.E.].{.{.-.* c ) k l I.1.[ 8X8X8X8X8X8X8X8X8X8X8X8X8X8X",
"8X8X8X8X8X8X8X8X8X{ T.{.{.4.[ 4.|.|.!.,.E.{.{.-.* V.6X( < I.4.[ 8X8X8X8X8X8X8X8X8X8X8X8X8X8X",
"8X8X8X8X8X8X8X8X8XK %.E.[.4.[ 4.{.{.].!.].{.{.-.2 A.6X( k I.4.[ 8X8X8X8X8X8X8X8X8X8X8X8X8X8X",
"8X8X8X8X8X8X8X8X8XZ } 3.!.:.[ 4.{.{.|.{.|.{.{.U.Q _.4Xs.z I.4.[ 8X8X8X8X8X8X8X8X8X8X8X8X8X8X",
"8X8X8X8X8X8X8X8X8X8X[ @.7.%.W 1.{.{.{.{.{.{.{.].Q.OX6Xd.8._.>.T 8X8X8X8X8X8X8X8X8X8X8X8X8X8X",
"8X8X8X8X8X8X8X8X8X8X8X} +.@.@.=.4.E.].{.|.{.{.{. XOX<X#Xf.).>.L 8X8X8X8X8X8X8X8X8X8X8X8X8X8X",
"8X8X8X8X8X8X8X8X8X8X8X8X[ @.<.@.O.&.5.[.{.{.{.{.|.|.|. X X|.;.B 8X8X8X8X8X8X8X8X8X8X8X8X8X8X",
"8X8X8X8X8X8X8X8X8X8X8X2 l x x x c x _ ) L.{.{.{.{.{.{.{.^.1.$.8X8X8X8X8X8X8X8X8X8X8X8X8X8X8X",
"8X8X8X8X8X8X8X8X8X8XZ 2 9 7 7 8 q h h h Z.{.'.^.^.^.^.^.T.| [ 8X8X8X8X8X8X8X8X8X8X8X8X8X8X8X",
"8X8X8X8X8X8X8X8X8XB K F 0 7 7 0 h C.H.H.).].:.#.#.#.#.~ Q 8X8X8X8X8X8X8X8X8X8X8X8X8X8X8X8X8X",
"8X8X8X8X8X8X8X8XD U E Q g 7 8 h M }.>X>XoX|.1.$.Q F F G B 8X8X8X8X8X8X8X8X8X8X8X8X8X8X8X8X8X",
"8X8X8X8X8X8XB B Y &.&...g 7 q  .}.OX>X>X>X;X|.A.m h 0 8X8X8X8X8X8X8X8X8X8X8X8X8X8X8X8X8X8X8X",
"8X8X8X8X8X8XB B E ,.,.~ g 8 8 X.|..X;X>X>X,X.X/.V._ c l 8X8X8X8X8X8X8X8X8X8X8X8X8X8X8X8X8X8X",
"8X8X8X8X8X8XB B E ,.,...g 8 w X.{.|.XX,X>X,X.X{.{.2.T K B 8X8X8X8X8X8X8X8X8X8X8X8X8X8X8X8X8X",
"8X8X8X8X8X8XB B E ,.,...g q s X.E.(..X.XXX.X|.{.{.5.+.| { { L B 8X8X8X8X8X8X8X8X8X8X8X8X8X8X",
"8X8X8X8X8X8XB B E ,.,...g w v / ;.T.W.(.[.|.|.{.(.E.6.6.,.#.E H G 8X8X8X8X8X8X8X8X8X8X8X8X8X",
"8X8X8X8X8X8XB B E ,.,...g w v b M ` %.3.~.|.{.(.5.E.(.(.(.!.6.%.U B 8X8X8X8X8X8X8X8X8X8X8X8X",
"8X8X8X8X8X8XB B U O.%...g w s v b M ^ +.3.!.~.E.5.!.{.{.{.|.~.,.Y B 8X8X8X8X8X8X8X8X8X8X8X8X",
"8X8X8X8X8X8X8X8XV A O...f 7 8 s v v m W +.,.,.5.[.{.{.{.{.{.~.,.Y B 8X8X8X8X8X8X8X8X8X8X8X8X",
"8X8X8X8X8X8X8X8X8X8XU ` C.S.S.J.J.J._.).;.! %.5.[.{.{.{.{.{.~.,.Y B 8X8X8X8X8X8X8X8X8X8X8X8X",
"8X8X8X8X8X8X8X8X8X8XN Q -X3X3X3X3X3X3X3XL.Q | 4.(.[.{.{.{.{.~.<.U B 8X8X8X8X8X8X8X8X8X8X8X8X",
"8X8X8X8X8X8X8X8X8X8X% < / ' ' ' ' ' ' ' Y._.` ! 3.~.|.|.{.{.T.| K B 8X8X8X8X8X8X8X8X8X8X8X8X",
"8X8X8X8X8X8X8X8X8X8X@ $ 1 B N B B B B B A._.] H } *.1.P.P.P.$.R F * 8X8X8X8X8X8X8X8X8X8X8X8X",
"8X8X8X8X8X8X8X8X8X8XO $ 1 B B B B B B B J F J N Z G G G G G G A & o X X 8X8X8X8X8X8X8X8X8X8X",
"8X8X8X8X8X8X8X8X8X8X  @ : 1 B B B B B B B B B C B , % : < u j g q 4 4 4 8X8X8X8X8X8X8X8X8X8X",
"8X8X8X8X8X8X8X8X8X8X. + $ : N B B B B B B B C N N % . $ & y r r r r r e 3 3 8X8X8X8X8X8X8X8X",
"8X8X8X8X8X8X8X8X8Xt 4 5 q u : N B B B B B C 1 ; $ # 3 5 5 r r r r r r w.G.J.8X8X8X8X8X8X8X8X",
"8X8X8X8X8X8X8X8Xr.p p 9.9.y & > 1 N N 1 1 : % $ . 3 r r r r r r r r r p.4X5X8X8X8X8X8X8X8X8X",
"8X8X8X8X8X8X5X5XM.t.u.j.j.e.5 u ; ; : : $ O   . 4 e t r r r r r r r r p.4X5X8X8X8X8X8X8X8X8X",
"8X8X8X8X8X8X5X5X+Xy.k.z.z.y.0.d 9 9 # u # o o X t r r r r r r r r r a.@X4X5X8X8X8X8X8X8X8X8X",
"8X8X8X8X8X8X5X5X&Xz.z.x.x.z.l.0.t r r t r e 3 3 t r r r r r r r r w.%X6X8X8X8X8X8X8X8X8X8X8X",
"8X8X8X8X8X8X5X5X&Xx.x.z.x.x.x.y.t.t.e.0.q.9.t d h.D.D.D.D.D.D.D.@X@X1X8X8X8X8X8X8X8X8X8X8X8X",
"8X8X8X8X8X8X5X5X&Xk.z.z.x.x.x.x.x.z.k.u.i.t.p a.7X5X5X5X5X5X5X5X5X5X8X8X8X8X8X8X8X8X8X8X8X8X",
"8X8X8X8X8X8X5X5XN.y.k.z.x.x.x.x.x.z.l.k.k.y.r y 8X8X8X8X8X8X8X8X8X8X8X8X8X8X8X8X8X8X8X8X8X8X",
"8X8X8X8X8X8X5X5X$Xn.m.b.c.l.x.x.x.x.x.x.x.c.r.n 8X8X8X8X8X8X8X8X8X8X8X8X8X8X8X8X8X8X8X8X8X8X",
"8X8X8X8X8X8X8X8X4X2X4X=Xg.y.x.x.x.x.x.x.x.v.*X7X8X8X8X8X8X8X8X8X8X8X8X8X8X8X8X8X8X8X8X8X8X8X",
"8X8X8X8X8X8X8X8X8X5X5X1X+XM.N.N.N.N.N.N.N.B.2X8X8X8X8X8X8X8X8X8X8X8X8X8X8X8X8X8X8X8X8X8X8X8X",
"8X8X8X8X8X8X8X8X8X8X8X8X5X5X5X5X5X5X5X5X5X5X8X8X8X8X8X8X8X8X8X8X8X8X8X8X8X8X8X8X8X8X8X8X8X8X",
"8X8X8X8X8X8X8X8X8X8X8X8X5X5X5X5X5X5X5X5X5X5X8X8X8X8X8X8X8X8X8X8X8X8X8X8X8X8X8X8X8X8X8X8X8X8X",
"8X8X8X8X8X8X8X8X8X8X8X8X8X8X8X8X8X8X8X8X8X8X8X8X8X8X8X8X8X8X8X8X8X8X8X8X8X8X8X8X8X8X8X8X8X8X"
};
