/* XPM */
static char *result[] = {
/* columns rows colors chars-per-pixel */
"45 60 198 2 ",
"   c #1D131C",
".  c #22151D",
"X  c #301B20",
"o  c #391F21",
"O  c #282638",
"+  c #382933",
"@  c #422525",
"#  c #472828",
"$  c #552A27",
"%  c #5A2D29",
"&  c #5E322B",
"*  c #553A3C",
"=  c #4B3536",
"-  c #63322B",
";  c #6C392F",
":  c #6C362D",
">  c #743D32",
",  c #793D31",
"<  c #673931",
"1  c #67413C",
"2  c #7D4233",
"3  c #73463C",
"4  c #0B274A",
"5  c #182C4A",
"6  c #1A3353",
"7  c #022955",
"8  c #262A43",
"9  c #2B314E",
"0  c #27324D",
"q  c #32324D",
"w  c #383042",
"e  c #2C3150",
"r  c #223556",
"t  c #353651",
"y  c #01396C",
"u  c #053362",
"i  c #003D72",
"p  c #473F4A",
"a  c #00457A",
"s  c #004076",
"d  c #1C517E",
"f  c #394262",
"g  c #26476D",
"h  c #504556",
"j  c #79514C",
"k  c #795956",
"l  c #6D5050",
"z  c #444C6C",
"x  c #534E65",
"c  c #595267",
"v  c #4E5978",
"b  c #4B5574",
"n  c #675A61",
"m  c #676274",
"M  c #854535",
"N  c #8A4836",
"B  c #8C4A37",
"V  c #924E39",
"C  c #9A563E",
"Z  c #99553E",
"A  c #A25A3F",
"S  c #865549",
"D  c #9C5B42",
"F  c #905E4F",
"G  c #824F46",
"H  c #A65E43",
"J  c #9C634E",
"K  c #886456",
"L  c #9C6E5B",
"P  c #AB6245",
"I  c #AD694C",
"U  c #B46E4D",
"Y  c #BF6F4A",
"T  c #B26545",
"R  c #BB724E",
"E  c #A36753",
"W  c #BA7757",
"Q  c #AD765C",
"!  c #847575",
"~  c #92756D",
"^  c #A57A66",
"/  c #B57C67",
"(  c #C2744E",
")  c #C77B55",
"_  c #CA7D53",
"`  c #C37B58",
"'  c #B6866A",
"]  c #AF8A70",
"[  c #A98E7E",
"{  c #BA9275",
"}  c #CC865D",
"|  c #C9815B",
" . c #D48A5E",
".. c #D6895C",
"X. c #C38C6D",
"o. c #C68665",
"O. c #D28D65",
"+. c #DA8F61",
"@. c #DB9162",
"#. c #D5936C",
"$. c #DB966B",
"%. c #DA996E",
"&. c #C89776",
"*. c #D89871",
"=. c #D69D78",
"-. c #E69D6B",
";. c #E19665",
":. c #E19F72",
">. c #DDA178",
",. c #DAA079",
"<. c #E9A674",
"1. c #E2A77C",
"2. c #E1A87F",
"3. c #EBAB7B",
"4. c #E6A475",
"5. c #014C83",
"6. c #04548A",
"7. c #005D97",
"8. c #005590",
"9. c #1F5686",
"0. c #0F639C",
"q. c #006DAA",
"w. c #0064A2",
"e. c #006FB0",
"r. c #0074B3",
"t. c #007CBD",
"y. c #0077B9",
"u. c #1F6FA5",
"i. c #487298",
"p. c #78798B",
"a. c #007FC1",
"s. c #5780A3",
"d. c #7A9AB6",
"f. c #75A0BF",
"g. c #008ACC",
"h. c #0085C6",
"j. c #008ED1",
"k. c #0093D6",
"l. c #0096DA",
"z. c #0098DC",
"x. c #189CDA",
"c. c #1F87C1",
"v. c #75AED1",
"b. c #75B5D8",
"n. c #6BA5C8",
"m. c #75C7EC",
"M. c #75C1E6",
"N. c #808394",
"B. c #9A9294",
"V. c #998A87",
"C. c #A99183",
"Z. c #94A2B5",
"A. c #A9A5AF",
"S. c #CCA181",
"D. c #CFA689",
"F. c #D5A784",
"G. c #D4B69C",
"H. c #D6AE8E",
"J. c #E4AD84",
"K. c #EAAF82",
"L. c #E7B187",
"P. c #EEB485",
"I. c #EEB789",
"U. c #EAB58B",
"Y. c #F0BA8C",
"T. c #EBBD94",
"R. c #E6BB95",
"E. c #F1BE91",
"W. c #C5BCBC",
"Q. c #E3BFAF",
"!. c #F3C195",
"~. c #F4C59A",
"^. c #F6CA9F",
"/. c #EFC49B",
"(. c #F6CDA4",
"). c #F1CCAA",
"_. c #F7D1AB",
"`. c #F7D6B3",
"'. c #F7D8B7",
"]. c #F7D8B9",
"[. c #98AFC4",
"{. c #B3BCC9",
"}. c #C0BDC1",
"|. c #B2C4D4",
" X c #B6C2CE",
".X c #B3D6EA",
"XX c #CCCBCF",
"oX c #E9D2C8",
"OX c #F8DEC1",
"+X c #F7DCC0",
"@X c #E1CCC4",
"#X c #F8E0C5",
"$X c #F9E6CF",
"%X c #D8E1E9",
"&X c #E7E4E4",
"*X c white",
"=X c #F7F9FA",
"-X c None",
/* pixels */
"-X-X-X-X-X-X-X-X-X-X-X-X-X-X-X-X-X-X-X-X-X-X-X-X-X-X-X-X-X-X-X-X-X-X-X-X-X-X-X-X-X-X-X-X-X",
"-X-X-X-X-X-X-X-X-X-X-X-X-X-X-X-X-X-X-X-X-X-X-X-X-X-X-X-X-X-X-X-X-X-X-X-X-X-X-X-X-X-X-X-X-X",
"-X-X-X-X-X-X-X-X-X-X-X-X-X-X-X-X-XN V T ( Y ( R Y Y ( P B -X-X-X-X-X-X-X-X-X-X-X-X-X-X-X-X",
"-X-X-X-X-X-X-X-X-X-X-X-X-X-X-XA R o.#.=.>.:.=.>.>.>.=.O.W R -X-X-X-X-X-X-X-X-X-X-X-X-X-X-X",
"-X-X-X-X-X-X-X-X-X-X-X-X-X-XZ P ) L.(.(.(.(.(.(.(.(.(.E.<. .( -X-X-X-X-X-X-X-X-X-X-X-X-X-X",
"-X-X-X-X-X-X-X-X-X-X-X-XN P ` %.L.).OXOXOXOXOXOXOXOX+X_.Y.<..._ ( -X-X-X-X-X-X-X-X-X-X-X-X",
"-X-X-X-X-X-X-X-X-X-X-X-XZ U -.T.`.OX$X$X$X$X$X$X$X$X$XOX`.E.<.+._ -X-X-X-X-X-X-X-X-X-X-X-X",
"-X-X-X-X-X-X-X-X-X-X-X-XT o.T._.#X$X$X$X$X$X$X$X$X$X$X$X#X_.E.4...( -X-X-X-X-X-X-X-X-X-X-X",
"-X-X-X-X-X-X-X-X-X-X-XC ) $.!.`.$X$X$X$X$X$X$X$X$X$X$X$X$X].~.Y.4.) Y -X-X-X-X-X-X-X-X-X-X",
"-X-X-X-X-X-X-X-X-X-XB C  .3.~.`.$X$X$X$X$X$X$X$X$X$X$X$X$X].^.^.L.) Y -X-X-X-X-X-X-X-X-X-X",
"-X-X-X-X-X-X-X-X-X-XP U =.E.^.(.`.#X$X$X$X$X$X$X$X$X$XOX`.(.^.^.L.) Y -X-X-X-X-X-X-X-X-X-X",
"-X-X-X-X-X-X-X-X-X-X( ) L.^.^.^.(.`.#X#X#X#X#XOXOX$XOX].(.^.^.^.L.) Y -X-X-X-X-X-X-X-X-X-X",
"-X-X-X-X-X-X-X-X-X-XY ) L.^.^.^.^.(.(._.(._._._._._._.(.^.^.^.^.L.) ( -X-X-X-X-X-X-X-X-X-X",
"-X-X-X-X-X-X-X-X-X-X( ) L.^.^.^.(.^.^.^.^.^.^.^.^.^.^.^.^.^.^.^.L.) Y -X-X-X-X-X-X-X-X-X-X",
"-X-X-X-X-X-X-X-X-X-XY ) L.(.^.^.^.^.^.^.(.^.^.^.^.^.^.^.^.^.^.^.L.) Y -X-X-X-X-X-X-X-X-X-X",
"-X-X-X-X-X-X-X-X-X-XY ) L.^.^.^.^.J.*.*.3.~.^.^.^.^.^.F.^ S.^.^.L.) Y -X-X-X-X-X-X-X-X-X-X",
"-X-X-X-X-X-X-X-X-X-X( ) J.^.^.^.E.$.) ) #.E.^.^.^.~.T.' - ' ^.^.L.) ( -X-X-X-X-X-X-X-X-X-X",
"-X-X-X-X-X-X-X-X-X-X( ) L.^.^.J.O.=.J.J.K.3.I.(.^.H.L G 2 ' ^.^.L.) Y -X-X-X-X-X-X-X-X-X-X",
"-X-X-X-X-X-X-X-X-X-XT U 1.E.^.:.( 1.(.^.E.3.Y.^.^.S.3 - B Q ,.R.L.) Y -X-X-X-X-X-X-X-X-X-X",
"-X-X-X-X-X-X-X-X-X-XV C O.K.~.=.( 1.^.^.~.~.^.^.^.S.1 & N 2 j S.J.) ( -X-X-X-X-X-X-X-X-X-X",
"-X-X-X-X-X-X-X-X-X-X-XC _ @.3.$.( 1.^.^.^.^.^./.{ K = # - & 3 &.L.) ( -X-X-X-X-X-X-X-X-X-X",
"-X-X-X-X-X-X-X-X-X-X-X-X( _ ;...( >.^.^.^.^.^.R.K @ # o @ $ 3 &.L.` Y -X-X-X-X-X-X-X-X-X-X",
"-X-X-X-X-X-X-X-X-X-X-X-X-X) _ ..+.O.*.4.I.^.^.~.&.] ] ] ] ] &.R.F.I A -X-X-X-X-X-X-X-X-X-X",
"-X-X-X-X-X-X-X-X-X-X-X-X-X-X( _ @._ ( ;.3.~.^.^.(.(.^.^.^.^.^.!.=.D -X-X-X-X-X-X-X-X-X-X-X",
"-X-X-X-X-X-X-X-X-X-X-X-X-X-X-X_ ) ( ( @.3.~.^.^.^.^.^.^.^.(./.*.` -X-X-X-X-X-X-X-X-X-X-X-X",
"-X-X-X-X-X-X-X-X-X-X-X-X-X-X-X-XS S F L ^ [ C.C.F.>.L.>.>.,.&.| -X-X-X-X-X-X-X-X-X-X-X-X-X",
"-X-X-X-X-X-X-X-X-X-X-X-X-X-X-X-Xq q 9 q t t 0 t F ) R ( ( A V -X-X-X-X-X-X-X-X-X-X-X-X-X-X",
"-X-X-X-X-X-X-X-X-X-X-X-X-X-X-Xh j K ~ V.B.B.V.[ k l k k l j -X-X-X-X-X-X-X-X-X-X-X-X-X-X-X",
"-X-X-X-X-X-X-X-X-X-X-X-X-X-Xq j ( @.K.].$X$X'.R.! f z f 9 -X-X-X-X-X-X-X-X-X-X-X-X-X-X-X-X",
"-X-X-X-X-X-X-X-X-X-X-X-X-X-X> E @.3.~.+X$X$X'.^.D.C.p.b 9 -X-X-X-X-X-X-X-X-X-X-X-X-X-X-X-X",
"-X-X-X-X-X-X-X-X-X-X-X-X-X-XB U -.I.(.].].#X`.^.^.G.N.v e -X-X-X-X-X-X-X-X-X-X-X-X-X-X-X-X",
"-X-X-X-X-X-X-X-X-X-X-X-X-X-XB U -.I.(.(.(.(.(.^.^.G.N.v e -X-X-X-X-X-X-X-X-X-X-X-X-X-X-X-X",
"-X-X-X-X-X-X-X-X-X-X-X-X-X-XN U -.Y.^.^.^.^.^.^.Y.D.N.v e -X-X-X-X-X-X-X-X-X-X-X-X-X-X-X-X",
"-X-X-X-X-X-X-X-X-X-X-X-X-X-XB U -.Y.^.^.^.^.^.^.<.&.p.b e -X-X-X-X-X-X-X-X-X-X-X-X-X-X-X-X",
"-X-X-X-X-X-X-X-X-X-X-X-X-X-XP ) -.<.P.!.^.^.Y.<...Q m z e -X-X-X-X-X-X-X-X-X-X-X-X-X-X-X-X",
"-X-X-X-X-X-X-X-X-X-X-X-X-X-XY  .<.<.3.Y.!.!.3.+.( J c f e 8 -X-X-X-X-X-X-X-X-X-X-X-X-X-X-X",
"-X-X-X-X-X-X-X-X-X-X-X-X-X-XY #.!.!.Y.3.<.<.@.( P G x f 9 O . -X-X-X-X-X-X-X-X-X-X-X-X-X-X",
"-X-X-X-X-X-X-X-X-X-X-X-X-X-X( *.^.^.!.P.3.3.$._ T S x f 0 O . -X-X-X-X-X-X-X-X-X-X-X-X-X-X",
"-X-X-X-X-X-X-X-X-X-X-X-X-X-XY $.^.^.^.^.^.^.P.;.) E c f 0 O o -X-X-X-X-X-X-X-X-X-X-X-X-X-X",
"-X-X-X-X-X-X-X-X-X-X-X-X-XQ.` *.^.^.^.^.^.^.E.L. ./ A.A.A.n o -X-X-X-X-X-X-X-X-X-X-X-X-X-X",
"-X-X-X-X-X-X-X-X-X-X-X-X*XoX` *.!.^.^.^.^.^.^.!.O.X.oX&X&X! o -X-X-X-X-X-X-X-X-X-X-X-X-X-X",
"-X-X-X-X-X-X-X-X-X-X-X-X*X@XE W 3.E.^.^.^.^.(.!.#.W / ~ n = o -X-X-X-X-X-X-X-X-X-X-X-X-X-X",
"-X-X-X-X-X-X-X-X-X-X-X-X*XQ.S D | 1.E.^.^.^.!.I.` H V &   . X -X-X-X-X-X-X-X-X-X-X-X-X-X-X",
"-X-X-X-X-X-X-X-X-X-X-X-X*XW.h < Z | 3.!.^.^.I.-.I V B & .   . -X-X-X-X-X-X-X-X-X-X-X-X-X-X",
"-X-X-X-X-X-X-X-X-X-X-X-X*XW.* & B P W o.X.X.o.U D N N &     -X-X-X-X-X-X-X-X-X-X-X-X-X-X-X",
"-X-X-X-X-X-X-X-X-X-X-X-X*XW.* & M N B N N N M N N N N & . -X-X-X-X-X-X-X-X-X-X-X-X-X-X-X-X",
"-X-X-X-X-X-X-X-X-X-X-X-X*XW.* # : M N N N N N N N M - # -X-X-X-X-X-X-X-X-X-X-X-X-X-X-X-X-X",
"-X-X-X-X-X-X-X-X-X-X-X-X*XW.p + $ > N N N N M M , < + O -X-X-X-X-X-X-X-X-X-X-X-X-X-X-X-X-X",
"-X-X-X-X-X-X-X-X-X-X-X-X*X Xg 8 @ ; N N N N , - % + 6 u y y y -X-X-X-X-X-X-X-X-X-X-X-X-X-X",
"-X-X-X-X-X-X-X-X-X-X-X-X*X|.d 4 X % : , , , * + O 6 6.7.7.7.7.5.-X-X-X-X-X-X-X-X-X-X-X-X-X",
"-X-X-X-X-X-X-X-X-X-X-X-X*X|.9.4 . X @ $ % - w y y 5.a.l.l.k.g.6.y -X-X-X-X-X-X-X-X-X-X-X-X",
"-X-X-X-X-X-X-X-X-X-X-X-X*X{.g 4 4 5 5 0 9 9 d q.q.y.j.z.z.z.x.n.Z.-X-X-X-X-X-X-X-X-X-X-X-X",
"-X-X-X-X-X-X-X-X-X-X-X-X*X{.r 7 y i s a a a q.z.z.z.z.z.z.z.x..X*X-X-X-X-X-X-X-X-X-X-X-X-X",
"-X-X-X-X-X-X-X-X-X-X-X-X-X-X-Xu y 5.w.r.t.t.g.z.z.z.z.z.z.j.c..X*X-X-X-X-X-X-X-X-X-X-X-X-X",
"-X-X-X-X-X-X-X-X-X-X-X-X-X-X-X-Xi.u.w.h.j.z.z.z.z.l.j.g.g.r.u..X*X-X-X-X-X-X-X-X-X-X-X-X-X",
"-X-X-X-X-X-X-X-X-X-X-X-X-X-X-X-X&Xi.a w.t.l.z.z.z.j.y.e.e.8.9.|.*X-X-X-X-X-X-X-X-X-X-X-X-X",
"-X-X-X-X-X-X-X-X-X-X-X-X-X-X-X-X=X[.d.n.b.m.m.m.m.M.b.v.v.f.d.XX-X-X-X-X-X-X-X-X-X-X-X-X-X",
"-X-X-X-X-X-X-X-X-X-X-X-X-X-X-X-X-X*X*X*X*X*X*X*X*X*X*X*X*X*X*X-X-X-X-X-X-X-X-X-X-X-X-X-X-X",
"-X-X-X-X-X-X-X-X-X-X-X-X-X-X-X-X-X-X-X-X-X-X-X-X-X-X-X-X-X-X-X-X-X-X-X-X-X-X-X-X-X-X-X-X-X",
"-X-X-X-X-X-X-X-X-X-X-X-X-X-X-X-X-X-X-X-X-X-X-X-X-X-X-X-X-X-X-X-X-X-X-X-X-X-X-X-X-X-X-X-X-X"
};
