/* XPM */
static char *result[] = {
/* columns rows colors chars-per-pixel */
"45 60 188 2 ",
"   c #1C121C",
".  c #28171E",
"X  c #03193F",
"o  c #0D1A39",
"O  c #181A31",
"+  c #2D1E27",
"@  c #341D22",
"#  c #391F21",
"$  c #3A2D36",
"%  c #4A2726",
"&  c #5A2E29",
"*  c #4A2F37",
"=  c #68352D",
"-  c #793E31",
";  c #773C30",
":  c #5F413A",
">  c #61433C",
",  c #75463B",
"<  c #021F48",
"1  c #022C58",
"2  c #183458",
"3  c #022048",
"4  c #2A2F4E",
"5  c #3A344B",
"6  c #303C55",
"7  c #00396D",
"8  c #013464",
"9  c #123760",
"0  c #483C4D",
"q  c #4D3845",
"w  c #643E40",
"e  c #603F59",
"r  c #3D455B",
"t  c #1E4165",
"y  c #00457B",
"u  c #1E527C",
"i  c #384061",
"p  c #334863",
"a  c #4B434B",
"s  c #594449",
"d  c #49495B",
"f  c #514A59",
"g  c #634C4E",
"h  c #654746",
"j  c #714440",
"k  c #6A5559",
"l  c #795B54",
"z  c #444D6E",
"x  c #534E63",
"c  c #595267",
"v  c #5C5769",
"b  c #4D5776",
"n  c #525A77",
"m  c #625C6B",
"M  c #5D6478",
"N  c #676575",
"B  c #776D7A",
"V  c #834535",
"C  c #8A4836",
"Z  c #9B573F",
"A  c #9D583F",
"S  c #95513B",
"D  c #944F3A",
"F  c #864F43",
"G  c #875548",
"H  c #9A5B48",
"J  c #895C53",
"K  c #AA5F42",
"L  c #A05C42",
"P  c #8D6158",
"I  c #9A6551",
"U  c #A1624B",
"Y  c #AE6A4A",
"T  c #A86246",
"R  c #B36B4A",
"E  c #BF6F4A",
"W  c #B46746",
"Q  c #BF724D",
"!  c #A66852",
"~  c #A36C5C",
"^  c #B06E51",
"/  c #B67555",
"(  c #887879",
")  c #927A71",
"_  c #A27666",
"`  c #C4764F",
"'  c #C27953",
"]  c #CA7C54",
"[  c #C67A54",
"{  c #A98776",
"}  c #CF8156",
"|  c #CA815B",
" . c #C5825E",
".. c #D58A5D",
"X. c #D5885B",
"o. c #CC8A64",
"O. c #C48866",
"+. c #D68F65",
"@. c #DC9364",
"#. c #D4926B",
"$. c #D99469",
"%. c #DA996F",
"&. c #CA9574",
"*. c #DB9D74",
"=. c #D79F79",
"-. c #C9906E",
";. c #E49C6B",
":. c #DEA47C",
">. c #D6A17B",
",. c #E9A573",
"<. c #E0A67D",
"1. c #ECAE7E",
"2. c #E6A677",
"3. c #5C32B0",
"4. c #004C83",
"5. c #04588F",
"6. c #255C82",
"7. c #02629D",
"8. c #08659C",
"9. c #256D94",
"0. c #296488",
"q. c #0169A5",
"w. c #0073B3",
"e. c #007DBC",
"r. c #5B6B83",
"t. c #616884",
"y. c #6A778E",
"u. c #7B7884",
"i. c #85738E",
"p. c #996CBA",
"a. c #8268D1",
"s. c #0080BE",
"d. c #6C829B",
"f. c #7294B2",
"g. c #0083C4",
"h. c #008FD2",
"j. c #0093D6",
"k. c #0098DC",
"l. c #6B9EC1",
"z. c #6AB2D9",
"x. c #6AA2C6",
"c. c #6AC3EB",
"v. c #A79390",
"b. c #8994A5",
"n. c #CEA685",
"m. c #D2A886",
"M. c #D5AB8A",
"N. c #D9AD8A",
"B. c #DFB28D",
"V. c #C8A594",
"C. c #D2B195",
"Z. c #E5AE84",
"A. c #EAAF81",
"S. c #ECB284",
"D. c #E5B48D",
"F. c #EEB689",
"G. c #EBB88E",
"H. c #F0BA8B",
"J. c #EEBC92",
"K. c #E1B591",
"L. c #F2BF92",
"P. c #D0B6AF",
"I. c #D1ADA8",
"U. c #E0B4A5",
"Y. c #F3C194",
"T. c #F3C59A",
"R. c #F6CA9F",
"E. c #EEC39A",
"W. c #D7C2AF",
"Q. c #F5CCA5",
"!. c #F7CFA8",
"~. c #F7D0A9",
"^. c #F7D5B3",
"/. c #F8DBBC",
"(. c #F8D7B6",
"). c #EDD0BA",
"_. c #AF8DCB",
"`. c #CCC0C1",
"'. c #CFD2D9",
"]. c #D5D2D3",
"[. c #D2D5DB",
"{. c #D7D9DF",
"}. c #F8DFC3",
"|. c #F8E0C5",
" X c #F9E6CF",
".X c #FAE8D8",
"XX c #FFFFFF",
"oX c None",
/* pixels */
"oXoXoXoXoXoXoXoXoXoXoXoXoXoXoXoXoXoXoXoXoXoXoXoXoXoXoXoXoXoXoXoXoXoXoXoXoXoXoXoXoXoXoXoXoX",
"oXoXoXoXoXoXoXoXoXoXoXoXoXoXoXoXoXoXoXoXoXoXoXoXoXoXoXoXoXoXoXoXoXoXoXoXoXoXoXoXoXoXoXoXoX",
"oXoXoXoXoXoXoXoXoXoXoXoXoXoXoXoXoXC K E E E E Q E E K C oXoXoXoXoXoXoXoXoXoXoXoXoXoXoXoXoX",
"oXoXoXoXoXoXoXoXoXoXoXoXoXoXD W O.&.=.<.<.<.<.:.<.<.#.' ' oXoXoXoXoXoXoXoXoXoXoXoXoXoXoXoX",
"oXoXoXoXoXoXoXoXoXoXoXoXoXZ T ' *.!.!.!.~.~.~.~.~.~.L.,...[ oXoXoXoXoXoXoXoXoXoXoXoXoXoXoX",
"oXoXoXoXoXoXoXoXoXoXoXoXC Q #.A.Q.|.|.|.|.|.|.|.|.|.^.L.2...` oXoXoXoXoXoXoXoXoXoXoXoXoXoX",
"oXoXoXoXoXoXoXoXoXoXoXoXA o.F.Q./. X X X X X X X X X|.^.L.,...] oXoXoXoXoXoXoXoXoXoXoXoXoX",
"oXoXoXoXoXoXoXoXoXoXoXoXE :.!.|. X X X X X X X X X X X X^.Y.,...E oXoXoXoXoXoXoXoXoXoXoXoX",
"oXoXoXoXoXoXoXoXoXoXoXR X.S.!.|. X X X X X X X X X X X X^.T.H.*.E oXoXoXoXoXoXoXoXoXoXoXoX",
"oXoXoXoXoXoXoXoXoXoXS ^ ,.H.!./. X X X X X X X X X X X|.~.R.R.<.E oXoXoXoXoXoXoXoXoXoXoXoX",
"oXoXoXoXoXoXoXoXoXoXW o.L.T.Q.!.(. X X X X X X X X X/.~.Q.R.R.<.E oXoXoXoXoXoXoXoXoXoXoXoX",
"oXoXoXoXoXoXoXoXoXoX` #.R.R.R.R.~./././././././././.^.R.R.R.R.<.` oXoXoXoXoXoXoXoXoXoXoXoX",
"oXoXoXoXoXoXoXoXoXoXE #.T.R.R.R.R.R.R.R.R.R.R.R.R.R.R.R.R.R.R.<.E oXoXoXoXoXoXoXoXoXoXoXoX",
"oXoXoXoXoXoXoXoXoXoXE #.R.R.R.R.R.R.R.R.R.R.R.R.R.R.R.Q.R.R.T.<.E oXoXoXoXoXoXoXoXoXoXoXoX",
"oXoXoXoXoXoXoXoXoXoXE #.R.R.R.R.T.G.G.J.R.R.R.R.E.N.n.m.m.B.T.<.E oXoXoXoXoXoXoXoXoXoXoXoX",
"oXoXoXoXoXoXoXoXoXoXE #.T.R.R.R.Z.| | +.G.R.R.R.N.l : : , I B.:.E oXoXoXoXoXoXoXoXoXoXoXoX",
"oXoXoXoXoXoXoXoXoXoX` #.T.Q.T.Z.>.#.#.*.S.L.R.R.m.= s ( : , M.:.E oXoXoXoXoXoXoXoXoXoXoXoX",
"oXoXoXoXoXoXoXoXoXoX` $.R.Q.G.| #.R.R.Y.,.1.R.R.n.: ( XX( : M.:.E oXoXoXoXoXoXoXoXoXoXoXoX",
"oXoXoXoXoXoXoXoXoXoXA / 1.H.G.| #.R.R.T.H.L.R.R.N.G v.XX( > M.:.` oXoXoXoXoXoXoXoXoXoXoXoX",
"oXoXoXoXoXoXoXoXoXoXC Y @.A.F.] #.R.R.R.R.R.Q.R.K./ V.XXi.f M.:.E oXoXoXoXoXoXoXoXoXoXoXoX",
"oXoXoXoXoXoXoXoXoXoXoXE ` @.;.] #.R.R.R.R.R.R.R.T.D.).XXa.3.I.:.E oXoXoXoXoXoXoXoXoXoXoXoX",
"oXoXoXoXoXoXoXoXoXoXoXoX` ] X.] +.<.A.H.T.R.R.R.R.Q.^..X_.p.U.*.K oXoXoXoXoXoXoXoXoXoXoXoX",
"oXoXoXoXoXoXoXoXoXoXoXoXoX` ` ;.X.E X.,.Y.R.R.R.R.R.R.R.Q.Q.Q.-.C oXoXoXoXoXoXoXoXoXoXoXoX",
"oXoXoXoXoXoXoXoXoXoXoXoXoXoX` ] ] ` X.,.Y.R.R.R.R.R.R.R.R.L.=.[ oXoXoXoXoXoXoXoXoXoXoXoXoX",
"oXoXoXoXoXoXoXoXoXoXoXoXoXoXoX! U U / -.n.C.C.K.G.G.G.G.D.N.[ oXoXoXoXoXoXoXoXoXoXoXoXoXoX",
"oXoXoXoXoXoXoXoXoXoXoXoXoXoXoX0 0 0 a f f v N _ | ] O.] ^ L oXoXoXoXoXoXoXoXoXoXoXoXoXoXoX",
"oXoXoXoXoXoXoXoXoXoXoXoXoXoX5 q s l B B u.N i k P P J G F oXoXoXoXoXoXoXoXoXoXoXoXoXoXoXoX",
"oXoXoXoXoXoXoXoXoXoXoXoXoX4 5 j ^ ;.Q..X.Xv.4 6 z z i 4 oXoXoXoXoXoXoXoXoXoXoXoXoXoXoXoXoX",
"oXoXoXoXoXoXoXoXoXoXoXoXoX= , H O.S.^. X XW.v.m i n z 4 oXoXoXoXoXoXoXoXoXoXoXoXoXoXoXoXoX",
"oXoXoXoXoXoXoXoXoXoXoXoXoXC D E %.R.(.|.|.^.T.) c t.b 4 oXoXoXoXoXoXoXoXoXoXoXoXoXoXoXoXoX",
"oXoXoXoXoXoXoXoXoXoXoXoXoXC Z | 2.R.Q.!.!.Q.Q.=.{ u.n 4 oXoXoXoXoXoXoXoXoXoXoXoXoXoXoXoXoX",
"oXoXoXoXoXoXoXoXoXoXoXoXoXC Z ..1.R.R.Q.R.R.R.A.-.B z 4 oXoXoXoXoXoXoXoXoXoXoXoXoXoXoXoXoX",
"oXoXoXoXoXoXoXoXoXoXoXoXoXC Z ..1.R.R.R.R.R.R.1.O.m i 4 oXoXoXoXoXoXoXoXoXoXoXoXoXoXoXoXoX",
"oXoXoXoXoXoXoXoXoXoXoXoXoXK R @.,.1.Y.R.R.Y.1.$./ v i 4 oXoXoXoXoXoXoXoXoXoXoXoXoXoXoXoXoX",
"oXoXoXoXoXoXoXoXoXoXoXoXoXQ ] ;.,.,.F.Y.Y.1.;.` I c i 4 oXoXoXoXoXoXoXoXoXoXoXoXoXoXoXoXoX",
"oXoXoXoXoXoXoXoXoXoXoXoXC Q ;.G.Y.Y.1.,.,.@.` K F x i 4 oXoXoXoXoXoXoXoXoXoXoXoXoXoXoXoXoX",
"oXoXoXoXoXoXoXoXoXoXoXoXC / ,.T.R.R.H.1.1.;.} W G c i 4 oXoXoXoXoXoXoXoXoXoXoXoXoXoXoXoXoX",
"oXoXoXoXoXoXoXoXoXoXoXoXC ' ,.Y.R.R.R.R.R.H.;.} ! c 6 4 oXoXoXoXoXoXoXoXoXoXoXoXoXoXoXoXoX",
"oXoXoXoXoXoXoXoXoXoXoXoXC / ,.Y.R.R.R.R.R.H.;.X.! x i 4 oXoXoXoXoXoXoXoXoXoXoXoXoXoXoXoXoX",
"oXoXoXoXoXoXoXoXoXoXoXoXC Q $.H.T.R.R.R.R.F.;.] ! u.t.n x oXoXoXoXoXoXoXoXoXoXoXoXoXoXoXoX",
"oXoXoXoXoXoXoXoXoXoXoXoXoXH Y @.S.R.R.R.R.H.;.R ~ W.{.[.N   oXoXoXoXoXoXoXoXoXoXoXoXoXoXoX",
"oXoXoXoXoXoXoXoXoXoXoXoXoX= , R o.:.<.<.<.#.[ L P V.P.P.k . oXoXoXoXoXoXoXoXoXoXoXoXoXoXoX",
"oXoXoXoXoXoXoXoXoXoXoXoXoX# % , Z E ` ` E T C C C C C C & # oXoXoXoXoXoXoXoXoXoXoXoXoXoXoX",
"oXoXoXoXoXoXoXoXoXoXoXoXXXM 2 5 s C h x d g C C C C C C & @ o oXoXoXoXoXoXoXoXoXoXoXoXoXoX",
"oXoXoXoXoXoXoXoXoXoXoXoXXXf.y 4.t * 9 4.4.i V C C C C C & + o X oXoXoXoXoXoXoXoXoXoXoXoXoX",
"oXoXoXoXoXoXoXoXoXoXoXoXXXx.q.e.8.2 q.g.g.6.= - C C C C & + o < oXoXoXoXoXoXoXoXoXoXoXoXoX",
"oXoXoXoXoXoXoXoXoXoXoXoXXXz.g.h.g.7.g.k.k.9.& - C C , ; % $ M y.oXoXoXoXoXoXoXoXoXoXoXoXoX",
"oXoXoXoXoXoXoXoXoXoXoXoXXXc.k.k.k.k.k.k.k.9.& ; C C ; & @ a ].XXoXoXoXoXoXoXoXoXoXoXoXoXoX",
"oXoXoXoXoXoXoXoXoXoXoXoXXXc.k.k.k.k.k.j.g.6.& & & & % @ O d [.XXoXoXoXoXoXoXoXoXoXoXoXoXoX",
"oXoXoXoXoXoXoXoXoXoXoXoXXXc.k.k.k.k.k.h.w.u * w g g s a r M {.oXoXoXoXoXoXoXoXoXoXoXoXoXoX",
"oXoXoXoXoXoXoXoXoXoXoXoXXXc.k.k.k.k.k.j.w.5.9 b.].].].].'.'.oXoXoXoXoXoXoXoXoXoXoXoXoXoXoX",
"oXoXoXoXoXoXoXoXoXoXoXoXXXc.k.k.k.k.k.j.g.7.7 f.XXXXXXXXXXoXoXoXoXoXoXoXoXoXoXoXoXoXoXoXoX",
"oXoXoXoXoXoXoXoXoXoXoXoXXXc.k.k.k.k.k.k.k.w.7 oXoXoXoXoXoXoXoXoXoXoXoXoXoXoXoXoXoXoXoXoXoX",
"oXoXoXoXoXoXoXoXoXoXoXoXXXz.g.h.k.k.k.k.k.q.1 oXoXoXoXoXoXoXoXoXoXoXoXoXoXoXoXoXoXoXoXoXoX",
"oXoXoXoXoXoXoXoXoXoXoXoXXXl.q.e.g.g.g.g.g.5.X oXoXoXoXoXoXoXoXoXoXoXoXoXoXoXoXoXoXoXoXoXoX",
"oXoXoXoXoXoXoXoXoXoXoXoXXXd.1 y 4.4.4.y 8 1 oXoXoXoXoXoXoXoXoXoXoXoXoXoXoXoXoXoXoXoXoXoXoX",
"oXoXoXoXoXoXoXoXoXoXoXoXXXy.3 8 y 7 7 8 3 oXoXoXoXoXoXoXoXoXoXoXoXoXoXoXoXoXoXoXoXoXoXoXoX",
"oXoXoXoXoXoXoXoXoXoXoXoXoXoXoXoXoXoXoXoXoXoXoXoXoXoXoXoXoXoXoXoXoXoXoXoXoXoXoXoXoXoXoXoXoX",
"oXoXoXoXoXoXoXoXoXoXoXoXoXoXoXoXoXoXoXoXoXoXoXoXoXoXoXoXoXoXoXoXoXoXoXoXoXoXoXoXoXoXoXoXoX",
"oXoXoXoXoXoXoXoXoXoXoXoXoXoXoXoXoXoXoXoXoXoXoXoXoXoXoXoXoXoXoXoXoXoXoXoXoXoXoXoXoXoXoXoXoX"
};
