/* XPM */
static char *result[] = {
/* columns rows colors chars-per-pixel */
"51 60 220 2 ",
"   c #22151E",
".  c #1A1525",
"X  c #0A1836",
"o  c #281B27",
"O  c #361E22",
"+  c #15223E",
"@  c #2A2534",
"#  c #352933",
"$  c #472728",
"%  c #5C2E29",
"&  c #532C29",
"*  c #412C30",
"=  c #5D312A",
"-  c #67342C",
";  c #71392E",
":  c #773E31",
">  c #7C3F31",
",  c #7C4132",
"<  c #5F433D",
"1  c #051B42",
"2  c #06234A",
"3  c #022A55",
"4  c #0E2C50",
"5  c #223D59",
"6  c #2E3753",
"7  c #063866",
"8  c #0D3C66",
"9  c #423B52",
"0  c #21425F",
"q  c #02487B",
"w  c #1B476B",
"e  c #3D4667",
"r  c #2F506F",
"t  c #49445C",
"y  c #5C474F",
"u  c #694945",
"i  c #764B43",
"p  c #795857",
"a  c #695257",
"s  c #424C6E",
"d  c #464A68",
"f  c #4C516E",
"g  c #575369",
"h  c #4A5475",
"j  c #515C7D",
"k  c #5D5E73",
"l  c #454F70",
"z  c #655867",
"x  c #74576B",
"c  c #63667C",
"v  c #72616A",
"b  c #834434",
"n  c #8A4836",
"m  c #8D4C39",
"M  c #864837",
"N  c #904E3A",
"B  c #94513B",
"V  c #9A553E",
"C  c #A0583E",
"Z  c #935542",
"A  c #9C5B43",
"S  c #995C49",
"D  c #875C55",
"F  c #85554B",
"G  c #A25D43",
"H  c #A95F42",
"J  c #9C614C",
"K  c #8B615A",
"L  c #8C6857",
"P  c #9C6555",
"I  c #976759",
"U  c #A66247",
"Y  c #AD694C",
"T  c #A6644A",
"R  c #B16B4B",
"E  c #BE6F4A",
"W  c #B56746",
"Q  c #BD714D",
"!  c #A46954",
"~  c #AB755D",
"^  c #B37254",
"/  c #BB7654",
"(  c #BC7B5A",
")  c #B7795A",
"_  c #8F736C",
"`  c #B77E62",
"'  c #A57566",
"]  c #C37853",
"[  c #C37C57",
"{  c #A9846B",
"}  c #B98467",
"|  c #A98477",
" . c #B98A73",
".. c #BE9378",
"X. c #CC855E",
"o. c #C5835E",
"O. c #CD8A63",
"+. c #C68765",
"@. c #D48E64",
"#. c #D99365",
"$. c #D5946C",
"%. c #DC9669",
"&. c #D89569",
"*. c #CA9675",
"=. c #D99C74",
"-. c #E19C6D",
";. c #E09D70",
":. c #DBA27B",
">. c #E9A674",
",. c #EAA877",
"<. c #E5A97B",
"1. c #EBAB7C",
"2. c #E4A577",
"3. c #E8A16E",
"4. c #673D93",
"5. c #643EB0",
"6. c #045D96",
"7. c #0C588A",
"8. c #2F5A81",
"9. c #06639B",
"0. c #0468A5",
"q. c #0177B7",
"w. c #157EB9",
"e. c #1B74A7",
"r. c #3F7EA6",
"t. c #566383",
"y. c #5E6B8B",
"u. c #5A6685",
"i. c #517C9D",
"p. c #62708F",
"a. c #6C798F",
"s. c #657392",
"d. c #617A95",
"f. c #717992",
"g. c #6A49A8",
"h. c #633CD0",
"j. c #007EC0",
"k. c #85738E",
"l. c #A478AF",
"z. c #AB7E98",
"x. c #856BD3",
"c. c #866CE8",
"v. c #2B88BE",
"b. c #1283BE",
"n. c #6F96B5",
"m. c #7D8298",
"M. c #0184C6",
"N. c #018ACD",
"B. c #0284C7",
"V. c #008FD3",
"C. c #0092D5",
"Z. c #0096DA",
"A. c #0098DC",
"S. c #71AED2",
"D. c #6ABDE5",
"F. c #5096C1",
"G. c #6AC3EB",
"H. c #8C8B97",
"J. c #94868E",
"K. c #BC998C",
"L. c #AD958D",
"P. c #ADA6A6",
"I. c #B3A8B2",
"U. c #8D8FA1",
"Y. c #C79C91",
"T. c #CBA387",
"R. c #D9AA87",
"E. c #D6B397",
"W. c #CEA894",
"Q. c #E3AD84",
"!. c #E6AF86",
"~. c #EDB284",
"^. c #E5B38B",
"/. c #EBB489",
"(. c #EBB98F",
"). c #F1BB8E",
"_. c #ECBD94",
"`. c #E7BC97",
"'. c #F1BE92",
"]. c #C599A8",
"[. c #C5ADA8",
"{. c #CDB3A9",
"}. c #CBBBB6",
"|. c #E6BAA2",
" X c #EEC39B",
".X c #EFC197",
"XX c #F3C296",
"oX c #F3C59A",
"OX c #F6CA9F",
"+X c #DACCBE",
"@X c #F6CCA3",
"#X c #F5CDA9",
"$X c #F7D1AC",
"%X c #F7D6B3",
"&X c #F8DABB",
"*X c #F6D8B9",
"=X c #EDCDB1",
"-X c #A693DE",
";X c #9EBACF",
":X c #ADBCCC",
">X c #A996F0",
",X c #C3B8C8",
"<X c #95C1DC",
"1X c #9BC4DE",
"2X c #BDD2E0",
"3X c #D0D2DB",
"4X c #DFD1DB",
"5X c #D4C9CF",
"6X c #F8DFC3",
"7X c #F4DCC2",
"8X c #E9DBD5",
"9X c #F8E1C7",
"0X c #F9E5CE",
"qX c #F7E8DB",
"wX c #D1E9F5",
"eX c #D0E2ED",
"rX c #EAF3F8",
"tX c #E7ECF1",
"yX c #D1DDE7",
"uX c None",
/* pixels */
"uXuXuXuXuXuXuXuXuXuXuXuXuXuXuXuXuXuXuXuXuXuXuXuXuXuXuXuXuXuXuXuXuXuXuXuXuXuXuXuXuXuXuXuXuXuXuXuXuXuXuX",
"uXuXuXuXuXuXuXuXuXuXuXuXuXuXuXuXuXuXuXuXuXuXuXuXuXuXuXuXuXuXuXuXuXuXuXuXuXuXuXuXuXuXuXuXuXuXuXuXuXuXuX",
"uXuXuXuXuXuXuXuXuXuXuXuXuXuXuXuXuXuXuXuXuXuXuXuXuXuXuXuXuXuXuXuXuXuXuXuXuXuXuXuXuXuXuXuXuXuXuXuXuXuXuX",
"uXuXuXuXuXuXuXuXuXuXuXuXuXuXuXuXuXuXuXuXuXuXuXuXuXuXuXuXuXuXuXuXuXuXuXuXuXuXuXuXuXuXuXuXuXuXuXuXuXuXuX",
"uXuXuXuXuXuXuXuXuXuXuXuXuXuXuXuXuXuXuXN H E ] ] E E W V n uXuXuXuXuXuXuXuXuXuXuXuXuXuXuXuXuXuXuXuXuXuX",
"uXuXuXuXuXuXuXuXuXuXuXuXuXuXuXuXuXuX! ! / X.X.X.X.O.X.^ ! uXuXuXuXuXuXuXuXuXuXuXuXuXuXuXuXuXuXuXuXuXuX",
"uXuXuXuXuXuXuXuXuXuXuXuXuXuXuXuXV W O.=.^.^.^.^.^.^.^.R.=.] H N uXuXuXuXuXuXuXuXuXuXuXuXuXuXuXuXuXuXuX",
"uXuXuXuXuXuXuXuXuXuXuXuXuXuXuXU / O.^.#X%X%X%X%X%X%X%X%X#X=.o.R G uXuXuXuXuXuXuXuXuXuXuXuXuXuXuXuXuXuX",
"uXuXuXuXuXuXuXuXuXuXuXuXuXuXG / ;.^.#X9X9X0X9X9X6X9X9X9X&X_.!.O.R N uXuXuXuXuXuXuXuXuXuXuXuXuXuXuXuXuX",
"uXuXuXuXuXuXuXuXuXuXuXuXuXuX^ $.XX$X9X0X0X0X0X0X0X0XqX0X0X&X@XQ.[ H uXuXuXuXuXuXuXuXuXuXuXuXuXuXuXuXuX",
"uXuXuXuXuXuXuXuXuXuXuXuXuXW X.:.@X6X0X0X0X0X0X0X0X0X0X0X0X9X*X'.$.] uXuXuXuXuXuXuXuXuXuXuXuXuXuXuXuXuX",
"uXuXuXuXuXuXuXuXuXuXuXuXB R %.~.$X6X0X0X0X0X0X0X0X0X0X0X0X0X&X'.<.X.H uXuXuXuXuXuXuXuXuXuXuXuXuXuXuXuX",
"uXuXuXuXuXuXuXuXuXuXuXuXA / 2.).#X&X9X0X0X0X0X0X0X0X0X0X0X6X*XoX~.&.Y V uXuXuXuXuXuXuXuXuXuXuXuXuXuXuX",
"uXuXuXuXuXuXuXuXuXuXuXuX/ @.'.oX@X@X%X9X0X9X0X0X0X0X9X9X6X$X@XOXXX!.[ W uXuXuXuXuXuXuXuXuXuXuXuXuXuXuX",
"uXuXuXuXuXuXuXuXuXuXuXuX] $.'.OXOXOX$X%X&X&X&X&X&X&X&X&X*X@XOXOXOX^.X.E uXuXuXuXuXuXuXuXuXuXuXuXuXuXuX",
"uXuXuXuXuXuXuXuXuXuXuXuX] &.oX@XOXOX@X@X@X@X@X@X@X@X@X@X@XOXOXOXoX^.X.] uXuXuXuXuXuXuXuXuXuXuXuXuXuXuX",
"uXuXuXuXuXuXuXuXuXuXuXuX] $._.OXOXOXOXOXOXOXOXOXOXOXOXOXOXOXOXOXOX^.X.] uXuXuXuXuXuXuXuXuXuXuXuXuXuXuX",
"uXuXuXuXuXuXuXuXuXuXuXuX] $.oXOXOXOXOXOXOX@XOXOXOXOXOXOXOXOXOXOX@X/.X.] uXuXuXuXuXuXuXuXuXuXuXuXuXuXuX",
"uXuXuXuXuXuXuXuXuXuXuXuX] %.oX@XOXOXOXOX@X@XOX@XOX@X@XOXOXOXOXOXOX!.[ ] uXuXuXuXuXuXuXuXuXuXuXuXuXuXuX",
"uXuXuXuXuXuXuXuXuXuXuXuX] $.'.OX(...{ { ' *.(.@XoXR. .{ { { T.oXOX~.X.] uXuXuXuXuXuXuXuXuXuXuXuXuXuXuX",
"uXuXuXuXuXuXuXuXuXuXuXuX] $.'.OXT.D < < u K R.@X|. .p u u < _ .XOX^.[ W uXuXuXuXuXuXuXuXuXuXuXuXuXuXuX",
"uXuXuXuXuXuXuXuXuXuXuXuXT +. X@X:.< a J.g.4.Y.@X|.z.4.s.| y p (.@XQ./ G uXuXuXuXuXuXuXuXuXuXuXuXuXuXuX",
"uXuXuXuXuXuXuXuXuXuXuXuXZ ( (.OX*.i | ,Xx.5.].@X|.l.h.-X+Xp L .XoXR.Y m uXuXuXuXuXuXuXuXuXuXuXuXuXuXuX",
"uXuXuXuXuXuXuXuXuXuXuXuXB ^ 2.).R.L J.3Xc.h.].@X|.l.h.>X+XL ~ .X~.$.G m uXuXuXuXuXuXuXuXuXuXuXuXuXuXuX",
"uXuXuXuXuXuXuXuXuXuXuXuXB R -.~.R.` W.4Xx.5.].OX|.l.5.-X8X .*.(.<.[ H uXuXuXuXuXuXuXuXuXuXuXuXuXuXuXuX",
"uXuXuXuXuXuXuXuXuXuXuXuXuXW [ =. X`.=X8XJ.x T.@X_.| x I.qX X(.^.$.E uXuXuXuXuXuXuXuXuXuXuXuXuXuXuXuXuX",
"uXuXuXuXuXuXuXuXuXuXuXuXuXV R O.Q.~.#X*XK.{ R.@X'.T.' {.6X'.!.=./ G Z uXuXuXuXuXuXuXuXuXuXuXuXuXuXuXuX",
"uXuXuXuXuXuXuXuXuXuXuXuXP ! ! ! ( @.1._..X_.oXOX@X@X`. X'.%.+.^ ! ! ! J uXuXuXuXuXuXuXuXuXuXuXuXuXuXuX",
"uXuXuXuXuXuXuXuXuXuXuX! T.T.Y._ K ( &.1.'.@X@XOXOX@XoX).2.O.~ K L.T.Y. .J uXuXuXuXuXuXuXuXuXuXuXuXuXuX",
"uXuXuXuXuXuXuXuXuXuXT  .=X0X+XH.g K ~ } =.^.^.^.!.^.Q.=.` I D y.P.0X0XE.` U uXuXuXuXuXuXuXuXuXuXuXuXuX",
"uXuXuXuXuXuXuXuXuXS } `.7XqX+XH.f g z v ' [ O.O.O.X.} _ z z g u.P.0X0X=XE.) Z uXuXuXuXuXuXuXuXuXuXuXuX",
"uXuXuXuXuXuXuXuXuXS *.$X9X0X+XH.s s s f x D K K D D p z s s s c P.0X0X*X X` Z uXuXuXuXuXuXuXuXuXuXuXuX",
"uXuXuXuXuXuXuXuXuXT *.$X9X0X+XH.s s s s d g g g g g g h s s s u.P.6X0X&XoX} A uXuXuXuXuXuXuXuXuXuXuXuX",
"uXuXuXuXuXuXuXB U +.Q.@X$X%X XJ.s s t.t.t.t.t.t.u.u.t.u.t.l s t.L.%X%X$XoX=.[ A uXuXuXuXuXuXuXuXuXuXuX",
"uXuXuXuXuXuXuXB Y %.1.oXOXOXE.f.s s t.y.p.p.p.p.p.p.p.p.t.h e k L.@X@X@XXX>.@.A n uXuXuXuXuXuXuXuXuXuX",
"uXuXuXuXuXuXuXV R %.>.1.oXOXE._ 6 e h y.s.s.s.s.s.s.s.s.y.l e g L.oX@X).1.-.@.G n uXuXuXuXuXuXuXuXuXuX",
"uXuXuXuXuXuXZ U o.3.,.1.)..X:._ 9 d t.y.s.s.s.s.s.s.s.s.u.h t y ' '.'.~.1.,.-.^ A uXuXuXuXuXuXuXuXuXuX",
"uXuXuXuXuXm Y @.:.XXXXXX1.>.&.! i t h y.p.s.s.s.s.s.s.p.u.f y F ( >.>.~.XXXX'.3./ V uXuXuXuXuXuXuXuXuX",
"uXuXuXuXuXn ^ =.).XXOXXX1.,.@.Y > t s t.p.p.p.s.s.s.s.u.j e y Z ] -.1.).XXOXoX~.+.V n uXuXuXuXuXuXuXuX",
"uXuXuXuXuXn ` ^.OXOXOXOXOX1.#.R i g l h t.y.y.y.p.y.u.t.l g a Z ] ,.).OXOXOXOXOX*.S n uXuXuXuXuXuXuXuX",
"uXuXuXuXuXM } ^.OXOXOXOXOX1.#.R K J.k.t.h t.t.j h t.t.h t.U.J.S ] >.XXOXOXOXOXOX*.A n uXuXuXuXuXuXuXuX",
"uXuXuXuXuXM ) Q.XXOXOXOXXXXX#.R ' [.I.U.f.f.f.f.f.f.s.f.U.{.Y.G ] >.XXOXOXOXoXXX+.A n uXuXuXuXuXuXuXuX",
"uXuXuXuXuXn ^ %.1.OXOX@XoX/.#.R Z ! K.,X3X3X3X3X3X3X3X3X}.| P A ( >.XXoXOXOXoX~.o.A M uXuXuXuXuXuXuXuX",
"uXuXuXuXuXn U ( &./.).1.1.&.o.A n n ' ].{.{.{.[.[.[.{.{.K.S n B Y X.<.~.)./.1.O.Y V uXuXuXuXuXuXuXuXuX",
"uXuXuXuXuXuXuXU o.%.-.-.-.o.A m n n Z P P P P S p F P P P M n m B Y X.-.-.-.&.Y V uXuXuXuXuXuXuXuXuXuX",
"uXuXuXuXuXuXuXuXC Y R Y Y A m M n n n n Z n n ; - ; b n n n n n n B U R Y R Y V uXuXuXuXuXuXuXuXuXuXuX",
"uXuXuXuXuXuXuXuXuXN M M M , , , b n n n b b b ; - - b b n n n n n n m M M m N uXuXuXuXuXuXuXuXuXuXuXuX",
"uXuXuXuXuXuXuXuXuXuX& & & & & = ; b n n n b ; % $ & - > n n n M n , ; = & = uXuXuXuXuXuXuXuXuXuXuXuXuX",
"uXuXuXuXuXuXuXuXuXuXo o # @ # $ = ; , , , , = $ $ O % : n > , , , - - $ O . uXuXuXuXuXuXuXuXuXuXuXuXuX",
"uXuXuXuXuXuXuXuXuXuX2 4 7 8 4 6 # # * $ & & $ O O O $ - > - & $ * * # @ + X 2 uXuXuXuXuXuXuXuXuXuXuXuX",
"uXuXuXuXuXuXuXuXuXuX3 q 6.9.6.7.r 0 0 0 # $ O O O O O & - * # 5 0 0 0 8 7 3 1 uXuXuXuXuXuXuXuXuXuXuXuX",
"uXuXuXuXuXuXuXuXuX3 7.q.B.C.V.N.M.q.9.7.0 o     uXuX  O O # r 0.0.0.9.0.6.7 2 uXuXuXuXuXuXuXuXuXuXuXuX",
"uXuXuXuXuXuXuXuXuX7 7.N.A.A.A.A.Z.N.q.0.8 4 o uXuXuX. . 4 w 9.j.B.N.B.q.0.7 3 uXuXuXuXuXuXuXuXuXuXuXuX",
"uXuXuXuXuXuXuXuXuXr e.V.A.A.A.A.Z.V.q.0.r r uXuXuXuX. X 3 0.B.Z.Z.A.A.N.q.7 3 uXuXuXuXuXuXuXuXuXuXuXuX",
"uXuXuXuXuXuXuXuXuX;XF.j.Z.A.A.A.V.j.9.7.n.:XuXuXuXuXuXX 7 q.Z.Z.Z.A.A.C.B.q 2 uXuXuXuXuXuXuXuXuXuXuXuX",
"uXuXuXuXuXuXuXuXuXwX<XS.G.G.G.G.D.S.n.n.:XtXuXuXuXuXuXa.i.b.B.B.B.B.B.B.B.r.d.uXuXuXuXuXuXuXuXuXuXuXuX",
"uXuXuXuXuXuXuXuXuXuXwXwXwXwXwXwXwXwXeXyXuXuXuXuXuXuXuX3X;Xv.b.b.w.w.w.w.v.S.2XuXuXuXuXuXuXuXuXuXuXuXuX",
"uXuXuXuXuXuXuXuXuXuXuXuXuXuXuXuXuXuXuXuXuXuXuXuXuXuXuXuXwX1X1X;X<X<X<X<X1X2XuXuXuXuXuXuXuXuXuXuXuXuXuX",
"uXuXuXuXuXuXuXuXuXuXuXuXuXuXuXuXuXuXuXuXuXuXuXuXuXuXuXuXuXrXrXrXrXrXrXrXrXuXuXuXuXuXuXuXuXuXuXuXuXuXuX",
"uXuXuXuXuXuXuXuXuXuXuXuXuXuXuXuXuXuXuXuXuXuXuXuXuXuXuXuXuXuXuXuXuXuXuXuXuXuXuXuXuXuXuXuXuXuXuXuXuXuXuX"
};
