/* XPM */
static char *result[] = {
/* columns rows colors chars-per-pixel */
"51 60 193 2 ",
"   c #1F141D",
".  c #2A191E",
"X  c #22151D",
"o  c #03193F",
"O  c #191B33",
"+  c #341D21",
"@  c #391F21",
"#  c #281D2A",
"$  c #3D2223",
"%  c #35232B",
"&  c #292739",
"*  c #362732",
"=  c #442424",
"-  c #4C2725",
";  c #4C2827",
":  c #5B2D28",
">  c #552B28",
",  c #5F302A",
"<  c #622F2A",
"1  c #67342C",
"2  c #733A2F",
"3  c #6C3D32",
"4  c #733C30",
"5  c #7A3E31",
"6  c #63453C",
"7  c #794539",
"8  c #022E5B",
"9  c #022752",
"0  c #0D2C52",
"q  c #2E3954",
"w  c #063766",
"e  c #383F60",
"r  c #5B336D",
"t  c #1F4160",
"y  c #1F4E6E",
"u  c #03467A",
"i  c #184F7A",
"p  c #19597F",
"a  c #3A4666",
"s  c #294569",
"d  c #574F5E",
"f  c #694D4C",
"g  c #424C6E",
"h  c #535169",
"j  c #5C5367",
"k  c #4A5475",
"l  c #4F5A7B",
"z  c #545C7A",
"x  c #454F71",
"c  c #725568",
"v  c #6F5961",
"b  c #666679",
"n  c #776872",
"m  c #7B6A70",
"M  c #834434",
"N  c #894736",
"B  c #8A4836",
"V  c #8E4C39",
"C  c #924F3A",
"Z  c #9D573E",
"A  c #96533D",
"S  c #9C5A42",
"D  c #9B5E4B",
"F  c #89584E",
"G  c #A55E43",
"H  c #90635A",
"J  c #A1634C",
"K  c #A96548",
"L  c #AD684A",
"P  c #AD6345",
"I  c #B46C4C",
"U  c #B96B48",
"Y  c #B9714F",
"T  c #A56852",
"R  c #A86E57",
"E  c #AD7258",
"W  c #A8735B",
"Q  c #B87655",
"!  c #83557B",
"~  c #987A69",
"^  c #8F6D67",
"/  c #A26E60",
"(  c #A87461",
")  c #B77F62",
"_  c #C1724D",
"`  c #C47B55",
"'  c #AE896F",
"]  c #BC8467",
"[  c #B3887A",
"{  c #BD927B",
"}  c #BF9173",
"|  c #CB825B",
" . c #C7815B",
".. c #D3895E",
"X. c #C88A67",
"o. c #D38D63",
"O. c #D4926B",
"+. c #DB9669",
"@. c #C89473",
"#. c #DB9B71",
"$. c #D19D7B",
"%. c #E39A69",
"&. c #E39967",
"*. c #E29F71",
"=. c #DBA37C",
"-. c #D4A17E",
";. c #EAA877",
":. c #E1A77F",
">. c #E1A87F",
",. c #EBA979",
"<. c #E4A172",
"1. c #E7A16F",
"2. c #005D9A",
"3. c #005993",
"4. c #015087",
"5. c #006BAC",
"6. c #0466A2",
"7. c #0075B7",
"8. c #0871AA",
"9. c #2D7CAD",
"0. c #185F8D",
"q. c #6B5483",
"w. c #556181",
"e. c #5D6A8A",
"r. c #486E90",
"t. c #686C82",
"y. c #626C86",
"u. c #62708F",
"i. c #657392",
"p. c #7146B7",
"a. c #007EC0",
"s. c #7144C4",
"d. c #6746D7",
"f. c #6746E3",
"g. c #1E80BA",
"h. c #6890B1",
"j. c #0086C9",
"k. c #0287C9",
"l. c #008ED2",
"z. c #0098DC",
"x. c #0093D7",
"c. c #64ABD4",
"v. c #60BFE9",
"b. c #918B94",
"n. c #B19894",
"m. c #989CAE",
"M. c #9EA1AF",
"N. c #95A7BB",
"B. c #B9A7A6",
"V. c #CFA98A",
"C. c #D2A684",
"Z. c #DBAD88",
"A. c #D1B196",
"S. c #EEB485",
"D. c #EBB58B",
"F. c #E9B88E",
"G. c #F1BB8D",
"H. c #E6BC95",
"J. c #EBBD94",
"K. c #E4BB9B",
"L. c #F1BE92",
"P. c #E3AD87",
"I. c #D2BAAD",
"U. c #E5B9A3",
"Y. c #F3C296",
"T. c #F4C69A",
"R. c #F6CA9F",
"E. c #D3C6BB",
"W. c #F6CCA4",
"Q. c #F2CEAC",
"!. c #F7D1AC",
"~. c #F7D6B3",
"^. c #F8DABD",
"/. c #8ABAD8",
"(. c #89B8D6",
"). c #94BBD5",
"_. c #B8BCC9",
"`. c #B5D2E5",
"'. c #D0CED1",
"]. c #EBD8CA",
"[. c #F8DEC1",
"{. c #E7D9D5",
"}. c #E3D7D4",
"|. c #F8E0C5",
" X c #F9E6CF",
".X c #D3D6EF",
"XX c #E1DAF8",
"oX c #E1DDE6",
"OX c #F4FAFD",
"+X c white",
"@X c #F4F4F5",
"#X c #CCE1EE",
"$X c None",
/* pixels */
"$X$X$X$X$X$X$X$X$X$X$X$X$X$X$X$X$X$X$X$X$X$X$X$X$X$X$X$X$X$X$X$X$X$X$X$X$X$X$X$X$X$X$X$X$X$X$X$X$X$X$X",
"$X$X$X$X$X$X$X$X$X$X$X$X$X$X$X$X$X$X$X$X$X$X$X$X$X$X$X$X$X$X$X$X$X$X$X$X$X$X$X$X$X$X$X$X$X$X$X$X$X$X$X",
"$X$X$X$X$X$X$X$X$X$X$X$X$X$X$X$X$X$X$X$X$X$X$X$X$X$X$X$X$X$X$X$X$X$X$X$X$X$X$X$X$X$X$X$X$X$X$X$X$X$X$X",
"$X$X$X$X$X$X$X$X$X$X$X$X$X$X$X$X$X$X$X$XV A U _ _ _ _ _ I S C $X$X$X$X$X$X$X$X$X$X$X$X$X$X$X$X$X$X$X$X",
"$X$X$X$X$X$X$X$X$X$X$X$X$X$X$X$X$X$XS U X.$.=.P.:.:.P.P.=.$.X.U Z $X$X$X$X$X$X$X$X$X$X$X$X$X$X$X$X$X$X",
"$X$X$X$X$X$X$X$X$X$X$X$X$X$X$X$X$XS I  .P.!.!.!.!.!.W.!.!.W.P. .I S $X$X$X$X$X$X$X$X$X$X$X$X$X$X$X$X$X",
"$X$X$X$X$X$X$X$X$X$X$X$X$X$X$X$XS ` #.D.Q.[.[.|.[.[.|.|.[.[.!.D.#.` G $X$X$X$X$X$X$X$X$X$X$X$X$X$X$X$X",
"$X$X$X$X$X$X$X$X$X$X$X$X$X$X$XZ L %.L.~.[. X X X X X X X X X[.~.G.#.L Z $X$X$X$X$X$X$X$X$X$X$X$X$X$X$X",
"$X$X$X$X$X$X$X$X$X$X$X$X$X$X$XU ` D.!. X X X X X X X X X X X X X!.F.| Y $X$X$X$X$X$X$X$X$X$X$X$X$X$X$X",
"$X$X$X$X$X$X$X$X$X$X$X$X$X$XC ` +.L.~. X X X X X X X X X X X X X!.J.+._ C $X$X$X$X$X$X$X$X$X$X$X$X$X$X",
"$X$X$X$X$X$X$X$X$X$X$X$X$X$XC  .,.T.~.|. X X X X X X X X X X X|.!.Y.,. .C $X$X$X$X$X$X$X$X$X$X$X$X$X$X",
"$X$X$X$X$X$X$X$X$X$X$X$X$X$XP O.L.T.W.!.[. X X X X X X X X X[.~.W.R.L.#.P $X$X$X$X$X$X$X$X$X$X$X$X$X$X",
"$X$X$X$X$X$X$X$X$X$X$X$X$X$X_ P.W.R.R.R.~.[.[.[.[.[.[.[.[.[.~.T.R.R.R.:._ $X$X$X$X$X$X$X$X$X$X$X$X$X$X",
"$X$X$X$X$X$X$X$X$X$X$X$X$X$X_ :.R.R.R.R.W.W.W.W.W.W.W.W.W.!.W.W.R.R.R.>._ $X$X$X$X$X$X$X$X$X$X$X$X$X$X",
"$X$X$X$X$X$X$X$X$X$X$X$X$X$X_ :.R.R.R.R.R.R.R.R.W.R.R.R.R.R.R.R.R.R.R.:._ $X$X$X$X$X$X$X$X$X$X$X$X$X$X",
"$X$X$X$X$X$X$X$X$X$X$X$X$X$X_ :.R.R.R.R.R.R.R.R.R.R.R.R.R.R.R.R.R.R.R.>._ $X$X$X$X$X$X$X$X$X$X$X$X$X$X",
"$X$X$X$X$X$X$X$X$X$X$X$X$X$X_ :.R.R.R.R.R.R.R.W.R.R.W.W.R.R.R.R.R.R.R.>._ $X$X$X$X$X$X$X$X$X$X$X$X$X$X",
"$X$X$X$X$X$X$X$X$X$X$X$X$X$X_ P.R.R.J.C.V.-.C.Z.R.R.W.Z.C.C.C.V.H.R.R.>._ $X$X$X$X$X$X$X$X$X$X$X$X$X$X",
"$X$X$X$X$X$X$X$X$X$X$X$X$X$X_ :.R.R.{ 6 6 6 f / Y.T.K.( f 6 6 6 { R.R.>._ $X$X$X$X$X$X$X$X$X$X$X$X$X$X",
"$X$X$X$X$X$X$X$X$X$X$X$X$X$XP =.R.W.' = f ! r ! Y.T.K.n r n f $ ' R.R.=.P $X$X$X$X$X$X$X$X$X$X$X$X$X$X",
"$X$X$X$X$X$X$X$X$X$X$X$X$X$XC @.R.R.' $ n..Xd.s.U.R.U.s.d..Xn.@ ' R.R.@.C $X$X$X$X$X$X$X$X$X$X$X$X$X$X",
"$X$X$X$X$X$X$X$X$X$X$X$X$X$XV X.S.T.} 3 B.XXf.s.U.R.U.s.f.XXB.3 @.Y.D.X.V $X$X$X$X$X$X$X$X$X$X$X$X$X$X",
"$X$X$X$X$X$X$X$X$X$X$X$X$X$XV ` <.Y.$.S I.XXd.p.U.R.U.p.d.XXI.S $.L.<.` V $X$X$X$X$X$X$X$X$X$X$X$X$X$X",
"$X$X$X$X$X$X$X$X$X$X$X$X$X$X$X` o.G.J.C.].oXq.c K.R.K.c q.oX].C.J.J.o._ $X$X$X$X$X$X$X$X$X$X$X$X$X$X$X",
"$X$X$X$X$X$X$X$X$X$X$X$X$X$X$XG Q #.D.L.^.].~ ~ L.W.J.~ ~ ].[.G.D.#.Q G $X$X$X$X$X$X$X$X$X$X$X$X$X$X$X",
"$X$X$X$X$X$X$X$X$X$X$X$X$X$XB V S Y ..1.F.Q.H.H.T.T.W.F.K.W.G.1...Y Z C V $X$X$X$X$X$X$X$X$X$X$X$X$X$X",
"$X$X$X$X$X$X$X$X$X$X$X$X$X( { { [ H R ..<.D.T.W.W.W.T.W.T.S.*...W ^ [ } { ( $X$X$X$X$X$X$X$X$X$X$X$X$X",
"$X$X$X$X$X$X$X$X$X$X$X$XV {  X XE.t.v I ..*.D.W.T.T.T.T.G.#.o.I v b E. X X{ C $X$X$X$X$X$X$X$X$X$X$X$X",
"$X$X$X$X$X$X$X$X$X$X$XT @.U. X XE.t.h v c ^ X.O.O.O.O.O.] ^ n v h t.'. X XK.@.T $X$X$X$X$X$X$X$X$X$X$X",
"$X$X$X$X$X$X$X$X$X$XS Q F.~. X XE.t.g g g h H T T T T T H h g g x t.E. X X~.F.Q S $X$X$X$X$X$X$X$X$X$X",
"$X$X$X$X$X$X$X$X$XC Q #.Y.~. X XE.t.g g g x h j j j j j h g g g a t.E. X X~.Y.+.Q C $X$X$X$X$X$X$X$X$X",
"$X$X$X$X$X$X$X$XK I ..;.Y.!.^.^.I.t.g g k l l l l l l l l l k g x b I.^.[.!.T.;...I J $X$X$X$X$X$X$X$X",
"$X$X$X$X$X$X$XB Y &.&.;.Y.R.W.R.A.b a g w.i.i.i.i.i.i.i.i.i.w.g g b A.W.W.R.Y.;.&.&.Y B $X$X$X$X$X$X$X",
"$X$X$X$X$X$XG Y O.S.S.S.,.Y.R.R.A.b x g w.i.i.i.i.i.i.i.i.i.w.x g q.A.W.R.G.S.S.S.S.O.Y J $X$X$X$X$X$X",
"$X$X$X$X$XB K +.D.R.R.Y.;.S.Y.R.V.b g g w.i.i.i.i.i.i.i.i.i.w.x a b V.T.Y.S.;.G.R.R.S.&.K B $X$X$X$X$X",
"$X$X$X$X$XN E D.Y.R.R.R.G.S.;.;.@.d e x w.i.i.i.i.i.i.i.i.i.w.a e d @.,.;.S.Y.T.R.R.T.S.R B $X$X$X$X$X",
"$X$X$X$X$XB E J.R.R.R.R.R.S.1...Q ^ w.a l e.i.i.i.i.i.i.u.e.w.e z m ) o.&.S.R.R.R.R.W.Y.E B $X$X$X$X$X",
"$X$X$X$X$XB E J.R.R.R.R.R.S.%.Y T '.M.q a k e.i.i.i.i.i.e.k e q M.'.W I %.D.R.R.R.R.R.J.E B $X$X$X$X$X",
"$X$X$X$X$XB E J.R.R.R.R.R.S.%.L F b.b.b.y.g z w.w.w.w.w.w.x y.b.b.b.C L %.S.R.R.R.R.R.J.E B $X$X$X$X$X",
"$X$X$X$X$XB E J.T.R.R.R.R.S.&.P 3 + n @Xm.k k k k k k k x k m.@Xn % 2 K &.S.R.R.R.R.T.J.E B $X$X$X$X$X",
"$X$X$X$X$X$XJ E -.R.R.Y.S.o.L 6 = = f [ B._._._._._._._._._.B.[ f = = 7 K o.S.L.R.R.$.E J $X$X$X$X$X$X",
"$X$X$X$X$X$X$XB ] Z.Z.=.o.L 2 = @ : 2 B n.{.{.{.{.}.}.{.{.{.n.N 2 > + = 4 K o.Z.Z.Z.] V $X$X$X$X$X$X$X",
"$X$X$X$X$X$X$X$XS J J J Z 6 @ = : 2 M V G / / / / H F H ( / D N M 5 : = + 7 G S J J D $X$X$X$X$X$X$X$X",
"$X$X$X$X$X$X$X$X$XB B B B > . > 2 M N N B B B B N 4 < 5 B B B B B M 2 ; . ; N V B B $X$X$X$X$X$X$X$X$X",
"$X$X$X$X$X$X$X$X$X$X$X$X$X$X$ 1 N N N N B B B B B 4 < 5 B B B B B B B 1 $ $X$X$X$X$X$X$X$X$X$X$X$X$X$X",
"$X$X$X$X$X$X$X$X$X$X$X$X$X@ ; 2 N N N N B B B M 4 < - < 5 M B B B B B 2 - @ $X$X$X$X$X$X$X$X$X$X$X$X$X",
"$X$X$X$X$X$X$X$X$X$X$X$XX @ : 2 M M N B B B B 5 < = @ - 1 M B B B B B 5 : @ X $X$X$X$X$X$X$X$X$X$X$X$X",
"$X$X$X$X$X$X$X$X$X$X$X$X+ @ = - : 1 4 N B B B 4 = + . @ > M B B B B B 5 : = + $X$X$X$X$X$X$X$X$X$X$X$X",
"$X$X$X$X$X$X$X$X$X$X$X$X& & & & * ; < 4 4 7 2 1 $ . X . = 2 7 5 2 2 4 1 > = & $X$X$X$X$X$X$X$X$X$X$X$X",
"$X$X$X$X$X$X$X$X$X$Xo 9 8 w w w 0 % $ = = = : > $ + $X  + : < < > = = $ $ 0 8 9 o $X$X$X$X$X$X$X$X$X$X",
"$X$X$X$X$X$X$X$X$X$Xo 9 u 3.6.6.6.p y t t q & * $ $X$X. + = - - q q t t q i u 9 o $X$X$X$X$X$X$X$X$X$X",
"$X$X$X$X$X$X$X$X$X$Xo 0 2.k.x.x.z.z.j.5.5.2.8 o $X$X$X$ + + $ % y 5.5.5.5.5.2.8 o $X$X$X$X$X$X$X$X$X$X",
"$X$X$X$X$X$X$X$X$X$Xo w 7.l.z.z.z.z.x.j.6.u 9 o $X$X$X$X# # 0 i 5.k.k.k.j.7.2.8 o $X$X$X$X$X$X$X$X$X$X",
"$X$X$X$X$X$X$X$X$X$Xa 0.k.x.z.z.z.z.x.l.2.w s a $X$X$X$X$Xo u 7.l.z.z.z.z.j.2.8 o $X$X$X$X$X$X$X$X$X$X",
"$X$X$X$X$X$X$X$X$X$X'.).g.k.z.z.z.z.j.7.4.i N.'.$X$X$X$X$Xo u x.x.z.z.z.x.a.2.8 o $X$X$X$X$X$X$X$X$X$X",
"$X$X$X$X$X$X$X$X$X$X$X#Xc.c.v.v.v.v.c.c.h.h.#X$X$X$X$X$X$Xy.9.j.k.k.k.k.k.7.8.r.y.$X$X$X$X$X$X$X$X$X$X",
"$X$X$X$X$X$X$X$X$X$X$X$XOXOXOXOXOXOXOXOXOXOX$X$X$X$X$X$X$X@X(.5.5.5.5.5.5.5.9.`.OX$X$X$X$X$X$X$X$X$X$X",
"$X$X$X$X$X$X$X$X$X$X$X$X$X$X$X$X$X$X$X$X$X$X$X$X$X$X$X$X$X$X`././././././././.#X$X$X$X$X$X$X$X$X$X$X$X",
"$X$X$X$X$X$X$X$X$X$X$X$X$X$X$X$X$X$X$X$X$X$X$X$X$X$X$X$X$X$X$X+X+X+X+X+X+X+X+X$X$X$X$X$X$X$X$X$X$X$X$X",
"$X$X$X$X$X$X$X$X$X$X$X$X$X$X$X$X$X$X$X$X$X$X$X$X$X$X$X$X$X$X$X$X$X$X$X$X$X$X$X$X$X$X$X$X$X$X$X$X$X$X$X"
};
