/* XPM */
static char *result[] = {
/* columns rows colors chars-per-pixel */
"51 60 194 2 ",
"   c #1E131C",
".  c #2A181E",
"X  c #22151D",
"o  c #03193F",
"O  c #141E3B",
"+  c #331C20",
"@  c #391F21",
"#  c #281D2A",
"$  c #1F213B",
"%  c #3D2122",
"&  c #36222A",
"*  c #2A2737",
"=  c #272638",
"-  c #3C2730",
";  c #442424",
":  c #4C2725",
">  c #4B2B2B",
",  c #522926",
"<  c #592C28",
"1  c #573633",
"2  c #63322B",
"3  c #6A372E",
"4  c #733A2F",
"5  c #653935",
"6  c #753D31",
"7  c #7A3E31",
"8  c #612E29",
"9  c #6E493C",
"0  c #7D4132",
"q  c #764133",
"w  c #072148",
"e  c #022E5B",
"r  c #022752",
"t  c #08315E",
"y  c #1B2F4C",
"u  c #373A57",
"i  c #303348",
"p  c #073866",
"a  c #023E71",
"s  c #1F4160",
"d  c #03477A",
"f  c #184F7A",
"g  c #3B4363",
"h  c #3C4969",
"j  c #294569",
"k  c #5C4751",
"l  c #7D4D41",
"z  c #745246",
"x  c #6B4642",
"c  c #424C6E",
"v  c #5C5366",
"b  c #535169",
"n  c #465172",
"m  c #4A5374",
"M  c #4F5B7C",
"N  c #505B7C",
"B  c #6F5961",
"V  c #705961",
"C  c #676679",
"Z  c #796367",
"A  c #844434",
"S  c #8A4836",
"D  c #8E4B38",
"F  c #894736",
"G  c #924F3B",
"H  c #9B563E",
"J  c #96533D",
"K  c #A0593F",
"L  c #845748",
"P  c #9B5A42",
"I  c #985D4D",
"U  c #905C50",
"Y  c #825A56",
"T  c #A45C41",
"R  c #AA5F42",
"E  c #8C6559",
"W  c #956657",
"Q  c #95735F",
"!  c #A76245",
"~  c #AC6345",
"^  c #AC6749",
"/  c #AE694B",
"(  c #B46C4C",
")  c #BC6E4A",
"_  c #B16646",
"`  c #BB714F",
"'  c #A56852",
"]  c #A46E5B",
"[  c #A6735F",
"{  c #BB7352",
"}  c #8E6F6C",
"|  c #A26E60",
" . c #A97C64",
".. c #B37F6C",
"X. c #C1734D",
"o. c #C47B55",
"O. c #B4856A",
"+. c #BD8569",
"@. c #B3887A",
"#. c #BE9078",
"$. c #AA8169",
"%. c #C5825C",
"&. c #CA825B",
"*. c #D48A5D",
"=. c #CD8A62",
"-. c #C68966",
";. c #D98E61",
":. c #D28D63",
">. c #DB9162",
",. c #D6926A",
"<. c #C79776",
"1. c #DB9B71",
"2. c #D39C78",
"3. c #E29867",
"4. c #E69D6A",
"5. c #E29F71",
"6. c #DBA27B",
"7. c #E9A472",
"8. c #E1A77F",
"9. c #E3A87E",
"0. c #EBAC7C",
"q. c #E7A575",
"w. c #E7A06D",
"e. c #005D9A",
"r. c #005993",
"t. c #015288",
"y. c #00619B",
"u. c #006BAC",
"i. c #0466A2",
"p. c #0075B7",
"a. c #0871AA",
"s. c #2D7CAD",
"d. c #295B83",
"f. c #535F80",
"g. c #556181",
"h. c #5B6887",
"j. c #5E6C8B",
"k. c #486E90",
"l. c #686C81",
"z. c #626D88",
"x. c #657292",
"c. c #007EC0",
"v. c #1E80BA",
"b. c #6890B1",
"n. c #0086C9",
"m. c #0287C9",
"M. c #008ED2",
"N. c #0098DC",
"B. c #0093D7",
"V. c #68A6CD",
"C. c #60B1DB",
"Z. c #60BFE9",
"A. c #8D8F9F",
"S. c #BE998F",
"D. c #A49091",
"F. c #989CAE",
"G. c #AFA5AB",
"H. c #95A7BB",
"J. c #D8A885",
"K. c #DFB58F",
"L. c #D1B298",
"P. c #E7AE85",
"I. c #EEB384",
"U. c #E7B68D",
"Y. c #F1BA8C",
"T. c #ECBD94",
"R. c #E3B790",
"E. c #F2BF92",
"W. c #EDC098",
"Q. c #F3C195",
"!. c #F3C59B",
"~. c #F6CA9F",
"^. c #D3C5B8",
"/. c #F6CDA4",
"(. c #F2CEAC",
"). c #F7D1AB",
"_. c #F7D5B1",
"`. c #ECC3A2",
"'. c #8ABAD8",
"]. c #89B8D6",
"[. c #94BBD5",
"{. c #B8BCC9",
"}. c #B5D2E5",
"|. c #D4CED1",
" X c #F8DEC1",
".X c #E7D9D5",
"XX c #E3D7D4",
"oX c #F8E0C5",
"OX c #F9E6CF",
"+X c #F4FAFD",
"@X c white",
"#X c #F5F4F5",
"$X c #C9DFED",
"%X c None",
/* pixels */
"%X%X%X%X%X%X%X%X%X%X%X%X%X%X%X%X%X%X%X%X%X%X%X%X%X%X%X%X%X%X%X%X%X%X%X%X%X%X%X%X%X%X%X%X%X%X%X%X%X%X%X",
"%X%X%X%X%X%X%X%X%X%X%X%X%X%X%X%X%X%X%X%X%X%X%X%X%X%X%X%X%X%X%X%X%X%X%X%X%X%X%X%X%X%X%X%X%X%X%X%X%X%X%X",
"%X%X%X%X%X%X%X%X%X%X%X%X%X%X%X%X%X%X%X%X%X%X%X%X%X%X%X%X%X%X%X%X%X%X%X%X%X%X%X%X%X%X%X%X%X%X%X%X%X%X%X",
"%X%X%X%X%X%X%X%X%X%X%X%X%X%X%X%X%X%X%X%XG J _ X.X.X.X.X._ P G %X%X%X%X%X%X%X%X%X%X%X%X%X%X%X%X%X%X%X%X",
"%X%X%X%X%X%X%X%X%X%X%X%X%X%X%X%X%X%XP ) -.2.6.P.J.P.8.P.6.2.-.) T %X%X%X%X%X%X%X%X%X%X%X%X%X%X%X%X%X%X",
"%X%X%X%X%X%X%X%X%X%X%X%X%X%X%X%X%XP ( o.P.).).(.)././.).).).P.&._ P %X%X%X%X%X%X%X%X%X%X%X%X%X%X%X%X%X",
"%X%X%X%X%X%X%X%X%X%X%X%X%X%X%X%XP o.1.Y.(. X XOX X XoXoXoXoX(.U.1.o.P %X%X%X%X%X%X%X%X%X%X%X%X%X%X%X%X",
"%X%X%X%X%X%X%X%X%X%X%X%X%X%X%XH _ 1.E._. XOXOXOXOXOXOXOXOXOX X_.E.1._ K %X%X%X%X%X%X%X%X%X%X%X%X%X%X%X",
"%X%X%X%X%X%X%X%X%X%X%X%X%X%X%X) o.Y.).OXOXOXOXOXOXOXOXOXOXOXOXOX).U.&.) %X%X%X%X%X%X%X%X%X%X%X%X%X%X%X",
"%X%X%X%X%X%X%X%X%X%X%X%X%X%XD o.,.E._.OXOXOXOXOXOXOXOXOXOXOXOXOX_.E.,.o.D %X%X%X%X%X%X%X%X%X%X%X%X%X%X",
"%X%X%X%X%X%X%X%X%X%X%X%X%X%XJ o.0.Q._.oXOXOXOXOXOXOXOXOXOXOXOXOX).Q.q.%.G %X%X%X%X%X%X%X%X%X%X%X%X%X%X",
"%X%X%X%X%X%X%X%X%X%X%X%X%X%X_ 1.E.~./.). XOXOXOXOXOXOXOXOXOX X)./.~.Q.1._ %X%X%X%X%X%X%X%X%X%X%X%X%X%X",
"%X%X%X%X%X%X%X%X%X%X%X%X%X%XX.8./.~.~.~._. X X X X X X X X X_./.~.~.~.8.X.%X%X%X%X%X%X%X%X%X%X%X%X%X%X",
"%X%X%X%X%X%X%X%X%X%X%X%X%X%XX.8.~.~.~.~././././././././././././.~.~.~.9.X.%X%X%X%X%X%X%X%X%X%X%X%X%X%X",
"%X%X%X%X%X%X%X%X%X%X%X%X%X%XX.8.~.~.~.~.~.~.~.~./.~.~.~.~.~.!.~.~.~.~.8.X.%X%X%X%X%X%X%X%X%X%X%X%X%X%X",
"%X%X%X%X%X%X%X%X%X%X%X%X%X%XX.8.~.~.~.~.~.~.~.~.~.~.~.~.~.~.~.~.~.~.~.9.X.%X%X%X%X%X%X%X%X%X%X%X%X%X%X",
"%X%X%X%X%X%X%X%X%X%X%X%X%X%X` P.~.~.~.~.~.~.~.~.~.~.~.~.~.~.~.~.~.~.~.9.{ %X%X%X%X%X%X%X%X%X%X%X%X%X%X",
"%X%X%X%X%X%X%X%X%X%X%X%X%X%XX.5.~.~.~.~.T.J.J.R.!.~.~.K.J.J.R.~.~.~.~.9.X.%X%X%X%X%X%X%X%X%X%X%X%X%X%X",
"%X%X%X%X%X%X%X%X%X%X%X%X%X%XX.P./.!.~.~.O.9 9 [ W.~.W.[ D 9 O.~.~.~.~.6.X.%X%X%X%X%X%X%X%X%X%X%X%X%X%X",
"%X%X%X%X%X%X%X%X%X%X%X%X%X%X~ 2.!./.P.<.$.W W O.W.~.W.O.Q W [ #.K.~.~.6.~ %X%X%X%X%X%X%X%X%X%X%X%X%X%X",
"%X%X%X%X%X%X%X%X%X%X%X%X%X%XL 2./.!.#.3 O.!.!.!.~.~.~.!.!.W.O.5 #.~.~.<.G %X%X%X%X%X%X%X%X%X%X%X%X%X%X",
"%X%X%X%X%X%X%X%X%X%X%X%X%X%XD =.6. .z : $.~.~.~.~.~.~.~.~.~.$.: z  .6.-.D %X%X%X%X%X%X%X%X%X%X%X%X%X%X",
"%X%X%X%X%X%X%X%X%X%X%X%X%X%XD o.%.9 > @ Q K.K.W.!.~.~.W.K.K.Q @ > 9 %.o.D %X%X%X%X%X%X%X%X%X%X%X%X%X%X",
"%X%X%X%X%X%X%X%X%X%X%X%X%X%X%XX.%.#.E % 1 z L $.W.~.W.$.L z 1 % E <.%.X.%X%X%X%X%X%X%X%X%X%X%X%X%X%X%X",
"%X%X%X%X%X%X%X%X%X%X%X%X%X%X%XR { 6.O.9 x z L  .W.~.W.$.z z 9 9 +.6.{ R %X%X%X%X%X%X%X%X%X%X%X%X%X%X%X",
"%X%X%X%X%X%X%X%X%X%X%X%X%X%XF D H ) &.*.6.K.R.T.~.~.!.W.R.R.6.:.o.) H D D %X%X%X%X%X%X%X%X%X%X%X%X%X%X",
"%X%X%X%X%X%X%X%X%X%X%X%X%X-.S.#.O.Q ] *.q.Y.Q./.~.~.~.~.W.Y.5.*.] } @.#.#.+.%X%X%X%X%X%X%X%X%X%X%X%X%X",
"%X%X%X%X%X%X%X%X%X%X%X%XX.J. XOX^.l.V ( &.1.Y.!.!.!.!.!.Y.5.*.( B l.^.OXOXJ.X.%X%X%X%X%X%X%X%X%X%X%X%X",
"%X%X%X%X%X%X%X%X%XD ~ &.6.`.OXOX|.C b B Z } #.,.,.,.,.,.+.} Z B b l.^.OXOX`.6.&._ D %X%X%X%X%X%X%X%X%X",
"%X%X%X%X%X%X%X%XP T ) :.E._.oXoX^.C c c h b E ' ' ' ' ' E b c h c l.^. XoX_.E.:.) T P %X%X%X%X%X%X%X%X",
"%X%X%X%X%X%X%XS ( :.;.5.Q./././.L.C c c h m b v v v v v b c c c c C L./.)./.Q.q.>.*.( F %X%X%X%X%X%X%X",
"%X%X%X%X%X%XP ^ =.0.7.7.Y.Q.~./.L.C c c m M M M M M M M M M m c n C L.~./.Q.I.q.w.0.=.^ P %X%X%X%X%X%X",
"%X%X%X%X%XS ! >.I.Q.0.4.4.I.~.~.L.C c c N x.x.x.x.x.x.x.x.x.f.c c C L./.~.0.w.w.0.!.I.3.R D %X%X%X%X%X",
"%X%X%X%XJ ( =.I.T.~.Y.0.w.q.I.I.<.v g c g.x.x.x.x.x.x.x.x.x.g.c g v <.I.I.7.w.0.Y.~.Q.0.=._ J %X%X%X%X",
"%X%X%XS H =.0.!.~.~.~.Q.7.4.4.4.-.k u c f.x.x.x.x.x.x.x.x.j.f.c u k -.3.4.w.7.E.~.~.~.!.0.:.H S %X%X%X",
"%X%X%XS P 2.Q.~.~.~.~.!.Q.0.4.4.&.L k c m N j.x.x.x.x.x.j.N m c k L &.4.4.0.Q.!.~.~.~.~.Q.2.P S %X%X%X",
"%X%X%XS P J.~.~.~.~.~.!.Q.q.>.*.o...} c c n f.h.h.h.h.h.f.n g g } ..-.*.*.0.E.!.~.~.~.~./.J.P S %X%X%X",
"%X%X%XS P J.~./.~.~.~.Q.7.>.X.! ( |.F.u g c n n n n n n n c g u G.|.| R X.*.0.Q.~.~.~.~.~.J.P S %X%X%X",
"%X%X%X%XP +.2.I.I.I.I.0.;.X.K q x D.D.A.l.c c c c c c c c c l.A.D.D.x 7 K X.>.0.I.I.I.I.2.+.P %X%X%X%X",
"%X%X%X%X%XS ! >.3.3.3.;.X.T F : # < } #XF.n m m m m m m m m F.#X} < . ; D K X.*.3.3.3.>.! S %X%X%X%X%X",
"%X%X%X%X%X%XH ^ / / / ! K J %X; ; 3 U @.G.{.{.{.{.{.{.{.{.{.G.@.U 3 % % %XJ K ! / ^ / ^ P %X%X%X%X%X%X",
"%X%X%X%X%X%X%XD S S S S S q %X@ , 7 F F S..X.X.XXXXXXX.X.X.XS.S F 0 , @ %X7 F D S S S S %X%X%X%X%X%X%X",
"%X%X%X%X%X%X%X%X%X%X%X%X%X%X  ; 8 0 F F I | | | ] E Y W [ | I S S A 2 ; X %X%X%X%X%X%X%X%X%X%X%X%X%X%X",
"%X%X%X%X%X%X%X%X%X%X%X%X%X%X. , 4 F D F D F D F F 6 8 7 D D S S F A 4 , . %X%X%X%X%X%X%X%X%X%X%X%X%X%X",
"%X%X%X%X%X%X%X%X%X%X%X%X%X%X% 3 F F F F S S S F F 4 8 7 F F F S F S F 3 @ %X%X%X%X%X%X%X%X%X%X%X%X%X%X",
"%X%X%X%X%X%X%X%X%X%X%X%X%X@ : 4 F F F F S S S A 6 , ; 8 q F F F F S S 4 , @ %X%X%X%X%X%X%X%X%X%X%X%X%X",
"%X%X%X%X%X%X%X%X%X%X%X%X  @ < 4 A A F S S S F 7 < @ X ; 2 A S S S S S 7 < @ X %X%X%X%X%X%X%X%X%X%X%X%X",
"%X%X%X%X%X%X%X%X%X%X%X%X. @ ; : < 2 6 S S S F 4 : @ + ; < 0 S F S S S 7 < ; + %X%X%X%X%X%X%X%X%X%X%X%X",
"%X%X%X%X%X%X%X%X%X%X%X%X= = = = * - > 5 5 5 6 5 % @ @ + ; 4 A F q 4 4 3 , % * %X%X%X%X%X%X%X%X%X%X%X%X",
"%X%X%X%X%X%X%X%X%X%Xo w t p p p t O O O w = > < % @ %XX + < 4 F 2 ; ; % % y t w o %X%X%X%X%X%X%X%X%X%X",
"%X%X%X%X%X%X%X%X%X%Xo r d r.y.i.y.t.t.a a p i & % %X%X. + ; < 2 u s s s s d d e o %X%X%X%X%X%X%X%X%X%X",
"%X%X%X%X%X%X%X%X%X%Xo e e.n.N.N.N.N.n.u.u.e.e o %X%X%X% @ @ & & f u.u.u.u.u.e.e o %X%X%X%X%X%X%X%X%X%X",
"%X%X%X%X%X%X%X%X%X%Xo p p.M.N.N.N.N.B.c.i.d r o %X%X%X%X# O y f a.n.m.m.m.p.y.t o %X%X%X%X%X%X%X%X%X%X",
"%X%X%X%X%X%X%X%X%X%Xh d.m.B.N.N.N.N.N.M.e.p j h %X%X%X%X%Xo d p.M.N.N.N.N.p.e.e o %X%X%X%X%X%X%X%X%X%X",
"%X%X%X%X%X%X%X%X%X%X|.[.v.m.N.N.N.N.M.p.t.f ].|.%X%X%X%X%Xo d M.B.N.N.N.N.p.e.e o %X%X%X%X%X%X%X%X%X%X",
"%X%X%X%X%X%X%X%X%X%X%X$XV.C.Z.Z.Z.Z.C.V.b.b.|.%X%X%X%X%X%Xz.s.n.n.n.m.m.m.p.a.k.z.%X%X%X%X%X%X%X%X%X%X",
"%X%X%X%X%X%X%X%X%X%X%X%X+X+X+X+X+X+X+X+X+X+X%X%X%X%X%X%X%X#X].u.u.u.u.u.u.u.s.}.+X%X%X%X%X%X%X%X%X%X%X",
"%X%X%X%X%X%X%X%X%X%X%X%X%X%X%X%X%X%X%X%X%X%X%X%X%X%X%X%X%X%X}.'.'.'.'.'.'.'.'.$X%X%X%X%X%X%X%X%X%X%X%X",
"%X%X%X%X%X%X%X%X%X%X%X%X%X%X%X%X%X%X%X%X%X%X%X%X%X%X%X%X%X%X%X@X@X@X@X@X@X@X@X%X%X%X%X%X%X%X%X%X%X%X%X",
"%X%X%X%X%X%X%X%X%X%X%X%X%X%X%X%X%X%X%X%X%X%X%X%X%X%X%X%X%X%X%X%X%X%X%X%X%X%X%X%X%X%X%X%X%X%X%X%X%X%X%X"
};
