/* XPM */
static char *result[] = {
/* columns rows colors chars-per-pixel */
"51 60 210 2 ",
"   c #1C121C",
".  c #25161D",
"X  c #2C191F",
"o  c #03193F",
"O  c #0E1A39",
"+  c #161B35",
"@  c #291B26",
"#  c #351D21",
"$  c #391F21",
"%  c #3E2122",
"&  c #34262D",
"*  c #3F2628",
"=  c #2C2735",
"-  c #422223",
";  c #4C2625",
":  c #4A2829",
">  c #532927",
",  c #592B27",
"<  c #5B2C28",
"1  c #522927",
"2  c #5D312B",
"3  c #513738",
"4  c #65352C",
"5  c #6B352D",
"6  c #6D382E",
"7  c #723A2F",
"8  c #773C30",
"9  c #7B3E31",
"0  c #622F2A",
"q  c #7F4233",
"w  c #65473F",
"e  c #031C43",
"r  c #1F2B44",
"t  c #022C58",
"y  c #02315F",
"u  c #112E50",
"i  c #393547",
"p  c #2B3654",
"a  c #353D5E",
"s  c #24364E",
"d  c #093A65",
"f  c #522B55",
"g  c #01457B",
"h  c #13527F",
"j  c #3C4464",
"k  c #3F496B",
"l  c #654C4D",
"z  c #7E5D4F",
"x  c #765A5B",
"c  c #6D4E54",
"v  c #424C6E",
"b  c #4A4F6C",
"n  c #465072",
"m  c #4C5778",
"M  c #4B5877",
"N  c #4F546F",
"B  c #6F5961",
"V  c #655664",
"C  c #745A6A",
"Z  c #62667D",
"A  c #65677B",
"S  c #79676B",
"D  c #4B4659",
"F  c #844434",
"G  c #8A4836",
"H  c #8F4D39",
"J  c #884735",
"K  c #924E3A",
"L  c #94523D",
"P  c #9A553D",
"I  c #9C583F",
"U  c #8F503F",
"Y  c #A2593F",
"T  c #895648",
"R  c #9D5A41",
"E  c #965844",
"W  c #A35E43",
"Q  c #8B6252",
"!  c #996859",
"~  c #95725E",
"^  c #AB6749",
"/  c #A86448",
"(  c #BE6E4A",
")  c #B26948",
"_  c #BA714E",
"`  c #AA6D52",
"'  c #AD735B",
"]  c #BB7452",
"[  c #B4765A",
"{  c #9A7765",
"}  c #88706E",
"|  c #A17F79",
" . c #A87A6A",
".. c #8B5D71",
"X. c #C57B54",
"o. c #C97F59",
"O. c #C17D5A",
"+. c #C4754F",
"@. c #BF805E",
"#. c #B98467",
"$. c #B58B7F",
"%. c #B38E73",
"&. c #AF8A76",
"*. c #CA845C",
"=. c #C7815A",
"-. c #D2885D",
";. c #CA8B67",
":. c #D78E61",
">. c #D4926B",
",. c #DB966A",
"<. c #C89677",
"1. c #DC9F76",
"2. c #D49C77",
"3. c #C28D70",
"4. c #E59C6A",
"5. c #E09564",
"6. c #DBA27A",
"7. c #E9A574",
"8. c #EBAB7C",
"9. c #E5A87C",
"0. c #E8A16F",
"q. c #3D13B6",
"w. c #055289",
"e. c #105585",
"r. c #115D8C",
"t. c #015A92",
"y. c #375C80",
"u. c #00609D",
"i. c #006DAE",
"p. c #0366A4",
"a. c #1775A7",
"s. c #007BBC",
"d. c #0276B5",
"f. c #1B78B2",
"g. c #556182",
"h. c #5C6989",
"j. c #4E7599",
"k. c #626F8F",
"l. c #626983",
"z. c #657392",
"x. c #784DB5",
"c. c #3E11CE",
"v. c #6F4CCC",
"b. c #6D4DE4",
"n. c #1380BC",
"m. c #7DA0BA",
"M. c #5D8AAC",
"N. c #0082C5",
"B. c #008BCD",
"V. c #0098DC",
"C. c #0094D8",
"Z. c #4E9BC9",
"A. c #60A1C8",
"S. c #46B3E5",
"D. c #46A4D4",
"F. c #90878E",
"G. c #BC9689",
"H. c #A6938F",
"J. c #878DA3",
"K. c #9698A8",
"L. c #A39EA1",
"P. c #BD91A9",
"I. c #BC8FB0",
"U. c #A6A8B6",
"Y. c #B3ABB1",
"T. c #C49A86",
"R. c #D9A782",
"E. c #D7AA87",
"W. c #D0AD96",
"Q. c #E3AA81",
"!. c #E8AE81",
"~. c #EDB384",
"^. c #EDB689",
"/. c #E8B78E",
"(. c #F0BA8C",
"). c #ECBB92",
"_. c #E5B993",
"`. c #F1BE92",
"'. c #CDB9AE",
"]. c #F3C295",
"[. c #F4C69B",
"{. c #F6CA9F",
"}. c #D9C9BA",
"|. c #F6CCA3",
" X c #F6D1AB",
".X c #F7D5B1",
"XX c #F8DABB",
"oX c #EFCEB1",
"OX c #A18DDD",
"+X c #8BBBD8",
"@X c #92BFDB",
"#X c #B6B8C3",
"$X c #AA98E9",
"%X c #B6CCDB",
"&X c #A7CBE2",
"*X c #DCD0CD",
"=X c #D8D7DA",
"-X c #F8DEC2",
";X c #E6D7D2",
":X c #F9E6CF",
">X c #F8E1C8",
",X c #C8DFED",
"<X c #E2DDE9",
"1X c #E8F5FB",
"2X c #E8F1F6",
"3X c white",
"4X c #F3F1F9",
"5X c #ECECED",
"6X c #D0E3EF",
"7X c None",
/* pixels */
"7X7X7X7X7X7X7X7X7X7X7X7X7X7X7X7X7X7X7X7X7X7X7X7X7X7X7X7X7X7X7X7X7X7X7X7X7X7X7X7X7X7X7X7X7X7X7X7X7X7X7X",
"7X7X7X7X7X7X7X7X7X7X7X7X7X7X7X7X7X7X7X7X7X7X7X7X7X7X7X7X7X7X7X7X7X7X7X7X7X7X7X7X7X7X7X7X7X7X7X7X7X7X7X",
"7X7X7X7X7X7X7X7X7X7X7X7X7X7X7X7X7X7X7X7X7X7X7X7X7X7X7X7X7X7X7X7X7X7X7X7X7X7X7X7X7X7X7X7X7X7X7X7X7X7X7X",
"7X7X7X7X7X7X7X7X7X7X7X7X7X7X7X7X7X7X7X7X7X7X7X7X7X7X7X7X7X7X7X7X7X7X7X7X7X7X7X7X7X7X7X7X7X7X7X7X7X7X7X",
"7X7X7X7X7X7X7X7X7X7X7X7X7X7X7X7X7X7X7X7X7X7XG ) ( +.( +.( Y G 7X7X7X7X7X7X7X7X7X7X7X7X7X7X7X7X7X7X7X7X",
"7X7X7X7X7X7X7X7X7X7X7X7X7X7X7X7X7X7X7X7X7X] [ ;.>.;.:.>.>.#.[ 7X7X7X7X7X7X7X7X7X7X7X7X7X7X7X7X7X7X7X7X",
"7X7X7X7X7X7X7X7X7X7X7X7X7X7X7X7X7X7X7XH ) >.|.|.[.[.|.{.{.{.^.X.Y J 7X7X7X7X7X7X7X7X7X7X7X7X7X7X7X7X7X",
"7X7X7X7X7X7X7X7X7X7X7X7X7X7X7X7X7XG ^ *.1.).-XXXXX-XXX-XXX-XoX!.>.X.P 7X7X7X7X7X7X7X7X7X7X7X7X7X7X7X7X",
"7X7X7X7X7X7X7X7X7X7X7X7X7X7X7X7X7XP O.8.[.XX:X:X:X:X:X:X:X:X:X.X(.,./ L 7X7X7X7X7X7X7X7X7X7X7X7X7X7X7X",
"7X7X7X7X7X7X7X7X7X7X7X7X7X7X7X7X7X( >.|.XX:X:X:X:X:X:X:X:X:X:X:X.X^.O.( 7X7X7X7X7X7X7X7X7X7X7X7X7X7X7X",
"7X7X7X7X7X7X7X7X7X7X7X7X7X7X7X7XR =.9.|.-X:X:X:X:X:X:X:X:X:X:X:XXX`.,.] 7X7X7X7X7X7X7X7X7X7X7X7X7X7X7X",
"7X7X7X7X7X7X7X7X7X7X7X7X7X7X7XK W ,.(.|.XX:X:X:X:X:X:X:X:X:X:X>X.X].8.O.K 7X7X7X7X7X7X7X7X7X7X7X7X7X7X",
"7X7X7X7X7X7X7X7X7X7X7X7X7X7X7X) +.~.[.|.|.XX:X:X:X:X:X:X:X:X-X X|.{.].>.) 7X7X7X7X7X7X7X7X7X7X7X7X7X7X",
"7X7X7X7X7X7X7X7X7X7X7X7X7X7X7X+.o.).{.{.{. XXXXXXX.XXXXXXXXX.X|.{.{.{.1.+.7X7X7X7X7X7X7X7X7X7X7X7X7X7X",
"7X7X7X7X7X7X7X7X7X7X7X7X7X7X7X( o.).{.{.{.{.{.{.{.{.{.{.{.{.|.{.{.{.{.1.( 7X7X7X7X7X7X7X7X7X7X7X7X7X7X",
"7X7X7X7X7X7X7X7X7X7X7X7X7X7X7X( o.).{.{.{.{.{.{.{.|.{.{.{.{.{.{.{.{.{.1.( 7X7X7X7X7X7X7X7X7X7X7X7X7X7X",
"7X7X7X7X7X7X7X7X7X7X7X7X7X7X7X+.o./.{.{.[.|.[.{.{.{.{.{.{.{.{.{.{.{.{.1.+.7X7X7X7X7X7X7X7X7X7X7X7X7X7X",
"7X7X7X7X7X7X7X7X7X7X7X7X7X7X7X( o./.{.{.|.[.|.{.{.{.|.|.{.{.{.{.{.{.{.9.( 7X7X7X7X7X7X7X7X7X7X7X7X7X7X",
"7X7X7X7X7X7X7X7X7X7X7X7X7X7X7X( o.).{.).~ z z ! #.|.{.E.! T T z %.|.{.1.( 7X7X7X7X7X7X7X7X7X7X7X7X7X7X",
"7X7X7X7X7X7X7X7X7X7X7X7X7X7X7X) ] ).{._.l 3 B f ..|.{.T.f V l * { {.{.2.) 7X7X7X7X7X7X7X7X7X7X7X7X7X7X",
"7X7X7X7X7X7X7X7X7X7X7X7X7X7X7XH / /.{._.w } <Xv.x.{.{.P.c.OX#X3 { |.|.3.H 7X7X7X7X7X7X7X7X7X7X7X7X7X7X",
"7X7X7X7X7X7X7X7X7X7X7X7X7X7X7XG R 2.`._.T H.4Xb.v.{.{.I.c.$X*Xz #.[.^.=.G 7X7X7X7X7X7X7X7X7X7X7X7X7X7X",
"7X7X7X7X7X7X7X7X7X7X7X7X7X7X7X7XP -.8.).' W.2Xv.x.[.[.P.q.$X;X' <.`.4.] G 7X7X7X7X7X7X7X7X7X7X7X7X7X7X",
"7X7X7X7X7X7X7X7X7X7X7X7X7X7X7X7X7X+.6.[./.oX4XA ..{.[.$.f Y.5X_.).).:._ 7X7X7X7X7X7X7X7X7X7X7X7X7X7X7X",
"7X7X7X7X7X7X7X7X7X7X7X7X7X7X7X7XK W O.1.~.|.>X$.#.{.{.E.~ '.XX(.8.>.) P 7X7X7X7X7X7X7X7X7X7X7X7X7X7X7X",
"7X7X7X7X7X7X7X7X7X7X7X7X7X7X7XE E E W _ -.8.[.{.{.{.{.{.|.{.(.4.=.^ E E P 7X7X7X7X7X7X7X7X7X7X7X7X7X7X",
"7X7X7X7X7X7X7X7X7X7X7X7X7X7XG #.R.R.| B [ :.8.].{.{.{.|.{.(.0.=.Q S <.R.2./ 7X7X7X7X7X7X7X7X7X7X7X7X7X",
"7X7X7X7X7X7X7X7X7X7X7X7X7XR [ E..X XH.n Q ~  .2.6.Q.Q.9.9.3.{ ! V A }. XoX#.' 7X7X7X7X7X7X7X7X7X7X7X7X",
"7X7X7X7X7X7X7X7X7X7X7X7XJ / _..X:X:XL.v v v b ! ( ( +.( ( x v v v Z }.:X>X X<.G 7X7X7X7X7X7X7X7X7X7X7X",
"7X7X7X7X7X7X7X7X7X7XP ( 3.R.[.XX:X:XL.v v v v V B B B B B N v v v Z *X>X>X X/.<.=./ G 7X7X7X7X7X7X7X7X",
"7X7X7X7X7X7X7X7X7XP / +.Q.|.|..X-X-XL.v v n m m M m m m m m M v k Z }.-XXX X{.[.>.( P K 7X7X7X7X7X7X7X",
"7X7X7X7X7X7X7X7XG / +.5.^.{.[.|.|.[.H.v v m k.k.k.k.k.k.k.k.h.n k A _.|.|.{.{.[.7.-.( P G 7X7X7X7X7X7X",
"7X7X7X7X7X7X7X/ ] >.6.^.~.8.~.].[.{.&.j k g.z.z.z.z.z.z.z.z.h.n j N E.|.[.(.8.~.~.8.9.*.) H 7X7X7X7X7X",
"7X7X7X7X7X7XG ^ 7.(.{.{.^.7.7.~.]./.S p j M k.z.z.z.z.z.k.k.h.n a D T.).].8.7.7.].|.|.8.;.K 7X7X7X7X7X",
"7X7X7X7X7X7XG ' ].[.|.{.{.].].8.,.` l p j k M h.z.z.z.z.k.g.M v a i T =.7.(.].].[.{.{.[.2.U 7X7X7X7X7X",
"7X7X7X7X7X7XG [ {.{.{.{.{.{.{.~.:.P ..F.n j k g.g.g.g.g.g.M k a l.F.T ) 0.].{.{.{.{.{.{.6.L 7X7X7X7X7X",
"7X7X7X7X7X7XG ' [.{.{.{.{.{.].8.;.P G.=XZ j v v k k v v v v v j K.*X! _ ,./.[.{.{.{.{.[.6.U 7X7X7X7X7X",
"7X7X7X7X7X7XG ^ 8.(.{.{.{.].8.*.W 7Xx S Y.K.v v n k v k k v k.#XF.x 7XR ^ ,.^.|.{.{.{.~.;.U 7X7X7X7X7X",
"7X7X7X7X7X7X7X/ X.9.(.(.(.9.*.^ F 7X$ 3 G.Y.J.J.J.J.J.J.J.J.K.'.{ 1 7X7XP ] ,.(.(.(.(.>.] H 7X7X7X7X7X",
"7X7X7X7X7X7X7X7XG X.4.4.4.-.P 7X7X  $ 2 q G.3X3X3X3X3X3X3X3X;XE T 8 #   7XG ^ 4.4.4.4./ G 7X7X7X7X7X7X",
"7X7X7X7X7X7X7X7X7X/ ^ ^ ^ / 7X7X7X# 1 9 F ! $.$.$.$.| | $.G. .K G F 4 : . 7XW ^ ^ ^ ^ R 7X7X7X7X7X7X7X",
"7X7X7X7X7X7X7X7X7X7XG G G G 7X7X7X- 4 J G G G G G G 5 5 F G G G G G G 2 . 7X7XG G G G 7X7X7X7X7X7X7X7X",
"7X7X7X7X7X7X7X7X7X7X7X7X7X7X7X7XX ; 7 G G G G G G G 5 5 F G G G G G G 4 # 7X7X7X7X7X7X7X7X7X7X7X7X7X7X",
"7X7X7X7X7X7X7X7X7X7X7X7X7X7X7X  X ; 7 J G G G G q 7 , > 7 q G G G G G 6 ; X 7X7X7X7X7X7X7X7X7X7X7X7X7X",
"7X7X7X7X7X7X7X7X7X7X7X7X7X7X7X. @ ; 5 F J G G J 9 < - - < 8 G G G G G 7 , X . 7X7X7X7X7X7X7X7X7X7X7X7X",
"7X7X7X7X7X7X7X7X7X7X7X7X7X7X% # $ $ > 5 F G G J 9 < # # , 7 G G G G G 7 , $ # 7X7X7X7X7X7X7X7X7X7X7X7X",
"7X7X7X7X7X7X7X7X7X7X7X7X7X7X+ = u r = 1 < 4 5 7 5 ; # # ; 4 8 7 6 4 4 2 ; % $ 7X7X7X7X7X7X7X7X7X7X7X7X",
"7X7X7X7X7X7X7X7X7X7X7X7X7X7Xe y d w.s & & & & 1 ; $ $ # $ ; , , : & & & & & & % 7X7X7X7X7X7X7X7X7X7X7X",
"7X7X7X7X7X7X7X7X7X7X7X7X7Xe y t.s.s.d.a.r.e.h = % % % 7X. # - - p r.e.e.e.e.d + 7X7X7X7X7X7X7X7X7X7X7X",
"7X7X7X7X7X7X7X7X7X7X7X7Xe t t.s.V.V.V.C.N.d.i.s @ % 7X7X. @ = s r.s.s.s.d.i.g e 7X7X7X7X7X7X7X7X7X7X7X",
"7X7X7X7X7X7X7X7X7X7X7X7Xo d B.V.V.V.V.V.V.N.p.y e 7X7X7X$ + t u.N.V.V.V.C.d.g e 7X7X7X7X7X7X7X7X7X7X7X",
"7X7X7X7X7X7X7X7X7X7X7X7XU.m.f.B.V.V.V.C.N.p.e.M.U.7X7X7X7XO t u.N.V.V.V.C.B.t.o 7X7X7X7X7X7X7X7X7X7X7X",
"7X7X7X7X7X7X7X7X7X7X7X7X7X,XZ.D.S.S.S.S.Z.M.j.%X7X7X7X7X7XM y.p.s.B.B.B.B.B.f.M 7X7X7X7X7X7X7X7X7X7X7X",
"7X7X7X7X7X7X7X7X7X7X7X7X7X7X2X1X1X1X1X1X1X2X2X7X7X7X7X7X7X5X%Xf.i.i.i.i.i.i.A.5X7X7X7X7X7X7X7X7X7X7X7X",
"7X7X7X7X7X7X7X7X7X7X7X7X7X7X7X7X7X7X7X7X7X7X7X7X7X7X7X7X7X7X6X@X+X+X+X+X+X+X&X7X7X7X7X7X7X7X7X7X7X7X7X",
"7X7X7X7X7X7X7X7X7X7X7X7X7X7X7X7X7X7X7X7X7X7X7X7X7X7X7X7X7X7X7X3X3X3X3X3X3X3X7X7X7X7X7X7X7X7X7X7X7X7X7X",
"7X7X7X7X7X7X7X7X7X7X7X7X7X7X7X7X7X7X7X7X7X7X7X7X7X7X7X7X7X7X7X7X7X7X7X7X7X7X7X7X7X7X7X7X7X7X7X7X7X7X7X",
"7X7X7X7X7X7X7X7X7X7X7X7X7X7X7X7X7X7X7X7X7X7X7X7X7X7X7X7X7X7X7X7X7X7X7X7X7X7X7X7X7X7X7X7X7X7X7X7X7X7X7X",
"7X7X7X7X7X7X7X7X7X7X7X7X7X7X7X7X7X7X7X7X7X7X7X7X7X7X7X7X7X7X7X7X7X7X7X7X7X7X7X7X7X7X7X7X7X7X7X7X7X7X7X",
"7X7X7X7X7X7X7X7X7X7X7X7X7X7X7X7X7X7X7X7X7X7X7X7X7X7X7X7X7X7X7X7X7X7X7X7X7X7X7X7X7X7X7X7X7X7X7X7X7X7X7X"
};
