/* XPM */
static char *result[] = {
/* columns rows colors chars-per-pixel */
"51 60 191 2 ",
"   c #1D121C",
".  c #2D191F",
"X  c #26161E",
"o  c #03193F",
"O  c #171C35",
"+  c #231C2C",
"@  c #341D20",
"#  c #3A1F21",
"$  c #2F242E",
"%  c #3B2123",
"&  c #35232B",
"*  c #272637",
"=  c #332632",
"-  c #432323",
";  c #4A2625",
":  c #4C2826",
">  c #5B2D28",
",  c #532A27",
"<  c #5E312A",
"1  c #483032",
"2  c #543434",
"3  c #64332B",
"4  c #6A362D",
"5  c #6D382E",
"6  c #733A2F",
"7  c #783E31",
"8  c #7D4233",
"9  c #7C453B",
"0  c #031A40",
"q  c #0D345D",
"w  c #0D3158",
"e  c #2C3150",
"r  c #223D58",
"t  c #223C57",
"y  c #313756",
"u  c #333A5B",
"i  c #2D3245",
"p  c #023666",
"a  c #59344E",
"s  c #144772",
"d  c #3E4768",
"f  c #2D557D",
"g  c #674D48",
"h  c #7A534F",
"j  c #7D5754",
"k  c #434C6E",
"l  c #4E4F6B",
"z  c #4A526D",
"x  c #4E5A7B",
"c  c #4A5476",
"v  c #58586F",
"b  c #65426E",
"n  c #725563",
"m  c #6D616D",
"M  c #746263",
"N  c #8A4836",
"B  c #874635",
"V  c #924E39",
"C  c #95523C",
"Z  c #9A553E",
"A  c #A1593F",
"S  c #9C5B45",
"D  c #855949",
"F  c #A45D42",
"G  c #886658",
"H  c #936357",
"J  c #936956",
"K  c #A56145",
"L  c #AB6144",
"P  c #A66449",
"I  c #BF6F4A",
"U  c #B46848",
"Y  c #A96C52",
"T  c #BB7451",
"R  c #B77859",
"E  c #AB7056",
"W  c #8A6B65",
"Q  c #9A7D77",
"!  c #9B7169",
"~  c #AB7B6E",
"^  c #A57A68",
"/  c #A27C71",
"(  c #C2734D",
")  c #C27A55",
"_  c #C97D55",
"`  c #C47954",
"'  c #96827B",
"]  c #A7847C",
"[  c #B0857A",
"{  c #B18369",
"}  c #C6825D",
"|  c #CB845D",
" . c #D3895D",
".. c #CD8760",
"X. c #CD8B65",
"o. c #D78E61",
"O. c #DC9365",
"+. c #D9966B",
"@. c #CA9674",
"#. c #DD9D72",
"$. c #C28E75",
"%. c #E69D6A",
"&. c #E09F71",
"*. c #DDA37B",
"=. c #D5A37F",
"-. c #E9A674",
";. c #E1A67C",
":. c #EBAB7B",
">. c #E7AB7E",
",. c #6639B3",
"<. c #014C84",
"1. c #03528A",
"2. c #005F9B",
"3. c #045C93",
"4. c #165685",
"5. c #166798",
"6. c #2A6592",
"7. c #0067A7",
"8. c #006AAB",
"9. c #0067A8",
"0. c #007BBD",
"q. c #0376B5",
"w. c #1676B1",
"e. c #1671AB",
"r. c #566383",
"t. c #5F6D8C",
"y. c #507496",
"u. c #657392",
"i. c #7E7F90",
"p. c #6135C7",
"a. c #7759C5",
"s. c #7F64E5",
"d. c #836F9C",
"f. c #7A869A",
"g. c #6C8DAB",
"h. c #0086C9",
"j. c #0086C8",
"k. c #0092D6",
"l. c #0098DC",
"z. c #0097DB",
"x. c #7AB0D1",
"c. c #79BFE2",
"v. c #79C8EC",
"b. c #938788",
"n. c #A38D85",
"m. c #B88F82",
"M. c #A19798",
"N. c #9F9EA5",
"B. c #A19CA0",
"V. c #9FA4B5",
"C. c #87A5BE",
"Z. c #A8ABB9",
"A. c #B9ABAC",
"S. c #C29884",
"D. c #DDAF8E",
"F. c #E4AD84",
"G. c #ECB285",
"H. c #EBB58A",
"J. c #EDB98E",
"K. c #E5B188",
"L. c #F0BA8C",
"P. c #E5B992",
"I. c #EDBD93",
"U. c #E3B89A",
"Y. c #F2BF92",
"T. c #DDB1A4",
"R. c #C5BBBD",
"E. c #F3C194",
"W. c #F4C69B",
"Q. c #F6CA9F",
"!. c #EAC19B",
"~. c #F6CCA3",
"^. c #F7CFA9",
"/. c #F6D0AB",
"(. c #F6D6B5",
"). c #F8DBBD",
"_. c #E2C2AC",
"`. c #9DBBD1",
"'. c #B6C9D8",
"]. c #B5D3E6",
"[. c #DBD6D6",
"{. c #F8DFC2",
"}. c #F9E2C7",
"|. c #F9E6CF",
" X c #D6DCE4",
".X c #DDE4EB",
"XX c #F2EBE9",
"oX c #FCF0E3",
"OX c #FFFFFF",
"+X c #E8E8EB",
"@X c None",
/* pixels */
"@X@X@X@X@X@X@X@X@X@X@X@X@X@X@X@X@X@X@X@X@X@X@X@X@X@X@X@X@X@X@X@X@X@X@X@X@X@X@X@X@X@X@X@X@X@X@X@X@X@X@X",
"@X@X@X@X@X@X@X@X@X@X@X@X@X@X@X@X@X@X@X@X@XV L ( I I I I L N @X@X@X@X@X@X@X@X@X@X@X@X@X@X@X@X@X@X@X@X@X",
"@X@X@X@X@X@X@X@X@X@X@X@X@X@X@X@X@X@XV U { @.#.F.;.;.;.F.*.@.} U V @X@X@X@X@X@X@X@X@X@X@X@X@X@X@X@X@X@X",
"@X@X@X@X@X@X@X@X@X@X@X@X@X@X@X@X@XS K T #./././././././././.*.T F S @X@X@X@X@X@X@X@X@X@X@X@X@X@X@X@X@X",
"@X@X@X@X@X@X@X@X@X@X@X@X@X@X@X@XN U O.F.~.}.}.}.}.}.}.{.}.}.~.K.O.U N @X@X@X@X@X@X@X@X@X@X@X@X@X@X@X@X",
"@X@X@X@X@X@X@X@X@X@X@X@X@X@X@X@XS ..H.~.).|.|.|.|.|.|.|.|.|.{.~.H.} F @X@X@X@X@X@X@X@X@X@X@X@X@X@X@X@X",
"@X@X@X@X@X@X@X@X@X@X@X@X@X@X@X@X( #.~.{.|.|.|.|.|.|.|.|.|.|.|.{.~.#.( @X@X@X@X@X@X@X@X@X@X@X@X@X@X@X@X",
"@X@X@X@X@X@X@X@X@X@X@X@X@X@X@XK  .>.~.{.|.|.|.|.|.|.|.|.|.|.|.{.~.>. .F @X@X@X@X@X@X@X@X@X@X@X@X@X@X@X",
"@X@X@X@X@X@X@X@X@X@X@X@X@X@XZ P &.L.Q.).}.|.|.|.|.|.|.|.|.|.{.).~.L.%.Y Z @X@X@X@X@X@X@X@X@X@X@X@X@X@X",
"@X@X@X@X@X@X@X@X@X@X@X@X@X@XI ) J.Q.Q.~.(.|.|.|.|.|.|.|.|.|.(.~.Q.Q.I.) I @X@X@X@X@X@X@X@X@X@X@X@X@X@X",
"@X@X@X@X@X@X@X@X@X@X@X@X@X@XI | E.Q.Q.Q.~.(.(.(.(.(.(.(.(.(.~.Q.Q.Q.L.| I @X@X@X@X@X@X@X@X@X@X@X@X@X@X",
"@X@X@X@X@X@X@X@X@X@X@X@X@X@XI | J.Q.Q.Q.Q.Q.Q.Q.~.~.~.Q.~.Q.Q.Q.Q.Q.I.| I @X@X@X@X@X@X@X@X@X@X@X@X@X@X",
"@X@X@X@X@X@X@X@X@X@X@X@X@X@X( | E.Q.Q.Q.Q.Q.Q.Q.Q.Q.Q.Q.Q.Q.Q.Q.Q.Q.I.| ( @X@X@X@X@X@X@X@X@X@X@X@X@X@X",
"@X@X@X@X@X@X@X@X@X@X@X@X@X@XI | I.Q.Q.Q.Q.Q.Q.Q.Q.Q.Q.Q.Q.Q.Q.Q.~.Q.I.| I @X@X@X@X@X@X@X@X@X@X@X@X@X@X",
"@X@X@X@X@X@X@X@X@X@X@X@X@X@XI | !.Q.Q.Q.W.Q.Q.Q.Q.Q.~.Q.W.W.Q.Q.Q.Q.I.| I @X@X@X@X@X@X@X@X@X@X@X@X@X@X",
"@X@X@X@X@X@X@X@X@X@X@X@X@X@XI | J.Q.U.{ G G J { !.Q.P.{ J G G { I.Q.I.| I @X@X@X@X@X@X@X@X@X@X@X@X@X@X",
"@X@X@X@X@X@X@X@X@X@X@X@X@X@XU ) P.Q.P.9 1 g a n D.~.D.n a g 1 g D.~.I.` U @X@X@X@X@X@X@X@X@X@X@X@X@X@X",
"@X@X@X@X@X@X@X@X@X@X@X@X@X@XC Y P.Q.P.g M [.a.,.T.~.T.,.a.[.n g P.Q.P.Y V @X@X@X@X@X@X@X@X@X@X@X@X@X@X",
"@X@X@X@X@X@X@X@X@X@X@X@X@X@XN P ;.E.P.h Q OXs.p.T.~.T.p.s.OX/ D P.Y.F.P N @X@X@X@X@X@X@X@X@X@X@X@X@X@X",
"@X@X@X@X@X@X@X@X@X@X@X@X@X@XN S o.>.E.E m.OXs.p.T.~.T.p.s.OXm.E I.G...F N @X@X@X@X@X@X@X@X@X@X@X@X@X@X",
"@X@X@X@X@X@X@X@X@X@X@X@X@X@X@X@X} &.W.F._.OXi.b D.Q.U.b d.OX_.F.Q.&._ @X@X@X@X@X@X@X@X@X@X@X@X@X@X@X@X",
"@X@X@X@X@X@X@X@X@X@X@X@X@X@X@X@XL ..F.L./.oXn.J U.~.P.J n.oX/.H.K.X.L @X@X@X@X@X@X@X@X@X@X@X@X@X@X@X@X",
"@X@X@X@X@X@X@X@X@X@X@X@X@X@XN N V K } %.F.^.!.I.Q.~.~.P.I.^.G.O._ F V N N @X@X@X@X@X@X@X@X@X@X@X@X@X@X",
"@X@X@X@X@X@X@X@X@X@X@X@X@X@X$.S.@.' G R +.G.E.Q.Q.Q.~.~.Y.G.+.R G / S.S.$.@X@X@X@X@X@X@X@X@X@X@X@X@X@X",
"@X@X@X@X@X@X@X@X@X@X@X@X@X` U.|.|.B.l H R +.F.I.I.I.I.I.K.+.R H l B.|.|.U._ @X@X@X@X@X@X@X@X@X@X@X@X@X",
"@X@X@X@X@X@X@X@X@X@X@XN R K.(.|.|.B.k v n m ^  .........^ m n v k B.|.|.(.K.R B @X@X@X@X@X@X@X@X@X@X@X",
"@X@X@X@X@X@X@X@X@X@X@XE $.W.(.).{.M.k k d k M H H H H H n k d k k B.).).(.W.$.R @X@X@X@X@X@X@X@X@X@X@X",
"@X@X@X@X@X@X@X@X@X@XC =.Q.Q.Q.Q.~.n.k k d k k k l k k l k d k k d n.~.Q.Q.Q.Q.F.` @X@X@X@X@X@X@X@X@X@X",
"@X@X@X@X@X@X@XC U T } H.Q.Q.Q.Q.~.n.d d x r.r.r.r.r.r.r.r.r.c k k n.~.Q.Q.~.Q.J.o._ U C @X@X@X@X@X@X@X",
"@X@X@X@X@X@XZ K ) O.-.L.E.E.W.Q.Q.n.d k x u.u.u.u.u.u.u.u.u.x k d n.W.~.W.E.E.L.-.O.) K Z @X@X@X@X@X@X",
"@X@X@X@X@XN T +.G.J.E.:.-.-.L.~.~.' u d x u.u.u.u.u.u.u.u.u.x d y ' Q.Q.L.-.-.:.Y.I.G.+.T N @X@X@X@X@X",
"@X@X@X@X@XA X.G.W.Q.W.H.:.%.:.H.*.W e u k r.t.u.u.u.u.u.t.r.k u e W ;.G.:.%.-.L.W.Q.W.G.X.A @X@X@X@X@X",
"@X@X@X@X@X( *.Q.Q.Q.Q.Q.L.%.%.O.` h y e u k r.u.u.t.u.u.r.k u e y j ( O.%.%.L.Q.Q.Q.Q.Q.;.I @X@X@X@X@X",
"@X@X@X@X@XI *.Q.Q.Q.Q.Q.L.%.%. .L / Z.l u k c r.c r.r.c c k u c Z.~ F o.%.%.L.W.Q.Q.Q.Q.;.( @X@X@X@X@X",
"@X@X@X@X@XI ;.Q.Q.Q.Q.Q.H.O. ._ S n.R.i.v k k k c d d d k k x i.R./ 9 T  .%.H.Q.Q.Q.Q.Q.*.I @X@X@X@X@X",
"@X@X@X@X@XI ;.Q.Q.Q.Q.Q.F.` L C @X2 g R.Z.k k k d c d k k k Z.R.j 1 # 8 F ` F.Q.Q.Q.Q.Q.;.I @X@X@X@X@X",
"@X@X@X@X@XF X.L.W.W.Q.L.+.F Z 6 @X# 2 ] A.Z.V.V.V.V.V.V.V.V.A.m.h ; @ 3 Z F +.J.W.Q.W.J.X.F @X@X@X@X@X",
"@X@X@X@X@XN T #.P.I.J.#.) N @X@X  - 3 8 ~ XXXXXXXX+XXXXXXXXX~ N N 3 # @X@XV ) &.H.I.P.%.T V @X@X@X@X@X",
"@X@X@X@X@X@XF K Y Y Y P F @X@X@X@ , 7 B S / ~ ~ ~ ! W / ~ ~ S N N 5 ; . @ @XF P Y Y Y K S @X@X@X@X@X@X",
"@X@X@X@X@X@X@XN N N N N @X@X@X@X- 4 N N N N N N N 5 < 7 N N N N N 7 3 # X @X@XN N N N N @X@X@X@X@X@X@X",
"@X@X@X@X@X@X@X@X@X@X@X@X@X@X  . , 6 N N N N N N N 3 - 7 N N N N N N 8 : # @X@X@X@X@X@X@X@X@X@X@X@X@X@X",
"@X@X@X@X@X@X@X@X@X@X@X@X@X@X. @ - , 3 4 7 N N B 6 : @ < 7 N N N N B B > %   @X@X@X@X@X@X@X@X@X@X@X@X@X",
"@X@X@X@X@X@X@X@X@X@X@X@X@X@X$ $ $ $ = : 3 8 8 6 > # X ; 4 N N N B 7 6 > - X @X@X@X@X@X@X@X@X@X@X@X@X@X",
"@X@X@X@X@X@X@X@X@X@X@X@X@Xo w q q q w & - : ; - - # @ % < N N 9 4 > ; - # @ # # @X@X@X@X@X@X@X@X@X@X@X",
"@X@X@X@X@X@X@X@X@X@X@X@Xw p <.2.2.2.3.s t t e * % % # . - 4 4 < : = r r t t * + @X@X@X@X@X@X@X@X@X@X@X",
"@X@X@X@X@X@X@X@X@X@X@X0 p 7.h.l.l.l.k.q.8.7.<.q & @X@X  . % % % % s 8.8.8.9.p 0 @X@X@X@X@X@X@X@X@X@X@X",
"@X@X@X@X@X@X@X@X@X@X@X0 p h.k.l.l.l.z.h.0.8.<.f N.@X@X. + O q 4.5.w.h.h.q.9.p 0 @X@X@X@X@X@X@X@X@X@X@X",
"@X@X@X@X@X@X@X@X@X@X@Xc 6.h.k.l.l.l.l.k.0.2.6.g..X@X@X% + 0 <.q.l.l.l.l.j.7.p 0 @X@X@X@X@X@X@X@X@X@X@X",
"@X@X@X@X@X@X@X@X@X@X@X.X`.q.j.z.z.z.k.q.2.p C.+X@X@X@X@X@X0 <.q.z.l.l.l.j.8.p o @X@X@X@X@X@X@X@X@X@X@X",
"@X@X@X@X@X@X@X@X@X@X@X@X].x.v.v.v.v.v.c.x.g.'.@X@X@X@X@X@Xf.6.2.0.j.j.0.8.1.y.f.@X@X@X@X@X@X@X@X@X@X@X",
"@X@X@X@X@X@X@X@X@X@X@X@X@XOXOXOXOXOXOXOXOXOX@X@X@X@X@X@X@XOXg.4.e.w.w.w.5.s '.OX@X@X@X@X@X@X@X@X@X@X@X",
"@X@X@X@X@X@X@X@X@X@X@X@X@X@X@X@X@X@X@X@X@X@X@X@X@X@X@X@X@X@X'.'.].].].].'.'. X@X@X@X@X@X@X@X@X@X@X@X@X",
"@X@X@X@X@X@X@X@X@X@X@X@X@X@X@X@X@X@X@X@X@X@X@X@X@X@X@X@X@X@X@XOXOXOXOXOXOXOX@X@X@X@X@X@X@X@X@X@X@X@X@X",
"@X@X@X@X@X@X@X@X@X@X@X@X@X@X@X@X@X@X@X@X@X@X@X@X@X@X@X@X@X@X@X@X@X@X@X@X@X@X@X@X@X@X@X@X@X@X@X@X@X@X@X",
"@X@X@X@X@X@X@X@X@X@X@X@X@X@X@X@X@X@X@X@X@X@X@X@X@X@X@X@X@X@X@X@X@X@X@X@X@X@X@X@X@X@X@X@X@X@X@X@X@X@X@X",
"@X@X@X@X@X@X@X@X@X@X@X@X@X@X@X@X@X@X@X@X@X@X@X@X@X@X@X@X@X@X@X@X@X@X@X@X@X@X@X@X@X@X@X@X@X@X@X@X@X@X@X",
"@X@X@X@X@X@X@X@X@X@X@X@X@X@X@X@X@X@X@X@X@X@X@X@X@X@X@X@X@X@X@X@X@X@X@X@X@X@X@X@X@X@X@X@X@X@X@X@X@X@X@X",
"@X@X@X@X@X@X@X@X@X@X@X@X@X@X@X@X@X@X@X@X@X@X@X@X@X@X@X@X@X@X@X@X@X@X@X@X@X@X@X@X@X@X@X@X@X@X@X@X@X@X@X",
"@X@X@X@X@X@X@X@X@X@X@X@X@X@X@X@X@X@X@X@X@X@X@X@X@X@X@X@X@X@X@X@X@X@X@X@X@X@X@X@X@X@X@X@X@X@X@X@X@X@X@X",
"@X@X@X@X@X@X@X@X@X@X@X@X@X@X@X@X@X@X@X@X@X@X@X@X@X@X@X@X@X@X@X@X@X@X@X@X@X@X@X@X@X@X@X@X@X@X@X@X@X@X@X"
};
