/* XPM */
static char *result[] = {
/* columns rows colors chars-per-pixel */
"51 60 207 2 ",
"   c #1C121C",
".  c #2C191F",
"X  c #23151D",
"o  c #03193F",
"O  c #0E1937",
"+  c #1D1A2B",
"@  c #2C1A22",
"#  c #341D21",
"$  c #1C263F",
"%  c #3E2223",
"&  c #2B2E3F",
"*  c #372F3B",
"=  c #442424",
"-  c #4B2725",
";  c #492A29",
":  c #552A27",
">  c #5B2D29",
",  c #512B28",
"<  c #5D312A",
"1  c #513534",
"2  c #64332C",
"3  c #6C372E",
"4  c #71392F",
"5  c #793F32",
"6  c #753E31",
"7  c #6E3F32",
"8  c #5F423B",
"9  c #794133",
"0  c #67453C",
"q  c #172C4B",
"w  c #06315C",
"e  c #0F2E53",
"r  c #293447",
"t  c #2D3252",
"y  c #343B5A",
"u  c #023C6C",
"i  c #351371",
"p  c #2D405F",
"a  c #1B4365",
"s  c #024376",
"d  c #1B5477",
"f  c #3C4466",
"g  c #27496B",
"h  c #765452",
"j  c #7F605E",
"k  c #424C6E",
"l  c #4B4F6C",
"z  c #585469",
"x  c #444E70",
"c  c #465172",
"v  c #4D5879",
"b  c #535D7C",
"n  c #6D5C67",
"m  c #6C6571",
"M  c #514453",
"N  c #844434",
"B  c #8A4836",
"V  c #8D4C3A",
"C  c #894736",
"Z  c #914E39",
"A  c #8C533D",
"S  c #95523C",
"D  c #9D563E",
"F  c #A1593E",
"G  c #9C5B43",
"H  c #955A4B",
"J  c #855F5B",
"K  c #8B5040",
"L  c #A25E43",
"P  c #A95F42",
"I  c #99685A",
"U  c #AB6446",
"Y  c #AC6649",
"T  c #A86549",
"R  c #B36D4D",
"E  c #BF6F4A",
"W  c #B36746",
"Q  c #BB714F",
"!  c #B6704E",
"~  c #A76C57",
"^  c #B77656",
"/  c #896B66",
"(  c #9C7667",
")  c #9C7D77",
"_  c #897373",
"`  c #B97E61",
"'  c #AA796C",
"]  c #C57D57",
"[  c #C4744E",
"{  c #91817E",
"}  c #A4837D",
"|  c #BB9477",
" . c #AC866C",
".. c #CB835C",
"X. c #C6815B",
"o. c #D48A5D",
"O. c #CC8862",
"+. c #C58765",
"@. c #D48C62",
"#. c #D88E60",
"$. c #D4926B",
"%. c #DC9669",
"&. c #C69778",
"*. c #DA9C73",
"=. c #D29D79",
"-. c #D59A74",
";. c #C99172",
":. c #E59C6B",
">. c #E39F70",
",. c #DEA37B",
"<. c #E9A473",
"1. c #EBAD7D",
"2. c #E4A67A",
"3. c #E7A06E",
"4. c #5C369A",
"5. c #411395",
"6. c #004E85",
"7. c #045D98",
"8. c #135689",
"9. c #245986",
"0. c #09639B",
"q. c #1A6898",
"w. c #0268A7",
"e. c #007BBB",
"r. c #0473B4",
"t. c #1E7BB4",
"y. c #1E73AB",
"u. c #396A93",
"i. c #586585",
"p. c #5D6A8A",
"a. c #576383",
"s. c #557695",
"d. c #6A6D84",
"f. c #6D7085",
"g. c #657392",
"h. c #654A92",
"j. c #3003D9",
"k. c #613EE2",
"l. c #895E8F",
"z. c #8B74A3",
"x. c #8255C1",
"c. c #0881BC",
"v. c #7D859B",
"b. c #0083C6",
"n. c #018ACC",
"m. c #0085C8",
"M. c #0091D4",
"N. c #0098DC",
"B. c #0095D9",
"V. c #008FD2",
"C. c #79AECE",
"Z. c #77BEE1",
"A. c #77C7EB",
"S. c #938B90",
"D. c #B78E83",
"F. c #B2898F",
"G. c #B19190",
"H. c #819DB7",
"J. c #9998A6",
"K. c #B084B3",
"L. c #A698A8",
"P. c #AEACB6",
"I. c #C39A85",
"U. c #C09F96",
"Y. c #D7AD89",
"T. c #DDB48F",
"R. c #D0AC97",
"E. c #ECAF81",
"W. c #E5AC82",
"Q. c #EEB385",
"!. c #EDB689",
"~. c #EEB98D",
"^. c #E4B18A",
"/. c #F1BA8C",
"(. c #EDBC92",
"). c #E4BA97",
"_. c #F1BE93",
"`. c #C6B1A9",
"'. c #EDC199",
"]. c #F3C195",
"[. c #F4C59A",
"{. c #F6CA9F",
"}. c #D0C1BE",
"|. c #F7CEA6",
" X c #F3CDA9",
".X c #F7D2AD",
"XX c #F6D6B4",
"oX c #F8DABB",
"OX c #F5D7BA",
"+X c #E6C7AC",
"@X c #9AB8CE",
"#X c #B6A6F2",
"$X c #B8ACCD",
"%X c #B7C7D6",
"&X c #D3D6DC",
"*X c #D3CBCC",
"=X c #E2D3C7",
"-X c #F8DEC3",
";X c #EDDFD6",
":X c #F8E1C6",
">X c #F9E6CE",
",X c #FAE4D1",
"<X c #C6DAE7",
"1X c #D1D9E1",
"2X c #FDFDFE",
"3X c #E7E2F7",
"4X c None",
/* pixels */
"4X4X4X4X4X4X4X4X4X4X4X4X4X4X4X4X4X4X4X4X4X4X4X4X4X4X4X4X4X4X4X4X4X4X4X4X4X4X4X4X4X4X4X4X4X4X4X4X4X4X4X",
"4X4X4X4X4X4X4X4X4X4X4X4X4X4X4X4X4X4X4X4X4X4X4X4X4X4X4X4X4X4X4X4X4X4X4X4X4X4X4X4X4X4X4X4X4X4X4X4X4X4X4X",
"4X4X4X4X4X4X4X4X4X4X4X4X4X4X4X4X4X4X4X4X4X4X4X4X4X4X4X4X4X4X4X4X4X4X4X4X4X4X4X4X4X4X4X4X4X4X4X4X4X4X4X",
"4X4X4X4X4X4X4X4X4X4X4X4X4X4X4X4X4X4X4X4X4X4X4X4X4X4X4X4X4X4X4X4X4X4X4X4X4X4X4X4X4X4X4X4X4X4X4X4X4X4X4X",
"4X4X4X4X4X4X4X4X4X4X4X4X4X4X4X4X4X4X4XS W [ Q [ E [ F B 4X4X4X4X4X4X4X4X4X4X4X4X4X4X4X4X4X4X4X4X4X4X4X",
"4X4X4X4X4X4X4X4X4X4X4X4X4X4X4X4XS W ^ ;.-.*.*.*.*.*.$. .Q F 4X4X4X4X4X4X4X4X4X4X4X4X4X4X4X4X4X4X4X4X4X",
"4X4X4X4X4X4X4X4X4X4X4X4X4X4X4XS L [ ,..X|.|..X|.|.|. X(.O.T D 4X4X4X4X4X4X4X4X4X4X4X4X4X4X4X4X4X4X4X4X",
"4X4X4X4X4X4X4X4X4X4X4X4X4X4XB ! %.^. X:X:X:X:X:X-X-X:XXX(.3.] S 4X4X4X4X4X4X4X4X4X4X4X4X4X4X4X4X4X4X4X",
"4X4X4X4X4X4X4X4X4X4X4X4X4X4XF O./..X:X>X>X>X>X>X,X,X>X>XXX].*.Y 4X4X4X4X4X4X4X4X4X4X4X4X4X4X4X4X4X4X4X",
"4X4X4X4X4X4X4X4X4X4X4X4X4X4X[ ,.|.:X>X>X>X>X>X>X>X>X>X>X>XXX!...Q 4X4X4X4X4X4X4X4X4X4X4X4X4X4X4X4X4X4X",
"4X4X4X4X4X4X4X4X4X4X4X4X4XL o.E.|.:X>X>X>X>X>X>X>X>X>X>X>XXX_.%.R B 4X4X4X4X4X4X4X4X4X4X4X4X4X4X4X4X4X",
"4X4X4X4X4X4X4X4X4X4X4X4XD R 2./.|.oX:X>X>X>X>X>X>X>X>X>XoX.X].Q.X.F 4X4X4X4X4X4X4X4X4X4X4X4X4X4X4X4X4X",
"4X4X4X4X4X4X4X4X4X4X4X4XE .._.|.{.{.XX:X>X>X:X>X>X>X>XoX|.{.{.{.-.E 4X4X4X4X4X4X4X4X4X4X4X4X4X4X4X4X4X",
"4X4X4X4X4X4X4X4X4X4X4X4X[ .._.{.{.{.|..X.X.X.X.X.X.X.X|.{.{.{.{.*.E 4X4X4X4X4X4X4X4X4X4X4X4X4X4X4X4X4X",
"4X4X4X4X4X4X4X4X4X4X4X4XE O.(.{.{.{.|.{.{.{.{.{.{.{.{.{.{.{.{.{.*.E 4X4X4X4X4X4X4X4X4X4X4X4X4X4X4X4X4X",
"4X4X4X4X4X4X4X4X4X4X4X4XE .._.|.{.{.{.{.{.{.{.{.{.{.{.{.{.{.{.{.*.E 4X4X4X4X4X4X4X4X4X4X4X4X4X4X4X4X4X",
"4X4X4X4X4X4X4X4X4X4X4X4X[ ..].{.{.{.{.{.|.|.[.[.|.[.{.{.{.{.{.{.*.[ 4X4X4X4X4X4X4X4X4X4X4X4X4X4X4X4X4X",
"4X4X4X4X4X4X4X4X4X4X4X4XE ..'.{.(.I.| | &.T.[.|.).&.| | | T.{.{.$.E 4X4X4X4X4X4X4X4X4X4X4X4X4X4X4X4X4X",
"4X4X4X4X4X4X4X4X4X4X4X4XE ..(.{.Y.8 = = > I {.{.;.2 ; = %  .{.{.-.[ 4X4X4X4X4X4X4X4X4X4X4X4X4X4X4X4X4X",
"4X4X4X4X4X4X4X4X4X4X4X4XD ^ (.{.Y.8 n L.4.l.{.{.F.5.z.z.=  .{.{.$.F 4X4X4X4X4X4X4X4X4X4X4X4X4X4X4X4X4X",
"4X4X4X4X4X4X4X4X4X4X4X4XB T ^.[.Y.0 G.3Xk.x.{.{.K.j.#X}.1  .{.]. .B 4X4X4X4X4X4X4X4X4X4X4X4X4X4X4X4X4X",
"4X4X4X4X4X4X4X4X4X4X4X4XB G %.Q.^.G G.3Xk.x.{.{.K.j.#X=XA ;.].<.! B 4X4X4X4X4X4X4X4X4X4X4X4X4X4X4X4X4X",
"4X4X4X4X4X4X4X4X4X4X4X4X4XU X.2.'.=.+X3Xh.d.{.{.F.i $X;X&.^./.o.E 4X4X4X4X4X4X4X4X4X4X4X4X4X4X4X4X4X4X",
"4X4X4X4X4X4X4X4X4X4X4X4X4X4XW $.~.].OX;X/  .{.{.&.8 `.>X[.~.,.Q U 4X4X4X4X4X4X4X4X4X4X4X4X4X4X4X4X4X4X",
"4X4X4X4X4X4X4X4X4X4X4X4XB B Z Y ..:.!. X).(.{.{.'.T.{.].<.@.! S V B 4X4X4X4X4X4X4X4X4X4X4X4X4X4X4X4X4X",
"4X4X4X4X4X4X4X4X4X4X4X4X;.I.I.) J X.%.!.[.{.{.{.{.|./.<.o.~ / D.I.D.] 4X4X4X4X4X4X4X4X4X4X4X4X4X4X4X4X",
"4X4X4X4X4X4X4X4X4X4X4XX.).,X,XS.z I ^ -.^.~.(.(.(.~.,. .R n f.=X,XOX$.] 4X4X4X4X4X4X4X4X4X4X4X4X4X4X4X",
"4X4X4X4X4X4X4X4X4XE O.!.OX,X,XJ.k z z m ^ X.] ..X.X./ z z z f.=X,X-X_.*.Q 4X4X4X4X4X4X4X4X4X4X4X4X4X4X",
"4X4X4X4X4X4X4X4X4X$.2.[..XoXXXS.k k k l n J J J J J z k k k m +XXXXX|.!.$...4X4X4X4X4X4X4X4X4X4X4X4X4X",
"4X4X4X4X4X4XS L [ 2.|.{.{.{.{.{ k k x x c c l c c c c x k k d.).{.{.{.{.].O.W S 4X4X4X4X4X4X4X4X4X4X4X",
"4X4X4X4X4XZ ] o.:.Q.{.{.{.{.{.S.k x v p.p.p.p.p.p.p.p.a.c c m ).{.{.{.|.[.>.@...T 4X4X4X4X4X4X4X4X4X4X",
"4X4X4X4XL R *.1.Q.Q.Q.Q.[.{. X) f f a.g.g.g.g.g.g.g.g.i.c f b ).{.[./.Q.Q.Q.E.1.] W 4X4X4X4X4X4X4X4X4X",
"4X4X4XB R <.(.{.{.1.:.:.Q.[.[._ t k b g.g.g.g.g.g.g.g.i.k y z Y.[.].<.3.<.].{.[.1.X.B 4X4X4X4X4X4X4X4X",
"4X4X4XB ^ (.[.{.{.[.Q.3.<.<.$.h t t f v d.g.g.g.g.g.a.c p r M X.*.<.:.1.].[.{.{.].$.V 4X4X4X4X4X4X4X4X",
"4X4X4XB ` {.{.{.{.{.].1.<.o.W / d.p p c b i.i.i.i.p.c f t b l.T X.3.1./.{.{.{.{.{.=.B 4X4X4X4X4X4X4X4X",
"4X4X4XB ` {.{.{.{.{.{.{.1.o.Z `.&Xz f k f c f c f f x f t P.=XH Q 3.].{.{.{.{.{.[.=.B 4X4X4X4X4X4X4X4X",
"4X4X4XB ! 1.].{.{.{.[.[.*.Y , h l.P.S.k c c x x c c f d.P.S.J ; A @.].{.{.{.{.[.!.+.B 4X4X4X4X4X4X4X4X",
"4X4X4XB T ..1.].{.{.[.].O.A # = K `.P.v.v.g.S.g.v.v.z.J.*X( > @ 9 Q 1.[.{.{.[./.%.Q B 4X4X4X4X4X4X4X4X",
"4X4X4X4X4XS ..1.{.{.].>.R 9 = 2 C K G.2X2X2X2X2X2X2X2X=XG B 5 = < D #.1.{.{./.%.T B 4X4X4X4X4X4X4X4X4X",
"4X4X4X4X4X4XT ^ $.$...Y 9 - - 3 C C ~ D.D.D.| } S.| } ' V C 5 : , 8 L ^ $.$.X.Y D 4X4X4X4X4X4X4X4X4X4X",
"4X4X4X4X4X4XB D Q E U V - . , 4 B B B B B N 5 2 2 B B B B B N 3 : - 2 V [ Q U B 4X4X4X4X4X4X4X4X4X4X4X",
"4X4X4X4X4X4X4X4X4X4X4X4X% # % 2 B B B B C 5 < = > B B B B B C N 3 : @ # 4X4X4X4X4X4X4X4X4X4X4X4X4X4X4X",
"4X4X4X4X4X4X4X4X4X4X4Xo q q q * < < 2 4 N N 4 - - 4 N B B 5 3 < : = @ . 4X4X4X4X4X4X4X4X4X4X4X4X4X4X4X",
"4X4X4X4X4X4X4X4X4X4X4Xw u 6.6.a r r ; > 4 5 4 - % : 4 9 5 2 - & & & & & 4X4X4X4X4X4X4X4X4X4X4X4X4X4X4X",
"4X4X4X4X4X4X4X4X4Xo w 7.e.n.n.n.c.w.p % % = = . . % : > = = * 8.7.0.7.s o 4X4X4X4X4X4X4X4X4X4X4X4X4X4X",
"4X4X4X4X4X4X4X4X4Xo u e.V.N.N.N.B.m.0.a q q + + X . % * a d q.e.b.e.w.s o 4X4X4X4X4X4X4X4X4X4X4X4X4X4X",
"4X4X4X4X4X4X4X4X4Xp d V.B.N.N.N.B.M.e.w.9.g y 4X4X  . r w.b.N.N.N.M.r.s o 4X4X4X4X4X4X4X4X4X4X4X4X4X4X",
"4X4X4X4X4X4X4X4X4X&X@Xr.n.N.N.N.V.e.7.9.@X1X&X4X4X4XO w w.m.N.N.N.M.r.s o 4X4X4X4X4X4X4X4X4X4X4X4X4X4X",
"4X4X4X4X4X4X4X4X4X4X<XC.A.A.A.A.A.C.C.H.&X2X2X4X4X4Xv.s.7.w.m.b.b.e.7.u.g.4X4X4X4X4X4X4X4X4X4X4X4X4X4X",
"4X4X4X4X4X4X4X4X4X4X4X2X2X2X2X2X2X2X2X2X4X4X4X4X4X4X2X%X9.q.t.t.t.y.d C.2X4X4X4X4X4X4X4X4X4X4X4X4X4X4X",
"4X4X4X4X4X4X4X4X4X4X4X4X4X4X4X4X4X4X4X4X4X4X4X4X4X4X4X4X1X<X<X<X<X<X<X1X4X4X4X4X4X4X4X4X4X4X4X4X4X4X4X",
"4X4X4X4X4X4X4X4X4X4X4X4X4X4X4X4X4X4X4X4X4X4X4X4X4X4X4X4X2X2X2X2X2X2X2X4X4X4X4X4X4X4X4X4X4X4X4X4X4X4X4X",
"4X4X4X4X4X4X4X4X4X4X4X4X4X4X4X4X4X4X4X4X4X4X4X4X4X4X4X4X4X4X4X4X4X4X4X4X4X4X4X4X4X4X4X4X4X4X4X4X4X4X4X",
"4X4X4X4X4X4X4X4X4X4X4X4X4X4X4X4X4X4X4X4X4X4X4X4X4X4X4X4X4X4X4X4X4X4X4X4X4X4X4X4X4X4X4X4X4X4X4X4X4X4X4X",
"4X4X4X4X4X4X4X4X4X4X4X4X4X4X4X4X4X4X4X4X4X4X4X4X4X4X4X4X4X4X4X4X4X4X4X4X4X4X4X4X4X4X4X4X4X4X4X4X4X4X4X",
"4X4X4X4X4X4X4X4X4X4X4X4X4X4X4X4X4X4X4X4X4X4X4X4X4X4X4X4X4X4X4X4X4X4X4X4X4X4X4X4X4X4X4X4X4X4X4X4X4X4X4X",
"4X4X4X4X4X4X4X4X4X4X4X4X4X4X4X4X4X4X4X4X4X4X4X4X4X4X4X4X4X4X4X4X4X4X4X4X4X4X4X4X4X4X4X4X4X4X4X4X4X4X4X",
"4X4X4X4X4X4X4X4X4X4X4X4X4X4X4X4X4X4X4X4X4X4X4X4X4X4X4X4X4X4X4X4X4X4X4X4X4X4X4X4X4X4X4X4X4X4X4X4X4X4X4X",
"4X4X4X4X4X4X4X4X4X4X4X4X4X4X4X4X4X4X4X4X4X4X4X4X4X4X4X4X4X4X4X4X4X4X4X4X4X4X4X4X4X4X4X4X4X4X4X4X4X4X4X",
"4X4X4X4X4X4X4X4X4X4X4X4X4X4X4X4X4X4X4X4X4X4X4X4X4X4X4X4X4X4X4X4X4X4X4X4X4X4X4X4X4X4X4X4X4X4X4X4X4X4X4X"
};
