/* XPM */
static char *result[] = {
/* columns rows colors chars-per-pixel */
"60 60 114 2 ",
"   c #2B1514",
".  c #311715",
"X  c #341917",
"o  c #371B19",
"O  c #3C1E1B",
"+  c #10261A",
"@  c #142D1E",
"#  c #3F211E",
"$  c #173323",
"%  c #1A3A26",
"&  c #1C3E29",
"*  c #253425",
"=  c #2A3527",
"-  c #401F1C",
";  c #45231E",
":  c #49261F",
">  c #452421",
",  c #492624",
"<  c #452C26",
"1  c #4C2926",
"2  c #4F2C29",
"3  c #522C26",
"4  c #512C2A",
"5  c #5E3327",
"6  c #57312E",
"7  c #5E352E",
"8  c #5C3B28",
"9  c #5B3431",
"0  c #623629",
"q  c #613D2A",
"w  c #693B2E",
"e  c #603735",
"r  c #643A36",
"t  c #693D34",
"y  c #6A3F38",
"u  c #1E422A",
"i  c #21462B",
"p  c #244A2B",
"a  c #284C2B",
"s  c #26532E",
"d  c #2C532D",
"f  c #2F592F",
"g  c #325B2F",
"h  c #234D32",
"j  c #265335",
"k  c #285635",
"l  c #2B5B33",
"z  c #285738",
"x  c #2B5B3A",
"c  c #335E31",
"v  c #2E6333",
"b  c #2E613D",
"n  c #366232",
"m  c #3A6331",
"M  c #336C35",
"N  c #3C6B34",
"B  c #31673B",
"V  c #336B3A",
"C  c #3A6C3A",
"Z  c #357137",
"A  c #397337",
"S  c #377138",
"D  c #3B7538",
"F  c #3E7838",
"G  c #6F432F",
"H  c #6D4035",
"J  c #6D423A",
"K  c #764637",
"L  c #7B4734",
"P  c #7D4B34",
"I  c #744439",
"U  c #794639",
"Y  c #7D4B3B",
"T  c #7F5538",
"R  c #436C33",
"E  c #427537",
"W  c #4A7234",
"Q  c #4F7936",
"!  c #41773C",
"~  c #447C39",
"^  c #497E3A",
"/  c #527C36",
"(  c #824B36",
")  c #854F3C",
"_  c #825036",
"`  c #85513C",
"'  c #89543B",
"]  c #91563D",
"[  c #96583E",
"{  c #995C3F",
"}  c #91643E",
"|  c #9C6141",
" . c #9A7043",
".. c #47803A",
"X. c #4D843B",
"o. c #51863B",
"O. c #5A8539",
"+. c #55893B",
"@. c #5B8D3C",
"#. c #5F903C",
"$. c #608D3B",
"%. c #64933D",
"&. c #68963D",
"*. c #6D993D",
"=. c #739E3D",
"-. c #77A03D",
";. c #7CA43D",
":. c #81A73E",
">. c #86AB3E",
",. c #8AAE3D",
"<. c #8DB23C",
"1. c #93B63B",
"2. c #97BA3A",
"3. c None",
/* pixels */
"3.3.3.3.3.3.3.3.3.3.3.3.3.3.3.3.3.3.3.3.3.3.3.3.3.3.3.3.3.3.3.3.& 3.3.3.3.3.3.3.3.3.3.3.3.3.3.3.3.3.3.3.3.3.3.3.3.3.3.3.",
"3.3.3.3.3.3.3.3.3.3.3.3.3.3.3.3.3.3.3.3.3.3.3.3.3.u 3.3.u 3.3.a O.i 3.3.u 3.3.3.3.3.3.3.3.3.3.3.3.3.3.3.3.3.3.3.3.3.3.3.",
"3.3.3.3.3.3.3.3.3.3.3.3.3.3.3.3.3.3.3.3.3.p p p & N d p ^ p a &.&.O.p c n i p 3.3.3.3.3.3.3.3.3.3.3.3.3.3.3.3.3.3.3.3.3.",
"3.3.3.3.3.3.3.3.3.3.3.3.3.3.3.3.3.3.3.3.a N %.&.R E o.&.+.X.&.&.=.-.=.X.R W %.m a 3.3.3.3.3.3.3.3.3.3.3.3.3.3.3.3.3.3.3.",
"3.3.3.3.3.3.3.3.3.3.3.3.3.3.3.3.3.3.3.a E X.+.*.=.%.&.&.&.@.%.=.>.>.=.@.&.%.+.X.E i a 3.3.3.3.3.3.3.3.3.3.3.3.3.3.3.3.3.",
"3.3.3.3.3.3.3.3.3.3.3.3.3.3.3.3.3.3.3.a R @.+.*.:.>.-.&.=.>.%.=.>.-.*.=.&.+.X.+.R g W & 3.3.3.3.3.3.3.3.3.3.3.3.3.3.3.3.",
"3.3.3.3.3.3.3.3.3.3.3.3.3.3.3.3.m c g N %.&.&.&.=.-.-.*.>.>.>.@.-.-.-.;.%.@.&.*.*.$.m g 3.3.3.3.3.3.3.3.3.3.3.3.3.3.3.3.",
"3.3.3.3.3.3.3.3.3.3.3.3.3.3.3.& R &.@.X.o.@.#.&.=.-.*.;.<.>.>.-.;.>.,.>.=.=.>.:.*.o.X.X.n c 3.3.3.3.3.3.3.3.3.3.3.3.3.3.",
"3.3.3.3.3.3.3.3.3.3.3.3.3.% n n N @.@.*.*.#.%.-.>.<.,.1.2.1.>.<.>.>.1.2.<.>.>.=.#.X.X.X.f f 3.3.3.3.3.3.3.3.3.3.3.3.3.3.",
"3.3.3.3.3.3.3.3.3.3.3.3.3.3.d @.X.+.-.>.,.;.*.-.>.,.2.2.2.<.1.1.>.;.2.1.<.>.-.*.%.o.X.@.N N % % 3.3.3.3.3.3.3.3.3.3.3.3.",
"3.3.3.3.3.3.3.3.3.3.3.3.3.% Q &.@.o.&.>.>.;.&.&.:.>.,.,.,.,.2.2.<.>.<.,.>.>.:.=.@.@.%.&.#.X.N m % 3.3.3.3.3.3.3.3.3.3.3.",
"3.3.3.3.3.3.3.3.3.3.3.3.% / &.&.o.X.+.&.@.%.&.*.*.*.<.1.1.>.2.2.1.,.1.<.:.*.*.#.*.;.;.*.&.#.o.X.N % 3.3.3.3.3.3.3.3.3.3.",
"3.3.3.3.3.3.3.3.3.3.3.3.% p a D F %.%.&.@.X.*.;.<.<.2.2.2.2.2.2.<.1.2.2.1.;.&.-.>.>.>.>.o.+.#.i u 3.3.3.3.3.3.3.3.3.3.3.",
"3.3.3.3.3.3.3.3.3.3.3.% v M ~ Z %.&.&.&.=.>.>.>.>.1.2.2.2.2.2.2.1.<.2.2.2.1.;.@.-.>.>.>.;.X.o.N % 3.3.3.3.3.3.3.3.3.3.3.",
"3.3.3.3.3.3.3.3.3.3.3.3.% ^ X.&.*.>.>.=.X.*.2.<.>.>.2.2.2.2.2.2.1.>.<.2.2.<.&.#.+.X.X.X.o.X.X.X.E % 3.3.3.3.3.3.3.3.3.3.",
"3.3.3.3.3.3.3.3.3.3.3.% E X.X.o.>.>.>.=.&.2.2.2.;.&.&.1.2.2.2.2.2.<.-.>.>.>.>.>.%.X.X.>.o.&.%.X.A N % 3.3.3.3.3.3.3.3.3.",
"3.3.3.3.3.3.3.3.3.3.% N ~ & X.;.:.:.=.o.*.1.1.-.*.;.1.2.2.2.2.2.2.2.<.*.>.<.2.<.>.#.o.;.>.>.&.@.M u 3.3.3.3.3.3.3.3.3.3.",
"3.3.3.3.3.3.3.3.3.3.3.% % u M Z S X.X.%.:.&.&.&.;.,.2.2.2.1.>.>.1.2.<.*.&.;.1.2.>.;.+.;.>.>.:.X.o.v u 3.3.3.3.3.3.3.3.3.",
"3.3.3.3.3.3.3.3.3.3.3.3.u M ~ Z D X.X.%.*.&.#.=.,.1.<.2.,.:.,.>.>.>.1.>.%.&.>.,.#.o.+.X.-.-.=.&.D N s 3.3.3.3.3.3.3.3.3.",
"3.3.3.3.3.3.3.3.3.a i i C ~ +.S ~ X.&.>.-.#.=.>.;.,.-.:.>.-.2.>.*.>.>.:.%.*.>.*.o.%.&.+.X.o.D D X.E a 3.3.3.3.3.3.3.3.3.",
"3.3.3.3.3.3.3.3.% N n E %.&.Z F F ~ >.:.&.@.=.=.*.&.;.>.>.2.2.2.*.=.>.>.*.%.>.>.*.#.*.&.+.o.X.D A X.N % 3.3.3.3.3.3.3.3.",
"3.3.3.3.3.3.d m m E X.%.&.#.+.X.~ @.%.&.@.&.#.%.&.*.;.,.>.-.2.;.&.&.=.=.*.@.=.-.;.#.;.-.-.~ X.~ d n g s 3.3.3.3.3.3.3.3.",
"3.3.3.3.3.d / &.&.&.+.%.&.&.>.X.~ &.F o.;.,.-.=.*.#.;.,.*.X.;.*.-.:.%.@.@.@.&.&.*.#.&.>.>.Z F ..v % a d 3.3.3.3.3.3.3.3.",
"3.3.3.3.3.d Q &.#.-.=.-.#.%.=.#.@.+.~ %.>.;.-.:.;.@.;.*.o.X.&.*.>.>.=.X.@.=.%.%.X.#.#.%.+.%.A F M d % 3.3.3.3.3.3.3.3.3.",
"3.3.3.3.3.d W @.@.-.>.>.-.#.&.&.&.~ ~ -.%.&.-.>.=.o.#.o.*.o.+.&.>.,.=.o.&.>.-.%.F ~ %.X.~ o.Z M Z v % 3.3.3.3.3.3.3.3.3.",
"3.3.3.3.a E X.+.%.*.:.>.-.*.&.&.o...@.+.+.%.-.&.@.#.o.*.>.-.X.#.>.>.=.X.+.=.>.%.X.Z %.F X.@.Z M u s s 3.3.3.3.3.3.3.3.3.",
"3.3.3.3.3.l X.&.*.&.;.>.:.:.:.o.o.%.&.@.X.X.E F +.&.%.:.>.>.X.o.%.;.+.+.@.o.@.o.X.~ ~ Z #.&.X.D % 3.u 3.3.3.3.3.3.3.3.3.",
"3.3.3.3.i ! @.X.o.*.>.-.:.>.>.;.X.+.&.&.o.Z Z X.&.+.~ -.>.>.X.X.*.;.@.+.%.%.@.X.X.X.D @.&.o.X.$.Q % % 3.3.3.3.3.3.3.3.3.",
"3.3.% i M Z ~ X.*.>.*.*.+.>.>.>.;.X.X.+.@.F Z o.&.&.+.;.>.>.o.:.:.*.&.&.&.&.&.X.@.~ ~ X.&.;.%.&.&.$.W % 3.3.3.3.3.3.3.3.",
"3.3.3.3.% f +.@.*.-.&.;.+.%.*.&.o...A F X.o.~ o.&.~ ..X.:.o.&.>.,.;.&.@.+.&.&.+.#.&.&.o.>.>.>.&.@.Z ~ R % 3.3.3.3.3.3.3.",
"3.3.3.3.s +.&.&.@.#.;.>.>.&.&.&.%.+.&.&.+.Z Z o.~ ..X.X.;.&.&.>.>.:.&.@.X.~ o.+.#.&.&.>.>.>.D X.X.~ v % 3.3.3.3.3.3.3.3.",
"3.3.3.3.s +.&.@.X.#.-.>.>.+.%.%.%.#.+.&.&.+.Z Z A @.&.+.A &.&.<.>.;.@.Z D F ~ o.F #.*.;.>.:.&.&.X.X.N u 3.3.3.3.3.3.3.3.",
"3.3.3.3.p ~ %.+.@.+.X.;.;.o.o.X.X.+.%.o.%.%.X.Z o.&.&.&.S #.*.-.>.&.@.A Z D o.&.@.;.>.&.:.*.&.&.@.C S n % 3.3.3.3.3.3.3.",
"3.3.3.3.u C ^ F X.o.%.-.+.+.&.+.X.&.%.o.X...S D +.&.&.#.F X.#.F ;.%.#.~ D +.&.%.=.;.;.@.*.>.*.%.@.F v u 3.3.3.3.3.3.3.3.",
"3.3.3.3.3.h x C ..@.&.o.X.%.&.&.^ @.&.#...X.F ~ +.&.&.F X.X.X.A @.%.X.F F @.@.+.+.%.&.#.>.>.:.X.X.^ V j % 3.3.3.3.3.3.3.",
"3.3.3.3.3.u p d C +.@.X.X.@.&.&.C D +.X.^ ~ F ..X.#.@.S ~ X.~ Z S X.....S D ..X.#.&.#.o.=.*.:.^ ^ x z h % 3.3.3.3.3.3.3.",
"3.3.3.3.3.3.3.% j ~ F ~ X.~ @.o...S S S ! S F o...#.F Z Z ~ Z F S Z S F Z F X...@.@.o.X.X.o.#.D ~ c & h % 3.3.3.3.3.3.3.",
"3.3.3.3.3.3.3.3.i x l b ..V ..~ ..V V b V V ! ^ S ....A X.X.F X.A F F Z F F F D o.F D X.X.! Z Z S V i % 3.3.3.3.3.3.3.3.",
"3.3.3.3.3.3.3.3.3.p & x F b S X.b x h j b b V S S Z F F +.&.#.#.o...F Z A A Z D ....S ..F B Z V b b j % 3.3.3.3.3.3.3.3.",
"3.3.3.3.3.3.3.3.3.3.3.i x b i l x i 3.& z b x B Z V V ..X.+.&.+.&.#.o.~ F Z B F X.D b ..Z b B V x h j % 3.3.3.3.3.3.3.3.",
"3.3.3.3.3.3.3.3.3.3.3.3.u x & 3.i 3.3.3.i z z B B b F X.X.#.&.o.&.%.X.F S V l N B x x V S b b x u u u 3.3.3.3.3.3.3.3.3.",
"3.3.3.3.3.3.3.3.3.3.3.3.3.u 3.3.3.3.3.3.& u & z b D X.X.D &.&.X.o.F F F M b h i & z h x B u x u 3.3.3.3.3.3.3.3.3.3.3.3.",
"3.3.3.3.3.3.3.3.3.3.3.3.3.3.3.3.3.3.3.3.3.3.% h h x S D ..&.o.X.X.~ S Z V V h 3.3.& % x b % x % 3.3.3.3.3.3.3.3.3.3.3.3.",
"3.3.3.3.3.3.3.3.3.3.3.3.3.3.3.3.3.3.3.3.3.3.3.% % z V b X.o...S V ^ b V b h 3.3.3.3.% x & 3.& 3.3.3.3.3.3.3.3.3.3.3.3.3.",
"3.3.3.3.3.3.3.3.3.3.3.3.3.3.3.3.3.3.3.3.3.3.3.3.$ z x b b X.S S b z i b b h @ 3.3.3.3.% 3.3.3.3.3.3.3.3.3.3.3.3.3.3.3.3.",
"3.3.3.3.3.3.3.3.3.3.3.3.3.3.3.3.3.3.3.3.3.3.3.3.. * z & x b V x & z % i h @ 3.3.3.3.3.3.3.3.3.3.3.3.3.3.3.3.3.3.3.3.3.3.",
"3.3.3.3.3.3.3.3.3.3.3.3.3.3.3.3.3.3.3.3.3.3.3.3.o , = % z b x & < * o + $ 3.3.3.3.3.3.3.3.3.3.3.3.3.3.3.3.3.3.3.3.3.3.3.",
"3.3.3.3.3.3.3.3.3.3.3.3.3.3.3.3.3.3.3.3.3.3.o - , 1 9 4 * x * 6 9 1 O 3.3.3.3.3.3.3.3.3.3.3.3.3.3.3.3.3.3.3.3.3.3.3.3.3.",
"3.3.3.3.3.3.3.3.3.3.3.3.3.3.3.3.3.3.3.3.3.  , 4 4 9 9 9 6 = 6 9 r 9 , > ; 3.3.3.3.3.3.3.3.3.3.3.3.3.3.3.3.3.3.3.3.3.3.3.",
"3.3.3.3.3.3.3.3.3.3.3.3.3.3.3.3.3.3.3.3.3.3.O 1 2 r J J 9 4 9 Y ] r 6 9 7 O 3.3.3.3.3.3.3.3.3.3.3.3.3.3.3.3.3.3.3.3.3.3.",
"3.3.3.3.3.3.3.3.3.3.3.3.3.3.3.3.3.3.3.3.o > 2 4 7 I Y J J J Y ] ) ] K e 9 4 o 3.3.3.3.3.3.3.3.3.3.3.3.3.3.3.3.3.3.3.3.3.",
"3.3.3.3.3.3.3.3.3.3.3.3.3.3.3.3.3.3.3.3.O , > > H ] ` 7 J J ` ] I ) [ ' q > X 3.3.3.3.3.3.3.3.3.3.3.3.3.3.3.3.3.3.3.3.3.",
"3.3.3.3.3.3.3.3.3.3.3.3.3.3.3.3.3.3.3.3.. . . q ' [ t 7 Y J J [ Y t P | } 8 3.3.3.3.3.3.3.3.3.3.3.3.3.3.3.3.3.3.3.3.3.3.",
"3.3.3.3.3.3.3.3.3.3.3.3.3.3.3.3.3.3.3.3.3.3.8 | | L _ ` [ J r K ] Y T w P ' 3 3.3.3.3.3.3.3.3.3.3.3.3.3.3.3.3.3.3.3.3.3.",
"3.3.3.3.3.3.3.3.3.3.3.3.3.3.3.3.3.3.3.3.3.. H P 5 3  .| K 4 1 1 U | } O : 5 : 3.3.3.3.3.3.3.3.3.3.3.3.3.3.3.3.3.3.3.3.3.",
"3.3.3.3.3.3.3.3.3.3.3.3.3.3.3.3.3.3.3.3.3.3.: ; 3.O ' { 1 3.3.  3 { _ o 3.3.3.3.3.3.3.3.3.3.3.3.3.3.3.3.3.3.3.3.3.3.3.3.",
"3.3.3.3.3.3.3.3.3.3.3.3.3.3.3.3.3.3.3.3.3.3.3.3.3.o ( 5 3.3.3.3.X 0 L o 3.3.3.3.3.3.3.3.3.3.3.3.3.3.3.3.3.3.3.3.3.3.3.3.",
"3.3.3.3.3.3.3.3.3.3.3.3.3.3.3.3.3.3.3.3.3.3.3.3.3.3.: 3.3.3.3.3.3.X ; 3.3.3.3.3.3.3.3.3.3.3.3.3.3.3.3.3.3.3.3.3.3.3.3.3.",
"3.3.3.3.3.3.3.3.3.3.3.3.3.3.3.3.3.3.3.3.3.3.3.3.3.3.3.3.3.3.3.3.3.3.3.3.3.3.3.3.3.3.3.3.3.3.3.3.3.3.3.3.3.3.3.3.3.3.3.3.",
"3.3.3.3.3.3.3.3.3.3.3.3.3.3.3.3.3.3.3.3.3.3.3.3.3.3.3.3.3.3.3.3.3.3.3.3.3.3.3.3.3.3.3.3.3.3.3.3.3.3.3.3.3.3.3.3.3.3.3.3."
};
