/* XPM */
static char *_150e9a01e3043cfbe614c536a8c0214e0p2Kh9F7uJiSxPT[] = {
/* columns rows colors chars-per-pixel */
"60 60 218 2 ",
"   c None",
".  c #050100",
"X  c #0B0301",
"o  c #0E0A04",
"O  c #0D0B0C",
"+  c #080806",
"@  c #130300",
"#  c #190600",
"$  c #140C04",
"%  c #1B0D02",
"&  c #130D0B",
"*  c #1A0F09",
"=  c #100708",
"-  c #1C1106",
";  c #15110C",
":  c #1C130B",
">  c #1E190D",
",  c #110F11",
"<  c #151314",
"1  c #1C1513",
"2  c #1D1A14",
"3  c #171618",
"4  c #1A1718",
"5  c #1D1B1B",
"6  c #171914",
"7  c #0E0E10",
"8  c #210F02",
"9  c #221205",
"0  c #291502",
"q  c #2D1904",
"w  c #23150B",
"e  c #24190D",
"r  c #2B1B0D",
"t  c #291709",
"y  c #331C04",
"u  c #331F0D",
"i  c #3A1F07",
"p  c #211712",
"a  c #231B14",
"s  c #2B1D12",
"d  c #231D1C",
"f  c #2A1F19",
"g  c #321E12",
"h  c #1E221C",
"j  c #33220C",
"k  c #3D230B",
"l  c #3A2708",
"z  c #262016",
"x  c #2C2115",
"c  c #24211C",
"v  c #2C231C",
"b  c #2D291E",
"n  c #332214",
"m  c #3B2513",
"M  c #3C2A15",
"N  c #33251B",
"B  c #3B261A",
"V  c #34281D",
"C  c #3B2B1C",
"Z  c #2F200D",
"A  c #1F1E21",
"S  c #221E20",
"D  c #252323",
"F  c #2B2523",
"G  c #2C2A25",
"H  c #272528",
"J  c #28262A",
"K  c #2C2A2B",
"L  c #352B23",
"P  c #3C2D23",
"I  c #322D2B",
"U  c #342924",
"Y  c #3D3226",
"T  c #34322D",
"R  c #3B332B",
"E  c #2F2E31",
"W  c #322F32",
"Q  c #353333",
"!  c #3A3533",
"~  c #3D3A35",
"^  c #3A3738",
"/  c #3D3B3B",
"(  c #363838",
")  c #2B312F",
"_  c #41260B",
"`  c #442B0C",
"'  c #482D0F",
"]  c #47320E",
"[  c #412615",
"{  c #452C13",
"}  c #4A2E14",
"|  c #412619",
" . c #422C1C",
".. c #4A2E1C",
"X. c #463213",
"o. c #4A3115",
"O. c #45321D",
"+. c #4D341B",
"@. c #4F3915",
"#. c #51351D",
"$. c #543A1D",
"%. c #503717",
"&. c #412D22",
"*. c #453323",
"=. c #4A3424",
"-. c #4D3923",
";. c #43332A",
":. c #4B352A",
">. c #44392D",
",. c #4C3B2B",
"<. c #533A23",
"1. c #533D2B",
"2. c #5A3E29",
"3. c #553924",
"4. c #423B34",
"5. c #4D3E32",
"6. c #413D3C",
"7. c #503E32",
"8. c #3B423B",
"9. c #58401E",
"0. c #5A4124",
"q. c #55422B",
"w. c #5C442C",
"e. c #44423C",
"r. c #4B453D",
"t. c #4D4437",
"y. c #524234",
"u. c #5A4433",
"i. c #51453C",
"p. c #55493D",
"a. c #5C4A3B",
"s. c #5E4D31",
"d. c #4E4026",
"f. c #62492D",
"g. c #644A34",
"h. c #654D3A",
"j. c #644834",
"k. c #6D553A",
"l. c #6A5337",
"z. c #74593E",
"x. c #3F3D41",
"c. c #423F41",
"v. c #454343",
"b. c #4A4545",
"n. c #4B4A47",
"m. c #4A474A",
"M. c #4C4B4B",
"N. c #544D45",
"B. c #534E4D",
"V. c #594E46",
"C. c #53514E",
"Z. c #5A534B",
"A. c #595449",
"S. c #4F4B50",
"D. c #524F51",
"F. c #555353",
"G. c #595555",
"H. c #5B5956",
"J. c #59565A",
"K. c #5D5B5B",
"L. c #655546",
"P. c #6A5444",
"I. c #63594F",
"U. c #635449",
"Y. c #765B43",
"T. c #775A45",
"R. c #625D5D",
"E. c #665E53",
"W. c #5D635D",
"Q. c #7E6149",
"!. c #62615F",
"~. c #6C6257",
"^. c #716356",
"/. c #625F60",
"(. c #5D6661",
"). c #656363",
"_. c #696565",
"`. c #6A6965",
"'. c #6A6669",
"]. c #6C6B6B",
"[. c #676769",
"{. c #726E6C",
"}. c #73716E",
"|. c #7C7167",
" X c #6F6C70",
".X c #746F73",
"XX c #757374",
"oX c #797575",
"OX c #7A7976",
"+X c #7A777A",
"@X c #7D7B7B",
"#X c #747B77",
"$X c #837E7E",
"%X c #857C75",
"&X c #83817E",
"*X c #8D857C",
"=X c #91887E",
"-X c #817F82",
";X c #858383",
":X c #8B8582",
">X c #878288",
",X c #8C8B8B",
"<X c #8A8988",
"1X c #908E8C",
"2X c #978D87",
"3X c #989289",
"4X c #9A9695",
"5X c #999897",
"6X c #A29E9D",
"7X c #ABA399",
"8X c #B3A79D",
"9X c #A6A4A2",
"0X c #AAA8A6",
"qX c #B5ACA7",
"wX c #BCBAB4",
"eX c #B3B0AA",
"rX c #C6BFB3",
"tX c #C6C9C7",
/* pixels */
"                                            ( / C.H.$XG.+X_.+XeX6X9X4X$Xn.< 6.I                                         ",
"                                          ).O C.1X}.].! G.R.'.4X,X5X:X;XR.OX@X!.R C.                                    ",
"                                      K.&X,X,X/ F.D.'.m.J.J.J..X'.+X/.(.v.0XOXR.].v.d F.                                ",
"                                    H.@X).G.,Xc.F._._.m.^ W _.>X-X;X'.K./ 0X/.K.5X<X:X) A                               ",
"                                  6 ) W.OX!.).].c..XJ.J.S.W .XoX-X X[.S.v.,Xc.D.@X5X/.+X/.x.                            ",
"                                M.6 H W.).n.#X#X'..XJ.'.J.W -X-X@X[.].S. X-Xv.D.[.F.S.-X X-X/.                          ",
"                            ( #X5Xn.h G ).W.n.K..X.X-X%XR.J .X.XXX).].x.XX[.S.m. XJ.c. X-X+XS.                          ",
"                            ].M.].].T h C.H.!.}. XJ.'.J.c.S /.'.].XX].Q  XJ.R.D.F.( -X/.-X+Xc.c.A                       ",
"                          S.m.v.W.W.C.G G B.R.R.c.4.I p < , S ! 6.N.c.v C.v.G./.6./..X X XJ.J.J J                       ",
"                        8.) Q n.M.H.F.I c T ~ ~ I p & X @ X = : X & * = U f U ! c..X$XJ.m.J.S.A S.A                     ",
"                      b.n.) ( H.C.W.!.6.d a 1 a p X X X = X 8 p @ # w w p p p p /.{.'.{.J.c.J x.F.K.H                   ",
"                    5 b.M.M.M.K.`.R.H.~ d & X * p # a s s # B ;.P B g ;.e f * * ;.V./.D.b.c.A / K.,X X                  ",
"                    5 A D 8.F.].{.C.4.f & @ X & U w C P B # :.a.=.&.=.7.r ;.w : = U V.^ e.8.^ M.XX-X-XH 8.              ",
"                  ( v.K 3 A / ).R.! p + X = X w t.g C *.&.# 1.u.=.3.2.h. .h.n r p @ f ! N.G e.&X>X#X X[.O               ",
"                  F.].].F.) Q / 6.d = X @ * * f U.B C  . .@ 1.1.#.3.2.u. .P.C r e * = - z G H.@X X).(.n.K Q             ",
"                ( M.K.#X[.M.M./ d = X @ # w w g P.C  .O.| @ 1.w.3.2.2.3...T.+.C C C X X o e.{.}.v.(.b.J.&X/ 8.          ",
"                ;X].!.`.W.`.Q 5 , . = $ 9 j y m k.| | =.| # :.u.<.<.<.0.{ Y...+.m  .% e $ G !.W.}.C.@X;X!.T <           ",
"              M.m.W.;X1X{.H.G h = = ; # 0 M k k T.} | :.| @ :.1.<.+.$.0.' Y.+.#._ -.- t - a A.@X;X<X;XK.F.v.< XX        ",
"              v.F.m.M.`.}.`.c . . $ a 9 u +.' k T.....:.B @ =.d.<.+.#.$._ z.o.#.{ q.8 r v $ R &X<X#X`.n.C.).D H         ",
"              M.b.F.F.F.e.G ; ; . > V r M @.o.l T.....1.B @ ,.,.-.o.+.+._ k.%.+.<.0.9 P R - c !.`.!.XX}.H.F.H 4         ",
"              J.D.K./.J.N.G & o $ z M l M ] @._ %X....=.m @ *.=.-.{ +.o.k l.+.#.<.1.0 ,.>.- a ! }.].R.!.!.n., 6 +X      ",
"            5 / 8.K.!.K.C.d o o - x 8.l d.M 9.] k.#.&.=.B # :.:.,.X.-.{ _ l.#.#.<.-.u u.Y : a v R 8./ Q O O 6 J m.      ",
"            4 J I 6.! T ~ ; o $ - C d.l ] ] 9.` z.%...&.B # ,.,.-.{ +._ i f.#.%.<.<.j a.y.e > 2 < + O c o H / 5         ",
"            d J , F d 1 F X & > $ O.q.l ] ] f.l z.' |  .g @ ,.,.-.M +.i i f.o.} 3.0.u a.L.n # = & h G M.C.J.M.Q K       ",
"            & K F ;.J d d = X s - +.s.` ] ` $._ %Xi &.&.| # 7.7.O.M X.u y w.} _ +.+.u <.L.n x $ v K !.OXOX`.).F K       ",
"            S.K.'./.c.;.f p @ w q q.l.] @.] 9.` T._ | | g # :.7.Y M X.q y f.} ' o.} k 1.P.n r $ c v.#X&X].!.).D K       ",
"            ].K.'.%X%Xc.1 X @ U q w.k.] @.] $.' z.} | ..g @ :.7.*.l ` j y f.} } { o.m w.P.C j # a v.].`.K.K.).Q D       ",
"          m.'.J./.~.'.c.* = w N q w.k.] @.] 2.} z.[ | ..U @ :.7.*.l M j 0 f.} ' } ..` w.L.m B - 5 v.).].W.F.v.O K       ",
"          5 5 4 ;.;.c.F X X : B j u.k.' %.' 2.` h.| &.;.P @ :.7.-.n M q 0 2.' ` %.} [ w.h.m C - X T ( D 4 G H . / 9X    ",
"          +XOX,X-X-X4XU.* $ w :.M w.l._ } _ %.k u.| | ;.g @ :.,.>.M M q 0 2.' ` #.} _ 2.j.j  .8 a }.1X;XOX;XXXF.Q ;X    ",
"          J.M.F./.V.E.F X * * P [ j.j.k ' _ 3.k u.| &.&.g @ 5.,.=.M | 0 0 2.} ' $.} _ 2.j.m O.% 2 ). X`.H.J.m./ D K.    ",
"        v.m.m.B.B.G.{.! @ $ $ :.&.h.h.k 3...2.| 7.| &.P r @ 5.y.>.M  .q 0 w...} 0...[ w.h. .=.- I F.B.W.H.n.( n.H D.    ",
"        x.J.x.S.J.XX).U = X s 4.*.y.a.r q.C d.n L.j y.y.B X 7.7.U N ;.t - s.g n 1.O. .1.P.B :.w f K.K.J.D.6.m.v.W M.    ",
"        J m.x.S.F.).B.F X X $ x t j n X % % t $ Y - e X w @ &.g p X @ = w o n 9 g t 8 8 &.8 8 X 1 c.c.b.b.c.B.b.4 M.    ",
"        7 ) W Q Q 6.f ; . > b i.L.^.|.^.~.E.I.A.i.y.N.Y ;.X :.5.e.r.E.R b I.s.8.a.L.p.p.E.i.f p F 6.c.c.M.D.m.c.O ).    ",
"        + , 3 < O 5 & < . F r.|.3X8X8X8X8X7XrXrXeX7X3X=X^.$ %XqX7XeX5X3X=X3X=X3X*X2X2X=X%X=XZ.4.5 S F d F Q S 5 S       ",
"        3 7 7 < < d < a . $ : L a Y v R t.> R z Z.|.r.A.Z.X ~.$Xv.C.W.h 8.6 G A.r.R R b f N.I . < , , = & 4 , . W       ",
"        5 7 , A d d 4 c & G R 4.t.Z.N.~.&X~ 8.c *XwXN.a G X ! 6.h #XtX8.) 8.G A.W.T b b U `.C.2 d 5 5 4 4 S 5 O K       ",
"        A 3 A E 6.Q F ; X X & $ $ > + o e $ > 8.C.OXC.T < & 1 c H (.#XW.8.+ + h b o + o o G h . 4 f H ^ ^ Q ^ < H       ",
"        H J E x.m.b.v.F X . $ X + > - + . ; h 1X8.h C.!.+ . X O 5X) 8.n.W.> . o $ + o o + . . . F ^ m.oX-XoX+Xv.H       ",
"        J ) J v.B./.B.d & & X > p z L 2 ; o 6 wXG n./ OX5 O & K tX< M.K :XK d X z > X a d w p = d b.J.oX.X_./.Q K       ",
"        E W ( D.).+X_.f . X $ R V >.4.e 2 b z }.`.T !.0X4 . J = ).oXG $X2X4.w L L s $ N U S U * 5 b.R./.J.B.D.W K       ",
"        ) W W x.G.).G.d = & a 4.L i.i.s v L z G 3X7X1X~ 6 = c.Q c 4X0X=XB.v >.v ;.N * N ;.I I p F 6.J.b.m.m.M.J H       ",
"        3 3 , 3 F U S X . $ 2 Y x t.y.n V z z $ 2 8.6.X F X d f . X V.4.@ ;.*.L &.g # g ;.&.&.* . & J X 5 p H + H       ",
"        ( J. XXXOX_.B.v = o * v s ,.,.n n - e $ $ . $ ; v . F R V $ . : - t.- n C g 8 n &.&.P : Q B.$XR.R.K.].J.        ",
"        A x.v.S.b.Q F & X : z Y j ,.*.r Z n n $ z > x > v = p f $ z - X - d.Z n B n 8 n &.P P w f 6._.J.J.F.F./         ",
"        < < 3 3 S & & X X & : x n -.O.q q V r w >.o V v : X V N z - e > - t.r n B Z % u C C U # F 6.v.m.B.m.m.4         ",
"        7 , H Q 6.^ 6.G o . > L Z C M Z r j - n >.x >.x w X d v z - > e e C n n B j % n C C P # F 6.! v./ ^ / 4         ",
"        D v.[.].}.`.H.F . X 6 N t *. .t r n e : P a P s a X d v > > > e - V Z n C g @ t C n N w I d , S S S S .         ",
"        A / F.).}.`.!.T O o ; 1 w &.C t r n t w P a L x p X a v h > : > - V x n B s % u P g g * F W B.R.B.6./ S         ",
"        c ) K G G K I ; . o 6 a -  .C t t s e e L s P s 1 . a d > > > > - n r n n u # s C s s # a K J.c./ W I O         ",
"        J / ( / K.F.n.c . . ; 2 9 P C t w a 9 t V w L a w X a 2 z > - - - v r r g u 8 g B w t # , I /.B.M.B.J.x.        ",
"        / (.].@X;X&X}.Q . X & p : C N 9 9 e w w N : U p : X a a a > - - % x w r n u % g N w r * d D.4X-X+X.X-X{.        ",
"        K n.F.H.H.K.F.F . . > d : B n 9 w t % * v > V > : X a a z 2 $ $ # x w t n g 8 r g 9 f * & ^ '._.K.b.F.!         ",
"        Q M.H.F.H.K.H.K . . O ; % n s 8 p r * * v w U : * X a a a > $ $ # x 9 t g s % g B p s * d ! b././.D./.^ K       ",
"        h v.K.J.m.M.N.c . o & ; $ s r * p f 9 8 v w U > * . a a a 6 $ $ $ r - w t r % s V s s * d 6.c.{.R.c.F.W Q       ",
"        6 H C.F.v.v.Q 2 . . o > : s w * 9 : w : s $ v > * . a p & X $ $ # L w 9 t t = r N s v X 4 ! c.b.m.M.v.5 H       ",
"        D 5 H h G K D ; X . & 6 * s w - : : > * Y : v p : . a p a : $ X X   9 * w     s N a x X d I ! ^ / / ^ 5 Q       ",
"        K . . < + O o + . . + ; $ p         : = L X & : > X p p X X $                             , & , , & < .         ",
"                                                                                                                        "
};
