/* XPM */
static char *cd71643c59384674fbe9e9b69febb6b8DDhVyStfJW9l8KMV[] = {
/* columns rows colors chars-per-pixel */
"60 60 217 2 ",
"   c None",
".  c #010101",
"X  c #0A0604",
"o  c #060808",
"O  c #130B06",
"+  c #140C09",
"@  c #1B0E07",
"#  c #1C120B",
"$  c #1A1309",
"%  c #060917",
"&  c #091116",
"*  c #22150E",
"=  c #261B0A",
"-  c #291B0C",
";  c #2A1407",
":  c #351B0E",
">  c #3A1D0F",
",  c #281412",
"<  c #291915",
"1  c #3C1F10",
"2  c #331D19",
"3  c #321A16",
"4  c #06241B",
"5  c #2D250C",
"6  c #3B221D",
"7  c #392213",
"8  c #3A2F0F",
"9  c #151B38",
"0  c #12142C",
"q  c #291F30",
"w  c #1D232A",
"e  c #16323E",
"r  c #0E2E2E",
"t  c #222527",
"y  c #382523",
"u  c #2B2638",
"i  c #283835",
"p  c #35322B",
"a  c #432A1B",
"s  c #452815",
"d  c #5C2F18",
"f  c #552A15",
"g  c #463513",
"h  c #503A14",
"j  c #452923",
"k  c #542F27",
"l  c #4E3121",
"z  c #55312A",
"x  c #5C342D",
"c  c #563525",
"v  c #5B3A34",
"b  c #633A2B",
"n  c #6B3D34",
"m  c #633B34",
"M  c #7D3F20",
"N  c #0B4534",
"B  c #68561B",
"V  c #5D453F",
"C  c #6E4A2A",
"Z  c #67452B",
"A  c #734D2C",
"S  c #7C4427",
"D  c #78502E",
"F  c #6C423A",
"G  c #6F4432",
"H  c #774A31",
"J  c #7D5735",
"K  c #7C6721",
"L  c #173541",
"P  c #1A2250",
"I  c #232C50",
"U  c #2A3D68",
"Y  c #16534C",
"T  c #33494D",
"R  c #126D58",
"E  c #13765A",
"W  c #336F56",
"Q  c #294766",
"!  c #2C596C",
"~  c #3F5D66",
"^  c #394872",
"/  c #314F6E",
"(  c #1A7A68",
")  c #1B6C66",
"_  c #28636C",
"`  c #346E6D",
"'  c #4A5755",
"]  c #534F52",
"[  c #7A5644",
"{  c #4C6F56",
"}  c #627A51",
"|  c #495C79",
" . c #414F77",
".. c #685565",
"X. c #4A657F",
"o. c #59676D",
"O. c #757076",
"+. c #8B5C35",
"@. c #825533",
"#. c #8E4825",
"$. c #A6532B",
"%. c #B25A2E",
"&. c #996D25",
"*. c #9A663B",
"=. c #986539",
"-. c #AD7D2A",
";. c #A36D3D",
":. c #AB6C3C",
">. c #BC6131",
",. c #A7703F",
"<. c #A9713F",
"1. c #CF6936",
"2. c #C86534",
"3. c #D16A36",
"4. c #EA763C",
"5. c #E37239",
"6. c #F0793E",
"7. c #855442",
"8. c #836A4D",
"9. c #8A7046",
"0. c #8C6951",
"q. c #A46F45",
"w. c #A67346",
"e. c #A97241",
"r. c #A77549",
"t. c #B37651",
"y. c #8F766F",
"u. c #D47D56",
"i. c #E77A47",
"p. c #FB7F41",
"a. c #07825F",
"s. c #0D8664",
"d. c #148565",
"f. c #158B6A",
"g. c #198B6B",
"h. c #198866",
"j. c #12916E",
"k. c #279374",
"l. c #35987D",
"z. c #258763",
"x. c #798176",
"c. c #B5902F",
"v. c #BEA333",
"b. c #CB9332",
"n. c #D49834",
"m. c #F78F3D",
"M. c #D9A838",
"N. c #D8B73A",
"B. c #C1A534",
"V. c #F4AF3B",
"C. c #F5B13C",
"Z. c #FCB53D",
"A. c #FCB73D",
"S. c #E7AD37",
"D. c #E8C23E",
"F. c #A49156",
"G. c #9D8B65",
"H. c #AF9468",
"J. c #AEA566",
"K. c #948753",
"L. c #FF8343",
"P. c #FF8946",
"I. c #E98D48",
"U. c #DDA54B",
"Y. c #DEB464",
"T. c #EABF6A",
"R. c #FBCA42",
"E. c #FFDB45",
"W. c #FCD443",
"Q. c #FFE147",
"!. c #FFE348",
"~. c #F0C36C",
"^. c #4A5D81",
"/. c #556A8A",
"(. c #566987",
"). c #53768E",
"_. c #676C82",
"`. c #6B7086",
"'. c #399C80",
"]. c #548B8D",
"[. c #4AA38B",
"{. c #55A892",
"}. c #6EB5A3",
"|. c #78BAA8",
" X c #6E8DA0",
".X c #9D928E",
"XX c #9B9892",
"oX c #9AA39A",
"OX c #B7AB97",
"+X c #8398AC",
"@X c #9AADBA",
"#X c #93A4A4",
"$X c #B1B7B4",
"%X c #A59793",
"&X c #CCB69E",
"*X c #D6BEA9",
"=X c #D6BDA7",
"-X c #8EC4B8",
";X c #D7C7B6",
":X c #E0CDBD",
">X c #A1B6C0",
",X c #9DCCC2",
"<X c #9DD0C2",
"1X c #BCD8D7",
"2X c #ACCCCB",
"3X c #C7DCDB",
"4X c #CED4CA",
"5X c #E4D2C8",
"6X c #C9E0DC",
"7X c #D6E3D6",
"8X c #CDE3E2",
"9X c #D3EAEA",
"0X c #D4E7E6",
"qX c #E4F2EF",
"wX c #FEFEFE",
"eX c #F3FAF9",
"rX c #F1F0EB",
/* pixels */
"                                                                                                                        ",
"                                                                                                                        ",
"                                                                                                                        ",
"                                                                                                                        ",
"                                                                                                                        ",
"                                                                                                                        ",
"                                                . . . . .                                                               ",
"                                              = < = < < # +                                                             ",
"                                          . - D =.+.+.+.G j + .                                                         ",
"                                        + a Z *.e.,.e.e.q.b # .                                                         ",
"                                      . $ C ,.*.;.;.;.e.<.@.* .                                                         ",
"                                      . $ C ,.,.;.,.;.*.<.J * .                                                         ",
"                                      . + C <.,.*.e.,.e.<.@.= .                                                         ",
"                                      . + A <.,.,.*.=.*.;.D # .                                                         ",
"                                      . + C e.e.+.c c c c 6 O .                                                         ",
"                                      . + A *.@.Z 6 a c c a O .                                                         ",
"                            o X . o . . $ A +.c 2 6 Z =.q.A # .                                                         ",
"                          o 9 L L e e e T [ +.j < 7 j Z Z j + .                                                         ",
"                        & 4 Y _ ! ` ).).(.[ @.j 2 2 2 2 2 < & o                                                         ",
"                      o N E d.( _ ].2X2X$Xy.m y 2 2 2 2 2 2 I 9 o                                                       ",
"                    4 N R j.f.z.o.XX3X9X6X&Xy.V 6 2 2 2 2 y u 9 0 %                                                     ",
"                  . r d.f.g.h.{ 9.H.4X6X9XeX5X0.k j 2 2 2 2 2 u I 9 +                                                   ",
"                  o N s.j.z.x.9.r.r.H.;XeXwX5Xt.#.v b z y 7 1 u Q T j * .                                               ",
"                  o r N R z.K <.e.;.q.=XwXwXrX&Xt.@.H H z j i T ! ] m , .                                               ",
"                      o L ~ 8.w.:.=.r.*XwXwXwXwX4Xt.w.q.7.] W ( ! ] c , .                                               ",
"                      o L ~ [ ,.:.;.r.*XwXwXwXwXrX5X:X:X5X$Xl.s.( ' v , .                                               ",
"                      o L ~ [ ,.;.=.w.*XwXwXwXwXwXwXwXwXqX-Xl.s.d.W v , .                                               ",
"                      o L ~ 8.e.;.;.w.=XwXwXwXwXwXwXwXqX|.k.f.f.d.{ v , .                                               ",
"                    . . % i J ;.;.;.,.&XqXwXwXwXwXwX6X|.l.s.s.l.}.O.F * . . . . . .                                     ",
"                  . O # + 5 J ,.;.;.q.OX6XeXeXwXeX7X}.f.s.g.k.}.1X%Xm 3 + O + + o .                                     ",
"                  . 8 J +.+.=.,.;.;.w.OX6X9X0X0X,X[.k.s.s.k.-X1X6X.Xn z z z z z 3 .                                     ",
"                  . g <.<.,.,.;.;.;.r.OX0X9X1X-X[.f.a.f.[.-X1X9X6X.XF n n n F n 6 X                                     ",
"                  . 6 +.,.,.,.*.;.*.0.%X4X1X-X'.s.f.g.'.,X3X8X8X8X.XF m n n m x 2 o                                     ",
"                    # 8 A <.e.<.q.[ ] | ).[.'.g.s.f.{.,X8X9X8X9X8X.Xn n n n k , O                                       ",
"                      . a Z C A J ] U Q ! ) ( f.k.{.,X8X1X>X@X>X#XO.j j j j 3 o                                         ",
"                        X O X & I U ! ! ! ! _ d.{.2X3X1X X/. . . .I X . . X X                                           ",
"                            . % P Q ! ! ! ^ X.` ].+X+X X)./.^ U U 9 . .                                                 ",
"                            . & P I Q / ^ ^.)./././.O.O.y.O.......v 7 ;                                                 ",
"                                o w / ^  .^./././.(.G.U.I.i.i.i.i.i.1.f .                                               ",
"                                . p K.G.F.J.J.J.H.H.U.A.P.L.L.L.p.L.6.d .                                               ",
"                                # K W.Q.E.E.E.E.D.n.b.n.I.p.L.p.L.L.4.d .                                               ",
"                            . 8 -.S.E.Q.E.E.Q.!.c.g = s >.L.L.L.L.L.4.d .                                               ",
"                            . s n.R.E.E.E.E.D.c.B X . O $.p.L.L.L.L.4.d .                                               ",
"                            . 8 b.R.W.E.E.Q.v.8 X   . @ $.L.L.p.L.L.4.d .                                               ",
"                            . g M.E.E.E.E.Q.B.5 .     $ $.L.L.L.L.L.4.d .                                               ",
"                            . g N.Q.E.E.E.Q.B.5 .     @ M >.6.L.L.L.i.#.s                                               ",
"                            . g N.Q.E.E.E.Q.B.5 .       X s 2.L.L.p.L.6.>.1 .                                           ",
"                            . 8 N.Q.E.E.E.W.c.5 .       . - 2.P.L.L.L.P.3.1 .                                           ",
"                            - B S.Q.E.E.W.M.&.=         . : 2.L.p.L.L.L.1.1 .                                           ",
"                          = &.n.C.R.E.!.D.B $           . : 2.L.L.p.L.L.1.7 .                                           ",
"                        . = c.Z.C.A.R.R.M.g .           . : 2.P.L.p.L.L.1.1 .                                           ",
"                        . = -.Z.C.C.V.Z.n.g .           . : %.p.p.L.L.L.1.1 .                                           ",
"                        . = -.A.C.V.V.A.n.g .               : M i.L.L.L.3.1 .                                           ",
"                        . = -.A.C.V.V.A.n.g .               . f 5.L.L.L.3.1 .                                           ",
"                        . = -.A.C.C.V.V.b.g .               . f 5.P.p.L.3.1 .                                           ",
"                        . = -.V.V.Z.V.&.h -                 . f 4.L.6.m.5.f                                             ",
"                        . 5 F.~.T.~.Y.C .                   . a t.I.u.u.t.V                                             ",
"                        . t oX7X4X7X4X{ .                   . t ..`._.(.O.(.^.                                          ",
"                        . t #X9X8X9X3Xo..                   o w ^.)././././.(.                                          ",
"                        . w #X9X8X0X3X' o                   . w ^./././././.|                                           "
};
