/* XPM */
static char *result[] = {
/* columns rows colors chars-per-pixel */
"60 61 170 2 ",
"   c #C16C0E",
".  c #CF7E07",
"X  c #CC7009",
"o  c #C0701C",
"O  c #D18208",
"+  c #D98908",
"@  c #DF9608",
"#  c #E49409",
"$  c #EC9508",
"%  c #E29B09",
"&  c #ED9C09",
"*  c #F09D08",
"=  c #D6AB09",
"-  c #DBAE09",
";  c #DFB009",
":  c #D9B11E",
">  c #E5A109",
",  c #EDA309",
"<  c #EDAB09",
"1  c #F3A508",
"2  c #F4AB08",
"3  c #E3B309",
"4  c #ECB409",
"5  c #E7B909",
"6  c #ECBA09",
"7  c #F4B408",
"8  c #F3BC09",
"9  c #F9BD09",
"0  c #E6A61C",
"q  c #F1B813",
"w  c #F0B71A",
"e  c #CC8C28",
"r  c #D38D29",
"t  c #D39321",
"y  c #D59F2D",
"u  c #DBB633",
"i  c #DDB73C",
"p  c #EFB727",
"a  c #EDBF2A",
"s  c #F0B724",
"d  c #EEC309",
"f  c #EDCD0A",
"g  c #F5C209",
"h  c #F9C409",
"j  c #F5CC09",
"k  c #FDCC08",
"l  c #EED30B",
"z  c #F7D309",
"x  c #FCD209",
"c  c #FBDB09",
"v  c #FDCE16",
"b  c #FDCF1B",
"n  c #EBD11A",
"m  c #F8DB12",
"M  c #F7D51E",
"N  c #FBD11C",
"B  c #F6DE1E",
"V  c #FCE408",
"C  c #FCEC08",
"Z  c #FDF209",
"A  c #FDFB0B",
"S  c #FCEA1F",
"D  c #FDF510",
"F  c #FDFB10",
"G  c #EACF25",
"H  c #F6D521",
"J  c #FADC20",
"K  c #EACE33",
"L  c #F5D634",
"P  c #FAD034",
"I  c #FBD33A",
"U  c #F7DB3C",
"Y  c #F8E328",
"T  c #FAE929",
"R  c #FBED23",
"E  c #FDFB23",
"W  c #FCF82F",
"Q  c #FCF423",
"!  c #F9E936",
"~  c #FCFB32",
"^  c #F9F63E",
"/  c #DBB944",
"(  c #DCB249",
")  c #E5C04C",
"_  c #E7C84A",
"`  c #E9CD44",
"'  c #FBD443",
"]  c #F0CA5A",
"[  c #F7D354",
"{  c #FCD855",
"}  c #FAD65D",
"|  c #F9EE43",
" . c #F8F144",
".. c #FCF946",
"X. c #F9F04E",
"o. c #FAE057",
"O. c #F6EE5F",
"+. c #FCF850",
"@. c #F9F45A",
"#. c #F9D760",
"$. c #FBD963",
"%. c #FDDC6B",
"&. c #E2C97C",
"*. c #F3D571",
"=. c #F0D47B",
"-. c #F3D87D",
";. c #FCE567",
":. c #F5ED67",
">. c #F8E56B",
",. c #F5F065",
"<. c #FDF46D",
"1. c #F7E179",
"2. c #F4EA7B",
"3. c #F9F57B",
"4. c #E0CA83",
"5. c #E3CF8F",
"6. c #F2DD86",
"7. c #F3D584",
"8. c #EDDB9D",
"9. c #EAD493",
"0. c #FBE38E",
"q. c #F1EE8A",
"w. c #FDF685",
"e. c #F7F08E",
"r. c #F7E096",
"t. c #FAE495",
"y. c #F2EE92",
"u. c #F8E19A",
"i. c #EFDFAF",
"p. c #E4D9B7",
"a. c #EEEBAB",
"s. c #FAE6AD",
"d. c #FAE8AE",
"f. c #F9F6AB",
"g. c #EEE0B0",
"h. c #EDE4BD",
"j. c #FBEBB4",
"k. c #F2E4BB",
"l. c #F1E8BD",
"z. c #FCEDBE",
"x. c #FDFAB1",
"c. c #E5DDC3",
"v. c #E9E1C5",
"b. c #EAE3CC",
"n. c #F3E9C4",
"m. c #FCF0C6",
"M. c #FDF3C9",
"N. c #E7E2D7",
"B. c #E9E3D2",
"V. c #ECEAD6",
"C. c None",
"Z. c None",
"A. c None",
"S. c None",
"D. c None",
"F. c None",
"G. c None",
"H. c None",
"J. c None",
"K. c None",
"L. c None",
"P. c None",
"I. c None",
"U. c None",
"Y. c None",
"T. c None",
"R. c None",
"E. c None",
"W. c None",
"Q. c None",
/* pixels */
"Q.Q.Q.Q.Q.Q.Q.Q.Q.Q.E.T.H.H.E.E.T.Y.H.E.E.E.H.Y.E.E.E.H.H.E.E.E.Y.H.E.E.E.H.H.E.E.E.H.H.J.E.E.Y.H.T.Q.Q.Q.Q.Q.Q.Q.Q.Q.Q.",
"Q.Q.Q.Q.Q.Q.Q.Q.Q.Q.F.E.W.W.F.F.T.W.W.G.G.H.W.W.H.F.Y.W.W.Y.F.G.W.W.T.F.G.W.W.T.F.F.W.W.E.F.F.W.W.E.Q.Q.Q.Q.Q.Q.Q.Q.Q.Q.",
"Q.Q.Q.Q.Q.Q.Q.Q.Q.Q.F.T.W.W.F.F.T.W.W.H.F.H.W.W.H.F.H.W.W.Y.F.G.W.W.T.F.F.W.W.T.F.G.W.W.E.F.F.W.W.E.Q.Q.Q.Q.Q.Q.Q.Q.Q.Q.",
"Q.Q.Q.Q.Q.Q.Q.Q.Q.Q.E.T.H.I.W.E.E.H.H.E.W.E.H.H.I.e.T C c j N b N ' 0.U.E.H.H.E.E.W.H.H.T.E.W.H.H.T.Q.Q.Q.Q.Q.Q.Q.Q.Q.Q.",
"Q.Q.Q.Q.Q.Q.Q.Q.Q.Q.W.T.F.F.W.W.E.F.F.W.W.E.F.Z.X.C C V V c k k k k k N M.F.F.T.W.W.G.F.Y.W.W.G.F.H.Q.Q.Q.Q.Q.Q.Q.Q.Q.Q.",
"Q.Q.Q.Q.Q.Q.Q.Q.Q.Q.E.T.H.T.E.E.T.G.Y.E.E.E.J.,.Z c j h x x x k k k k k k g.H.T.E.E.H.Y.T.E.E.T.H.T.Q.Q.Q.Q.Q.Q.Q.Q.Q.Q.",
"Q.Q.Q.Q.Q.Q.Q.Q.Q.Q.F.E.W.W.F.F.T.W.W.G.F.H.x.Z c 8 7 7 7 9 x k k k k k k k P.T.G.F.W.W.E.F.F.W.W.E.Q.Q.Q.Q.Q.Q.Q.Q.Q.Q.",
"Q.Q.Q.Q.Q.Q.Q.Q.Q.Q.F.E.W.W.G.F.Y.W.W.H.F.G.~ V 8 7 7 7 2 2 9 x k k k k k k { I.F.F.W.W.E.F.F.E.W.E.Q.Q.Q.Q.Q.Q.Q.Q.Q.Q.",
"Q.Q.Q.Q.Q.Q.Q.Q.Q.Q.E.T.Y.Y.E.E.E.H.H.E.E.f.Z g 8 7 7 7 2 2 1 k x k k k k k k j.E.E.H.Y.T.E.E.Y.T.T.Q.Q.Q.Q.Q.Q.Q.Q.Q.Q.",
"Q.Q.Q.Q.Q.Q.Q.Q.Q.Q.W.T.F.G.W.W.E.F.F.W.W...c 8 8 8 7 7 1 2 1 7 c k k k k k k I W.W.F.G.T.W.W.F.F.H.Q.Q.Q.Q.Q.Q.Q.Q.Q.Q.",
"Q.Q.Q.Q.Q.Q.Q.Q.Q.Q.E.T.Y.H.E.E.Y.H.Y.E.S.Z g 8 7 7 7 2 2 2 1 2 x c k k k k k k d.E.H.H.T.E.E.I.H.T.Q.Q.Q.Q.Q.Q.Q.Q.Q.Q.",
"Q.Q.Q.Q.Q.Q.Q.Q.Q.Q.F.T.W.W.F.F.T.W.W.F.e.V 8 8 7 7 7 2 2 1 1 2 h c k k k k k k [ G.W.W.E.F.F.W.W.E.Q.Q.Q.Q.Q.Q.Q.Q.Q.Q.",
"Q.Q.Q.Q.Q.Q.Q.Q.Q.Q.F.T.W.W.G.F.Y.W.W.H. .z 8 8 7 7 j 7 1 1 2 2 8 V k k k k k k k B.W.W.E.F.F.W.W.E.Q.Q.Q.Q.Q.Q.Q.Q.Q.Q.",
"Q.Q.Q.Q.Q.Q.Q.Q.Q.Q.E.T.H.H.E.E.E.H.H.K.Z g 8 6 7 7 c 6 1 1 2 2 7 c c k k k k k k t.H.Y.T.E.E.H.H.T.Q.Q.Q.Q.Q.Q.Q.Q.Q.Q.",
"Q.Q.Q.Q.Q.Q.Q.Q.Q.Q.W.T.G.F.W.W.E.F.F.f.C 6 8 7 7 7 C z 1 1 2 7 7 z V k k k k k k { H.F.Y.W.W.G.G.Y.Q.Q.Q.Q.Q.Q.Q.Q.Q.Q.",
"Q.Q.Q.Q.Q.Q.Q.Q.Q.Q.W.T.H.H.W.W.T.H.H.3.c 8 7 7 7 g A C 1 1 2 7 7 k C k k k k k k v F.G.T.W.W.H.H.H.Q.Q.Q.Q.Q.Q.Q.Q.Q.Q.",
"Q.Q.Q.Q.Q.Q.Q.Q.Q.Q.F.E.W.W.F.F.T.W.W.+.g 8 6 7 7 x A A < 2 2 7 8 g Z k k k k k k k m.W.E.F.F.W.W.E.Q.Q.Q.Q.Q.Q.Q.Q.Q.Q.",
"Q.Q.Q.Q.Q.Q.Q.Q.Q.Q.F.E.W.W.G.F.J.W.W.Q 8 6 7 7 7 C A A 5 2 7 7 8 g C z k k k k k k 0.W.E.F.F.E.W.E.Q.Q.Q.Q.Q.Q.Q.Q.Q.Q.",
"Q.Q.Q.Q.Q.Q.Q.Q.Q.Q.E.T.T.Y.E.E.E.Y.A.C 9 8 7 7 7 A A A l 2 7 7 8 g V c k k k k k k $.I.T.E.E.T.T.T.Q.Q.Q.Q.Q.Q.Q.Q.Q.Q.",
"Q.Q.Q.Q.Q.Q.Q.Q.Q.Q.W.Y.F.G.W.W.E.F.a.c 8 7 7 7 k A A A Z 2 7 7 8 g c c k k k k k k P N.Y.W.W.G.F.H.Q.Q.Q.Q.Q.Q.Q.Q.Q.Q.",
"Q.Q.Q.Q.Q.Q.Q.Q.Q.Q.W.T.H.H.E.W.T.F.y.z 8 7 7 7 V A A A A 5 7 8 9 g z c k k k k k k k B.T.W.W.H.G.Y.Q.Q.Q.Q.Q.Q.Q.Q.Q.Q.",
"Q.Q.Q.Q.Q.Q.Q.Q.Q.Q.F.T.W.W.G.F.T.W.w.j 8 7 7 x Z Z Z Z Z V 8 9 g h g V g h k k k k k M.E.F.F.W.W.E.Q.Q.Q.Q.Q.Q.Q.Q.Q.Q.",
"Q.Q.Q.Q.Q.Q.Q.Q.Q.Q.F.E.W.W.G.F.T.W.<.g 4 7 z C Z C Z C C C c g g g 9 c g h k k k k k j.E.F.F.E.W.E.Q.Q.Q.Q.Q.Q.Q.Q.Q.Q.",
"Q.Q.Q.Q.Q.Q.Q.Q.Q.Q.T.T.T.Y.E.E.T.Y.@.8 7 z V V V V V V V V V c h g 6 c g k k k k k k r.I.T.T.T.T.T.Q.Q.Q.Q.Q.Q.Q.Q.Q.Q.",
"Q.Q.Q.Q.Q.Q.Q.Q.Q.Q.W.T.F.F.W.W.T.F.| < 6 c V V V V V c V c V V x g 6 x g g k k k k k -.T.W.W.G.F.H.Q.Q.Q.Q.Q.Q.Q.Q.Q.Q.",
"Q.Q.Q.Q.Q.Q.Q.Q.Q.Q.W.T.F.G.W.W.T.F.! > % x x c x c c x c c x c z % 7 k g g g k k k k *.Y.W.W.F.G.H.Q.Q.Q.Q.Q.Q.Q.Q.Q.Q.",
"Q.Q.Q.Q.Q.Q.Q.Q.Q.Q.F.T.W.W.G.F.T.W.J > # x k k x x x x x x x x 6 + 7 h g g g k k k k %.E.F.F.W.W.E.Q.Q.Q.Q.Q.Q.Q.Q.Q.Q.",
"Q.Q.Q.Q.Q.Q.Q.Q.Q.Q.F.E.W.W.G.F.T.W.S , & 7 k k k k k k k k k k @ , 2 9 8 g g g k k k $.E.F.F.W.W.E.Q.Q.Q.Q.Q.Q.Q.Q.Q.Q.",
"Q.Q.Q.Q.Q.Q.Q.Q.Q.Q.T.T.T.T.T.E.T.T.m , , < k k k k k k k k k k O 7 2 9 g 8 g h h k k } T.T.T.T.T.E.Q.Q.Q.Q.Q.Q.Q.Q.Q.Q.",
"Q.Q.Q.Q.Q.Q.Q.Q.Q.Q.W.T.F.G.W.W.E.F.z , , @ k k k k k k k k k k . 7 2 9 6 6 g g h k k [ Y.W.W.H.F.Y.Q.Q.Q.Q.Q.Q.Q.Q.Q.Q.",
"Q.Q.Q.Q.Q.Q.Q.Q.Q.Q.W.T.F.F.W.W.E.F.x , & # x k k k k k k k k 4 @ 2 1 9 8 6 8 g h h k [ I.W.W.G.F.H.Q.Q.Q.Q.Q.Q.Q.Q.Q.Q.",
"Q.Q.Q.Q.Q.Q.Q.Q.Q.Q.F.E.W.W.F.F.Y.W.z & $ $ k k k k k k k k k % 2 2 1 9 6 6 6 g g k k $.E.F.F.W.W.E.Q.Q.Q.Q.Q.Q.Q.Q.Q.Q.",
"Q.Q.Q.Q.Q.Q.Q.Q.Q.Q.F.T.W.W.F.F.Y.W.M & & & 4 k k k k k k k k O 7 2 1 9 5 5 8 8 g h g $.E.F.F.W.W.E.Q.Q.Q.Q.Q.Q.Q.Q.Q.Q.",
"Q.Q.Q.Q.Q.Q.Q.Q.Q.Q.T.T.E.T.T.T.Y.E.H , & $ , k k k k k k k k . 2 1 1 9 4 4 6 6 g g k $.T.T.T.T.T.E.Q.Q.Q.Q.Q.Q.Q.Q.Q.Q.",
"Q.Q.Q.Q.Q.Q.Q.Q.Q.Q.W.T.F.G.W.W.T.F.L & & $ < z x x x x x x 8 + 2 1 1 9 5 3 4 6 8 g g *.T.W.W.G.F.H.Q.Q.Q.Q.Q.Q.Q.Q.Q.Q.",
"Q.Q.Q.Q.Q.Q.Q.Q.Q.Q.W.T.F.G.W.W.E.F.U & $ $ 2 c c c c c c c d # * 1 1 h 3 5 4 6 6 g g =.Y.W.W.F.F.T.Q.Q.Q.Q.Q.Q.Q.Q.Q.Q.",
"Q.Q.Q.Q.Q.Q.Q.Q.Q.Q.F.T.W.W.G.F.I.W.o.& $ $ 7 V C V V V V C d $ $ * 1 h 3 3 3 4 6 8 g u.E.F.F.E.W.E.Q.Q.Q.Q.Q.Q.Q.Q.Q.Q.",
"Q.Q.Q.Q.Q.Q.Q.Q.Q.Q.F.E.W.W.G.F.T.W.>.& # $ 7 Z C Z Z C Z C j # $ $ $ h - 3 3 4 6 8 8 s.E.F.F.W.W.E.Q.Q.Q.Q.Q.Q.Q.Q.Q.Q.",
"Q.Q.Q.Q.Q.Q.Q.Q.Q.Q.T.T.E.E.Y.T.T.T.0., $ $ 7 A A A A A A A l # $ * $ h - 3 3 3 6 6 g k.E.T.T.E.E.T.Q.Q.Q.Q.Q.Q.Q.Q.Q.Q.",
"Q.Q.Q.Q.Q.Q.Q.Q.Q.Q.W.Y.F.F.W.W.T.F.6., $ $ 7 F A A A A A A l $ $ $ * 9 = - 3 3 5 6 6 v.H.W.W.F.F.H.Q.Q.Q.Q.Q.Q.Q.Q.Q.Q.",
"Q.Q.Q.Q.Q.Q.Q.Q.Q.Q.W.T.F.F.W.W.E.F.8.4 $ & 4 E E E E E E S n # $ $ 1 6 = - - 3 3 6 a N.Y.W.W.H.F.H.Q.Q.Q.Q.Q.Q.Q.Q.Q.Q.",
"Q.Q.Q.Q.Q.Q.Q.Q.Q.Q.G.T.W.E.H.H.T.W.D.7 $ & q ~ ~ ~ ~ W W ! G $ $ $ 7 5 = = - 3 3 5 ] W.T.H.H.E.W.E.Q.Q.Q.Q.Q.Q.Q.Q.Q.Q.",
"Q.Q.Q.Q.Q.Q.Q.Q.Q.Q.F.E.W.W.G.F.Y.W.W.9 $ & w ..............K $ $ $ 7 3 = = - ; 3 4 7.W.E.F.F.W.W.E.Q.Q.Q.Q.Q.Q.Q.Q.Q.Q.",
"Q.Q.Q.Q.Q.Q.Q.Q.Q.Q.Y.T.E.E.Y.Y.J.E.E.U & & p @.@.i   y @.@.` $ $ * h - = = - - 3 3 i.E.T.Y.Y.T.E.E.Q.Q.Q.Q.Q.Q.Q.Q.Q.Q.",
"Q.Q.Q.Q.Q.Q.Q.Q.Q.Q.W.Y.F.G.W.W.Y.F.F.$., , p :.e O < % t O._ $ $ * h - = = = - - 3 C.F.Y.W.W.H.F.Y.Q.Q.Q.Q.Q.Q.Q.Q.Q.Q.",
"Q.Q.Q.Q.Q.Q.Q.Q.Q.Q.W.T.F.F.W.W.E.F.F.t.8 & 0 o % 6 < 1 $ r ( $ $ 1 g = = = = - - ) F.F.Y.W.W.G.G.H.Q.Q.Q.Q.Q.Q.Q.Q.Q.Q.",
"Q.Q.Q.Q.Q.Q.Q.Q.Q.Q.F.T.W.W.H.H.E.W.W.n.z , % , 4 7 < 1 * $ X $ $ 7 5 = = = = = - &.W.W.T.H.H.E.W.E.Q.Q.Q.Q.Q.Q.Q.Q.Q.Q.",
"Q.Q.Q.Q.Q.Q.Q.Q.Q.Q.F.E.W.W.G.F.Y.W.W.G.J , , < 4 4 , & * $ $ $ $ h ; = = = = = - c.W.W.E.F.F.W.W.E.Q.Q.Q.Q.Q.Q.Q.Q.Q.Q.",
"Q.Q.Q.Q.Q.Q.Q.Q.Q.Q.H.E.E.E.Y.H.E.E.E.I.>.6 < < 3 2 , & & $ $ $ 1 g = = = = = = / H.E.E.T.H.Y.E.E.E.Q.Q.Q.Q.Q.Q.Q.Q.Q.Q.",
"Q.Q.Q.Q.Q.Q.Q.Q.Q.Q.W.T.F.F.W.W.E.F.F.W.M.c < 3 < < , * $ $ $ $ 9 6 = = = = = = 8.W.H.F.T.W.W.G.F.H.Q.Q.Q.Q.Q.Q.Q.Q.Q.Q.",
"Q.Q.Q.Q.Q.Q.Q.Q.Q.Q.W.H.F.F.W.W.T.F.F.W.W.S 8 < < , 1 $ $ $ $ * h ; = = = = = : R.W.F.G.Y.W.W.H.F.H.Q.Q.Q.Q.Q.Q.Q.Q.Q.Q.",
"Q.Q.Q.Q.Q.Q.Q.Q.Q.Q.Y.T.E.E.I.H.T.E.E.H.H.2.c 3 < , & & $ $ * 7 g - = = = = = 5.H.Y.E.E.E.H.H.E.E.E.Q.Q.Q.Q.Q.Q.Q.Q.Q.Q.",
"Q.Q.Q.Q.Q.Q.Q.Q.Q.Q.F.E.W.W.G.F.T.W.W.G.F.V.A j , , & $ $ $ & k 3 = = = = = u I.G.F.W.W.E.F.F.W.W.E.Q.Q.Q.Q.Q.Q.Q.Q.Q.Q.",
"Q.Q.Q.Q.Q.Q.Q.Q.Q.Q.Y.E.E.E.Y.Y.T.E.E.Y.J.T.3.C 4 & $ $ $ & h g = = = = = = h.T.H.Y.E.E.E.H.H.E.E.E.Q.Q.Q.Q.Q.Q.Q.Q.Q.Q.",
"Q.Q.Q.Q.Q.Q.Q.Q.Q.Q.W.T.F.G.W.W.E.F.F.W.W.E.Z.R c 7 & $ 1 h k 3 = = = = = 4.F.T.W.W.F.F.Y.W.W.H.F.H.Q.Q.Q.Q.Q.Q.Q.Q.Q.Q.",
"Q.Q.Q.Q.Q.Q.Q.Q.Q.Q.W.Y.F.G.W.W.E.F.F.W.W.E.F.h.c z h h k k 5 = = = = = 9.F.F.Y.W.W.F.F.T.W.W.F.G.H.Q.Q.Q.Q.Q.Q.Q.Q.Q.Q.",
"Q.Q.Q.Q.Q.Q.Q.Q.Q.Q.Y.E.E.E.T.H.I.E.E.Y.H.T.E.E.l.N k k k 5 = = = = / p.H.E.E.T.H.H.E.E.E.H.H.E.E.E.Q.Q.Q.Q.Q.Q.Q.Q.Q.Q.",
"Q.Q.Q.Q.Q.Q.Q.Q.Q.Q.F.E.W.W.F.F.Y.W.W.G.F.H.W.W.H.G.k.z.n.v.c.B.K.U.T.F.F.W.W.E.F.F.W.W.E.F.F.W.W.E.Q.Q.Q.Q.Q.Q.Q.Q.Q.Q.",
"Q.Q.Q.Q.Q.Q.Q.Q.Q.Q.G.T.W.E.H.H.Y.W.W.H.H.T.E.W.T.H.H.E.W.Y.H.Y.W.E.T.G.H.W.E.T.H.H.W.E.E.G.H.E.W.E.Q.Q.Q.Q.Q.Q.Q.Q.Q.Q.",
"Q.Q.Q.Q.Q.Q.Q.Q.Q.Q.W.Y.F.G.W.W.E.F.F.W.W.E.F.F.E.W.E.G.G.E.W.W.F.F.E.W.W.F.F.T.W.W.F.G.T.W.W.G.F.H.Q.Q.Q.Q.Q.Q.Q.Q.Q.Q.",
"Q.Q.Q.Q.Q.Q.Q.Q.Q.Q.W.T.F.G.W.W.T.F.F.W.W.E.F.F.E.W.E.G.F.E.W.W.F.F.E.W.W.F.F.E.W.W.G.F.Y.W.W.H.F.H.Q.Q.Q.Q.Q.Q.Q.Q.Q.Q."
};
