/* XPM */
static char *result[] = {
/* columns rows colors chars-per-pixel */
"60 60 207 2 ",
"   c #1E131C",
".  c #28161E",
"X  c #0A1A3B",
"o  c #151C36",
"O  c #271C29",
"+  c #351D21",
"@  c #3A2328",
"#  c #2C2532",
"$  c #382B34",
"%  c #2C212F",
"&  c #442426",
"*  c #482727",
"=  c #542D29",
"-  c #572B27",
";  c #433338",
":  c #513232",
">  c #65332B",
",  c #6B362D",
"<  c #6B382E",
"1  c #793E31",
"2  c #6A362E",
"3  c #62443D",
"4  c #7D4133",
"5  c #784B3B",
"6  c #061C42",
"7  c #0C345C",
"8  c #0F294B",
"9  c #263C5B",
"0  c #333959",
"q  c #212A41",
"w  c #0D3863",
"e  c #533F43",
"r  c #3F405B",
"t  c #1F5473",
"y  c #16476C",
"u  c #2D4E71",
"i  c #634A49",
"p  c #764C42",
"a  c #78574B",
"s  c #645259",
"d  c #6D5456",
"f  c #434B6C",
"g  c #464C6A",
"h  c #4E597A",
"j  c #4D5575",
"k  c #555C79",
"l  c #5B5162",
"z  c #645A68",
"x  c #735C63",
"c  c #6F536E",
"v  c #796469",
"b  c #7D6B71",
"n  c #68667C",
"m  c #5C4A4D",
"M  c #824434",
"N  c #8A4836",
"B  c #8C4B39",
"V  c #884837",
"C  c #924E3A",
"Z  c #94513B",
"A  c #9A553D",
"S  c #8F523F",
"D  c #8A5747",
"F  c #9E5B43",
"G  c #975845",
"H  c #A35D42",
"J  c #A85E41",
"K  c #8C6859",
"L  c #9A6353",
"P  c #9A6758",
"I  c #9A614E",
"U  c #A66246",
"Y  c #AB6649",
"T  c #AB6244",
"R  c #B36C4C",
"E  c #BD6E4A",
"W  c #B16647",
"Q  c #BD714D",
"!  c #BB7553",
"~  c #B77759",
"^  c #AF755B",
"/  c #856769",
"(  c #9D7369",
")  c #9E7264",
"_  c #9D7B70",
"`  c #A27563",
"'  c #B07F64",
"]  c #AE7F74",
"[  c #C0714C",
"{  c #C27550",
"}  c #C87D57",
"|  c #C37E5B",
" . c #C67C56",
".. c #B98467",
"X. c #BA947A",
"o. c #B48870",
"O. c #CC845D",
"+. c #CE865B",
"@. c #D2875B",
"#. c #CD8A64",
"$. c #C48867",
"%. c #D28E64",
"&. c #D4946C",
"*. c #DC9669",
"=. c #C79576",
"-. c #DC9C73",
";. c #D29A77",
":. c #E49D6C",
">. c #E29766",
",. c #DBA27B",
"<. c #DAA178",
"1. c #E6A06E",
"2. c #E9A473",
"3. c #E4A67A",
"4. c #E5AA7D",
"5. c #EBAC7C",
"6. c #E7A473",
"7. c #055489",
"8. c #1A5D8A",
"9. c #0079BA",
"0. c #0779B5",
"q. c #0872AB",
"w. c #704E96",
"e. c #5E6B8B",
"r. c #5E6886",
"t. c #4F6682",
"y. c #686D87",
"u. c #777385",
"i. c #657392",
"p. c #797C91",
"a. c #67718D",
"s. c #7652AB",
"d. c #6E46CE",
"f. c #8E7ABB",
"g. c #AC7FB4",
"h. c #8C74E8",
"j. c #2F89BC",
"k. c #7C839B",
"l. c #6282A1",
"z. c #6987A4",
"x. c #6F97B5",
"c. c #0489C7",
"v. c #0091D4",
"b. c #0097DB",
"n. c #4B98C6",
"m. c #529CC8",
"M. c #6BA9CE",
"N. c #978E99",
"B. c #A58D8B",
"V. c #B98D86",
"C. c #B99B94",
"Z. c #B2908D",
"A. c #AB88AA",
"S. c #B7A9A8",
"D. c #A7B1BF",
"F. c #B3AFB6",
"G. c #8AA3BA",
"H. c #CAA486",
"J. c #D9A985",
"K. c #DBB18D",
"L. c #C9AB93",
"P. c #E4AC83",
"I. c #E9AD81",
"U. c #ECB283",
"Y. c #E4B18B",
"T. c #EBB68B",
"R. c #EBB68B",
"E. c #F1BB8D",
"W. c #ECBC93",
"Q. c #E6B893",
"!. c #F2BF92",
"~. c #D7BBAE",
"^. c #CEB4AC",
"/. c #CF9E81",
"(. c #EDC299",
"). c #EFC096",
"_. c #F3C195",
"`. c #F3C499",
"'. c #F6CA9F",
"]. c #D7C1BB",
"[. c #F6CCA2",
"{. c #F4CEA9",
"}. c #F2C6A2",
"|. c #F6D1AB",
" X c #F7D5B3",
".X c #F7DBBC",
"XX c #F6D8BC",
"oX c #EACAAF",
"OX c #BEBCC4",
"+X c #C0BEC7",
"@X c #B5D3E7",
"#X c #BCD8E9",
"$X c #9CC2DA",
"%X c #C4D1DD",
"&X c #C8D4DF",
"*X c #D9D3DD",
"=X c #CACCD1",
"-X c #F8DFC3",
";X c #E5D7D1",
":X c #F9E5CE",
">X c #F9E0C6",
",X c #D4C8E1",
"<X c #CAD1E2",
"1X c white",
"2X c #E6E9EC",
"3X c #CCE1EE",
"4X c None",
/* pixels */
"4X4X4X4X4X4X4X4X4X4X4X4X4X4X4X4X4X4X4X4X4X4X4X4X4X4X4X4X4X4X4X4X4X4X4X4X4X4X4X4X4X4X4X4X4X4X4X4X4X4X4X4X4X4X4X4X4X4X4X4X",
"4X4X4X4X4X4X4X4X4X4X4X4X4X4X4X4X4X4X4X4X4X4X4X4X4X4X4X4X4X4X4X4X4X4X4X4X4X4X4X4X4X4X4X4X4X4X4X4X4X4X4X4X4X4X4X4X4X4X4X4X",
"4X4X4X4X4X4X4X4X4X4X4X4X4X4X4X4X4X4X4X4X4X4X4X4X4XC J E [ [ E [ R J C 4X4X4X4X4X4X4X4X4X4X4X4X4X4X4X4X4X4X4X4X4X4X4X4X4X",
"4X4X4X4X4X4X4X4X4X4X4X4X4X4X4X4X4X4X4X4X4X4X4X4X4XG W Q [ { { [ [ T G 4X4X4X4X4X4X4X4X4X4X4X4X4X4X4X4X4X4X4X4X4X4X4X4X4X",
"4X4X4X4X4X4X4X4X4X4X4X4X4X4X4X4X4X4X4X4X4X4X4X4XR ~ $.#.%.%.%.%.#.$.~ ^ 4X4X4X4X4X4X4X4X4X4X4X4X4X4X4X4X4X4X4X4X4X4X4X4X",
"4X4X4X4X4X4X4X4X4X4X4X4X4X4X4X4X4X4X4X4X4XZ H ! ;.Y.Q.!.!.W.W.W.W.Q.Y.&.Q H Z 4X4X4X4X4X4X4X4X4X4X4X4X4X4X4X4X4X4X4X4X4X",
"4X4X4X4X4X4X4X4X4X4X4X4X4X4X4X4X4X4X4X4XF R ~ &.Y.{. X X X XXX X X X{.Q.&.| R F 4X4X4X4X4X4X4X4X4X4X4X4X4X4X4X4X4X4X4X4X",
"4X4X4X4X4X4X4X4X4X4X4X4X4X4X4X4X4X4X4XC Y #.3.!. X-X:X>X:X>X:X>X:X-X-X|.W.3.#.Y C 4X4X4X4X4X4X4X4X4X4X4X4X4X4X4X4X4X4X4X",
"4X4X4X4X4X4X4X4X4X4X4X4X4X4X4X4X4X4X4XJ  .-.`. X-X:X:X:X:X:X:X:X:X:X:X>X X`.-.! J 4X4X4X4X4X4X4X4X4X4X4X4X4X4X4X4X4X4X4X",
"4X4X4X4X4X4X4X4X4X4X4X4X4X4X4X4X4X4X4XQ %.U.|.>X:X:X:X:X:X:X:X:X:X:X:X:X>X|.Y.%.Q 4X4X4X4X4X4X4X4X4X4X4X4X4X4X4X4X4X4X4X",
"4X4X4X4X4X4X4X4X4X4X4X4X4X4X4X4X4X4XF  .-.E.|.>X:X:X:X:X:X:X:X:X:X:X:X:X>X XE.-. .F 4X4X4X4X4X4X4X4X4X4X4X4X4X4X4X4X4X4X",
"4X4X4X4X4X4X4X4X4X4X4X4X4X4X4X4X4XA H #.4.).|.-X-X:X:X:X:X:X:X:X:X:X:X>X.X|._.5.#.J A 4X4X4X4X4X4X4X4X4X4X4X4X4X4X4X4X4X",
"4X4X4X4X4X4X4X4X4X4X4X4X4X4X4X4X4XW { ,._.`.'.|..X>X:X:X2X:X:X:X:X:X:X.X|.[.`.W.<.! W 4X4X4X4X4X4X4X4X4X4X4X4X4X4X4X4X4X",
"4X4X4X4X4X4X4X4X4X4X4X4X4X4X4X4X4XQ  .P.`.'.'.[.|..X.X.X>X.X.X>X.X.X X X[.'.'.`.P. .[ 4X4X4X4X4X4X4X4X4X4X4X4X4X4X4X4X4X",
"4X4X4X4X4X4X4X4X4X4X4X4X4X4X4X4X4X[ } P.`.'.[.'.[.|.|.|.|.|.|.|.|.|.|.[.'.'.'.`.P.} [ 4X4X4X4X4X4X4X4X4X4X4X4X4X4X4X4X4X",
"4X4X4X4X4X4X4X4X4X4X4X4X4X4X4X4X4X[ } P.`.'.'.'.'.'.'.'.'.'.'.'.[.'.'.'.'.'.'.`.P.} [ 4X4X4X4X4X4X4X4X4X4X4X4X4X4X4X4X4X",
"4X4X4X4X4X4X4X4X4X4X4X4X4X4X4X4X4X[ } P.`.'.'.'.'.'.'.'.'.'.'.'.[.[.[.[.[.'.'.`.4. .E 4X4X4X4X4X4X4X4X4X4X4X4X4X4X4X4X4X",
"4X4X4X4X4X4X4X4X4X4X4X4X4X4X4X4X4X[ } P.(.'.'.'.(.'.`.'.'.'.'.'.`.`.`.`.`.'.'.`.K.+.[ 4X4X4X4X4X4X4X4X4X4X4X4X4X4X4X4X4X",
"4X4X4X4X4X4X4X4X4X4X4X4X4X4X4X4X4X[ } P.'.'.(.K.K.K.K.K.(.'.'.(.Q.K.K.K.K.`.'.`.P. .Q 4X4X4X4X4X4X4X4X4X4X4X4X4X4X4X4X4X",
"4X4X4X4X4X4X4X4X4X4X4X4X4X4X4X4X4X[ } P.(.(.;.K a a K ` ;.'.[.,.` D a a K H.(.`.P.O.[ 4X4X4X4X4X4X4X4X4X4X4X4X4X4X4X4X4X",
"4X4X4X4X4X4X4X4X4X4X4X4X4X4X4X4X4XT ~ J.`.W.X.3 i x c c C.'.'.V./ c c i i X.W.`.,.! W 4X4X4X4X4X4X4X4X4X4X4X4X4X4X4X4X4X",
"4X4X4X4X4X4X4X4X4X4X4X4X4X4X4X4XC A U <.(.Q.X.3 / A.s.s.A.`.'.A.s.s.A.v < X.W.W.,.Y A 4X4X4X4X4X4X4X4X4X4X4X4X4X4X4X4X4X",
"4X4X4X4X4X4X4X4X4X4X4X4X4X4X4XH H A G &.R.Q.=.p B.,Xh.d.g.'.'.A.d.h.,XB.p X.R.R.=.F B 4X4X4X4X4X4X4X4X4X4X4X4X4X4X4X4X4X",
"4X4X4X4X4X4X4X4X4X4X4X4X4X4XA R O.R F #.4.T.;.P C.,Xh.d.g.'.[.A.d.h.,XC.L H.T.3.O.F Z 4X4X4X4X4X4X4X4X4X4X4X4X4X4X4X4X4X",
"4X4X4X4X4X4X4X4X4X4X4X4X4X4XJ [ *.&.=.#.-.U.Y.=.].;Xf.w.Z.'.'.B.w.f.*X~.=.Y.T.-.O...^ 4X4X4X4X4X4X4X4X4X4X4X4X4X4X4X4X4X",
"4X4X4X4X4X4X4X4X4X4X4X4X4X4X[ +.:.W.~.;.&.P.W.Q.XX;XN./ V.'.[.V./ N.;XXXR.W.P.;.&.Y.$.H 4X4X4X4X4X4X4X4X4X4X4X4X4X4X4X4X",
"4X4X4X4X4X4X4X4X4X4X4X4XN W +.>.1.W.{.Y.,.-.3.I.(.oXL.V.J.'.'.J.X.L.oX}.I.<.-.Y.W.(.;.R 4X4X4X4X4X4X4X4X4X4X4X4X4X4X4X4X",
"4X4X4X4X4X4X4X4X4X4X4X4XA R @.:.1.I.!.`.K.$.~ *.P.!.W.(.(.[.[.(.W.(.).5.*.%.J.W. X}.<.O.R 4X4X4X4X4X4X4X4X4X4X4X4X4X4X4X",
"4X4X4X4X4X4X4X4X4X4X4X4XT  .*.2.1.2.U.!.J._ K ~ &.I.R.}.'.`.`.'._.E.3.&.#.-.Y.`.{.`.I.%.R A 4X4X4X4X4X4X4X4X4X4X4X4X4X4X",
"4X4X4X4X4X4X4X4X4X4X4X4X[ } >.2.2.2.2.U.V.b l P ^ $./.Y.R.R.R.R.Y.<.$.' ^ J.`.'.`._.5.*.E H 4X4X4X4X4X4X4X4X4X4X4X4X4X4X",
"4X4X4X4X4X4X4X4X4X4X4X4X[ %.I.!.E.5.1.2...z e l z x ( | | #.#.| ..) v z v L.(.'.E.5.2.>.} E 4X4X4X4X4X4X4X4X4X4X4X4X4X4X",
"4X4X4X4X4X4X4X4X4X4X4X4X[ %.R.[.!.E.5.2.] l 9 g j k b ( ` ` ( ` ( / k j k V.T.E.5.1.:.>.@.[ 4X4X4X4X4X4X4X4X4X4X4X4X4X4X",
"4X4X4X4X4X4X4X4X4X4X4X4XR %.T.`.`.`.E.2...s 0 g k r.y.u.u.u.u.u.u.y.y.h z o.6.2.5.1.1.>.@.[ 4X4X4X4X4X4X4X4X4X4X4X4X4X4X",
"4X4X4X4X4X4X4X4X4X4X4X4XJ | 3.!.'.'.`.5.' s 0 u k i.i.i.i.i.i.i.i.i.a.c d ..-.5.U.5.2.>.@.[ J 4X4X4X4X4X4X4X4X4X4X4X4X4X",
"4X4X4X4X4X4X4X4X4X4X4X4XC R %.P.!.`.!.5...v g r h e.i.i.i.i.i.i.a.y.y.x I #.2.E.`.`.U.2.@.Q H N 4X4X4X4X4X4X4X4X4X4X4X4X",
"4X4X4X4X4X4X4X4X4X4X4X4X4XH R %.3.U.5.1.;.N.k.g f h r.i.i.i.i.e.a.n / P | -.E.`.'.'._.U.:.} J N 4X4X4X4X4X4X4X4X4X4X4X4X",
"4X4X4X4X4X4X4X4X4X4X4X4X4X4XG R %.%.%.+./.^.F.n g j t.e.e.e.a.e.y.x G ! -.R.`.'.'.'.'._.I.%.W N 4X4X4X4X4X4X4X4X4X4X4X4X",
"4X4X4X4X4X4X4X4X4X4X4X4X4X4X4XH U U U 5 p v B.S.p.f r j h t.h t.j x D ! :.E.`.'.'.'.'.`.U.%.Y N 4X4X4X4X4X4X4X4X4X4X4X4X",
"4X4X4X4X4X4X4X4X4X4X4X4X4X4X4X4XZ C M * @ : / S.N.p.p.k.p.k.k.k.p./ G ! 1.E.`.[.'.'.'.`.U.%.Y N 4X4X4X4X4X4X4X4X4X4X4X4X",
"4X4X4X4X4X4X4X4X4X4X4X4X4X4X4X4X4X4X4X+ + : p ` C.F.OXOX+X+X+X+XF.Z.I ! :.R.`.'.'.'.'.`.5.@.Y N 4X4X4X4X4X4X4X4X4X4X4X4X",
"4X4X4X4X4X4X4X4X4X4X4X4X4X4X4X4X4X4X4X. @ - 1 V ] ^.=X~.].].].].^.V.I Y O.3.E.`.'.'.`.U.-.O.H V 4X4X4X4X4X4X4X4X4X4X4X4X",
"4X4X4X4X4X4X4X4X4X4X4X4X4X4X4X4X4X4X4X+ - < N N G I I L L L L L L G B Z U O.3.R.'.`.U.-.! U 4X4X4X4X4X4X4X4X4X4X4X4X4X4X",
"4X4X4X4X4X4X4X4X4X4X4X4X4X4X4X4X4X4X. & - 1 N N N N B B B V 4 M V N V 4 4 U ~ $.$.$.$.! Y 4X4X4X4X4X4X4X4X4X4X4X4X4X4X4X",
"4X4X4X4X4X4X4X4X4X4X4X4X4X4X4X4X4X4X. & > 1 N N N N N N V 1 , , 4 M 4 4 < 4 B S S D S Z 4X4X4X4X4X4X4X4X4X4X4X4X4X4X4X4X",
"4X4X4X4X4X4X4X4X4X4X4X4X4X4X4X4X4X  . & > 4 N N N N N N 1 , - - > < < , > > , > = * > 4X4X4X4X4X4X4X4X4X4X4X4X4X4X4X4X4X",
"4X4X4X4X4X4X4X4X4X4X4X4X4X4X4X4X4X  . & > 4 N N N N N M < - & & = - - - - = - & @ + + 4X4X4X4X4X4X4X4X4X4X4X4X4X4X4X4X4X",
"4X4X4X4X4X4X4X4X4X4X4X4X4X4X4X4X4X. . * > 4 N N N N N 4 < - & @ * * & & * & @ @ @ @ @ 4X4X4X4X4X4X4X4X4X4X4X4X4X4X4X4X4X",
"4X4X4X4X4X4X4X4X4X4X4X4X4X4X4X4X4X. + * > 4 N N N N N 4 < : m e $ # # % # # # $ $ m s 4X4X4X4X4X4X4X4X4X4X4X4X4X4X4X4X4X",
"4X4X4X4X4X4X4X4X4X4X4X4X4X4X4X4X4X+ + = > 1 N N N N N 4 > i S.k.u w 7 7 7 7 7 9 t.D.=X4X4X4X4X4X4X4X4X4X4X4X4X4X4X4X4X4X",
"4X4X4X4X4X4X4X4X4X4X4X4X4X4X4X4X4XO O @ - > < , < < < > = e F.OXx.l.l.l.l.l.l.z.G.*X4X4X4X4X4X4X4X4X4X4X4X4X4X4X4X4X4X4X",
"4X4X4X4X4X4X4X4X4X4X4X4X4X4X4X4X4XX o % @ ; ; ; ; ; ; @ @ $ 4X=X&X%X%X%X%X%X%X#X&X4X4X4X4X4X4X4X4X4X4X4X4X4X4X4X4X4X4X4X",
"4X4X4X4X4X4X4X4X4X4X4X4X4X4X4X4X4X6 X q 9 y t t t t y 9 q % 4X4X4X1X1X1X1X1X1X1X4X4X4X4X4X4X4X4X4X4X4X4X4X4X4X4X4X4X4X4X",
"4X4X4X4X4X4X4X4X4X4X4X4X4X4X4X4X4X6 6 7 7.q.c.c.c.c.q.7.7 X 4X4X4X4X4X4X4X4X4X4X4X4X4X4X4X4X4X4X4X4X4X4X4X4X4X4X4X4X4X4X",
"4X4X4X4X4X4X4X4X4X4X4X4X4X4X4X4X4X6 7 7.q.c.b.b.b.v.v.q.y 6 4X4X4X4X4X4X4X4X4X4X4X4X4X4X4X4X4X4X4X4X4X4X4X4X4X4X4X4X4X4X",
"4X4X4X4X4X4X4X4X4X4X4X4X4X4X4X4X4X9 y q.c.v.v.v.v.v.v.9.8.9 4X4X4X4X4X4X4X4X4X4X4X4X4X4X4X4X4X4X4X4X4X4X4X4X4X4X4X4X4X4X",
"4X4X4X4X4X4X4X4X4X4X4X4X4X4X4X4X4XOXD.j.0.9.9.9.9.9.9.j.m.OX4X4X4X4X4X4X4X4X4X4X4X4X4X4X4X4X4X4X4X4X4X4X4X4X4X4X4X4X4X4X",
"4X4X4X4X4X4X4X4X4X4X4X4X4X4X4X4X4X4X&XM.m.n.n.n.n.n.n.M.$X2X4X4X4X4X4X4X4X4X4X4X4X4X4X4X4X4X4X4X4X4X4X4X4X4X4X4X4X4X4X4X",
"4X4X4X4X4X4X4X4X4X4X4X4X4X4X4X4X4X4X4X3X@X@X@X@X@X@X@X@X3X4X4X4X4X4X4X4X4X4X4X4X4X4X4X4X4X4X4X4X4X4X4X4X4X4X4X4X4X4X4X4X",
"4X4X4X4X4X4X4X4X4X4X4X4X4X4X4X4X4X4X4X1X1X1X1X1X1X1X1X1X4X4X4X4X4X4X4X4X4X4X4X4X4X4X4X4X4X4X4X4X4X4X4X4X4X4X4X4X4X4X4X4X",
"4X4X4X4X4X4X4X4X4X4X4X4X4X4X4X4X4X4X4X4X4X4X4X4X4X4X4X4X4X4X4X4X4X4X4X4X4X4X4X4X4X4X4X4X4X4X4X4X4X4X4X4X4X4X4X4X4X4X4X4X"
};
