/* XPM */
static char *result[] = {
/* columns rows colors chars-per-pixel */
"60 60 196 2 ",
"   c #1D121C",
".  c #28171E",
"X  c #1B1C32",
"o  c #141D33",
"O  c #1D1927",
"+  c #361D21",
"@  c #3A1F21",
"#  c #291C26",
"$  c #3E2122",
"%  c #20273C",
"&  c #432626",
"*  c #4E2926",
"=  c #4B2A28",
"-  c #532826",
";  c #5D2C28",
":  c #582C28",
">  c #57312D",
",  c #573A37",
"<  c #4F3330",
"1  c #612F2A",
"2  c #64322C",
"3  c #69362D",
"4  c #73392F",
"5  c #653D37",
"6  c #793E30",
"7  c #66433B",
"8  c #784336",
"9  c #041E46",
"0  c #03244D",
"q  c #172F53",
"w  c #0D315B",
"e  c #272D42",
"r  c #223D5B",
"t  c #293452",
"y  c #383A56",
"u  c #21334C",
"i  c #043565",
"p  c #003E73",
"a  c #423E56",
"s  c #014277",
"d  c #3C4465",
"f  c #3F506D",
"g  c #24486F",
"h  c #58505D",
"j  c #6B4B42",
"k  c #774A43",
"l  c #705146",
"z  c #424A69",
"x  c #4B4D67",
"c  c #4B5677",
"v  c #4C5778",
"b  c #4A5677",
"n  c #525D7D",
"m  c #51516B",
"M  c #6A5A67",
"N  c #75636C",
"B  c #606176",
"V  c #776C75",
"C  c #844534",
"Z  c #8A4836",
"A  c #8B4B38",
"S  c #924E39",
"D  c #94513C",
"F  c #9B553D",
"G  c #9F593F",
"H  c #A1593F",
"J  c #845747",
"K  c #9A5B44",
"L  c #865F5B",
"P  c #A85E41",
"I  c #A15D44",
"U  c #96634C",
"Y  c #876558",
"T  c #976A57",
"R  c #9F705B",
"E  c #A66145",
"W  c #AE6A4B",
"Q  c #AB6548",
"!  c #B66D4C",
"~  c #BF6F4A",
"^  c #B46746",
"/  c #BC714D",
"(  c #A36B53",
")  c #A5715F",
"_  c #A8795D",
"`  c #BB7554",
"'  c #BD7A59",
"]  c #B47659",
"[  c #8F736C",
"{  c #A87965",
"}  c #B97E64",
"|  c #C2734D",
" . c #C57B55",
".. c #C67B54",
"X. c #93817F",
"o. c #B4866B",
"O. c #B98469",
"+. c #A98275",
"@. c #BB8E72",
"#. c #B28E77",
"$. c #BE9375",
"%. c #A9856C",
"&. c #CA835C",
"*. c #D98D5E",
"=. c #D4895D",
"-. c #CE8962",
";. c #C48C6B",
":. c #C88764",
">. c #D28B63",
",. c #D58E64",
"<. c #DB9163",
"1. c #D5956D",
"2. c #DC976A",
"3. c #C89979",
"4. c #DB9D74",
"5. c #D39A75",
"6. c #CE9069",
"7. c #E69D6A",
"8. c #E09564",
"9. c #DCA077",
"0. c #DBA27B",
"q. c #E8A16E",
"w. c #E9A473",
"e. c #EBAB7B",
"r. c #E6A678",
"t. c #004E88",
"y. c #004E87",
"u. c #01518A",
"i. c #005996",
"p. c #225481",
"a. c #0068A9",
"s. c #5D6B8A",
"d. c #596686",
"f. c #4C7499",
"g. c #616E8D",
"h. c #686B81",
"j. c #6C718A",
"k. c #727289",
"l. c #75798A",
"z. c #657392",
"x. c #777F97",
"c. c #79849B",
"v. c #4682AD",
"b. c #728FAB",
"n. c #4692C1",
"m. c #8E8D9A",
"M. c #B59489",
"N. c #B59994",
"B. c #9097A7",
"V. c #BFB3B5",
"C. c #ADA3A9",
"Z. c #CCA281",
"A. c #DAAD8A",
"S. c #D4A382",
"D. c #DDB18C",
"F. c #C5A694",
"G. c #D6B095",
"H. c #E3AB81",
"J. c #EDAF80",
"K. c #EDB284",
"L. c #EFB688",
"P. c #E7B58D",
"I. c #F0B98B",
"U. c #E4B690",
"Y. c #EDBD93",
"T. c #E6B992",
"R. c #F2BE91",
"E. c #CDB1AA",
"W. c #D9BCB2",
"Q. c #ECC09B",
"!. c #F2C196",
"~. c #F4C69B",
"^. c #F6CA9F",
"/. c #F6CCA3",
"(. c #F7D1AC",
"). c #F7D5B3",
"_. c #F8DABB",
"`. c #F6D7B9",
"'. c #E8C7AC",
"]. c #B6BDC9",
"[. c #AABDCE",
"{. c #9FC7DF",
"}. c #BAC0CA",
"|. c #B4C4D3",
" X c #D2D0D4",
".X c #F7DDC1",
"XX c #F9E1C7",
"oX c #F9E6CF",
"OX c #F6E0C9",
"+X c #DFDFE3",
"@X c #D9E9F2",
"#X c #D8E3EC",
"$X c #E3E5EA",
"%X c #E6E7EB",
"&X c white",
"*X c None",
/* pixels */
"*X*X*X*X*X*X*X*X*X*X*X*X*X*X*X*X*X*X*X*X*X*X*X*X*X*X*X*X*X*X*X*X*X*X*X*X*X*X*X*X*X*X*X*X*X*X*X*X*X*X*X*X*X*X*X*X*X*X*X*X",
"*X*X*X*X*X*X*X*X*X*X*X*X*X*X*X*X*X*X*X*X*X*X*X*X*X*X*X*X*X*X*X*X*X*X*X*X*X*X*X*X*X*X*X*X*X*X*X*X*X*X*X*X*X*X*X*X*X*X*X*X",
"*X*X*X*X*X*X*X*X*X*X*X*X*X*X*X*X*X*X*X*X*X*X*X*X*X*X*X*X*X*X*X*X*X*X*X*X*X*X*X*X*X*X*X*X*X*X*X*X*X*X*X*X*X*X*X*X*X*X*X*X",
"*X*X*X*X*X*X*X*X*X*X*X*X*X*X*X*X*X*X*X*X*X*X*X*X*X*XZ P ~ ~ ~ ~ ~ | H Z *X*X*X*X*X*X*X*X*X*X*X*X*X*X*X*X*X*X*X*X*X*X*X*X",
"*X*X*X*X*X*X*X*X*X*X*X*X*X*X*X*X*X*X*X*X*X*X*X*X*X' O.6.1.1.2.1.1.1.;.} ` *X*X*X*X*X*X*X*X*X*X*X*X*X*X*X*X*X*X*X*X*X*X*X",
"*X*X*X*X*X*X*X*X*X*X*X*X*X*X*X*X*X*X*X*X*X*XZ F ^ 1.~././././././././.Y.>.Q S A *X*X*X*X*X*X*X*X*X*X*X*X*X*X*X*X*X*X*X*X",
"*X*X*X*X*X*X*X*X*X*X*X*X*X*X*X*X*X*X*X*X*XS ! :.4.Y._._._._._._._._._.(.P.1. .Q Z *X*X*X*X*X*X*X*X*X*X*X*X*X*X*X*X*X*X*X",
"*X*X*X*X*X*X*X*X*X*X*X*X*X*X*X*X*X*X*X*XS G -.e./.`.oXoXoXoXoXoXoXoXoXXX`.R.e.' S *X*X*X*X*X*X*X*X*X*X*X*X*X*X*X*X*X*X*X",
"*X*X*X*X*X*X*X*X*X*X*X*X*X*X*X*X*X*X*X*X^ / 9.^.`.XXoXoXoXoXoXoXoXoXoXoXXX).!.1.^ *X*X*X*X*X*X*X*X*X*X*X*X*X*X*X*X*X*X*X",
"*X*X*X*X*X*X*X*X*X*X*X*X*X*X*X*X*X*X*X*X/ &.K.(.XXoXoXoXoXoXoXoXoXoXoXoXoX_./.r...^ *X*X*X*X*X*X*X*X*X*X*X*X*X*X*X*X*X*X",
"*X*X*X*X*X*X*X*X*X*X*X*X*X*X*X*X*X*X*XA / 2.I.(.XXoXoXoXoXoXoXoXoXoXoXoXoX.X/.K.<.! Z *X*X*X*X*X*X*X*X*X*X*X*X*X*X*X*X*X",
"*X*X*X*X*X*X*X*X*X*X*X*X*X*X*X*X*X*X*XH &.L.!./.`..XoXoXoXoXoXoXoXoXoXoX.X)./.!.e.' H *X*X*X*X*X*X*X*X*X*X*X*X*X*X*X*X*X",
"*X*X*X*X*X*X*X*X*X*X*X*X*X*X*X*X*X*X*X~ 9.^.^.^.^.).oXoXoXoXoXoXoXoXoXXX(.^.^.^.~.1.~ *X*X*X*X*X*X*X*X*X*X*X*X*X*X*X*X*X",
"*X*X*X*X*X*X*X*X*X*X*X*X*X*X*X*X*X*X*X~ 9.^.^.^.^.(.).).`.`.`.).).).).)./.^.^.^.~.1.~ *X*X*X*X*X*X*X*X*X*X*X*X*X*X*X*X*X",
"*X*X*X*X*X*X*X*X*X*X*X*X*X*X*X*X*X*X*X~ 9.^.^.^.^.^.^.^.^.^.^.^.^.^.^.^.^.^./.^.!.1.~ *X*X*X*X*X*X*X*X*X*X*X*X*X*X*X*X*X",
"*X*X*X*X*X*X*X*X*X*X*X*X*X*X*X*X*X*X*X~ 9.^.^.^.^.^.^.^.^.^.^.^.^.^.^.^.^.^.^.^.~.1.~ *X*X*X*X*X*X*X*X*X*X*X*X*X*X*X*X*X",
"*X*X*X*X*X*X*X*X*X*X*X*X*X*X*X*X*X*X*X~ 9.^.^.^.^.^.^.^.^.^.^.^.^.^.^.^.^.^.^.^.^.1.~ *X*X*X*X*X*X*X*X*X*X*X*X*X*X*X*X*X",
"*X*X*X*X*X*X*X*X*X*X*X*X*X*X*X*X*X*X*X~ 9.^.^.^.^.^.^.^.^.^.^.^.^.^.^.^.^.^.^.^.^.,.~ *X*X*X*X*X*X*X*X*X*X*X*X*X*X*X*X*X",
"*X*X*X*X*X*X*X*X*X*X*X*X*X*X*X*X*X*X*X~ 9.^.^./.^.D.o.o.$.T.^.^.D.o.o.@.T./.^.^.~.1.~ *X*X*X*X*X*X*X*X*X*X*X*X*X*X*X*X*X",
"*X*X*X*X*X*X*X*X*X*X*X*X*X*X*X*X*X*X*X| 9.^.^./.^.o.1 ; 8 3.^.^.o.; > 8 3.^.^.^.~.1.~ *X*X*X*X*X*X*X*X*X*X*X*X*X*X*X*X*X",
"*X*X*X*X*X*X*X*X*X*X*X*X*X*X*X*X*X*X*XI 1././.D._ %.o.%.@.T.^.^.A.o.o.o.{ @.Q./.~.O.G S *X*X*X*X*X*X*X*X*X*X*X*X*X*X*X*X",
"*X*X*X*X*X*X*X*X*X*X*X*X*X*X*X*X*X*X*XA ;.Y.D.#.7 T ^./.^.^.^.^.^.^./.D.l J 3.T.I.] S K K *X*X*X*X*X*X*X*X*X*X*X*X*X*X*X",
"*X*X*X*X*X*X*X*X*X*X*X*X*X*X*X*X*X*X*XA ' 9.T 7 * Y /./.^.^.^.^.^.^.^.D.l > j _ w.W K ;.;.K *X*X*X*X*X*X*X*X*X*X*X*X*X*X",
"*X*X*X*X*X*X*X*X*X*X*X*X*X*X*X*X*X*XU W  .-.U 7 & l 3.3.3.Q.^.^.T.3.3.%., < j ( <.} o.T.0.K D *X*X*X*X*X*X*X*X*X*X*X*X*X",
"*X*X*X*X*X*X*X*X*X*X*X*X*X*X*X*X*XA ] U.1...0.o., & , 7 A 3././.@.8 , < & j Z.6...D.'./.A./ ~ *X*X*X*X*X*X*X*X*X*X*X*X*X",
"*X*X*X*X*X*X*X*X*X*X*X*X*X*X*X*XU ] 3.~.U.S.0.;.U J Y T %.D.^.^.5.) T Y J R 5.4.4.Q.`.(.J.=.~ *X*X*X*X*X*X*X*X*X*X*X*X*X",
"*X*X*X*X*X*X*X*X*X*X*X*X*X*X*XZ W U.^.^.`..X1...8.e.^./.^.^.^.^.^.^./.R.e.*.| 1./.^.^.^.I.7.` Z *X*X*X*X*X*X*X*X*X*X*X*X",
"*X*X*X*X*X*X*X*X*X*X*X*X*X*X*XP ` P.^.^.`.OX'.A.*.2.e.!.^.^.^.^././.I.e.*.] Y M.^.^.!.L.e.7...H *X*X*X*X*X*X*X*X*X*X*X*X",
"*X*X*X*X*X*X*X*X*X*X*X*X*X*X*X| -.I./.^.).XXXX'.} ' 6.H.!.!.!.T.Y.Y.4.:.` L m [ !.!.I.e.w.w.=.~ *X*X*X*X*X*X*X*X*X*X*X*X",
"*X*X*X*X*X*X*X*X*X*X*X*X*X*XD ..4.R.^.^./.(.).G.V M N { -.-.&.=.-.-.[ N M m y [ e.r.e.I.R.I.1.| *X*X*X*X*X*X*X*X*X*X*X*X",
"*X*X*X*X*X*X*X*X*X*X*X*X*XF G &.w.L.!.^.^.^.^.F.B b v N ) ) _ ) ) ) N c z d t L 7.w.J.~.^.^.4.~ *X*X*X*X*X*X*X*X*X*X*X*X",
"*X*X*X*X*X*X*X*X*X*X*X*X*X^ ~ *.7.q.K.~.^.^.^.F.B v s.j.k.k.k.k.k.k.g.s.c d t Y 7.L.!.^.^./.4.~ *X*X*X*X*X*X*X*X*X*X*X*X",
"*X*X*X*X*X*X*X*X*X*X*X*X*X~ | *.7.7.w.L.L.J.S.{ n n z.z.z.z.z.z.z.z.z.g.c d.x.M.7.L.^.^.^.^.4.| *X*X*X*X*X*X*X*X*X*X*X*X",
"*X*X*X*X*X*X*X*X*X*X*X*X*X~ | *.7.7.7.7.7.8.I k x n z.z.z.z.z.z.z.z.z.s.c c.%X).7.L.^./.^.^.4.| *X*X*X*X*X*X*X*X*X*X*X*X",
"*X*X*X*X*X*X*X*X*X*X*X*X*X~ | *.w.J.L.L.w.<.E 6 a z n d.z.z.z.z.z.g.d.d.d m V [ | 1.J.J.J.J. .I *X*X*X*X*X*X*X*X*X*X*X*X",
"*X*X*X*X*X*X*X*X*X*X*X*X*X~ | <.e.!.^.^.L.7.W J h z d d.g.g.g.g.g.s.c d z a # - 6 ! <.<.<.,.! Z *X*X*X*X*X*X*X*X*X*X*X*X",
"*X*X*X*X*X*X*X*X*X*X*X*X*X~ | r.!.~.^.^.~.P. .} V.m.y d d.b c c d.b d m C.m., & & 8 Q I P P I *X*X*X*X*X*X*X*X*X*X*X*X*X",
"*X*X*X*X*X*X*X*X*X*X*X*X*X~ | H.^.^.^.^./.Y.6.;.E.C.h.k.x.x.x.x.x.z.k.l.E.N.5 $   > A A Z Z *X*X*X*X*X*X*X*X*X*X*X*X*X*X",
"*X*X*X*X*X*X*X*X*X*X*X*X*X|  .H.^.^.^./.^.R.-.! ( N.+X$X#X$X$X$X$X$X$X X+.J 1 $   *X*X*X*X*X*X*X*X*X*X*X*X*X*X*X*X*X*X*X",
"*X*X*X*X*X*X*X*X*X*X*X*X*XP Q 5.I.~.^./.R.H. .H A ) E.E.E.E.E.E.E.E.E.N.T C 4 - @ # *X*X*X*X*X*X*X*X*X*X*X*X*X*X*X*X*X*X",
"*X*X*X*X*X*X*X*X*X*X*X*X*XZ S  .w.!.^./.L.<.E Z Z Z Z Z Z Z Z Z A Z Z Z Z Z Z 4 ; +   *X*X*X*X*X*X*X*X*X*X*X*X*X*X*X*X*X",
"*X*X*X*X*X*X*X*X*X*X*X*X*X*X*XW ` 6.2.1.&.Q C 4 4 6 Z Z Z 6 6 C Z Z Z Z Z Z Z C 4 $   *X*X*X*X*X*X*X*X*X*X*X*X*X*X*X*X*X",
"*X*X*X*X*X*X*X*X*X*X*X*X*X*X*XZ D ^ ^ Q D C 2 ; ; 3 C C 8 2 1 C Z Z Z Z Z Z Z Z C &   *X*X*X*X*X*X*X*X*X*X*X*X*X*X*X*X*X",
"*X*X*X*X*X*X*X*X*X*X*X*X*X*X*X*X*X*X8 = > 3 1 ; ; 1 3 3 2 - - 1 4 Z Z Z Z C Z Z C &   *X*X*X*X*X*X*X*X*X*X*X*X*X*X*X*X*X",
"*X*X*X*X*X*X*X*X*X*X*X*X*X*X*X*X*X*X*Xh , * - : - - - - * @ @ * 3 Z Z Z C Z Z Z Z &   *X*X*X*X*X*X*X*X*X*X*X*X*X*X*X*X*X",
"*X*X*X*X*X*X*X*X*X*X*X*X*X*X*X*X*X*X*X+X[ $ $ $ $ $ $ $ @ . . @ 2 Z Z Z A A Z Z Z &   *X*X*X*X*X*X*X*X*X*X*X*X*X*X*X*X*X",
"*X*X*X*X*X*X*X*X*X*X*X*X*X*X*X*X*X*X*X&XB.u u r r r t u % O . @ = 3 3 3 3 3 3 2 2 & . *X*X*X*X*X*X*X*X*X*X*X*X*X*X*X*X*X",
"*X*X*X*X*X*X*X*X*X*X*X*X*X*X*X*X*X*X*X&Xb.p i.a.a.a.a.y.i o . @ + $ + $ + $ $ @ @ @ @ *X*X*X*X*X*X*X*X*X*X*X*X*X*X*X*X*X",
"*X*X*X*X*X*X*X*X*X*X*X*X*X*X*X*X*X*X*X&Xb.w p t.t.t.t.i w l.l.% X X X X X X X X X X X *X*X*X*X*X*X*X*X*X*X*X*X*X*X*X*X*X",
"*X*X*X*X*X*X*X*X*X*X*X*X*X*X*X*X*X*X*X&Xm.r g p.p.p.p.g z }.}.z q 0 0 0 0 0 0 0 9 q r *X*X*X*X*X*X*X*X*X*X*X*X*X*X*X*X*X",
"*X*X*X*X*X*X*X*X*X*X*X*X*X*X*X*X*X*X*X*X X].|.|.|.|.|.].}.*X*X].b.u.u.u.u.u.u.s i c.].*X*X*X*X*X*X*X*X*X*X*X*X*X*X*X*X*X",
"*X*X*X*X*X*X*X*X*X*X*X*X*X*X*X*X*X*X*X*X*X&X&X&X&X&X&X&X&X*X*X&X{.n.n.n.n.n.n.v.f.[.&X*X*X*X*X*X*X*X*X*X*X*X*X*X*X*X*X*X",
"*X*X*X*X*X*X*X*X*X*X*X*X*X*X*X*X*X*X*X*X*X*X*X*X*X*X*X*X*X*X*X*X@X@X@X@X@X@X@X#X#X*X*X*X*X*X*X*X*X*X*X*X*X*X*X*X*X*X*X*X",
"*X*X*X*X*X*X*X*X*X*X*X*X*X*X*X*X*X*X*X*X*X*X*X*X*X*X*X*X*X*X*X*X*X&X&X&X&X&X&X&X&X*X*X*X*X*X*X*X*X*X*X*X*X*X*X*X*X*X*X*X",
"*X*X*X*X*X*X*X*X*X*X*X*X*X*X*X*X*X*X*X*X*X*X*X*X*X*X*X*X*X*X*X*X*X*X*X*X*X*X*X*X*X*X*X*X*X*X*X*X*X*X*X*X*X*X*X*X*X*X*X*X",
"*X*X*X*X*X*X*X*X*X*X*X*X*X*X*X*X*X*X*X*X*X*X*X*X*X*X*X*X*X*X*X*X*X*X*X*X*X*X*X*X*X*X*X*X*X*X*X*X*X*X*X*X*X*X*X*X*X*X*X*X",
"*X*X*X*X*X*X*X*X*X*X*X*X*X*X*X*X*X*X*X*X*X*X*X*X*X*X*X*X*X*X*X*X*X*X*X*X*X*X*X*X*X*X*X*X*X*X*X*X*X*X*X*X*X*X*X*X*X*X*X*X",
"*X*X*X*X*X*X*X*X*X*X*X*X*X*X*X*X*X*X*X*X*X*X*X*X*X*X*X*X*X*X*X*X*X*X*X*X*X*X*X*X*X*X*X*X*X*X*X*X*X*X*X*X*X*X*X*X*X*X*X*X",
"*X*X*X*X*X*X*X*X*X*X*X*X*X*X*X*X*X*X*X*X*X*X*X*X*X*X*X*X*X*X*X*X*X*X*X*X*X*X*X*X*X*X*X*X*X*X*X*X*X*X*X*X*X*X*X*X*X*X*X*X",
"*X*X*X*X*X*X*X*X*X*X*X*X*X*X*X*X*X*X*X*X*X*X*X*X*X*X*X*X*X*X*X*X*X*X*X*X*X*X*X*X*X*X*X*X*X*X*X*X*X*X*X*X*X*X*X*X*X*X*X*X"
};
