/* XPM */
static char *result[] = {
/* columns rows colors chars-per-pixel */
"60 60 193 2 ",
"   c #1C121C",
".  c #28171E",
"X  c #171629",
"o  c #04193E",
"O  c #0E1A38",
"+  c #1B1C31",
"@  c #261B28",
"#  c #341D21",
"$  c #391F21",
"%  c #1B223A",
"&  c #3C2122",
"*  c #24273A",
"=  c #432323",
"-  c #4C2625",
";  c #4C2826",
":  c #562927",
">  c #5C2E29",
",  c #553732",
"<  c #533534",
"1  c #64332C",
"2  c #6C362D",
"3  c #6C392E",
"4  c #72392E",
"5  c #773D31",
"6  c #7A3F32",
"7  c #602F2B",
"8  c #7C4032",
"9  c #75443B",
"0  c #3A1C44",
"q  c #182B49",
"w  c #032A56",
"e  c #123357",
"r  c #2B304F",
"t  c #303653",
"y  c #02386B",
"u  c #023362",
"i  c #013E73",
"p  c #173B65",
"a  c #523E4C",
"s  c #4A1B7A",
"d  c #1A486C",
"f  c #014278",
"g  c #394162",
"h  c #384566",
"j  c #49435A",
"k  c #795A59",
"l  c #73524F",
"z  c #434C6D",
"x  c #494E6C",
"c  c #464864",
"v  c #4F5878",
"b  c #495373",
"n  c #535C7B",
"m  c #545068",
"M  c #645868",
"N  c #53627C",
"B  c #636279",
"V  c #8A4836",
"C  c #894938",
"Z  c #924F3A",
"A  c #93513C",
"S  c #9C563E",
"D  c #86503D",
"F  c #A0583E",
"G  c #9D5C44",
"H  c #985B47",
"J  c #825E55",
"K  c #A45D42",
"L  c #A95F42",
"P  c #8C685A",
"I  c #936357",
"U  c #9C6556",
"Y  c #986B5B",
"T  c #94644A",
"R  c #A56044",
"E  c #A96346",
"W  c #AB6648",
"Q  c #A76549",
"!  c #BF6F4A",
"~  c #B26949",
"^  c #A56951",
"/  c #AE7458",
"(  c #B77456",
")  c #90746E",
"_  c #AE7E66",
"`  c #C2734D",
"'  c #C27C59",
"]  c #C57C55",
"[  c #9E887E",
"{  c #AC8679",
"}  c #BA866E",
"|  c #CC845D",
" . c #C3805C",
".. c #D68B5E",
"X. c #CE8961",
"o. c #C48867",
"O. c #D48D61",
"+. c #D5956E",
"@. c #DB9365",
"#. c #C29A7B",
"$. c #C89777",
"%. c #DB9B72",
"&. c #D69F7B",
"*. c #CD916D",
"=. c #E69D6B",
"-. c #E19766",
";. c #E29F71",
":. c #DAA27C",
">. c #E8A16E",
",. c #E9A573",
"<. c #E3A67B",
"1. c #E2A87F",
"2. c #EAAB7C",
"3. c #E3A374",
"4. c #340CAF",
"5. c #00538D",
"6. c #005995",
"7. c #31658F",
"8. c #0669A8",
"9. c #006FB1",
"0. c #0074B5",
"q. c #237EB6",
"w. c #236CA0",
"e. c #255682",
"r. c #755982",
"t. c #556181",
"y. c #5D6C8B",
"u. c #416C92",
"i. c #656C85",
"p. c #657392",
"a. c #6A7C94",
"s. c #797F92",
"d. c #72758A",
"f. c #3205D8",
"g. c #007EC0",
"h. c #A87CB6",
"j. c #A97EA5",
"k. c #008BCE",
"l. c #0084C7",
"z. c #0098DC",
"x. c #7FB9DA",
"c. c #7EC9EB",
"v. c #9C959F",
"b. c #B9998D",
"n. c #B28490",
"m. c #A8948D",
"M. c #BFA99E",
"N. c #A89FA0",
"B. c #ACA0B0",
"V. c #B6A9AD",
"C. c #8D97A8",
"Z. c #D9AA88",
"A. c #DFB396",
"S. c #CAA282",
"D. c #EDAF80",
"F. c #EDB384",
"G. c #E5B48C",
"H. c #F1BA8D",
"J. c #EDBC92",
"K. c #E4B893",
"L. c #F2BE91",
"P. c #CEB6AA",
"I. c #E7BDA2",
"U. c #EFC39B",
"Y. c #F3C296",
"T. c #F3C59B",
"R. c #F6CA9F",
"E. c #EBC5A6",
"W. c #F6CCA2",
"Q. c #F7D0A9",
"!. c #F7D5B3",
"~. c #F8DBBC",
"^. c #F4D7BC",
"/. c #AA99DE",
"(. c #8BB9D6",
"). c #B1BAC8",
"_. c #A996EF",
"`. c #BEC2CD",
"'. c #BBCCDA",
"]. c #ADC9DC",
"[. c #B9D6E8",
"{. c #B8D3E4",
"}. c #CFD0D6",
"|. c #E2D2CE",
" X c #E5DCDA",
".X c #F8E0C5",
"XX c #F9E5CE",
"oX c #EFE4DF",
"OX c #E5E6EB",
"+X c white",
"@X c #FAF1EA",
"#X c #CDDDE9",
"$X c None",
/* pixels */
"$X$X$X$X$X$X$X$X$X$X$X$X$X$X$X$X$X$X$X$X$X$X$X$X$X$X$X$X$X$X$X$X$X$X$X$X$X$X$X$X$X$X$X$X$X$X$X$X$X$X$X$X$X$X$X$X$X$X$X$X",
"$X$X$X$X$X$X$X$X$X$X$X$X$X$X$X$X$X$X$X$X$X$X$X$X$X$X$X$X$X$X$X$X$X$X$X$X$X$X$X$X$X$X$X$X$X$X$X$X$X$X$X$X$X$X$X$X$X$X$X$X",
"$X$X$X$X$X$X$X$X$X$X$X$X$X$X$X$X$X$X$X$X$X$X$X$X$X$X$X$X$X$X$X$X$X$X$X$X$X$X$X$X$X$X$X$X$X$X$X$X$X$X$X$X$X$X$X$X$X$X$X$X",
"$X$X$X$X$X$X$X$X$X$X$X$X$X$X$X$X$X$X$X$X$X$X$X$X$X$X$X$X$X$X$X$X$X$X$X$X$X$X$X$X$X$X$X$X$X$X$X$X$X$X$X$X$X$X$X$X$X$X$X$X",
"$X$X$X$X$X$X$X$X$X$X$X$X$X$X$X$X$X$X$X$X$X$X$X$X$X$X$X$X$X$X$X$X$X$X$X$X$X$X$X$X$X$X$X$X$X$X$X$X$X$X$X$X$X$X$X$X$X$X$X$X",
"$X$X$X$X$X$X$X$X$X$X$X$X$X$X$X$X$X$X$X$X$X$X$X$X$XZ K ` ` ` ` ` ` K D $X$X$X$X$X$X$X$X$X$X$X$X$X$X$X$X$X$X$X$X$X$X$X$X$X",
"$X$X$X$X$X$X$X$X$X$X$X$X$X$X$X$X$X$X$X$X$X$XV E ' *.&.1.1.1.1.1.D.$.*.] E V $X$X$X$X$X$X$X$X$X$X$X$X$X$X$X$X$X$X$X$X$X$X",
"$X$X$X$X$X$X$X$X$X$X$X$X$X$X$X$X$X$X$X$X$XS G ( +.U.Q.Q.Q.Q.Q.Q.Q.Q.T.+.( K S $X$X$X$X$X$X$X$X$X$X$X$X$X$X$X$X$X$X$X$X$X",
"$X$X$X$X$X$X$X$X$X$X$X$X$X$X$X$X$X$X$X$XC ~ O.1.U.^..X.X.X.X.X.X.X.X~.U.<...E V $X$X$X$X$X$X$X$X$X$X$X$X$X$X$X$X$X$X$X$X",
"$X$X$X$X$X$X$X$X$X$X$X$X$X$X$X$X$X$X$X$XG ' 2.T.~.XXXXXXXXXXXXXXXXXXXX~.T.D.' F $X$X$X$X$X$X$X$X$X$X$X$X$X$X$X$X$X$X$X$X",
"$X$X$X$X$X$X$X$X$X$X$X$X$X$X$X$X$X$X$X$X! +.W.~.XXXXXXXXXXXXXXXXXXXXXXXX^.W.+.` $X$X$X$X$X$X$X$X$X$X$X$X$X$X$X$X$X$X$X$X",
"$X$X$X$X$X$X$X$X$X$X$X$X$X$X$X$X$X$X$XF | <.W.~.XXXXXXXXXXXXXXXXXXXXXXXX~.W.<.| R $X$X$X$X$X$X$X$X$X$X$X$X$X$X$X$X$X$X$X",
"$X$X$X$X$X$X$X$X$X$X$X$X$X$X$X$X$X$XA E @.H.R.~..XXXXXXXXXXXXXXXXXXXXXXX!.W.H.@.E Z $X$X$X$X$X$X$X$X$X$X$X$X$X$X$X$X$X$X",
"$X$X$X$X$X$X$X$X$X$X$X$X$X$X$X$X$X$X~ ] F.Y.R.W.!.XXXXXXXXXXXXXXXXXX.X!.Q.R.Y.F.' ~ $X$X$X$X$X$X$X$X$X$X$X$X$X$X$X$X$X$X",
"$X$X$X$X$X$X$X$X$X$X$X$X$X$X$X$X$X$X` | J.R.R.R.Q.~..X~.~..X.X.X^..X~.W.R.R.R.J.| ! $X$X$X$X$X$X$X$X$X$X$X$X$X$X$X$X$X$X",
"$X$X$X$X$X$X$X$X$X$X$X$X$X$X$X$X$X$X` | J.R.R.R.R.R.W.W.W.W.W.W.W.W.W.W.R.R.R.J.X.! $X$X$X$X$X$X$X$X$X$X$X$X$X$X$X$X$X$X",
"$X$X$X$X$X$X$X$X$X$X$X$X$X$X$X$X$X$X` | G.R.R.R.R.R.R.R.R.R.R.R.R.R.R.R.W.R.R.Y.| ! $X$X$X$X$X$X$X$X$X$X$X$X$X$X$X$X$X$X",
"$X$X$X$X$X$X$X$X$X$X$X$X$X$X$X$X$X$X` | Y.R.R.R.R.R.R.R.W.R.R.R.R.R.R.R.R.R.R.J.| ! $X$X$X$X$X$X$X$X$X$X$X$X$X$X$X$X$X$X",
"$X$X$X$X$X$X$X$X$X$X$X$X$X$X$X$X$X$X! | K.R.R.R.R.R.R.R.R.R.R.R.R.R.W.Q.R.W.R.J.| ! $X$X$X$X$X$X$X$X$X$X$X$X$X$X$X$X$X$X",
"$X$X$X$X$X$X$X$X$X$X$X$X$X$X$X$X$X$X` | Y.R.R.Z.#.#.#.#.K.R.R.Y.#.#.#.{ Z.W.R.Y.X.! $X$X$X$X$X$X$X$X$X$X$X$X$X$X$X$X$X$X",
"$X$X$X$X$X$X$X$X$X$X$X$X$X$X$X$X$X$X! X.J.W.T.P < < , 9 } R.R.#.9 , < < P E.W.H.| ` $X$X$X$X$X$X$X$X$X$X$X$X$X$X$X$X$X$X",
"$X$X$X$X$X$X$X$X$X$X$X$X$X$X$X$X$X$XL ( G.R.Y.J < ) B s b.R.R.n.s r.) < J L.T.J.( K $X$X$X$X$X$X$X$X$X$X$X$X$X$X$X$X$X$X",
"$X$X$X$X$X$X$X$X$X$X$X$X$X$X$X$X$X$XV ^ G.R.T.J l }._.f.h.R.R.h.f._. Xl J Y.W.G.^ V $X$X$X$X$X$X$X$X$X$X$X$X$X$X$X$X$X$X",
"$X$X$X$X$X$X$X$X$X$X$X$X$X$X$X$X$XV V R %.H.T.Y P  X_.f.h.R.R.h.f._. XP Y T.H.%.Q V $X$X$X$X$X$X$X$X$X$X$X$X$X$X$X$X$X$X",
"$X$X$X$X$X$X$X$X$X$X$X$X$X$X$X$XG K U / O.2.E.o.n.oX/.4.j.W.W.j.4./.oX} o.E.D.O./ G $X$X$X$X$X$X$X$X$X$X$X$X$X$X$X$X$X$X",
"$X$X$X$X$X$X$X$X$X$X$X$X$X$X$XV ~ O.A.A.X.%.R.K.E.@XB.* _ W.Q._ 0 B.@XI.J.W.%.] :.$.A $X$X$X$X$X$X$X$X$X$X$X$X$X$X$X$X$X",
"$X$X$X$X$X$X$X$X$X$X$X$X$X$X$XF ' F.Q.^.Z.Z.D.D.Y.XXP.P S.W.W.S.P P.XXL.D.<.Z.Z.W.A.} ~ $X$X$X$X$X$X$X$X$X$X$X$X$X$X$X$X",
"$X$X$X$X$X$X$X$X$X$X$X$X$X$X$X` %.W..XXX.XA.` O.,.Y.T.R.L.W.W.W.W.W.L.,.O.` Z.XXXX~.R.} V $X$X$X$X$X$X$X$X$X$X$X$X$X$X$X",
"$X$X$X$X$X$X$X$X$X$X$X$X$X$X$X` +.W.!.!.Q.b.k / O.D.H.W.W.W.W.L.T.H.,.O./ k M.XXXX.XW.*.E $X$X$X$X$X$X$X$X$X$X$X$X$X$X$X",
"$X$X$X$X$X$X$X$X$X$X$X$X$X$X$X` %.L.T.W.T.m.z J ( ' &.L.L.J.J.J.J.&.o./ P z N..X.X~.W.%.` $X$X$X$X$X$X$X$X$X$X$X$X$X$X$X",
"$X$X$X$X$X$X$X$X$X$X$X$X$XC L O.=.2.L.W.W.n.t c M M ) ' O.' ' O.X.) M M m h m.Q.Q.W.R.2...K C $X$X$X$X$X$X$X$X$X$X$X$X$X",
"$X$X$X$X$X$X$X$X$X$X$X$X$XS ~ ;.2.2.F.H.L.) r g z z M I U I I I I M z z z h m.R.W.Y.H.2.@.~ G $X$X$X$X$X$X$X$X$X$X$X$X$X",
"$X$X$X$X$X$X$X$X$X$X$X$X$X! | J.R.Y.2.>.>.Y r g h z z x x x x x x z z z g r m.E.R.H.,.=.-.] ` $X$X$X$X$X$X$X$X$X$X$X$X$X",
"$X$X$X$X$X$X$X$X$X$X$X$X$X` X.J.R.R.H.2.>.Y r g b N t.t.t.t.t.t.t.t.n b a a / D.D.F.F.F.2.| ` $X$X$X$X$X$X$X$X$X$X$X$X$X",
"$X$X$X$X$X$X$X$X$X$X$X$X$X! X.J.R.R.R.Y.,.P t g b y.p.p.p.p.p.p.p.p.y.v l H ] =.=.F.T.R.J.O.` $X$X$X$X$X$X$X$X$X$X$X$X$X",
"$X$X$X$X$X$X$X$X$X$X$X$X$X! O.J.R.R.R.Y.>.Y r h b p.p.p.p.p.p.p.p.p.i.l I ] @.>.H.J.R.R.Y.;.] Z $X$X$X$X$X$X$X$X$X$X$X$X",
"$X$X$X$X$X$X$X$X$X$X$X$X$X! X.J.R.R.Y.F.=.{ i.b z t.y.p.p.p.p.p.p.i.B l L -.,.D.Y.R.R.R.T.,.| Z $X$X$X$X$X$X$X$X$X$X$X$X",
"$X$X$X$X$X$X$X$X$X$X$X$X$X! O.J.R.R.2.>.=.I.OXd.t z t.p.p.p.p.p.p.t.m 9 ~ -.F.L.R.R.R.R.T.2. .Z $X$X$X$X$X$X$X$X$X$X$X$X",
"$X$X$X$X$X$X$X$X$X$X$X$X$XK ( 1.F.F.,.| T ) b.v.s.x z n t.t.t.t.t.z a l ~ =.F.W.R.R.R.R.Y.2.| Z $X$X$X$X$X$X$X$X$X$X$X$X",
"$X$X$X$X$X$X$X$X$X$X$X$X$XC L O.-.@.-.( & = 1 V.}.n c v v v v v v h a l L @.F.W.R.R.R.T.Y.>.] Z $X$X$X$X$X$X$X$X$X$X$X$X",
"$X$X$X$X$X$X$X$X$X$X$X$X$X$XS E Q Q E D & # 7 I b.V.`.`.`.`.`.`.`.`.B.I S Q X.F.Y.R.R.H.3.( R $X$X$X$X$X$X$X$X$X$X$X$X$X",
"$X$X$X$X$X$X$X$X$X$X$X$X$X$X$XV V V 8 7 $ = 1 6 Y P.|.|.|.|.|.|.|.|.P.U C V ~ X.:.Z.Z.+. .K V $X$X$X$X$X$X$X$X$X$X$X$X$X",
"$X$X$X$X$X$X$X$X$X$X$X$X$X$X$X$X$X$X# $ ; 1 V V D U U U U U U U U U T A C V V S G G G H S $X$X$X$X$X$X$X$X$X$X$X$X$X$X$X",
"$X$X$X$X$X$X$X$X$X$X$X$X$X$X$X$X$X$X. $ : 3 V V V V V V 8 8 3 4 V V V V V V V V 3 1 C C V $X$X$X$X$X$X$X$X$X$X$X$X$X$X$X",
"$X$X$X$X$X$X$X$X$X$X$X$X$X$X$X$X$X$X$ = : 4 V V V V V V 2 : = > V V V V C V V 8 &   $X$X$X$X$X$X$X$X$X$X$X$X$X$X$X$X$X$X",
"$X$X$X$X$X$X$X$X$X$X$X$X$X$X$X$X$X$X$ = : 4 V V V V 8 2 1 : = - 3 8 V V C C 6 7 #   $X$X$X$X$X$X$X$X$X$X$X$X$X$X$X$X$X$X",
"$X$X$X$X$X$X$X$X$X$X$X$X$X$X$X$X$X$X# $ : 4 V V V V 5 > : - & = : 3 8 8 8 8 1 ; .   $X$X$X$X$X$X$X$X$X$X$X$X$X$X$X$X$X$X",
"$X$X$X$X$X$X$X$X$X$X$X$X$X$X$X$X$X$X. # : 4 V V V V 5 > & . . . = = ; ; ; ; = & .   $X$X$X$X$X$X$X$X$X$X$X$X$X$X$X$X$X$X",
"$X$X$X$X$X$X$X$X$X$X$X$X$X$X$X$X$X$X. # = > 3 3 4 4 1 ; # . X X @ * q * * * * @ X X $X$X$X$X$X$X$X$X$X$X$X$X$X$X$X$X$X$X",
"$X$X$X$X$X$X$X$X$X$X$X$X$X$X$X$X$X$X$ $ $ $ & & & & & & & @ O O o w y y y y w o o o $X$X$X$X$X$X$X$X$X$X$X$X$X$X$X$X$X$X",
"$X$X$X$X$X$X$X$X$X$X$X$X$X$X$X$X$X$X+ + q p d d d d p q % r s.N w f 5.5.5.5.y p a.C.$X$X$X$X$X$X$X$X$X$X$X$X$X$X$X$X$X$X",
"$X$X$X$X$X$X$X$X$X$X$X$X$X$X$X$X$X$Xo w y 5.9.9.9.9.6.i w h }.(.e.w.q.q.q.q.w.u.}.+X$X$X$X$X$X$X$X$X$X$X$X$X$X$X$X$X$X$X",
"$X$X$X$X$X$X$X$X$X$X$X$X$X$X$X$X$X$Xo w 5.0.k.k.k.k.0.6.u q $X#X'.{.[.[.[.[.'.'.$X$X$X$X$X$X$X$X$X$X$X$X$X$X$X$X$X$X$X$X",
"$X$X$X$X$X$X$X$X$X$X$X$X$X$X$X$X$X$XN 7.8.0.z.z.z.z.k.9.7.N $X$X+X+X+X+X+X+X+X+X$X$X$X$X$X$X$X$X$X$X$X$X$X$X$X$X$X$X$X$X",
"$X$X$X$X$X$X$X$X$X$X$X$X$X$X$X$X$X$XOX{.q.l.z.z.z.z.l.8.(.OX$X$X$X$X$X$X$X$X$X$X$X$X$X$X$X$X$X$X$X$X$X$X$X$X$X$X$X$X$X$X",
"$X$X$X$X$X$X$X$X$X$X$X$X$X$X$X$X$X$X$X#X(.c.c.(.c.c.x.x.{.$X$X$X$X$X$X$X$X$X$X$X$X$X$X$X$X$X$X$X$X$X$X$X$X$X$X$X$X$X$X$X",
"$X$X$X$X$X$X$X$X$X$X$X$X$X$X$X$X$X$X$X$X+X+X+X+X+X+X+X+X$X$X$X$X$X$X$X$X$X$X$X$X$X$X$X$X$X$X$X$X$X$X$X$X$X$X$X$X$X$X$X$X",
"$X$X$X$X$X$X$X$X$X$X$X$X$X$X$X$X$X$X$X$X$X$X$X$X$X$X$X$X$X$X$X$X$X$X$X$X$X$X$X$X$X$X$X$X$X$X$X$X$X$X$X$X$X$X$X$X$X$X$X$X",
"$X$X$X$X$X$X$X$X$X$X$X$X$X$X$X$X$X$X$X$X$X$X$X$X$X$X$X$X$X$X$X$X$X$X$X$X$X$X$X$X$X$X$X$X$X$X$X$X$X$X$X$X$X$X$X$X$X$X$X$X",
"$X$X$X$X$X$X$X$X$X$X$X$X$X$X$X$X$X$X$X$X$X$X$X$X$X$X$X$X$X$X$X$X$X$X$X$X$X$X$X$X$X$X$X$X$X$X$X$X$X$X$X$X$X$X$X$X$X$X$X$X"
};
