/* XPM */
static char *result[] = {
/* columns rows colors chars-per-pixel */
"60 60 179 2 ",
"   c #24151E",
".  c #301B1F",
"X  c #03193F",
"o  c #171B35",
"O  c #13182F",
"+  c #2E1B20",
"@  c #391F21",
"#  c #341D20",
"$  c #1E2339",
"%  c #2F252F",
"&  c #3F2122",
"*  c #362026",
"=  c #2F2B38",
"-  c #2F2A36",
";  c #442424",
":  c #4B2524",
">  c #4F2826",
",  c #562A27",
"<  c #5D2D29",
"1  c #582C2A",
"2  c #483438",
"3  c #5B3430",
"4  c #63322B",
"5  c #6A342C",
"6  c #6F3A2F",
"7  c #72392F",
"8  c #773C30",
"9  c #7C3F32",
"0  c #65322D",
"q  c #7E4133",
"w  c #0A1F44",
"e  c #1B3352",
"r  c #2A2F4E",
"t  c #2D3352",
"y  c #2A3C5D",
"u  c #353C5C",
"i  c #303452",
"p  c #093B69",
"a  c #443B4E",
"s  c #453D51",
"d  c #1C4466",
"f  c #3E4769",
"g  c #3F486A",
"h  c #3A4364",
"j  c #2D4A6E",
"k  c #5A4041",
"l  c #4A4254",
"z  c #4C495B",
"x  c #474559",
"c  c #554D58",
"v  c #654345",
"b  c #71514F",
"n  c #734F4E",
"m  c #4A4C65",
"M  c #424C6E",
"N  c #4E526C",
"B  c #5D5662",
"V  c #454F71",
"C  c #495475",
"Z  c #495375",
"A  c #515C7D",
"S  c #655965",
"D  c #5F637A",
"F  c #7D6A6C",
"G  c #844535",
"H  c #8A4836",
"J  c #894A3A",
"K  c #934E39",
"L  c #96523C",
"P  c #99563E",
"I  c #A25A3F",
"U  c #9F5A40",
"Y  c #935D50",
"T  c #A15C42",
"R  c #996656",
"E  c #AB6345",
"W  c #A26249",
"Q  c #AE6649",
"!  c #A9674B",
"~  c #B66847",
"^  c #B46E4D",
"/  c #BF6F4A",
"(  c #B06444",
")  c #BE7956",
"_  c #B97656",
"`  c #B67151",
"'  c #96766A",
"]  c #8F7D7E",
"[  c #907C76",
"{  c #8F6E66",
"}  c #A77668",
"|  c #AF7864",
" . c #B47F6D",
".. c #C47A55",
"X. c #C87E58",
"o. c #C67A54",
"O. c #A1897D",
"+. c #BF8566",
"@. c #CD8158",
"#. c #D4895C",
"$. c #D28559",
"%. c #C0896A",
"&. c #C18460",
"*. c #D58D63",
"=. c #D88F61",
"-. c #DB9162",
";. c #D4946D",
":. c #D99468",
">. c #DA9C74",
",. c #CB9774",
"<. c #E49C6B",
"1. c #E29766",
"2. c #DEA077",
"3. c #E7A06D",
"4. c #E9A372",
"5. c #E4A87C",
"6. c #ECAC7C",
"7. c #EAA877",
"8. c #095D93",
"9. c #09568B",
"0. c #2C618C",
"q. c #2F78A7",
"w. c #535F80",
"e. c #546181",
"r. c #5F6C8C",
"t. c #5A6787",
"y. c #606E8D",
"u. c #67758F",
"i. c #657392",
"p. c #2B82B8",
"a. c #74879D",
"s. c #818C9F",
"d. c #9C8F90",
"f. c #B1998F",
"g. c #BCA19C",
"h. c #9D99A5",
"j. c #9997A3",
"k. c #80A0BB",
"l. c #BAAFA8",
"z. c #CEA486",
"x. c #C4A39A",
"c. c #D4B091",
"v. c #DEB291",
"b. c #D8AD91",
"n. c #ECAF81",
"m. c #EEB384",
"M. c #EDB689",
"N. c #E5B58E",
"B. c #F1BC8F",
"V. c #EDBB91",
"C. c #E5BD98",
"Z. c #CCBCB1",
"A. c #F3C296",
"S. c #F5C69B",
"D. c #F6CA9F",
"F. c #D4C2BF",
"G. c #F6CEA5",
"H. c #F7D1AB",
"J. c #F7D8B7",
"K. c #F8D8B7",
"L. c #F8DBBC",
"P. c #80B0CF",
"I. c #80B4D5",
"U. c #8BBBD8",
"Y. c #B8BCC7",
"T. c #AABDCE",
"R. c #C6BFC0",
"E. c #D5C7C6",
"W. c #D7DADF",
"Q. c #F8DDC0",
"!. c #F9E6CF",
"~. c #F9E1C7",
"^. c #DCDCE2",
"/. c #D5DDE5",
"(. c #D6E4EE",
"). c #D5E6F1",
"_. c #DBEAF3",
"`. c white",
"'. c None",
/* pixels */
"'.'.'.'.'.'.'.'.'.'.'.'.'.'.'.'.'.'.'.'.'.'.'.'.'.'.'.'.'.'.'.'.'.'.'.'.'.'.'.'.'.'.'.'.'.'.'.'.'.'.'.'.'.'.'.'.'.'.'.'.",
"'.'.'.'.'.'.'.'.'.'.'.'.'.'.'.'.'.'.'.'.'.'.'.'.'.'.'.'.'.'.'.'.'.'.'.'.'.'.'.'.'.'.'.'.'.'.'.'.'.'.'.'.'.'.'.'.'.'.'.'.",
"'.'.'.'.'.'.'.'.'.'.'.'.'.'.'.'.'.'.'.'.'.'.'.'.'.'.'.'.'.'.'.'.'.'.'.'.'.'.'.'.'.'.'.'.'.'.'.'.'.'.'.'.'.'.'.'.'.'.'.'.",
"'.'.'.'.'.'.'.'.'.'.'.'.'.'.'.'.'.'.'.'.'.'.'.'.'.'.'.'.'.'.'.'.'.'.'.'.'.'.'.'.'.'.'.'.'.'.'.'.'.'.'.'.'.'.'.'.'.'.'.'.",
"'.'.'.'.'.'.'.'.'.'.'.'.'.'.'.'.'.'.'.'.'.'.'.'.'.'.K ~ / / / ..~ K '.'.'.'.'.'.'.'.'.'.'.'.'.'.'.'.'.'.'.'.'.'.'.'.'.'.",
"'.'.'.'.'.'.'.'.'.'.'.'.'.'.'.'.'.'.'.'.'.'.'.'.'.T W ..X.X.o.o...W T '.'.'.'.'.'.'.'.'.'.'.'.'.'.'.'.'.'.'.'.'.'.'.'.'.",
"'.'.'.'.'.'.'.'.'.'.'.'.'.'.'.'.'.'.'.'.'.'.'.K ~ ;.N.V.V.V.V.V.V.N.;.~ K '.'.'.'.'.'.'.'.'.'.'.'.'.'.'.'.'.'.'.'.'.'.'.",
"'.'.'.'.'.'.'.'.'.'.'.'.'.'.'.'.'.'.'.'.'.'.E ) ;.C.K.K.K.K.K.K.K.L.C.;.) E '.'.'.'.'.'.'.'.'.'.'.'.'.'.'.'.'.'.'.'.'.'.",
"'.'.'.'.'.'.'.'.'.'.'.'.'.'.'.'.'.'.'.'.'.L ) 7.D.L.!.!.!.!.!.!.!.!.J.S.6.) K '.'.'.'.'.'.'.'.'.'.'.'.'.'.'.'.'.'.'.'.'.",
"'.'.'.'.'.'.'.'.'.'.'.'.'.'.'.'.'.'.'.'.'.~ ;.D.L.!.!.!.!.!.!.!.!.!.!.Q.S.;.~ '.'.'.'.'.'.'.'.'.'.'.'.'.'.'.'.'.'.'.'.'.",
"'.'.'.'.'.'.'.'.'.'.'.'.'.'.'.'.'.'.'.'.U @.5.G.~.!.!.!.!.!.!.!.!.!.!.~.H.5.@.U '.'.'.'.'.'.'.'.'.'.'.'.'.'.'.'.'.'.'.'.",
"'.'.'.'.'.'.'.'.'.'.'.'.'.'.'.'.'.'.'.K T :.M.G.Q.~.!.!.!.!.!.!.!.!.!.L.G.M.:.T '.'.'.'.'.'.'.'.'.'.'.'.'.'.'.'.'.'.'.'.",
"'.'.'.'.'.'.'.'.'.'.'.'.'.'.'.'.'.'.'.~ ..M.A.G.G.L.!.!.!.!.!.!.!.!.J.G.G.S.M...'.'.'.'.'.'.'.'.'.'.'.'.'.'.'.'.'.'.'.'.",
"'.'.'.'.'.'.'.'.'.'.'.'.'.'.'.'.'.'.'./ X.V.G.S.D.H.J.K.L.L.J.L.J.J.H.G.D.S.V.X.'.'.'.'.'.'.'.'.'.'.'.'.'.'.'.'.'.'.'.'.",
"'.'.'.'.'.'.'.'.'.'.'.'.'.'.'.'.'.'.'./ X.V.D.D.D.D.D.D.D.D.D.D.D.D.D.D.D.D.V.X.'.'.'.'.'.'.'.'.'.'.'.'.'.'.'.'.'.'.'.'.",
"'.'.'.'.'.'.'.'.'.'.'.'.'.'.'.'.'.'.'...X.V.D.D.D.D.D.D.D.D.D.D.D.D.D.D.D.D.V.X.'.'.'.'.'.'.'.'.'.'.'.'.'.'.'.'.'.'.'.'.",
"'.'.'.'.'.'.'.'.'.'.'.'.'.'.'.'.'.'.'./ X.V.D.D.D.D.D.D.D.D.D.D.D.D.D.D.D.D.V.X.'.'.'.'.'.'.'.'.'.'.'.'.'.'.'.'.'.'.'.'.",
"'.'.'.'.'.'.'.'.'.'.'.'.'.'.'.'.'.'.'./ X.V.D.D.D.D.D.D.D.D.D.D.D.D.D.D.D.D.V.X.'.'.'.'.'.'.'.'.'.'.'.'.'.'.'.'.'.'.'.'.",
"'.'.'.'.'.'.'.'.'.'.'.'.'.'.'.'.'.'.'./ X.V.D.D.D.D.D.D.D.D.D.D.D.D.D.D.D.D.V.X.'.'.'.'.'.'.'.'.'.'.'.'.'.'.'.'.'.'.'.'.",
"'.'.'.'.'.'.'.'.'.'.'.'.'.'.'.'.'.'.'...X.V.D.S.D.D.D.D.D.D.D.D.D.D.D.G.D.D.V.o.'.'.'.'.'.'.'.'.'.'.'.'.'.'.'.'.'.'.'.'.",
"'.'.'.'.'.'.'.'.'.'.'.'.'.'.'.'.'.'.'.~ _ z.c.c.c.C.D.D.D.D.D.D.D.D.C.c.c.c.z.` W '.'.'.'.'.'.'.'.'.'.'.'.'.'.'.'.'.'.'.",
"'.'.'.'.'.'.'.'.'.'.'.'.'.'.'.'.'.'.'.K J c z z z O.D.G.D.D.D.D.D.D.O.z z z x a v H '.'.'.'.'.'.'.'.'.'.'.'.'.'.'.'.'.'.",
"'.'.'.'.'.'.'.'.'.'.'.'.'.'.'.'.'.'.'.P W ' B r r B [ [ [ [ [ [ [ [ B t u u u r b ^ P '.'.'.'.'.'.'.'.'.'.'.'.'.'.'.'.'.",
"'.'.'.'.'.'.'.'.'.'.'.'.'.'.'.'.'.'.K Q *.V.d.l i t t i t t i i t t t u g g M m ' #.T K '.'.'.'.'.'.'.'.'.'.'.'.'.'.'.'.",
"'.'.'.'.'.'.'.'.'.'.'.'.'.'.'.'.'.K Q ;.A.S.A.f.x u M f f f f f f f f g M h m l.N.-./ I H '.'.'.'.'.'.'.'.'.'.'.'.'.'.'.",
"'.'.'.'.'.'.'.'.'.'.'.'.'.'.'.'.H L o.6.S.D.D.c.z u M M M V A D e.e.C M M u c Z.V.<.#.Q H '.'.'.'.'.'.'.'.'.'.'.'.'.'.'.",
"'.'.'.'.'.'.'.'.'.'.'.'.'.'.'.'.P W -.6.A.D.G.c.z u M M V C r.i.i.i.e.M M u z z.6.<.4._ H '.'.'.'.'.'.'.'.'.'.'.'.'.'.'.",
"'.'.'.'.'.'.'.'.'.'.'.'.'.'.'.H ^ -.:.3.5.A.G.c.z u M M w.r.i.i.i.i.e.M M u l ,.3.4.B.+.H '.'.'.'.'.'.'.'.'.'.'.'.'.'.'.",
"'.'.'.'.'.'.'.'.'.'.'.'.'.'.L ^ :.m.m.7.3.6.m.,.x h g V e.i.i.i.y.e.C M M S ' -.7.M.S.%.H '.'.'.'.'.'.'.'.'.'.'.'.'.'.'.",
"'.'.'.'.'.'.'.'.'.'.'.'.'.H P *.m.D.D.M.4.<.1.@.l h V g A r.r.r.t.Z V M g R 1.1.m.D.D.%.H '.'.'.'.'.'.'.'.'.'.'.'.'.'.'.",
"'.'.'.'.'.'.'.'.'.'.'.'.'.H P =.m.D.D.S.B.4.#.^ i u g V V C Z V N M M M y b o.1.m.D.D.%.H '.'.'.'.'.'.'.'.'.'.'.'.'.'.'.",
"'.'.'.'.'.'.'.'.'.'.'.'.'.H P =.m.D.D.D.A.4.$.! a u V g V g V g M M f u i v ( X.>.n.2._ H '.'.'.'.'.'.'.'.'.'.'.'.'.'.'.",
"'.'.'.'.'.'.'.'.'.'.'.'.'.H P #.m.D.D.D.A.<.*.| s u f M V M M M M M u t M n J ( o.*./ T J '.'.'.'.'.'.'.'.'.'.'.'.'.'.'.",
"'.'.'.'.'.'.'.'.'.'.'.'.'.H L / >.G.D.D.V.@.b.E.N t i f V V M M f i t m Y.E.'.K K L L K '.'.'.'.'.'.'.'.'.'.'.'.'.'.'.'.",
"'.'.'.'.'.'.'.'.'.'.'.'.'.'.K P ..>.>.>.;.Q  .g.h.A t u u u u u u t A h.f.F + '.'.'.'.'.'.'.'.'.'.'.'.'.'.'.'.'.'.'.'.'.",
"'.'.'.'.'.'.'.'.'.'.'.'.'.'.'.H I ~ ~ ~ E H H R E.h.N N N N N N N B h.R.n @ + '.'.'.'.'.'.'.'.'.'.'.'.'.'.'.'.'.'.'.'.'.",
"'.'.'.'.'.'.'.'.'.'.'.'.'.'.'.'.L K K K H 5 8 K W x.^.^.^.^.^.^.^.^.g.Y 0 1 : + '.'.'.'.'.'.'.'.'.'.'.'.'.'.'.'.'.'.'.'.",
"'.'.'.'.'.'.'.'.'.'.'.'.'.'.'.'.'.'.'.7 4 < 5 7 J } x.x.x.x.x.x.x.x.} H 8 5 , # '.'.'.'.'.'.'.'.'.'.'.'.'.'.'.'.'.'.'.'.",
"'.'.'.'.'.'.'.'.'.'.'.'.'.'.'.'.'.'.'.. & 1 < 4 9 q G q q q H H H H H H H 8 < & '.'.'.'.'.'.'.'.'.'.'.'.'.'.'.'.'.'.'.'.",
"'.'.'.'.'.'.'.'.'.'.'.'.'.'.'.'.'.'.'.* & , < < 0 0 0 4 , , q H H H H H H H 8 ; '.'.'.'.'.'.'.'.'.'.'.'.'.'.'.'.'.'.'.'.",
"'.'.'.'.'.'.'.'.'.'.'.'.'.'.'.'.'.'.'.d.] 3 : : : : ; ; ; ; 6 q H H H H H H q : '.'.'.'.'.'.'.'.'.'.'.'.'.'.'.'.'.'.'.'.",
"'.'.'.'.'.'.'.'.'.'.'.'.'.'.'.'.'.'.'.`.^.c = = = = = - 2 k 1 7 H H H H H H q ; '.'.'.'.'.'.'.'.'.'.'.'.'.'.'.'.'.'.'.'.",
"'.'.'.'.'.'.'.'.'.'.'.'.'.'.'.'.'.'.'.`.).q.8.8.8.8.9.p a.l.k 4 H H H H H H q ; '.'.'.'.'.'.'.'.'.'.'.'.'.'.'.'.'.'.'.'.",
"'.'.'.'.'.'.'.'.'.'.'.'.'.'.'.'.'.'.'.'._.U.I.I.I.I.I.k.T.E.2 4 H H H H H H q ; '.'.'.'.'.'.'.'.'.'.'.'.'.'.'.'.'.'.'.'.",
"'.'.'.'.'.'.'.'.'.'.'.'.'.'.'.'.'.'.'.'.'.`.`.`.`.`.`.`.'.'.@ < G H H H H G 8 ; '.'.'.'.'.'.'.'.'.'.'.'.'.'.'.'.'.'.'.'.",
"'.'.'.'.'.'.'.'.'.'.'.'.'.'.'.'.'.'.'.'.'.'.'.'.'.'.'.'.'.'.@ , 6 q H H H 8 < & '.'.'.'.'.'.'.'.'.'.'.'.'.'.'.'.'.'.'.'.",
"'.'.'.'.'.'.'.'.'.'.'.'.'.'.'.'.'.'.'.'.'.'.'.'.'.'.'.'.'.'.@ : < 7 7 7 7 5 , & '.'.'.'.'.'.'.'.'.'.'.'.'.'.'.'.'.'.'.'.",
"'.'.'.'.'.'.'.'.'.'.'.'.'.'.'.'.'.'.'.'.'.'.'.'.'.'.'.'.'.'.. ; 1 , , , , , , * '.'.'.'.'.'.'.'.'.'.'.'.'.'.'.'.'.'.'.'.",
"'.'.'.'.'.'.'.'.'.'.'.'.'.'.'.'.'.'.'.'.'.'.'.'.'.'.'.'.'.'.  . ; @ * & & . & o '.'.'.'.'.'.'.'.'.'.'.'.'.'.'.'.'.'.'.'.",
"'.'.'.'.'.'.'.'.'.'.'.'.'.'.'.'.'.'.'.'.'.'.'.'.'.'.'.'.'.'.O O $ y d d d e o X '.'.'.'.'.'.'.'.'.'.'.'.'.'.'.'.'.'.'.'.",
"'.'.'.'.'.'.'.'.'.'.'.'.'.'.'.'.'.'.'.'.'.'.'.'.'.'.'.'.'.'.X e j q.p.p.p.0.t w '.'.'.'.'.'.'.'.'.'.'.'.'.'.'.'.'.'.'.'.",
"'.'.'.'.'.'.'.'.'.'.'.'.'.'.'.'.'.'.'.'.'.'.'.'.'.'.'.'.'.'.X u./.(.).).)./.Y.y '.'.'.'.'.'.'.'.'.'.'.'.'.'.'.'.'.'.'.'.",
"'.'.'.'.'.'.'.'.'.'.'.'.'.'.'.'.'.'.'.'.'.'.'.'.'.'.'.'.'.'.s.s.s.s.s.s.a.s.s.s.'.'.'.'.'.'.'.'.'.'.'.'.'.'.'.'.'.'.'.'.",
"'.'.'.'.'.'.'.'.'.'.'.'.'.'.'.'.'.'.'.'.'.'.'.'.'.'.'.'.'.'.`.s.X X X X X X y W.'.'.'.'.'.'.'.'.'.'.'.'.'.'.'.'.'.'.'.'.",
"'.'.'.'.'.'.'.'.'.'.'.'.'.'.'.'.'.'.'.'.'.'.'.'.'.'.'.'.'.'.`.s.X X X X X X h W.'.'.'.'.'.'.'.'.'.'.'.'.'.'.'.'.'.'.'.'.",
"'.'.'.'.'.'.'.'.'.'.'.'.'.'.'.'.'.'.'.'.'.'.'.'.'.'.'.'.'.'.'.'.'.'.'.'.'.'.'.'.'.'.'.'.'.'.'.'.'.'.'.'.'.'.'.'.'.'.'.'.",
"'.'.'.'.'.'.'.'.'.'.'.'.'.'.'.'.'.'.'.'.'.'.'.'.'.'.'.'.'.'.'.'.'.'.'.'.'.'.'.'.'.'.'.'.'.'.'.'.'.'.'.'.'.'.'.'.'.'.'.'.",
"'.'.'.'.'.'.'.'.'.'.'.'.'.'.'.'.'.'.'.'.'.'.'.'.'.'.'.'.'.'.'.'.'.'.'.'.'.'.'.'.'.'.'.'.'.'.'.'.'.'.'.'.'.'.'.'.'.'.'.'.",
"'.'.'.'.'.'.'.'.'.'.'.'.'.'.'.'.'.'.'.'.'.'.'.'.'.'.'.'.'.'.'.'.'.'.'.'.'.'.'.'.'.'.'.'.'.'.'.'.'.'.'.'.'.'.'.'.'.'.'.'.",
"'.'.'.'.'.'.'.'.'.'.'.'.'.'.'.'.'.'.'.'.'.'.'.'.'.'.'.'.'.'.'.'.'.'.'.'.'.'.'.'.'.'.'.'.'.'.'.'.'.'.'.'.'.'.'.'.'.'.'.'."
};
