/* XPM */
static char *result[] = {
/* columns rows colors chars-per-pixel */
"60 60 176 2 ",
"   c #1D121C",
".  c #22151D",
"X  c #2C191F",
"o  c #301B1F",
"O  c #171627",
"+  c #03193F",
"@  c #0A193A",
"#  c #0F1C36",
"$  c #171F32",
"%  c #291C25",
"&  c #341D21",
"*  c #3B1F21",
"=  c #172134",
"-  c #13233E",
";  c #3E2122",
":  c #3F2529",
">  c #26243B",
",  c #442223",
"<  c #4D2625",
"1  c #542926",
"2  c #5C2C28",
"3  c #5D302A",
"4  c #64312A",
"5  c #6D372D",
"6  c #733A2F",
"7  c #793D31",
"8  c #7A4236",
"9  c #63403C",
"0  c #051F45",
"q  c #192C46",
"w  c #022956",
"e  c #0A2A53",
"r  c #0D375C",
"t  c #2A2F4E",
"y  c #2B304F",
"u  c #2D3352",
"i  c #2D3F5F",
"p  c #263B5D",
"a  c #3B3C55",
"s  c #343B5B",
"d  c #303656",
"f  c #38334B",
"g  c #00396D",
"h  c #43384B",
"j  c #563A43",
"k  c #3C405D",
"l  c #1C4466",
"z  c #154164",
"x  c #124873",
"c  c #3A4364",
"v  c #3E4769",
"b  c #3F486A",
"n  c #29496E",
"m  c #4C495B",
"M  c #474255",
"N  c #584A56",
"B  c #7C5B5A",
"V  c #704B4A",
"C  c #424C6E",
"Z  c #4D4D63",
"A  c #454F71",
"S  c #495475",
"D  c #4A5575",
"F  c #515C7D",
"G  c #685E67",
"H  c #7F7070",
"J  c #68697F",
"K  c #844434",
"L  c #8A4836",
"P  c #8A4C3B",
"I  c #934E39",
"U  c #9C553D",
"Y  c #97543D",
"T  c #A25A3F",
"R  c #945747",
"E  c #9B5A42",
"W  c #A25D42",
"Q  c #A85F43",
"!  c #8C665B",
"~  c #9D6657",
"^  c #AB6446",
"/  c #A26249",
"(  c #AD694C",
")  c #B66947",
"_  c #BF6F4A",
"`  c #B26949",
"'  c #BA714E",
"]  c #B97351",
"[  c #BE7956",
"{  c #BC7D5D",
"}  c #A76B52",
"|  c #8C7169",
" . c #907C76",
".. c #8E6E67",
"X. c #A87A6E",
"o. c #C6774F",
"O. c #C07754",
"+. c #C37954",
"@. c #CB7E55",
"#. c #C87E58",
"$. c #B38672",
"%. c #CC8056",
"&. c #D6895C",
"*. c #D98D5F",
"=. c #C08767",
"-. c #D3946F",
";. c #DA9569",
":. c #DC9365",
">. c #CD9D7B",
",. c #E09564",
"<. c #E39866",
"1. c #E39C6C",
"2. c #DFA47C",
"3. c #E9A372",
"4. c #E8AA7C",
"5. c #065B93",
"6. c #045188",
"7. c #285A86",
"8. c #2471A4",
"9. c #535F80",
"0. c #546181",
"q. c #5F6C8C",
"w. c #5C6B85",
"e. c #606E8D",
"r. c #657392",
"t. c #62708F",
"y. c #2B82B8",
"u. c #6C8098",
"i. c #7F9CB6",
"p. c #86899A",
"a. c #BB948A",
"s. c #8495AA",
"d. c #9597A7",
"f. c #8194AB",
"g. c #AD9DA1",
"h. c #86A3BC",
"j. c #CFA485",
"k. c #D4B091",
"l. c #DAB494",
"z. c #EEB384",
"x. c #E6B48D",
"c. c #EDB689",
"v. c #F1BC8E",
"b. c #ECBB91",
"n. c #F0BF93",
"m. c #D5BCA6",
"M. c #F4C69B",
"N. c #F6CA9F",
"B. c #F3C296",
"V. c #D7C8BA",
"C. c #F6CEA5",
"Z. c #F1C5A0",
"A. c #F7D1AB",
"S. c #F7D8B7",
"D. c #F8D8B7",
"F. c #F8DBBC",
"G. c #F6D4B2",
"H. c #80B0CF",
"J. c #80B4D5",
"K. c #80A8C5",
"L. c #B1BFCE",
"P. c #B2C4D3",
"I. c #D1C9CA",
"U. c #D5D9DF",
"Y. c #CEC3C2",
"T. c #F8DDC0",
"R. c #EDD6CA",
"E. c #F9E6CF",
"W. c #F9E1C7",
"Q. c #EBE0DD",
"!. c #D5DCE3",
"~. c #DBDEE4",
"^. c #D5E6F1",
"/. c #DBE3EA",
"(. c white",
"). c None",
/* pixels */
").).).).).).).).).).).).).).).).).).).).).).).).).).).).).).).).).).).).).).).).).).).).).).).).).).).).).).).).).).).).",
").).).).).).).).).).).).).).).).).).).).).).).).).).).).).).).).).).).).).).).).).).).).).).).).).).).).).).).).).).).).",
").).).).).).).).).).).).).).).).).).).).).).).).).).).).).).).).).).).).).).).).).).).).).).).).).).).).).).).).).).).).",
").).).).).).).).).).).).).).).).).).).).).).).).).).).).).).).).).).).).).).).).).).).).).).).).).).).).).).).).).).).).",
").).).).).).).).).).).).).).).).).).).).).).).).).).I ) ' o._ _ ` I ).).).).).).).).).).).).).).).).).).).).).).).).).).",
").).).).).).).).).).).).).).).).).).).).).).).).)./ / O.@.#.#.+.+./ / ).).).).).).).).).).).).).).).).).).).).).).).).).",
").).).).).).).).).).).).).).).).).).).).).).).I ) -.x.b.b.b.b.b.b.x.-.) I ).).).).).).).).).).).).).).).).).).).).).).).",
").).).).).).).).).).).).).).).).).).).).).).^ [ -.b.D.D.D.D.D.D.S.F.b.-.[ ^ ).).).).).).).).).).).).).).).).).).).).).).",
").).).).).).).).).).).).).).).).).).).).).I O.4.Z.F.E.E.E.E.E.E.E.E.F.N.4.O.I ).).).).).).).).).).).).).).).).).).).).).",
").).).).).).).).).).).).).).).).).).).).).) -.N.F.E.E.E.E.E.E.E.E.E.E.F.N.-.) ).).).).).).).).).).).).).).).).).).).).).",
").).).).).).).).).).).).).).).).).).).).W %.4.C.W.E.E.E.E.E.E.E.E.E.E.W.C.4.@.U ).).).).).).).).).).).).).).).).).).).).",
").).).).).).).).).).).).).).).).).).).I W ;.c.C.T.E.E.E.E.E.E.E.E.E.E.F.C.v.;.W ).).).).).).).).).).).).).).).).).).).).",
").).).).).).).).).).).).).).).).).).).) [ x.M.N.C.D.E.E.E.E.E.E.E.E.D.C.N.M.x.O.).).).).).).).).).).).).).).).).).).).).",
").).).).).).).).).).).).).).).).).).).' @.b.N.N.C.A.S.S.F.D.S.D.D.D.A.C.N.N.b.#.).).).).).).).).).).).).).).).).).).).).",
").).).).).).).).).).).).).).).).).).).o.#.b.N.N.N.N.N.N.N.N.C.N.N.N.N.N.N.N.b.#.).).).).).).).).).).).).).).).).).).).).",
").).).).).).).).).).).).).).).).).).)._ @.b.N.N.N.N.N.N.N.N.N.N.N.N.N.N.N.N.b.#.).).).).).).).).).).).).).).).).).).).).",
").).).).).).).).).).).).).).).).).).)._ #.b.M.N.N.N.N.N.N.N.N.N.N.N.N.N.N.N.b.#.).).).).).).).).).).).).).).).).).).).).",
").).).).).).).).).).).).).).).).).).)._ #.b.N.N.N.N.N.N.N.N.N.N.N.N.N.N.N.N.b.#.).).).).).).).).).).).).).).).).).).).).",
").).).).).).).).).).).).).).).).).).)._ #.b.N.N.N.N.N.N.N.N.N.N.N.N.N.N.N.N.b.#.).).).).).).).).).).).).).).).).).).).).",
").).).).).).).).).).).).).).).).).).)._ #.b.N.N.N.N.N.N.N.N.N.N.N.N.N.N.N.N.b.%.).).).).).).).).).).).).).).).).).).).).",
").).).).).).).).).).).).).).).).).).).) ] j.k.k.k.k.l.Z.N.N.N.N.N.N.N.M.l.k.j.] ` ).).).).).).).).).).).).).).).).).).).",
").).).).).).).).).).).).).).).).).).).I R N m m m m G l.N.N.N.N.C.Z.N.l.G Z N 8 L L ).).).).).).).).).).).).).).).).).).",
").).).).).).).).).).).).).).).).).).).U E ! ..H a t a |  . . . . . . .H a t h a.$.' Y ).).).).).).).).).).).).).).).).).",
").).).).).).).).).).).).).).).).).).I ^ @.1.c.l.G a y y u u u u u u u u u u Z V.M.,.W ).).).).).).).).).).).).).).).).).",
").).).).).).).).).).).).).).).).).I ) %.1.v.M.M.l.H y t s v v v v v v v v s Z V.G.c.[ ).).).).).).).).).).).).).).).).).",
").).).).).).).).).).).).).).).).T ^ @.1.c.M.N.N.N. .y i c A F 0.9.9.D A A s Z m.A.b.:.' ).).).).).).).).).).).).).).).).",
").).).).).).).).).).).).).).).).o.o.,.z.N.N.N.N.N. .u v A D q.r.r.r.9.C C s Z k.M.v.3.' L ).).).).).).).).).).).).).).).",
").).).).).).).).).).).).).).).)._ o.,.z.N.N.N.N.N. .u v F e.r.r.r.t.9.A C s m k.c.3.1.' L ).).).).).).).).).).).).).).).",
").).).).).).).).).).).).).).).)._ o.:.3.c.M.N.M.c.| u v 0.r.r.r.e.0.D C C s M >.3.<.&.` L ).).).).).).).).).).).).).).).",
").).).).).).).).).).).).).).).).) _ *.<.3.v.B.v.3.! s v F e.q.q.w.S A C C a M =.:.*.' T L ).).).).).).).).).).).).).).).",
").).).).).).).).).).).).).).).).I U ' &.1.3.3.3.1.| v C A S S S A C C v d u f ( o.' U I ).).).).).).).).).).).).).).).).",
").).).).).).).).).).).).).).).).U ^ @.1.z.z.3.<.&...C C C C C C C C C v u h V U T T I ).).).).).).).).).).).).).).).).).",
").).).).).).).).).).).).).).).L ^ %.1.c.N.N.c.<.+.! v b C C C C C C C c u j L L L L ).).).).).).).).).).).).).).).).).).",
").).).).).).).).).).).).).).).L ` 1.b.M.N.N.M.c.@.V s b C C C C C C k u t f ).).).).).).).).).).).).).).).).).).).).).).",
").).).).).).).).).).).).).).).L ' 3.M.M.N.N.N.b.#.V u s v C C C b c u c p.).).).).).).).).).).).).).).).).).).).).).).).",
").).).).).).).).).).).).).).).L ' 3.v.M.N.N.B.x.-.B t t s v v v c u a J I.Y.).).).).).).).).).).).).).).).).).).).).).).",
").).).).).).).).).).).).).).).L ] 1.3.c.N.N.2.-.R.p.t t u u u u u u p.I.X.5   ).).).).).).).).).).).).).).).).).).).).).",
").).).).).).).).).).).).).).).).( ' ' { =.$.} E a.g.d.d.d.d.d.d.d.d.g.a.R 3 % ).).).).).).).).).).).).).).).).).).).).).",
").).).).).).).).).).).).).).).).).L P 8 8 8 5 4 K a.Q.Q.Q.Q.Q.Q.Q.Q.a.L P 4 : ).).).).).).).).).).).).).).).).).).).).).",
").).).).).).).).).).).).).).).).).).).> > , 1 4 K R ~ ~ ~ ~ ~ ~ ~ ~ R L K 5 < % ).).).).).).).).).).).).).).).).).).).).",
").).).).).).).).).).).).).).).).).).).+ @ & , 1 5 6 7 L L L L L L L L L L 6 1 o ).).).).).).).).).).).).).).).).).).).).",
").).).).).).).).).).).).).).).).).).).+ @ % o , 1 2 4 7 K K K L L L L L K 5 1 ; ).).).).).).).).).).).).).).).).).).).).",
").).).).).).).).).).).).).).).).).).).+ @ . o ; o 1 4 4 4 4 4 6 L L L K 5 1 ; ; ).).).).).).).).).).).).).).).).).).).).",
").).).).).).).).).).).).).).).).).).).+ 0 g - o o o o ; , , < 4 6 6 6 5 1 , & X ).).).).).).).).).).).).).).).).).).).).",
").).).).).).).).).).).).).).).).).).).i l 5.z = $ = $ O % o o , 1 2 1 1 ; * X . ).).).).).).).).).).).).).).).).).).).).",
").).).).).).).).).).).).).).).).).).).U.L.7.6.5.5.5.6.g - . . o ; ; ; ; * X .   ).).).).).).).).).).).).).).).).).).).).",
").).).).).).).).).).).).).).).).).).).)./.K.K.J.J.J.H.h.e.  O r l l l l l z r # ).).).).).).).).).).).).).).).).).).).).",
").).).).).).).).).).).).).).).).).).).).).(.(.(.(.(.(.(.).).0 x y.y.y.y.y.y.8.e ).).).).).).).).).).).).).).).).).).).).",
").).).).).).).).).).).).).).).).).).).).).).).).).).).).).).0 r.^.^.^.^.^.^.P.p ).).).).).).).).).).).).).).).).).).).).",
").).).).).).).).).).).).).).).).).).).).).).).).).).).).).).p.f.i.i.i.i.i.i.f.f.).).).).).).).).).).).).).).).).).).).).",
").).).).).).).).).).).).).).).).).).).).).).).).).).).).).).(.i.g g g g g g 7.!.).).).).).).).).).).).).).).).).).).).).",
").).).).).).).).).).).).).).).).).).).).).).).).).).).).).).(.i.g g g g g g 7.!.).).).).).).).).).).).).).).).).).).).).",
").).).).).).).).).).).).).).).).).).).).).).).).).).).).).).(.i.w w w w w w n !.).).).).).).).).).).).).).).).).).).).).",
").).).).).).).).).).).).).).).).).).).).).).).).).).).).).).(.d.i i i c c p F !.).).).).).).).).).).).).).).).).).).).).",
").).).).).).).).).).).).).).).).).).).).).).).).).).).).).).).~.U.U.U.U.U.U.U.).).).).).).).).).).).).).).).).).).).).).",
").).).).).).).).).).).).).).).).).).).).).).).).).).).).).).).).).).).).).).).).).).).).).).).).).).).).).).).).).).).).",
").).).).).).).).).).).).).).).).).).).).).).).).).).).).).).).).).).).).).).).).).).).).).).).).).).).).).).).).).).).).",
").).).).).).).).).).).).).).).).).).).).).).).).).).).).).).).).).).).).).).).).).).).).).).).).).).).).).).).).).).).).",
").).).).).).).).).).).).).).).).).).).).).).).).).).).).).).).).).).).).).).).).).).).).).).).).).).).).).).).).).).).).",
").).).).).).).).).).).).).).).).).).).).).).).).).).).).).).).).).).).).).).).).).).).).).).).).).).).).).).).).).).).)."
};
