/* XPM */
static char *result[] = {
/* columns rows colors chars-per-pixel */
"60 60 175 2 ",
"   c #1C121C",
".  c #22151D",
"X  c #2B191F",
"o  c #301B1F",
"O  c #171627",
"+  c #03193F",
"@  c #0A193A",
"#  c #0F1C36",
"$  c #131B30",
"%  c #291C25",
"&  c #341D21",
"*  c #3A1F21",
"=  c #172134",
"-  c #13233E",
";  c #3E2122",
":  c #3F2529",
">  c #26243B",
",  c #442223",
"<  c #4D2625",
"1  c #542926",
"2  c #5C2C28",
"3  c #5D302A",
"4  c #64312A",
"5  c #6D372D",
"6  c #733A2F",
"7  c #793D31",
"8  c #7A4236",
"9  c #63403C",
"0  c #051F45",
"q  c #192C46",
"w  c #022956",
"e  c #0A2B53",
"r  c #0D375C",
"t  c #2A2F4E",
"y  c #2B304F",
"u  c #2D3352",
"i  c #2D3F5F",
"p  c #263B5D",
"a  c #3B3C55",
"s  c #343B5B",
"d  c #303656",
"f  c #00396D",
"g  c #4A3D4E",
"h  c #3C405D",
"j  c #1C4466",
"k  c #154164",
"l  c #124773",
"z  c #3A4364",
"x  c #3E4769",
"c  c #3F486A",
"v  c #29496E",
"b  c #4C495C",
"n  c #474255",
"m  c #584A56",
"M  c #744F4C",
"N  c #7A514D",
"B  c #7D5B5A",
"V  c #424C6E",
"C  c #4C4D63",
"Z  c #454F71",
"A  c #495475",
"S  c #4A5575",
"D  c #515C7D",
"F  c #685E67",
"G  c #7F7070",
"H  c #68697F",
"J  c #834434",
"K  c #8A4836",
"L  c #8A4C3B",
"P  c #934F39",
"I  c #9C553D",
"U  c #96523C",
"Y  c #A25A3F",
"T  c #945747",
"R  c #9E5A41",
"E  c #975C49",
"W  c #A15D43",
"Q  c #A85F43",
"!  c #8C665B",
"~  c #9D6657",
"^  c #AB6346",
"/  c #A26249",
"(  c #AD694C",
")  c #B66947",
"_  c #BF6F4A",
"`  c #B26949",
"'  c #BA714E",
"]  c #BA7352",
"[  c #BE7956",
"{  c #BC7D5D",
"}  c #A76B52",
"|  c #8C7169",
" . c #907C76",
".. c #8E6E67",
"X. c #A87A6F",
"o. c #C5764F",
"O. c #C07754",
"+. c #C37954",
"@. c #CB7E55",
"#. c #C87E58",
"$. c #B38672",
"%. c #CC8056",
"&. c #D6895C",
"*. c #D98D5F",
"=. c #C08767",
"-. c #DE9364",
";. c #D3946F",
":. c #DA9569",
">. c #CD9D7B",
",. c #E39866",
"<. c #E39C6C",
"1. c #DFA47C",
"2. c #E9A372",
"3. c #E8A97B",
"4. c #065B93",
"5. c #045188",
"6. c #285A86",
"7. c #2471A4",
"8. c #535F80",
"9. c #546181",
"0. c #5E6B89",
"q. c #606E8D",
"w. c #657392",
"e. c #6C7F98",
"r. c #62708F",
"t. c #2B82B8",
"y. c #7F9CB6",
"u. c #85899B",
"i. c #BB948A",
"p. c #A38A88",
"a. c #8495AA",
"s. c #9597A7",
"d. c #809BB5",
"f. c #818FA3",
"g. c #AD9DA1",
"h. c #86A3BC",
"j. c #CFA485",
"k. c #D4B091",
"l. c #DAB494",
"z. c #EEB384",
"x. c #E6B48D",
"c. c #EDB689",
"v. c #F1BC8E",
"b. c #ECBB91",
"n. c #F0BF93",
"m. c #D5BCA5",
"M. c #F4C69B",
"N. c #F6CA9F",
"B. c #F3C296",
"V. c #D6C7B9",
"C. c #F6CEA5",
"Z. c #F1C5A1",
"A. c #F7D1AB",
"S. c #F7D8B7",
"D. c #F8D8B7",
"F. c #F8DBBC",
"G. c #F6D4B3",
"H. c #80B4D5",
"J. c #80ACCA",
"K. c #B2BFCE",
"L. c #B2C4D3",
"P. c #D1C9CB",
"I. c #D5D9DF",
"U. c #CEC3C2",
"Y. c #F8DDC0",
"T. c #EDD6CA",
"R. c #F9E6CF",
"E. c #F9E1C7",
"W. c #EBE0DD",
"Q. c #D5DCE3",
"!. c #DBDEE4",
"~. c #D5E6F1",
"^. c #DBE3EA",
"/. c white",
"(. c None",
/* pixels */
"(.(.(.(.(.(.(.(.(.(.(.(.(.(.(.(.(.(.(.(.(.(.(.(.(.(.(.(.(.(.(.(.(.(.(.(.(.(.(.(.(.(.(.(.(.(.(.(.(.(.(.(.(.(.(.(.(.(.(.(.",
"(.(.(.(.(.(.(.(.(.(.(.(.(.(.(.(.(.(.(.(.(.(.(.(.(.(.(.(.(.(.(.(.(.(.(.(.(.(.(.(.(.(.(.(.(.(.(.(.(.(.(.(.(.(.(.(.(.(.(.(.",
"(.(.(.(.(.(.(.(.(.(.(.(.(.(.(.(.(.(.(.(.(.(.(.(.(.(.(.(.(.(.(.(.(.(.(.(.(.(.(.(.(.(.(.(.(.(.(.(.(.(.(.(.(.(.(.(.(.(.(.(.",
"(.(.(.(.(.(.(.(.(.(.(.(.(.(.(.(.(.(.(.(.(.(.(.(.(.(.(.(.(.(.(.(.(.(.(.(.(.(.(.(.(.(.(.(.(.(.(.(.(.(.(.(.(.(.(.(.(.(.(.(.",
"(.(.(.(.(.(.(.(.(.(.(.(.(.(.(.(.(.(.(.(.(.(.(.(.(.K P ) ' o._ _ ) P (.(.(.(.(.(.(.(.(.(.(.(.(.(.(.(.(.(.(.(.(.(.(.(.(.(.",
"(.(.(.(.(.(.(.(.(.(.(.(.(.(.(.(.(.(.(.(.(.(.(.(.(./ / +.@.#.#.+.[ / / (.(.(.(.(.(.(.(.(.(.(.(.(.(.(.(.(.(.(.(.(.(.(.(.(.",
"(.(.(.(.(.(.(.(.(.(.(.(.(.(.(.(.(.(.(.(.(.(.(.P ) ;.x.b.b.b.b.b.b.x.;.) P (.(.(.(.(.(.(.(.(.(.(.(.(.(.(.(.(.(.(.(.(.(.(.",
"(.(.(.(.(.(.(.(.(.(.(.(.(.(.(.(.(.(.(.(.(.(.^ [ ;.b.D.D.D.D.D.D.S.S.b.;.[ ( (.(.(.(.(.(.(.(.(.(.(.(.(.(.(.(.(.(.(.(.(.(.",
"(.(.(.(.(.(.(.(.(.(.(.(.(.(.(.(.(.(.(.(.(.P +.3.Z.F.R.R.R.R.R.R.R.R.F.N.3.+.P (.(.(.(.(.(.(.(.(.(.(.(.(.(.(.(.(.(.(.(.(.",
"(.(.(.(.(.(.(.(.(.(.(.(.(.(.(.(.(.(.(.(.(.) ;.N.F.R.R.R.R.R.R.R.R.R.R.F.N.;.) (.(.(.(.(.(.(.(.(.(.(.(.(.(.(.(.(.(.(.(.(.",
"(.(.(.(.(.(.(.(.(.(.(.(.(.(.(.(.(.(.(.(.R %.3.C.E.R.R.R.R.R.R.R.R.R.R.E.C.3.%.R (.(.(.(.(.(.(.(.(.(.(.(.(.(.(.(.(.(.(.(.",
"(.(.(.(.(.(.(.(.(.(.(.(.(.(.(.(.(.(.(.P W :.c.C.Y.R.R.R.R.R.R.R.R.R.R.F.C.c.:.W (.(.(.(.(.(.(.(.(.(.(.(.(.(.(.(.(.(.(.(.",
"(.(.(.(.(.(.(.(.(.(.(.(.(.(.(.(.(.(.(.) [ x.M.N.C.F.R.R.R.R.R.R.R.R.F.C.N.M.x.+.(.(.(.(.(.(.(.(.(.(.(.(.(.(.(.(.(.(.(.(.",
"(.(.(.(.(.(.(.(.(.(.(.(.(.(.(.(.(.(.(.' @.b.N.N.C.A.S.D.F.S.S.S.D.D.A.N.N.N.b.#.(.(.(.(.(.(.(.(.(.(.(.(.(.(.(.(.(.(.(.(.",
"(.(.(.(.(.(.(.(.(.(.(.(.(.(.(.(.(.(.(.o.#.b.N.N.N.N.N.N.N.N.N.N.N.N.N.N.N.N.b.#.(.(.(.(.(.(.(.(.(.(.(.(.(.(.(.(.(.(.(.(.",
"(.(.(.(.(.(.(.(.(.(.(.(.(.(.(.(.(.(.(._ @.b.N.N.N.N.N.N.N.N.N.N.N.N.N.N.N.N.b.#.(.(.(.(.(.(.(.(.(.(.(.(.(.(.(.(.(.(.(.(.",
"(.(.(.(.(.(.(.(.(.(.(.(.(.(.(.(.(.(.(._ #.b.N.N.N.N.N.N.N.N.N.N.N.C.N.N.N.N.b.#.(.(.(.(.(.(.(.(.(.(.(.(.(.(.(.(.(.(.(.(.",
"(.(.(.(.(.(.(.(.(.(.(.(.(.(.(.(.(.(.(._ #.b.N.N.N.N.N.N.N.N.N.N.N.N.N.N.N.N.b.#.(.(.(.(.(.(.(.(.(.(.(.(.(.(.(.(.(.(.(.(.",
"(.(.(.(.(.(.(.(.(.(.(.(.(.(.(.(.(.(.(._ #.b.N.N.N.N.N.N.N.N.N.N.N.N.M.C.N.N.b.#.(.(.(.(.(.(.(.(.(.(.(.(.(.(.(.(.(.(.(.(.",
"(.(.(.(.(.(.(.(.(.(.(.(.(.(.(.(.(.(.(._ #.b.N.C.N.N.N.N.N.N.N.N.N.N.N.M.N.N.b.%.(.(.(.(.(.(.(.(.(.(.(.(.(.(.(.(.(.(.(.(.",
"(.(.(.(.(.(.(.(.(.(.(.(.(.(.(.(.(.(.(.^ ] j.k.l.M.N.N.N.N.N.N.N.M.l.k.k.k.k.j.] (.(.(.(.(.(.(.(.(.(.(.(.(.(.(.(.(.(.(.(.",
"(.(.(.(.(.(.(.(.(.(.(.(.(.(.(.(.(.(.K P L m b F l.N.N.N.N.N.N.N.l.F b b b b m L (.(.(.(.(.(.(.(.(.(.(.(.(.(.(.(.(.(.(.(.",
"(.(.(.(.(.(.(.(.(.(.(.(.(.(.(.(.(.U ' $.$.n y s |  . . . . . . .G a y a G | ! W I (.(.(.(.(.(.(.(.(.(.(.(.(.(.(.(.(.(.(.",
"(.(.(.(.(.(.(.(.(.(.(.(.(.(.(.(.P W :.Z.V.C u u u u u u u u u y y y a F l.c.<.@.^ P (.(.(.(.(.(.(.(.(.(.(.(.(.(.(.(.(.(.",
"(.(.(.(.(.(.(.(.(.(.(.(.(.(.(.(.) O.c.D.V.C s x c c c c c x x i t t G l.M.M.v.<.@.^ P (.(.(.(.(.(.(.(.(.(.(.(.(.(.(.(.(.",
"(.(.(.(.(.(.(.(.(.(.(.(.(.(.(.K ] *.n.A.m.C s Z c S 9.9.8.8.Z z s u  .N.N.N.M.c.<.@.^ (.(.(.(.(.(.(.(.(.(.(.(.(.(.(.(.(.",
"(.(.(.(.(.(.(.(.(.(.(.(.(.(.(.K ] 2.v.M.k.b s Z c 9.w.w.w.0.S Z c u  .N.N.N.N.N.z.,.o.(.(.(.(.(.(.(.(.(.(.(.(.(.(.(.(.(.",
"(.(.(.(.(.(.(.(.(.(.(.(.(.(.(.K _ <.<.c.k.b s V Z 9.w.w.w.w.q.8.c u  .N.N.N.N.N.z.-.o.(.(.(.(.(.(.(.(.(.(.(.(.(.(.(.(.(.",
"(.(.(.(.(.(.(.(.(.(.(.(.(.(.(.K ( &.,.2.>.n s Z Z A 9.q.w.w.w.8.V t ..z.M.N.M.c.2.,.o.(.(.(.(.(.(.(.(.(.(.(.(.(.(.(.(.(.",
"(.(.(.(.(.(.(.(.(.(.(.(.(.(.(.K I ' *.,.=.g s V c Z Z 0.q.q.0.8.V d ! 2.v.B.v.2.,.*.' (.(.(.(.(.(.(.(.(.(.(.(.(.(.(.(.(.",
"(.(.(.(.(.(.(.(.(.(.(.(.(.(.(.(.P I _ +.} g y s c Z Z Z Z A Z Z V V | <.2.2.2.<.&._ I (.(.(.(.(.(.(.(.(.(.(.(.(.(.(.(.(.",
"(.(.(.(.(.(.(.(.(.(.(.(.(.(.(.(.(.P Y W R N g u c c c Z Z c Z Z V Z ..&.,.2.z.z.<.@.^ I K (.(.(.(.(.(.(.(.(.(.(.(.(.(.(.",
"(.(.(.(.(.(.(.(.(.(.(.(.(.(.(.(.(.(.K K U ) M u z V V V V V V V V x B o.<.c.C.N.c.<.@.Q K (.(.(.(.(.(.(.(.(.(.(.(.(.(.(.",
"(.(.(.(.(.(.(.(.(.(.(.(.(.(.(.(.(.(.(.(.(._ M t u s V V V V V V x s M @.c.B.M.N.M.v.<.' K (.(.(.(.(.(.(.(.(.(.(.(.(.(.(.",
"(.(.(.(.(.(.(.(.(.(.(.(.(.(.(.(.(.(.(.(.(.(.p.u.h d z V V V V z s y M #.v.C.N.N.N.B.2.' K (.(.(.(.(.(.(.(.(.(.(.(.(.(.(.",
"(.(.(.(.(.(.(.(.(.(.(.(.(.(.(.(.(.(.(.(.(.(.U.P.q.a u z V z V a t t B ;.x.B.N.N.M.v.2.' K (.(.(.(.(.(.(.(.(.(.(.(.(.(.(.",
"(.(.(.(.(.(.(.(.(.(.(.(.(.(.(.(.(.(.(.(.(.  9 X.P.u.t y u u u u t t u.T.;.1.C.C.c.2.<.] K (.(.(.(.(.(.(.(.(.(.(.(.(.(.(.",
"(.(.(.(.(.(.(.(.(.(.(.(.(.(.(.(.(.(.(.(.(.X 3 T i.g.s.s.s.s.s.s.s.s.g.i.T } =.$.{ ' ' ^ (.(.(.(.(.(.(.(.(.(.(.(.(.(.(.(.",
"(.(.(.(.(.(.(.(.(.(.(.(.(.(.(.(.(.(.(.(.(.; 4 K K i.W.W.W.W.W.W.W.W.i.J 4 5 7 7 8 K K (.(.(.(.(.(.(.(.(.(.(.(.(.(.(.(.(.",
"(.(.(.(.(.(.(.(.(.(.(.(.(.(.(.(.(.(.(.(.X < 5 K K T ~ ~ ~ ~ ~ ~ ~ ~ T J 4 1 , > > (.(.(.(.(.(.(.(.(.(.(.(.(.(.(.(.(.(.(.",
"(.(.(.(.(.(.(.(.(.(.(.(.(.(.(.(.(.(.(.X & 1 6 K K K K K K K K K J 7 6 5 1 , % @ (.(.(.(.(.(.(.(.(.(.(.(.(.(.(.(.(.(.(.(.",
"(.(.(.(.(.(.(.(.(.(.(.(.(.(.(.(.(.(.(.* ; 1 5 J K K K K K 8 J J 7 4 1 1 ; * % @ (.(.(.(.(.(.(.(.(.(.(.(.(.(.(.(.(.(.(.(.",
"(.(.(.(.(.(.(.(.(.(.(.(.(.(.(.(.(.(.(.* * ; 1 5 J K K K 6 4 4 4 4 2 < , * X O @ (.(.(.(.(.(.(.(.(.(.(.(.(.(.(.(.(.(.(.(.",
"(.(.(.(.(.(.(.(.(.(.(.(.(.(.(.(.(.(.(.X X & , 1 5 6 6 6 3 < < , * ; o X X q r 0 (.(.(.(.(.(.(.(.(.(.(.(.(.(.(.(.(.(.(.(.",
"(.(.(.(.(.(.(.(.(.(.(.(.(.(.(.(.(.(.(.  . o * , 1 1 1 2 , & & % O = = = $ k 4.v (.(.(.(.(.(.(.(.(.(.(.(.(.(.(.(.(.(.(.(.",
"(.(.(.(.(.(.(.(.(.(.(.(.(.(.(.(.(.(.(.    . o o , * * , X %   - f 5.4.4.4.5.6.K.(.(.(.(.(.(.(.(.(.(.(.(.(.(.(.(.(.(.(.(.",
"(.(.(.(.(.(.(.(.(.(.(.(.(.(.(.(.(.(.(.$ # r k j j j j j q $   0.h.J.H.H.H.J.h.^.(.(.(.(.(.(.(.(.(.(.(.(.(.(.(.(.(.(.(.(.",
"(.(.(.(.(.(.(.(.(.(.(.(.(.(.(.(.(.(.(.+ e 7.t.t.t.t.t.t.l + (.(./././././././.(.(.(.(.(.(.(.(.(.(.(.(.(.(.(.(.(.(.(.(.(.",
"(.(.(.(.(.(.(.(.(.(.(.(.(.(.(.(.(.(.(.0 p L.~.~.~.~.~.~.e.0 (.(.(.(.(.(.(.(.(.(.(.(.(.(.(.(.(.(.(.(.(.(.(.(.(.(.(.(.(.(.",
"(.(.(.(.(.(.(.(.(.(.(.(.(.(.(.(.(.(.(.u.f.y.y.y.y.y.y.y.y.u.(.(.(.(.(.(.(.(.(.(.(.(.(.(.(.(.(.(.(.(.(.(.(.(.(.(.(.(.(.(.",
"(.(.(.(.(.(.(.(.(.(.(.(.(.(.(.(.(.(.(./.Q.6.f f f f f f y./.(.(.(.(.(.(.(.(.(.(.(.(.(.(.(.(.(.(.(.(.(.(.(.(.(.(.(.(.(.(.",
"(.(.(.(.(.(.(.(.(.(.(.(.(.(.(.(.(.(.(./.Q.6.f f f f f f y./.(.(.(.(.(.(.(.(.(.(.(.(.(.(.(.(.(.(.(.(.(.(.(.(.(.(.(.(.(.(.",
"(.(.(.(.(.(.(.(.(.(.(.(.(.(.(.(.(.(.(./.Q.v w w w w w w a./.(.(.(.(.(.(.(.(.(.(.(.(.(.(.(.(.(.(.(.(.(.(.(.(.(.(.(.(.(.(.",
"(.(.(.(.(.(.(.(.(.(.(.(.(.(.(.(.(.(.(.(.Q.S j z i i i i a./.(.(.(.(.(.(.(.(.(.(.(.(.(.(.(.(.(.(.(.(.(.(.(.(.(.(.(.(.(.(.",
"(.(.(.(.(.(.(.(.(.(.(.(.(.(.(.(.(.(.(.(.(.I.I.I.I.I.I.I.!.(.(.(.(.(.(.(.(.(.(.(.(.(.(.(.(.(.(.(.(.(.(.(.(.(.(.(.(.(.(.(.",
"(.(.(.(.(.(.(.(.(.(.(.(.(.(.(.(.(.(.(.(.(./././././././.(.(.(.(.(.(.(.(.(.(.(.(.(.(.(.(.(.(.(.(.(.(.(.(.(.(.(.(.(.(.(.(.",
"(.(.(.(.(.(.(.(.(.(.(.(.(.(.(.(.(.(.(.(.(.(.(.(.(.(.(.(.(.(.(.(.(.(.(.(.(.(.(.(.(.(.(.(.(.(.(.(.(.(.(.(.(.(.(.(.(.(.(.(.",
"(.(.(.(.(.(.(.(.(.(.(.(.(.(.(.(.(.(.(.(.(.(.(.(.(.(.(.(.(.(.(.(.(.(.(.(.(.(.(.(.(.(.(.(.(.(.(.(.(.(.(.(.(.(.(.(.(.(.(.(.",
"(.(.(.(.(.(.(.(.(.(.(.(.(.(.(.(.(.(.(.(.(.(.(.(.(.(.(.(.(.(.(.(.(.(.(.(.(.(.(.(.(.(.(.(.(.(.(.(.(.(.(.(.(.(.(.(.(.(.(.(.",
"(.(.(.(.(.(.(.(.(.(.(.(.(.(.(.(.(.(.(.(.(.(.(.(.(.(.(.(.(.(.(.(.(.(.(.(.(.(.(.(.(.(.(.(.(.(.(.(.(.(.(.(.(.(.(.(.(.(.(.(."
};
