/* XPM */
static char *result[] = {
/* columns rows colors chars-per-pixel */
"45 60 188 2 ",
"   c #1C121C",
".  c #28171E",
"X  c #03193F",
"o  c #0D1A39",
"O  c #181A31",
"+  c #2D1E27",
"@  c #341D22",
"#  c #391F21",
"$  c #3A2D36",
"%  c #4A2726",
"&  c #5A2E29",
"*  c #4A2F37",
"=  c #68352D",
"-  c #793E31",
";  c #773C30",
":  c #5F413A",
">  c #61433C",
",  c #75463B",
"<  c #021F48",
"1  c #022C58",
"2  c #183458",
"3  c #022048",
"4  c #2A2F4E",
"5  c #3A344B",
"6  c #303C55",
"7  c #00396D",
"8  c #013464",
"9  c #123760",
"0  c #483C4D",
"q  c #4D3845",
"w  c #643E40",
"e  c #603F59",
"r  c #3D455B",
"t  c #1E4165",
"y  c #00457B",
"u  c #1E527C",
"i  c #384061",
"p  c #334863",
"a  c #4B434B",
"s  c #594449",
"d  c #49495B",
"f  c #514A59",
"g  c #634C4E",
"h  c #654746",
"j  c #714440",
"k  c #6A5559",
"l  c #795B54",
"z  c #444D6E",
"x  c #534E63",
"c  c #595267",
"v  c #5C5769",
"b  c #4D5776",
"n  c #525A77",
"m  c #625C6B",
"M  c #5D6478",
"N  c #676575",
"B  c #776D7A",
"V  c #834535",
"C  c #8A4836",
"Z  c #9B573F",
"A  c #9D583F",
"S  c #95513B",
"D  c #944F3A",
"F  c #864F43",
"G  c #875548",
"H  c #9A5B48",
"J  c #895C53",
"K  c #AA5F42",
"L  c #A05C42",
"P  c #8D6158",
"I  c #9A6551",
"U  c #A1624B",
"Y  c #AE6A4A",
"T  c #A86246",
"R  c #B36B4A",
"E  c #BF6F4A",
"W  c #B46746",
"Q  c #BF724D",
"!  c #A66852",
"~  c #A36C5C",
"^  c #B06E51",
"/  c #B67555",
"(  c #887879",
")  c #927A71",
"_  c #A27666",
"`  c #C4764F",
"'  c #C27953",
"]  c #CA7C54",
"[  c #C67A54",
"{  c #A98776",
"}  c #CF8156",
"|  c #CA815B",
" . c #C5825E",
".. c #D58A5D",
"X. c #D5885B",
"o. c #CC8A64",
"O. c #C48866",
"+. c #D68F65",
"@. c #DC9364",
"#. c #D4926B",
"$. c #D99469",
"%. c #DA996F",
"&. c #CA9574",
"*. c #DB9D74",
"=. c #D79F79",
"-. c #C9906E",
";. c #E49C6B",
":. c #DEA47C",
">. c #D6A17B",
",. c #E9A573",
"<. c #E0A67D",
"1. c #ECAE7E",
"2. c #E6A677",
"3. c #5C32B0",
"4. c #004C83",
"5. c #04588F",
"6. c #255C82",
"7. c #02629D",
"8. c #08659C",
"9. c #256D94",
"0. c #296488",
"q. c #0169A5",
"w. c #0073B3",
"e. c #007DBC",
"r. c #5B6B83",
"t. c #616884",
"y. c #6A778E",
"u. c #7B7884",
"i. c #85738E",
"p. c #996CBA",
"a. c #8268D1",
"s. c #0080BE",
"d. c #6C829B",
"f. c #7294B2",
"g. c #0083C4",
"h. c #008FD2",
"j. c #0093D6",
"k. c #0098DC",
"l. c #6B9EC1",
"z. c #6AB2D9",
"x. c #6AA2C6",
"c. c #6AC3EB",
"v. c #A79390",
"b. c #8994A5",
"n. c #CEA685",
"m. c #D2A886",
"M. c #D5AB8A",
"N. c #D9AD8A",
"B. c #DFB28D",
"V. c #C8A594",
"C. c #D2B195",
"Z. c #E5AE84",
"A. c #EAAF81",
"S. c #ECB284",
"D. c #E5B48D",
"F. c #EEB689",
"G. c #EBB88E",
"H. c #F0BA8B",
"J. c #EEBC92",
"K. c #E1B591",
"L. c #F2BF92",
"P. c #D0B6AF",
"I. c #D1ADA8",
"U. c #E0B4A5",
"Y. c #F3C194",
"T. c #F3C59A",
"R. c #F6CA9F",
"E. c #EEC39A",
"W. c #D7C2AF",
"Q. c #F5CCA5",
"!. c #F7CFA8",
"~. c #F7D0A9",
"^. c #F7D5B3",
"/. c #F8DBBC",
"(. c #F8D7B6",
"). c #EDD0BA",
"_. c #AF8DCB",
"`. c #CCC0C1",
"'. c #CFD2D9",
"]. c #D5D2D3",
"[. c #D2D5DB",
"{. c #D7D9DF",
"}. c #F8DFC3",
"|. c #F8E0C5",
" X c #F9E6CF",
".X c #FAE8D8",
"XX c #FFFFFF",
"oX c None",
/* pixels */
"oXoXoXoXoXoXoXoXoXoXoXoXoXoXoXoXoXoXoXoXoXoXoXoXoXoXoXoXoXoXoXoXoXoXoXoXoXoXoXoXoXoXoXoXoX",
"oXoXoXoXoXoXoXoXoXoXoXoXoXoXoXoXoXoXoXoXoXoXoXoXoXoXoXoXoXoXoXoXoXoXoXoXoXoXoXoXoXoXoXoXoX",
"oXoXoXoXoXoXoXoXoXoXoXoXoXoXoXoXoXC K ` E E E Q E E K C oXoXoXoXoXoXoXoXoXoXoXoXoXoXoXoXoX",
"oXoXoXoXoXoXoXoXoXoXoXoXoXoXoXoXQ ' #.:.<.<.<.:.<.<.=.&.O.W S oXoXoXoXoXoXoXoXoXoXoXoXoXoX",
"oXoXoXoXoXoXoXoXoXoXoXoXoXoXoX] ..,.L.!.~.!.~.~.~.~.~.~.*./ T Z oXoXoXoXoXoXoXoXoXoXoXoXoX",
"oXoXoXoXoXoXoXoXoXoXoXoXoXoX` ..2.Y.^.|.|.|.|.|.|.|.|.|.Q.Z.#.Q C oXoXoXoXoXoXoXoXoXoXoXoX",
"oXoXoXoXoXoXoXoXoXoXoXoXoX] ..,.L.^.}. X X X X X X X X X/.Q.F.o.A oXoXoXoXoXoXoXoXoXoXoXoX",
"oXoXoXoXoXoXoXoXoXoXoXoX` ..,.Y.^. X X X X X X X X X X X X|.!.:.E oXoXoXoXoXoXoXoXoXoXoXoX",
"oXoXoXoXoXoXoXoXoXoXoXoXE %.H.T.^. X X X X X X X X X X X X|.Q.S...R oXoXoXoXoXoXoXoXoXoXoX",
"oXoXoXoXoXoXoXoXoXoXoXoXE :.Q.R.~.|. X X X X X X X X X X X/.Q.H.,.R S oXoXoXoXoXoXoXoXoXoX",
"oXoXoXoXoXoXoXoXoXoXoXoXE :.R.R.Q.~./. X X X X X X X X X(.!.Q.T.L.o.W oXoXoXoXoXoXoXoXoXoX",
"oXoXoXoXoXoXoXoXoXoXoXoXE :.R.R.R.R.^./././././././././.~.R.R.R.R.#.E oXoXoXoXoXoXoXoXoXoX",
"oXoXoXoXoXoXoXoXoXoXoXoXE :.R.R.R.R.R.R.R.R.R.R.R.R.R.R.Q.R.R.R.T.#.` oXoXoXoXoXoXoXoXoXoX",
"oXoXoXoXoXoXoXoXoXoXoXoX` :.R.R.R.R.Q.R.R.R.R.R.R.R.R.R.R.R.R.R.R.#.E oXoXoXoXoXoXoXoXoXoX",
"oXoXoXoXoXoXoXoXoXoXoXoXE :.E.B.m.>.m.N.E.R.R.R.T.J.G.G.T.R.R.R.T.#.E oXoXoXoXoXoXoXoXoXoX",
"oXoXoXoXoXoXoXoXoXoXoXoXE :.B.I , > > l N.R.R.R.J.#.| | A.R.R.R.R.#.E oXoXoXoXoXoXoXoXoXoX",
"oXoXoXoXoXoXoXoXoXoXoXoXQ :.N.j h ( s : n.R.R.Y.S.%.#.#.>.Z.T.R.T.#.` oXoXoXoXoXoXoXoXoXoX",
"oXoXoXoXoXoXoXoXoXoXoXoXE :.M.h ( XX( : n.R.R.1.,.Y.R.R.$.| G.R.R.$.` oXoXoXoXoXoXoXoXoXoX",
"oXoXoXoXoXoXoXoXoXoXoXoXE :.m.= ( XXv.C N.R.R.Y.Y.T.R.T.#.| G.Y.1./ A oXoXoXoXoXoXoXoXoXoX",
"oXoXoXoXoXoXoXoXoXoXoXoXE :.m.e i.XXV._ D.R.R.R.R.R.R.R.#.| S.1.@.R C oXoXoXoXoXoXoXoXoXoX",
"oXoXoXoXoXoXoXoXoXoXoXoX` *.I.3.a.XX).D.T.R.R.R.R.R.R.R.#.[ %.@.[ R oXoXoXoXoXoXoXoXoXoXoX",
"oXoXoXoXoXoXoXoXoXoXoXoXK =.U.p._. X(.R.R.R.R.R.T.H.A.*.+.} ..} E oXoXoXoXoXoXoXoXoXoXoXoX",
"oXoXoXoXoXoXoXoXoXoXoXoXC &.T.Q.T.R.R.R.R.R.R.R.Y.,.X.` X.;.` ` oXoXoXoXoXoXoXoXoXoXoXoXoX",
"oXoXoXoXoXoXoXoXoXoXoXoXoXO.*.L.R.R.R.R.R.R.R.R.Y.,.X.` ` ] ` oXoXoXoXoXoXoXoXoXoXoXoXoXoX",
"oXoXoXoXoXoXoXoXoXoXoXoXoXoX] N.D.G.G.G.D.K.C.C.n.-./ U U U oXoXoXoXoXoXoXoXoXoXoXoXoXoXoX",
"oXoXoXoXoXoXoXoXoXoXoXoXoXoXoXT ^ o.] ] ] _ N v f f 0 0 0 0 oXoXoXoXoXoXoXoXoXoXoXoXoXoXoX",
"oXoXoXoXoXoXoXoXoXoXoXoXoXoXoXoXF G J P P m p N u.u.B l g q 5 oXoXoXoXoXoXoXoXoXoXoXoXoXoX",
"oXoXoXoXoXoXoXoXoXoXoXoXoXoXoXoXoX4 i z z i 4 v. X XR.;.Y , 5 4 oXoXoXoXoXoXoXoXoXoXoXoXoX",
"oXoXoXoXoXoXoXoXoXoXoXoXoXoXoXoXoX4 z r.z m { W. X X^.F.[ H j w oXoXoXoXoXoXoXoXoXoXoXoXoX",
"oXoXoXoXoXoXoXoXoXoXoXoXoXoXoXoXoX4 b r.f ) R.^.}.}.(.R.*.R S C oXoXoXoXoXoXoXoXoXoXoXoXoX",
"oXoXoXoXoXoXoXoXoXoXoXoXoXoXoXoXoX4 b u.{ *.R.!.~.~.Q.R.2.] Z C oXoXoXoXoXoXoXoXoXoXoXoXoX",
"oXoXoXoXoXoXoXoXoXoXoXoXoXoXoXoXoX4 z t.-.1.R.R.R.R.R.Q.A.X.H C oXoXoXoXoXoXoXoXoXoXoXoXoX",
"oXoXoXoXoXoXoXoXoXoXoXoXoXoXoXoXoX4 i m -.1.R.R.R.R.R.R.1.X.Z C oXoXoXoXoXoXoXoXoXoXoXoXoX",
"oXoXoXoXoXoXoXoXoXoXoXoXoXoXoXoXoX4 i v / @.A.L.R.R.L.1.,.@.R T oXoXoXoXoXoXoXoXoXoXoXoXoX",
"oXoXoXoXoXoXoXoXoXoXoXoXoXoXoXoXoX4 i c I ' @.A.Y.Y.F.,.,.;.} Q oXoXoXoXoXoXoXoXoXoXoXoXoX",
"oXoXoXoXoXoXoXoXoXoXoXoXoXoXoXoXoX4 i x F K ` $.,.,.A.Y.Y.G.;.' C oXoXoXoXoXoXoXoXoXoXoXoX",
"oXoXoXoXoXoXoXoXoXoXoXoXoXoXoXoXoX4 i x H W } ;.1.1.H.R.R.Y.,.[ C oXoXoXoXoXoXoXoXoXoXoXoX",
"oXoXoXoXoXoXoXoXoXoXoXoXoXoXoXoXoX4 i c ! } ;.F.R.R.R.R.R.Y.,./ C oXoXoXoXoXoXoXoXoXoXoXoX",
"oXoXoXoXoXoXoXoXoXoXoXoXoXoXoXoXoX4 i c U } ;.H.R.R.R.R.R.L.,.Q C oXoXoXoXoXoXoXoXoXoXoXoX",
"oXoXoXoXoXoXoXoXoXoXoXoXoXoXoXoXz c t.u.! ] ;.H.Q.R.R.R.T.F.;.Q C oXoXoXoXoXoXoXoXoXoXoXoX",
"oXoXoXoXoXoXoXoXoXoXoXoXoXoXoX  N ].{.W.~ ^ ;.H.R.R.R.R.S.$.T Z oXoXoXoXoXoXoXoXoXoXoXoXoX",
"oXoXoXoXoXoXoXoXoXoXoXoXoXoXoX. k P.P.V.I H / #.<.<.<.<.+.R , = oXoXoXoXoXoXoXoXoXoXoXoXoX",
"oXoXoXoXoXoXoXoXoXoXoXoXoXoXoX# & C C C C C C K E E E E Z - % # oXoXoXoXoXoXoXoXoXoXoXoXoX",
"oXoXoXoXoXoXoXoXoXoXoXoXoXoXo @ & C C C C C C g d x g V s 6 2 r.XXoXoXoXoXoXoXoXoXoXoXoXoX",
"oXoXoXoXoXoXoXoXoXoXoXoXoXX o + & V C C C C V p 4.4.t * t 4.y f.XXoXoXoXoXoXoXoXoXoXoXoXoX",
"oXoXoXoXoXoXoXoXoXoXoXoXoX< o + & C C C C - = 0.g.g.8.9 8.e.q.x.XXoXoXoXoXoXoXoXoXoXoXoXoX",
"oXoXoXoXoXoXoXoXoXoXoXoXoXy.M $ % ; V C C ; & 9.k.k.g.7.s.j.g.z.XXoXoXoXoXoXoXoXoXoXoXoXoX",
"oXoXoXoXoXoXoXoXoXoXoXoXoXXX].a # & ; C C ; & 9.k.k.k.k.k.k.k.c.XXoXoXoXoXoXoXoXoXoXoXoXoX",
"oXoXoXoXoXoXoXoXoXoXoXoXoXXX[.d O @ % & & & & u g.j.k.k.k.k.k.c.XXoXoXoXoXoXoXoXoXoXoXoXoX",
"oXoXoXoXoXoXoXoXoXoXoXoXoXoX[.r.r 0 s g s s * u w.h.k.k.k.k.k.c.XXoXoXoXoXoXoXoXoXoXoXoXoX",
"oXoXoXoXoXoXoXoXoXoXoXoXoXoXoX'.'.].].].].b.t 5.w.j.k.k.k.k.k.c.XXoXoXoXoXoXoXoXoXoXoXoXoX",
"oXoXoXoXoXoXoXoXoXoXoXoXoXoXoXoXXXXXXXXXXXf.7 7.g.j.k.k.k.k.k.c.XXoXoXoXoXoXoXoXoXoXoXoXoX",
"oXoXoXoXoXoXoXoXoXoXoXoXoXoXoXoXoXoXoXoXoXoX7 w.k.k.k.k.k.k.k.c.XXoXoXoXoXoXoXoXoXoXoXoXoX",
"oXoXoXoXoXoXoXoXoXoXoXoXoXoXoXoXoXoXoXoXoXoX1 q.k.k.k.k.k.j.g.z.XXoXoXoXoXoXoXoXoXoXoXoXoX",
"oXoXoXoXoXoXoXoXoXoXoXoXoXoXoXoXoXoXoXoXoXoXX 5.g.g.g.g.g.e.q.l.XXoXoXoXoXoXoXoXoXoXoXoXoX",
"oXoXoXoXoXoXoXoXoXoXoXoXoXoXoXoXoXoXoXoXoXoXoX1 8 y 4.4.4.y 1 d.XXoXoXoXoXoXoXoXoXoXoXoXoX",
"oXoXoXoXoXoXoXoXoXoXoXoXoXoXoXoXoXoXoXoXoXoXoXoX3 8 7 7 7 8 3 y.XXoXoXoXoXoXoXoXoXoXoXoXoX",
"oXoXoXoXoXoXoXoXoXoXoXoXoXoXoXoXoXoXoXoXoXoXoXoXoXoXoXoXoXoXoXoXoXoXoXoXoXoXoXoXoXoXoXoXoX",
"oXoXoXoXoXoXoXoXoXoXoXoXoXoXoXoXoXoXoXoXoXoXoXoXoXoXoXoXoXoXoXoXoXoXoXoXoXoXoXoXoXoXoXoXoX",
"oXoXoXoXoXoXoXoXoXoXoXoXoXoXoXoXoXoXoXoXoXoXoXoXoXoXoXoXoXoXoXoXoXoXoXoXoXoXoXoXoXoXoXoXoX"
};
