/* XPM */
static char *result[] = {
/* columns rows colors chars-per-pixel */
"45 60 198 2 ",
"   c #1D131C",
".  c #22151D",
"X  c #301B20",
"o  c #391F21",
"O  c #282638",
"+  c #382933",
"@  c #422525",
"#  c #472828",
"$  c #552A27",
"%  c #5A2D29",
"&  c #5E322B",
"*  c #553A3C",
"=  c #4B3536",
"-  c #63322B",
";  c #6C392F",
":  c #6C362D",
">  c #743D32",
",  c #793D31",
"<  c #673931",
"1  c #67413C",
"2  c #7D4233",
"3  c #73463C",
"4  c #0B274A",
"5  c #182C4A",
"6  c #1A3353",
"7  c #022955",
"8  c #262A43",
"9  c #2B314E",
"0  c #27324D",
"q  c #32324D",
"w  c #383042",
"e  c #2C3150",
"r  c #223556",
"t  c #353651",
"y  c #01396C",
"u  c #053362",
"i  c #003D72",
"p  c #473F4A",
"a  c #00457A",
"s  c #004076",
"d  c #1C517E",
"f  c #394262",
"g  c #26476D",
"h  c #504556",
"j  c #79514C",
"k  c #795956",
"l  c #6D5050",
"z  c #444C6C",
"x  c #534E65",
"c  c #595267",
"v  c #4E5978",
"b  c #4B5574",
"n  c #675A61",
"m  c #676274",
"M  c #854535",
"N  c #8A4836",
"B  c #8C4A37",
"V  c #924E39",
"C  c #9A563E",
"Z  c #99553E",
"A  c #A25A3F",
"S  c #865549",
"D  c #9C5B42",
"F  c #905E4F",
"G  c #824F46",
"H  c #A65E43",
"J  c #9C634E",
"K  c #886456",
"L  c #9C6E5B",
"P  c #AB6245",
"I  c #AD694C",
"U  c #B46E4D",
"Y  c #BF6F4A",
"T  c #B26545",
"R  c #BB724E",
"E  c #A36753",
"W  c #BA7757",
"Q  c #AD765C",
"!  c #847575",
"~  c #92756D",
"^  c #A57A66",
"/  c #B57C67",
"(  c #C2744E",
")  c #C77B55",
"_  c #CA7D53",
"`  c #C37B58",
"'  c #B6866A",
"]  c #AF8A70",
"[  c #A98E7E",
"{  c #BA9275",
"}  c #CC865D",
"|  c #C9815B",
" . c #D48A5E",
".. c #D6895C",
"X. c #C38C6D",
"o. c #C68665",
"O. c #D28D65",
"+. c #DA8F61",
"@. c #DB9162",
"#. c #D5936C",
"$. c #DB966B",
"%. c #DA996E",
"&. c #C89776",
"*. c #D89871",
"=. c #D69D78",
"-. c #E69D6B",
";. c #E19665",
":. c #E19F72",
">. c #DDA178",
",. c #DAA079",
"<. c #E9A674",
"1. c #E2A77C",
"2. c #E1A87F",
"3. c #EBAB7B",
"4. c #E6A475",
"5. c #014C83",
"6. c #04548A",
"7. c #005D97",
"8. c #005590",
"9. c #1F5686",
"0. c #0F639C",
"q. c #006DAA",
"w. c #0064A2",
"e. c #006FB0",
"r. c #0074B3",
"t. c #007CBD",
"y. c #0077B9",
"u. c #1F6FA5",
"i. c #487298",
"p. c #78798B",
"a. c #007FC1",
"s. c #5780A3",
"d. c #7A9AB6",
"f. c #75A0BF",
"g. c #008ACC",
"h. c #0085C6",
"j. c #008ED1",
"k. c #0093D6",
"l. c #0096DA",
"z. c #0098DC",
"x. c #189CDA",
"c. c #1F87C1",
"v. c #75AED1",
"b. c #75B5D8",
"n. c #6BA5C8",
"m. c #75C7EC",
"M. c #75C1E6",
"N. c #808394",
"B. c #9A9294",
"V. c #998A87",
"C. c #A99183",
"Z. c #94A2B5",
"A. c #A9A5AF",
"S. c #CCA181",
"D. c #CFA689",
"F. c #D5A784",
"G. c #D4B69C",
"H. c #D6AE8E",
"J. c #E4AD84",
"K. c #EAAF82",
"L. c #E7B187",
"P. c #EEB485",
"I. c #EEB789",
"U. c #EAB58B",
"Y. c #F0BA8C",
"T. c #EBBD94",
"R. c #E6BB95",
"E. c #F1BE91",
"W. c #C5BCBC",
"Q. c #E3BFAF",
"!. c #F3C195",
"~. c #F4C59A",
"^. c #F6CA9F",
"/. c #EFC49B",
"(. c #F6CDA4",
"). c #F1CCAA",
"_. c #F7D1AB",
"`. c #F7D6B3",
"'. c #F7D8B7",
"]. c #F7D8B9",
"[. c #98AFC4",
"{. c #B3BCC9",
"}. c #C0BDC1",
"|. c #B2C4D4",
" X c #B6C2CE",
".X c #B3D6EA",
"XX c #CCCBCF",
"oX c #E9D2C8",
"OX c #F8DEC1",
"+X c #F7DCC0",
"@X c #E1CCC4",
"#X c #F8E0C5",
"$X c #F9E6CF",
"%X c #D8E1E9",
"&X c #E7E4E4",
"*X c white",
"=X c #F7F9FA",
"-X c None",
/* pixels */
"-X-X-X-X-X-X-X-X-X-X-X-X-X-X-X-X-X-X-X-X-X-X-X-X-X-X-X-X-X-X-X-X-X-X-X-X-X-X-X-X-X-X-X-X-X",
"-X-X-X-X-X-X-X-X-X-X-X-X-X-X-X-X-X-X-X-X-X-X-X-X-X-X-X-X-X-X-X-X-X-X-X-X-X-X-X-X-X-X-X-X-X",
"-X-X-X-X-X-X-X-X-X-X-X-X-X-X-X-XB P ( ( ( ( Y ( Y T V N -X-X-X-X-X-X-X-X-X-X-X-X-X-X-X-X-X",
"-X-X-X-X-X-X-X-X-X-X-X-X-X-X-XR W O.>.*.*.1.=.>.>.=.&.o.( A -X-X-X-X-X-X-X-X-X-X-X-X-X-X-X",
"-X-X-X-X-X-X-X-X-X-X-X-X-X-X(  .<.Y.(.(.(.(.(.(.(.(.(.J.) P Z -X-X-X-X-X-X-X-X-X-X-X-X-X-X",
"-X-X-X-X-X-X-X-X-X-X-X-X( _ ..4.E._.OXOXOXOXOXOX#XOXOX).L.%.` H N -X-X-X-X-X-X-X-X-X-X-X-X",
"-X-X-X-X-X-X-X-X-X-X-X-X_  .<.E._.OX$X$X$X$X$X$X$X$X$X#X`.T.>.U Z -X-X-X-X-X-X-X-X-X-X-X-X",
"-X-X-X-X-X-X-X-X-X-X-X( ..4.!._.$X$X$X$X$X$X$X$X$X$X$X$X#X_.U.} Y -X-X-X-X-X-X-X-X-X-X-X-X",
"-X-X-X-X-X-X-X-X-X-XY ) :.Y.~.`.$X$X$X$X$X$X$X$X$X$X$X$X$X'.!.%.) C -X-X-X-X-X-X-X-X-X-X-X",
"-X-X-X-X-X-X-X-X-X-XY ) L.^.^.`.$X$X$X$X$X$X$X$X$X$X$X$X$X`.~.3.} D B -X-X-X-X-X-X-X-X-X-X",
"-X-X-X-X-X-X-X-X-X-XY ) L.^.(.(.`.#X$X$X$X$X$X$X$X$X$X#X`.(.^.Y.*.R P -X-X-X-X-X-X-X-X-X-X",
"-X-X-X-X-X-X-X-X-X-X( ) L.^.^.^.(.'.#X#X#X#X#X#X#X#X#X'.(.^.^.^.L.) Y -X-X-X-X-X-X-X-X-X-X",
"-X-X-X-X-X-X-X-X-X-XY ) L.^.^.^.^.(.(._._._._.(._._._.(.^.^.^.^.L.) ( -X-X-X-X-X-X-X-X-X-X",
"-X-X-X-X-X-X-X-X-X-X( ) L.^.^.^.^.^.^.^.^.^.^.^.^.^.^.^.^.^.^.^.L.) Y -X-X-X-X-X-X-X-X-X-X",
"-X-X-X-X-X-X-X-X-X-XY ) L.(.^.^.^.(.^.^.^.^.^.^.^.^.^.^.^.^.^.^.L.) Y -X-X-X-X-X-X-X-X-X-X",
"-X-X-X-X-X-X-X-X-X-XY ) L.^.^.S.^ F.^.^.^.^.^.~.J.%.*.K.^.^.^.^.L.) Y -X-X-X-X-X-X-X-X-X-X",
"-X-X-X-X-X-X-X-X-X-XY ) J.^.(.' : ' R./.^.^.~.!.#.| | #.!.^.^.^.L.) ( -X-X-X-X-X-X-X-X-X-X",
"-X-X-X-X-X-X-X-X-X-XY ) L.^.^.X.2 B L H.^.^.!.<.3.2.3.>.o.2.^.^.L.) Y -X-X-X-X-X-X-X-X-X-X",
"-X-X-X-X-X-X-X-X-X-XY ) L.R.S.Q N - 3 S.^.^.!.3.!.^.^.2.R >.^.!.>.R T -X-X-X-X-X-X-X-X-X-X",
"-X-X-X-X-X-X-X-X-X-X( ) L.S.G 2 N & 1 S.^.^.!.~.^.^.^.>.( >.~.3.O.C V -X-X-X-X-X-X-X-X-X-X",
"-X-X-X-X-X-X-X-X-X-XY ) L.&.3 & & # $ K { ^.^.^.^.^.^.1.R $.3.;.) C -X-X-X-X-X-X-X-X-X-X-X",
"-X-X-X-X-X-X-X-X-X-XY ) L.&.3 % @ @ + @ k /.^.^.^.^.~.1.( ..;.| Y -X-X-X-X-X-X-X-X-X-X-X-X",
"-X-X-X-X-X-X-X-X-X-XC I F.T.&.] ] ] ] ] &./.^.^.I.<.@.@...} | ( -X-X-X-X-X-X-X-X-X-X-X-X-X",
"-X-X-X-X-X-X-X-X-X-X-XD =.T.^.^.^.^.^.^.(.^.^.^.3.@.( | +...( -X-X-X-X-X-X-X-X-X-X-X-X-X-X",
"-X-X-X-X-X-X-X-X-X-X-X-X` *.E.(.^.(.^.^.^.^.^.~.3.@.( ( ( _ -X-X-X-X-X-X-X-X-X-X-X-X-X-X-X",
"-X-X-X-X-X-X-X-X-X-X-X-X-Xo.=.=.1.1.1.F.=.C.C.C.] L F S S -X-X-X-X-X-X-X-X-X-X-X-X-X-X-X-X",
"-X-X-X-X-X-X-X-X-X-X-X-X-X-XV A ( ( ( ( K t t t 9 9 q q q -X-X-X-X-X-X-X-X-X-X-X-X-X-X-X-X",
"-X-X-X-X-X-X-X-X-X-X-X-X-X-X-Xj l k k l k [ V.B.B.V.~ K G h -X-X-X-X-X-X-X-X-X-X-X-X-X-X-X",
"-X-X-X-X-X-X-X-X-X-X-X-X-X-X-X-X9 f z x ! R.].$X$X].K.+.) j w -X-X-X-X-X-X-X-X-X-X-X-X-X-X",
"-X-X-X-X-X-X-X-X-X-X-X-X-X-X-X-Xe z p.V.D.~.].$X$X+X~.3.@.E 1 -X-X-X-X-X-X-X-X-X-X-X-X-X-X",
"-X-X-X-X-X-X-X-X-X-X-X-X-X-X-X-Xe v p.G.^.^.`.OXOX].(.Y.-.U B -X-X-X-X-X-X-X-X-X-X-X-X-X-X",
"-X-X-X-X-X-X-X-X-X-X-X-X-X-X-X-Xe v N.G.^.^.(.(.(.(.^.Y.-.U B -X-X-X-X-X-X-X-X-X-X-X-X-X-X",
"-X-X-X-X-X-X-X-X-X-X-X-X-X-X-X-X9 v p.D.E.(.^.^.^.^.^.I.-.U B -X-X-X-X-X-X-X-X-X-X-X-X-X-X",
"-X-X-X-X-X-X-X-X-X-X-X-X-X-X-X-X9 b p.#.3.E.^.^.^.^.^.I.-.U B -X-X-X-X-X-X-X-X-X-X-X-X-X-X",
"-X-X-X-X-X-X-X-X-X-X-X-X-X-X-X-X9 z m Q +.3.E.(.^.!.P.<.-.) P -X-X-X-X-X-X-X-X-X-X-X-X-X-X",
"-X-X-X-X-X-X-X-X-X-X-X-X-X-X-X8 9 z c F ( +.1.E.E.Y.3.<.4. .Y -X-X-X-X-X-X-X-X-X-X-X-X-X-X",
"-X-X-X-X-X-X-X-X-X-X-X-X-X-X  O 9 f x G P ( @.<.<.3.Y.E.!.;.Y -X-X-X-X-X-X-X-X-X-X-X-X-X-X",
"-X-X-X-X-X-X-X-X-X-X-X-X-X-X. O 9 f x G P _ $.3.3.P.~.^.(.*.( -X-X-X-X-X-X-X-X-X-X-X-X-X-X",
"-X-X-X-X-X-X-X-X-X-X-X-X-X-Xo + 0 f c E _ ;.P.~.^.^.^.^.(.*.( -X-X-X-X-X-X-X-X-X-X-X-X-X-X",
"-X-X-X-X-X-X-X-X-X-X-X-X-X-Xo n A.A.A./ } P.!.^.(.^.^.^.^.$.` Q.-X-X-X-X-X-X-X-X-X-X-X-X-X",
"-X-X-X-X-X-X-X-X-X-X-X-X-X-Xo ! &X&X@XX.O.~.^.^.^.^.^.^.~.*.W @X*X-X-X-X-X-X-X-X-X-X-X-X-X",
"-X-X-X-X-X-X-X-X-X-X-X-X-X-Xo p n ~ / R O.~.^.^.^.^.^.Y.3.` E @X*X-X-X-X-X-X-X-X-X-X-X-X-X",
"-X-X-X-X-X-X-X-X-X-X-X-X-X-XX .   & B P o.L.!.^.^.^.!.1.} D S @X*X-X-X-X-X-X-X-X-X-X-X-X-X",
"-X-X-X-X-X-X-X-X-X-X-X-X-X-X. . . & B B I -.I.^.^.!.3.| Z < 1 XX*X-X-X-X-X-X-X-X-X-X-X-X-X",
"-X-X-X-X-X-X-X-X-X-X-X-X-X-X-X    & B B Z U o.X.X.o.W P N & * A.*X-X-X-X-X-X-X-X-X-X-X-X-X",
"-X-X-X-X-X-X-X-X-X-X-X-X-X-X-X-X  & N N N N N N N N N N N & * W.*X-X-X-X-X-X-X-X-X-X-X-X-X",
"-X-X-X-X-X-X-X-X-X-X-X-X-X-X-X-X-X$ & 2 N N N N N N N 2 : $ = W.*X-X-X-X-X-X-X-X-X-X-X-X-X",
"-X-X-X-X-X-X-X-X-X-X-X-X-X-X-X-X-XO + < 2 2 M N N N N > % @ p XX*X-X-X-X-X-X-X-X-X-X-X-X-X",
"-X-X-X-X-X-X-X-X-X-X-X-X-X-Xy y y u 6 + % - , B N N N : @ 8 g  X*X-X-X-X-X-X-X-X-X-X-X-X-X",
"-X-X-X-X-X-X-X-X-X-X-X-X-X5.7.7.7.7.6.6 O w * , , , ; % . 5 d |.*X-X-X-X-X-X-X-X-X-X-X-X-X",
"-X-X-X-X-X-X-X-X-X-X-X-Xy 8.g.l.k.l.h.5.y y w - & $ @ X . 4 d |.*X-X-X-X-X-X-X-X-X-X-X-X-X",
"-X-X-X-X-X-X-X-X-X-X-X-XZ.n.x.z.z.z.j.r.w.q.d 9 9 9 5 5 4 4 g {.*X-X-X-X-X-X-X-X-X-X-X-X-X",
"-X-X-X-X-X-X-X-X-X-X-X-X*X.Xx.l.z.z.z.z.z.z.q.a a a s i y 7 r {.*X-X-X-X-X-X-X-X-X-X-X-X-X",
"-X-X-X-X-X-X-X-X-X-X-X-X*X.Xc.h.z.z.z.z.z.z.g.t.t.r.0.5.y u -X-X-X-X-X-X-X-X-X-X-X-X-X-X-X",
"-X-X-X-X-X-X-X-X-X-X-X-X*X.Xu.r.g.g.g.z.z.z.z.z.k.t.w.0.i.-X-X-X-X-X-X-X-X-X-X-X-X-X-X-X-X",
"-X-X-X-X-X-X-X-X-X-X-X-X*X X9.6.e.e.y.j.z.z.z.l.a.w.a s.%X-X-X-X-X-X-X-X-X-X-X-X-X-X-X-X-X",
"-X-X-X-X-X-X-X-X-X-X-X-X-XXXd.n.v.v.b.M.m.m.m.m.b.v.d.[.=X-X-X-X-X-X-X-X-X-X-X-X-X-X-X-X-X",
"-X-X-X-X-X-X-X-X-X-X-X-X-X-X*X*X*X*X*X*X*X*X*X*X*X*X*X*X-X-X-X-X-X-X-X-X-X-X-X-X-X-X-X-X-X",
"-X-X-X-X-X-X-X-X-X-X-X-X-X-X-X-X-X-X-X-X-X-X-X-X-X-X-X-X-X-X-X-X-X-X-X-X-X-X-X-X-X-X-X-X-X",
"-X-X-X-X-X-X-X-X-X-X-X-X-X-X-X-X-X-X-X-X-X-X-X-X-X-X-X-X-X-X-X-X-X-X-X-X-X-X-X-X-X-X-X-X-X"
};
