/* XPM */
static char *result[] = {
/* columns rows colors chars-per-pixel */
"45 60 198 2 ",
"   c #1C121C",
".  c #28181E",
"X  c #14182C",
"o  c #0B1936",
"O  c #221C2A",
"+  c #371E21",
"@  c #18233B",
"#  c #3C2023",
"$  c #242437",
"%  c #442425",
"&  c #4E2A28",
"*  c #592F2A",
"=  c #512B27",
"-  c #4B3538",
";  c #563835",
":  c #4E2E30",
">  c #65322B",
",  c #6A382E",
"<  c #653A35",
"1  c #773E31",
"2  c #6E413D",
"3  c #7E4133",
"4  c #031A41",
"5  c #052C56",
"6  c #08325D",
"7  c #102E52",
"8  c #2C2E49",
"9  c #2C314F",
"0  c #3A3143",
"q  c #33324D",
"w  c #3B364D",
"e  c #333552",
"r  c #383B59",
"t  c #2C3150",
"y  c #03386A",
"u  c #023363",
"i  c #413C51",
"p  c #633E40",
"a  c #0D4674",
"s  c #3B4364",
"d  c #20527F",
"f  c #4B4458",
"g  c #5C4956",
"h  c #59525B",
"j  c #56424E",
"k  c #654547",
"l  c #774C45",
"z  c #775349",
"x  c #624C57",
"c  c #67535B",
"v  c #7B5A59",
"b  c #454C6C",
"n  c #525069",
"m  c #735C60",
"M  c #665965",
"N  c #7B6A6D",
"B  c #814333",
"V  c #8A4836",
"C  c #894937",
"Z  c #934F3A",
"A  c #96533C",
"S  c #9A563E",
"D  c #9C583E",
"F  c #A25A3F",
"G  c #8B574A",
"H  c #9C5A43",
"J  c #9B5740",
"K  c #885C51",
"L  c #A35D43",
"P  c #A85E41",
"I  c #836359",
"U  c #976755",
"Y  c #9F6A54",
"T  c #A96549",
"R  c #BE6F4A",
"E  c #B36848",
"W  c #A86E56",
"Q  c #BB7452",
"!  c #BB7957",
"~  c #B57355",
"^  c #977167",
"/  c #8C7977",
"(  c #AE7B61",
")  c #A57C67",
"_  c #AC7D71",
"`  c #B17E63",
"'  c #C2734D",
"]  c #C67B55",
"[  c #C97C53",
"{  c #C57D58",
"}  c #99817B",
"|  c #BE8D75",
" . c #BE977A",
".. c #B38871",
"X. c #CB845B",
"o. c #CB8157",
"O. c #D48A5E",
"+. c #D4885B",
"@. c #CF8A63",
"#. c #C98D6B",
"$. c #D28C64",
"%. c #DB8F60",
"&. c #DA9164",
"*. c #D99569",
"=. c #C79677",
"-. c #DA9B72",
";. c #D09571",
":. c #CF946F",
">. c #E69E6C",
",. c #E09564",
"<. c #E19E71",
"1. c #DCA27A",
"2. c #D9A17B",
"3. c #E5A373",
"4. c #E9A573",
"5. c #E2A67C",
"6. c #EAAA7A",
"7. c #E1A87E",
"8. c #4B2595",
"9. c #095890",
"0. c #00609B",
"q. c #206293",
"w. c #006CA9",
"e. c #026AA6",
"r. c #0077B9",
"t. c #0076B8",
"y. c #0E77B5",
"u. c #6C40C7",
"i. c #907CC5",
"p. c #4590BF",
"a. c #008ACD",
"s. c #0588C8",
"d. c #008FD2",
"f. c #0092D6",
"g. c #0098DC",
"h. c #0096DA",
"j. c #3892C5",
"k. c #33A5DA",
"l. c #4793C2",
"z. c #74ADD1",
"x. c #7AB5D7",
"c. c #75BDE2",
"v. c #75C7EC",
"b. c #958787",
"n. c #9B9395",
"m. c #BC958B",
"M. c #BC919C",
"N. c #9496A4",
"B. c #9EA0AE",
"V. c #A7ABBB",
"C. c #B5AAAB",
"Z. c #CAA282",
"A. c #D8A985",
"S. c #DEB58F",
"D. c #D0AD90",
"F. c #E5AF86",
"G. c #EBAF82",
"H. c #E7B187",
"J. c #EEB384",
"K. c #ECB589",
"L. c #EDB98E",
"P. c #F0B98B",
"I. c #EEBE94",
"U. c #E4B891",
"Y. c #F1BE91",
"T. c #C79BAD",
"R. c #CDA9A8",
"E. c #E5BBA9",
"W. c #F3C196",
"Q. c #F3C499",
"!. c #F6CA9F",
"~. c #EFC096",
"^. c #DBCBBC",
"/. c #E4C4AB",
"(. c #F6CCA2",
"). c #F7CFA8",
"_. c #F7D2AC",
"`. c #F7D6B4",
"'. c #F8DBBC",
"]. c #F7D7B6",
"[. c #A487DB",
"{. c #8EBBD7",
"}. c #B5C5D4",
"|. c #9CC7E0",
" X c #F8DDC0",
".X c #E7DCD2",
"XX c #F8E0C5",
"oX c #F9E6CE",
"OX c #F7E2CA",
"+X c #C2DBEB",
"@X c #CFE7F3",
"#X c #DAE9F3",
"$X c #D5E7F1",
"%X c #F0E8E6",
"&X c #FEFEFE",
"*X c #EFF0EF",
"=X c #D6CECD",
"-X c None",
/* pixels */
"-X-X-X-X-X-X-X-X-X-X-X-X-X-X-X-X-X-X-X-X-X-X-X-X-X-X-X-X-X-X-X-X-X-X-X-X-X-X-X-X-X-X-X-X-X",
"-X-X-X-X-X-X-X-X-X-X-X-X-X-X-X-X-X-X-X-X-X-X-X-X-X-X-X-X-X-X-X-X-X-X-X-X-X-X-X-X-X-X-X-X-X",
"-X-X-X-X-X-X-X-X-X-X-X-X-X-X-X-X-X-X-X-X-X-X-X-X-X-X-X-X-X-X-X-X-X-X-X-X-X-X-X-X-X-X-X-X-X",
"-X-X-X-X-X-X-X-X-X-X-X-X-X-X-X-XV P R ' R R ' ' R E Z -X-X-X-X-X-X-X-X-X-X-X-X-X-X-X-X-X-X",
"-X-X-X-X-X-X-X-X-X-X-X-X-X-X-XS S E ] ] ] ] ] ] ] Q L H -X-X-X-X-X-X-X-X-X-X-X-X-X-X-X-X-X",
"-X-X-X-X-X-X-X-X-X-X-X-X-X-X' [ X.-.H.H.F.F.H.H.F.F.A.:.' F V -X-X-X-X-X-X-X-X-X-X-X-X-X-X",
"-X-X-X-X-X-X-X-X-X-X-X-X-X' [ &.6.Q._._._._._._.)._._.U.$.~ T S -X-X-X-X-X-X-X-X-X-X-X-X-X",
"-X-X-X-X-X-X-X-X-X-X-X-X' [ &.6.!.].OXOXOXOXXXXXOXOXOX`.~.5.O.L V -X-X-X-X-X-X-X-X-X-X-X-X",
"-X-X-X-X-X-X-X-X-X-X-X' o.&.6.Q.'.XXoXoXoXoXoXoXoXoXoXOX].Q.5.Q F -X-X-X-X-X-X-X-X-X-X-X-X",
"-X-X-X-X-X-X-X-X-X-X' ' &.6.!.`.oXoX%XoXoXoXoXoXoXoXoXoXoX].I.$.' -X-X-X-X-X-X-X-X-X-X-X-X",
"-X-X-X-X-X-X-X-X-X-X' ] 5.P.!.`.oXoXoXoXoXoXoXoXoXoXoXoXoX].Q.<.] S -X-X-X-X-X-X-X-X-X-X-X",
"-X-X-X-X-X-X-X-X-X-XR ] H.!.!.`.XXoXoXoXoXoXoXoXoXoXoXoXXX_.Q.J.$.L A -X-X-X-X-X-X-X-X-X-X",
"-X-X-X-X-X-X-X-X-X-XR ] H.!.!.(._.'.oXoXoXoXoXoXoXoXoX'._.(.!.Q.7.Q E -X-X-X-X-X-X-X-X-X-X",
"-X-X-X-X-X-X-X-X-X-X' ] H.!.!.!.!.`.'.'.'.'.'.'.'.'.'.`.!.!.!.!.H.] ' -X-X-X-X-X-X-X-X-X-X",
"-X-X-X-X-X-X-X-X-X-XR ] H.!.!.!.!.(.(.(.(.(.(.(.(.(.(.(.!.!.!.!.H.] R -X-X-X-X-X-X-X-X-X-X",
"-X-X-X-X-X-X-X-X-X-XR ] H.!.!.!.!.!.!.!.!.!.!.!.!.(.!.!.!.!.!.!.H.] R -X-X-X-X-X-X-X-X-X-X",
"-X-X-X-X-X-X-X-X-X-XR ] H.Q.U.U.U.S.S.Q.!.!.!.!.Q.~.~.~.!.!.!.!.H.{ ' -X-X-X-X-X-X-X-X-X-X",
"-X-X-X-X-X-X-X-X-X-XR ] H.A.U z z z I D.!.!.!.Q.1.@.@.1.!.!.!.!.H.] ' -X-X-X-X-X-X-X-X-X-X",
"-X-X-X-X-X-X-X-X-X-XR ] H.=.< k N - < 2.!.!.Q.P.-.O.@.-.H.~.!.!.H.] R -X-X-X-X-X-X-X-X-X-X",
"-X-X-X-X-X-X-X-X-X-XQ o.H. .: / .XN ; Z.!.!.J.6.J.~.~.1.o.1.!.!.H.] R -X-X-X-X-X-X-X-X-X-X",
"-X-X-X-X-X-X-X-X-X-XR ] F. .: b.&X} 2 A.(.(.~.6.W.!.!.7.R 1.!.P.-.E P -X-X-X-X-X-X-X-X-X-X",
"-X-X-X-X-X-X-X-X-X-X' ] G.m.; b.*Xm.T S.!.!.!.!.!.!.!.7.R 1.W.6.X.A V -X-X-X-X-X-X-X-X-X-X",
"-X-X-X-X-X-X-X-X-X-XR ] H.M.8.i.&X/.2.~.!.!.!.!.!.!.!.1.R &.4.&.] -X-X-X-X-X-X-X-X-X-X-X-X",
"-X-X-X-X-X-X-X-X-X-XE Q F.T.u.[.*X'.!.!.!.!.!.!.W.W.L.2.[ +.%.[ ' -X-X-X-X-X-X-X-X-X-X-X-X",
"-X-X-X-X-X-X-X-X-X-XA T A.E.R.E.`.(.!.!.!.!.(.(.J.>.O.X.&.X.] -X-X-X-X-X-X-X-X-X-X-X-X-X-X",
"-X-X-X-X-X-X-X-X-X-X-XH ;.H.Q.!.!.!.!.!.!.(.D...} U G U W U G G -X-X-X-X-X-X-X-X-X-X-X-X-X",
"-X-X-X-X-X-X-X-X-X-X-X-X' $.W.!.!.!.!.!.!.!.} 9 w q q 9 q 9 0 2 V -X-X-X-X-X-X-X-X-X-X-X-X",
"-X-X-X-X-X-X-X-X-X-X-X-X-X! ..@.;.-.-.-.../ b.n.n.b.^ c 9 8 q 2 V -X-X-X-X-X-X-X-X-X-X-X-X",
"-X-X-X-X-X-X-X-X-X-X-X-X-X-XC J T E ~ T K f n.oXoX].7...f q w 2 A -X-X-X-X-X-X-X-X-X-X-X-X",
"-X-X-X-X-X-X-X-X-X-X-X-X-X-X-Xk j h c g N C.^.oXoX XW.2.( c w Y Q S -X-X-X-X-X-X-X-X-X-X-X",
"-X-X-X-X-X-X-X-X-X-X-X-X-X-X-X-Xt h M M b.OXoXoXXX'.(.P.4.I f ( X.S V -X-X-X-X-X-X-X-X-X-X",
"-X-X-X-X-X-X-X-X-X-X-X-X-X-X-X-Xt z ! Z./.OXoXoX`.(.!.P.>.v w ( X.S V -X-X-X-X-X-X-X-X-X-X",
"-X-X-X-X-X-X-X-X-X-X-X-X-X-X-Xl z W &.L.).].].].).Q.P.3.+.v i ( X.A V -X-X-X-X-X-X-X-X-X-X",
"-X-X-X-X-X-X-X-X-X-X-X-X-X-XV F ' O.4.Y.(.(.!.!.(.Y.4.+.R x i ( X.A V -X-X-X-X-X-X-X-X-X-X",
"-X-X-X-X-X-X-X-X-X-X-X-X-XS P ' %.,.>.6.J.Q.(.!.P.3.+.W m f w ( X.A V -X-X-X-X-X-X-X-X-X-X",
"-X-X-X-X-X-X-X-X-X-X-X-XD T { *.4.4.4.>.6.Y.Y.Y.<.{ W I b r i W ] S -X-X-X-X-X-X-X-X-X-X-X",
"-X-X-X-X-X-X-X-X-X-X-XA ] *.K.I.Y.Y.P.4.>.4.4.<.~ G M n b r w l J -X-X-X-X-X-X-X-X-X-X-X-X",
"-X-X-X-X-X-X-X-X-X-XV A X.6.Q.!.!.!.Q.J.4.>.$.! G x b b s e 8 p -X-X-X-X-X-X-X-X-X-X-X-X-X",
"-X-X-X-X-X-X-X-X-X-XV S X.6.W.!.!.!.!.!.P.>.~ C x b b s t t t -X-X-X-X-X-X-X-X-X-X-X-X-X-X",
"-X-X-X-X-X-X-X-X-X-XV S X.6.Q.!.!.!.!.!.F.Q =.R.C.V.V.V.B.B.N.n -X-X-X-X-X-X-X-X-X-X-X-X-X",
"-X-X-X-X-X-X-X-X-X-XC A o.4.W.W.I.Q.Q.I.=.J m.%X%X%X%X%X%X%X=Xg   -X-X-X-X-X-X-X-X-X-X-X-X",
"-X-X-X-X-X-X-X-X-X-XC Z E $.4.6.6.6.<.! H C U _ _ _ _ _ _ _ ^ -   -X-X-X-X-X-X-X-X-X-X-X-X",
"-X-X-X-X-X-X-X-X-X-X, 3 D E o.X.{ X.' L C C C V V V V V V V B % . -X-X-X-X-X-X-X-X-X-X-X-X",
"-X-X-X-X-X-X-X-X-X-X. # 2 Z A A Z J Z V C C C V V V V V V V B & + -X-X-X-X-X-X-X-X-X-X-X-X",
"-X-X-X-X-X-X-X-X-X-X-X. & * * * * > 1 B V V V V V V V V V V B = + -X-X-X-X-X-X-X-X-X-X-X-X",
"-X-X-X-X-X-X-X-X-X-X-X-X          % > B V V V V V C V V V C B & + -X-X-X-X-X-X-X-X-X-X-X-X",
"-X-X-X-X-X-X-X-X-X-X-X-X-X-X-XX o O # > 1 V V V V V V V C 1 > + . -X-X-X-X-X-X-X-X-X-X-X-X",
"-X-X-X-X-X-X-X-X-X-X-X-X-X-X-X-Xo o O % * 1 1 B B B B B 1 < : $ X -X-X-X-X-X-X-X-X-X-X-X-X",
"-X-X-X-X-X-X-X-X-X-X-X-X-X-X-X-X4 5 5 O + % * > , , , > > 0 6 6 6 -X-X-X-X-X-X-X-X-X-X-X-X",
"-X-X-X-X-X-X-X-X-X-X-X-X-X-X-X-X4 5 u 7 @ $ 8 0 $ i - 0 i a 9.9.q.-X-X-X-X-X-X-X-X-X-X-X-X",
"-X-X-X-X-X-X-X-X-X-X-X-X-X-X-X-X4 5 y y y y u y y y y y 6 w.d.r.p.#X&X-X-X-X-X-X-X-X-X-X-X",
"-X-X-X-X-X-X-X-X-X-X-X-X-X-X-X-X-Xu a 0.w.w.w.w.w.w.w.w.e.r.f.r.l.#X&X-X-X-X-X-X-X-X-X-X-X",
"-X-X-X-X-X-X-X-X-X-X-X-X-X-X-X-X-Xd q.s.g.g.g.g.g.g.g.g.g.g.g.r.l.#X&X-X-X-X-X-X-X-X-X-X-X",
"-X-X-X-X-X-X-X-X-X-X-X-X-X-X-X-X-X}.{.k.g.g.g.g.g.g.g.g.g.g.h.r.l.#X&X-X-X-X-X-X-X-X-X-X-X",
"-X-X-X-X-X-X-X-X-X-X-X-X-X-X-X-X-X&X@Xk.d.h.g.g.g.g.g.f.a.a.s.j.z.#X-X-X-X-X-X-X-X-X-X-X-X",
"-X-X-X-X-X-X-X-X-X-X-X-X-X-X-X-X-X&X$Xj.r.h.g.g.g.g.g.a.w.t.y.|.#X-X-X-X-X-X-X-X-X-X-X-X-X",
"-X-X-X-X-X-X-X-X-X-X-X-X-X-X-X-X-X-X$X{.x.v.v.v.v.v.v.c.z.z.{.+X-X-X-X-X-X-X-X-X-X-X-X-X-X",
"-X-X-X-X-X-X-X-X-X-X-X-X-X-X-X-X-X-X-X&X&X&X&X&X&X&X&X&X&X&X&X-X-X-X-X-X-X-X-X-X-X-X-X-X-X",
"-X-X-X-X-X-X-X-X-X-X-X-X-X-X-X-X-X-X-X-X-X-X-X-X-X-X-X-X-X-X-X-X-X-X-X-X-X-X-X-X-X-X-X-X-X",
"-X-X-X-X-X-X-X-X-X-X-X-X-X-X-X-X-X-X-X-X-X-X-X-X-X-X-X-X-X-X-X-X-X-X-X-X-X-X-X-X-X-X-X-X-X"
};
