/* XPM */
static char *result[] = {
/* columns rows colors chars-per-pixel */
"45 60 202 2 ",
"   c #2C191F",
".  c #1A1827",
"X  c #03193F",
"o  c #141F3E",
"O  c #391F21",
"+  c #301A20",
"@  c #1B233A",
"#  c #3A2428",
"$  c #2A2A3E",
"%  c #302B3D",
"&  c #472725",
"*  c #5A2C28",
"=  c #5D312B",
"-  c #4F343A",
";  c #66332B",
":  c #6F392E",
">  c #653935",
",  c #773D31",
"<  c #733A2F",
"1  c #754339",
"2  c #6A403E",
"3  c #0A254B",
"4  c #0A2C54",
"5  c #143359",
"6  c #07305A",
"7  c #2A2F4E",
"8  c #2D314F",
"9  c #3A3142",
"0  c #31334F",
"q  c #3B334A",
"w  c #363954",
"e  c #01396C",
"r  c #043565",
"t  c #223F61",
"y  c #583C43",
"u  c #603F42",
"i  c #014578",
"p  c #1B4E7C",
"a  c #2A476C",
"s  c #584348",
"d  c #46435A",
"f  c #5C4954",
"g  c #6C4A47",
"h  c #725247",
"j  c #785957",
"k  c #6F5252",
"l  c #7B615D",
"z  c #444966",
"x  c #53556D",
"c  c #655762",
"v  c #715A62",
"b  c #766266",
"n  c #7F6F70",
"m  c #834334",
"M  c #8A4836",
"N  c #8B4A38",
"B  c #95523C",
"V  c #9A543C",
"C  c #91503C",
"Z  c #A25A3F",
"A  c #83564A",
"S  c #975843",
"D  c #9D5B43",
"F  c #955947",
"G  c #895E52",
"H  c #A45D42",
"J  c #906A5D",
"K  c #976856",
"L  c #9D725E",
"P  c #8F6B5E",
"I  c #A66145",
"U  c #AB6345",
"Y  c #AE6A4D",
"T  c #A86449",
"R  c #B46746",
"E  c #BF6F4A",
"W  c #B56C4B",
"Q  c #A96E53",
"!  c #AC7058",
"~  c #BA7655",
"^  c #8F756E",
"/  c #AC7D71",
"(  c #A87765",
")  c #C2734D",
"_  c #C67B55",
"`  c #C97B53",
"'  c #C57A54",
"]  c #99837A",
"[  c #AC876E",
"{  c #BD8668",
"}  c #A48377",
"|  c #B78A75",
" . c #CB825B",
".. c #C8815B",
"X. c #D2865B",
"o. c #D4895D",
"O. c #D5885B",
"+. c #CF8B64",
"@. c #C88966",
"#. c #D18B64",
"$. c #DA8F61",
"%. c #DC9263",
"&. c #D8956B",
"*. c #CA9472",
"=. c #CA997B",
"-. c #D99A71",
";. c #D69A74",
":. c #E79E6B",
">. c #E29F71",
",. c #DEA37A",
"<. c #D5A07C",
"1. c #E6A373",
"2. c #E9A574",
"3. c #E6A87C",
"4. c #004C83",
"5. c #015C96",
"6. c #00518B",
"7. c #365F87",
"8. c #056199",
"9. c #006CA9",
"0. c #0065A1",
"q. c #007ABA",
"w. c #694297",
"e. c #477297",
"r. c #646F8C",
"t. c #7056B4",
"y. c #8558C0",
"u. c #8A68D6",
"i. c #1584BE",
"p. c #3981AE",
"a. c #778297",
"s. c #6F8FAC",
"d. c #7198B5",
"f. c #0084C5",
"g. c #0088C9",
"h. c #008ED1",
"j. c #0096DA",
"k. c #0098DC",
"l. c #0092D5",
"z. c #3E90C1",
"x. c #75B5D9",
"c. c #6EBEE3",
"v. c #6DC3EA",
"b. c #75C7EC",
"n. c #75C2E5",
"m. c #B19684",
"M. c #B6A29E",
"N. c #9DA0AE",
"B. c #8AA4BC",
"V. c #9FA2B1",
"C. c #A3A9B8",
"Z. c #BCB2B7",
"A. c #978A8B",
"S. c #CEA587",
"D. c #D8A581",
"F. c #DDB38E",
"G. c #C5A49B",
"H. c #DEB693",
"J. c #DAAF9D",
"K. c #E5AE84",
"L. c #EDAF80",
"P. c #E7B187",
"I. c #EEB384",
"U. c #ECB58A",
"Y. c #EDB98E",
"T. c #E7B48B",
"R. c #F0B98B",
"E. c #EEBE94",
"W. c #E5B891",
"Q. c #F1BE92",
"!. c #DDB5AB",
"~. c #D2ADA7",
"^. c #EEC29B",
"/. c #F2C195",
"(. c #F4C59A",
"). c #F6CA9F",
"_. c #D8C1BA",
"`. c #F6CBA2",
"'. c #F7CFA8",
"]. c #F0C4A1",
"[. c #F7D2AD",
"{. c #F7D5B2",
"}. c #F7D8B7",
"|. c #F8DBBC",
" X c #F6D9BB",
".X c #F1CDAF",
"XX c #94B3CB",
"oX c #BFD5E4",
"OX c #CED0D6",
"+X c #F8DEC1",
"@X c #E8D1C1",
"#X c #F9E5CE",
"$X c #F8E1C7",
"%X c #D1DBE5",
"&X c #E9DCE7",
"*X c #DEECF4",
"=X c #E4E6E9",
"-X c #F0E8E6",
";X c white",
":X c #F5F7F9",
">X c #E6E1F2",
",X c None",
/* pixels */
",X,X,X,X,X,X,X,X,X,X,X,X,X,X,X,X,X,X,X,X,X,X,X,X,X,X,X,X,X,X,X,X,X,X,X,X,X,X,X,X,X,X,X,X,X",
",X,X,X,X,X,X,X,X,X,X,X,X,X,X,X,X,X,X,X,X,X,X,X,X,X,X,X,X,X,X,X,X,X,X,X,X,X,X,X,X,X,X,X,X,X",
",X,X,X,X,X,X,X,X,X,X,X,X,X,X,X,X,X,X,X,X,X,X,X,X,X,X,X,X,X,X,X,X,X,X,X,X,X,X,X,X,X,X,X,X,X",
",X,X,X,X,X,X,X,X,X,X,X,X,X,XM Z E E E ) E ) ) R V M ,X,X,X,X,X,X,X,X,X,X,X,X,X,X,X,X,X,X,X",
",X,X,X,X,X,X,X,X,X,X,X,X,X,XB T _ _ _ ' ` _ _ ' T F ,X,X,X,X,X,X,X,X,X,X,X,X,X,X,X,X,X,X,X",
",X,X,X,X,X,X,X,X,X,X,X,XE '  .&.K.K.P.P.K.K.P.P.D.;._ U N ,X,X,X,X,X,X,X,X,X,X,X,X,X,X,X,X",
",X,X,X,X,X,X,X,X,X,X,X,X` o.2.E.[.[.[.[.[.[.[.[.{.^.-.~ I D ,X,X,X,X,X,X,X,X,X,X,X,X,X,X,X",
",X,X,X,X,X,X,X,X,X,X,X` o.1.Q.{.#X$X#X$X$X#X$X#X#X|.(.K.%.W N ,X,X,X,X,X,X,X,X,X,X,X,X,X,X",
",X,X,X,X,X,X,X,X,X,X` o.2.Q.[.+X#X#X#X#X#X#X#X#X#X$X|.`.I...Z ,X,X,X,X,X,X,X,X,X,X,X,X,X,X",
",X,X,X,X,X,X,X,XE E o.2.Q.[.$X#X#X#X#X#X#X#X#X#X#X#X#X|.`.-.E ,X,X,X,X,X,X,X,X,X,X,X,X,X,X",
",X,X,X,X,X,X,X,XE E -.R.(.[.#X#X#X#X#X#X#X-X#X#X#X#X#X|.).3.X.U ,X,X,X,X,X,X,X,X,X,X,X,X,X",
",X,X,X,X,X,X,X,XE E 3.`.).[.|.$X#X-X#X#X#X#X#X#X#X#X#X}.).R.-.Y B ,X,X,X,X,X,X,X,X,X,X,X,X",
",X,X,X,X,X,X,X,XE ) ,.).).`.'.|.#X#X#X#X#X#X#X#X#X$X[.'.).(.U. .R ,X,X,X,X,X,X,X,X,X,X,X,X",
",X,X,X,X,X,X,X,XE E ,.).).).).[.$X+X|.+X|.|.|.|.|.}.'.).).)./.+.E ,X,X,X,X,X,X,X,X,X,X,X,X",
",X,X,X,X,X,X,X,XE E ,.).).).).).`.`.`.`.`.`.`.`.`.`.).).).).E.+.E ,X,X,X,X,X,X,X,X,X,X,X,X",
",X,X,X,X,X,X,X,XE E ,.(.).).).`.).).).).).).).).).).).).).).E.+.E ,X,X,X,X,X,X,X,X,X,X,X,X",
",X,X,X,X,X,X,X,XE E ,.^.W.T.F.F.W.(.).).).).(./././.(.).).).^.X.E ,X,X,X,X,X,X,X,X,X,X,X,X",
",X,X,X,X,X,X,X,XE E ,.^.( A h h h =.).).).(.3.+.o.;./.).).)./.@.E ,X,X,X,X,X,X,X,X,X,X,X,X",
",X,X,X,X,X,X,X,XE E ,.H.h 2 k s # [ ).).(./.,.o.@.*.3./.).)./.@.E ,X,X,X,X,X,X,X,X,X,X,X,X",
",X,X,X,X,X,X,X,XE E ,.F.1 v OXA.# [ ).)./.2.3././.3.+.-.(.)./.+.) ,X,X,X,X,X,X,X,X,X,X,X,X",
",X,X,X,X,X,X,X,XE E ,.F.g b =XM.2 { ).)./.3./.).).T...&.(./.3...H ,X,X,X,X,X,X,X,X,X,X,X,X",
",X,X,X,X,X,X,X,XE E ,.F.k b -X~.C ;.).).`.`.).).).T._ &.(.3.$.I M ,X,X,X,X,X,X,X,X,X,X,X,X",
",X,X,X,X,X,X,X,XE E ,.H.w.t.>X@X=./.(.).`.).).).).U...X.3.%...U ,X,X,X,X,X,X,X,X,X,X,X,X,X",
",X,X,X,X,X,X,X,XR U <.!.y.u.&X+X).).).).`.).(./.E.3.X.O.%. .E ,X,X,X,X,X,X,X,X,X,X,X,X,X,X",
",X,X,X,X,X,X,X,XC V *.].~.!..X[.).).).).`.`.U.1.#.X.$.O.` ) ,X,X,X,X,X,X,X,X,X,X,X,X,X,X,X",
",X,X,X,X,X,X,X,XM N @.K.Q.`.(.`.).).).`.H.| } ! G G L K U ,X,X,X,X,X,X,X,X,X,X,X,X,X,X,X,X",
",X,X,X,X,X,X,X,X,X,X) ` P.`.`.(.).).`.`.m.d 0 0 0 8 8 y N ,X,X,X,X,X,X,X,X,X,X,X,X,X,X,X,X",
",X,X,X,X,X,X,X,X,X,X,X~ ~ *.;.;.-.-.{ ] ^ P ^ ] ] ^ d q y 2 ,X,X,X,X,X,X,X,X,X,X,X,X,X,X,X",
",X,X,X,X,X,X,X,X,X,X,X,XN B U W Y Y F f l -.Y.'.[.S.c w 7 u M ,X,X,X,X,X,X,X,X,X,X,X,X,X,X",
",X,X,X,X,X,X,X,X,X,X,X,X,Xg s f c f f L =..X|.|.{.W.{ j 8 y M ,X,X,X,X,X,X,X,X,X,X,X,X,X,X",
",X,X,X,X,X,X,X,X,X,X,X,X,X,X8 a x f l *./.$X#X#X{./.1.L 8 g V C ,X,X,X,X,X,X,X,X,X,X,X,X,X",
",X,X,X,X,X,X,X,X,X,X,X,X,X,Xw a r.} &./.'.#X#X#X{.R.1.! 8 h R V N ,X,X,X,X,X,X,X,X,X,X,X,X",
",X,X,X,X,X,X,X,X,X,X,X,X,X,Xk P } D.R.Q.'.}.}.}.'.Y.&.K 0 G _ D N ,X,X,X,X,X,X,X,X,X,X,X,X",
",X,X,X,X,X,X,X,X,X,X,X,X,X,XE  .:.R.`.`.`.`.).`.).I._ A 0 J $.H N ,X,X,X,X,X,X,X,X,X,X,X,X",
",X,X,X,X,X,X,X,X,X,X,X,X,X' o.%.:.R.).).).).).).I.:.` A 0 J %.T N ,X,X,X,X,X,X,X,X,X,X,X,X",
",X,X,X,X,X,X,X,X,X,X,X,X .$.1.2.2.R.Q.).).).(.R.>.#.! j 8 P %.H M ,X,X,X,X,X,X,X,X,X,X,X,X",
",X,X,X,X,X,X,X,X,X,X,X_ 3.Y.Q./.Q.L.2.Q.`.`.R.>.#.! v z 8 J &.H M ,X,X,X,X,X,X,X,X,X,X,X,X",
",X,X,X,X,X,X,X,X,X,X) _ K.`.).`.).R.I.R.R.R.>.#.! G z w 7 A ' H ,X,X,X,X,X,X,X,X,X,X,X,X,X",
",X,X,X,X,X,X,X,X,X,XE _ P.).).).).).Q.2.:.:.` E v z 8 7 7 u S ,X,X,X,X,X,X,X,X,X,X,X,X,X,X",
",X,X,X,X,X,X,X,X,X,XE _ P.).).).`.`.(.2.#.E S.!.Z.C.V.V.V.v * ,X,X,X,X,X,X,X,X,X,X,X,X,X,X",
",X,X,X,X,X,X,X,X,X,XR ' K.(.).).`.`.Q.1._ K G.-X-X-X-X-X-X^ O ,X,X,X,X,X,X,X,X,X,X,X,X,X,X",
",X,X,X,X,X,X,X,X,X,XV H #.I.(.).(.`.T.~ | _.G./ / / / / } g O ,X,X,X,X,X,X,X,X,X,X,X,X,X,X",
",X,X,X,X,X,X,X,X,X,X> 1 ! #.<.,.<.D.*.D ( !.m.M M M M M N ; O ,X,X,X,X,X,X,X,X,X,X,X,X,X,X",
",X,X,X,X,X,X,X,X,X,X3 $ 1 B S F S F F N S F A M M M M M M = O ,X,X,X,X,X,X,X,X,X,X,X,X,X,X",
",X,X,X,X,X,X,X,X,X,X3 4 w s = 1 N N N N M M M M M m , , < & + ,X,X,X,X,X,X,X,X,X,X,X,X,X,X",
",X,X,X,X,X,X,X,X3 3 6 e e 5 # = N m m N M M M M M m ; * * O   ,X,X,X,X,X,X,X,X,X,X,X,X,X,X",
",X,X,X,X,X,X,X,XC.C.e.r e r 4 $ & = < m M M M M N m , < * % 4 r ,X,X,X,X,X,X,X,X,X,X,X,X,X",
",X,X,X,X,X,X,X,X;X;Xs.e e e e 4 . O * < , m m 1 m m m : - a i 4.4.,X,X,X,X,X,X,X,X,X,X,X,X",
",X,X,X,X,X,X,X,X;X;Xs.e e e e r 6 @   # * = ; ; ; ; ; % 5 8.f.f.9.4.,X,X,X,X,X,X,X,X,X,X,X",
",X,X,X,X,X,X,X,X;X;XXXe.p e e e e 3 @ @ $ 9 9 9 9 9 y t 5.q.k.k.g.0.p.,X,X,X,X,X,X,X,X,X,X",
",X,X,X,X,X,X,X,X,X,X:X%Xe.r e e e e e r e e r e e e e 5.l.k.k.k.k.j.v.;X;X,X,X,X,X,X,X,X,X",
",X,X,X,X,X,X,X,X,X,X,X=XXXB.B.B.B.B.s.7.i 6.5.9.9.9.9.q.k.k.k.k.k.k.v.;X;X,X,X,X,X,X,X,X,X",
",X,X,X,X,X,X,X,X,X,X,X,X;X;X;X;X;X;X%X7.4.9.f.k.k.k.k.k.k.k.k.k.j.l.c.;X;X,X,X,X,X,X,X,X,X",
",X,X,X,X,X,X,X,X,X,X,X,X,X,X,X,X,X,X,X5 i f.h.k.k.k.k.k.k.k.k.k.f.8.d.;X;X,X,X,X,X,X,X,X,X",
",X,X,X,X,X,X,X,X,X,X,X,X,X,X,X,X,X,X,XX i h.k.k.k.k.k.k.k.k.k.h.f.e.B.;X;X,X,X,X,X,X,X,X,X",
",X,X,X,X,X,X,X,X,X,X,X,X,X,X,X,X,X,X,XX i h.k.k.k.k.k.k.k.k.l.q.z.%X=X,X,X,X,X,X,X,X,X,X,X",
",X,X,X,X,X,X,X,X,X,X,X,X,X,X,X,X,X,X,Xa.d.n.b.b.b.b.b.b.b.b.b.x.XX*X,X,X,X,X,X,X,X,X,X,X,X",
",X,X,X,X,X,X,X,X,X,X,X,X,X,X,X,X,X,X,X;X;X;X;X;X;X;X;X;X;X;X;X;X;X,X,X,X,X,X,X,X,X,X,X,X,X",
",X,X,X,X,X,X,X,X,X,X,X,X,X,X,X,X,X,X,X;X;X;X;X;X;X;X;X;X;X;X;X;X;X,X,X,X,X,X,X,X,X,X,X,X,X",
",X,X,X,X,X,X,X,X,X,X,X,X,X,X,X,X,X,X,X,X,X,X,X,X,X,X,X,X,X,X,X,X,X,X,X,X,X,X,X,X,X,X,X,X,X"
};
