/* XPM */
static char *result[] = {
/* columns rows colors chars-per-pixel */
"45 60 202 2 ",
"   c #2C191F",
".  c #1A1827",
"X  c #03193F",
"o  c #141F3E",
"O  c #391F21",
"+  c #301A20",
"@  c #1B233A",
"#  c #3A2428",
"$  c #2A2A3E",
"%  c #302B3D",
"&  c #472725",
"*  c #5A2C28",
"=  c #5D312B",
"-  c #4F343A",
";  c #66332B",
":  c #6F392E",
">  c #653935",
",  c #773D31",
"<  c #733A2F",
"1  c #754339",
"2  c #6A403E",
"3  c #0A254B",
"4  c #0A2C54",
"5  c #143359",
"6  c #07305A",
"7  c #2A2F4E",
"8  c #2D314F",
"9  c #3A3142",
"0  c #31334F",
"q  c #3B334A",
"w  c #363954",
"e  c #01396C",
"r  c #043565",
"t  c #223F61",
"y  c #583C43",
"u  c #603F42",
"i  c #014578",
"p  c #1B4E7C",
"a  c #2A476C",
"s  c #584348",
"d  c #46435A",
"f  c #5C4954",
"g  c #6C4A47",
"h  c #725247",
"j  c #785957",
"k  c #6F5252",
"l  c #7B615D",
"z  c #444966",
"x  c #53556D",
"c  c #655762",
"v  c #715A62",
"b  c #766266",
"n  c #7F6F70",
"m  c #834334",
"M  c #8A4836",
"N  c #8B4A38",
"B  c #95523C",
"V  c #9A543C",
"C  c #91503C",
"Z  c #A25A3F",
"A  c #83564A",
"S  c #975843",
"D  c #9D5B43",
"F  c #955947",
"G  c #895E52",
"H  c #A45D42",
"J  c #906A5D",
"K  c #976856",
"L  c #9D725E",
"P  c #8F6B5E",
"I  c #A66145",
"U  c #AB6345",
"Y  c #AE6A4D",
"T  c #A86449",
"R  c #B46746",
"E  c #BF6F4A",
"W  c #B56C4B",
"Q  c #A96E53",
"!  c #AC7058",
"~  c #BA7655",
"^  c #8F756E",
"/  c #AC7D71",
"(  c #A87765",
")  c #C2734D",
"_  c #C67B55",
"`  c #C97B53",
"'  c #C57A54",
"]  c #99837A",
"[  c #AC876E",
"{  c #BD8668",
"}  c #A48377",
"|  c #B78A75",
" . c #CB825B",
".. c #C8815B",
"X. c #D2865B",
"o. c #D4895D",
"O. c #D5885B",
"+. c #CF8B64",
"@. c #C88966",
"#. c #D18B64",
"$. c #DA8F61",
"%. c #DC9263",
"&. c #D8956B",
"*. c #CA9472",
"=. c #CA997B",
"-. c #D99A71",
";. c #D69A74",
":. c #E79E6B",
">. c #E29F71",
",. c #DEA37A",
"<. c #D5A07C",
"1. c #E6A373",
"2. c #E9A574",
"3. c #E6A87C",
"4. c #004C83",
"5. c #015C96",
"6. c #00518B",
"7. c #365F87",
"8. c #056199",
"9. c #006CA9",
"0. c #0065A1",
"q. c #007ABA",
"w. c #694297",
"e. c #477297",
"r. c #646F8C",
"t. c #7056B4",
"y. c #8558C0",
"u. c #8A68D6",
"i. c #1584BE",
"p. c #3981AE",
"a. c #778297",
"s. c #6F8FAC",
"d. c #7198B5",
"f. c #0084C5",
"g. c #0088C9",
"h. c #008ED1",
"j. c #0096DA",
"k. c #0098DC",
"l. c #0092D5",
"z. c #3E90C1",
"x. c #75B5D9",
"c. c #6EBEE3",
"v. c #6DC3EA",
"b. c #75C7EC",
"n. c #75C2E5",
"m. c #B19684",
"M. c #B6A29E",
"N. c #9DA0AE",
"B. c #8AA4BC",
"V. c #9FA2B1",
"C. c #A3A9B8",
"Z. c #BCB2B7",
"A. c #978A8B",
"S. c #CEA587",
"D. c #D8A581",
"F. c #DDB38E",
"G. c #C5A49B",
"H. c #DEB693",
"J. c #DAAF9D",
"K. c #E5AE84",
"L. c #EDAF80",
"P. c #E7B187",
"I. c #EEB384",
"U. c #ECB58A",
"Y. c #EDB98E",
"T. c #E7B48B",
"R. c #F0B98B",
"E. c #EEBE94",
"W. c #E5B891",
"Q. c #F1BE92",
"!. c #DDB5AB",
"~. c #D2ADA7",
"^. c #EEC29B",
"/. c #F2C195",
"(. c #F4C59A",
"). c #F6CA9F",
"_. c #D8C1BA",
"`. c #F6CBA2",
"'. c #F7CFA8",
"]. c #F0C4A1",
"[. c #F7D2AD",
"{. c #F7D5B2",
"}. c #F7D8B7",
"|. c #F8DBBC",
" X c #F6D9BB",
".X c #F1CDAF",
"XX c #94B3CB",
"oX c #BFD5E4",
"OX c #CED0D6",
"+X c #F8DEC1",
"@X c #E8D1C1",
"#X c #F9E5CE",
"$X c #F8E1C7",
"%X c #D1DBE5",
"&X c #E9DCE7",
"*X c #DEECF4",
"=X c #E4E6E9",
"-X c #F0E8E6",
";X c white",
":X c #F5F7F9",
">X c #E6E1F2",
",X c None",
/* pixels */
",X,X,X,X,X,X,X,X,X,X,X,X,X,X,X,X,X,X,X,X,X,X,X,X,X,X,X,X,X,X,X,X,X,X,X,X,X,X,X,X,X,X,X,X,X",
",X,X,X,X,X,X,X,X,X,X,X,X,X,X,X,X,X,X,X,X,X,X,X,X,X,X,X,X,X,X,X,X,X,X,X,X,X,X,X,X,X,X,X,X,X",
",X,X,X,X,X,X,X,X,X,X,X,X,X,X,X,X,X,X,X,X,X,X,X,X,X,X,X,X,X,X,X,X,X,X,X,X,X,X,X,X,X,X,X,X,X",
",X,X,X,X,X,X,X,X,X,X,X,X,X,X,X,X,X,X,XM V E E ) E E E E E Z M ,X,X,X,X,X,X,X,X,X,X,X,X,X,X",
",X,X,X,X,X,X,X,X,X,X,X,X,X,X,X,X,X,X,XD T ' _ _ _ _ ' _ _ U B ,X,X,X,X,X,X,X,X,X,X,X,X,X,X",
",X,X,X,X,X,X,X,X,X,X,X,X,X,X,X,XM U _ =.D.K.K.P.K.K.P.P.K.-. .' ) ,X,X,X,X,X,X,X,X,X,X,X,X",
",X,X,X,X,X,X,X,X,X,X,X,X,X,X,XD I ' ;.^.[.[.[.[.[.[.'.[.[.Y.1.o.` ,X,X,X,X,X,X,X,X,X,X,X,X",
",X,X,X,X,X,X,X,X,X,X,X,X,X,XM Y %.K.(. X#X$X#X$X$X#X#X$X#X[./.2.o.) ,X,X,X,X,X,X,X,X,X,X,X",
",X,X,X,X,X,X,X,X,X,X,X,X,X,XZ ..I.`.$X#X#X#X#X#X#X#X#X#X#X$X{./.2.#.` ,X,X,X,X,X,X,X,X,X,X",
",X,X,X,X,X,X,X,X,X,X,X,X,X,X) -.).+X#X#X#X#X#X#X#X#X#X#X#X-X$X'.R.1.o.) ) ,X,X,X,X,X,X,X,X",
",X,X,X,X,X,X,X,X,X,X,X,X,XU X.3.`.|.#X#X#X#X#X#X#X#X#X#X#X#X#X'.(.Y.-.E ) ,X,X,X,X,X,X,X,X",
",X,X,X,X,X,X,X,X,X,X,X,XC Y :.U.).}.#X#X#X#X#X#X#X#X#X#X#X$X$X'.).).3.E E ,X,X,X,X,X,X,X,X",
",X,X,X,X,X,X,X,X,X,X,X,XR ..U.(.).'.[.$X#X#X#X#X#X#X#X#X#X|.'.).).).,.E E ,X,X,X,X,X,X,X,X",
",X,X,X,X,X,X,X,X,X,X,X,XE #.E.).).).'.}.+X|.|.+X+X|.+X+X+X{.).).).).,.E E ,X,X,X,X,X,X,X,X",
",X,X,X,X,X,X,X,X,X,X,X,XE #.E.`.).).).).`.`.`.`.).).`.`.).).).).).).,.E E ,X,X,X,X,X,X,X,X",
",X,X,X,X,X,X,X,X,X,X,X,XE +.E.`.).).).).).).).).).).).).).).).).).).,.E E ,X,X,X,X,X,X,X,X",
",X,X,X,X,X,X,X,X,X,X,X,XE #.E.).).).)./.E.E.(.).).).).^.F.H.F.W.E.).,.E E ,X,X,X,X,X,X,X,X",
",X,X,X,X,X,X,X,X,X,X,X,XE #.E.`.).).Q.-.+.+.K.(.).).`.=.h h h A ( W.,.E E ,X,X,X,X,X,X,X,X",
",X,X,X,X,X,X,X,X,X,X,X,XE #.Q.`.).W.K.#.+.+.3.Q.(.).).[ # s v > h T.,.E E ,X,X,X,X,X,X,X,X",
",X,X,X,X,X,X,X,X,X,X,X,XE +.Q.).(.-.+.P.E.E.L.2.R.`.).[ & ] OXc h F.,.E E ,X,X,X,X,X,X,X,X",
",X,X,X,X,X,X,X,X,X,X,X,XH ~ 3.Q.(.&. .U.`.`.R.I./.).).| ; M.=Xb h F.,.E ) ,X,X,X,X,X,X,X,X",
",X,X,X,X,X,X,X,X,X,X,X,XN I %.I.(.&._ T.).).).).).).).=.B ~.=Xb g F.,.E E ,X,X,X,X,X,X,X,X",
",X,X,X,X,X,X,X,X,X,X,X,X,XU ` %.3.X._ T.).`.).).).).).W.=..X=Xt.w.J.,.E E ,X,X,X,X,X,X,X,X",
",X,X,X,X,X,X,X,X,X,X,X,X,X,X) X.%.X.X.K.Y.Q.(.).).).`.`.`.$X=Xu.y.!.;.R R ,X,X,X,X,X,X,X,X",
",X,X,X,X,X,X,X,X,X,X,X,X,X,X,X) ` X.$.X.#.1.U.(.).).).).).'.[.!.~.].*.B B ,X,X,X,X,X,X,X,X",
",X,X,X,X,X,X,X,X,X,X,X,X,X,X,X,XH Q L G K L [ m.H.).).).).).).).(.K.@.N M ,X,X,X,X,X,X,X,X",
",X,X,X,X,X,X,X,X,X,X,X,X,X,X,X,XM y 0 7 8 0 0 d m.(.).).).`.).).U...) ,X,X,X,X,X,X,X,X,X,X",
",X,X,X,X,X,X,X,X,X,X,X,X,X,X,X2 y q w ^ ] ] ^ J ^ ] *.-.-.-.*.@.~ ~ ,X,X,X,X,X,X,X,X,X,X,X",
",X,X,X,X,X,X,X,X,X,X,X,X,X,XM u 7 w c S.`.'.Y.-.v f F Q Y Y T B M ,X,X,X,X,X,X,X,X,X,X,X,X",
",X,X,X,X,X,X,X,X,X,X,X,X,X,XM y 8 j | W.'.|. X.X=.L k f c f s g ,X,X,X,X,X,X,X,X,X,X,X,X,X",
",X,X,X,X,X,X,X,X,X,X,X,X,XB V g 8 L 2./.{.#X#X+XE.*.j c x a 7 ,X,X,X,X,X,X,X,X,X,X,X,X,X,X",
",X,X,X,X,X,X,X,X,X,X,X,XM V R h 8 ! 2./.}.#X#X#X'.Y.-.} r.z 7 ,X,X,X,X,X,X,X,X,X,X,X,X,X,X",
",X,X,X,X,X,X,X,X,X,X,X,XN D ` G 0 K $.E.'. X}.}.'.Q.R.D.m.P f ,X,X,X,X,X,X,X,X,X,X,X,X,X,X",
",X,X,X,X,X,X,X,X,X,X,X,XM I %.J 0 A _ U.`.].`.`.`.`.`.I.:.` ) ,X,X,X,X,X,X,X,X,X,X,X,X,X,X",
",X,X,X,X,X,X,X,X,X,X,X,XM I %.J 8 A _ >.I.`.`.`.).`.`.I.:.:.o.` ,X,X,X,X,X,X,X,X,X,X,X,X,X",
",X,X,X,X,X,X,X,X,X,X,X,XM I %.J 0 k ! +.:.Q.Q.`.).`.Q.R.2.2.:.$. .,X,X,X,X,X,X,X,X,X,X,X,X",
",X,X,X,X,X,X,X,X,X,X,X,XM I %.J 7 z v ! $.:.R.`.).Q.2.R.Q.Q.Q.R.3._ ,X,X,X,X,X,X,X,X,X,X,X",
",X,X,X,X,X,X,X,X,X,X,X,X,XH ~ j 7 w z G ! #.:.R.R.R.3.R.).`.`.).P._ E ,X,X,X,X,X,X,X,X,X,X",
",X,X,X,X,X,X,X,X,X,X,X,X,X,XN g 7 7 0 z v W ` 2.:.2./.).).).).).P._ E ,X,X,X,X,X,X,X,X,X,X",
",X,X,X,X,X,X,X,X,X,X,X,X,X,X* b N.V.V.XX~.!.=.~ o.2.(.).).).).).P._ E ,X,X,X,X,X,X,X,X,X,X",
",X,X,X,X,X,X,X,X,X,X,X,X,X,XO ^ -X-X-X-X-X-XG.F ..,./.).).).).(.K.' W ,X,X,X,X,X,X,X,X,X,X",
",X,X,X,X,X,X,X,X,X,X,X,X,X,X# g / / / / / / G.OX[ ~ W.`.).).(.I.#.H V ,X,X,X,X,X,X,X,X,X,X",
",X,X,X,X,X,X,X,X,X,X,X,X,X,X# = M M M M M M | !.( D *.<.D.<.<.+.! 1 > ,X,X,X,X,X,X,X,X,X,X",
",X,X,X,X,X,X,X,X,X,X,X,X,X,XO = M M M M M M S F C C S S S F S B 1 $ o ,X,X,X,X,X,X,X,X,X,X",
",X,X,X,X,X,X,X,X,X,X,X,X,X,X  & < < , M M M M M M M M M M 1 ; s w 4 3 ,X,X,X,X,X,X,X,X,X,X",
",X,X,X,X,X,X,X,X,X,X,X,X,X,X. # * * ; m M M M M M M M M m = # 6 e e 6 3 3 ,X,X,X,X,X,X,X,X",
",X,X,X,X,X,X,X,X,X,X,X,X,Xr 3 % * : , m M M m M M 1 : = & $ 5 r e e e.C.C.,X,X,X,X,X,X,X,X",
",X,X,X,X,X,X,X,X,X,X,X,X4.4.4.t - : m m m m m m m : * # . 4 e e e e s.;X;X,X,X,X,X,X,X,X,X",
",X,X,X,X,X,X,X,X,X,X,Xi q.f.f.8.5 y ; ; ; ; ; ; * # + @ 6 r e e e e s.;X;X,X,X,X,X,X,X,X,X",
",X,X,X,X,X,X,X,X,X,Xp.0.g.j.k.q.5.a 9 9 9 9 9 9 $ $ @ 3 e e e e p e.XX;X;X,X,X,X,X,X,X,X,X",
",X,X,X,X,X,X,X,X;X;Xv.k.j.k.k.j.h.5.r e r e r e e e e e e e e e e.%X:X,X,X,X,X,X,X,X,X,X,X",
",X,X,X,X,X,X,X,X;X;Xv.k.j.k.k.k.j.q.9.9.9.9.8.6.i p s.B.B.B.B.B.XX=X,X,X,X,X,X,X,X,X,X,X,X",
",X,X,X,X,X,X,X,X;X;Xc.h.j.k.k.k.k.k.k.k.k.k.g.9.i 7.%X;X;X;X;X;X;X,X,X,X,X,X,X,X,X,X,X,X,X",
",X,X,X,X,X,X,X,X;X;Xd.8.f.k.k.k.k.k.k.k.k.k.h.f.i 5 ,X,X,X,X,X,X,X,X,X,X,X,X,X,X,X,X,X,X,X",
",X,X,X,X,X,X,X,X;X;XXXe.i.h.j.k.k.k.k.k.k.k.k.h.i X ,X,X,X,X,X,X,X,X,X,X,X,X,X,X,X,X,X,X,X",
",X,X,X,X,X,X,X,X,X,X*XoXz.q.l.k.k.k.k.k.k.k.k.h.i X ,X,X,X,X,X,X,X,X,X,X,X,X,X,X,X,X,X,X,X",
",X,X,X,X,X,X,X,X,X,X,X*XXXc.b.b.b.b.b.b.b.b.b.n.d.a.,X,X,X,X,X,X,X,X,X,X,X,X,X,X,X,X,X,X,X",
",X,X,X,X,X,X,X,X,X,X,X,X;X;X;X;X;X;X;X;X;X;X;X;X;X;X,X,X,X,X,X,X,X,X,X,X,X,X,X,X,X,X,X,X,X",
",X,X,X,X,X,X,X,X,X,X,X,X;X;X;X;X;X;X;X;X;X;X;X;X;X;X,X,X,X,X,X,X,X,X,X,X,X,X,X,X,X,X,X,X,X",
",X,X,X,X,X,X,X,X,X,X,X,X,X,X,X,X,X,X,X,X,X,X,X,X,X,X,X,X,X,X,X,X,X,X,X,X,X,X,X,X,X,X,X,X,X"
};
