/* XPM */
static char *result[] = {
/* columns rows colors chars-per-pixel */
"45 60 198 2 ",
"   c #1C121C",
".  c #24151E",
"X  c #2D191F",
"o  c #17192A",
"O  c #03193F",
"+  c #341C21",
"@  c #3A1F21",
"#  c #12213B",
"$  c #2C2331",
"%  c #432324",
"&  c #492826",
"*  c #4C2625",
"=  c #5C2D29",
"-  c #552B28",
";  c #442D34",
":  c #5D3A3A",
">  c #5D312A",
",  c #68342D",
"<  c #793E31",
"1  c #763D31",
"2  c #603635",
"3  c #7A4032",
"4  c #042D58",
"5  c #04315C",
"6  c #0B345E",
"7  c #11365F",
"8  c #2A2F4E",
"9  c #292F47",
"0  c #363246",
"q  c #343B5B",
"w  c #343A54",
"e  c #2D3251",
"r  c #02396B",
"t  c #043462",
"y  c #493D4D",
"u  c #643E40",
"i  c #3F475E",
"p  c #114677",
"a  c #164D78",
"s  c #17416B",
"d  c #3C4565",
"f  c #5B464B",
"g  c #4A4153",
"h  c #534B5A",
"j  c #674A4D",
"k  c #784A42",
"l  c #7A5E5A",
"z  c #74585A",
"x  c #684C50",
"c  c #424C6D",
"v  c #4D4E64",
"b  c #534C61",
"n  c #595365",
"m  c #485374",
"M  c #525E7E",
"N  c #4F5167",
"B  c #745A60",
"V  c #6D476D",
"C  c #71636A",
"Z  c #696675",
"A  c #884736",
"S  c #8A4836",
"D  c #844534",
"F  c #924E3A",
"G  c #96533C",
"H  c #9E583E",
"J  c #9A543C",
"K  c #9D5A42",
"L  c #975C4A",
"P  c #8A574C",
"I  c #A45C41",
"U  c #A95F42",
"Y  c #8B6556",
"T  c #986D5A",
"R  c #96654A",
"E  c #A96245",
"W  c #A3644C",
"Q  c #A96549",
"!  c #B36C4B",
"~  c #BF6F4A",
"^  c #B46746",
"/  c #BA714F",
"(  c #A26D5D",
")  c #AA6B54",
"_  c #B5785A",
"`  c #867573",
"'  c #917E79",
"]  c #B57C60",
"[  c #C2744D",
"{  c #C57B55",
"}  c #C97C53",
"|  c #C57B55",
" . c #AB876D",
".. c #B48A6F",
"X. c #BB8D71",
"o. c #BE9479",
"O. c #CE8157",
"+. c #CB825B",
"@. c #C4815E",
"#. c #D28559",
"$. c #C78864",
"%. c #D78E61",
"&. c #DC9465",
"*. c #D6946C",
"=. c #DC976B",
"-. c #C89777",
";. c #DA9C74",
":. c #D89F7A",
">. c #E69C6A",
",. c #E19766",
"<. c #E29E70",
"1. c #DCA179",
"2. c #D7A17C",
"3. c #E9A574",
"4. c #E0A67D",
"5. c #E5A97D",
"6. c #ECAE7F",
"7. c #E6A576",
"8. c #43148D",
"9. c #5A3E85",
"0. c #005691",
"q. c #005F99",
"w. c #19699D",
"e. c #37648D",
"r. c #016CA8",
"t. c #0078B7",
"y. c #5B6787",
"u. c #527B9B",
"i. c #7D7882",
"p. c #657392",
"a. c #66738B",
"s. c #5530E0",
"d. c #827D85",
"f. c #388ABD",
"g. c #5782A5",
"h. c #0286C8",
"j. c #0098DC",
"k. c #0296DA",
"l. c #0A90CF",
"z. c #3999CC",
"x. c #3FAADD",
"c. c #33ADE3",
"v. c #3FB1E5",
"b. c #41A0D2",
"n. c #7FB4D4",
"m. c #978889",
"M. c #AE8198",
"N. c #B68DB9",
"B. c #8AA4BC",
"V. c #A9ABB7",
"C. c #B0A9AF",
"Z. c #CDAB8E",
"A. c #D8AB87",
"S. c #D8AF92",
"D. c #D4B193",
"F. c #E4AE84",
"G. c #E7B187",
"H. c #EDB384",
"J. c #EAB48A",
"K. c #EBB88E",
"L. c #E1B38D",
"P. c #F0BA8C",
"I. c #F0B789",
"U. c #EFBE93",
"Y. c #F2BF92",
"T. c #CAB3A8",
"R. c #D6BDB5",
"E. c #F4C59A",
"W. c #F6CA9F",
"Q. c #F3C195",
"!. c #EDC39C",
"~. c #EFC7A5",
"^. c #F5CDA5",
"/. c #F7CFA8",
"(. c #F7D2AC",
"). c #F7D5B2",
"_. c #F8DBBD",
"`. c #F8D7B6",
"'. c #9CB2C6",
"]. c #ACBECF",
"[. c #B3B7C5",
"{. c #A6D2EA",
"}. c #D5CED5",
"|. c #C7D4DF",
" X c #E5CBC1",
".X c #F8DFC3",
"XX c #E8DAD7",
"oX c #F8E0C5",
"OX c #F9E6CF",
"+X c #FBEAD9",
"@X c #D2D2EE",
"#X c #CCEAF8",
"$X c #CCE6F4",
"%X c #DBECF5",
"&X c #DAF0FA",
"*X c #CCE1EE",
"=X c white",
"-X c None",
/* pixels */
"-X-X-X-X-X-X-X-X-X-X-X-X-X-X-X-X-X-X-X-X-X-X-X-X-X-X-X-X-X-X-X-X-X-X-X-X-X-X-X-X-X-X-X-X-X",
"-X-X-X-X-X-X-X-X-X-X-X-X-X-X-X-X-X-X-X-X-X-X-X-X-X-X-X-X-X-X-X-X-X-X-X-X-X-X-X-X-X-X-X-X-X",
"-X-X-X-X-X-X-X-X-X-X-X-X-X-X-X-X-X-X-X-X-X-X-X-X-X-X-X-X-X-X-X-X-X-X-X-X-X-X-X-X-X-X-X-X-X",
"-X-X-X-X-X-X-X-X-X-X-X-X-X-X-X-XH ~ ~ ~ ~ ~ ~ ~ ^ F -X-X-X-X-X-X-X-X-X-X-X-X-X-X-X-X-X-X-X",
"-X-X-X-X-X-X-X-X-X-X-X-X-X-X-XW ) +.+.+.+.| +.+.| I I -X-X-X-X-X-X-X-X-X-X-X-X-X-X-X-X-X-X",
"-X-X-X-X-X-X-X-X-X-X-X-XS I { 2.G.K.K.K.K.K.K.K.F.*.+.~ -X-X-X-X-X-X-X-X-X-X-X-X-X-X-X-X-X",
"-X-X-X-X-X-X-X-X-X-X-XK ! | ;.~.).).).).`.).).)./.J.>.} } -X-X-X-X-X-X-X-X-X-X-X-X-X-X-X-X",
"-X-X-X-X-X-X-X-X-X-XS Q ,.J./..XOXOXOXOXOXOXOXOXoX/.I.>.} [ -X-X-X-X-X-X-X-X-X-X-X-X-X-X-X",
"-X-X-X-X-X-X-X-X-X-XU | H.^..X.XOXOXOXOXOXOXOXOXOX_./.J.>.#.[ -X-X-X-X-X-X-X-X-X-X-X-X-X-X",
"-X-X-X-X-X-X-X-X-X-X[ *.W.`.OXOXOXOXOXOXOXOXOXOXOXOX`.W.H.=.[ [ -X-X-X-X-X-X-X-X-X-X-X-X-X",
"-X-X-X-X-X-X-X-X-XG +.7.E.`.OXOXOXOXOXOXOXOXOXOXOXOX`.W.E.F.} ~ -X-X-X-X-X-X-X-X-X-X-X-X-X",
"-X-X-X-X-X-X-X-XH E *.J.W.(..XoXOXOXOXOXOXOXOXOXOX_.).W.W.J.| ~ -X-X-X-X-X-X-X-X-X-X-X-X-X",
"-X-X-X-X-X-X-X-X[ { G.W.W.W.^..XOXOXOXOXOXOXOXOX.X^.W.W.W.J.{ [ -X-X-X-X-X-X-X-X-X-X-X-X-X",
"-X-X-X-X-X-X-X-X~ { G.W.W.W.^.(.`.).).`.).).).).(.^.W.W.W.J.{ ~ -X-X-X-X-X-X-X-X-X-X-X-X-X",
"-X-X-X-X-X-X-X-X~ { F.W.W.W.W.W.W.W.W.W.W.W.W.W.^.W.W.W.W.J.{ [ -X-X-X-X-X-X-X-X-X-X-X-X-X",
"-X-X-X-X-X-X-X-X~ { G.W.W.W.W.W.W.W.W.W.W.W.W.W.W.W.W.W.^.G.{ ~ -X-X-X-X-X-X-X-X-X-X-X-X-X",
"-X-X-X-X-X-X-X-X[ { G.W.~.J.4.4.J.W.W.W.W.A. . . ...A.E.W.J.| ~ -X-X-X-X-X-X-X-X-X-X-X-X-X",
"-X-X-X-X-X-X-X-X~ { G.^.W.*.[ [ *.E.W.W.W. .@ @ % - ( W.W.J.O.~ -X-X-X-X-X-X-X-X-X-X-X-X-X",
"-X-X-X-X-X-X-X-X[ [ G.K.=.;.4.4.5.6.Y.W.^. .+ ` m.: Y W.W.J.| ~ -X-X-X-X-X-X-X-X-X-X-X-X-X",
"-X-X-X-X-X-X-X-X^ ~ 4.5.[ 1.W.W.P.3.P.W.~...& C.}.j Y W.W.J.| ~ -X-X-X-X-X-X-X-X-X-X-X-X-X",
"-X-X-X-X-X-X-X-XF K %.&.[ 1.W.W.W.Q.E.W.W.-.1 T.}.f Y W.W.J.{ ~ -X-X-X-X-X-X-X-X-X-X-X-X-X",
"-X-X-X-X-X-X-X-X-XG } } [ ;.W.W.W.W.W.W.W.A.] `.}.9.V X.L.L.{ ~ -X-X-X-X-X-X-X-X-X-X-X-X-X",
"-X-X-X-X-X-X-X-X-X-X[ ~ [ ;.W.W.W.W.W.W.W.W.W.+X@Xs.8., X.J.O.~ -X-X-X-X-X-X-X-X-X-X-X-X-X",
"-X-X-X-X-X-X-X-X-X-X-X~ [ +.*.6.K.W.W.W.W.W.W.). XN.M.X.L.L.Q H -X-X-X-X-X-X-X-X-X-X-X-X-X",
"-X-X-X-X-X-X-X-X-X-X-X-XW W Q ] -.Z.Z.D.E.W.W.W.^.~.W.W.U.:.L -X-X-X-X-X-X-X-X-X-X-X-X-X-X",
"-X-X-X-X-X-X-X-X-X-X-X-Xy y y g h h h C D.W.W.W.W.W.W.W.;.{ -X-X-X-X-X-X-X-X-X-X-X-X-X-X-X",
"-X-X-X-X-X-X-X-X-X-X-Xy j C i.i.i.i.v i ` o.A.4.4.1.;.-.$.-X-X-X-X-X-X-X-X-X-X-X-X-X-X-X-X",
"-X-X-X-X-X-X-X-X-X-X8 f ^ S.OXOXOXOXd.8 8 j ~ ~ [ [ U S -X-X-X-X-X-X-X-X-X-X-X-X-X-X-X-X-X",
"-X-X-X-X-X-X-X-X-X-Xu Y 2.~.OXOXOXOXT.' v b z B z j P E J -X-X-X-X-X-X-X-X-X-X-X-X-X-X-X-X",
"-X-X-X-X-X-X-X-X-X-XG _ E.).oXoX.X.X(.D.Z c m m c w j [ E K -X-X-X-X-X-X-X-X-X-X-X-X-X-X-X",
"-X-X-X-X-X-X-X-X-X-X^ $.E.^.(./././.^.Z.n c y.y.M q l ,.#.@.J -X-X-X-X-X-X-X-X-X-X-X-X-X-X",
"-X-X-X-X-X-X-X-X-X-XO.*.H.Y.W.W.W.W.P.Z.h c p.p.y.q l >.>.+.J S -X-X-X-X-X-X-X-X-X-X-X-X-X",
"-X-X-X-X-X-X-X-X-X-X>.>.>.H.W.W.W.W.6.$.h c p.p.y.q l >.>.#.J S -X-X-X-X-X-X-X-X-X-X-X-X-X",
"-X-X-X-X-X-X-X-X-X} 5.I.I.H.6.6.6.6.&.! y q M y.M q l >.>.+.G S -X-X-X-X-X-X-X-X-X-X-X-X-X",
"-X-X-X-X-X-X-X-X~ { G.W.^.I.3.>.>.,.} W g q c y.M q l >.,.O.G S -X-X-X-X-X-X-X-X-X-X-X-X-X",
"-X-X-X-X-X-X-X-X~ { G.^.W.E.P.3.%.} [ ) n c c m c w l ,.#.! F S -X-X-X-X-X-X-X-X-X-X-X-X-X",
"-X-X-X-X-X-X-X-X~ { G.W.W.W.E.H.<.#.~ L n c c c q e g R E I F -X-X-X-X-X-X-X-X-X-X-X-X-X-X",
"-X-X-X-X-X-X-X-X[ { G.W.W.W.W.W.P.>.! k b c c q 8 8 $ . 2 S -X-X-X-X-X-X-X-X-X-X-X-X-X-X-X",
"-X-X-X-X-X-X-X-XJ E *.P.W.W.W.W.P.>.! P C.[.[.V.V.V.Z . * -X-X-X-X-X-X-X-X-X-X-X-X-X-X-X-X",
"-X-X-X-X-X-X-X-X-XF { =.J.Y.Q.Q.G.,.! W R.XXXXXXXXXXm.. -X-X-X-X-X-X-X-X-X-X-X-X-X-X-X-X-X",
"-X-X-X-X-X-X-X-X-X-XJ Q +.=.3.3.&.| ~ ^ ( ( ( ( ( ( k + -X-X-X-X-X-X-X-X-X-X-X-X-X-X-X-X-X",
"-X-X-X-X-X-X-X-X-X-X-XJ I ! | | / E E H F S S S A A 1 = % -X-X-X-X-X-X-X-X-X-X-X-X-X-X-X-X",
"-X-X-X-X-X-X-X-X-X-X-X-XA D S S A S S A S S S S A S S D %   -X-X-X-X-X-X-X-X-X-X-X-X-X-X-X",
"-X-X-X-X-X-X-X-X-X-X-XV.g i w ; & & - , , < S S S S S D , @ . -X-X-X-X-X-X-X-X-X-X-X-X-X-X",
"-X-X-X-X-X-X-X-X-X-X=X].p r t # o o $ $ ; 2 D S S S S A 1 * .   -X-X-X-X-X-X-X-X-X-X-X-X-X",
"-X-X-X-X-X-X-X-X-X-X=X].p r r t 6 t 5 6 7 8 , < S S S A , * .   -X-X-X-X-X-X-X-X-X-X-X-X-X",
"-X-X-X-X-X-X-X-X-X-X=X].p e.g.w.q.q.q.q.q.a 0 2 1 1 3 1 > % .   -X-X-X-X-X-X-X-X-X-X-X-X-X",
"-X-X-X-X-X-X-X-X-X-X=X].p B.&Xv.j.j.j.j.j.r.r 0 = = = = % + .   -X-X-X-X-X-X-X-X-X-X-X-X-X",
"-X-X-X-X-X-X-X-X-X-X-X|.'.*X&Xv.j.j.j.j.j.h.0.7 9 @ @ + X . -X-X-X-X-X-X-X-X-X-X-X-X-X-X-X",
"-X-X-X-X-X-X-X-X-X-X-X-X=X=X%Xc.k.j.j.j.j.h.t.0.r # o       -X-X-X-X-X-X-X-X-X-X-X-X-X-X-X",
"-X-X-X-X-X-X-X-X-X-X-X-X-X=X%Xz.t.j.j.j.k.k.k.t.0.r 4 -X-X-X-X-X-X-X-X-X-X-X-X-X-X-X-X-X-X",
"-X-X-X-X-X-X-X-X-X-X-X-X-X-X%X'.b.j.j.j.j.k.k.h.r.r 5 -X-X-X-X-X-X-X-X-X-X-X-X-X-X-X-X-X-X",
"-X-X-X-X-X-X-X-X-X-X-X-X-X-X-X=X{.k.j.j.j.j.j.j.t.5 O -X-X-X-X-X-X-X-X-X-X-X-X-X-X-X-X-X-X",
"-X-X-X-X-X-X-X-X-X-X-X-X-X-X-X=X{.h.l.j.j.j.j.j.t.5 O -X-X-X-X-X-X-X-X-X-X-X-X-X-X-X-X-X-X",
"-X-X-X-X-X-X-X-X-X-X-X-X-X-X-X=X{.z.z.c.c.c.c.l.r.5 -X-X-X-X-X-X-X-X-X-X-X-X-X-X-X-X-X-X-X",
"-X-X-X-X-X-X-X-X-X-X-X-X-X-X-X-X-X@X$X#X#X#X#Xu.5 -X-X-X-X-X-X-X-X-X-X-X-X-X-X-X-X-X-X-X-X",
"-X-X-X-X-X-X-X-X-X-X-X-X-X-X-X-X-X=X=X=X=X=X=Xa.-X-X-X-X-X-X-X-X-X-X-X-X-X-X-X-X-X-X-X-X-X",
"-X-X-X-X-X-X-X-X-X-X-X-X-X-X-X-X-X-X-X-X-X-X-X-X-X-X-X-X-X-X-X-X-X-X-X-X-X-X-X-X-X-X-X-X-X",
"-X-X-X-X-X-X-X-X-X-X-X-X-X-X-X-X-X-X-X-X-X-X-X-X-X-X-X-X-X-X-X-X-X-X-X-X-X-X-X-X-X-X-X-X-X",
"-X-X-X-X-X-X-X-X-X-X-X-X-X-X-X-X-X-X-X-X-X-X-X-X-X-X-X-X-X-X-X-X-X-X-X-X-X-X-X-X-X-X-X-X-X"
};
