/* XPM */
static char *_5c2cc4e1f1d475582aaadba18fc8066Ybj3aKdcSenYYMH5[] = {
/* columns rows colors chars-per-pixel */
"96 96 13 1 ",
"  c None",
". c #010000",
"X c #0D0A17",
"o c #2F1418",
"O c #6F221B",
"+ c #56312B",
"@ c #0F1F46",
"# c #415163",
"$ c #C85B24",
"% c #FF8B2A",
"& c #FFC622",
"* c #BE9575",
"= c #CEC7C2",
/* pixels */
"                                                                                                ",
"                                                                                                ",
"                                                                                                ",
"                                                                                                ",
"                                                                                                ",
"                                                                                                ",
"                                                                                                ",
"                                                                                                ",
"                                                                                                ",
"                                                                                                ",
"                                                                                                ",
"                                                                                                ",
"                                                                                                ",
"                                                                                                ",
"                                                                                                ",
"                                                                                                ",
"                                                                                                ",
"                                                                                                ",
"                                                                                                ",
"                                                                                                ",
"                                                                                                ",
"                                                                                                ",
"                                                                                                ",
"                                                                                                ",
"                                                                                                ",
"                                                                                                ",
"                                                                                                ",
"                                                                                                ",
"                                                                                                ",
"                                                                                                ",
"                                                                                                ",
"                                                                                                ",
"                                                                                                ",
"                                                                                                ",
"                                                                                                ",
"                                                                                                ",
"                                                                                                ",
"                                                                                                ",
"                                                                                                ",
"                                                                                                ",
"                                                                                                ",
"                                                                                                ",
"                                                                                                ",
"                                                                                                ",
"                                                                                                ",
"                                                                                                ",
"                                                                                                ",
"                                                                                                ",
"                                                                                                ",
"                                                                                                ",
"                                                                                                ",
"                                                                                                ",
"                                                                                                ",
"                                                                                                ",
"                                                                                                ",
"                                                                                                ",
"                                                                                                ",
"                                                                                                ",
"                                                                                                ",
"                                                                                                ",
"                                                                                                ",
"                                                                                                ",
"                                                                     .....                      ",
"                                                                    .ooooo.                     ",
"                                                                   .ooooooo.                    ",
"                                                                   .ooo...*.                    ",
"                                                                   .oo.*==*.                    ",
"                                                                   .o.**++*.                    ",
"                                                                   ..******.                    ",
"                                                             ...... .****oo.                    ",
"                                                           ..&&&.&&.*.**oOO                     ",
"                                                         ..&&&&&&.&.*****oo.                    ",
"                                                       ..&&&&&&&&&.$.**.***.                    ",
"                                                      .&&&&&&&.&&&.$.*. ...                     ",
"                                                     .&&&&&&&&.&&%.$..                          ",
"                                                   ..&&&&&&&&&.&%.$$.                           ",
"                                                 ..&&&&&&&&&&%.&%.$..                           ",
"                                               ..@...%%%&&&%%%.&%.$..                           ",
"                                             ...@@###..$%%%%%$.&%..%.                           ",
"                                            .#.@@@@@###.$%%%$..&%.$%.                           ",
"                                           .#@.X@@@@@###.$$$. .&%.$%.                           ",
"                                          .#@@.XX@@@@@##.$$.  .&%.$%.                           ",
"                                         .#@@XX.XX@@@@@##..   .&%.$%.                           ",
"                                        .#@@XXXX.XX@@@@###.   .&%.$%.                           ",
"                                       .#@@XXXXX...X@@@@##.   .&%.$%.                           ",
"                                      .#@@XXXXX..  .X@@@###.  .&%.$$%.                          ",
"                                     .#@@XXXX..     .X@@@##.  .&%..$$%.                         ",
"                                    .#@@XXX..        .X@@@##. .&%. .$$%.                        ",
"                                 ...#@XXX..           .XX@##. .&%.  .$$.                        ",
"                               ..*.#@XX..   .............X@##....    ..+.                       ",
"                              .***+.X..     .************.X##..*.     .+*.                      ",
"                             .**+++..       .***....++++.X.##..*.      .+*.                     ",
"                            .*++...         .**.    ....@@@@#..*.       .+.                     ",
"                           .*+..           .**.        ..@@@. .*.       .+.                     ",
"                          .*+.             .*.           ...  .**.      .+*.                    ",
"                         .*+..             .**.               .**.      .+*.                    "
};
