/* XPM */
static char *_c5415c47ffe40558191b7e11138a251Et17XHL1BJreQJoE[] = {
/* columns rows colors chars-per-pixel */
"96 96 13 1 ",
"  c None",
". c #010000",
"X c #0D0A17",
"o c #2F1418",
"O c #6F221B",
"+ c #56312B",
"@ c #0F1F46",
"# c #415163",
"$ c #C85B24",
"% c #FF8B2A",
"& c #FFC622",
"* c #BE9575",
"= c #CEC7C2",
/* pixels */
"                                                                                                ",
"                                                                                                ",
"                                                                                                ",
"                                                                                                ",
"                                                                                                ",
"                                                                                                ",
"                                                                                                ",
"                                                                                                ",
"                                                                                                ",
"                                                                                                ",
"                                                                                                ",
"                                                                                                ",
"                                                                                                ",
"                                                                                                ",
"                                                                                                ",
"                                                                                                ",
"                                                                                                ",
"                                                                                                ",
"                                                                                                ",
"                                                                                                ",
"                                                                                                ",
"                                                                                                ",
"                                                                                                ",
"                                                                                                ",
"                                                                                                ",
"                                                                                                ",
"                                                                                                ",
"                                                                                                ",
"                                                                                                ",
"                                                                                                ",
"                                                                                                ",
"                                                                                                ",
"                                                                                                ",
"                                                                                                ",
"                                                                                                ",
"                                                                                                ",
"                                                                                                ",
"                                                                                                ",
"                                                                                                ",
"                                                                                                ",
"                                                                                                ",
"                                                                                                ",
"                                                                                                ",
"                                                                                                ",
"                                                                                                ",
"                                                                                                ",
"                                                                                                ",
"                                                                                                ",
"                                                                                                ",
"                                                                                                ",
"                                                                                                ",
"                                                                                                ",
"                                                                                                ",
"                                                                                                ",
"                                                                                                ",
"                                                                                                ",
"                                                                                                ",
"                                                                                                ",
"                                                                                                ",
"                                                                                                ",
"                                                                                                ",
"                                                                                                ",
"                                                                                                ",
"                                                                                                ",
"                                                                                                ",
"                                                                                                ",
"                                                                                                ",
"                                                                                                ",
"                                                                                                ",
"                                                                                                ",
"                                                             .....                              ",
"                                                            .ooooo.                             ",
"                                                           .ooooooo.                            ",
"                                      .....                .ooo...*.                            ",
"                                    ..#.&&&..              .oo.*==*.                            ",
"                                   .###.&&&&&..            .o.**++*.                            ",
"                                  .###@@.&&&&&&...         ..******.                            ",
"                                  .##@@@.%&&&&&&&&....      .****oo.                            ",
"                                 .##@@@@.%%&&&&&&&&&&&......*.**oOO                             ",
"                                 .##@@@@.$%%&&&&&&&&&&&&&&&.*****oo.                            ",
"                                 .#@@@@X.$%%%%&&&&&&&&.&&&.&.**.***.                            ",
"                                 .#@@@X.$$$$%%%%%&&&&&.&&&.&.*. ...                             ",
"                                .##@@XX.$$$$$%%%%%%%..&&&%.%%.                                  ",
"                                .##@@XX...$$$$$%%%..&&&%%.$$.                                   ",
"                                .#@@@X.XX...$$$$..&&&%%..$$..                                   ",
"                   ........     .#@@XX.XX.  ....&&&%%..$$$.$%.                                  ",
"                  .********.... .#@@X.XXX.    .&&%%..$$$...$$%.                                 ",
"                 .***...*******.##@XX.XXX.   .&%%%......   .$$%.                                ",
"                .***.   ...***.##@@X.XXX.   .&%%..          .$$%..                              ",
"                .**.       ...@@@@XX.XXX.  .&%%.             .$$%%..                            ",
"                .*.      ..*++..@XX.XXX.  .*...               ..$$%%..                          ",
"                 .       .*++..........  .**.                   .$$$$$..                        ",
"                        .*+..           .**.                     ..$$.**..                      ",
"                        .+.            .**.                        .....**...                   ",
"                       .+.             .*.                              .*.....                 ",
"                       .*+.            .**.                              .    .                 "
};
