/* XPM */
static char *d40778c0b58f42129a9f57ae0cd76ffb3tRTbCXNKQD9pWen[] = {
/* columns rows colors chars-per-pixel */
"96 96 13 1 ",
"  c None",
". c #010000",
"X c #0D0A17",
"o c #2F1418",
"O c #6F221B",
"+ c #56312B",
"@ c #0F1F46",
"# c #415163",
"$ c #C85B24",
"% c #FF8B2A",
"& c #FFC622",
"* c #BE9575",
"= c #CEC7C2",
/* pixels */
"                                                                                                ",
"                                                                                                ",
"                                                                                                ",
"                                                                                                ",
"                                                                                                ",
"                                                                                                ",
"                                                                                                ",
"                                                                                                ",
"                                                                                                ",
"                                                                                                ",
"                                                                                                ",
"                                                                                                ",
"                                                                                                ",
"                                                                                                ",
"                                                                                                ",
"                                                                                                ",
"                                                                                                ",
"                                                                                                ",
"                                                                                                ",
"                                                                                                ",
"                                                                                                ",
"                                                                                                ",
"                                                                                                ",
"                                                                                                ",
"                                                                                                ",
"                                                                                                ",
"                                                                                                ",
"                                                                                                ",
"                                                                                                ",
"                                                                                                ",
"                                                                                                ",
"                                                                                                ",
"                                                                                                ",
"                                                                                                ",
"                                                                                                ",
"                                                                                                ",
"                                                                                                ",
"                                                                                                ",
"                                                                                                ",
"                                                                                                ",
"                                                                                                ",
"                                                                                                ",
"                                                                                                ",
"                                                                                                ",
"                                                                                                ",
"                                                                                                ",
"                                                                                                ",
"                                                                                                ",
"                                                                                                ",
"                                                                                                ",
"                                                                                                ",
"                                                                                                ",
"                                                                                                ",
"                                                                                                ",
"                                                                                                ",
"                                                                                                ",
"                                                                                                ",
"                                                                                                ",
"                                                                                                ",
"                                                                                                ",
"                                                                                                ",
"                                                                                                ",
"                                                                                                ",
"                                                                                                ",
"                                                                                                ",
"                                                                                                ",
"                                                                  .....                         ",
"                                                                 .ooooo.                        ",
"                                                                .ooooooo.                       ",
"                                                                .ooo...*.                       ",
"                                                                .oo.*==*.                       ",
"                                                                .o.**++*.                       ",
"                                                           .......******.                       ",
"                                                         ..&&&&&..****oo.                       ",
"                                                   ......&&&&&&&.*.**oOO                        ",
"                                              .....&&&&&&&&&.&&.******oo.                       ",
"                                           ...&&&&&&&&&&&&&%.&&&.***.***.                       ",
"                                         ..&&&&&&&&&&&&&&&%%.&&&.**. ...                        ",
"                                        .&&&&&&&&&&&&&&&&%%.&&&%...                             ",
"                                       ....%%&&&&&&&&&&%%%$.&&%.$%.                             ",
"                                      .###@.$%%%&&&%%%%%$$.&&%.$%.                              ",
"                                      .##@@@.$$%%%%%$$$$$.&&%.$%.                               ",
"                                     .##@@@@X.$$$$$$$$...&&%.$%.                                ",
"                                     .#@@@@XX..$$$$$$. .&&%.$%.                                 ",
"                                    .##@@@XX..X...... .&&%.$%.                                  ",
"                                    .#@@@XX..XXXXX@@. .&%.$$..                                  ",
"                                   .##@@XX..XXXXXXX@. .&%.$$%%.                                 ",
"                      ...........  .#@@XX.  ..XXXXX@@..&%..$$%%.                                ",
"                     .***********..##@XX.     ...XXX@..&%. ..$%..                               ",
"                    .***....*****.##@XX.     ..XX.XX@..&%.   ..++..                             ",
"                   .***.    ..**.##@XX.     .*+.X@.X.  ...     ..++.                            ",
"                   .**.       ..@@@XX.     .*+++.@..   .*.       .++..                          ",
"                   .*.          .@XX.     .*++....     .**.       .+++.                         ",
"                    .            ...    ..*+..          .**.      ....+.                        ",
"                                       .**+.            .***.     .   ..                        ",
"                                      .*++.              .***.                                  "
};
