/* XPM */
static char *af6364e4ea8b4e5487cc47bd7b054a18P3A2sCGfnSaGMFVr[] = {
/* columns rows colors chars-per-pixel */
"60 60 140 2 ",
"   c None",
".  c #6C3909",
"X  c #733D02",
"o  c #723E08",
"O  c #7E4603",
"+  c #824605",
"@  c #834905",
"#  c #874E0C",
"$  c #905407",
"%  c #A65906",
"&  c #AD5D03",
"*  c #AE5F09",
"=  c #B15E03",
"-  c #A06009",
";  c #AE6D0F",
":  c #B76405",
">  c #BA6404",
",  c #B6640B",
"<  c #BD660A",
"1  c #B36F09",
"2  c #BF7008",
"3  c #C36705",
"4  c #C36B06",
"5  c #CE6E04",
"6  c #C3690B",
"7  c #D16F05",
"8  c #C27006",
"9  c #CA7607",
"0  c #C37408",
"q  c #CE7608",
"w  c #C17A0A",
"e  c #CD7B09",
"r  c #D27206",
"t  c #DD7605",
"y  c #D27A07",
"u  c #DC7B07",
"i  c #D7760C",
"p  c #D27C08",
"a  c #E07705",
"s  c #E47C05",
"d  c #E97C04",
"f  c #E57C0B",
"g  c #E97E08",
"h  c #CA830B",
"j  c #D68409",
"k  c #DB8409",
"l  c #D3880D",
"z  c #DE890C",
"x  c #E48207",
"c  c #EC8506",
"v  c #EC8B07",
"b  c #E4830C",
"n  c #E38D0A",
"m  c #EC8B0A",
"M  c #F08E08",
"N  c #E7910A",
"B  c #EC9209",
"V  c #E49C0E",
"C  c #EB9A0C",
"Z  c #F69A07",
"A  c #F49408",
"S  c #F59C0A",
"D  c #F99F09",
"F  c #F29813",
"G  c #DBA211",
"H  c #DDAA13",
"J  c #EDA20D",
"K  c #E9AC0F",
"L  c #FEA606",
"P  c #F6A30B",
"I  c #FBA50A",
"U  c #F6AB0C",
"Y  c #FEAA0B",
"T  c #F7B10E",
"R  c #FDB20C",
"E  c #FDBC0E",
"W  c #E4A510",
"Q  c #E2AD13",
"!  c #FBAA12",
"~  c #F2AC18",
"^  c #FEAF1C",
"/  c #E3B312",
"(  c #EDB511",
")  c #E7BC13",
"_  c #ECBC13",
"`  c #F4B410",
"'  c #FCB212",
"]  c #F3B811",
"[  c #FCBE10",
"{  c #FCB41D",
"}  c #F8A920",
"|  c #FCB324",
" . c #FCBC24",
".. c #FEB528",
"X. c #FDC10F",
"o. c #F6C313",
"O. c #FCC511",
"+. c #F7CB14",
"@. c #FBCB13",
"#. c #FCD415",
"$. c #FFDE15",
"%. c #FEDE1A",
"&. c #FFE116",
"*. c #FCD625",
"=. c #FEDE23",
"-. c #FBD32E",
";. c #FCCE3C",
":. c #FBD63C",
">. c #FCDD3D",
",. c #FEE02D",
"<. c #FDE034",
"1. c #FDE23D",
"2. c #FBBF45",
"3. c #FCC34B",
"4. c #FDDB42",
"5. c #FAD159",
"6. c #FDE242",
"7. c #FDE249",
"8. c #FDE353",
"9. c #FDE45B",
"0. c #FBCF69",
"q. c #FCD370",
"w. c #FBD67A",
"e. c #FCDA7E",
"r. c #FDE464",
"t. c #FDE56D",
"y. c #FDE574",
"u. c #FDE679",
"i. c #FCDA85",
"p. c #FDE481",
"a. c #FEE788",
"s. c #FEE88E",
"d. c #FDE495",
"f. c #FEE895",
"g. c #FDE49B",
"h. c #FEE99D",
"j. c #FDE6A2",
"k. c #FEEAA6",
"l. c #FFEBAD",
"z. c #FFEBB1",
/* pixels */
"                                                                                                                        ",
"                                                                                                                        ",
"                                                                                                                        ",
"                                                                                                                        ",
"                                            d d d d d d d g g d d d d d g d d u                                         ",
"                                          g d d d d d d d d d d d d d d d d s 3 *                                       ",
"                                        g d d d d d d d d d d d d d d d d d 3 & ,                                       ",
"                                f g g g d d d d d d d d d d d d d d d d s 3 & > a d g g s 6                             ",
"                              f d c A Z A A A A A A A A A A A A A A A A y & : t d d d d 3 *                             ",
"                            f d d c I I Y Y Y Y I L Y Y Y Y Y Y Y Y Y Y y : t d d d d 3 = >                             ",
"                          b d d d c ! ! Y ' ! Y I I Y Y Y L Y Y I Y Y Y j t d d d d 3 & > t d 7 ,                       ",
"                          S I I D } w.i.i.i.e.-.#.#.#.#.#.#.#.#.#.+.#.#.T D D D Z k = > t d 7 = *                       ",
"                      f A Y I I L ..j.l.l.l.k.1.$.$.&.$.$.$.&.$.$.$.$.$.O.I I I I n > t d r = = r f i                   ",
"                    m c F ....' R  .p.s.s.s.a.<.$.$.$.$.$.$.$.$.$.$.$.$.O.Y E R E C s c r = = r d t >                   ",
"                    I I 2.j.g.>.#.$.=.=.%.=.&.&.$.$.$.$.$.$.$.$.$.$.$.$.$.$.$.$.$.O.I Y 9 = r d a > &                   ",
"                    Y L 3.l.k.6.$.$.$.$.&.$.$.$.&.$.$.$.$.&.$.$.$.$.$.$.$.$.$.$.$.@.I I 9 5 d t > * &                   ",
"                    3.3.5.t.t.<.$.$.$.$.$.$.$.$.+.o.+.#.o.@.$.&.$.$.$.$.$.$.$.$.$.#.E E C M v > & & &                   ",
"              ! I { g.l.t.$.$.$.$.$.$.$.$.$.&.+.B s l S x h #.$.$.$.$.$.$.$.$.$.$.$.$.$.E Y P : & & =                   ",
"              ! I { d.l.t.$.$.%.&.$.&.$.$.$.$.[ I j e I N w #.&.$.$.$.$.$.$.$.$.$.$.&.$.E Y P : & = 7 d u <             ",
"              ! I ' 4.7.<.$.%.9.u.r.&.$.$.&.$.E I k p I N 2 $.&.$.$.$.$.$.$.$.$.$.$.$.$.E I S : = 5 d t > *             ",
"              Y Y R #.&.$.$.$.u.z.f.=.+.+.+.+.E Y j j Y n w o.+.$.$.$.$.$.$.$.$.$.$.$.$.E L S : 5 d t > & &             ",
"              | { { #.$.$.$.&.t.h.u.~ c c c c D Y n n Y V y c y o.&.$.$.$.$.$.$.$.$.$.$.X.Y P y d s > & & &             ",
"          ! ! 0.g.u.&.&.$.$.$.,.=.*.Y I L I L Y Y L I Y I I S 8 ) &.$.$.$.$.$.$.$.$.$.$.#.#.#.L L z & & & &             ",
"          Y I q.l.f.,.$.$.$.$.$.%.#.Y I I I I I Y Y I Y I I I 8 V T _ $.$.$.$.$.$.$.$.$.&.&.#.R I z & & & *             ",
"          Y Y q.l.f.=.$.$.$.$.$.&.#.E E R Y I C U E E E E E T n v x w #.&.&.$.$.$.$.$.$.$.$.#.R I n & & = *             ",
"          Y Y q.z.f.=.%.$.$.$.$.$.$.$.$.X.I I 8 / $.$.$.#.%.#.R Y N w #.$.&.&.$.$.$.$.$.$.$.#.Y Y z & & & &             ",
"          Y Y q.l.f.&.$.$.$.$.$.$.$.$.&.@.I I 8 / &.$.$.$.$.$.R Y N 2 $.&.$.$.$.&.$.$.$.$.$.#.R Y z * & & &             ",
"          Y Y ;.9.8.&.$.$.$.&.$.$.$.&.&.O.Y I 8 / &.$.$.%.$.$.R Y V 2 #.$.$.$.$.$.$.$.$.$.$.#.R Y z & & & *             ",
"          ! I @.$.$.$.$.$.$.&.$.$.$.$.&.O.Y Y 2 Q #.#.#.#.#.+.R R N w #.$.$.$.$.$.$.$.$.$.&.#.Y I z & & & &             ",
"          Y I @.$.$.$.$.$.$.$.$.$.$.$.$.O.Y L y x v v v v v m S L V H $.$.$.$.$.$.$.$.$.$.$.#.R Y z & & & &             ",
"          Y Y @.&.$.$.$.$.$.$.$.$.$.$.&.O.Y I I D S I D D L S e ) #.$.$.$.$.$.$.$.$.$.$.&.&.#.Y Y z & & & &             ",
"          Y I @.&.$.$.$.$.$.$.$.$.$.$.$.O.Y Y Y I I Y I I I P 2 W X.o.$.$.$.$.$.$.$.$.&.&.&.#.R Y z & & & *             ",
"          Y Y @.&.&.$.$.$.$.$.$.$.$.&.&.O.L I P U R T R R E U k c x h #.$.$.$.$.$.$.$.$.$.$.#.R Y z : & & &             ",
"          Y I @.&.$.$.$.$.$.$.$.$.$.$.$.O.Y L 0 / $.$.$.#.$.#.Y Y n 2 #.&.$.$.$.$.$.$.$.$.&.#.Y Y z & & & &             ",
"          Y I @.$.$.$.$.$.$.&.$.$.$.$.$.O.Y Y 2 / &.$.$.$.$.$.R Y N w %.$.$.$.$.$.$.$.$.$.$.#.R Y z & = & &             ",
"          Y Y @.$.$.$.&.$.$.$.$.$.$.$.&.O.Y L 8 / $.$.$.$.$.$.R Y V 2 #.&.$.$.$.$.&.$.$.$.$.#.R I z & & & &             ",
"          Y I @.&.$.$.&.$.$.$.$.$.$.$.#.O.I L 8 Q $.#.#.$.#.#.R Y N 2 #.&.&.$.$.$.$.$.$.$.$.#.R Y z & & & ,             ",
"          Y I @.$.$.$.$.$.$.&.$.$.$.] B S I L q x B B B B B B I Y C G $.$.&.$.$.$.$.$.$.$.$.#.R Y z & & &               ",
"          Y Y @.$.$.$.$.$.$.$.$.$.#.P Z I I Y P Z Z S Z D Z Z e ( +.%.&.$.$.$.$.&.$.$.$.$.&.#.R Y z & *                 ",
"          Y Y @.&.$.$.$.$.$.$.$.$.#.R Y Y I Y L I Y Y Y Y Y I 2 ) &.$.$.$.$.$.&.$.$.$.$.$.&.#.L I n %                   ",
"          ! Y @.#.#.$.$.$.$.$.$.$.#.R R R R R L I L I Y I P U G #.&.$.$.$.$.$.$.$.$.$.$.#.#.#.J C e @                   ",
"              R R E $.$.$.$.$.$.$.$.#.$.#.#.#.E Y z j Y N h #.$.&.$.$.$.$.$.$.$.$.$.$.$.X.R J $ @ O X                   ",
"              ! L R #.&.$.$.$.$.$.$.$.$.$.$.$.X.Y j y I n w $.$.$.$.$.$.$.$.$.$.$.&.$.$.E L C + X X o                   ",
"              ! Y Y #.$.$.$.$.$.$.$.$.$.$.$.$.X.Y j h Y N w #.$.$.&.$.$.$.$.%.1.1.<.&.$.E Y C @ X o                     ",
"              ! Y R #.$.$.$.$.$.$.$.$.$.$.$.&.X.R V K R V / $.$.$.$.$.$.$.$.,.f.l.y.%.$.E L C @ o                       ",
"              ! Y R #.$.$.$.$.$.$.$.$.$.$.$.&.#.#.#.$.#.#.$.$.$.$.$.$.$.$.$.&.f.l.y.%.$.E Y C #                         ",
"                    X.X.@.$.$.$.$.$.$.$.$.$.$.$.$.$.$.$.$.$.$.$.$.$.$.$.$.$.%.7.8.:.X.[ h 1                             ",
"                    Y L X.$.$.$.$.$.$.&.$.$.$.$.&.$.$.$.$.$.$.$.$.&.$.$.$.$.%.$.&.@.I Y - .                             ",
"                    ! Y [ $.$.#.$.$.$.$.$.$.$.$.$.$.$.$.$.$.$.$.$.$.$.$.$.#.$.$.%.+.Y Y ;                               ",
"                          R R R T ' $.$.$.$.$.$.$.$.$.$.$.$.$.$.$.$.$.$.o.R E Y R '                                     ",
"                          Y Y Y I R $.$.&.#.$.$.%.%.%.%.$.%.$.%.&.$.$.$.[ Y I I Y !                                     ",
"                          Y ! Y Y ' #.#.#.#.#.#.#.#.#.#.#.#.#.#.#.#.#.#.[ Y ! Y !                                       ",
"                                    ! Y Y Y Y Y Y Y Y Y Y Y Y Y Y Y Y Y                                                 ",
"                                    Y Y Y Y Y Y Y Y Y Y Y Y Y Y Y Y Y Y                                                 ",
"                                      ! ! ! ! ! ! ! ! ! ! ! ! ! ! ! ! !                                                 ",
"                                                                                                                        ",
"                                                                                                                        ",
"                                                                                                                        ",
"                                                                                                                        ",
"                                                                                                                        "
};
