/* XPM */
static char *d5691f66e8e449cce3c5ccb481ff3c56O32oQjrhcrhqmlsO[] = {
/* columns rows colors chars-per-pixel */
"60 60 70 1 ",
"  c #563F3D",
". c #56403E",
"X c #5A413E",
"o c #4E3E46",
"O c #513F44",
"+ c #524046",
"@ c #5C4343",
"# c #554248",
"$ c #5B4549",
"% c #624642",
"& c #664845",
"* c #6B4B46",
"= c #614749",
"- c #624849",
"; c #65494A",
": c #62484C",
"> c #63484C",
", c #63494C",
"< c #694B4B",
"1 c #6B4C4A",
"2 c #6D4C49",
"3 c #6E4C48",
"4 c #6F4D48",
"5 c #6C4C4B",
"6 c #684B4D",
"7 c #6A4C4E",
"8 c #6B4C4E",
"9 c #6B4D4E",
"0 c #6E4E4E",
"q c #6E4E4F",
"w c #704D48",
"e c #704D49",
"r c #704E4B",
"t c #744F4A",
"y c #714F4D",
"u c #744F4C",
"i c #74504A",
"p c #75504A",
"a c #77514B",
"s c #72504E",
"d c #74504C",
"f c #75504C",
"g c #78514C",
"h c #78524C",
"j c #79524C",
"k c #78524D",
"l c #7D544F",
"z c #7D554F",
"x c #785352",
"c c #7B5552",
"v c #7C5451",
"b c #7C5553",
"n c #7D5553",
"m c #805650",
"M c #825751",
"N c #835852",
"B c #855852",
"V c #855952",
"C c #855853",
"Z c #865953",
"A c #845854",
"S c #865954",
"D c #875A54",
"F c #885A55",
"G c #885B56",
"H c #895B56",
"J c #8A5C55",
"K c #8B5C55",
"L c #8E5D57",
"P c #8E5E58",
/* pixels */
"oo#$<fgggfjjjfjfffjhf2;#+o++++oo#%1sgggfjjgfffjjhhfi-#++o+++",
"o+$=2fggjjfffjfjjjhhi2;$++++++++$-7sgggggffjjfjfjff2;$+++++o",
"#$$;2fggffjfffjjgjfjfs7-$#+++#+#$;qfgggifgfjjjfjjjfs6-$###++",
"==;<sffgjfjfjjffffggfisq6:$####$;2ifigggjjfgffjjgfffsq7$$#+o",
"122fifggffjjjffjjfsjfjinxq:###::qifijffjffjjfjfffgighcxq=##o",
"fsfffffgjfjfjfjjjfjfhzNDDx6$#$7qfjifjfjjjjffffjffggzNDAx8$Oo",
"ffgfgfggjjfjfjffjffjhzVJDc2$#$;sfjgjfjffffjjjjfjgfgzNGGb8$oo",
"jjgggggfffjjffjffjjfhzVJDnq$#$1shhjjffjfjfjfjffjgffzVPGb8$#o",
"gjffffjjfjfjfjfjggfgglCKGnq$#$6thhfggfjjjffffgggfjgbVJGbq$Oo",
"gfjjjfjffjffjjfjfgfiglCDGn7$#$<yfjjggjffggjjjjffgigzVDGb6$oo",
"fjfjjjfjjfjjffjfggtgglVGGb6$#$<2jjjfffjjfjgfgfggffgzmGDc8$#o",
"jjffffjjjfjfjfjfgfgtglVDGb7$#$6tfjjfjfjfffjfgjfggigzDDJc8$oo",
"ffjjfjfffjffjjfjggfgglCGDb7$#$<2fjjjfjfjjjffgfggffgzVJDb8$+o",
"jjffffjfffjfjfjjfgjiglCGDbq$#%<yhhgfjjffjfjjgfgffjgzVJDb8$+o",
"ffjjjjfjjjfjfjffshfjglAGGn6$$$<tfjfjffjjfjfjggfgfggzDDDb8$+o",
"jfjfjffjjffjfjjfjfjfgvADDn6$#@;tgjjfjjffjjfffggggiizADDb8$oo",
"jjjfjfffjfffffjjgffjgzVDGbq$#$<tgggiggjgffjfggffttglVGGb7$+o",
"fffjfjjjfjjjjjfffjjfgzAGDb6$#$<tggggigijjgjfgggggglMDKGb7$oo",
"jffjfjjffjjfjfjffjijgzVDKb8$$@<tgggggfgffjfjiitgzzCCDKGb7$oo",
"jffjfjjffjjffjfjjshffzVGGv8$#$<tgggiggigjsjfgiggbmVKLLGb7$+o",
"jffjfjjfjjjfjfjjfhsjgzVDGb6$##<2ggggggigihigggglCVGKPKGx7$#o",
"fjfjfjfjfffjjfffffhfgzVGGbq$#$&3wggzllzxbbzzzzzMCGKLJDbs:$+o",
"jfjfjfjffffjjfffjjfhgzVGGv6$##$&3tlCCCDDVVVNNVVVGLLGDfq7$#+o",
"fjjfjffjjjfjfjjjjfhigzNGGvq$+O %&wlDGKJDJDJGGGGGLLLVgq-$#+++",
"fjjfjjjffjjffjjfggfgglVDGv8$#OO@%4zVGGJDVDGGGVDDGKGMt&@ #o++",
"fjjffffjfjfjfjjffgffglVGGb6$OOO @&tgmmmjMMlzlMMzMbzt&%@oo+++",
"jjjffffjjfjfjjjfggigglCDGv6$OooO@$&wt22t3334t33www3&%@OOo+++",
"fffjjjfjjffjfffjgfgtglVGGvq$+oO#@#@%%%%%%%%%%%%%%%%@#+OO+o++",
"jfffjffjjfjjjffgggfggzCDDbq$+oo+++X@X%%XXXX%% X%@X@@@++O++++",
"fjjjfjfjjffffgjjfggfgzCGGn7$+oo++@@%%%%%&%%%%%&%&%%%@++oo++o",
"fjjfjfjfjffffjfffjijgzAGGn6$+oo+#$&***3&&33&***&**&&$#+oo+#o",
"fjjffjjffjjjfjhfjfjfsbAGGbq#++o+#-&wttttttttiiiiiiy4-#++o#o#",
"jjjfjfjjjfjfffjffjfjfzVDGcq$o++$$;2ffjjfjfffjhfhggffq-$##+++",
"fffjjffffjfjjjjffjjfjzVGDc2$#+$$;7yfhjjhcjhjjjhhgggfsq6-$#++",
"fffjjfffffjjjjjfgffggzVDGn6$#$=;2ffggggjggggggfjggggcbxq6#+o",
"jjfjfjjjjjfffffjgfgigbVJDn9$#@;tffgggjfffgfggjfgfggzmVVx6#+o",
"jfjffjjfffjjjjjfgffgglDJGn7$O$<tgggfggfjfjjfffjjffgzDJGb7$+o",
"fjfjfjjfjjfffffjgfgfgbNGDn7$#$<tggggjfgjffjfjfjfgfgzAJJb7$+o",
"ffjjjjjfjfjffffjggigglVDGn9$#$6qgggggfffjjfjfjffigglCDGbq$+o",
"jjfffffjfjfjjjfjiggtglVDGb7$$$6tggggfjjgjfjjffjjgtglVGDb7$+o",
"jfffffjjfjjfjjjfjgfjfbVGGb7$#$<qfhggfjjfffjjffjjgfgzVJGb7$oo",
"fjjjjjfffjjffffjfgjfgzVDGcq$#$<thjgjffjfjjffjfjfffgzVGJg7$+o",
"fjjfjfjfjjjffffjfggfgzVGVb7$#$&tfjgfjjfjffjjfjfffgglVGGn7$+o",
"fjjffjfjfffjjjfjggfggzVJGb1$#%;tfjjfjfjjjfjfffjjftgzmGGn7$+o",
"jjjfjfjjjfffjffjgffiulDGDb6$#$3tjhffjjfffjfjjjffgfgzDGDb7$#o",
"fffjjffffjjjfjfjgfgfulCDGb8$#$<2hhjjffjfjjffjfjjifgzAGGn7$oo",
"fffjjffffjjfjfjfgggggzADGn8$#$<qfhggfjfjffjjfjfjugubADGx7$#o",
"jjfjfjjjfjjffjjffggggmDGGn8$#$<tjhjfjjffjjffjjffggvmDGGn7$oo",
"jjggigffgtgffgfgiggzMVGLGn7$#$<tgjggfjfhgtggfigggbMVGLGbq$Oo",
"jfgggifjtgigffgigglMVDLLGc2$#$<ufjjijfjsggiftgtgbVDDLLGb7$O+",
"iiiggfjjgggggggfgzCVGLLLJc;$#$<yfggfgggggigiggglMDDLLLGx7$+o",
"ssiigzzzllllzzzzbmCGLLGVns-$#$%2fjjnzzzzlllMzzbmCDKLDVbt;#+o",
"&&2tzNVVVCCCDVADVVGLLGVgf&$#+@$&wtzbVDNNCCCCADDDGLKGCgt<$#++",
"%%&tzDGJGGGDDDDDGKLLKVvt&%@#++@@&wzAJJGJGVDDDDDJLLPVlw&@#+++",
" X%2fVGJGGDGDDDJGGVGDbt&X+ ++++X%4zVGJGGDGGGDDJDGLGmt&@ ++++",
" X@&yzzNllmzmbzzlMMMzt&@.Oo+++o+@&tzzzMblMllMbzzmzzt&@ #oo++",
"OO@$&22t2t242t44t4433&%@OOOO+o++@@&3wwwwt244t242tt<&%@+OO+++",
"O++@@%%%%%%%%%%%%%%%%@##O+++++++#@@%%%%%%%%%%%%%%%%@@++++O+o",
"O+O+.XXXXXXXXXXXXXXXX@@Oo++O++++# @ XXXXXXXXXXXXXXX@+++O+o++",
"+O#.+.                OO+++++o++O++                 +o+O++++"
};
