/* XPM */
static char *_325039831bc45ffa6321fbf544aacf3VBeiL0wSV3U9vGIW[] = {
/* columns rows colors chars-per-pixel */
"60 60 77 1 ",
"  c None",
". c #020101",
"X c #080607",
"o c #0A0907",
"O c #090708",
"+ c #0C0B0B",
"@ c #100F0E",
"# c #12110F",
"$ c #110F10",
"% c #141313",
"& c #181715",
"* c #171817",
"= c #191816",
"- c #191718",
"; c #1C1C1B",
": c #201E1E",
"> c #21211F",
", c #211F20",
"< c #242323",
"1 c #282626",
"2 c #2A2927",
"3 c #292728",
"4 c #2C2C2C",
"5 c #302E2E",
"6 c #32312F",
"7 c #343433",
"8 c #383735",
"9 c #393836",
"0 c #373738",
"q c #393738",
"w c #3C3B3B",
"e c #403F3E",
"r c #41403F",
"t c #444343",
"y c #484745",
"u c #494947",
"i c #494748",
"p c #4C4B4B",
"a c #504F4E",
"s c #52514F",
"d c #545353",
"f c #585756",
"g c #5A5957",
"h c #595758",
"j c #5C5C5B",
"k c #605F5E",
"l c #62615F",
"z c #615F60",
"x c #646363",
"c c #686765",
"v c #6A6967",
"b c #696768",
"n c #6C6C6B",
"m c #706F6D",
"M c #71706E",
"N c #716F70",
"B c #747372",
"V c #787677",
"C c #7A7977",
"Z c #797778",
"A c #7D7C7B",
"S c #807F7E",
"D c #81807E",
"F c #858482",
"G c #888785",
"H c #898887",
"J c #8C8B8A",
"K c #908E8F",
"L c #949493",
"P c #9E9E9D",
"I c #A3A3A3",
"U c #A8A7A5",
"Y c #AFAFAF",
"T c gray70",
"R c #CBCBCB",
"E c #D0D0D0",
"W c #EAEAEA",
/* pixels */
"                    m98glClmmCPUPUDg>6rD                    ",
"                   su9sDDM9lllLLLDDBSSvse                   ",
"                 pknDMrdsvaugrDMDmlsmLlvp58                 ",
"               1ujCcmCsgllsrrsDMDBleSSrDLLa7t               ",
"              8>26vMlmkdvll9rlDDBlleSmuvHLzZth              ",
"             us8=9lllmmgmllgrvDDBmlsBlrkxfbNnzs             ",
"            tulD9;rkgkclMMMg9gMmmvglMlskx0xZJNat            ",
"           upcxmk48sgklMlMlr6svlMCrlvrrkwjnNSji7t           ",
"          4idaaxvr>ekllfrr6=&6rpsk9yfukfebNnxjp;0i          ",
"          079rudks22err8>&oX.+#&;;&>69urdBBhah7,t6          ",
"         rp70wssgk6:>>::oX......X.X+%>>8BNNjai70ir6         ",
"        <4dtppgjks6=:#oXXX......X...Xo#>zxjai07txnr3        ",
"        ,*70pjccge>#@X......X..X...X.X+@4pipqq7hBHj4e       ",
"       144:;7dvlr>#o................X...%;7it7iNASnt3       ",
"       0ahi5<wdt:oX....X....X.X..X....X.OX*477zSZnxp;p      ",
"      49jNxhww0>oX.XX.....................O%-iVZjjddae      ",
"     rlgjlklft1+X..........................O,pzzhhxBb55     ",
"     9lvmAMku4*X...........................X-ekNnZSNh5,     ",
"    p8rgkmCMs>+..........................X.XX3zHKZbhdi3t    ",
"    4wusssjkw@X.............................X-iVZNNjha<;    ",
"    6ssfdffr1o..............................O@3zbNzzhd:4    ",
"   6>rrggllr=................................O:thzddt3@4z   ",
"   6=4wrdgs9#.................................&:434,%%<3e   ",
"   7>8228262.................................X@+$$-,<304w   ",
"   6=;==>>>>..................................O$%,thzzd5w   ",
"   2:>9r92>;...................................-3aZSNzd,7   ",
"   wufMnku2@...................................O,dZNbbh57   ",
"   rsggknl2.XX.................................+,dVzzza,7U  ",
"   tdkslnl>o..................................XO,pzhapt;wT  ",
"   2>>>979@.o.................................X.;00435;O5L  ",
"   CmCJJAD7...................................XXwSKFZZNhdF  ",
"   sspfkfg-....................................X0bbzzhi04b  ",
"  uipiidzj*OX...................................7djzjt0t4d  ",
"  puiipznj;OO..................................X0pddpwtp4j  ",
"  rtttdzxt%.....................................4ipiptpw<h  ",
"  4140ww7<+.....................................<0wwipiw;j  ",
"  ,+*;*:*%+....................................X;345074<7Z  ",
"  <+$+%***$.....................................$%+++$+O7P  ",
"  4$%%:;,;+X....................................;;***;*%0I  ",
"  2%*:444<+.....................................;;;575<%7I  ",
"   <47eit6%....................................X<7pxjnj70P  ",
"   57wpdhr*X....................................<txZBNbwwI  ",
"   447abnt%X....................................4dzxjpp4wI  ",
"   47thnbr%....................................X<ihdppp40P  ",
"   ;,,40w3+XX..................................X%<74443%4P  ",
"   5iiidi3+...........................X......X..<tt0wta50I  ",
"   ejzxzi4$...........................X.X.XXXOOX7jnjxhxr0P  ",
"   :3453-%@X.X............X.......XXXXXOXXOOOoO.4edadit55I  ",
"   +$,1,,:@X..............X.O.XOoO++O++++++++++X0wtptwt,5P  ",
"   -7dhddt%..........XXXXXXOO++++++++@++$$+%%++O7,<7043+0P  ",
"   7dbxxza%.OX......X..XOO++++++$$$$%%%%%%%**%++4<4444;O7P  ",
"   0iahzhe%.......XXXXOO+++++$$%$%%%%*****;;;*%%4ibdapw,wU  ",
"   ;,,343,O.XXX...OOOO++$$%%******;;;:,;<<<<<<*+%<p443,%7P  ",
"   azhnZNa,X.X..OO+OO++$%*%**;;;,<,,<<<4<<<4<<;$4jJZnnShwI  ",
"   ijzzBNa-...O++++$+%%***;;;<<<34344444444774<%<dBnxjbp0PEW",
"   tdhhhzi*X.XXO+$%%****;<<<<44445777707000000<*<tjzjpdw0IRW",
"   wdzdpzi-X.+XO+$%*;;,,<344577000000wwttttttw4;4thjjdp0wIEW",
"   4izdppq$..+@$%%**;,<4447700wwtttttttttttppp0;<0dhdtp7wIRW",
"   :0pttq3O..@$%**:,<3445000wttttppppppppdddpdw;<0ppttw<wIRW",
"   %17341;OX.+$$*:<344770wwtttpppaapdddddhddddw;44000t0*tYRW"
};
