/* XPM */
static char *_f06e35f21aa445de6d030deb6523c86ShZ8dhTRdV0AIOXo[] = {
/* columns rows colors chars-per-pixel */
"60 60 222 2 ",
"   c None",
".  c #010101",
"X  c #0A0604",
"o  c #060808",
"O  c #130B06",
"+  c #140C09",
"@  c #1B0E07",
"#  c #1C120B",
"$  c #1A1309",
"%  c #080B14",
"&  c #07141C",
"*  c #0C1114",
"=  c #22150E",
"-  c #261A0B",
";  c #2A1C0B",
":  c #2A1407",
">  c #351B0E",
",  c #3B1D0D",
"<  c #281412",
"1  c #291915",
"2  c #3C1E10",
"3  c #331D19",
"4  c #321A16",
"5  c #06241B",
"6  c #2D250C",
"7  c #3B221D",
"8  c #392414",
"9  c #3A2F0F",
"0  c #151B38",
"q  c #12142C",
"w  c #291F30",
"e  c #1D2328",
"r  c #16323E",
"t  c #0E2E2E",
"y  c #212326",
"u  c #382523",
"i  c #2B2638",
"p  c #283835",
"a  c #35322B",
"s  c #432A1C",
"d  c #452915",
"f  c #5C2F18",
"g  c #562B16",
"h  c #463513",
"j  c #503A14",
"k  c #452923",
"l  c #542F27",
"z  c #4E3121",
"x  c #55312A",
"c  c #5C342D",
"v  c #563525",
"b  c #5B3A34",
"n  c #443331",
"m  c #633A2B",
"M  c #6B3D34",
"N  c #633B34",
"B  c #7D3F20",
"V  c #0B4534",
"C  c #68561B",
"Z  c #6E4A2A",
"A  c #66452A",
"S  c #734D2C",
"D  c #7C4427",
"F  c #6C423A",
"G  c #6F4431",
"H  c #774A31",
"J  c #7F5430",
"K  c #7C5C3D",
"L  c #78502E",
"P  c #7C6721",
"I  c #173541",
"U  c #1A2250",
"Y  c #232C50",
"T  c #2A3D68",
"R  c #16534C",
"E  c #39475B",
"W  c #33494D",
"Q  c #126D58",
"!  c #13765A",
"~  c #336F56",
"^  c #294766",
"/  c #2C596C",
"(  c #3F5D66",
")  c #394872",
"_  c #314F6E",
"`  c #1A7A68",
"'  c #1B6C66",
"]  c #28636C",
"[  c #346E6D",
"{  c #4A5755",
"}  c #534F52",
"|  c #7A5644",
" . c #4C6F56",
".. c #627A51",
"X. c #485C79",
"o. c #414F77",
"O. c #685565",
"+. c #59637A",
"@. c #536870",
"#. c #757076",
"$. c #8B5C35",
"%. c #825534",
"&. c #904925",
"*. c #A6532B",
"=. c #B25A2E",
"-. c #996D25",
";. c #9A663B",
":. c #9A663A",
">. c #8F6036",
",. c #AD7D2A",
"<. c #A36D3D",
"1. c #AB6C3C",
"2. c #A8703F",
"3. c #BA6230",
"4. c #C46433",
"5. c #CF6936",
"6. c #CC6735",
"7. c #D46A35",
"8. c #EA763C",
"9. c #E4733B",
"0. c #F07A3E",
"q. c #855442",
"w. c #836A4D",
"e. c #8A7046",
"r. c #8C6951",
"t. c #A76D47",
"y. c #A67245",
"u. c #A97241",
"i. c #A77549",
"p. c #B07851",
"a. c #8F766F",
"s. c #D57D57",
"d. c #E77A47",
"f. c #FB7F41",
"g. c #07825F",
"h. c #0D8664",
"j. c #148565",
"k. c #158B6A",
"l. c #198B6B",
"z. c #198866",
"x. c #12916E",
"c. c #279374",
"v. c #35987D",
"b. c #258763",
"n. c #798176",
"m. c #B5902F",
"M. c #BEA333",
"N. c #CB9332",
"B. c #D49834",
"V. c #F78F3D",
"C. c #D9A838",
"Z. c #D8B73A",
"A. c #C1A534",
"S. c #F4AF3B",
"D. c #F5B13C",
"F. c #FCB53D",
"G. c #FCB73D",
"H. c #E7AD37",
"J. c #E8C23E",
"K. c #A49055",
"L. c #9D8B65",
"P. c #AF9468",
"I. c #AEA566",
"U. c #948753",
"Y. c #FF8343",
"T. c #FF8946",
"R. c #E98D48",
"E. c #DDA54B",
"W. c #DEB464",
"Q. c #EBBF6A",
"!. c #FBCA42",
"~. c #FFDB45",
"^. c #FCD443",
"/. c #FFE147",
"(. c #FFE348",
"). c #F0C36C",
"_. c #4A5D81",
"`. c #54698A",
"'. c #576B8A",
"]. c #576E90",
"[. c #52788D",
"{. c #676C82",
"}. c #6B7086",
"|. c #399C80",
" X c #548B8D",
".X c #4AA38B",
"XX c #55A892",
"oX c #6EB5A3",
"OX c #78BAA8",
"+X c #6E8DA0",
"@X c #9D928E",
"#X c #999A92",
"$X c #B7AB97",
"%X c #8398AC",
"&X c #92A2A3",
"*X c #9AADBA",
"=X c #B1B7B4",
"-X c #A59793",
";X c #CCB69E",
":X c #D6BEA9",
">X c #D6BDA7",
",X c #8EC4B8",
"<X c #D7C7B6",
"1X c #E0CDBD",
"2X c #A1B6C0",
"3X c #9DCCC2",
"4X c #9DD0C2",
"5X c #BCD8D7",
"6X c #ACCCCB",
"7X c #C7DCDB",
"8X c #CED4CA",
"9X c #E4D2C8",
"0X c #C9E0DC",
"qX c #D6E3D6",
"wX c #CDE3E2",
"eX c #CCE5E8",
"rX c #D3EAEB",
"tX c #D4E7E6",
"yX c #E4F2EF",
"uX c #FEFEFE",
"iX c #F3FAF9",
"pX c #F1F0EB",
/* pixels */
"                                                                                                                        ",
"                                                                                                                        ",
"                                                                                                                        ",
"                                                                                                                        ",
"                                                                                                                        ",
"                                                                                                                        ",
"                                                              . . . . . .                                               ",
"                                                            + # - 1 - 1 -                                               ",
"                                                        . + k G %.>.>.>.L - .                                           ",
"                                                        . # m t.2.2.2.u.:.A 9 +                                         ",
"                                                        . = J u.2.2.;.2.u.2.A + .                                       ",
"                                                        . = %.2.;.2.2.2.2.u.S + .                                       ",
"                                                        . - %.u.2.2.2.y.<.2.S + .                                       ",
"                                                        . # L <.;.:.:.;.<.2.S + .                                       ",
"                                                        . + 7 v v z v $.u.2.Z O .                                       ",
"                                                        . + s v v s 7 c $.<.S O .                                       ",
"                                                        . # L ;.>.M 7 3 v $.S * . . . . X .                             ",
"                                                        . O z Z m l 3 1 k $.K p r r r I r r o                           ",
"                                                        o + 1 3 3 3 3 4 s J w.'.[.[.[ / ] R 5 *                         ",
"                                                      o 0 Y w 3 3 7 3 3 s m a.=X5X6X+X] ` j.! V o                       ",
"                                                    & q 0 i 7 3 3 3 3 7 } a.;X0XrXwX#X@.~ x.k.Q V 5                     ",
"                                                  + 0 Y i 3 3 3 7 7 7 x r.9XiXtXqX6XP.e.b.z.k.x.j.t .                   ",
"                                              . < k W E i > 3 k c c N &.p.9XuXiX<XP.i.<.2...b.x.h.V .                   ",
"                                              . 1 b } / W p k l M H %.a.>XpXuXuX>Xt.:.<.1.e.~ ' V t .                   ",
"                                              . < b } ] ` ~ } $.t.y.K.:XuXuXuXuX<Xy.:.<.y.w.( I *                       ",
"                                              . < b { ` h.v.=X9X1X1X9XpXuXuXuXuX>Xy.<.<.2.| ( I o                       ",
"                                              . < c  .j.h.v.,XyXuXuXuXuXuXuXuXuX>X2.<.<.2.w.( I o                       ",
"                                              . < b ~ ` k.k.c.OXyXuXuXuXuXuXuXuX<Xu.:.<.2.w.( r o                       ",
"                                    . . . . . . = b n.oXv.h.h.v.oX0XuXuXuXuXuXyX;Xy.:.<.2.K p & . .                     ",
"                                    . X O + + + 4 M -X5XoXc.k.h.k.oXwXiXuXuXyXtX$X2.<.<.<.J ; @ $ O .                   ",
"                                    . 4 c c l l v F @X0X5X,Xv.h.j.c..X4XtXtXtX0X$Xy.<.<.<.;.$.$.J 8 .                   ",
"                                    X 7 M F M M M F @X0XrX5XOX.Xz.h.l..X,X5XtXtX$X2.<.<.<.y.u.u.y.j .                   ",
"                                    . 3 N N M M N | @X7XeXwXwX,X|.l.l.j.|.,X5X5X-Xt.:.<.<.<.<.<.$.s .                   ",
"                                      + < l M M m M @X7XrXrXtX7X3XXXj.h.l.|..X X+.E | <.1.u.u.S 8 #                     ",
"                                        X 3 k k 7 k #.*X*X*X2X5XwX3XXXc.j.` ' / T T } K S Z A s .                       ",
"                                          X . X X X Y ) o._.].+X5XwX6XXXj.] ] / / / T U * X X X                         ",
"                                                . . 0 T T T _.].+X%X%X XX.X.X._ _ / ^ U % .                             ",
"                                                : 2 b O.O.O.a.#.#.}.`.`.`.[._.) _ ^ T 0 % .                             ",
"                                              . f 5.d.d.d.d.d.R.E.L.'.'.'.'._.) ) ^ e o                                 ",
"                                              . f 0.Y.V.Y.Y.Y.T.F.E.P.I.I.I.I.K.K.U.a .                                 ",
"                                              . f 8.Y.f.Y.Y.0.R.N.N.B.J.~.~.~.~.~.!.P 6                                 ",
"                                              . f 8.Y.Y.Y.Y.Y.3.h - h M././.~.~.~.~.E.,.9 .                             ",
"                                              . f 8.Y.Y.f.Y.Y.*.O . X C m.J.~.~.~.~.!.B.d .                             ",
"                                              . f 8.Y.Y.Y.Y.Y.*.@ .   . 9 M./.~.~.~.!.N.9 .                             ",
"                                              . g 9.T.Y.Y.Y.Y.*.@     . 6 M./.~.~.~.~.Z.h .                             ",
"                                              d &.f.Y.Y.Y.0.4.B @     . 6 A./.~.~.~.(.Z.h .                             ",
"                                          . 2 4.f.f.Y.f.Y.5.d X       . 6 A./.~.~.~.(.Z.h .                             ",
"                                          . 2 7.T.Y.f.Y.Y.4.: .       . 6 m.^.~.~.~.(.Z.9 .                             ",
"                                          . 2 5.Y.Y.Y.Y.Y.4.> .         ; -.C.^.~.~.~.Z.C ;                             ",
"                                          . 2 5.Y.Y.Y.Y.Y.6.> .           $ C Z./.~.!.D.C.-.-                           ",
"                                          . 2 5.Y.Y.f.Y.T.6.> .           . h C.!.J.G.F.G.m.: .                         ",
"                                          . 2 5.Y.Y.Y.Y.0.=.> .           . h B.G.D.S.D.F.,.- .                         ",
"                                          . 2 5.Y.Y.Y.8.D 2               . h B.G.S.S.D.G.,.- .                         ",
"                                          . 2 5.Y.Y.T.9.d .               . j B.G.S.S.D.G.,.- .                         ",
"                                          . 2 5.Y.f.Y.9.g .               . h N.S.S.S.S.F.,.- .                         ",
"                                          . , 7.Y.V.Y.8.g .                 ; j -.H.F.S.F.,.- .                         ",
"                                          & n t.s.s.s.p.s .                   . A W.).Q.).K.- .                         ",
"                                        % E +.{.}.}.}.O.y .                   .  .8XqXqXqX#Xy .                         ",
"                                      . * E ].`.`.`.]._.0 .                   . @.5XeXeXrX&Xy .                         ",
"                                      . * E ].'.`.'.].X.e .                   . } 7XrXwXtX&Xy .                         "
};
