/* XPM */
static char *_8d49bfbc53747f4a155171f1f97d2c3z5OmqoL7BYy5yVHj[] = {
/* columns rows colors chars-per-pixel */
"60 60 215 2 ",
"   c #000000",
".  c #0B0303",
"X  c #040805",
"o  c #050509",
"O  c #0A050B",
"+  c #050909",
"@  c #0B0A0C",
"#  c #150507",
"$  c #140B0D",
"%  c #1E0D0C",
"&  c #1E100F",
"*  c #0E0E11",
"=  c #1C0E11",
"-  c #0F1112",
";  c #121314",
":  c #151618",
">  c #191518",
",  c #1B1B1D",
"<  c #230B0C",
"1  c #2F0E0F",
"2  c #280D10",
"3  c #291517",
"4  c #331315",
"5  c #3B1416",
"6  c #1D1E21",
"7  c #221F24",
"8  c #1F2023",
"9  c #222225",
"0  c #27272B",
"q  c #2B2B2D",
"w  c #372629",
"e  c #2D2E33",
"r  c #302F34",
"t  c #2E3337",
"y  c #333335",
"u  c #353539",
"i  c #38383B",
"p  c #3B3B3E",
"a  c #410F10",
"s  c #46181A",
"d  c #591A1A",
"f  c #671B1D",
"g  c #72191D",
"h  c #57221B",
"j  c #6F241F",
"k  c #571A22",
"l  c #4C292B",
"z  c #592427",
"x  c #4D2E33",
"c  c #47363B",
"v  c #692525",
"b  c #722F32",
"n  c #703133",
"m  c #3C3D42",
"M  c #463E44",
"N  c #563B44",
"B  c #3E4449",
"V  c #424144",
"C  c #44454A",
"Z  c #44484E",
"A  c #4B4B4E",
"S  c #504446",
"D  c #454C52",
"F  c #4E4E52",
"G  c #554D54",
"H  c #535155",
"J  c #555559",
"K  c #59555A",
"L  c #5B5B5E",
"P  c #774649",
"I  c #635759",
"U  c #555E66",
"Y  c #5D5C62",
"T  c #655C63",
"R  c #755F68",
"E  c #5A6166",
"W  c #5B636A",
"Q  c #636266",
"!  c #68676C",
"~  c #796A6F",
"^  c #6B6A71",
"/  c #696B73",
"(  c #716E74",
")  c #7A6D78",
"_  c #6C757B",
"`  c #76757A",
"'  c #882A29",
"]  c #943127",
"[  c #942E31",
"{  c #883A37",
"}  c #963133",
"|  c #AA2D2A",
" . c #B7282A",
".. c #A4352C",
"X. c #B3332D",
"o. c #AA2E36",
"O. c #B52D34",
"+. c #A63233",
"@. c #AB3433",
"#. c #A43C3E",
"$. c #A93939",
"%. c #B33234",
"&. c #B43738",
"*. c #B14D3B",
"=. c #C76638",
"-. c #D0643D",
";. c #9B3843",
":. c #B43342",
">. c #864448",
",. c #964448",
"<. c #9B494D",
"1. c #9B4D52",
"2. c #975559",
"3. c #A7474A",
"4. c #A8564D",
"5. c #AD5550",
"6. c #B2684A",
"7. c #805860",
"8. c #975C62",
"9. c #A45F64",
"0. c #8E6467",
"q. c #96666A",
"w. c #9C736A",
"e. c #866971",
"r. c #946D73",
"t. c #8A757A",
"y. c #947378",
"u. c #B56868",
"i. c #CF664A",
"p. c #DA7848",
"a. c #D78A74",
"s. c #E79B77",
"d. c #6E7B82",
"f. c #7E7682",
"g. c #727C83",
"h. c #7C7C83",
"j. c #847984",
"k. c #8A7D85",
"l. c #927D82",
"z. c #748187",
"x. c #76838B",
"c. c #7B858C",
"v. c #7D8B93",
"b. c #888387",
"n. c #84868B",
"m. c #8B8A8D",
"M. c #93848A",
"N. c #858B94",
"B. c #858B95",
"V. c #8A8C96",
"C. c #8B8D99",
"Z. c #938A92",
"A. c #859198",
"S. c #8B929B",
"D. c #949495",
"F. c #98979A",
"G. c #B1868D",
"H. c #8E9EA5",
"J. c #8E9DA7",
"K. c #939DA6",
"L. c #9A9AA1",
"P. c #959EA9",
"I. c #8EA1A5",
"U. c #95A3AC",
"Y. c #9BA5A9",
"T. c #9AA7B1",
"R. c #97A8B1",
"E. c #9AABB4",
"W. c #9BAFBA",
"Q. c #9DB2BB",
"!. c #A6A7A9",
"~. c #A2A5AC",
"^. c #ABAFB5",
"/. c #B0AFB4",
"(. c #A3B4BD",
"). c #AAB6BE",
"_. c #B7B8BB",
"`. c #C4A39E",
"'. c #DCADB2",
"]. c #C7B2B9",
"[. c #E8BAB3",
"{. c #F8CDB9",
"}. c #FDD3BE",
"|. c #A7BAC1",
" X c #ABBAC3",
".X c #B6BCC4",
"XX c #C4BCC3",
"oX c #B5C2CB",
"OX c #B9C5CD",
"+X c #BCCAD2",
"@X c #C4C5C7",
"#X c #CCCDD0",
"$X c #CBD5DA",
"%X c #CBD5DB",
"&X c #D3D3D3",
"*X c #D6D8DA",
"=X c #DCDCDE",
"-X c #DAE3DE",
";X c #F0EADE",
":X c #CFDBE1",
">X c #D4DBE2",
",X c #D7E0E5",
"<X c #D9E2E5",
"1X c #DCE5EA",
"2X c #E4E3E5",
"3X c #E4ECED",
"4X c #E8E9EA",
"5X c #F7ECE9",
"6X c #E7EEF2",
"7X c #EBF2F5",
"8X c #ECF5FA",
"9X c #F2F4F4",
"0X c #F6F6F6",
"qX c #F4FAFC",
"wX c #FAFBFB",
/* pixels */
"                                                            X O . X                 X o                                 ",
"                                                        o   @ . O @   X                                                 ",
"                                                            = % & & .       .                                           ",
"                                                          2 a s a 5 <     o                                             ",
"                                                      X % s f f f d 4 X X X O                                           ",
"                                                    o O & s j ' ' v 4 %   X + O o o                                     ",
"                                                        ; 5 b ;.,.b s 5 < # # + O                                       ",
"                                      X             o   $ w n 1.2.P n k 5 1 # + X                                       ",
"                          X     X O X O       o @   + + ; w G R q.2.{ ' v 5 < @     o                                   ",
"                            o > : * - - : - : - ; * - * 7 p I ~ r.q.1.;.v d 2 ;                                         ",
"                          X 8 t t t t t t t t t u t u m p H Y ` t.r.9.<.>.z 1 O X   X                                   ",
"                          , t B U W U U W U U E W E E W W _ _ j.t.y.r.8.P x 3 *                                         ",
"                    X   + , i W x.v.v.A.x.x.x.x.x.v.x.x.v.A.N.j.j.l.k.t.I M 9 *                                         ",
"                        + : B _ H.(.oX|.|.oXoX|.|.OXOX).|.~.L.Z.k.Z.V.n.~ C e ; ;     o                                 ",
"                        X , F n.|.:X1X:X$X:X:X:X#X:X$X+X$X@X.X/.!.~.L.B.` Q M m q ,                                     ",
"                        o 9 H S.$X6X8X8X6X6X7X8X3X7X8X7X7X1X:X*X$X.X.XP.h.h.^ F V q , @                                 ",
"                        X 9 L F.$X0XwX9X5X9X9X0X5X9X9X9X9X9X9X4X4X$X XW.P.N.h.^ K e : @ X                               ",
"                        X 6 F m._.*X=X=X&X&X&X&X&X&X&X&X-X;X5X0X8X,XOX XU.P.H.h.T m 6 @                                 ",
"                      . + > y L j.D.F.F.F.D.D.D.D.m.m.D.F._.-XwXqX<XoXQ.R.E.T.c.! m 6 X                                 ",
"                        + * , y V F F F F F A A A V p C T m.OX4X8X1X+X XQ.E.T.S._ C 6 O                                 ",
"                        X @ $ : , 9 8 > , , , 9 9 9 8 9 i ( _.2X9X1XOXQ.Q.R.W.U.x.Z 6 @                                 ",
"                        X - , 0 y y 9 - X @ , q i i y p K b.@X2X9X1X+X(.W.W.Q.U.g.B 6 @                                 ",
"                        X ; e F ^ Q p , X ; y L ` ` h.` b.!.&X5X9X1XOXQ.W.Q.Q.J.d.B 6 *                                 ",
"                      X X 8 F b.!.!.! p ; 9 K D._.@X@X@X&X-X5XwX9X>XOX|.W.W.W.U.x.D 8 @ o                               ",
"                          0 L !.*X*XD.K y C j.XX;XwX9X0X9X9XqX9X1X:XOX(.W.Q.^.K.d.Z 9 @                                 ",
"                        O 0 Q /.2X5X_.m.T ` ~.4XwXwXwX8X6X3X3X3X>X%XoXQ.E.E.T.K._ B 6 X                                 ",
"                      X O 7 E /.3XwX<X.X~._.#X6X9X0XqX-X>X:X$X$X#XoX|.Q.E.E.P.C.^ m 9 O                                 ",
"                        O 8 T ~.2XqXwX2X-X>X5XwXwX7X-XXXoX X|.|. X(.Q.E.R.P.V.j.Y i 8 O   X                             ",
"                        + 6 I F.&X5X0X5X;X5X5X5X5X=XXX].Y.Y.U.T.E.E.E.T.H.C.f.( J y , O                                 ",
"                          , S r.`.[.{.{.}.}.{.[.'.'.G.y.M.Z.D.S.K.P.P.K.B.h.! K V e ; X                                 ",
"                        + = x >.u.a.s.s.s.s.a.a.u.u.u.u.9.w.y.V.S.S.S.V.g.L C y 0 , o                                   ",
"                        @ $ s b 5.*.i.p.p.p.-.i.*.5.5.#.3.2.w.b.n.B.n.h._ A e , @ @                                     ",
"                        O 3 4 z { *.*.=.=.=.*.5.$.#.#.#.3.1.8.e.y.t.t.e.T M < # # %     o     . o   X                   ",
"                      X   $ 3 z >.3.6.6.6.6.4.4.<.<.<.<.1.2.2.2.8.8.8.2.P x 6 + # 2 .                                   ",
"                        o ; r N 7.q.w.w.w.w.w.0.0.0.0.0.8.8.2.3.3.3.3.1.n l 3 O < v [ O.o .   .   .   O                 ",
"                      O * > i K ) k.m.b.t.b.k.k.k.k.k.b.y.0.1.3.$.$.#.:.' d 2 = 4 d ' +.O.  O O o   o                   ",
"                    @ : 7 q C ! h.S.S.A.N.V.V.N.N.V.C.C.M.t.2.3.:.*.;.;.{ s < $ 4 h ' ..@.:.        .                   ",
"                  @ , e p F Q f.A.U.U.U.K.P.U.P.P.U.U.P.L.Z.y.q.9.2.2.2.P l 3 $ 1 f [  .&.%.%.$. .O.;.                  ",
"                O - 0 M L ( j.S.P.R.T.T.Y.T.R.R.T.T.T.R.P.S.M.y.r.y.r.e.L m 8 : 1 g [ @.X.X...| $.X.%.@.                ",
"                  * q Z W f.C.V.J.J.P.P.J.J.U.J.J.I.I.I.K.C.n.j.f.t.f.f.R V 9 3 3 h ' o.&.@.X.@.+.+.| X.                ",
"              X O * q F ` n.n.c.d.d.d.d.d.d.d.d.z.x.x.d._ _ W W ! ( ` j.( Y i i w h v ' } ' @.%.| X.O.+.                ",
"                X - e F ` h.h./ J B D D D D D D D D B B B B m m C L ` h.j.^ Y H S x d h v [ +.@.$.o.  .                 ",
"                  ; q F ! h.^ M 9 6 7 6 9 8 9 8 8 8 6 6 8 8 , 8 e Z ! h.b.f.h.! G c 3 3 d g ....:.  o o                 ",
"                  @ 0 C T T H i 7 @   X O @ * O * * * @ o + O $ 6 i J ! ) f.) ^ H r 6 $ s v ] | :.    #                 ",
"                o O 6 y V F m 6 @ @ X         X       O         * 0 M F H T K J i 0 : @ < d ' o.o                       ",
"                  + ; 7 0 q 9 , ;     X X X           X   X . X @ , 0 r y i i y 7 7 O @ < s   .                         ",
"                o o + * ; : * O     X                 X         X $ ; * ; ; : ; @ ; X @ #     $   X   O                 ",
"                . .   o o X   o                                     o o O @   O X   @ @ .   O     .                     ",
"                    X                                               X     X   o X o   o                                 ",
"                      o   X                                                           X                                 ",
"                                                                                                                        ",
"                                                                                                                        ",
"                                                                                                                        ",
"                                                                                                                        ",
"                                                                                                                        ",
"                                                                                                                        ",
"                                                                                                                        ",
"                                                                                                                        ",
"                                                                                                                        ",
"                                                                                                                        "
};
