/* XPM */
static char *result[] = {
/* columns rows colors chars-per-pixel */
"60 60 207 2 ",
"   c #020203",
".  c #060608",
"X  c #0A0709",
"o  c #0A090B",
"O  c #090608",
"+  c #150A0C",
"@  c #1B0B0D",
"#  c #170608",
"$  c #0E0E11",
"%  c #110F12",
"&  c #1B0E10",
"*  c #0F1114",
"=  c #121214",
"-  c #151619",
";  c #1A1719",
":  c #1B1A1D",
">  c #181719",
",  c #220C0E",
"<  c #2C0E0F",
"1  c #330E10",
"2  c #231315",
"3  c #281517",
"4  c #3C1314",
"5  c #361517",
"6  c #2F0F11",
"7  c #1D1E21",
"8  c #221E21",
"9  c #1F2225",
"0  c #222224",
"q  c #262629",
"w  c #2B2A2D",
"e  c #29272A",
"r  c #352528",
"t  c #2D2D31",
"y  c #332E32",
"u  c #2E3338",
"i  c #2D3236",
"p  c #343235",
"a  c #363538",
"s  c #3B3A3E",
"d  c #3B353A",
"f  c #431517",
"g  c #5C1D1E",
"h  c #54191A",
"j  c #661D1E",
"k  c #521F21",
"l  c #6C1F20",
"z  c #492729",
"x  c #45383D",
"c  c #522A2D",
"v  c #6B2426",
"b  c #752526",
"n  c #7B3335",
"m  c #6D3335",
"M  c #3C3D42",
"N  c #363C40",
"B  c #413E44",
"V  c #4D3D42",
"C  c #593E43",
"Z  c #3F4247",
"A  c #434244",
"S  c #46464B",
"D  c #4C4B4D",
"F  c #46474D",
"G  c #454D52",
"H  c #4D4D51",
"J  c #524E54",
"K  c #545156",
"L  c #565358",
"P  c #5C5B5E",
"I  c #595559",
"U  c #524C51",
"Y  c #744548",
"T  c #6C565C",
"R  c #7D575D",
"E  c #5A5B62",
"W  c #615E65",
"Q  c #556067",
"!  c #596269",
"~  c #63646B",
"^  c #6A656C",
"/  c #656667",
"(  c #6A6971",
")  c #716D75",
"_  c #796E76",
"`  c #6B747B",
"'  c #75737B",
"]  c #79767A",
"[  c #7E6066",
"{  c #8B2A2B",
"}  c #832A2B",
"|  c #972C2C",
" . c #943A3B",
".. c #803739",
"X. c #AC3232",
"o. c #A43B3D",
"O. c #AB3839",
"+. c #B43434",
"@. c #B83535",
"#. c #A12F2F",
"$. c #B5503C",
"%. c #C86837",
"&. c #973F41",
"*. c #844548",
"=. c #9A484C",
"-. c #984E52",
";. c #995559",
":. c #97514E",
">. c #A64446",
",. c #AD534D",
"<. c #B16948",
"1. c #975D62",
"2. c #A65D61",
"3. c #8E636A",
"4. c #88686F",
"5. c #966668",
"6. c #9B7367",
"7. c #896C73",
"8. c #936D73",
"9. c #996C72",
"0. c #8C747B",
"q. c #887479",
"w. c #94737A",
"e. c #B8696B",
"r. c #A26064",
"t. c #DB7843",
"y. c #CF6848",
"u. c #C56860",
"i. c #D58479",
"p. c #E7977A",
"a. c #EEA277",
"s. c #6F7C84",
"d. c #747C84",
"f. c #7D7C84",
"g. c #7B7982",
"h. c #837D85",
"j. c #8A7C82",
"k. c #847780",
"l. c #917B83",
"z. c #7B838B",
"x. c #84848B",
"c. c #8B868A",
"v. c #96868C",
"b. c #848D96",
"n. c #8A8B95",
"m. c #808F98",
"M. c #8A8D97",
"N. c #918C95",
"B. c #829199",
"V. c #8C929C",
"C. c #949494",
"Z. c #9A999B",
"A. c #96949A",
"S. c #B38C91",
"D. c #8F9CA6",
"F. c #8F9FA8",
"G. c #8C97A0",
"H. c #949EA9",
"J. c #949BA4",
"K. c #8FA0A9",
"L. c #93A1AB",
"P. c #9CA4AD",
"I. c #99A7B1",
"U. c #9BABB5",
"Y. c #9BAEB9",
"T. c #9DB1BB",
"R. c #A5A6A9",
"E. c #ABAEB3",
"W. c #A4B4BD",
"Q. c #AEB1B3",
"!. c #B9B8BA",
"~. c #B0AFAF",
"^. c #C9A09F",
"/. c #D7AAAB",
"(. c #EABCB6",
"). c #F8CCB9",
"_. c #FBD1B7",
"`. c #ABBBC3",
"'. c #B6BDC3",
"]. c #C4BEC3",
"[. c #B8C5CD",
"{. c #BDCAD1",
"}. c #C6C7C8",
"|. c #CAD6DC",
" X c #CAD5DA",
".X c #D4D4D5",
"XX c #DCDCDC",
"oX c #D5D6D9",
"OX c #CFCED1",
"+X c #D7DEE3",
"@X c #CEDCE2",
"#X c #DBE5E9",
"$X c #DDE2E5",
"%X c #E4E4E5",
"&X c #EBECEC",
"*X c #E6E7E9",
"=X c #F9EBE6",
"-X c #E9EFF2",
";X c #E7EDF0",
":X c #ECF1F4",
">X c #EBF6F9",
",X c #F2F3F4",
"<X c #F3F7F9",
"1X c #FBFCFC",
"2X c #F7F9FA",
"3X c #FFF1ED",
"4X c None",
/* pixels */
"4X4X4X4X4X4X4X4X4X4X4X4X4X4X4X4X4X4X4X4X4X4X4X4X4X4X.   . . 4X4X4X4X4X4X4X4X4X4X4X4X4X4X4X4X4X4X4X4X4X4X4X4X4X4X4X4X4X4X",
"4X4X4X4X4X4X4X4X4X4X4X4X4X4X4X4X4X4X4X4X4X4X4X4X4X4XX X . . 4X4X4X4X4X4X4X4X4X4X4X4X4X4X4X4X4X4X4X4X4X4X4X4X4X4X4X4X4X4X",
"4X4X4X4X4X4X4X4X4X4X4X4X4X4X4X4X4X4X4X4X4X4X4X4X4X4X@ , , @ 4X4X4X4X4X4X4X4X4X4X4X4X4X4X4X4X4X4X4X4X4X4X4X4X4X4X4X4X4X4X",
"4X4X4X4X4X4X4X4X4X4X4X4X4X4X4X4X4X4X4X4X4X4X4X4X4X, 4 f f f 6 4X4X4X4X4X4X4X4X4X4X4X4X4X4X4X4X4X4X4X4X4X4X4X4X4X4X4X4X4X",
"4X4X4X4X4X4X4X4X4X4X4X4X4X4X4X4X4X4X4X4X. . .   X 6 h j l g 4 @ . 4X4X4X4X4X4X4X4X4X4X4X4X4X4X4X4X4X4X4X4X4X4X4X4X4X4X4X",
"4X4X4X4X4X4X4X4X4X4X4X4X4X4X4X4X4X4X4X. . . . X @ 4 v } { b f @ .   4X4X4X4X4X4X4X4X4X4X4X4X4X4X4X4X4X4X4X4X4X4X4X4X4X4X",
"4X4X4X4X4X4X4X4X4X4X4X4X4X4X4X4X4X4X4X. . X # @ 1 k n  . .m 5 &     4X4X4X4X4X4X4X4X4X4X4X4X4X4X4X4X4X4X4X4X4X4X4X4X4X4X",
"4X4X4X4X4X4X4X4X4X4X4X4X4X4X4X4X4X4X4X. X # < f g m Y ;.-.m r +         4X4X4X        4X4X4X4X4X4X4X4X4X4X4X4X4X4X4X4X4X",
"4X4X4X4X4X4X4X4X4X4X4X4X4X4X4X4X4X4X4X. o , 4 j }  .;.3.[ U r & o .   .         . . . . 4X4X4X4X4X4X4X4X4X4X4X4X4X4X4X4X",
"4X4X4X4X4X4X4X4X4X4X4X4X4X4X4X4X4X4X4X  o < h b  .-.5.0._ P M 7 * * * * = * = * * * * = - 4X4X4X4X4X4X4X4X4X4X4X4X4X4X4X",
"4X4X4X4X4X4X4X4X4X4X4X4X4X4X4X4X4X4X4X  o 3 k &.>.2.9.q.g.E H M N u u N u u u u i u u i i 9 4X4X4X4X4X4X4X4X4X4X4X4X4X4X",
"4X4X4X4X4X4X4X4X4X4X4X4X4X4X4X4X4X4X4X  o 2 x Y 3.9.0.q.g.s.` ! Q Q Q ! Q Q Q Q Q Q Q Q Z u : 4X4X4X4X4X4X4X4X4X4X4X4X4X",
"4X4X4X4X4X4X4X4X4X4X4X4X4X4X4X4X4X4X4X  o 8 V T k.l.l.h.h.x.n.m.z.z.z.z.z.z.z.z.B.B.B.z.! N : . 4X4X4X4X4X4X4X4X4X4X4X4X",
"4X4X4X4X4X4X4X4X4X4X4X4X4X4X4X4X4X4X4X$ ; t V ) h.N.N.l.V.J.R.W.T.[.[.`.`.`.[.W.`.`.W.K.` Z : .   4X4X4X4X4X4X4X4X4X4X4X",
"4X4X4X4X4X4X4X4X4X4X4X4X4X4X4X4X4X4X7 w N B ! d.M.J.R.R.E.'.}.|.{.@X@X{.@X@X|.|.@X#X@X`.z.G 7 .   4X4X4X4X4X4X4X4X4X4X4X",
"4X4X4X4X4X4X4X4X4X4X4X4X4X4X4X4Xo > t B J ~ g.h.J.`.'.OXoX+X#X;X;X>X>X;X>X>X;X;X>X>X-X.XC.K 9 .   4X4X4X4X4X4X4X4X4X4X4X",
"4X4X4X4X4X4X4X4X4X4X4X4X4X4X4X  o > p L ) f.m.D.U.'. X*X&X,X,X,X,X,X,X&X,X,X,X,X,X2X,X.XZ.P 0 .   4X4X4X4X4X4X4X4X4X4X4X",
"4X4X4X4X4X4X4X4X4X4X4X4X4X4X4X  o 7 M W f.G.H.I.`.[.+X-X1X,X%XXX.X.X.X.X.X.X.X.XXXXX.X!.c.D : .   4X4X4X4X4X4X4X4X4X4X4X",
"4X4X4X4X4X4X4X4X4X4X4X4X4X4X4X  . 7 M ( z.I.L.U.T.[.#X<X<XXX/.L.C.c.c.C.C.C.C.Z.Z.Z.C.h.P p - .   4X4X4X4X4X4X4X4X4X4X4X",
"4X4X4X4X4X4X4X4X4X4X4X4X4X4X4X  o 7 S ` G.I.Y.Y.`.[.#X<X&X].N.E A A A D D D D D D D D A i 7 $ .   4X4X4X4X4X4X4X4X4X4X4X",
"4X4X4X4X4X4X4X4X4X4X4X4X4X4X4X  o 7 Z z.K.Y.Y.Y.T.{.#X,X%X!.) s 0 : 0 0 0 : : : : 0 0 7 - $ o . . 4X4X4X4X4X4X4X4X4X4X4X",
"4X4X4X4X4X4X4X4X4X4X4X4X4X4X4X  o 7 Z s.K.T.T.Y.W.{.$X,X*X!.c.K s a a a w : o   $ 7 p p e : $ .   4X4X4X4X4X4X4X4X4X4X4X",
"4X4X4X4X4X4X4X4X4X4X4X4X4X4X4X  o 9 Z s.K.T.T.T.W.[.$X,X,X.X~.c.f.] ] ] P p * . : A / / K t = .   4X4X4X4X4X4X4X4X4X4X4X",
"4X4X4X4X4X4X4X4X4X4X4X4X4X4X4X  o 9 G z.L.T.T.T.W.[.+X,X2X=XXXOX}.}.}.!.C.I q = p ) Z.~.c.D 7 .   4X4X4X4X4X4X4X4X4X4X4X",
"4X4X4X4X4X4X4X4X4X4X4X4X4X4X4X  o 9 F s.D.W.Y.Y.W.[.|.&X<X<X,X,X,X2X2X&X].h.A p I Z..X.XR.P 0     4X4X4X4X4X4X4X4X4X4X4X",
"4X4X4X4X4X4X4X4X4X4X4X4X4X4X4X  o 7 Z ` G.I.U.U.W.`. X+X*X;X-X-X>X1X1X1X$XR.' / x.!.&X*X~./ q .   4X4X4X4X4X4X4X4X4X4X4X",
"4X4X4X4X4X4X4X4X4X4X4X4X4X4X4X  o 7 B ( n.H.I.U.T.`.[.{. X|.|.@X#X>X1X2X:X.XQ.R.'.$X2X&X~.! 0 .   4X4X4X4X4X4X4X4X4X4X4X",
"4X4X4X4X4X4X4X4X4X4X4X4X4X4X4X  . 7 M E h.N.H.I.U.W.T.`.`.`.W.[.].+X-X2X2X&X%XXX%X2X1X%XR.P 0 .   4X4X4X4X4X4X4X4X4X4X4X",
"4X4X4X4X4X4X4X4X4X4X4X4X4X4X4X  . 7 i L ) f.V.J.I.U.U.U.I.L.P.P./.].oX=X=X=X=X=X=X3X=XOXZ.T : .   4X4X4X4X4X4X4X4X4X4X4X",
"4X4X4X4X4X4X4X4X4X4X4X4X4X4X4X4X. - w B L ^ d.b.D.H.H.D.G.C.v.v.l.S././.(.)._._._._.(.^.8.A 2 .   4X4X4X4X4X4X4X4X4X4X4X",
"4X4X4X4X4X4X4X4X4X4X4X4X4X4X4X4X4X4X7 q p F E d.b.G.V.V.n.l.6.2.e.e.e.e.i.p.p.a.p.p.i.e.*.x & .   4X4X4X4X4X4X4X4X4X4X4X",
"4X4X4X4X4X4X4X4X4X4X4X4X4X4X4X4X4X4Xo $ > y H ) h.x.n.c.j.8.;.>.>.$.,.>.y.%.t.t.t.y.,.$.m f & .   4X4X4X4X4X4X4X4X4X4X4X",
"4X4X4X4X4X4X4X4X4X4X4X4X4X4X4X4X4X4X@ O # 3 x T 7.0.0.0.3.1.-.>.o.o.o.o.$.$.%.%.%.$.$...v 5 & o   4X4X4X4X4X4X4X4X4X4X4X",
"4X4X4X4X4X4X4X4X4X4X4X4X4X4X4X4X4X4X4 # X ; x Y ;.1.1.;.1.;.;.-.-.=.=.-.:.,.<.<.<.<.:.&.c 5 %     4X4X4X4X4X4X4X4X4X4X4X",
"4X4X4X4X4X4X4X4X4X4X4X4X4X4X4X4XX.{ h < + 2 z n =.,.>.>.=.-.1.1.3.3.3.3.3.6.6.9.6.6.5.R C r % .   4X4X4X4X4X4X4X4X4X4X4X",
"4X4X4X4X4X4X4X4X4X4X4X4X4X4X4X+.X.{ g 1 + 3 h } o.O.O.o.>.;.1.k.j.h.j.j.j.j.j.j.c.c.j._ L p ; o . 4X4X4X4X4X4X4X4X4X4X4X",
"4X4X4X4X4X4X4X4X4X4X4X4X4X4X@.+.X.{ j 1 + 2 k n &.o.o.>.>.1.8.c.M.V.M.M.M.n.n.n.M.V.V.f.W F y 8 ; 4X4X4X4X4X4X4X4X4X4X4X",
"4X4X4X4X4X4X4X4X4XX.X.X.X.X.@.@.X.| j 1 + 2 z Y -.2.2.1.r.w.v.J.H.L.H.L.H.H.H.D.H.L.H.V.f.~ H M t 8 $ 4X4X4X4X4X4X4X4X4X",
"4X4X4X4X4X4X4X4XX.X.X.X.X.X.+.+.X.| j 1 + 8 B T 4.8.8.8.l.v.N.H.I.I.I.I.I.I.I.I.I.U.I.H.V.f.) E B q $ . 4X4X4X4X4X4X4X4X",
"4X4X4X4X4X4X4X4XX.X.X.X.X.X.X.X.#.{ k 5 8 8 B ^ g.k.k.k.k.x.V.D.F.K.K.K.F.F.D.F.F.L.F.D.V.n.h.W S e %   4X4X4X4X4X4X4X4X",
"4X4X4X4X4X4X4X4XX.X.X.X.X.X.| | { v k z p M E ) f.g.) ~ ~ ! ` ` s.z.s.s.s.s.s.s.s.s.s.s.z.b.h.d.H w % O   4X4X4X4X4X4X4X",
"4X4X4X4X4X4X4X4X4X4XX.+.X.#.{ v k k c V L E ) f.h._ E F M Z Z G Z G G G G G G G G G Z L ( d.h.) J w %     4X4X4X4X4X4X4X",
"4X4X4X4X4X4X4X4X4X4X4X+.X.#.b h 1 8 d J ^ g.k.h.g.~ F t 7 : : 9 9 9 9 9 0 9 9 9 7 7 7 q B ^ g.^ J w %     4X4X4X4X4X4X4X",
"4X4X4X4X4X4X4X4X4X4X4X@.X.| j f @ 7 u K ( ' g._ ( L a : o . . . o o o o o o X . . . o 7 N L W W F q $     4X4X4X4X4X4X4X",
"4X4X4X4X4X4X4X4X4X4X4X4XX.| g < o * q M L I W I J B e %         .                     $ 8 B U B p 7 o     4X4X4X4X4X4X4X",
"4X4X4X4X4X4X4X4X4X4X4X4X4X4Xf @ o o 7 7 y d p p y e : $                               o 7 8 w w 7 = X O   4X4X4X4X4X4X4X",
"4X4X4X4X4X4X4X4X4X4X4X4X4X4X4X# o o $ $ - - - = = % $ O 4X4X4X4X4X4X4X4X4X4X4X4X4X4X4X4Xo * = % $ X .   4X4X4X4X4X4X4X4X",
"4X4X4X4X4X4X4X4X4X4X4X4X4X4X4X. . .   O .   . . . .   4X4X4X4X4X4X4X4X4X4X4X4X4X4X4X4X4X    O .     . . 4X4X4X4X4X4X4X4X",
"4X4X4X4X4X4X4X4X4X4X4X4X4X4X4X  . .                 4X4X4X4X4X4X4X4X4X4X4X4X4X4X4X4X4X4X4X            . 4X4X4X4X4X4X4X4X",
"4X4X4X4X4X4X4X4X4X4X4X4X4X4X4X4X                  4X4X4X4X4X4X4X4X4X4X4X4X4X4X4X4X4X4X4X4X4X          4X4X4X4X4X4X4X4X4X",
"4X4X4X4X4X4X4X4X4X4X4X4X4X4X4X4X4X4X4X4X4X4X4X4X4X4X4X4X4X4X4X4X4X4X4X4X4X4X4X4X4X4X4X4X4X4X4X4X4X4X4X4X4X4X4X4X4X4X4X4X",
"4X4X4X4X4X4X4X4X4X4X4X4X4X4X4X4X4X4X4X4X4X4X4X4X4X4X4X4X4X4X4X4X4X4X4X4X4X4X4X4X4X4X4X4X4X4X4X4X4X4X4X4X4X4X4X4X4X4X4X4X",
"4X4X4X4X4X4X4X4X4X4X4X4X4X4X4X4X4X4X4X4X4X4X4X4X4X4X4X4X4X4X4X4X4X4X4X4X4X4X4X4X4X4X4X4X4X4X4X4X4X4X4X4X4X4X4X4X4X4X4X4X",
"4X4X4X4X4X4X4X4X4X4X4X4X4X4X4X4X4X4X4X4X4X4X4X4X4X4X4X4X4X4X4X4X4X4X4X4X4X4X4X4X4X4X4X4X4X4X4X4X4X4X4X4X4X4X4X4X4X4X4X4X",
"4X4X4X4X4X4X4X4X4X4X4X4X4X4X4X4X4X4X4X4X4X4X4X4X4X4X4X4X4X4X4X4X4X4X4X4X4X4X4X4X4X4X4X4X4X4X4X4X4X4X4X4X4X4X4X4X4X4X4X4X",
"4X4X4X4X4X4X4X4X4X4X4X4X4X4X4X4X4X4X4X4X4X4X4X4X4X4X4X4X4X4X4X4X4X4X4X4X4X4X4X4X4X4X4X4X4X4X4X4X4X4X4X4X4X4X4X4X4X4X4X4X",
"4X4X4X4X4X4X4X4X4X4X4X4X4X4X4X4X4X4X4X4X4X4X4X4X4X4X4X4X4X4X4X4X4X4X4X4X4X4X4X4X4X4X4X4X4X4X4X4X4X4X4X4X4X4X4X4X4X4X4X4X",
"4X4X4X4X4X4X4X4X4X4X4X4X4X4X4X4X4X4X4X4X4X4X4X4X4X4X4X4X4X4X4X4X4X4X4X4X4X4X4X4X4X4X4X4X4X4X4X4X4X4X4X4X4X4X4X4X4X4X4X4X",
"4X4X4X4X4X4X4X4X4X4X4X4X4X4X4X4X4X4X4X4X4X4X4X4X4X4X4X4X4X4X4X4X4X4X4X4X4X4X4X4X4X4X4X4X4X4X4X4X4X4X4X4X4X4X4X4X4X4X4X4X",
"4X4X4X4X4X4X4X4X4X4X4X4X4X4X4X4X4X4X4X4X4X4X4X4X4X4X4X4X4X4X4X4X4X4X4X4X4X4X4X4X4X4X4X4X4X4X4X4X4X4X4X4X4X4X4X4X4X4X4X4X"
};
