/* XPM */
static char *result[] = {
/* columns rows colors chars-per-pixel */
"60 60 34 1 ",
"  c #323A4C",
". c #363F51",
"X c #374153",
"o c #394256",
"O c #3C465A",
"+ c #3F495D",
"@ c #3F4A60",
"# c #424E64",
"$ c #445066",
"% c #46526A",
"& c #49556C",
"* c #4B586F",
"= c #4A5770",
"- c #4D5A74",
"; c #4F5D78",
": c #515D77",
"> c #515F79",
", c #54617C",
"< c #58657F",
"1 c #576583",
"2 c #596784",
"3 c #5A6984",
"4 c #5B6A89",
"5 c #606F8E",
"6 c #61708F",
"7 c #637292",
"8 c #687795",
"9 c #697897",
"0 c #677798",
"q c #687798",
"w c #6B7B9B",
"e c #6F7FA0",
"r c #6F80A0",
"t c #7181A1",
/* pixels */
"$#+OX                        .++#+o                         ",
"$##+oXXX.X..........XXXX.....++$++oX XXXXX...X..............",
"$$##@++++++++++++++++++++++++++$#@+++++O++O+++++++++++++++++",
"##$%&*-******:*:*:*****&**:**&&&%&***---:***:*****:**:******",
"#$&*<355535535445<55<555<5<5<<*&%:<355555<5<55556<<5<<6655<5",
"@$&,48w9ww8999wqww999899wwe98<:&&:388w9www998899wwwwe999ww9w",
"#$*<6wttewwwwwweweewee9eeett85:&*<7wtewwre9eewewewwweeeetttt",
"@$*<8rttwqq8ww0099888989wweee5<&&<8etewq8899888888888999ettt",
"$$&<7rrw866555575555556668we96>**<6we8855755666665665577weee",
"+$&,58863322222221522<5<<5688<:&&,58873212211331<55<22257qww",
"O+$&,<3<>---:-:>1;>:--:*:><5<:&+$*,3<<,:;;-;;>,,>-*:--:>>555",
"oo+@%&&&$#####&&==&$####$$&*&$+OO+$&*&$#@@%@%=**&%#+##$$$&&&",
"XoooO++OOOoOOO@$%%#OOoooOOOO+OoXooO+++OOOoOO+$$$$+OOOOOO++++",
"OOO+OOOOOOOOOO@@###O+++OOOOO+OOOOOOOOOOo@Oo@+####+OOOOO+OOO+",
"&&&&&&&&&&&&&%%$##%%&&***&&&&*&&&&&&&%&&%&%%$#$$$%%$$&&&&$$&",
"<33<<<<322222<:&%%=:<<<<<<5<<<<<33<<3<223311,&$%&><55><<<5<<",
"907077778889872:&&;588w888888888570770880qq7<,%%,47000759999",
"wwweeeeewwete85>&&>5weewewwwwwwweeeeqeewweww3,&*,7wreeeewwww",
"qq0000e09wwtew5>&*17eeew88qqqqqwe00e0000wttw5,&=<6rre0e09q00",
"77757557668wew5:&->7wew777777577754775779wtw5,&=<6we00756767",
"444444445558wq5:&&:59w75444444444444444479wq6,&&,59w05444444",
"434441413458qq3:&&:56755444144344441414477q73;&&,58875444344",
"144444444457752;&%*><5<5444444244444414447073;%&,46855444444",
"441444444444541;&%%&::>214444444144444444744<=%&-14544444144",
"111111115>551>;&$##$$&:>1111111132211111221<,&%%&,1311131121",
"11;1;;;;:**-:*&##+O+O#%*;;;;;1;1,>>>-;;;;;--%$++$&--;-;-;-;-",
"--==%@#@###$#$##ooO..O++@$$$$%%=*&%$######@#++OOO@$$@@@%$##$",
"%%%@@OO@OOOOO.........oo@..@O@$$%#+OOoOOOOOOooXXoooO@OOOOOoO",
"$###@OOOOOOOOOOO+OOOOOOOOOOOO@###+@OOOOOOOOOOOOOOOOOOOOO+o+O",
"###$%%&=&*&&&&&$&&&&&&&&%&&&%%$##$%&&&&&&&&&&&*&&&&&&&%&&%%%",
"#$&&:222<<5<<<<5<55<5<<<5<321;=$%&:<<33<2<22<<5<<32233223<11",
"@$&,378q887888887888888888qq52;%&:58998888888888888889q79990",
"#$&<6wrrwwwwwwwwe0ee0ree0rrr84:&*,6rrrrrwrrwrwr0eeee0eeeeerr",
"@$&<6rtrwq00wwqw000000000errr5>&*,6rrrw00000000000700000wrrr",
"#$*<6rew976667777565666670wrr4;=*,6rr00746676766757755700err",
"@$&<60w06444444444444444450w95;&*,3r005444444444444444470err",
"#$&,69074411111114444224450074;&&,58r6544444444144144446000w",
"#$&,3707541,;;>1444444424577711@&:47765444444444144444446600",
"#$%:1464441;==;,14444444446541==&:<4544411444441444441344465",
"+$%&>13411>=%%=;1141113111411;@=$*,<133114111141411111113341",
"++##&-::;-=#@@%=,,>>:->;;,;;>@@@@$&=--*,@11;;111,,*--;-;@1;;",
"XXO++##$#@@OOO@%**&%$@@$@@@@@@@oO+@#$#$#@@@@@=;@&%$$$$$$@@@@",
"XXXXoOOOOOooXoO@%%#++ooo@OOO@ooXXoooo+OO@oo@@=@@$+OOoOOO@@OO",
"OOOOOOOOOOOOO@@@#$+++O+OOOOOO+OOOO+O+oO+@@@O@@@@+++OoOOOO@oo",
"&&&&&&&*&&&&&%%$##$$&*%$&&&&@-**&&&&&&&&&&%&=@@=$%%&&%&&@@-=",
"33333<<<<<3<31>&%%*,<<<<113<1141333<<<<<<3<,>==@*,<<33<14433",
"89888888888w963;&&,<7r7r87r7670789888877r8971;==,<68r6799709",
"wwwwwwrwwrwtt95:&*,3rrrrr8rrrrrrwwww9rrrrrr95;&=,6rrrr9rr9rr",
"w9qqqqqq00rrrw5>&*,7rrrrr7r0r7009w00000wrrrr4;&*,7rrrr68r7rr",
"67577777670wrw5>&*,6rrr677456677666776677rr05;&*,67rr6766646",
"544444444470w04;&*,68r66444444444444444470r05;&*,6rr85444444",
"244214414457004;&&>56r64414114444443344467704:&&,56r75431444",
"444241441457761;&&;47765414441441414444457761;@=;47765444141",
"41444441444564,-%%;1465444444444444441144554,;*&;14544444444",
"11111111141331;=@*=>143311111111111111111141>**==>1144111144",
"111>1;11>>11,;;=&@=;>>,,,,1;1,,,111;1;111>,,-&@*=;;1>>1>,,>4",
"==-------;---=@=@=&=--------;;-;=-------;---=@&@@;;=---;-;--",
"%%%%&=%%%%%%&&=@&@&@*-@=@--@@*%%%%%%%=%%%%=@=@@&&@=@*-@*@**@",
"@%@%%@@%@=@@@&&@@&@@*@&@@*@@@*@=%%@@@%%%@&@@@&&@@&@@*@&@@*@@",
"%@%@@%@@@@@%%@@&@@&@@@@&@@@*@*@@@@@%%@@@&@@%@&@@&@@&@@@@@@@*"
};
