/* XPM */
static char *bf4b6ac779f94548bc93c3cd48da7650Z3wWQyFYbuyJi1Nc[] = {
/* columns rows colors chars-per-pixel */
"60 60 115 2 ",
"   c None",
".  c #3F211D",
"X  c #40221E",
"o  c #422320",
"O  c #492724",
"+  c #4C2926",
"@  c #512B27",
"#  c #532D29",
"$  c #592F2A",
"%  c #5A302C",
"&  c #52444E",
"*  c #5C4B53",
"=  c #5C545D",
"-  c #614C55",
";  c #63545A",
":  c #424E63",
">  c #455167",
",  c #465369",
"<  c #4A566D",
"1  c #4C586F",
"2  c #4E5B73",
"3  c #515D75",
"4  c #556176",
"5  c #54627B",
"6  c #59657B",
"7  c #5D687E",
"8  c #596783",
"9  c #5B6983",
"0  c #5F6E8C",
"q  c #626F86",
"w  c #616F8B",
"e  c #637087",
"r  c #61708D",
"t  c #6A758D",
"y  c #6B788F",
"u  c #727A8D",
"i  c #677694",
"p  c #6B7692",
"a  c #6A7996",
"s  c #6E7E9E",
"d  c #727D93",
"f  c #707E9B",
"g  c #6F7FA0",
"h  c #758095",
"j  c #788397",
"k  c #72819E",
"l  c #7A869D",
"z  c #6F81A2",
"x  c #7181A1",
"c  c #7B89A5",
"v  c #7C8AA8",
"b  c #828DA3",
"n  c #818FAB",
"m  c #8690A4",
"M  c #8391AE",
"N  c #8592AC",
"B  c #8693AE",
"V  c #8794AE",
"C  c #8794AF",
"Z  c #8795AF",
"A  c #8894AB",
"S  c #8A96AD",
"D  c #8895AF",
"F  c #8D98AF",
"G  c #8E99AE",
"H  c #8E99AF",
"J  c #909AAF",
"K  c #909BAF",
"L  c #949AAC",
"P  c #8896B0",
"I  c #8996B0",
"U  c #8997B1",
"Y  c #8A97B1",
"T  c #8A97B2",
"R  c #8B98B2",
"E  c #8C98B2",
"W  c #8C99B2",
"Q  c #8D9AB3",
"!  c #8F9BB3",
"~  c #8C99B4",
"^  c #8E9BB5",
"/  c #8C9BB7",
"(  c #8F9CB5",
")  c #919CB1",
"_  c #939DB1",
"`  c #909CB4",
"'  c #929EB6",
"]  c #939FB7",
"[  c #939FB8",
"{  c #96A1B6",
"}  c #94A0B8",
"|  c #94A0B9",
" . c #95A1B9",
".. c #97A2B9",
"X. c #96A2BA",
"o. c #99A4BB",
"O. c #99A5BC",
"+. c #9AA5BC",
"@. c #9EA8BD",
"#. c #9EA9BD",
"$. c #9CA8BE",
"%. c #9DA8BE",
"&. c #9CA8BF",
"*. c #9EA8BE",
"=. c #9EA9BE",
"-. c #9EA9BF",
";. c #9FAABF",
":. c #A1ACC1",
">. c #A2ACC1",
",. c #A1ACC2",
"<. c #A1ADC3",
"1. c #A3ADC2",
"2. c #A3AEC3",
"3. c #A4AFC4",
"4. c #A5AFC4",
/* pixels */
"                                                                                                                        ",
"                                                                                                                        ",
"                                                                                                                        ",
"                                                                                                                        ",
"                                                                                                                        ",
"                                                                                                                        ",
"                                                                                                                        ",
"                                                    D D D D D D D D                                                     ",
"                                                D D D D D D D D D D D D                                                 ",
"                                                Y D D D D D D D D D D D                                                 ",
"                                                n D D D D D D D D D D N                                                 ",
"                            D D D D C C Y V q 2 a D D D V D D A V D V a 2 q V Y D D D D D D                             ",
"                          Y D D D D D D Y N q < y R ( ( E E E ! / ( E y < q N Y D D D D D D D                           ",
"                          Y D D D D D D Y N q < h #.:.#.;.;.;.;.-.,.#.h < q N Y D D D D D D Y                           ",
"                          b Y D D D D D Y N q 1 d +.#.+.+.+.+.+.+.-.+.d 1 q N Y D D D D P C n                           ",
": 5 c Y D D D D D E b 6 3 k Y C C C C C Y V e < w v v v v v v v v v v e < e V Y C C C C P P j 3 6 b ~ P D D D D Y c 5 : ",
": 6 c Y D D D D D E n 6 2 l [ [ ' ' ' ' | ` t < 8 s s s s s s s s s s 8 < t ! } } } ' ' [ [ l 2 6 v E D D D D D E c 5 : ",
": 4 c Y D D D D D E v 6 3 b 2.2.:.:.:.:.:.#.d < 8 s k s s s s s s s s 8 1 p #.3.;.:.:.;.2.2.b 3 6 b R D D D D D E v 4 : ",
": 5 l R D V D D C R v 6 3 l X.[ | | [ [ | ( t < 8 s z s s s z s s x s 9 1 t ` | | | } } | | l 2 6 v D D D D D D Y c 5 : ",
": 4 c E D D D D D R b 6 < p x c x x c x c x 8 < 9 s k s z s z s s x s 9 , 9 k c x x c x x c t 2 7 b R D D D D D E l 5 : ",
": 6 D +.........| +.H q < 0 g s z s s s s a 5 < 9 s z k s s s z s x s 9 < 5 a s z s s s s s 0 < 9 H +.{ ........+.A 6 : ",
": 7 ) 4.:.:.:.:.:.4.{ q 1 0 g g z s g z g g 8 < 9 s g s s z s s s g s 9 < 8 g x s z s s z s r < e { 4.;.:.:.4.;.4.` 7 : ",
": 6 v ) R E E E E ' b 6 1 r x g s s f f z s 0 <   s x s s s k s g x s   < 0 s x z k s z z z w < 6 b ' E E E E E ( v 6 : ",
": 3 a x x x x k x x a 5 < r g x f z z s g g                                 s s s s s s f k r < 5 s x k x k x x x a 2 : ",
": 2 i g g g s a s s a 9                                                                         9 a g g a g g g z i 2 : ",
": 2 i x g g g g g s g                                                                             x g g g g g g x i 3 : ",
": 3 a x x x z x x x x                                                                             x x x x x g z x a 3 : ",
": 2 w a i i i i i i i                                                                             i i i i i i i i w 2 : ",
": > 1 3 2 2 2 2 2 2 2                                                                             2 2 2 2 2 2 2 2 < > > ",
": < 4 6 6 6 6 5 6 6 6                                                                             6 6 6 5 6 6 4 6 4 < : ",
": 6 b K K H E J H H J                                                                             J H H J H ) J ` b 8 : ",
": 7 D &.+.+.+.+.+.+.+.                                                                            +.+.+.+.+.+.+.&.C 6 : ",
": 3 f v c c x c c x c                                                                             c c v c c x v v s 3 : ",
": 2 i g s s g g g g s                                                                             s s a g g g g g i 2 : ",
": 2 i x g g g g g g g                                                                             x s s g g g g z i 3 : ",
": 2 i x g g g g g g g                                                                             s g g g g g a z i 2 : ",
": 3 a z g g g g g g g                                                                             g g g k s s s x a 2 : ",
": 3 a x x z z g x x x                                                                             g x x x x x x x a 3 : ",
": 2 i a s g a a s a a                                                                             g a g a s a s g i 2 : ",
"> < 2 5 3 5 3 8 5 3 5                                                                             3 8 3 5 3 5 5 5 3 , : ",
": > 1 3 1 3 1 2 2 2 2                                                                             2 2 3 1 3 2 1 3 2 > : ",
": 4 j m m b b b b b b                                                                             b b b b b b b b j 4 : ",
": 7 J :.#.#.&.&.#.-.-.                                                                            -.&.#.@.#.&.#.;.J 7 : ",
": 5 k V n n n n n n n                                                                             n n n b N n n V k 5 : ",
": 2 i s s s s s s s s                                                                             s s s s s s s f i 2 : ",
": 3 i x g s s s s s g                                                                             s s s s s g g x i 2 : ",
": 2 i x s s g s g s z                                                                             g s s s g g g x i 3 : ",
": 2 i x s x s s g s f                                                                             s g g s s g g x i 3 : ",
": 3 a z z g g x x g g                                                                             x g g g g g x x a 3 : ",
": 3 i g g g s s s s f                                                                             g s g s s s s x i 3 : ",
": 1 5 8 8 8 8 8 8 8 9                                                                             8 8 8 8 8 8 8 9 5 1 : ",
"> > < 1 < < < < < < <                         o o o o o o o o o o o o o o                         1 1 < < < < < < < > : ",
": 3 t j h h d h d j u =     X o o o o o   o o o o o X X o X o o X o o o o o o   o o X X X o     = u h h h h h h j t 3 : ",
": 7 J :.#.#.#.#.#.2.J ; o . o o o X o X o o o X o o o o o o o o o o X o o o o o o o o o o o X X ; J 2.-.#.#.#.#.>.H 6 : ",
": 5 v E Y Y R Y Y / b * o . o X X o o o o o X X o o o o X X o o X X o o o o o o X o o X X o X o * b / Y T T Y Y / v 5 : ",
": 3 i x z s k x s z p & X . X o o o o X o o o o o o o o o o o o o o o o o o o o o o o o o o X o & p x z x f x g x i 3 : ",
": 3 i s s s s s s z p & X . X o o o X o o o O + O o + # # # + # @ + o O + + o o o o o o o o o o & t g g f g g s g i 3 : ",
": 3 i k x s s s s x p & O X O o o o o o o O @ % + o # % % % % % % @ o + # # o o o o o o o o o o & t g g g g g s g i 2 : ",
": 2 i x f z g s g x p * # @ # # + o O @ @ @ % % + o # % % % % % % # o + # % # # # O O + @ # @ # * p z g g f f g x i 3 : ",
": 2 i x s z s x s x p - % $ % % # o O % % % % % + o + % % % % % % # o + % % % % # + o # % % % % - a z g g g g g x a 2 : "
};
