/* XPM */
static char *result[] = {
/* columns rows colors chars-per-pixel */
"60 60 174 2 ",
"   c #43221E",
".  c #462624",
"X  c #4A2622",
"o  c #462827",
"O  c #4C2925",
"+  c #502925",
"@  c #582C27",
"#  c #542E2A",
"$  c #582E29",
"%  c #5E332E",
"&  c #573332",
"*  c #5B3331",
"=  c #61332E",
"-  c #633631",
";  c #6B3732",
":  c #663833",
">  c #6C3B35",
",  c #6E3E39",
"<  c #643D39",
"1  c #723D37",
"2  c #743F39",
"3  c #66403B",
"4  c #6B433E",
"5  c #73403B",
"6  c #7C443D",
"7  c #5E4144",
"8  c #52424B",
"9  c #5E4349",
"0  c #524753",
"q  c #574C57",
"w  c #5C4B54",
"e  c #594D58",
"r  c #5E505B",
"t  c #604247",
"y  c #694642",
"u  c #6B4944",
"i  c #61464B",
"p  c #65494E",
"a  c #724540",
"s  c #754945",
"d  c #754E49",
"f  c #784F4A",
"g  c #7B534F",
"h  c #624B54",
"j  c #6B4F57",
"k  c #62525D",
"l  c #6D535B",
"z  c #765552",
"x  c #7D5653",
"c  c #795956",
"v  c #72555C",
"b  c #7F5B58",
"n  c #75595D",
"m  c #7D625F",
"M  c #424E63",
"N  c #455167",
"B  c #4E5467",
"V  c #47536A",
"C  c #4A566D",
"Z  c #4C586F",
"A  c #5A5362",
"S  c #52576B",
"D  c #4E5B73",
"F  c #515D75",
"G  c #625664",
"H  c #645866",
"J  c #745A61",
"K  c #7B5E62",
"L  c #556176",
"P  c #5E6174",
"I  c #54627B",
"U  c #59657B",
"Y  c #5D687E",
"T  c #7D6264",
"R  c #73646E",
"E  c #7A6E73",
"W  c #79737E",
"Q  c #834740",
"!  c #874A43",
"~  c #8D4C45",
"^  c #96524A",
"/  c #9C554D",
"(  c #805F5C",
")  c #82615E",
"_  c #835F66",
"`  c #836562",
"'  c #876966",
"]  c #8B646A",
"[  c #856C6A",
"{  c #8B706E",
"}  c #8F7673",
"|  c #847876",
" . c #8D7876",
".. c #857978",
"X. c #857371",
"o. c #907876",
"O. c #917D7B",
"+. c #8B807F",
"@. c #90807E",
"#. c #566580",
"$. c #596783",
"%. c #5B6983",
"&. c #5F6E8C",
"*. c #626E86",
"=. c #626F8B",
"-. c #637087",
";. c #6B768D",
":. c #6B788F",
">. c #757A8C",
",. c #667694",
"<. c #6D7793",
"1. c #6C7996",
"2. c #677998",
"3. c #6E7E9E",
"4. c #727A94",
"5. c #707E9B",
"6. c #787F99",
"7. c #6F7FA0",
"8. c #7E808B",
"9. c #758095",
"0. c #788397",
"q. c #72819E",
"w. c #7C869D",
"e. c #6E81A2",
"r. c #7182A2",
"t. c #7B89A4",
"y. c #7C8AA8",
"u. c #8D8787",
"i. c #8B8988",
"p. c #89868C",
"a. c #948785",
"s. c #988785",
"d. c #9B8E8C",
"f. c #968B89",
"g. c #9E918F",
"h. c #818495",
"j. c #858A95",
"k. c #8F9191",
"l. c #8C939D",
"z. c #939494",
"x. c #9E9392",
"c. c #9C9F9F",
"v. c #92949B",
"b. c #A09695",
"n. c #A19897",
"m. c #A29998",
"M. c #828EA4",
"N. c #8C8FA1",
"B. c #818FAB",
"V. c #8591A5",
"C. c #8693AE",
"Z. c #8895AF",
"A. c #8E99AF",
"S. c #9197A0",
"D. c #909AAF",
"F. c #989CAE",
"G. c #8292B0",
"H. c #8A97B1",
"J. c #8C99B3",
"K. c #929DB4",
"L. c #939FB8",
"P. c #9FA2A2",
"I. c #96A1B6",
"U. c #9AA4B7",
"Y. c #96A1B9",
"T. c #99A5BC",
"R. c #9EA9BE",
"E. c #A5A2A2",
"W. c #A9ACAC",
"Q. c #AEB0B0",
"!. c #B0B4B5",
"~. c #9EABC2",
"^. c #A2ADC2",
"/. c None",
/* pixels */
"/./././././././././././././././././././././././././././././././././././././././././././././././././././././././././././.",
"/./././././././././././././././././././././././././././././././././././././././././././././././././././././././././././.",
"/./././././././././././././././././././././././././././././././././././././././././././././././././././././././././././.",
"/./././././././././././././././././././././././././././././././././././././././././././././././././././././././././././.",
"/./././././././././././././././././././././././././././././././././././././././././././././././././././././././././././.",
"/./././././././././././././././././././././././././././././././././././././././././././././././././././././././././././.",
"/./././././././././././././././././././././././././././././././././././././././././././././././././././././././././././.",
"/./././././././././././././././././././././././././.Z.Z.Z.Z.Z.Z.Z.Z././././././././././././././././././././././././././.",
"/./././././././././././././././././././././././.Z.H.Z.Z.Z.Z.Z.Z.Z.Z.Z.Z././././././././././././././././././././././././.",
"/./././././././././././././././././././././././.H.Z.Z.Z.Z.Z.Z.Z.Z.Z.Z.Z././././././././././././././././././././././././.",
"/./././././././././././././././././././././././.B.Z.Z.Z.Z.Z.Z.Z.Z.Z.Z.C././././././././././././././././././././././././.",
"/./././././././././././././.Z.Z.Z.Z.Z.Z.H.C.-.Z 1.Z.Z.C.C.Z.C.Z.C.Z.C.1.D *.C.H.Z.Z.Z.Z.Z.Z././././././././././././././.",
"/././././././././././././.H.Z.Z.Z.Z.Z.H.Z.C.-.C :.J.K.J.J.J.J.J.J.K.J.:.C *.C.Z.Z.Z.Z.Z.Z.Z.Z./././././././././././././.",
"/././././././././././././.H.Z.Z.Z.Z.Z.Z.Z.C.*.Z 9.T.^.R.R.R.R.R.R.~.R.9.Z *.C.H.H.Z.Z.Z.Z.Z.H./././././././././././././.",
"/././././././././././././.M.H.Z.Z.H.Z.Z.H.C.*.Z 6.T.R.T.T.T.R.T.R.R.T.4.Z *.C.H.Z.Z.Z.Z.Z.Z.M./././././././././././././.",
"M I t.H.Z.Z.Z.Z.Z.J.M.U F q.H.Z.C.C.Z.C.H.C.-.C *.t.B.y.y.y.y.y.y.y.t.=.C -.C.H.Z.Z.G.C.Z.H.q.F U M.J.H.Z.Z.Z.Z.H.t.I M ",
"M U t.J.C.H.Z.C.Z.J.M.#.F w.L.L.K.K.L.K.L.J.;.C $.3.3.3.3.3.3.3.7.7.3.$.V ;.J.Y.K.K.K.Y.L.L.t.F U M.J.Z.Z.Z.Z.Z.J.t.F M ",
"M I w.H.Z.Z.Z.H.Z.J.y.U F B.^.^.^.~.^.^.^.~.4.C $.3.q.e.3.7.7.3.6.7.3.$.C 1.R.^.^.^.~.~.^.^.M.F U M.H.Z.Z.C.H.Z.J.t.#.M ",
"M I t.Z.Z.C.C.C.Z.H.M.U F w.L.L.Y.Y.L.L.Y.K.;.C $.3.e.3.7.3.3.e.7.7.7.%.C ;.K.Y.L.Y.I.L.Y.Y.t.D U y.H.C.C.C.C.Z.H.t.F N ",
"M L t.J.Z.H.C.H.Z.J.y.U C ;.t.r.r.r.r.r.t.r.#.C $.q.q.3.3.q.3.3.7.7.7.%.C $.q.t.r.t.r.r.r.r.;.Z U y.J.Z.Z.H.C.H.A.t.U M ",
"M U C.T.U.U.Y.Y.Y.T.A.%.Z &.7.7.r.3.3.3.7.2.#.C &.r.r.e.e.e.e.e.7.r.7.%.V #.3.7.3.3.3.3.3.7.&.Z *.A.T.I.Y.Y.Y.Y.U.C.U M ",
"M Y K.^.^.R.^.^.^.^.I.-.Z &.7.7.q.3.7.e.r.3.#.B #.1.3.3.3.3.3.1.3.3.3.#.N U 3.7.3.e.3.e.e.7.=.C *.I.^.^.^.^.^.^.^.K.Y M ",
"M U M.J.J.J.J.J.J.J.V.Y D &.r.r.e.r.r.r.r.7.F 8 0 A A H H H H H H G r 0 0 F 3.r.e.r.r.r.r.r.,.Z %.C.K.J.J.J.J.J.K.y.U M ",
"M F 1.r.7.r.q.q.r.r.3.F B *.1.1.1.1.1.1.3.<.H * O o # * * * * % & # o O * H <.5.1.1.1.1.1.1.*.V F 1.r.7.6.r.7.7.r.,.F M ",
"M D ,.7.7.3.3.3.3.e.,.A 8 w k G e q e k k k 9 $     X @ @ # @ @ @ X   X # 7 e G k e e e k k w 8 A <.e.3.3.3.3.3.7.,.F M ",
"M D ,.r.7.7.3.3.r.r.<.h % @ % * # o O $ $ * % $ O X # % % % % % % # X O % % % % % O o # $ % % @ h <.r.r.3.7.7.3.7.,.F M ",
"M F 2.r.r.r.r.7.r.r.<.h @ @ # @ + . O = ; - : : % # % : : : - - : * # % - - - ; % X   + @ $ @ @ h <.r.r.r.7.e.r.7.2.F M ",
"M D =.2.,.,.,.,.,.2.*.w % % % @ # . # : 1 > 1 : - % : > > > > > > : % - : 1 > 1 ; # O # * * % % h =.2.,.,.,.,.,.2.=.D M ",
"M N D D D D D Z D D C 9 ; = ; - = # * : > > > > - % : > 1 > , > > : = - > > > > : % % * : : ; - 9 Z D D D D D D D Z N N ",
"M C F U U U U U U U P l d d d z s - - > 1 > 1 > - - : > > > > > > : = - > 1 > > : - = : > 1 > 1 p P U U U U U I U I C M ",
"M U M.D.D.J.D.D.K.D.A.p.| | +.d. .4 = > > > > > - % : > > > > > > : * - > > > 1 : - = : > > > > n N.J.D.D.D.D.D.K.j.U M ",
"M Y A.T.T.T.T.T.T.T.F.S.z.z.P.Q.d.y = : > > > > - % : , > > > 1 > : = - > > > > > - = : > > > > T F.R.T.T.T.T.T.~.Z.#.M ",
"M F 5.y.t.r.y.t.t.t.t.j.k.m.Q.Q.f.u = > > > > > - % - > > , > > > : * : > > > 1 : - = : 1 > > > v 6.y.t.r.y.r.y.y.3.F M ",
"M F ,.3.3.3.7.3.7.7.<.>.X.O.s.s.[ < = : f ( x > = = : > > > > > > > % - > z ` f > = = : > > > > l <.7.7.7.7.3.3.7.,.D M ",
"M F ,.r.7.3.7.7.7.7.,.J a a s s 4 - = > ' b.{ > = % : > 1 > > > > : % = , { x.' > $ - : > > ; 1 l <.r.7.7.7.3.3.r.,.D M ",
"M D ,.r.3.7.3.7.7.7.<.l ; ; ; ; - % = > ( o.( 1 = - : > > > > > > - % = , ( o.b > - % : 1 ; ; > J <.e.7.7.7.3.7.r.2.D M ",
"M D ,.r.7.7.7.7.7.7.<.v > > > > : = - > , 5 1 > - % : > > > > , > : % - > 2 5 2 > - $ ; > 1 > > l <.7.7.3.3.3.3.r.,.F M ",
"M F 2.r.r.r.r.e.r.r.<.l > > > > : = - : > ; > > - % : > , > > > > : % - > : > > : - = ; s ' ` a l <.r.r.r.r.r.r.r.2.F M ",
"M D ,.3.1.3.3.7.3.3.;.v > > > > : % - > > > > > - % : > > > 1 > > : - - > 1 > > > - = = x g.d.f j <.3.3.1.3.1.3.3.,.D M ",
"N V D I I F F F F F F p > > > 1 : - * > 1 > > > - % : > > > > > > : * - > > > > : - = = ( m.g.f 9 F F I F I I I F F C M ",
"M N S F F Z Z F F F S i > 1 > > : = - > > > > > - = : > > > > , > : * - > 1 > > > - % - x b.d.f t S F Z F Z D Z F Z N M ",
"M L 0.M.l.M.M.M.M.C.h.J > > > > : % - : 1 > > > - * : 1 , > > > > : = - > > > 1 : - = - ( g.d.f v h.M.M.M.N.M.M.V.0.I M ",
"M Y A.^.T.T.~.T.T.~.K.` > > > > : = - > > , > > - % : > > > > > > : - - > > > > > - % - ( b.d.s K F.^.T.R.R.R.R.R.D.Y M ",
"M I t.G.B.B.B.B.B.G.h.J > > > > : % - > > > 1 > - % : > > > 1 > > : $ - > > > > > - % - ! b.d.f v t.G.B.B.B.B.B.C.w.I M ",
"M D ,.r.5.7.3.3.5.7.<.l > > > > : = - > > > > > - = : > > > , > > : - - > > > 1 : = % - x n.g.f j <.7.3.3.3.3.3.7.,.D M ",
"M D ,.7.7.7.7.3.7.7.<.l > > > 1 : = = : > > 1 > - * : > > > > > > : * - > 1 > > > - % ; x n.g.f j <.e.7.7.3.3.7.7.,.D M ",
"M D ,.r.5.7.7.7.7.7.<.l > > > > : % - > 1 > > > - % : > , > > > > : % - > > > > > - = - f O. .s l <.e.5.3.7.7.3.r.,.D N ",
"M F ,.r.7.7.7.7.7.7.<.l > > 1 > : % - > > > > : - = : > > > > , > : % - > > > > : - * : 2 s s > l 4.e.3.e.3.3.3.r.2.D M ",
"M F 2.r.7.7.r.7.r.r.4.l > > > > : = - : > , g ) u % : > 1 > > > > : % - > z ( f > - % : 1 : ; > v <.e.e.r.7.7.r.r.,.F M ",
"M F ,.7.7.3.7.5.3.e.<.l > > 1 > ; = - > > 1 { x.T - = > > > 1 > > : % = , { b.' > = % : > 1 > > l <.7.7.7.3.3.3.r.,.D M ",
"M C #.$.%.$.$.$.#.%.P h > : > : - * - > > 1 (  .z * - , > , > > > : - = , ( o.( : = = : > > > > h P %.$.$.$.#.%.$.U C M ",
"N N V Z C C C C C Z C i , 1 1 5 : - - : > > 4 5 : % ; > > > > > > : % - > 2 2 1 > - = : > > 1 > t B Z Z Z C C C C C N N ",
"M F ;.9.6.9.9.9.9.9.>.E T m ' { b < = > > > > ; - % : > > > > > > : * - > > : > > - % : > > > > l >.0.4.6.4.9.9.0.;.F M ",
"M Y D.^.R.R.R.R.R.~.T.v.i.i.x.E.a.y = > > > 1 > - % : > > > > > > - - - : 1 > 1 : - = : > 1 ; > T F.~.~.R.R.R.R.^.A.U M ",
"M I t.J.H.H.Z.J.H.H.J.l.k.c.W.!.x.y $ > > > > > - % : > 1 > 1 > > : - - > 1 > > > - = : > > > > J M.J.H.H.H.A.J.J.y.I M ",
"M F ,.e.e.q.3.q.3.q.q.8.i.x.E.E.O.y = > > > > > - % : > , > > > > : $ - > > > > : = = ; > > > 1 v 4.e.q.e.3.q.q.r.,.F M ",
"M D ,.q.3.3.3.3.3.7.1.R x ( ) ` z < % : > > > : - = : > > : > : > : * - : > > > : - * ; 1 > ; > l :.7.5.5.7.3.3.7.,.F M ",
"M F ,.e.3.3.7.3.e.e.<.n 2 1 2 2 > * - 2 5 2 2 2 ; * > 2 6 5 5 6 2 > % ; 2 5 2 6 1 : * > 5 2 1 1 v 1.r.7.7.7.7.7.r.,.D M ",
"M F ,.r.q.7.3.3.7.7.4._ ~ ! ~ ~ 6 - > ! ^ ~ ~ ~ > - 6 ~ ~ ~ ~ ~ ~ 6 - > ~ ~ ~ ^ ! > - Q ~ ~ ~ ~ _ 4.e.7.7.5.5.7.e.1.F M ",
"M D ,.r.3.3.e.q.7.r.4.] / / / / ! : 1 ^ / / / ^ 5 - Q / / / / / / Q - 2 ^ / / / ^ 1 - ! / / / / ] 4.e.7.7.7.7.7.r.,.D M "
};
