/* XPM */
static char *result[] = {
/* columns rows colors chars-per-pixel */
"60 60 126 2 ",
"   c #3F211D",
".  c #40221E",
"X  c #412320",
"o  c #492724",
"O  c #4C2925",
"+  c #502B27",
"@  c #542D29",
"#  c #582F2A",
"$  c #5D322D",
"%  c #62332E",
"&  c #633631",
"*  c #6B3732",
"=  c #663833",
"-  c #6D3B36",
";  c #67413D",
":  c #71423D",
">  c #574045",
",  c #5E4146",
"<  c #52434C",
"1  c #574B56",
"2  c #5D4A53",
"3  c #6C4742",
"4  c #63464C",
"5  c #714641",
"6  c #744A46",
"7  c #774D49",
"8  c #784F4A",
"9  c #7A524E",
"0  c #664B52",
"q  c #6B4F57",
"w  c #6E5053",
"e  c #6D525B",
"r  c #7D5653",
"t  c #7E5853",
"y  c #705459",
"u  c #75585E",
"i  c #7F5C58",
"p  c #424E63",
"a  c #455167",
"s  c #4E5367",
"d  c #465369",
"f  c #4A566D",
"g  c #4C586F",
"h  c #515669",
"j  c #4E5B73",
"k  c #515D74",
"l  c #745B62",
"z  c #7C5E62",
"x  c #556176",
"c  c #54627B",
"v  c #59657B",
"b  c #5D687E",
"n  c #7F6267",
"m  c #88726F",
"M  c #826B70",
"N  c #837472",
"B  c #897370",
"V  c #877977",
"C  c #897A79",
"Z  c #947F7D",
"A  c #596783",
"S  c #5B6984",
"D  c #5F6E8C",
"F  c #626F86",
"G  c #616F8B",
"H  c #637087",
"J  c #61708D",
"K  c #6A758D",
"L  c #6B788F",
"P  c #7B7782",
"I  c #7B7887",
"U  c #747789",
"Y  c #747889",
"T  c #677694",
"R  c #6D7692",
"E  c #6A7996",
"W  c #6E7E9E",
"Q  c #717B93",
"!  c #717E9A",
"~  c #6F7FA0",
"^  c #837E87",
"/  c #758095",
"(  c #788397",
")  c #72819E",
"_  c #7B869D",
"`  c #6F81A2",
"'  c #7181A1",
"]  c #7B89A4",
"[  c #7C8BA9",
"{  c #968583",
"}  c #978987",
"|  c #978C8B",
" . c #9B8E8C",
".. c #9E918F",
"X. c #808495",
"o. c #828894",
"O. c #8E9090",
"+. c #929493",
"@. c #9E9290",
"#. c #9C9E9F",
"$. c #A09695",
"%. c #A29998",
"&. c #828DA4",
"*. c #818FAB",
"=. c #8591A5",
"-. c #8693AE",
";. c #8895AF",
":. c #8E99AF",
">. c #909AAF",
",. c #989CAE",
"<. c #8292B0",
"1. c #8A97B1",
"2. c #8C99B3",
"3. c #929EB5",
"4. c #989DB0",
"5. c #939FB8",
"6. c #96A1B6",
"7. c #96A1B9",
"8. c #99A5BC",
"9. c #9EA9BE",
"0. c #A0A1A1",
"q. c #ABAEAE",
"w. c #AFB2B2",
"e. c #9FACC3",
"r. c #A2ADC2",
"t. c None",
/* pixels */
"t.t.t.t.t.t.t.t.t.t.t.t.t.t.t.t.t.t.t.t.t.t.t.t.t.t.t.t.t.t.t.t.t.t.t.t.t.t.t.t.t.t.t.t.t.t.t.t.t.t.t.t.t.t.t.t.t.t.t.t.",
"t.t.t.t.t.t.t.t.t.t.t.t.t.t.t.t.t.t.t.t.t.t.t.t.t.t.t.t.t.t.t.t.t.t.t.t.t.t.t.t.t.t.t.t.t.t.t.t.t.t.t.t.t.t.t.t.t.t.t.t.",
"t.t.t.t.t.t.t.t.t.t.t.t.t.t.t.t.t.t.t.t.t.t.t.t.t.t.t.t.t.t.t.t.t.t.t.t.t.t.t.t.t.t.t.t.t.t.t.t.t.t.t.t.t.t.t.t.t.t.t.t.",
"t.t.t.t.t.t.t.t.t.t.t.t.t.t.t.t.t.t.t.t.t.t.t.t.t.t.t.t.t.t.t.t.t.t.t.t.t.t.t.t.t.t.t.t.t.t.t.t.t.t.t.t.t.t.t.t.t.t.t.t.",
"t.t.t.t.t.t.t.t.t.t.t.t.t.t.t.t.t.t.t.t.t.t.t.t.t.t.t.t.t.t.t.t.t.t.t.t.t.t.t.t.t.t.t.t.t.t.t.t.t.t.t.t.t.t.t.t.t.t.t.t.",
"t.t.t.t.t.t.t.t.t.t.t.t.t.t.t.t.t.t.t.t.t.t.t.t.t.t.t.t.t.t.t.t.t.t.t.t.t.t.t.t.t.t.t.t.t.t.t.t.t.t.t.t.t.t.t.t.t.t.t.t.",
"t.t.t.t.t.t.t.t.t.t.t.t.t.t.t.t.t.t.t.t.t.t.t.t.t.t.t.t.t.t.t.t.t.t.t.t.t.t.t.t.t.t.t.t.t.t.t.t.t.t.t.t.t.t.t.t.t.t.t.t.",
"t.t.t.t.t.t.t.t.t.t.t.t.t.t.t.t.t.t.t.t.t.t.t.t.t.t.;.;.;.;.;.;.;.;.t.t.t.t.t.t.t.t.t.t.t.t.t.t.t.t.t.t.t.t.t.t.t.t.t.t.",
"t.t.t.t.t.t.t.t.t.t.t.t.t.t.t.t.t.t.t.t.t.t.t.t.;.;.;.;.;.;.;.;.;.;.;.;.t.t.t.t.t.t.t.t.t.t.t.t.t.t.t.t.t.t.t.t.t.t.t.t.",
"t.t.t.t.t.t.t.t.t.t.t.t.t.t.t.t.t.t.t.t.t.t.t.t.1.;.;.;.;.;.;.;.;.;.;.1.t.t.t.t.t.t.t.t.t.t.t.t.t.t.t.t.t.t.t.t.t.t.t.t.",
"t.t.t.t.t.t.t.t.t.t.t.t.t.t.t.t.t.t.t.t.t.t.t.t.*.;.;.;.;.;.;.;.;.;.;.-.t.t.t.t.t.t.t.t.t.t.t.t.t.t.t.t.t.t.t.t.t.t.t.t.",
"t.t.t.t.t.t.t.t.t.t.t.t.t.t.;.;.;.;.;.;.1.-.H g E ;.;.;.;.-.;.;.-.;.-.Q j F -.1.;.;.;.;.;.;.t.t.t.t.t.t.t.t.t.t.t.t.t.t.",
"t.t.t.t.t.t.t.t.t.t.t.t.t.1.;.;.;.;.;.;.;.-.F f R 1.3.2.2.2.2.2.2.2.2.L g H -.1.;.;.;.1.;.;.;.t.t.t.t.t.t.t.t.t.t.t.t.t.",
"t.t.t.t.t.t.t.t.t.t.t.t.t.1.;.;.;.;.;.;.;.-.F g / 9.r.9.9.9.9.9.9.r.9./ g S -.1.;.;.;.;.;.;.1.t.t.t.t.t.t.t.t.t.t.t.t.t.",
"t.t.t.t.t.t.t.t.t.t.t.t.t.&.1.;.;.-.;.1.1.-.H g Q 8.9.8.8.8.9.8.8.e.8.Q g F -.;.;.;.;.;.;.;.=.t.t.t.t.t.t.t.t.t.t.t.t.t.",
"p c ] 1.;.;.;.;.;.2.&.v k ) 1.;.-.1.-.-.1.-.H f H [ &.[ [ [ [ [ [ [ ] F f H -.1.;.-.;.;.;.;.) k v &.2.1.;.;.;.;.1.] c p ",
"p x ] 1.;.;.;.;.1.1.*.v j _ 5.5.3.3.3.5.7.3.K f A W W W W W W W W W W A f K 2.7.6.3.3.3.7.7.) j A &.1.;.;.;.;.;.1.] c p ",
"p v ] 1.;.;.;.;.;.1.&.v k =.r.r.r.r.r.e.r.9.Q f A W ` W W W W W W ~ W A f Y e.r.e.e.r.r.r.r.=.k c &.1.;.;.;.;.;.1.] c p ",
"p c _ 1.;.;.;.-.;.1.[ v k _ 7.5.5.5.5.5.7.2.K f S W ) ) W W W ` W ' W A f L 2.7.5.7.6.5.7.7._ j v &.:.-.;.-.;.;.1.] c p ",
"p v ] 1.;.;.;.;.;.1.&.v f T ' ] ] ' ] ' ] ' S d S W W W W ` W W W ' W S d S ' ] ' ' ] ' ' ] T d v [ 1.;.;.;.;.;.:.] c p ",
"p v -.8.8.6.8.8.7.8.2.F f D ~ W W W W W W E c f S W ' ~ ) W ) W W ) W S a A E W W W W W W W D j F :.8.6.8.6.8.8.8.-.v p ",
"p b >.r.9.r.9.r.r.r.6.F f J ' ~ W W W ~ ~ ~ A f S W W W W W W W W ` W S d A W ' W ` ~ W ~ ~ D f F 6.r.r.r.9.9.r.r.4.b p ",
"p v &.2.2.1.1.2.2.3.&.v f J ' ~ W W W W ` W D f t.W ' W ) W ` W ~ ' ~ t.f D W ' W W ~ ~ W ~ D f S =.3.1.2.2.2.2.2.[ v p ",
"p k E ' ' ' ) ' ' ' E c f J ~ ' W ~ ~ W W ~ t.t.t.t.t.t.t.t.t.t.t.t.t.t.t.t.W ~ ) W W ) ` ) D g c E ' ' ' ) ' ' ' E j p ",
"p j T ~ ~ ~ W W W W E S t.t.t.t.t.t.t.t.t.t.t.t.t.t.t.t.t.t.t.t.t.t.t.t.t.t.t.t.t.t.t.t.t.t.t.t.A W W W W W W W ~ T j p ",
"p k E ' ~ ~ ~ W ~ W ~ t.t.t.t.t.t.t.t.t.t.t.t.t.t.t.t.t.t.t.t.t.t.t.t.t.t.t.t.t.t.t.t.t.t.t.t.t.t.W ~ W W W W W ~ T j p ",
"p k E ` ' ' ~ ~ ' ' ' t.t.t.t.t.t.t.t.t.t.t.t.t.t.t.t.t.t.t.t.t.t.t.t.t.t.t.t.t.t.t.t.t.t.t.t.t.t.' ' ' ~ ' ~ ' ` W k p ",
"p j J T T T T T T T T t.t.t.t.t.t.t.t.t.t.t.t.t.t.t.t.t.t.t.t.t.t.t.t.t.t.t.t.t.t.t.t.t.t.t.t.t.t.T T T T T T T E J j p ",
"a a g j j j j j g j j t.t.t.t.t.t.t.t.t.t.t.t.t.t.t.t.t.t.t.t.t.t.t.t.t.t.t.t.t.t.t.t.t.t.t.t.t.t.j j j j j j j j f d p ",
"p f x v c v v c v v v t.t.t.t.t.t.t.t.t.t.t.t.t.t.t.t.t.t.t.t.t.t.t.t.t.t.t.t.t.t.t.t.t.t.t.t.t.t.v v v v v v c v c d p ",
"p c &.4.>.>.>.>.3.:.>.t.t.t.t.t.t.t.t.t.t.t.t.X X X X . X . X X X . . X X t.t.t.t.t.t.t.t.t.t.t.t.>.>.>.>.:.>.>.3.o.A p ",
"p v ;.8.8.8.8.8.8.8.6.I t.t.t.t.t.t.t.t.t.t.X X X X X X X X X X X X X X X X t.t.t.t.t.t.t.t.t.t.I 6.8.8.8.8.8.8.e.1.v p ",
"p k ! [ ] ] ] ' [ [ E 1 .   X X X . X X X X X . X X X X X X X X X X X X X X X X X X X X X X     1 ! [ ] ] [ ' [ [ W k p ",
"p k T ` W W W W ~ ~ T < . . . X . X X . X X X X X X X X X X X X X X X X X X X X X X X X X X   X < T ~ W ~ E W W ~ T j p ",
"a j T ` W ` W ~ ~ ` T < .   X X X X X X . X X X X X X X X X X X X X X X X X X X X X X X X X     < R ' ~ ~ ~ ~ W ' T j p ",
"p j T ' W ~ W W ~ ` R < X   X X . X X X . X o o X X o o O O O O o X X X O X X X X X X X X X   X < T ` ~ ~ ~ ~ W ' T j p ",
"p j T ' ` W ~ ~ ~ ' R < X   . X X X X X X X O @ o X O @ $ @ # # @ + X O @ O X X X X X X X X X X < R ~ ~ ~ ~ ! W ' T j p ",
"p k T ' ' ' ` ~ ~ ' T 2 O O + O O X X O O O @ @ o X @ @ $ $ # # $ + X O @ @ O + o o X o o O o O 2 R ` ' ' ' ' ~ ' E k p ",
"p j T W W W E ~ W ~ K 2 # # # $ @ X o @ $ $ $ # O X @ $ $ $ @ # $ + X O $ @ $ @ @ o o + @ $ @ @ 2 R ~ W W E W W ~ T j p ",
"a d j c k c k c A k k > $ # # # @ X O % = = = = $ @ $ = & & = = & $ @ $ = = = = & + X + $ # # $ < j k c c k k k k k f p ",
"a d g k j j j j f j h > $ # % # @ o + = - - - - & & = - - - - : - = $ & - - - : ; O o @ $ $ $ $ > h j j j k g k k g a p ",
"p x ( =.=.o.&.&.&.=.X.y % % % & $ @ $ - - - - - & & = - - - - - - - $ % - - - - = $ @ $ = = % = y X.=.&.=.o.&.&.=.( c p ",
"p v :.r.9.9.e.9.e.e.4.M 6 5 6 7 5 = $ * - : - - & $ = - - - - - - = $ = - - - - - & $ = - - - - z 4.e.e.e.e.9.e.r.:.b p ",
"p x ' -.[ -.[ [ *.*.[ ^ N B C } B ; $ - - - - - & $ - - - - - - - = $ - - - - - - & & = - - - - l &.[ *.[ *.*.*.-.) c p ",
"p j T ` W W W W W W ) o.O.+.,.q.| 3 $ - - - - - & $ = - - - - - - = $ = - - - - - & $ = - - - - e R ' ~ W W W W ! T j p ",
"p j T ' W ~ W W W W ) o.+.0.q.w.} 4 $ * - - - - & $ = - - - - - - = $ & - - - - - % $ * - - - - e R ` ~ W W W W ' T j p ",
"a j T ' W ) ~ ) W ~ / P V {  . .B 3 & - - - - - & $ = - - - - - - = $ & - - - - - $ $ - - * * - e Q ` ~ W ~ ~ ~ ' T k p ",
"p j T ' ~ W W W W ` R l 6 7 8 7 3 & & - - - - - & & = - - - : - - = $ & - - - - - & $ - - - - - e R ` W W W ~ ` ' T k p ",
"p j T ' ' ' ` ! ~ ` Q e * * * * * $ & = - - - - & $ = - - - - - - = $ & - - - - * % % * : i t : y L ` ` ` ) ) ` ' E k p ",
"a j T ` ~ W W ~ ~ ~ R e - - - - - $ & - - - - - & & = - - - - - - = $ & - - - - * % % % 9  .{ 7 e R ` ) W W W W ' T j p ",
"p d c S S A A A A A v 0 - - - - = $ & = - - - - & $ = - - - - - - = $ & - - - - * % % % t %.@.8 4 v S v A S A A S c f p ",
"a a f g f f f f f f s 4 - - - - = % & - - - - - & & = - - - - - - - $ = - - - - * % % * t @...8 4 s f f f f f d f f a p ",
"p k L ( Q / / / Q ( U y - - - - = & & - - - - - & $ = - - - - - - = $ % - - - - * % % % M $. .6 w U ( / / / / / / L k p ",
"p b >.9.9.9.9.9.r.r.4.n - - - - = $ & * - - - - = $ = - - - - - - = $ = - - - - * % % % 7 $.{ - z ,.e.9.9.9.9.9.r.:.b p ",
"p x [ 2.1.1.1.1.1.2.&.z - - - - = % = - - - - - & $ - - - - - - - - $ = - - - : * * % % M Z  .M u &.2.1.1.1.1.1.2.[ c p ",
"p k T ` ` ) ) ) ~ ~ Q y - - - - = $ = - - - - - = $ = - : - - - - = $ - - - - - * % # * M ..{ - e R ` ` ` W ) ) ' E k p ",
"p k T W W W W W W ` R e - - - - = % & = - - - - = $ = - - - - - - = $ & - - - - - & $ = M  . .M q R ~ W W W W W ~ T j p ",
"p k T ' W W W W W ` Q e - - - - = % & - - - - - = & = - - - - - - = $ & - - - - - = $ = 9 { Z 5 q Q ~ W ~ ~ ~ W ' T j p ",
"p k T ' W ) W ~ ~ ' R e - - - - = % & = - - - - & $ = - - - - - - = $ = - - - - - & $ * : r 9 - y R ` ~ ~ ! ~ ~ ' T k p ",
"p j T ' W ` W ) ~ ' R e - - - - = $ & - - - - * & & = - - - - - - = $ & - - - - - & $ = - - - = y R ` W ~ ~ ~ ~ ' T j p "
};
