/* XPM */
static char *fba3c80b6425498fad6aeede0c29ce92CPzU0xnjIhsqfQ3I[] = {
/* columns rows colors chars-per-pixel */
"60 60 154 2 ",
"   c None",
".  c #3F201D",
"X  c #40221E",
"o  c #422320",
"O  c #482724",
"+  c #4C2926",
"@  c #502B27",
"#  c #542D29",
"$  c #592F2B",
"%  c #5C322D",
"&  c #61332E",
"*  c #633531",
"=  c #6B3731",
"-  c #663833",
";  c #6D3B36",
":  c #653E39",
">  c #6E3E39",
",  c #70403B",
"<  c #51434D",
"1  c #5F464D",
"2  c #564650",
"3  c #5B4A53",
"4  c #694541",
"5  c #6A4844",
"6  c #60454A",
"7  c #754945",
"8  c #784F4B",
"9  c #614D56",
"0  c #6B4F57",
"q  c #61545A",
"w  c #6D535B",
"e  c #7B5652",
"r  c #7A5A56",
"t  c #705458",
"y  c #7C625F",
"u  c #424E63",
"i  c #455167",
"p  c #4E5367",
"a  c #465369",
"s  c #4A566D",
"d  c #4C586F",
"f  c #4E5B73",
"g  c #515D75",
"h  c #775C62",
"j  c #556176",
"k  c #54627B",
"l  c #59657B",
"z  c #5D687E",
"x  c #7E6364",
"c  c #74656E",
"v  c #7A6E73",
"b  c #81615D",
"n  c #856562",
"m  c #816865",
"M  c #8B726F",
"N  c #8F7673",
"B  c #927C7A",
"V  c #90807E",
"C  c #596783",
"Z  c #5B6984",
"A  c #5F6E8C",
"S  c #626F86",
"D  c #616F8B",
"F  c #637087",
"G  c #61708D",
"H  c #6A768C",
"J  c #6B788F",
"K  c #757A8C",
"L  c #677694",
"P  c #6C7692",
"I  c #6A7996",
"U  c #6E7E9E",
"Y  c #727D93",
"T  c #707E9B",
"R  c #6F7FA0",
"E  c #7F818C",
"W  c #758095",
"Q  c #788397",
"!  c #72819E",
"~  c #7B859B",
"^  c #6F81A2",
"/  c #7181A1",
"(  c #7B89A5",
")  c #7C8AA8",
"_  c #8D8787",
"`  c #8B8988",
"'  c #948785",
"]  c #998F8E",
"[  c #9E908E",
"{  c #8C939D",
"}  c #939494",
"|  c #9D9796",
" . c #9C9F9F",
".. c #92949B",
"X. c #A19897",
"o. c #828EA4",
"O. c #818FAB",
"+. c #8690A5",
"@. c #8391AE",
"#. c #8592AC",
"$. c #8693AE",
"%. c #8794AE",
"&. c #8794AF",
"*. c #8894AB",
"=. c #8895AF",
"-. c #8A96AD",
";. c #8A96AE",
":. c #8E99AF",
">. c #8E99AE",
",. c #909AAF",
"<. c #909BAF",
"1. c #9399AC",
"2. c #989CAE",
"3. c #8393B1",
"4. c #8996B0",
"5. c #8A97B1",
"6. c #8A97B2",
"7. c #8A97B2",
"8. c #8B98B2",
"9. c #8C98B2",
"0. c #8C99B2",
"q. c #8D9AB3",
"w. c #8F9BB3",
"e. c #8E9BB5",
"r. c #8F9CB5",
"t. c #8C99B5",
"y. c #929DB1",
"u. c #929EB6",
"i. c #939FB7",
"p. c #909CB4",
"a. c #939FB8",
"s. c #96A1B6",
"d. c #9CA5B7",
"f. c #94A0B9",
"g. c #97A2B9",
"h. c #96A2BA",
"j. c #99A4BB",
"k. c #99A5BC",
"l. c #9AA5BC",
"z. c #9DA8BE",
"x. c #9CA8BF",
"c. c #9EA9BF",
"v. c #9FAABF",
"b. c #9EA8BD",
"n. c #9EA9BE",
"m. c #A7A2A2",
"M. c #A7ABAB",
"N. c #B0B4B5",
"B. c #A1ACC1",
"V. c #A2ACC1",
"C. c #A2ADC2",
"Z. c #A1ADC4",
"A. c #A5AFC4",
"S. c #A1ACC1",
/* pixels */
"                                                                                                                        ",
"                                                                                                                        ",
"                                                                                                                        ",
"                                                                                                                        ",
"                                                                                                                        ",
"                                                                                                                        ",
"                                                                                                                        ",
"                                                    =.=.=.=.=.=.=.=.                                                    ",
"                                                =.=.=.=.=.=.=.=.=.=.=.=.                                                ",
"                                                5.=.=.=.=.=.=.=.=.=.=.5.                                                ",
"                                                O.=.=.=.=.=.=.=.=.=.=.#.                                                ",
"                            =.=.=.=.=.=.5.#.S f I =.=.=.%.%.*.=.%.=.%.I f S #.5.=.=.=.=.=.=.                            ",
"                          5.=.=.=.=.=.=.5.#.S s J 9.p.9.9.9.w.w.9.p.9.H s S #.5.=.=.=.=.4.%.%.                          ",
"                          5.=.=.=.=.=.=.5.#.S d W v.B.v.v.v.v.v.v.S.v.W d D #.5.=.=.=.=.%.4.5.                          ",
"                          o.5.%.%.5.=.=.5.#.S d Y k.v.l.k.k.k.k.l.v.l.Y d S #.5.4.5.=.=.4.%.O.                          ",
"u k ( 5.=.=.=.=.=.9.o.l g ! 5.%.4.#.4.%.5.#.F s D ) ) ) ) ) ) ) ) ) ) D s F #.5.#.#.4.%.4.4.Q g l o.8.5.5.%.=.=.5.( k u ",
"u l ( 5.=.=.=.=.=.t.o.l f ~ a.a.p.p.a.p.f.9.H s C U U U U U U U U U U C s H w.f.p.f.p.f.p.h.~ f l ) 9.=.=.=.=.=.5.( k u ",
"u j ( 9.=.=.=.5.=.9.) l g o.A.C.S.S.B.B.B.v.Y s C U ^ U U ! U U U ! U C s P v.Z.B.B.v.v.S.S.o.g l o.t.=.=.=.=.=.5.) k u ",
"u k ( =.%.%.*.#.%.t.) l g ~ f.f.a.a.a.a.f.r.H s C U ! U U ! U U U / U Z s H y.h.f.h.f.f.h.h.~ f l ) =.*.=.=.=.=.5.( k u ",
"u j ( 5.5.=.=.=.%.t.o.l d L / ( / ( / ( ( / C s C ! R U U U U ^ U / U Z s C / ( / / ( / ( / L f l o.t.=.=.=.=.=.:.( k u ",
"u l *.k.g.g.g.g.s.l.>.Z s A U U R U U U U I k s C U / U R U U U U / U C i C I U ! U U U U U A s Z >.l.g.g.g.g.g.l.*.l u ",
"u z y.A.B.B.B.A.B.A.s.F s A R R U R R ! R R C s C U / U U ^ U ! U / U C s C R R U U R ! R R G s F s.A.v.B.B.A.v.A.<.z u ",
"u l ) p.9.9.9.9.9.p.o.z s L / R U R U U R U A s   U / U ^ U R U U / U   s A U / ! U ^ U U R A s z +.p.9.9.9.9.9.r.) k u ",
"u g I / / ! / / / / I k s G R / R U U R R R                                 R R U U U U ^ ! G s k U / / / ! / / / I g u ",
"u f L R R U I R R R I Z                                                                         C I U U U U U U R L g u ",
"u f I ^ R R R R T R R                                                                             ^ U R U U U U / L g u ",
"u g I / / / ^ ^ / / /                                                                             / / / / / R / / I g u ",
"u f D I L L L L L L L                                                                             L L L L L L L I D f u ",
"u i d f f f f f f f f                                                                             f f f f f f f f s i u ",
"u s j l l k j l l l j                                                                             l j j l j l l l j s u ",
"u l o.<.<.9.y.y.<.<.<.                                                                            y.y.<.<.<.9.<.y.o.k u ",
"u z =.v.k.k.j.j.k.k.k.                                                                            k.k.k.j.k.k.k.v.=.C u ",
"u g T ) ( ( ( / ) ) (                                                                             ( ( ) ) ) / ) ) U f u ",
"u g L R U U R U R I U                                                                             R R I U R R R R L f u ",
"u f L R U R R R R R R                                                                             T R R R R I R ^ L g u ",
"u g L / R R R R R R R                                                                             R R R U U R R / L g u ",
"u g L / R R R R R R R                                                                             R R R U U U U / L g u ",
"u g L / / / R R / / /                                                                             / / / / / / / / I g u ",
"u f L U U I R I U I I                                                                             I R I U I I U R L f u ",
"u s f k g k g C k g k                         o o o o o o o o o o o o o o                         C g k g k k j k g a u ",
"u a d g f f d f f f g                       o X X o o o o o o o o o o X X o                       d g f f f d f g d a u ",
"u j Q o.{ o.o.o.o.+.~ q X X o o o o o o o o o o o o X X o X o o X X o o o o o o o o o o o o . o 9 o.o.o.o.{ o.o.+.~ j u ",
"u z <.S.x.x.v.x.c.C.<.q X . X o o o o o o o o o o o X o o X o X o X o o o o o o o o o X X o . X q <.C.c.l.v.x.v.V.>.C u ",
"u j ! @.O.O.@.) O.3.~ 2 o . o o X o o o o o o o X o o X X o o X X o o X o o o o o X X o o o . o 2 ~ 3.) O.O.O.O.O.~ g u ",
"u g L U U U U U R R P < . X o o o o o o o o o O o o o O O O o O O o o o o o o o o o o X X o X X < P R U U U U U R L f u ",
"u g L R R R U R R ^ H < o . X X o o o o o o + # O o + # # # # # @ + o + @ + o o o o X X X o X X < P ^ R U U U R R I g u ",
"u f L / R T R U R ^ P 2 O O O O O o o O o O # # + o @ $ $ % $ $ % @ O O $ @ O O O o X O O O O O 2 P / U U R R R ^ L g u ",
"u g L / U ^ T R R ^ P 3 # # # # @ o O # # # $ # + o # $ % % $ $ # @ o + % # # # @ O O + # # # # 3 P ^ R U U R R / L g u ",
"u g I / ^ R R / R / P 9 % $ $ % # o + % * * * * # + # * * * * * * # + # & * & * % + O @ $ $ $ $ 9 I R R R R R R R I g u ",
"u g L R R U U U R / P 9 $ $ $ $ # O # - ; - ; - * $ - - ; - ; ; : - % * - ; ; ; - + O @ $ % $ $ 9 P R R R R R R R L g u ",
"u s C C C C C C C Z j 6 & & & % $ # $ - ; ; > ; * * - ; > ; ; ; > - & * ; > ; > - $ @ % * * & & 6 g D C Z Z Z Z C l d u ",
"i i a s s s s s s f p 6 > > > > - % & - ; ; ; ; * * - ; ; ; ; ; > - % * - ; ; > ; * % = ; ; ; ; 6 p s s s s s d d s i u ",
"u g H Q W Y W W Y W Y v x y n N r ; & ; ; ; ; ; - % - ; ; ; ; > ; - & * ; ; ; ; ; * & - > ; ; ; t K Q Y Y Y Y Q Y J g u ",
"u z >.B.v.v.b.b.v.c.d...` _ } m.' 4 & ; ; ; ; ; * & - ; ; ; ; ; ; - & * ; ; ; ; ; & % - ; ; = ; x 2.C.c.c.c.c.v.S.:.z u ",
"u j ) 9.5.5.9.5.5.5.=...}  .M.N.| 5 & = > ; > ; * % ; ; > ; ; ; > - & * ; ; ; ; ; * & = ; ; = ; h o.e.5.9.9.9.9.t.) l u ",
"u g L / ^ U ! ! / ! ! K ` | m.m.B 4 & ; ; ; ; ; * * - ; > ; ; ; ; - & = ; ; ; > ; * & ; ; ; ; ; t P / R R R R T R I g u ",
"u g L U U U U U U R I c e b n n e - & : ; ; ; ; = & - ; ; ; ; ; ; - % * - ; ; ; ; * & = ; ; = ; t P R R R T R T R L g u ",
"u g L / R ^ U U U / Y w ; ; ; ; - & * - ; ; ; ; * & - > ; ; ; ; ; - & * ; ; ; ; > * % - > 7 7 ; w I R R T R R R R I g u ",
"u g L / R T T R R / P w = = ; ; = % * ; ; ; ; ; - $ - - ; ; ; > ; - & * ; ; ; > - * & * 7 B N 7 w P / R R R R R R L g u ",
"u f L / U R ^ R R / P w ; ; ; > - * * - > ; ; ; * & - > ; ; ; ; ; - & * ; > ; ; ; * * * b X.] 8 0 I / R T R R R R I f u "
};
