/* XPM */
static char *b78d9eedfea344f0cd368159e46c9f5d05ql6BNd5zghCmMv[] = {
/* columns rows colors chars-per-pixel */
"60 60 220 2 ",
"   c None",
".  c #404D63",
"X  c #414D63",
"o  c #424D63",
"O  c #424E63",
"+  c #424E64",
"@  c #434F64",
"#  c #434F65",
"$  c #455167",
"%  c #465268",
"&  c #465269",
"*  c #47546B",
"=  c #48546B",
"-  c #49556B",
";  c #48556C",
":  c #49556C",
">  c #49566C",
",  c #49566D",
"<  c #4A566D",
"1  c #4A576D",
"2  c #49566E",
"3  c #4A566E",
"4  c #4A576E",
"5  c #4B576E",
"6  c #4B586F",
"7  c #4C586E",
"8  c #4D596F",
"9  c #4B5871",
"0  c #4D5970",
"q  c #4F5B71",
"w  c #4D5A72",
"e  c #4D5A73",
"r  c #4F5B72",
"t  c #4E5B74",
"y  c #4F5C75",
"u  c #4F5D75",
"i  c #505C71",
"p  c #505C72",
"a  c #515D72",
"s  c #515D74",
"d  c #505D75",
"f  c #525E74",
"g  c #505D76",
"h  c #505D77",
"j  c #525F77",
"k  c #556176",
"l  c #536079",
"z  c #52607A",
"x  c #53617B",
"c  c #546179",
"v  c #56627A",
"b  c #56637A",
"n  c #57637A",
"m  c #57637B",
"M  c #57647B",
"N  c #55637E",
"B  c #56647F",
"V  c #59647A",
"C  c #59657A",
"Z  c #5A657A",
"A  c #58657C",
"S  c #59657C",
"D  c #59657D",
"F  c #5A667D",
"G  c #5B677D",
"H  c #5B677E",
"J  c #5C687E",
"K  c #5D687E",
"L  c #5E697F",
"P  c #586681",
"I  c #596783",
"U  c #596883",
"Y  c #5B6882",
"T  c #5F6B81",
"R  c #5A6884",
"E  c #5B6984",
"W  c #5F6E8C",
"Q  c #636F84",
"!  c #626F87",
"~  c #636F87",
"^  c #616F89",
"/  c #606E8B",
"(  c #606F8C",
")  c #616F8C",
"_  c #637087",
"`  c #61708D",
"'  c #69758B",
"]  c #6A768C",
"[  c #6C778C",
"{  c #6B788F",
"}  c #657491",
"|  c #667490",
" . c #667594",
".. c #667694",
"X. c #677694",
"o. c #677695",
"O. c #677795",
"+. c #687795",
"@. c #687896",
"#. c #697896",
"$. c #697897",
"%. c #6F7C95",
"&. c #6B7B9B",
"*. c #6C7B9A",
"=. c #6C7B9B",
"-. c #6C7C9B",
";. c #6D7D9D",
":. c #6D7D9E",
">. c #6D7E9E",
",. c #6E7E9E",
"<. c #6F7E9E",
"1. c #6E7E9F",
"2. c #6E7F9F",
"3. c #6F7F9F",
"4. c #717C91",
"5. c #737E95",
"6. c #707E9B",
"7. c #6F7FA0",
"8. c #758094",
"9. c #778195",
"0. c #758096",
"q. c #788397",
"w. c #70809F",
"e. c #76839C",
"r. c #76849F",
"t. c #79859C",
"y. c #7B879E",
"u. c #6F80A0",
"i. c #7080A0",
"p. c #7181A0",
"a. c #7080A1",
"s. c #7081A1",
"d. c #7181A1",
"f. c #7383A1",
"g. c #7181A2",
"h. c #7383A2",
"j. c #7282A3",
"k. c #7383A3",
"l. c #7585A3",
"z. c #7685A4",
"x. c #7786A5",
"c. c #7B88A2",
"v. c #7C89A2",
"b. c #7988A6",
"n. c #7B8AA7",
"m. c #7D8AA4",
"M. c #7F8CA5",
"N. c #7F8CA6",
"B. c #7B8AA8",
"V. c #7C8AA8",
"C. c #7D8CA9",
"Z. c #838DA2",
"A. c #838EA2",
"S. c #848EA2",
"D. c #808DA6",
"F. c #858FA5",
"G. c #818EA8",
"H. c #828FA9",
"J. c #838FA9",
"K. c #818FAC",
"L. c #8690A4",
"P. c #8391AE",
"I. c #8592AC",
"U. c #8693AE",
"Y. c #8794AE",
"T. c #8794AF",
"R. c #8795AF",
"E. c #8894AB",
"W. c #8A96AD",
"Q. c #8895AF",
"!. c #8D98AF",
"~. c #8E99AE",
"^. c #8E99AF",
"/. c #909AAF",
"(. c #909BAF",
"). c #8896B0",
"_. c #8996B0",
"`. c #8997B1",
"'. c #8A97B1",
"]. c #8A97B2",
"[. c #8B98B2",
"{. c #8C98B2",
"}. c #8C99B2",
"|. c #8D9AB3",
" X c #8F9BB3",
".X c #8C99B4",
"XX c #8E9BB5",
"oX c #8F9CB5",
"OX c #919CB1",
"+X c #939DB1",
"@X c #909CB4",
"#X c #929EB6",
"$X c #939FB7",
"%X c #939FB8",
"&X c #96A1B6",
"*X c #94A0B8",
"=X c #94A0B9",
"-X c #95A1B9",
";X c #97A2B9",
":X c #96A2BA",
">X c #99A4BB",
",X c #99A5BC",
"<X c #9AA5BC",
"1X c #9EA8BD",
"2X c #9EA9BD",
"3X c #9CA8BE",
"4X c #9DA8BE",
"5X c #9CA8BF",
"6X c #9EA8BE",
"7X c #9EA9BE",
"8X c #9EA9BF",
"9X c #9FAABF",
"0X c gray68",
"qX c #A1ACC1",
"wX c #A2ACC1",
"eX c #A1ACC2",
"rX c #A3ADC2",
"tX c #A3AEC3",
"yX c #A4AFC4",
"uX c #A5AFC4",
/* pixels */
"                                                                                                                        ",
"                                                                                                                        ",
"                                                                                                                        ",
"                                                                                                                        ",
"                                                                                                                        ",
"                                                                                                                        ",
"                                                                                                                        ",
"                                                    Q.Q.Q.Q.Q.Q.Q.Q.                                                    ",
"                                                Q.Q.Q.Q.Q.Q.Q.Q.Q.Q.Q.Q.                                                ",
"                                                ].Q.Y.Y.Q.Q.Q.Q.Q.Q.Q.Q.                                                ",
"                                                G.Y.R.].Q.Q.Q.Q.Q.Q.Q.P.                                                ",
"                            Q.Q.Q.Q.Q.Q.].U._ 7 5.U.R.Y.Y.Y.Y.Y.Q.Q.I.4.e _ U.].Q.Q.Q.Q.Q.Q.                            ",
"                          Q.Q.Q.Q.Q.Q.Q.[.I.! 5 ] [.oX|.|.|.|.|.|.oX|.+.5 _ I.Q.Q.Q.Q.Q.Q.Q.Q.                          ",
"                          ].Q.Q.Q.Q.Q.Q.Q.I.! 7 0.9XqX9X9X9X9X9XeX5X1X5.7 _ I.].Q.Q.Q.Q.Y.Y.].                          ",
"                          G.Q.Y.U.].Q.Q.].I.! 6 5.<X9X>X<X<X<X<X<X9X>X5.7 ! I.].U.].Q.Q.R.].G.                          ",
"X b v.].Q.Q.Q.Q.Q.[.D.S s e.].Y.U.T.R.Y.].I._ , ^ B.C.V.V.V.V.V.V.C.m.^ , _ I.].U.T.R.Y.Y.].e.s S D.|.Y.Q.Q.Q.Q.].v.b X ",
"X b v.].Q.Q.Q.Q.].[.G.S p t.%X%X#X#X#X#X%X@X' - P :.u.:.:.:.:.:.7.7.;.R , ' |.&X#X#X#X#X%X%Xt.a S D.|.Q.Q.Q.Q.Q.].v.b X ",
"X b v.].Q.Q.Q.Q.Y.].D.S s F.tXqXqXqXqXqXtX1X4., R 6.i.i.u.u.u.u.u.i.:.P , 4.9XuXqXqXqXqXqXtXF.s Z D.].Q.Q.Q.Q.Q.].v.b X ",
"X b c.].Q.Y.Y.Y.U.].D.S a y.-X-X%X%X%X%X;X#X' , R :.i.:.w.w.u.:.6.i.u.R , ] #X-X%X%X#X%X-X-Xy.e S m.].U.U.Y.Y.Q.].v.b X ",
"o b v.|.Q.Q.Q.Q.Q.[.D.S 5 | x.x.l.l.l.l.x.h.P , R 7.i.i.:.:.w.w.w.i.:.E * U i.b.l.l.l.z.z.z.' e S D.{.Q.Q.Q.Q.!.].v.b X ",
"o S E.<X;X;X;X;X-X<X^.L , ) 7.:.:.:.:.:.u.-.P * E w.i.:.w.w.w.:.7.i.:.E - B -.u.:.:.:.:.:.:.W , Q !.>X-X;X;X;X;X<XE.S X ",
"o H OXuXwXwXwXwXtXtX&X_ , ` 7.7.u.6.:.w.i.:.P , E :.i.w.w.:.w.w.u.i.:.E * P :.i.i.:.w.i.i.i.) , ! &XtXqX9XeXtX9XuXOXJ X ",
"X M M.XX|.|.{.|.{.@XF.H , ` i.i.7.:.i.i.i.:.^ ,   :.i.i.:.w.:.w.6.i.:.  , ) :.i.w.w.:.:.i.i.` 6 H J.@X|.|.|.|.XXoXM.S X ",
"X s &.i.i.i.i.i.i.i.&.b 6 ` i.i.7.7.w.:.:.i.                                i.:.:.i.i.w.i.i.` 6 j =.h.i.i.i.i.i.j.#.s X ",
"X s O.7.:.:.:.:.:.7.&.R                                                                         E =.7.:.:.:.:.:.7.O.t X ",
"+ u @.i.:.u.i.:.7.i.:.                                                                            6.7.7.7.:.6.i.i.O.s + ",
"X s &.j.i.i.i.i.i.i.i.                                                                            i.j.7.i.i.i.j.i.&.s X ",
"+ e ^ O.+.O.+.#.O.O.O.                                                                            O.O.O.$.O.O.O.#.) e + ",
"X * 9 e t t t 9 e e e                                                                             e e e t t t 9 e 9 * + ",
"X - k Z Z Z Z Z Z Z Z                                                                             Z Z Z V Z Z Z Z k - X ",
"X Z Z.OX(.^.|.(.^.(.(.                                                                            (.^.^.(.^.|.(.OXS.Z X ",
"X J Q.9X<X<X>X>X<X<X<X                                                                            <X<X<X<X<X<X>X9XQ.S + ",
"X s 6.V.b.b.b.b.b.b.b.                                                                            b.b.b.b.b.b.b.B.6.s + ",
"X s O.u.:.:.:.:.:.:.:.                                                                            :.:.:.:.:.:.:.7.O.u + ",
"+ t O.i.i.w.:.w.:.:.i.                                                                            :.:.w.i.i.w.w.i.O.t + ",
"+ u @.i.:.w.i.i.i.w.w.                                                                            w.i.i.w.:.:.i.i.O.s X ",
"+ u O.i.6.u.i.:.i.i.:.                                                                            :.i.i.w.w.:.u.i.#.u + ",
"+ s &.i.i.i.i.i.i.i.i.                                                                            i.i.i.i.i.i.i.i.&.s + ",
"+ t } :.:.=.=.:.:.=.=.                                                                            =.=.-.:.-.&.*.:.} t + ",
"+ * h x x x h x x x x                                                                             x x h x x x x x h * + ",
"+ * 7 q a 8 e e 7 a a                                                                             e p 8 a q 7 a p 7 * # ",
"X k q.L.L.Z.Z.Z.Z.S.D.                                                                            Z.Z.Z.Z.Z.Z.Z.S.q.k X ",
"X J ^.qX9X9X5X9X9X9X<X                                                                            9X1X9X9X9X9X9XqX(.S + ",
"X b e.P.P.C.G.P.G.K.K.                                                                            K.K.P.P.C.C.P.T.e.x + ",
"X u } u.:.:.6.:.:.7.:.                                                                            :.:.:.:.:.:.7.7.O.t + ",
"X u O.i.7.:.7.7.7.7.6.                                                                            :.i.:.7.:.7.7.7.O.t + ",
"+ u O.i.i.w.:.w.:.u.i.                                                                            w.w.i.u.:.7.6.i.O.t + ",
"+ u #.i.:.w.i.w.:.u.:.                                                                            i.:.:.w.w.7.i.i.O.u + ",
"+ s +.j.i.i.i.i.7.i.i.                                                                            i.i.i.i.i.i.i.h.+.s + ",
"+ t +.i.7.:.7.6.7.6.:.                                                                            :.6.:.7.:.:.7.w.X.s + ",
"+ , N P I I I I P R P                                                                             R P I I P R U U N , X ",
"+ * , , 5 , , , , 5 ,             0X0X                                            0X0X            5 , 5 5 5 , , 5 - $ $ ",
"X a [ 0.5.5.8.8.5.8.8.              0X0X0X0X                                0X0X0X0X              8.8.5.5.5.8.8.5.[ a o ",
"X H ^.eX9X9X2X2X9X9X2X                0X0X0X                                0X0X0X                2X9X9X9X9X2X2XeX|.J o ",
"X Z m.XX].{.|.Q.].].[.                                                                            ].[.].].{.|.Q.XXm.Z + ",
"+ s +.j.6.w.w.w.w.w.w.                                                                            w.i.i.6.w.w.w.i.O.u + ",
"X u O.:.:.:.6.:.:.:.:.                                                                            :.w.:.:.w.:.:.i.O.t X ",
"X u #.i.w.i.u.u.i.w.w.                                                                            :.w.w.:.w.w.w.i.#.s X ",
"+ u O.i.7.:.6.i.:.w.w.                                                                            w.:.w.:.i.w.i.i.O.u + ",
"+ u #.i.7.7.u.:.i.i.:.                                                                            i.:.w.w.i.:.:.i.O.u X "
};
