/* XPM */
static char *result[] = {
/* columns rows colors chars-per-pixel */
"60 60 190 2 ",
"   c #070405",
".  c #110C0E",
"X  c #120F10",
"o  c #16181A",
"O  c #2B1B1B",
"+  c #281918",
"@  c #341A19",
"#  c #262324",
"$  c #2C2C2E",
"%  c #3B2524",
"&  c #373738",
"*  c #43221E",
"=  c #462623",
"-  c #4A2622",
";  c #462827",
":  c #4C2925",
">  c #482D2B",
",  c #512A26",
"<  c #582C27",
"1  c #542E2A",
"2  c #582E29",
"3  c #5E322E",
"4  c #4E3330",
"5  c #403536",
"6  c #5B3431",
"7  c #553635",
"8  c #61332E",
"9  c #633631",
"0  c #6A3731",
"q  c #663833",
"w  c #6D3A35",
"e  c #653D39",
"r  c #6D3E39",
"t  c #713D37",
"y  c #743F39",
"u  c #6C423D",
"i  c #66403B",
"p  c #74403B",
"a  c #7C443D",
"s  c #464243",
"d  c #5D4344",
"f  c #52424B",
"g  c #5A4347",
"h  c #4F4F50",
"j  c #574C57",
"k  c #594D58",
"l  c #574954",
"z  c #4E5052",
"x  c #5E505B",
"c  c #5C5959",
"v  c #694642",
"b  c #6A4945",
"n  c #61464B",
"m  c #654A4C",
"M  c #674849",
"N  c #724540",
"B  c #754945",
"V  c #754E49",
"C  c #784F4A",
"Z  c #65504F",
"A  c #624B54",
"S  c #6B4F57",
"D  c #62525D",
"F  c #6D535B",
"G  c #685F5E",
"H  c #7D5653",
"J  c #72555C",
"K  c #775857",
"L  c #7D625F",
"P  c #424E63",
"I  c #455167",
"U  c #47536A",
"Y  c #4A566D",
"T  c #4C586F",
"R  c #4E5467",
"E  c #5A5362",
"W  c #52576B",
"Q  c #4E5B73",
"!  c #515D75",
"~  c #625664",
"^  c #645866",
"/  c #745A61",
"(  c #7B5E62",
")  c #5E6061",
"_  c #556176",
"`  c #5E6174",
"'  c #54627B",
"]  c #59657B",
"[  c #5D687E",
"{  c #696565",
"}  c #7E6265",
"|  c #78666A",
" . c #6D6F70",
".. c #727272",
"X. c #7B797D",
"o. c #7A6E73",
"O. c #834740",
"+. c #8D4C45",
"@. c #874A43",
"#. c #96524A",
"$. c #9C554D",
"%. c #805F5C",
"&. c #80605C",
"*. c #835F66",
"=. c #836562",
"-. c #88696A",
";. c #8B716E",
":. c #847B7B",
">. c #897674",
",. c #917C7A",
"<. c #8D807F",
"1. c #90807E",
"2. c #566580",
"3. c #596783",
"4. c #5B6983",
"5. c #5F6E8C",
"6. c #626E86",
"7. c #626F8B",
"8. c #637087",
"9. c #6B768D",
"0. c #6B788F",
"q. c #787C88",
"w. c #667694",
"e. c #6D7793",
"r. c #6C7996",
"t. c #677998",
"y. c #6E7E9E",
"u. c #727A94",
"i. c #707E9B",
"p. c #787F99",
"a. c #6F7FA0",
"s. c #7E808B",
"d. c #758095",
"f. c #788397",
"g. c #72819E",
"h. c #7C869D",
"j. c #6E81A2",
"k. c #7182A2",
"l. c #7B89A4",
"z. c #7C8AA8",
"x. c #818181",
"c. c #8C8787",
"v. c #8C8B8B",
"b. c #88888B",
"n. c #988785",
"m. c #9B8E8C",
"M. c #958785",
"N. c #9E918F",
"B. c #828695",
"V. c #8E9297",
"C. c #939494",
"Z. c #9D9493",
"A. c #9B9C9C",
"S. c #95969A",
"D. c #A48E8C",
"F. c #A09695",
"G. c #A29998",
"H. c #828EA4",
"J. c #818FAB",
"K. c #8C8FA1",
"L. c #8591A5",
"P. c #8693AE",
"I. c #8895AF",
"U. c #8E99AF",
"Y. c #909AAF",
"T. c #989CAE",
"R. c #989BA0",
"E. c #8A97B1",
"W. c #8C99B3",
"Q. c #8292B0",
"!. c #929DB4",
"~. c #939FB8",
"^. c #9FA1A1",
"/. c #96A1B6",
"(. c #9AA4B7",
"). c #96A1B9",
"_. c #99A5BC",
"`. c #9EA9BE",
"'. c #A5A3A3",
"]. c #ADADAD",
"[. c #A8A8A8",
"{. c #B0ADAD",
"}. c #AEB0B0",
"|. c #B3B3B3",
" X c #B9BBBC",
".X c #9EABC2",
"XX c #A2ADC2",
"oX c #E6E7E7",
"OX c #F5F3F3",
"+X c None",
/* pixels */
"+X+X+X+X+X+X+X+X+X+X+X+X+X+X+X+X+X+X+X+X+X+X+X+X+X+X+X+X+X+X+X+X+X+X+X+X+X+X+X+X+X+X+X+X+X+X+X+X+X+X+X+X+X+X+X+X+X+X+X+X",
"+X+X+X+X+X+X+X+X+X+X+X+X+X+X+X+X+X+X+X+X+X+X+X+X+X+X+X+X+X+X+X+X+X+X+X+X+X+X+X+X+X+X+X+X+X+X+X+X+X+X+X+X+X+X+X+X+X+X+X+X",
"+X+X+X+X+X+X+X+X+X+X+X+X+X+X+X+X+X+X+X+X+X+X+X+X+X+X+X+X+X+X+X+X+X+X+X+X+X+X+X+X+X+X+X+X+X+X+X+X+X+X+X+X+X+X+X+X+X+X+X+X",
"+X+X+X+X+X+X+X+X+X+X+X+X+X+X+X+X+X+X+X+X+X+X+X+X+X+X+X+X+X+X+X+X+X+X+X+X+X+X+X+X+X+X+X+X+X+X+X+X+X+X+X+X+X+X+X+X+X+X+X+X",
"+X+X+X+X+X+X+X+X+X+X+X+X+X+X+X+X+X+X+X+X+X+X+X+X+X+X+X+X+X+X+X+X+X+X+X+X+X+X+X+X+X+X+X+X+X+X+X+X+X+X+X+X+X+X+X+X+X+X+X+X",
"+X+X+X+X+X+X+X+X+X+X+X+X+X+X+X+X+X+X+X+X+X+X+X+X+X+X+X+X+X+X+X+X+X+X+X+X+X+X+X+X+X+X+X+X+X+X+X+X+X+X+X+X+X+X+X+X+X+X+X+X",
"+X+X+X+X+X+X+X+X+X+X+X+X+X+X+X+X+X+X+X+X+X+X+X+X+X+X+X+X+X+X+X+X+X+X+X+X+X+X+X+X+X+X+X+X+X+X+X+X+X+X+X+X+X+X+X+X+X+X+X+X",
"+X+X+X+X+X+X+X+X+X+X+X+X+X+X+X+X+X+X+X+X+X+X+X+X+X+XI.I.I.I.I.I.I.I.+X+X+X+X+X+X+X+X+X+X+X+X+X+X+X+X+X+X+X+X+X+X+X+X+X+X",
"+X+X+X+X+X+X+X+X+X+X+X+X+X+X+X+X+X+X+X+X+X+X+X+XI.E.I.I.I.I.I.I.I.I.I.I.+X+X+X+X+X+X+X+X+X+X+X+X+X+X+X+X+X+X+X+X+X+X+X+X",
"+X+X+X+X+X+X+X+X+X+X+X+X+X+X+X+X+X+X+X+X+X+X+X+XE.I.I.I.I.I.I.I.I.I.I.E.+X+X+X+X+X+X+X+X+X+X+X+X+X+X+X+X+X+X+X+X+X+X+X+X",
"+X+X+X+X+X+X+X+X+X+X+X+X+X+X+X+X+X+X+X+X+X+X+X+XJ.I.I.I.I.I.I.I.I.I.I.L.+X+X+X+X+X+X+X+X+X+X+X+X+X+X+X+X+X+X+X+X+X+X+X+X",
"+X+X+X+X+X+X+X+X+X+X+X+X+X+XI.I.I.I.I.I.E.P.8.T r.I.I.P.P.I.P.I.I.I.I.r.Q 6.P.E.I.I.I.I.I.I.+X+X+X+X+X+X+X+X+X+X+X+X+X+X",
"+X+X+X+X+X+X+X+X+X+X+X+X+XE.I.I.I.I.I.E.E.P.8.Y 0.W.!.W.W.W.W.W.W.~.E.0.T 8.P.E.I.I.I.I.I.I.I.+X+X+X+X+X+X+X+X+X+X+X+X+X",
"+X+X+X+X+X+X+X+X+X+X+X+X+XE.I.I.I.I.I.I.I.P.6.T d._.XX`.`.`.`.`.`.XX`.d.T 4.P.E.E.I.I.I.I.I.E.+X+X+X+X+X+X+X+X+X+X+X+X+X",
"+X+X+X+X+X+X+X+X+X+X+X+X+XH.E.I.I.I.I.I.E.P.6.T p._.`._._._.`._._.`._.u.T 6.P.E.I.I.I.I.I.I.H.+X+X+X+X+X+X+X+X+X+X+X+X+X",
"P ' l.E.I.I.I.I.I.W.H.] ! g.E.I.I.P.I.P.I.P.8.Y 6.l.J.z.z.z.z.z.z.z.z.7.Y 8.P.E.P.I.P.P.I.E.g.! ] H.W.I.E.I.I.I.E.l.' P ",
"P ' l.E.I.I.I.I.E.E.J.] Q l.~.~.~.~.~.!.).W.9.Y 3.y.y.y.y.y.y.y.a.a.y.3.Y 9.W.)./.~.~.!.~.~.l.! 2.H.E.I.I.I.I.I.E.l.' P ",
"P ] h.E.I.I.I.I.P.E.H.' ! L.XXXX.XXXXX`.XX`.u.T 3.y.g.y.y.j.y.y.i.a.y.3.Y u.`.XX.XXXXX`.XXXXH.! ] H.E.I.I.I.I.I.E.z.' P ",
"P ' l.I.P.I.I.I.P.E.H.] ! h.~.~.~./.~.~./.W.9.Y 3.y.j.y.j.y.j.y.a.a.a.4.Y 9.W.).~././.~.).).l.Q ] J.E.I.I.I.I.I.U.l.! I ",
"P ] l.E.E.I.I.E.E.E.J.] Y 9.l.k.k.l.k.k.l.k.3.Y 4.y.j.j.y.y.j.y.a.a.a.4.Y 3.g.l.k.k.l.k.k.l.7.T ] H.E.I.I.I.I.I.U.l.' P ",
"P ] P._._.~.(.(._._.U.6.T 5.a.a.y.y.y.y.y.t.2.Y 5.k.k.k.g.k.k.j.a.k.a.4.U 2.a.a.a.y.y.y.y.y.5.Y 3.U._.(._.~._.(._.P.] P ",
"P ] !.XXXXXXXX`.XXXX!.6.T 5.a.a.a.a.a.j.k.y.3.R 3.r.y.y.y.r.r.y.i.a.y.3.I 2.a.a.a.a.j.j.g.a.5.T 6.~.XXXX`.XX`.XXXX!.] P ",
"P ] H.!.W.E.E.E.E.~.H.3.T 5.k.k.j.k.k.k.k.a.! f l k E ^ ^ ^ ^ ^ ^ E E l f ! a.k.j.k.j.k.j.k.w.T 3.P.!.E.E.!.W.W.W.H.] P ",
"P ! w.k.k.g.k.k.k.k.u.! U 6.y.u.r.r.r.r.y.e.^ 6 ; ; 1 6 6 6 6 6 6 1 ; : 6 ^ e.u.r.r.r.r.r.r.6.U ! u.k.a.a.k.k.k.k.w.! P ",
"P ! w.a.a.a.y.y.a.a.w.E f k D D k j k D ~ D d 2 = * - < 2 < < 1 2 , * - 1 d D D E k j k D D k f E e.j.a.y.y.y.y.a.e.Q P ",
"P Q w.a.a.i.a.a.a.k.e.A 3 2 6 2 1 ; : 2 2 6 6 2 : = 1 3 3 3 3 3 2 1 - : 2 3 3 6 2 : - , 8 6 2 2 A e.k.a.y.a.a.y.a.t.! P ",
"P ! t.k.a.k.a.a.k.k.u.A 2 < 2 2 , = - 8 0 0 0 9 3 1 3 q q 0 9 9 9 6 1 2 q 0 9 9 9 - = , < 2 < 2 A e.k.k.k.k.a.k.k.t.! P ",
"P Q 7.t.w.w.w.w.w.t.6.k 3 2 3 3 1 - 1 q w w w w 9 3 q w w w w w w q 9 9 w w w t q 1 - 1 8 6 3 2 A 7.t.t.w.w.w.w.t.7.Q P ",
"P U T ! ! Q T Q Q Q R g 0 8 0 8 8 1 6 w t w r w 9 8 q w w w w t w q 9 9 w r w w w 3 2 9 0 q 0 q g R Q Q Q Q T Q ! T I P ",
"P Y ! ] ] ] ] ] ] ] ` F V V V H B 9 8 w w w w w 9 3 q r w r w w w q 3 9 w t w t w 9 6 q t w w w A ` ] ] ] ] ] ] ] ! Y P ",
"P ] H.Y.Y.U.!.U.Y.Y.U.b.>.:.x.m.,.u 8 0 t w w w 9 6 q w w w w w w q 6 9 w w w w 0 9 8 q t w 0 w ( K.!.U.Y.U.U.Y.!.K.2.P ",
"P ] U._._._._._._._./.S.V.C.^.}.m.b 6 0 w w w w 9 8 0 w t t r w t 9 3 q w w w w w 9 8 q w w w w =.Y..X_._._._._._.I.2.P ",
"P ! i.z.l.l.l.l.l.z.l.B.C.R.].}.M.b 3 w w w w w 9 3 q w p w i w w q 3 q w w w w w 8 8 w w w w w F p.z.k.z.z.k.l.z.i.! P ",
"P ! w.a.y.y.a.t.a.a.r.q.;.,.n.n.-.i 3 w p w w w q 3 1 = * = 3 0 t 0 3 9 w t w t w 9 3 q w w w w F e.a.a.a.a.y.y.a.w.! P ",
"P ! w.k.a.a.a.a.a.a.t./ N N B B u 9 3 w w w w w q 1 + . . + 6 p w q 3 9 w w w w w 9 3 0 w w w w F e.k.a.a.y.a.y.a.w.! P ",
"P ! w.k.a.i.a.a.a.a.e.S 0 0 0 0 q 3 9 q w w w w : @   o z :.D.;.4 * 2 q w w w w w 3 3 q w 0 0 w / u.k.a.a.a.y.a.a.w.! P ",
"P Q w.a.a.a.a.a.a.a.e.F w t w w q 3 9 w t w w q % .   $ [.OXOX].& + 1 q w w w p w 9 3 q p p w w F e.a.a.a.i.a.a.k.t.! P ",
"P ! t.k.k.k.k.a.a.a.u.J w w w w 0 8 9 w w w w u Z h o # A.oXoX X .s 3 8 w w w w w 8 8 0 B =.=.p F e.a.a.k.k.k.k.a.t.! P ",
"P Q w.y.y.a.y.a.i.a.9.F w w w w q 3 8 w t w 0 p ,.v.s $ s.}.[.[.[.1.b 0 w w w w w 3 3 q H N.N.C S 9.a.t.y.r.y.t.a.w.! P ",
"P Y Q ' ! ! ! ! ! 2.! m w w t w w 3 8 w w w 0 u L x.....S.C.c { G.[.1.&.p w w w w 9 3 q H G.N.C n ! 2.' ' ! ! ' ! ! U I ",
"I I T ! ! W T ! Q Q W n w t w w 0 3 9 0 p 0 w w d ) v.].|.b.& s C.].S.;.p 0 w t w 3 3 8 H F.N.C d W ! ! W ! W Q Q Q U P ",
"P _ f.L.H.H.H.H.H.J.B.J w w w w q 9 3 i t w p q % $ x.|.|.A.X.<.^.b.z 7 u t w w w 3 3 q H F.m.C J B.H.H.B.H.H.H.H.f.' P ",
"P [ U.XX`.`._..X_.XXT.*.w 0 w w q 3 3 w w w p q @ # { '.].}.{.|.}...# @ q w w w w 9 3 q H F.m.C ( T.XX_..X.X_..XXXU.3.P ",
"P _ g.P.z.P.J.J.J.P.l./ w w w t q 3 9 w w w t 0 1 > c x.^.}.|. X}.<.4 , 0 w w w w 3 3 q H F.m.C J l.Q.J.J.J.J.P.P.g.! P ",
"P Q w.j.y.y.y.y.a.a.e.F t w w w 0 3 9 w w w w w 9 6 d G c.S.v.v.Z.;.i 8 w w w p w 9 3 0 H F.D.C S e.a.y.y.y.y.y.g.w.! P ",
"P Q w.j.a.a.a.y.a.a.9.F w w w w q 9 3 w t t w 0 9 3 i b { { & 5 Z B 9 9 w w w w w 8 3 8 H F.N.C S e.j.a.y.a.a.a.a.w.Q P ",
"P ! w.k.i.a.i.a.a.a.e.J w w t w q 3 9 w w w 0 i 9 3 q i m s O @ 3 q 3 9 w w w w w 3 3 q C <.>.B F e.j.a.y.a.i.a.k.w.Q P ",
"P Q w.g.a.a.a.a.a.j.e.J w w w w 0 3 9 0 w t p 0 9 3 9 p w e 6 9 0 q 3 9 w w w w w 9 3 q p B a p F e.k.y.a.y.y.a.k.t.! P ",
"P ! t.k.k.a.a.k.j.k.u.F w w r w q 3 9 w w w w w 9 6 0 w w w t t w q 3 9 w 0 w w w 3 3 q w 0 0 w F u.k.k.a.a.k.a.a.t.! P ",
"P Q w.a.y.y.y.y.a.j.e.F w w w w 0 8 6 w w r t w 9 3 q w w w w t w q 3 9 w p w p w 9 3 w w p w w F 0.a.y.y.y.a.i.a.t.! P ",
"P T 2.4.3.3.3.3.3.4.] A w w 0 0 9 3 9 w t w w w 9 3 q w r w t w w q 3 9 w w w w w 3 3 q w w w w Z ] 3.3.3.3.3.3.4.2.Y P ",
"I I U Y Y Y Y Y Y Y R n r t t p w 6 9 0 w w w w 9 8 q r w w w w w q 8 9 w w w w w 9 3 0 w w w w n R T Y Y Y Y Y Y U U P ",
"P ! 9.f.d.d.d.d.d.d.q.o.L } =.;.L e 8 w w w w w 9 3 q w w t r w w q 3 9 w w w w 0 q 3 q w w 0 w F q.f.u.d.d.d.d.p.9.! P ",
"P [ Y.`.`.`.`.`.`.`._.S.c.c.Z.'.M.v 3 0 t w w w 9 3 q w w w w w w q 3 9 w w w t i 3 8 0 p w t w } T..X.X`.`.`.`.XXU.[ z ",
"P ' z.W.E.E.E.E.E.E.I.V.V.A.].|.m.b 3 w w w t w 9 3 q w w w w w w q 3 9 w w w w w 3 3 q 0 w w w / H.W.W.E.E.E.E.W.z.] P ",
"P ! w.k.k.k.i.g.j.g.g.s.c.A.'.'.,.v 8 w w w w w 9 8 q r w w w w w q 3 q w t w w w 9 9 0 w w 0 w J u.k.y.k.y.g.k.a.w.! P ",
"P Q w.i.y.y.y.a.y.a.r.| H %.*.&.K e 3 0 w 0 r 0 9 3 q 0 t w w w w q 3 9 w w w w 0 8 3 w 0 w 0 0 F e.a.y.i.a.a.a.a.w.! P ",
"P ! w.k.a.j.i.a.y.j.e./ y t y y 0 3 q t a p p y 9 9 0 p p p y p p w 3 q p p p p p 8 3 w p p a p J e.j.a.a.a.a.i.a.w.! P ",
"P Q w.k.a.i.j.i.a.a.u.*.+.+.+.+.a q w @.+.+.+.+.w 9 N #.+.+.+.+.+.a 9 p +.+.+.+.@.w q a +.+.+.+.*.u.j.y.a.i.a.a.a.t.! P ",
"P ! w.k.y.j.i.j.a.a.u.-.$.$.$.$.@.q w #.$.$.$.#.p 9 O.$.$.$.$.$.$.O.9 p #.$.$.$.#.w q +.$.$.$.$.-.u.j.a.a.a.i.a.k.w.! P "
};
