/* XPM */
static char *result[] = {
/* columns rows colors chars-per-pixel */
"60 60 174 2 ",
"   c #43221E",
".  c #462624",
"X  c #4A2622",
"o  c #462827",
"O  c #4C2925",
"+  c #502925",
"@  c #582C27",
"#  c #542E2A",
"$  c #582E29",
"%  c #5E332E",
"&  c #573332",
"*  c #5A3331",
"=  c #62332E",
"-  c #633631",
";  c #6B3732",
":  c #663833",
">  c #6D3A35",
",  c #643E3A",
"<  c #6F3E39",
"1  c #723D37",
"2  c #743F39",
"3  c #66403C",
"4  c #6B433E",
"5  c #73403A",
"6  c #7C443D",
"7  c #5E4144",
"8  c #52424B",
"9  c #5E4349",
"0  c #524753",
"q  c #574C57",
"w  c #5C4B54",
"e  c #594D58",
"r  c #5E505B",
"t  c #604247",
"y  c #694642",
"u  c #6A4844",
"i  c #61464B",
"p  c #65494E",
"a  c #724540",
"s  c #754A45",
"d  c #754D49",
"f  c #784F4A",
"g  c #7A534F",
"h  c #624B54",
"j  c #6B4F57",
"k  c #62525D",
"l  c #6D535B",
"z  c #775551",
"x  c #7D5653",
"c  c #795956",
"v  c #72555C",
"b  c #785B5B",
"n  c #7D625F",
"m  c #424E63",
"M  c #455167",
"N  c #4E5467",
"B  c #47536A",
"V  c #4A566D",
"C  c #4C586F",
"Z  c #5A5362",
"A  c #52576B",
"S  c #4E5B73",
"D  c #515D75",
"F  c #625664",
"G  c #645866",
"H  c #745A61",
"J  c #7B5E62",
"K  c #556176",
"L  c #5E6174",
"P  c #54627B",
"I  c #59657B",
"U  c #5D687E",
"Y  c #7E6265",
"T  c #73646E",
"R  c #7A6E73",
"E  c #79737E",
"W  c #834740",
"Q  c #874A43",
"!  c #8D4C45",
"~  c #96524A",
"^  c #9C554D",
"/  c #805D5A",
"(  c #835F66",
")  c #836561",
"_  c #876865",
"`  c #8B646A",
"'  c #856C6A",
"]  c #8A716F",
"[  c #8D7573",
"{  c #847876",
"}  c #8C7876",
"|  c #857978",
" . c #8E7E7C",
".. c #857371",
"X. c #927E7B",
"o. c #8B807F",
"O. c #90817F",
"+. c #566580",
"@. c #596783",
"#. c #5B6983",
"$. c #5F6E8C",
"%. c #626E86",
"&. c #626F8B",
"*. c #637087",
"=. c #6B768D",
"-. c #6B788F",
";. c #757A8C",
":. c #667694",
">. c #6D7793",
",. c #6C7996",
"<. c #677998",
"1. c #6E7E9E",
"2. c #727A94",
"3. c #707E9B",
"4. c #787F99",
"5. c #6F7FA0",
"6. c #7E808B",
"7. c #758095",
"8. c #788397",
"9. c #72819E",
"0. c #7C869D",
"q. c #6E81A2",
"w. c #7182A2",
"e. c #7B89A4",
"r. c #7C8AA8",
"t. c #8D8787",
"y. c #8B8988",
"u. c #89868C",
"i. c #928483",
"p. c #988785",
"a. c #998987",
"s. c #9B8E8C",
"d. c #968B89",
"f. c #9E918F",
"g. c #818495",
"h. c #858A95",
"j. c #8F9191",
"k. c #8C939D",
"l. c #939494",
"z. c #9E9594",
"x. c #9C9F9F",
"c. c #92949B",
"v. c #A09695",
"b. c #A19897",
"n. c #A39B9A",
"m. c #828EA4",
"M. c #8C8FA1",
"N. c #818FAB",
"B. c #8591A5",
"V. c #8693AE",
"C. c #8895AF",
"Z. c #8E99AF",
"A. c #9197A0",
"S. c #909AAF",
"D. c #989CAE",
"F. c #8292B0",
"G. c #8A97B1",
"H. c #8C99B3",
"J. c #929DB4",
"K. c #939FB8",
"L. c #9FA2A2",
"P. c #96A1B6",
"I. c #9AA4B7",
"U. c #96A1B9",
"Y. c #99A5BC",
"T. c #9EA9BE",
"R. c #A5A2A2",
"E. c #A7ABAB",
"W. c #ACACAC",
"Q. c #AFB0B0",
"!. c #B0B3B3",
"~. c #9EABC2",
"^. c #A2ADC2",
"/. c None",
/* pixels */
"/./././././././././././././././././././././././././././././././././././././././././././././././././././././././././././.",
"/./././././././././././././././././././././././././././././././././././././././././././././././././././././././././././.",
"/./././././././././././././././././././././././././././././././././././././././././././././././././././././././././././.",
"/./././././././././././././././././././././././././././././././././././././././././././././././././././././././././././.",
"/./././././././././././././././././././././././././././././././././././././././././././././././././././././././././././.",
"/./././././././././././././././././././././././././././././././././././././././././././././././././././././././././././.",
"/./././././././././././././././././././././././././././././././././././././././././././././././././././././././././././.",
"/./././././././././././././././././././././././././.C.C.C.C.C.C.C.C././././././././././././././././././././././././././.",
"/./././././././././././././././././././././././.C.G.C.C.C.C.C.C.C.C.C.C././././././././././././././././././././././././.",
"/./././././././././././././././././././././././.G.C.C.C.C.C.C.C.C.C.C.G././././././././././././././././././././././././.",
"/./././././././././././././././././././././././.N.C.C.C.C.C.C.C.C.C.Z.B././././././././././././././././././././././././.",
"/./././././././././././././.C.C.C.C.C.C.G.V.*.C ,.C.C.V.V.C.V.C.C.C.C.,.S %.V.G.C.C.C.C.C.C././././././././././././././.",
"/././././././././././././.G.C.C.C.C.C.G.C.V.*.V -.H.J.H.H.H.H.H.H.J.G.,.V %.V.C.C.C.C.C.C.G.V./././././././././././././.",
"/././././././././././././.G.C.C.C.C.C.C.C.V.%.C 7.Y.^.T.T.T.T.T.T.^.T.7.C %.V.G.G.C.C.C.C.C.G./././././././././././././.",
"/././././././././././././.m.G.C.C.G.C.C.G.V.%.C 4.Y.T.Y.Y.Y.T.Y.Y.T.Y.2.C %.V.G.C.C.C.C.V.C.N./././././././././././././.",
"m P e.G.C.C.C.C.C.H.m.I D 9.G.C.V.V.C.V.G.V.*.V %.e.N.r.r.r.r.r.r.r.e.&.V *.V.G.C.C.F.V.G.G.8.D I m.H.G.C.C.C.C.G.e.P m ",
"m K e.G.C.C.V.G.G.G.r.I D 0.K.K.J.J.K.J.U.J.=.V @.1.1.1.1.1.1.1.1.1.1.@.V =.J.P.J.P.J.J.K.K.0.D I m.H.C.C.C.C.C.G.e.D m ",
"m K e.G.C.C.C.C.G.H.m.I D N.^.^.^.~.^.^.^.Y.2.V @.1.9.q.1.5.1.1.5.5.1.+.C 2.T.^.^.~.^.~.^.^.m.D P m.G.C.C.C.C.C.G.m.+.m ",
"m I e.C.G.V.V.C.C.G.m.I D 0.K.K.U.U.K.K.U.J.=.V @.1.q.1.1.q.q.1.5.5.5.#.V =.H.U.K.U.U.K.K.K.0.S +.m.G.V.C.V.C.C.G.e.I m ",
"m I e.G.G.V.V.G.C.G.r.I V =.r.w.w.w.w.w.e.w.+.V @.q.9.1.1.1.q.1.5.5.5.#.B #.w.e.w.e.w.w.e.w.:.C +.m.H.C.C.C.C.H.G.e.D m ",
"m I V.Y.I.U.I.U.U.Y.Z.#.C $.5.5.w.1.1.1.5.<.+.V @.q.w.w.w.w.w.w.5.w.w.#.V +.1.5.1.1.1.1.1.1.$.C %.Z.Y.K.K.I.I.K.Y.V.I m ",
"m U J.^.T.^.^.^.^.^.P.*.C $.5.5.9.1.5.q.w.1.+.N #.1.3.1.,.,.1.1.1.5.,.#.B P 1.5.1.5.q.w.q.5.$.V %.J.^.^.^.^.^.^.^.J.U m ",
"m I m.H.G.H.H.G.H.K.B.U C $.w.w.q.w.w.w.w.5.D 8 0 Z Z G G G G G G F Z 0 8 D 1.w.q.w.q.w.w.w.:.C U N.J.H.H.H.H.J.H.m.I m ",
"m S ,.w.w.w.9.w.w.w.,.D N &.,.,.,.,.,.,.1.>.G * O o # * * * * * * # X O * G >.3.,.,.,.,.,.,.%.B D 3.w.5.5.5.5.5.w.:.D m ",
"m S :.5.1.1.1.1.1.q.:.Z 8 w k F e q e e k k 9 $ X   X @ @ @ # @ @ X   X # 7 e F r e e e k k w 8 Z >.5.5.1.1.1.1.5.:.D m ",
"m S :.w.5.1.1.5.5.w.>.h % @ % % # o O % % * % $ O . # % % % % % % # . O @ % % % * O X # % * @ % h >.w.5.5.5.1.1.5.<.D m ",
"M S <.w.w.w.w.5.w.w.,.h @ @ # @ #   X = ; - : - % # % : : : : : : % # % : : : ; = X . X # @ @ @ h >.w.5.w.5.5.5.5.<.D m ",
"m S &.<.:.:.:.:.:.,.*.w % % % $ # X # ; > > > > = % : > > > > > > : % - > > > > > # X @ * % % $ h &.1.:.:.<.:.:.<.&.S m ",
"m M C S S S S C S S C 9 ; = ; = = # * > 1 < > > - % > > > > > > > > % - > < > < > % # - > : : ; 9 C S S D C S S S S B m ",
"m V K I I I I I K I L l d d d z s - - > > > > > - % : > > > > > > : % - > > > > : - * : > 1 > > p L I K I I I I I D V m ",
"m K m.J.J.Z.S.S.S.J.Z.u.| { t.d.} 4 % > > > > > - % : > > > > > > : % - > > > > > - = > > > > > J M.H.S.S.S.Z.S.J.h.I m ",
"m U C.Y.I.Y.Y.Y.Y.Y.P.c.l.l.L.Q.s.u $ > > > < > - % : 1 > > > < > : % : > > > > > = % : > > ; > Y D.~.Y.Y.Y.Y.Y.~.Z.+.m ",
"m D 3.r.e.w.r.e.r.r.e.h.j.n.W.Q.d.y = > > > > > : % : > > > > > > : % - > > > > > - % > > > > > v 2.r.r.r.r.w.r.r.1.D m ",
"m D :.5.1.5.5.1.5.<.>.;...X.p.p.' 3 = > > > > > - % : > > > > > 1 : * - > > > 1 > - % ; > > > > l >.5.5.5.<.1.1.5.:.D m ",
"m D :.w.3.5.1.5.5.5.,.H a a s s 4 % % > > > 1 > - % : > 1 > > > > : = : > > > 1 > - = : > > > > l >.w.5.5.5.5.1.5.:.S m ",
"m D :.w.5.1.5.5.5.5.>.l ; ; ; ; : % - > > > > > - % ; > > ; ; ; > = % - > > < > : * % ; > > ; > H >.q.5.5.5.5.1.w.:.D m ",
"m S :.w.5.5.5.5.5.w.>.l > > > > : % - > > > > > - * : > < 5 5 4 1 > % - > > > > > = % ; > 1 > > l >.5.5.1.1.1.1.w.:.S m ",
"m D <.5.w.5.5.5.5.w.2.l > > > > > = % > > > 1 > : % : 5 ) [ [ [ [ b : = > > > 1 > = % ; s _ ) s l >.w.w.w.w.w.w.w.<.S m ",
"M S :.5.1.1.1.5.1.1.=.v > > > > : % - > 1 > > > - % = f a.W.W.W.W. ., = > > > > > % % = g f.a.f j >.5.1.,.1.,.1.5.:.S M ",
"m B D P D P D D P D D p > 1 > > ; = * > > > > > - % = g s.!.Q.!.Q.i.3 % > > > > ; : % ; / b.f.g 9 D D P D P P D D D V m ",
"m M S D S S C D S S A i > 1 > > : % - > > > > > - % = f s.Q.Q.Q.W.O., = > > > > > % % : x v.f.f t A D S S A S S D C M m ",
"m K 8.m.k.m.m.m.m.V.g.H > > > > > = * > > > > > - % ; f s.!.!.!.!.i.3 % > 1 > > > % % = x v.s.f v g.m.m.k.B.m.m.B.8.K m ",
"m I H.^.Y.T.~.T.Y.~.D.) > > > > : % * ; 1 > > > : % - s X.n.n.n.n.[ , = > > > 1 > : % : g v.s.f J D.^.Y.Y.T.T.~.^.Z.@.m ",
"m K 9.V.N.N.r.N.N.F.0.H > > > > ; % - > > > 1 > - % : 1 x / / / b d - = > > > > > % % : x v.s.f v e.F.N.N.N.N.N.V.0.P m ",
"m D :.9.1.1.1.1.1.5.>.l 1 ; 1 > : * - > > > > > - % : > > ; > > > = = : > > > > > - % ; x b.f.f j >.5.1.1.1.1.1.5.:.S m ",
"m D :.5.5.5.5.1.1.5.>.l ; > > > ; = - > < > > > - % ; > > > ; > > : % = > > > 1 > = % = x b.f.f j >.q.5.5.1.5.5.5.:.S m ",
"m S :.w.5.3.3.5.5.w.>.l > > > > : % - > > > > > - % : > > > > > > : % : > > > > > % % : f X.[ s l >.w.1.1.1.5.5.w.:.S m ",
"m D :.w.5.5.5.5.5.5.>.v > > < > : % - ; 1 > > > - % : < > < > > > : % - > 1 4 > > % % ; 1 s s 1 l >.q.5.1.5.3.5.w.<.S m ",
"m D ,.w.q.5.5.w.w.w.2.l > > > > > % % > > > < > - % : > < > > > > : % - > > > > > % % : > > ; > l 2.w.q.w.q.9.5.w.:.D m ",
"m S :.q.5.1.1.1.q.q.>.l > > > > > % - > > > > > - % : > > > < > > : % - > > > > > % % > > > > 5 l -.q.1.1.1.1.1.w.:.D m ",
"m C +.@.#.+.+.#.+.@.I p > > > ; - % - > 1 > > > - % : < > > > > > : % : > 1 > > > % % ; > > > > h L @.+.#.#.#.+.+.I V m ",
"M M B V V C V V C C N i > 1 > 5 > % * > > > > > - % : > > < > > > > % - > > > < > : % : > > > > i N S V V V V V C V M m ",
"m D =.8.4.2.7.7.7.7.;.R Y n _ ] n , % ; > > > > - % : > > > > > > : % - > > > > > - % ; > 1 ; ; v ;.7.7.4.2.7.7.7.=.D m ",
"m U S.T.T.T.T.T.T.~.Y.c.y.t.l.R.i.y % > 1 > > > - % : > > > < > > : % - > > > > > - % : > > > 1 Y D.~.T.T.T.T.T.^.S.U m ",
"m K e.H.G.G.Z.G.G.G.C.k.l.x.W.!.s.u = > 1 > > > - % > > > < > > > : % : > < > 1 > * % ; > > > > J m.H.G.G.C.Z.G.H.r.P m ",
"M D :.w.q.9.q.9.1.9.9.6.y.z.R.R.O.y % > > > > > - % : > > > > 1 > : % - > > > > > = % ; > > > > l ,.q.q.9.9.q.q.w.:.D m ",
"m D :.1.1.1.1.1.1.5.,.T x / ) ) z : % > > > > > - % : > > > > > > : % - > > > > > - % : > > > > l >.w.1.5.1.1.1.5.:.D m ",
"m S :.w.1.1.9.1.5.q.2.v 2 1 2 2 > = - < 5 5 5 1 : % > 2 5 5 5 5 2 > % : 1 5 5 5 1 - - > 5 5 1 2 v >.q.3.3.5.5.1.w.:.S m ",
"m D :.w.1.q.3.q.5.q.2.( ! Q ! ! 6 : > Q ~ ! ! ! > - 6 ! ! ! ! ! ! 6 - > ! ! ! ! Q > - 6 ! ! ! ! ( 2.q.5.3.w.5.5.w.<.S m ",
"m S :.w.1.9.1.q.5.q.2.` ^ ^ ^ ^ Q : > ~ ^ ^ ^ ~ 5 - W ^ ^ ^ ^ ^ ^ W : 5 ^ ^ ^ ^ ~ 1 : Q ^ ^ ^ ^ ` 2.q.3.5.5.5.5.w.:.D m "
};
