/* XPM */
static char *result[] = {
/* columns rows colors chars-per-pixel */
"60 60 157 2 ",
"   c #3F1F1B",
".  c #40211D",
"X  c #422421",
"o  c #482724",
"O  c #432827",
"+  c #4C2925",
"@  c #512B27",
"#  c #532D29",
"$  c #582E2A",
"%  c #5D322E",
"&  c #45363D",
"*  c #4B363A",
"=  c #60342E",
"-  c #633631",
";  c #6B3731",
":  c #663833",
">  c #6D3B35",
",  c #643D39",
"<  c #6E3E39",
"1  c #723D37",
"2  c #743F39",
"3  c #74413B",
"4  c #7C443D",
"5  c #453941",
"6  c #4D3C42",
"7  c #453E48",
"8  c #4E424C",
"9  c #52444E",
"0  c #4D4450",
"q  c #554A56",
"w  c #544E5C",
"e  c #58515F",
"r  c #694541",
"t  c #6A4844",
"y  c #62464B",
"u  c #65494F",
"i  c #744642",
"p  c #764B46",
"a  c #774D48",
"s  c #784F4A",
"d  c #654C54",
"f  c #6B4F57",
"g  c #644F58",
"h  c #6D535B",
"j  c #775551",
"k  c #7D5653",
"l  c #7A5A57",
"z  c #73565C",
"x  c #7B5D59",
"c  c #7D615E",
"v  c #424E63",
"b  c #455167",
"n  c #4E5467",
"m  c #465369",
"M  c #4A566D",
"N  c #4C586F",
"B  c #585160",
"V  c #53576A",
"C  c #4E5B73",
"Z  c #515D74",
"A  c #595D72",
"S  c #6B5E66",
"D  c #735A61",
"F  c #7C5E63",
"G  c #556176",
"H  c #54627B",
"J  c #59657B",
"K  c #5D687E",
"L  c #7E6264",
"P  c #73646E",
"I  c #776A73",
"U  c #7A6E73",
"Y  c #834740",
"T  c #874A43",
"R  c #8D4C45",
"E  c #96524A",
"W  c #9C554D",
"Q  c #805F5C",
"!  c #835F66",
"~  c #826562",
"^  c #876966",
"/  c #886A67",
"(  c #8B646A",
")  c #8A6E6B",
"_  c #8B716E",
"`  c #8E7573",
"'  c #90807E",
"]  c #566580",
"[  c #596783",
"{  c #5B6983",
"}  c #5E6D8A",
"|  c #626F87",
" . c #616F8B",
".. c #637087",
"X. c #6B768C",
"o. c #6B788F",
"O. c #757A8C",
"+. c #667694",
"@. c #6C7692",
"#. c #6B7996",
"$. c #6E7E9E",
"%. c #727A94",
"&. c #737E9A",
"*. c #6F7FA0",
"=. c #7E818C",
"-. c #758095",
";. c #788397",
":. c #73819E",
">. c #7C869D",
",. c #6F81A2",
"<. c #7182A2",
"1. c #7B89A4",
"2. c #7C8BA9",
"3. c #8B8686",
"4. c #80838F",
"5. c #8C8A89",
"6. c #938583",
"7. c #9B8E8D",
"8. c #93908F",
"9. c #9E908E",
"0. c #818495",
"q. c #838B97",
"w. c #898E9F",
"e. c #8C939D",
"r. c #929494",
"t. c #9E9695",
"y. c #92949B",
"u. c #9D9D9D",
"i. c #A09695",
"p. c #A19897",
"a. c #828EA4",
"s. c #818FAB",
"d. c #8591A5",
"f. c #8693AE",
"g. c #8895AF",
"h. c #8E99AF",
"j. c #9297AB",
"k. c #909AAF",
"l. c #989CAE",
"z. c #8292B0",
"x. c #8A97B1",
"c. c #8C99B3",
"v. c #929EB4",
"b. c #939FB8",
"n. c #96A1B6",
"m. c #9CA5B7",
"M. c #96A1B9",
"N. c #99A5BC",
"B. c #9EA9BE",
"V. c #A6A2A2",
"C. c #AAA7A6",
"Z. c #A6AAAB",
"A. c #AFB4B4",
"S. c #B0B4B5",
"D. c #9DABC2",
"F. c #A2ADC2",
"G. c None",
/* pixels */
"G.G.G.G.G.G.G.G.G.G.G.G.G.G.G.G.G.G.G.G.G.G.G.G.G.G.G.G.G.G.G.G.G.G.G.G.G.G.G.G.G.G.G.G.G.G.G.G.G.G.G.G.G.G.G.G.G.G.G.G.",
"G.G.G.G.G.G.G.G.G.G.G.G.G.G.G.G.G.G.G.G.G.G.G.G.G.G.G.G.G.G.G.G.G.G.G.G.G.G.G.G.G.G.G.G.G.G.G.G.G.G.G.G.G.G.G.G.G.G.G.G.",
"G.G.G.G.G.G.G.G.G.G.G.G.G.G.G.G.G.G.G.G.G.G.G.G.G.G.G.G.G.G.G.G.G.G.G.G.G.G.G.G.G.G.G.G.G.G.G.G.G.G.G.G.G.G.G.G.G.G.G.G.",
"G.G.G.G.G.G.G.G.G.G.G.G.G.G.G.G.G.G.G.G.G.G.G.G.G.G.G.G.G.G.G.G.G.G.G.G.G.G.G.G.G.G.G.G.G.G.G.G.G.G.G.G.G.G.G.G.G.G.G.G.",
"G.G.G.G.G.G.G.G.G.G.G.G.G.G.G.G.G.G.G.G.G.G.G.G.G.G.G.G.G.G.G.G.G.G.G.G.G.G.G.G.G.G.G.G.G.G.G.G.G.G.G.G.G.G.G.G.G.G.G.G.",
"G.G.G.G.G.G.G.G.G.G.G.G.G.G.G.G.G.G.G.G.G.G.G.G.G.G.G.G.G.G.G.G.G.G.G.G.G.G.G.G.G.G.G.G.G.G.G.G.G.G.G.G.G.G.G.G.G.G.G.G.",
"G.G.G.G.G.G.G.G.G.G.G.G.G.G.G.G.G.G.G.G.G.G.G.G.G.G.G.G.G.G.G.G.G.G.G.G.G.G.G.G.G.G.G.G.G.G.G.G.G.G.G.G.G.G.G.G.G.G.G.G.",
"G.G.G.G.G.G.G.G.G.G.G.G.G.G.G.G.G.G.G.G.G.G.G.G.G.G.g.g.g.g.g.g.g.g.G.G.G.G.G.G.G.G.G.G.G.G.G.G.G.G.G.G.G.G.G.G.G.G.G.G.",
"G.G.G.G.G.G.G.G.G.G.G.G.G.G.G.G.G.G.G.G.G.G.G.G.g.g.g.g.g.g.g.g.g.g.g.g.G.G.G.G.G.G.G.G.G.G.G.G.G.G.G.G.G.G.G.G.G.G.G.G.",
"G.G.G.G.G.G.G.G.G.G.G.G.G.G.G.G.G.G.G.G.G.G.G.G.x.g.g.g.g.g.g.g.g.g.g.x.G.G.G.G.G.G.G.G.G.G.G.G.G.G.G.G.G.G.G.G.G.G.G.G.",
"G.G.G.G.G.G.G.G.G.G.G.G.G.G.G.G.G.G.G.G.G.G.G.G.s.g.g.g.g.g.g.g.g.g.g.d.G.G.G.G.G.G.G.G.G.G.G.G.G.G.G.G.G.G.G.G.G.G.G.G.",
"G.G.G.G.G.G.G.G.G.G.G.G.G.G.g.g.g.g.g.g.x.f.| C %.g.g.g.g.f.g.f.g.g.g.#.C | f.x.g.g.g.g.g.g.G.G.G.G.G.G.G.G.G.G.G.G.G.G.",
"G.G.G.G.G.G.G.G.G.G.G.G.G.x.g.g.g.g.g.g.x.f.| M o.c.v.c.c.c.c.c.c.v.c.o.M | f.x.g.g.g.x.g.g.g.G.G.G.G.G.G.G.G.G.G.G.G.G.",
"G.G.G.G.G.G.G.G.G.G.G.G.G.x.g.g.g.g.g.g.x.d.| N ;.B.B.B.B.B.B.D.B.B.B.;.N } f.x.g.g.g.g.g.g.x.G.G.G.G.G.G.G.G.G.G.G.G.G.",
"G.G.G.G.G.G.G.G.G.G.G.G.G.a.x.g.g.f.g.x.c.f...N %.N.B.N.N.N.N.B.B.B.N.%.N | d.x.x.f.g.g.x.f.s.G.G.G.G.G.G.G.G.G.G.G.G.G.",
"v H 1.x.g.g.g.g.g.c.a.J Z :.x.g.z.x.f.f.g.f...M ..2.2.2.2.2.2.2.2.2.2. .M ..f.x.f.x.f.f.f.x.;.Z J a.c.x.g.g.g.g.x.1.H v ",
"v J 1.x.g.g.f.g.g.c.2.J Z >.b.b.b.v.v.v.M.c.X.M [ $.$.$.$.$.$.$.$.$.$.[ M X.c.M.n.n.v.n.b.b.>.Z J 2.x.g.g.g.f.x.g.1.H v ",
"v J >.x.g.f.x.x.g.c.s.J Z s.F.F.F.F.F.F.F.D.%.M [ $.:.$.$.,.$.$.$.:.$.] N @.B.F.D.D.D.D.F.F.a.Z J a.c.g.g.f.x.f.x.2.H v ",
"v H 1.g.g.f.f.f.f.x.a.J Z >.M.b.b.b.b.b.M.c.X.M [ $.,.,.$.,.,.$.$.,.,.[ N X.v.M.c.M.n.M.b.b.1.C J 2.x.g.f.f.f.x.x.1.H v ",
"v G 1.x.x.x.f.x.g.c.2.J M X.<.1.<.1.<.<.1.<.[ M [ ,.:.$.$.$.,.$.,.:.$.[ m [ :.1.1.1.<.<.1.<.+.N J a.x.g.g.x.f.x.h.1.H v ",
"v J f.N.m.m.b.M.n.N.h.{ M } *.*.$.$.$.$.*.#.] M } <.<.<.:.<.,.<.,.<.,.} M ] #.,.$.$.$.$.$.*.} N | h.N.n.m.m.M.M.m.f.K v ",
"v K v.F.F.B.F.F.F.F.n...M } *.*.$.<.*.*.,.*.J m J #.$.#.$.#.#.$.#.$.$.[ m ] $.<.*.*.*.*.*.*.} N | n.F.F.B.F.F.F.F.v.K v ",
"v J a.c.c.x.x.c.c.v.d.{ N +.<.<.<.<.<.<.<.*.A 7 0 B e e e e B B B B B 0 8 A *.<.,.,.<.<.<.<.+.N { a.c.c.c.x.c.c.c.2.H v ",
"v Z #.<.<.<.:.<.<.<.#.Z M } #.#.#.#.#.#.$.@.w O X O O O O O O O O X O . O w X.$.#.#.#.#.#.#.{ M Z $.<.<.<.:.<.<.<.@.Z v ",
"v C +.*.*.$.$.$.,.,.+.w 5 0 w q q q q q q q * X   . .   . .   . . . .   . * q q q q q q q q 8 5 w @.,.*.*.$.$.$.*.+.C v ",
"v C #.,.*.*.$.*.,.<.X.9 X . . O X X X O X X X . O . . . . X X . . . . O X . X . X . . O O . O . 8 @.,.*.*.*.$.*.<.+.Z v ",
"v Z #.,.<.,.*.,.<.<.@.8 .   . .     . . . . . X . . . O X . . O O . . O . . . . . . . . . . . . 9 @.<.,.*.<.,.<.*.#.Z v ",
"v C  .#.+.+.+.+.+.+.| 8 . . . X X . . X . X X X . O X X X X o . X X . X o X . O . O . O . . . . 8 | #.+.+.+.+.+.#. .C v ",
"v b N C C C C C C C m & . . X X X . X . . X o @ O X + # # # # # @ o X o @ + X . . X . X . . . . & M C C C C C N C N m v ",
"v M G J J J J H J J A 6 X o X o O X X O X O # $ o O # $ % $ $ $ % @ o o $ @ o X X X X X o X o o * A J J J J J J J Z M v ",
"v J a.k.k.k.h.k.h.n.w.h # # # # @ X X # # # $ $ o X # $ $ % % $ % + O o $ $ # # @ o X @ @ # @ @ h w.v.c.v.h.h.k.v.w.] v ",
"v K g.B.N.N.N.N.N.D.j.z $ $ $ $ # X o % - % - % # + # = % % % % % $ o @ % = = = % + X # $ % $ % S j.D.M.m.N.N.N.B.g.[ v ",
"v Z &.2.1.1.1.2.<.2.&.g $ $ $ $ # X @ : > : > , % $ : ; > : > > : - % % ; > : > - @ O # $ $ $ $ g &.2.1.2.2.2.2.2.*.Z v ",
"v C +.*.$.$.*.#.*.,.@.g = $ = - $ + $ : > 1 1 > - % > > 1 > > > < : = - > 1 > < : $ + $ = - = = g @.*.*.*.#.*.#.*. .C v ",
"v C +.,.$.,.*.*.*.,.#.h > ; > > : % % > > > > > : % : > < > > > > : % - > > > > > = % - > > > ; h @.*.*.*.*.*.$.,.+.C v ",
"b C +.<.*.$.*.*.*.*.#.I x x F / l , - > 1 > > > - % : > > > > < > : % : > 1 > > > = = > > > > > z %.<.*.*.*.*.*.<.+.C v ",
"v C +.,.*.*.*.*.$.*.&.0.3.3.r.p.6.r % ; > > > > - % : > > > > > > : % : : < > 1 > = % ; > > > > h @.*.*.*.$.*.*.*.#.C v ",
"v Z #.<.<.<.,.,.<.,.:.q.r.u.Z.A.7.t % ; > 1 > > - % : > > > > > > : % : > > > > > = = > > < > > z %.<.*.<.<.,.,.,.#.Z v ",
"v C +.$.#.$.#.#.#.$.%.=.5.u.Z.C.6.r $ > > 1 > > - % , > > > > 1 > : = = > > > < : = % : > > > > f @.*.#.#.$.$.#.*.+.C v ",
"b m C H H H Z ] Z H J S x ^ ) ) l , - > > > > > - % : > > 1 > > > : % : > > > > > - % ; > > ; > q C ] ] Z G G G ] C m v ",
"b b N Z Z N Z N C C V u > 1 > 1 : - - ; 1 > > > - % > > > < > > > : = - > > > 1 > = = : < i i > y V Z N Z N N A Z N m v ",
"v G ;.a.a.a.a.a.a.d.0.D ; ; > ; - = - : > > > > - % : > > > > > > : % - > > > > > - = : a ` _ i z 0.a.a.a.a.a.a.d.;.G v ",
"v K x.F.B.B.B.B.D.F.v.L > ; > > : = - : 1 > > > - % : > > > > < > > % - > > > > > - % - Q i.7.s F l.D.B.B.B.B.B.B.h.[ v ",
"v G >.s.s.s.s.s.2.z.q.D > > > > : = - > > > 1 > - % : > < > > > > : % = > 1 > 1 > % % - k i.9.s z 1.z.s.s.s.s.s.f.>.H v ",
"v C +.,.$.$.$.$.*.*.@.f > > 1 > : = - > > > > > - = : < > > > > > : % - > 1 > > > = % ; k i.7.a f %.$.$.$.$.$.$.,.+.C v ",
"v C @.*.*.*.$.*.*.*.%.f > > > > : % - : > > > > - = : > > > > 1 > : % - > > > > : = % = k 9.7.s f @.*.$.$.$.$.$.,.+.C v ",
"v C +.<.*.*.*.*.*.*.@.D 1 ; > > : - - > 1 > > > - % : > > < > < > : % - > > > 1 > = % ; Q i.7.s f %.,.$.$.,.$.,.<.+.C v ",
"v C +.<.*.*.*.*.*.*.%.h > > > > : % - > > > < > - % : > > > > > > , = - > > > > > - % ; s i.7.s f #.,.*.*.&.$.,.<.+.C b ",
"v Z #.,.,.,.&.,.,.,.%.h > > > > : % = > > < > > - = : > > > > > > : % - > > > < > % % - k p.9.s f #.*.*.*.*.*.*.<.+.Z v ",
"v Z +.,.*.$.$.*.,.,.@.h > > > > : % % > > > > > - % : < > > > > > : % - > > > > > - % - k i.7.s f @.*.*.*.*.*.*.,.+.Z v ",
"v M ] [ [ [ [ [ [ [ J u ; ; ; : : % - > > > > > - % : > < > > > > : % - > > > < > = = ; p _ ( i u A } [ [ [ [ { [ J M v ",
"b b M M M M M M M N n y 3 3 3 3 > % - > 1 > > > - % : < > > > < > > % - > > > 1 > - % : > 3 < < u n M M M M M N M M b v ",
"v Z X.;.;.-.-.%.%.;.O.U L c ^ ) Q , % > > < > > : % : > > > < > > : % : > > > 1 > = % : > ; ; ; h O.;.%.&.%.;.-.;.X.Z v ",
"v K h.F.B.B.B.B.B.D.N.y.3.5.r.V.6.r % > > > > > - % : > > > > > > : % - > > > > > = = : > > > > L l.F.D.B.B.B.B.F.c.K v ",
"v H 1.c.c.g.c.c.c.x.g.e.r.u.A.S.t.r % ; > > 1 > - = : > < > > > > : % - > > > 1 > = = : > > > > D d.c.x.x.x.c.x.c.1.J v ",
"v Z +.:.,.$.:.,.&.,.:.=.5.t.p.V.` r = > > > > > - % : > > > > > > : % - > > > > > - = : > > > > z %.<.,.*.:.<.&.<.+.C v ",
"v C +.,.$.$.$.$.$.*.#.P k Q ~ ~ l , % > > > > > - % : > > > > > > : % = > > > > > = % : > > > > f @.*.$.*.*.$.$.*.+.C v ",
"v C +.:.,.&.$.$.,.,.%.z 2 1 2 2 > = - 1 3 3 3 1 : = > 1 3 3 3 3 2 > = : 2 3 2 2 < : = > 2 2 2 2 z %.,.*.&.$.*.*.<.+.C v ",
"v Z +.<.,.$.$.,.&.,.%.! R T R R 4 - > T E R R R < - 4 R R R R R R 4 - < R R R R T > : 4 R R R R ! %.,.*.*.*.&.*.<.+.C v ",
"v C +.<.$.,.&.,.*.,.%.( W W W W T : > E W W W E 3 - Y W W W W W W Y - 2 W W W W E > : R W W W W ( %.,.*.*.*.*.*.<.#.C v "
};
