/* XPM */
static char *result[] = {
/* columns rows colors chars-per-pixel */
"60 60 190 2 ",
"   c #000001",
".  c #0C0B0D",
"X  c #120D0E",
"o  c #190E0F",
"O  c #130E10",
"+  c #151315",
"@  c #1B1313",
"#  c #1A181A",
"$  c #2F1817",
"%  c #241C1D",
"&  c #2C1715",
"*  c #331917",
"=  c #341B19",
"-  c #381E1B",
";  c #3C211F",
":  c #36201F",
">  c #1F2022",
",  c #2B2C2D",
"<  c #292425",
"1  c #3E2220",
"2  c #312525",
"3  c #2E3132",
"4  c #333334",
"5  c #373839",
"6  c #3C3C3E",
"7  c #42211E",
"8  c #452522",
"9  c #4A2622",
"0  c #462827",
"q  c #4C2925",
"w  c #4C2C29",
"e  c #542E2A",
"r  c #582E29",
"t  c #542B26",
"y  c #5D322E",
"u  c #4A3D3C",
"i  c #5A3331",
"p  c #573332",
"a  c #61342E",
"s  c #643631",
"d  c #693631",
"f  c #663833",
"g  c #6C3A35",
"h  c #6F3E39",
"j  c #643D39",
"k  c #713D37",
"l  c #733E39",
"z  c #69423D",
"x  c #75403A",
"c  c #7C443D",
"v  c #3F3F41",
"b  c #414142",
"n  c #4B4C4D",
"m  c #52424B",
"M  c #5C4347",
"N  c #584B56",
"B  c #4F5152",
"V  c #5C5C5C",
"C  c #575257",
"Z  c #694642",
"A  c #61464B",
"S  c #664749",
"D  c #724540",
"F  c #754945",
"G  c #754E49",
"H  c #784F4A",
"J  c #624B54",
"K  c #6B4F57",
"L  c #62525D",
"P  c #6D535B",
"I  c #7D5653",
"U  c #72555C",
"Y  c #775857",
"T  c #7D625F",
"R  c #424E63",
"E  c #47536A",
"W  c #4A566D",
"Q  c #4C586F",
"!  c #4A5267",
"~  c #5A5362",
"^  c #52576B",
"/  c #5F5F60",
"(  c #4E5B73",
")  c #515D75",
"_  c #625664",
"`  c #645866",
"'  c #745A61",
"]  c #7B5E62",
"[  c #5F6060",
"{  c #556176",
"}  c #5E6174",
"|  c #54627B",
" . c #59657B",
".. c #5D687E",
"X. c #636465",
"o. c #6A6A6B",
"O. c #7E6265",
"+. c #73646E",
"@. c #737475",
"#. c #7C7C7C",
"$. c #79737E",
"%. c #7A6E73",
"&. c #8D4C45",
"*. c #854942",
"=. c #96524A",
"-. c #9C554D",
";. c #805F5C",
":. c #835F66",
">. c #836562",
",. c #896769",
"<. c #8A716F",
"1. c #827D7D",
"2. c #897674",
"3. c #917D7B",
"4. c #8B807F",
"5. c #90807E",
"6. c #596783",
"7. c #5B6983",
"8. c #5B6A86",
"9. c #626E86",
"0. c #626F8B",
"q. c #6B768D",
"w. c #67748B",
"e. c #757A8C",
"r. c #667694",
"t. c #6D7793",
"y. c #6C7996",
"u. c #677998",
"i. c #6E7E9E",
"p. c #727A94",
"a. c #737E9A",
"s. c #6F7FA0",
"d. c #7E808B",
"f. c #758095",
"g. c #72819E",
"h. c #7C869D",
"j. c #788397",
"k. c #6E81A2",
"l. c #7182A2",
"z. c #7B89A4",
"x. c #7C8AA8",
"c. c #868686",
"v. c #8C8C8C",
"b. c #898789",
"n. c #988785",
"m. c #9B8E8C",
"M. c #958987",
"N. c #9E918F",
"B. c #828695",
"V. c #8E9297",
"C. c #929293",
"Z. c #9B9C9C",
"A. c #999597",
"S. c #A09695",
"D. c #A29998",
"F. c #828EA4",
"G. c #818FAB",
"H. c #8C8FA1",
"J. c #8591A5",
"K. c #8693AE",
"L. c #8895AF",
"P. c #8E99AF",
"I. c #909AAF",
"U. c #989CAE",
"Y. c #9197A0",
"T. c #8A97B1",
"R. c #8C99B3",
"E. c #8292B0",
"W. c #929DB4",
"Q. c #939FB8",
"!. c #9FA1A2",
"~. c #96A1B9",
"^. c #99A5BC",
"/. c #9EA9BE",
"(. c #98A2B7",
"). c #A4A4A4",
"_. c #ACACAC",
"`. c #A7ABAB",
"'. c #AEB0B0",
"]. c #B2B2B3",
"[. c #BCBCBC",
"{. c #9EABC2",
"}. c #A2ADC2",
"|. c #CBCBCB",
" X c #D4D4D4",
".X c #DDDDDD",
"XX c #E2E2E2",
"oX c gray92",
"OX c #F1F1F1",
"+X c None",
/* pixels */
"+X+X+X+X+X+X+X+X+X+X+X+X+X+X+X+X+X+X+X+X+X+X+X+X+X+X+X+X+X+X+X+X+X+X+X+X+X+X+X+X+X+X+X+X+X+X+X+X+X+X+X+X+X+X+X+X+X+X+X+X",
"+X+X+X+X+X+X+X+X+X+X+X+X+X+X+X+X+X+X+X+X+X+X+X+X+X+X+X+X+X+X+X+X+X+X+X+X+X+X+X+X+X+X+X+X+X+X+X+X+X+X+X+X+X+X+X+X+X+X+X+X",
"+X+X+X+X+X+X+X+X+X+X+X+X+X+X+X+X+X+X+X+X+X+X+X+X+X+X+X+X+X+X+X+X+X+X+X+X+X+X+X+X+X+X+X+X+X+X+X+X+X+X+X+X+X+X+X+X+X+X+X+X",
"+X+X+X+X+X+X+X+X+X+X+X+X+X+X+X+X+X+X+X+X+X+X+X+X+X+X+X+X+X+X+X+X+X+X+X+X+X+X+X+X+X+X+X+X+X+X+X+X+X+X+X+X+X+X+X+X+X+X+X+X",
"+X+X+X+X+X+X+X+X+X+X+X+X+X+X+X+X+X+X+X+X+X+X+X+X+X+X+X+X+X+X+X+X+X+X+X+X+X+X+X+X+X+X+X+X+X+X+X+X+X+X+X+X+X+X+X+X+X+X+X+X",
"+X+X+X+X+X+X+X+X+X+X+X+X+X+X+X+X+X+X+X+X+X+X+X+X+X+X+X+X+X+X+X+X+X+X+X+X+X+X+X+X+X+X+X+X+X+X+X+X+X+X+X+X+X+X+X+X+X+X+X+X",
"+X+X+X+X+X+X+X+X+X+X+X+X+X+X+X+X+X+X+X+X+X+X+X+X+X+X+X+X+X+X+X+X+X+X+X+X+X+X+X+X+X+X+X+X+X+X+X+X+X+X+X+X+X+X+X+X+X+X+X+X",
"+X+X+X+X+X+X+X+X+X+X+X+X+X+X+X+X+X+X+X+X+X+X+X+X+X+XL.L.L.L.L.L.L.L.+X+X+X+X+X+X+X+X+X+X+X+X+X+X+X+X+X+X+X+X+X+X+X+X+X+X",
"+X+X+X+X+X+X+X+X+X+X+X+X+X+X+X+X+X+X+X+X+X+X+X+XL.T.L.L.L.L.L.L.L.L.L.L.+X+X+X+X+X+X+X+X+X+X+X+X+X+X+X+X+X+X+X+X+X+X+X+X",
"+X+X+X+X+X+X+X+X+X+X+X+X+X+X+X+X+X+X+X+X+X+X+X+XT.L.L.L.L.L.L.L.L.L.L.L.+X+X+X+X+X+X+X+X+X+X+X+X+X+X+X+X+X+X+X+X+X+X+X+X",
"+X+X+X+X+X+X+X+X+X+X+X+X+X+X+X+X+X+X+X+X+X+X+X+XG.L.L.L.L.L.L.L.L.L.L.J.+X+X+X+X+X+X+X+X+X+X+X+X+X+X+X+X+X+X+X+X+X+X+X+X",
"+X+X+X+X+X+X+X+X+X+X+X+X+X+XL.L.L.L.L.L.T.L.9.Q y.L.L.K.K.L.K.L.L.L.L.y.( 9.K.T.L.L.L.L.L.L.+X+X+X+X+X+X+X+X+X+X+X+X+X+X",
"+X+X+X+X+X+X+X+X+X+X+X+X+XT.L.L.L.L.L.T.T.K.9.Q q.R.W.R.R.R.R.R.R.R.R.t.Q 9.K.T.L.L.L.L.L.T.K.+X+X+X+X+X+X+X+X+X+X+X+X+X",
"+X+X+X+X+X+X+X+X+X+X+X+X+XT.L.L.L.L.L.L.L.K.9.Q j.^.}././././././.}./.j.Q 8.K.T.T.L.L.L.L.L.T.+X+X+X+X+X+X+X+X+X+X+X+X+X",
"+X+X+X+X+X+X+X+X+X+X+X+X+XF.T.L.L.L.L.L.T.K.9.Q p.^./.^.^.^./.^.^./.~.j.Q 9.K.T.L.L.L.L.K.L.G.+X+X+X+X+X+X+X+X+X+X+X+X+X",
"R | z.T.L.L.L.L.L.R.F. .) g.T.L.K.K.L.K.L.L.9.Q 9.x.G.x.x.x.x.x.x.x.x.9.W 9.K.T.K.L.K.K.T.T.j.)  .F.R.L.T.L.L.L.T.z.| R ",
"R  .z.T.T.L.T.K.T.T.x.6.) h.Q.Q.Q.W.W.Q.~.W.w.W 7.i.i.i.i.i.i.i.i.s.i.6.W w.W.~.W.W.W.Q.Q.Q.h.)  .G.T.L.L.L.L.L.T.F. .R ",
"R { z.T.K.L.K.T.L.T.F. .) K.}.}.}.{.}.}.}./.p.W 6.i.l.i.i.i.i.g.s.s.i.6.W p./.}.}.}.{.}.}.}.F.)  .F.T.L.L.L.L.L.T.x.) R ",
"R ) z.L.K.L.K.K.K.T.F. .) h.~.Q.Q.Q.Q.Q.~.R.q.W 6.i.g.k.i.s.s.i.s.s.s.7.W w.W.^.Q.~.Q.Q.Q.(.z.(  .x.T.L.K.K.L.L.T.z.) R ",
"R  .z.T.T.L.T.T.L.T.x. .Q w.l.z.l.z.l.l.z.l.7.E 7.i.i.i.s.g.i.s.a.s.i.7.W 7.g.l.l.z.l.l.l.l.r.Q  .F.T.L.L.L.T.T.T.z. .R ",
"R  .L.(.(.(.(.(.(.^.R.9.Q 8.s.s.i.i.i.i.i.u.6.W 8.l.l.l.k.k.k.k.s.s.s.8.E 6.i.s.i.i.i.i.i.i.0.( 7.P.^.(.(.(.^.Q.(.L...R ",
"R ..W.}.}.}.}.}.}.}.W.9.Q 8.s.s.i.k.s.k.l.i.6.! 7.y.i.a.i.y.i.i.i.i.i.6.E  .i.s.s.g.s.k.s.s.8.Q 9.(.}.}.}.}.}.}.}.W...R ",
"R  .F.R.R.T.T.T.R.Q.J...Q r.l.l.l.l.l.l.l.s.) m N ~ ~ ` ` ` ` ` ` _ ~ N m ) s.l.k.l.l.l.l.l.r.Q 6.K.W.R.R.T.T.W.R.x. .R ",
"R ) y.l.l.g.l.l.l.l.y.) ! 9.i.y.y.y.y.y.i.t.` i 0 0 e p y p p y p e 8 q i ` t.p.y.y.y.y.y.y.9.E ) y.l.s.a.l.s.s.l.y.( R ",
"R ) r.s.s.i.u.s.s.k.r.~ m N L L C N N L L L A e 7 7 9 e r t r r r q 7 9 e M L _ L N N C L L J m ~ y.s.s.s.i.i.i.s.r.) R ",
"R ) u.l.s.s.s.s.k.l.t.J r y y r e 0 w r y p y r q 9 t y y y y y y t 9 q r r i r i q 0 t y p r r J t.l.s.s.i.s.i.s.u.) R ",
"R ) u.s.s.s.s.s.l.l.y.J r r r r t 7 q a d a d s y e i d d d d s f i e r f s s d a 9 7 t r r r r J p.l.s.l.s.s.s.s.u.) R ",
"R ( 0.u.y.r.y.y.r.y.9.J y r y y t 0 t g k g k g s y d h g g g h g g i s k k g k f t 0 e y y y r J 9.u.u.y.r.r.y.u.0.( R ",
"R E Q ( ( ( ( ( ( ( ! M d d s s a e i g g g k g s y g k h h h k k f s d g g g k g i r s d f d f M ! ( ( ( ( ( ( ( ( E R ",
"R W )  . .|  . . .| } P G F G I F s s g k g g g s y e e e e e t t q 9 e g k g g g s s f k g g k J }  . .|  . .| } ) E R ",
"R  .F.U.I.W.P.P.W.W.P.b.1.2.4.m.3.Z y g k g h g f e = @ o o o o o X O ; g l g k f s i d k g g g ] V.R.I.I.I.I.I.W.F.) R ",
"R  .L.{.(.^.^.(.^.^.(.V.V.C.!._.m.Z r g g g k g e 1 % > 3 5 5 v n C B u w r g k g s a f g k d g :.W.{.^.^.^.^.^.}.T.7.R ",
"R ) a.x.l.x.x.l.x.x.z.B.C.!._._.M.Z y g g g k f : @ 4 V 1.C.C.`.|..X X1.% - d k d s a d h h d h ' a.x.l.x.x.z.z.x.i.( R ",
"R ) r.s.i.i.i.i.u.s.y.$.2.3.n.n.,.z y z k g y 0 : , V #.#.@.@.b.`.[.|.!.X.u e y g s y f h d g d P t.s.s.u.i.i.i.s.r.( R ",
"R ( r.k.s.s.s.s.s.k.y.' x F F F z s y g x f ; @ 3 V v.v.b # # # > 6 X.`. X#.% 7 d s y f g k g k P t.s.s.s.s.s.i.s.r.( R ",
"R ( r.l.s.a.s.s.s.l.p.P g d d d s y s g k g = . 3 X.Z.C.4         + n '.OXc.. = g f y g k d d g ' p.l.s.s.s.s.s.s.r.) R ",
"R ) r.l.s.i.s.s.s.s.t.P g d k k f y s g z f : O 5 o.Z.C.6 . . . . < C `.oXc.# ; f s y g h x g g P t.s.s.i.i.s.s.s.y.) R ",
"R ) u.k.l.l.l.s.l.s.p.U h d g h d a s g r ; 2 5 [ c.).Z.@.V C V V o.4._.|.].4.n ; q y s D ,.>.x P t.l.s.l.l.l.l.s.i.) R ",
"R ( r.i.y.s.u.s.i.s.q.U g k g g f y s g 7 O , V b.`._._.).).).).).`.`._.]..XXXo.@ : y d I N.m.H K w.s.s.i.y.i.y.s.r.) R ",
"E E ( | | ) | ) ) ) ) A k d h g d a s g ; . , X.C._.'.'.'.].[.[.].].'._.'.XXOX@.X * s d I D.N.H M ( 6.) | ) | ) ) ) E R ",
"R ! Q ) ) ^ Q ) ) ) ^ A g g k g d y s g 1 . , _ M._.'._._.`.Z.A.A.!._._.'..XoX@.O = a d I S.m.H M ^ ( ( ^ ) ^ ) ( Q E R ",
"R { j.F.F.F.F.F.z.K.B.' g g k g g y s g 1 O , / v._.'._.'.A.V 6 b o.!.'.'.XXoX@.O = a d I N.m.H U B.J.F.F.F.F.F.J.j.| R ",
"R ..P.}././.{.^./.{.U.>.g g g g f y s g 1 O , V v._.'.'.].c.,     b Z.'.'. X.Xo.O * a d I S.m.H ] U.{.{./.^./.}.}.P. .R ",
"R | g.K.G.G.G.G.G.E.h.' g g k g d y s f 1 X , / v._.'.'.].c.,     b D.].].[.].C O : a d I S.m.H U h.E.G.G.G.G.G.K.g. .R ",
"R ( r.l.i.i.i.i.i.s.t.P g g g g d y s g 8 . , / v._.]._.].c.,     b Z.].'.].Z.n X : a s I S.N.H K t.s.a.i.i.i.i.a.r.( R ",
"R ( r.k.i.s.s.i.i.s.t.P g g g k g a s g 1 O , / v._.'.'.].b.<     b Z.]._.].).n X : y d ;.N.N.H K t.s.s.s.i.i.s.k.r.) R ",
"R ( y.g.s.s.s.s.s.s.t.U g g g k f y s d 1 X , / v._.'.'.].C.B 3 4 [ Z.'._.].D.n X : a d H 5.<.F P y.k.a.i.s.s.i.k.r.) R ",
"R ( r.s.s.a.s.s.s.s.t.U k g g g f y s g 8 . , [ M._.'._.'.).A.C.C.Z._.'._.].!.n X ; y s x G c x P y.k.i.s.i.i.s.l.u.) R ",
"R ) u.l.s.l.s.l.k.k.p.P h d g g f y s g ; . , X.C.'.].].].].].[.[.].].'.].[.).n . - i g h d d k U p.k.k.l.s.s.l.l.u.( R ",
"R ) r.s.i.i.i.i.i.k.t.P h g h g g a s f 8 . , V v.`._._._._.`.`.`._.`._._.'.D.n X - a g h g d k P t.s.s.i.i.i.i.s.r.( R ",
"R E | 6.6.6.6.6.6.6...J d d g d d y f g e : 2 5 B [ X.X.X.X.X.X.X.X.X.X.[ X.[ u ; q a d d g d d J } 7.6.6.6.6.6.6. .W R ",
"E E E ( W W W W W W ^ M k k x x f i s g g s ; + + + + + + + + + @ + + + # + @ 0 f a y j h g k h A ! Q Q W W W W W W ! R ",
"R ) q.j.j.f.f.f.p.j.e.%.T T ,.<.;.j a g k g e - $ & $ = = = * = = $ $ $ = * - e h a a d k d d g P e.j.p.j.j.p.f.j.w.) R ",
"R ..I./.^././././.{.^.A.v.b.A.).n.Z r g h g g g a y s g g f g d g a y i j f g h g s y d h h k k >.U.{.{.^./././.}.P...R ",
"R { x.R.T.T.L.R.T.T.T.V.C.!._.].m.S y g g g g h s i g k h g h k h f a d g k h g g i y d d h k d ' F.R.T.T.L.R.T.R.x. .R ",
"R ) r.l.l.i.g.g.k.s.a.c.b.A.D.).5.Z y g k g g g s y d k g g h g g f y d g h g g g s a d k d d k P p.l.k.k.g.g.g.l.r.( R ",
"R ( r.k.i.i.i.i.i.s.y.+.I ;.>.>.I j y d g g g g s y f g g g g g g d y s g g g g g a y f d h d d P t.s.i.s.i.i.i.s.r.( R ",
"R ) r.l.i.l.i.i.k.l.p.U l k l l d a s x x k x l f y g l x x x x x g y d x x x x h s y h x x x x U p.k.i.s.s.i.s.l.y.( R ",
"R ( y.g.i.i.i.i.s.s.p.:.&.&.&.&.c s h *.=.&.&.&.h s c &.&.&.&.&.&.x i x &.&.&.=.*.h d c &.&.&.&.:.p.k.s.s.a.s.s.l.r.( R ",
"R ( r.k.i.l.i.l.s.s.p.,.-.-.-.-.&.a h =.-.-.-.=.x s *.-.-.-.-.-.-.*.s x =.-.-.-.=.k f *.-.-.-.-.,.p.k.a.s.s.s.s.l.y.( R "
};
