/* XPM */
static char *result[] = {
/* columns rows colors chars-per-pixel */
"60 60 177 2 ",
"   c #43221E",
".  c #462624",
"X  c #4A2622",
"o  c #462827",
"O  c #4C2925",
"+  c #502925",
"@  c #582C27",
"#  c #542E2A",
"$  c #582E29",
"%  c #5E322E",
"&  c #573332",
"*  c #5A3331",
"=  c #62332E",
"-  c #633631",
";  c #6B3732",
":  c #663833",
">  c #6C3A35",
",  c #6E3E39",
"<  c #643D39",
"1  c #723D37",
"2  c #743F39",
"3  c #66403B",
"4  c #6B433E",
"5  c #73413B",
"6  c #7C443D",
"7  c #5E4144",
"8  c #52424B",
"9  c #5E4349",
"0  c #524753",
"q  c #574C57",
"w  c #5C4B54",
"e  c #594D58",
"r  c #5E505B",
"t  c #604247",
"y  c #6A4642",
"u  c #6C4844",
"i  c #61464B",
"p  c #65494E",
"a  c #6F4D49",
"s  c #734642",
"d  c #754A45",
"f  c #764D49",
"g  c #784F4A",
"h  c #77514D",
"j  c #7A524E",
"k  c #624B54",
"l  c #6B4F57",
"z  c #62525D",
"x  c #6D535B",
"c  c #765652",
"v  c #7D5653",
"b  c #7C5956",
"n  c #72555C",
"m  c #7B5D59",
"M  c #75595D",
"N  c #7D625F",
"B  c #424E63",
"V  c #455167",
"C  c #4E5467",
"Z  c #47536A",
"A  c #4A566D",
"S  c #4C586F",
"D  c #5A5362",
"F  c #52576B",
"G  c #4E5B73",
"H  c #515D75",
"J  c #625664",
"K  c #645866",
"L  c #745A61",
"P  c #7B5E62",
"I  c #556176",
"U  c #5E6174",
"Y  c #54627B",
"T  c #59657B",
"R  c #5D687E",
"E  c #7E6363",
"W  c #73646E",
"Q  c #7A6E73",
"!  c #79737E",
"~  c #834740",
"^  c #874A43",
"/  c #8D4C45",
"(  c #96524A",
")  c #9C554D",
"_  c #815E5B",
"`  c #82615E",
"'  c #835F66",
"]  c #846562",
"[  c #876865",
"{  c #8B646A",
"}  c #846D6B",
"|  c #896D6A",
" . c #8B706E",
".. c #8E7572",
"X. c #8B7875",
"o. c #857978",
"O. c #857674",
"+. c #907977",
"@. c #917D7B",
"#. c #8B807F",
"$. c #90807E",
"%. c #566580",
"&. c #596783",
"*. c #5B6983",
"=. c #5F6E8C",
"-. c #626E86",
";. c #626F8B",
":. c #637087",
">. c #6B768D",
",. c #6B788F",
"<. c #757A8C",
"1. c #667694",
"2. c #6D7793",
"3. c #6C7996",
"4. c #677998",
"5. c #6E7E9E",
"6. c #727A94",
"7. c #707E9B",
"8. c #787F99",
"9. c #6F7FA0",
"0. c #7E808B",
"q. c #758095",
"w. c #788397",
"e. c #72819E",
"r. c #7C869D",
"t. c #6E81A2",
"y. c #7182A2",
"u. c #7B89A4",
"i. c #7C8AA8",
"p. c #8D8787",
"a. c #8B8988",
"s. c #89868C",
"d. c #958482",
"f. c #988785",
"g. c #968887",
"h. c #9B8E8C",
"j. c #968B89",
"k. c #9D918F",
"l. c #818495",
"z. c #858A95",
"x. c #8F9191",
"c. c #8C939D",
"v. c #939494",
"b. c #9D9392",
"n. c #9C9F9F",
"m. c #92949B",
"M. c #A09695",
"N. c #A19897",
"B. c #A29998",
"V. c #828EA4",
"C. c #818FAB",
"Z. c #8C8FA1",
"A. c #8591A5",
"S. c #8693AE",
"D. c #8895AF",
"F. c #8E99AF",
"G. c #9197A0",
"H. c #909AAF",
"J. c #989CAE",
"K. c #8292B0",
"L. c #8A97B1",
"P. c #8C99B3",
"I. c #929DB4",
"U. c #939FB8",
"Y. c #9FA2A2",
"T. c #96A1B6",
"R. c #9AA4B7",
"E. c #96A1B9",
"W. c #99A5BC",
"Q. c #9EA9BE",
"!. c #A5A2A2",
"~. c #A9ACAC",
"^. c #AEB0B0",
"/. c #B0B4B5",
"(. c #9EABC2",
"). c #A2ADC2",
"_. c None",
/* pixels */
"_._._._._._._._._._._._._._._._._._._._._._._._._._._._._._._._._._._._._._._._._._._._._._._._._._._._._._._._._._._._.",
"_._._._._._._._._._._._._._._._._._._._._._._._._._._._._._._._._._._._._._._._._._._._._._._._._._._._._._._._._._._._.",
"_._._._._._._._._._._._._._._._._._._._._._._._._._._._._._._._._._._._._._._._._._._._._._._._._._._._._._._._._._._._.",
"_._._._._._._._._._._._._._._._._._._._._._._._._._._._._._._._._._._._._._._._._._._._._._._._._._._._._._._._._._._._.",
"_._._._._._._._._._._._._._._._._._._._._._._._._._._._._._._._._._._._._._._._._._._._._._._._._._._._._._._._._._._._.",
"_._._._._._._._._._._._._._._._._._._._._._._._._._._._._._._._._._._._._._._._._._._._._._._._._._._._._._._._._._._._.",
"_._._._._._._._._._._._._._._._._._._._._._._._._._._._._._._._._._._._._._._._._._._._._._._._._._._._._._._._._._._._.",
"_._._._._._._._._._._._._._._._._._._._._._._._._._.D.D.D.D.D.D.D.D._._._._._._._._._._._._._._._._._._._._._._._._._._.",
"_._._._._._._._._._._._._._._._._._._._._._._._.D.L.D.D.D.D.D.D.D.D.D.D._._._._._._._._._._._._._._._._._._._._._._._._.",
"_._._._._._._._._._._._._._._._._._._._._._._._.L.D.D.D.D.D.D.D.D.D.D.D._._._._._._._._._._._._._._._._._._._._._._._._.",
"_._._._._._._._._._._._._._._._._._._._._._._._.C.D.D.D.D.D.D.D.D.D.S.S._._._._._._._._._._._._._._._._._._._._._._._._.",
"_._._._._._._._._._._._._._.D.D.D.D.D.D.L.S.:.S 3.D.D.S.S.D.S.D.D.D.S.3.G :.D.D.D.D.D.D.D.D._._._._._._._._._._._._._._.",
"_._._._._._._._._._._._._.L.D.D.D.D.D.L.D.S.:.A ,.P.I.P.P.P.P.P.I.I.L.2.A -.S.L.D.D.D.D.D.D.D._._._._._._._._._._._._._.",
"_._._._._._._._._._._._._.L.D.D.D.D.D.D.D.S.-.S q.W.).Q.Q.Q.Q.Q.Q.Q.Q.q.A -.S.L.L.D.D.D.D.D.L._._._._._._._._._._._._._.",
"_._._._._._._._._._._._._.V.L.D.D.L.D.D.L.S.-.S 8.W.Q.W.W.W.Q.W.W.Q.W.6.S -.S.L.D.D.D.D.D.D.C._._._._._._._._._._._._._.",
"B Y u.L.D.D.D.D.D.P.V.T H e.L.D.S.S.D.S.L.S.:.A -.u.C.i.i.i.i.i.i.i.i.;.A :.S.L.S.S.L.S.D.D.e.H T V.P.L.D.D.D.D.L.u.Y B ",
"B T u.L.S.S.L.S.D.P.C.T H u.U.U.I.I.U.I.E.I.>.A &.5.5.5.5.5.5.5.7.9.5.&.A >.I.E.I.T.I.I.U.U.r.H T C.L.D.L.S.S.L.L.u.H B ",
"B Y r.L.L.L.S.L.D.L.i.T H V.).).).(.).).).W.6.A &.5.e.t.5.9.5.5.9.9.5.&.A 6.Q.).).(.).(.).).V.H T V.L.L.S.L.S.S.L.u.T B ",
"B H u.F.S.S.S.S.S.F.i.T H r.U.U.E.E.U.U.E.I.>.A &.5.t.5.5.t.t.5.9.9.9.*.A >.P.E.U.E.E.U.E.E.u.G T V.L.S.S.S.S.L.L.u.T B ",
"B T u.L.L.L.S.L.D.L.V.T A >.u.y.y.y.y.y.u.y.%.A &.t.e.5.5.5.t.5.9.9.7.*.Z *.y.u.y.u.y.y.y.y.>.S T C.L.D.S.L.L.L.F.u.Y B ",
"B T S.W.R.R.U.R.E.W.I.R A =.9.5.y.5.5.5.9.4.%.A &.t.y.y.y.y.y.y.9.y.y.*.Z &.5.9.5.5.5.5.5.5.=.A *.F.R.R.R.R.R.U.R.S.R B ",
"B R I.).).).).).).).T.-.A =.9.9.e.5.9.t.y.5.%.C *.5.7.5.3.3.5.5.5.7.5.%.Z Y 5.y.t.5.5.t.t.9.=.S -.T.).).).).).).).I.R B ",
"B T V.P.P.L.L.P.P.I.A.&.S 1.y.y.t.y.y.y.y.9.H 8 0 D D K K K K K K J D 0 0 H 9.y.t.y.y.y.y.y.1.S %.S.I.P.L.L.L.P.P.i.Y B ",
"B H 4.y.y.e.y.y.y.y.3.H Z ;.3.6.3.3.3.3.5.2.K * O o # * * * * * * # . X * K 2.3.3.3.3.3.3.3.-.Z H 3.y.9.e.y.e.y.y.3.H B ",
"B H 1.9.5.5.5.5.5.t.1.D 8 w z J e q e z z z t $ X   O $ $ @ @ # # X   X # 7 z z z e q z J z w 8 D 2.9.9.5.9.5.5.9.3.H B ",
"B G 3.y.9.5.9.5.t.y.2.k % $ $ % # . O $ = * * $ O . + % % % % % % # X O $ % % % % . . + $ % $ $ z 2.y.9.9.7.9.9.9.4.G B ",
"B H 4.y.9.y.9.9.y.y.3.k $ @ $ # + . X = ; = - - % # % : : : : : : % # % : : = : = X . + $ $ @ $ k 2.y.9.y.9.9.9.y.4.H B ",
"B G ;.4.3.1.1.1.3.4.-.w % $ % % # . # : 1 > > > = % : > > > > ; > : % - > > 1 > : # . # % = % $ k -.4.4.3.1.1.3.4.;.G B ",
"V V G G G G G G G G C 9 : = = : = # * > , > > > - % : > > 1 > > > : % - > , > , > % # * > : : : 9 C G G G G G S H S V B ",
"B Z H T T Y T T T T U x d g g c d - = > > > 1 > - = : , > > > > > : % - > > > > > - - ; > 1 > 1 k U T T Y T T T U H A B ",
"B T V.J.H.P.F.H.H.H.F.s.o.o.#.h.X.4 % > 1 > 1 > - % : > 1 > > , > > % - > > > > > - % : > > ; > P Z.P.H.H.H.F.H.I.V.T B ",
"B T D.Q.W.W.W.R.W.W.T.G.x.v.Y.^.h.y % > > > > : - % : > > > > > > : % = > > > > > - % ; > 1 ; > E H.(.W.W.W.W.W.(.S.&.B ",
"B I 3.i.u.y.i.u.u.u.u.z.x.Y.~.^.j.y * : 1 > > > = - : > 1 > > > > : % = > > > > > - = : > 1 > > L 6.i.i.u.y.u.y.i.7.H V ",
"B G 1.y.5.9.9.5.9.9.2.<. .@.f.f.} 3 = > > , j ' u $ : > > > > , > : $ u ` j , > > - = : > > ; > x 2.9.9.9.9.5.9.9.1.G B ",
"V G 1.y.7.9.5.9.9.9.4.L 5 s d d , - - : > 1 | b.E * - > > > > > > - : E b...1 > > - = : 1 > > 1 x 2.y.9.9.9.9.7.9.1.H B ",
"B G 1.y.9.5.9.9.9.9.2.l ; ; ; ; ; $ - > > , _ @.X.] d > > , > > > d ] X.+._ , > : * % : > ; ; ; n 3.y.9.9.9.9.5.9.4.G B ",
"B G 1.y.9.9.9.9.9.y.2.x > > > 1 : % - > > > 1 d @.b.` > > > > ; > ` b.+.d , > > > = = ; > 1 , > n 2.9.9.5.5.5.5.y.4.G B ",
"V G 4.y.y.y.y.9.9.y.6.x > > > > : % - > > > ; , b } j > ; ; > > > h } m 1 : > > > = = : d [ ] s x 2.y.9.y.y.y.9.9.4.H B ",
"B G 1.5.3.5.4.5.5.5.>.n > > > > : % - > 1 > > > : - : > 5 5 , > > > * : > > > 1 > % % = _ k.h.f l 1.9.5.3.5.5.5.9.3.G B ",
"B Z G Y Y Y H Y Y H H p > 1 > > : % - > > > > > = % = d  . .d : > : % = > > > > > - % ; j B.k.g 9 H H Y Y H H Y H H A B ",
"V V S H H F S H G G F i > 1 > > : = - > > > > > - = = f d.h._ 5 > : % - > > > > > * = = v M.k.g t F H H H S F G H G V B ",
"B I w.A.V.V.V.V.V.S.l.L > > > > : % = : 1 , > > - = : 5 b | d...d : % - > , > 1 > = % ; v N.h.g c l.V.V.V.V.V.V.V.q.Y B ",
"B T F.).Q.Q.W.(.W.(.J.] > > > > : = - > > > 1 > - $ : ; ; j f.d.d = % : > > > > > = % = _ M.h.f P J.).W.W.W.(.).Q.H.R B ",
"B I e.S.i.S.C.C.C.K.r.L > > > > : % - > > > > > - $ : > > 5 v v 5 : % = ; > > 1 > * % : j M.h.g n u.K.C.V.S.C.C.S.r.Y B ",
"B H 1.t.5.5.5.5.5.9.2.x 1 ; 1 > : = - : 1 > > > s a 4 > > > > ; > : = 4 j d > > > - = = _ M.h.g l 2.9.5.5.5.5.5.t.1.G B ",
"B G 1.y.9.9.5.9.5.9.2.x ; > > > : % = > > > : ,  .g._ > > > > > > : % m f.| > ; > = % ; j M.h.g l 2.y.5.9.5.5.9.9.1.G B ",
"B G 1.y.7.9.9.7.5.t.2.n > > > > : = - > > , d ` @.d.b > > > , > 1 = * m f.+.` d > % % = j +...d x 2.t.9.5.9.e.5.y.1.G V ",
"B G 1.y.9.9.9.9.9.t.2.x 1 > > , : % - > : 1 | b.} y , > > > > 1 > : % < j X.k.] > = = ; 5 d d 2 x 3.t.5.9.5.5.t.y.1.G B ",
"B H 1.y.t.y.y.5.y.y.3.x > ; > > ; = - > : 4 ] $.c % = > > > > > > : % = > ] @._ > % % : > ; ; > n 6.y.y.y.t.7.y.y.3.G B ",
"B H 1.9.5.5.5.5.t.t.2.n > > > > ; % % > > > 5 6 < % ; > > > > > > : % = > 5 d 5 > = % > > > ; 1 x 3.t.9.5.5.5.5.y.1.G B ",
"B A Y &.&.&.%.&.*.&.T k ; ; ; ; : % - > , > > ; = % : , , > > > > : % - > ; : > > - % : > 5 : > p T &.&.&.&.&.&.*.T A B ",
"V V A G A S A A Z A C i 5 1 5 4 > * - > > > > > - % : > > > > , > ; % : > 1 > > > = % ; > > > > i C A A S A A A S Z V B ",
"B H >.q.q.q.6.q.8.q.<.Q E N [  .N < = > > > 1 > - % : > , > > > > : % - > > > > > % % < > > > > x <.q.q.q.q.q.6.w.>.H B ",
"B R H.).(.Q.Q.Q.Q.(.R.m.p.p.v.!.d.y % > > > > > - % : > > > > > > : % - > > > 1 > - % > > 1 ; > E J.(.Q.Q.Q.Q.Q.Q.F.R B ",
"B I u.P.L.L.F.L.L.L.D.c.v.n.~./.k.y % ; > > > > - % > > > > > 1 > : % : > 1 > > > % % ; > > > > P V.P.L.L.L.L.L.P.i.Y B ",
"B H 1.y.t.t.e.e.e.y.e.0.a.b.!.!.#.y = > > , > > - % : > , > > > > : = - : > , > > - % > > > ; 1 x 6.y.t.e.t.e.y.y.3.H B ",
"B H 1.5.5.5.5.5.5.9.3.W _ _ _ ] c < % ; > ; > > = % : > ; > > ; > : % - > > > > > - % : > > ; ; x 2.9.5.9.5.5.5.9.1.G B ",
"B H 1.y.t.5.5.5.e.t.6.n 1 1 2 2 ; = = 5 5 5 5 2 : % > 5 6 5 5 5 2 > % : 2 5 2 5 1 : % > 2 2 2 2 n 2.t.9.7.9.9.5.y.3.G B ",
"B H 1.y.5.9.7.t.9.t.6.' / ^ / / 6 : > ^ ( / / / > = 6 / / / / / / 6 - > ^ / / / ^ > : 6 / / / / ' 6.t.9.7.y.9.9.y.4.G B ",
"B G 1.y.9.e.5.t.9.9.6.{ ) ) ) ) ^ : > ( ) ) ) ( 5 : ~ ) ) ) ) ) ) ~ : 2 ) ) ) ) ( 1 : ^ ) ) ) ) { 6.t.7.9.9.9.9.y.1.G B "
};
